%TF.GenerationSoftware,KiCad,Pcbnew,9.0.0*%
%TF.CreationDate,2025-03-09T03:35:17-07:00*%
%TF.ProjectId,sensor,73656e73-6f72-42e6-9b69-6361645f7063,v0.2*%
%TF.SameCoordinates,Original*%
%TF.FileFunction,Soldermask,Top*%
%TF.FilePolarity,Negative*%
%FSLAX46Y46*%
G04 Gerber Fmt 4.6, Leading zero omitted, Abs format (unit mm)*
G04 Created by KiCad (PCBNEW 9.0.0) date 2025-03-09 03:35:17*
%MOMM*%
%LPD*%
G01*
G04 APERTURE LIST*
%ADD10C,1.800000*%
%ADD11C,2.200000*%
%ADD12R,1.800000X1.800000*%
%ADD13C,2.000000*%
G04 APERTURE END LIST*
D10*
%TO.C,ESP32_UWB1*%
X25400000Y-48260000D03*
X27940000Y-48260000D03*
X30480000Y-48260000D03*
X33020000Y-48260000D03*
X35560000Y-48260000D03*
X38100000Y-48260000D03*
X40640000Y-48260000D03*
X43180000Y-48260000D03*
X45720000Y-48260000D03*
X48260000Y-48260000D03*
X50800000Y-48260000D03*
X53340000Y-48260000D03*
X55880000Y-48260000D03*
X58420000Y-48260000D03*
X60960000Y-48260000D03*
X63500000Y-48260000D03*
X66040000Y-48260000D03*
X68580000Y-48260000D03*
X71120000Y-48260000D03*
X73660000Y-48260000D03*
X25400000Y-20320000D03*
X27940000Y-20320000D03*
X30480000Y-20320000D03*
X33020000Y-20320000D03*
X35560000Y-20320000D03*
X38100000Y-20320000D03*
X40640000Y-20320000D03*
X43180000Y-20320000D03*
X45720000Y-20320000D03*
X48260000Y-20320000D03*
X50800000Y-20320000D03*
X53340000Y-20320000D03*
%TD*%
%TO.C,R3*%
X60960000Y-59690000D03*
X60960000Y-52070000D03*
%TD*%
%TO.C,R1*%
X53340000Y-59690000D03*
X53340000Y-52070000D03*
%TD*%
%TO.C,R2*%
X55880000Y-59690000D03*
X55880000Y-52070000D03*
%TD*%
D11*
%TO.C,REF\u002A\u002A*%
X17780000Y-73660000D03*
%TD*%
D10*
%TO.C,SERVER_LED1*%
X50800000Y-66040000D03*
D12*
X53340000Y-66040000D03*
D10*
X55880000Y-66040000D03*
X58420000Y-66040000D03*
%TD*%
D11*
%TO.C,REF\u002A\u002A*%
X17780000Y-17780000D03*
%TD*%
D10*
%TO.C,5V_Regulator1*%
X31040000Y-64540000D03*
X31040000Y-72820000D03*
X45360000Y-64540000D03*
X45360000Y-72820000D03*
%TD*%
%TO.C,TAG_LED1*%
X60960000Y-66040000D03*
D12*
X63500000Y-66040000D03*
D10*
X66040000Y-66040000D03*
X68580000Y-66040000D03*
%TD*%
D13*
%TO.C,CAN_Transreceiver1*%
X44320000Y-59690000D03*
X44320000Y-57150000D03*
X44320000Y-54610000D03*
X44320000Y-52070000D03*
X24020000Y-58420000D03*
X24020000Y-53340000D03*
X30620000Y-57150000D03*
X30620000Y-54610000D03*
%TD*%
D10*
%TO.C,R4*%
X63500000Y-59690000D03*
X63500000Y-52070000D03*
%TD*%
D11*
%TO.C,REF\u002A\u002A*%
X96520000Y-73660000D03*
%TD*%
%TO.C,REF\u002A\u002A*%
X96520000Y-17780000D03*
%TD*%
D10*
%TO.C,2_PIN_Connector1*%
X24130000Y-66040000D03*
X24130000Y-71120000D03*
%TD*%
M02*
