M48
; DRILL file {KiCad 9.0.0} date 2025-03-08T16:20:33-0800
; FORMAT={-:-/ absolute / metric / decimal}
; #@! TF.CreationDate,2025-03-08T16:20:33-08:00
; #@! TF.GenerationSoftware,Kicad,Pcbnew,9.0.0
; #@! TF.FileFunction,Plated,1,2,PTH
FMAT,2
METRIC
; #@! TA.AperFunction,Plated,PTH,ComponentDrill
T1C0.800
%
G90
G05
T1
X109.22Y-116.84
X110.06Y-86.36
X110.06Y-109.22
X111.76Y-116.84
X112.6Y-86.36
X112.6Y-109.22
X114.3Y-116.84
X115.14Y-109.22
X125.73Y-81.28
X125.73Y-109.22
X127.0Y-116.84
X128.27Y-81.28
X128.27Y-109.22
X129.54Y-116.84
X130.81Y-81.28
X130.81Y-109.22
X132.08Y-116.84
X133.35Y-81.28
X133.35Y-109.22
X134.62Y-116.84
X135.89Y-81.28
X135.89Y-109.22
X138.43Y-81.28
X138.43Y-109.22
X138.43Y-113.03
X138.43Y-120.65
X140.97Y-81.28
X140.97Y-109.22
X140.97Y-113.03
X140.97Y-120.65
X143.51Y-81.28
X143.51Y-109.22
X143.51Y-113.03
X143.51Y-120.65
X146.05Y-81.28
X146.05Y-109.22
X146.05Y-113.03
X146.05Y-120.65
X148.59Y-81.28
X148.59Y-109.22
X149.86Y-116.84
X151.13Y-81.28
X151.13Y-109.22
X152.4Y-116.84
X153.67Y-81.28
X153.67Y-109.22
X154.94Y-116.84
X156.21Y-109.22
X157.48Y-116.84
X158.75Y-109.22
X161.29Y-109.22
X163.83Y-109.22
X166.37Y-109.22
X168.91Y-109.22
X168.91Y-113.03
X168.91Y-120.65
X171.45Y-109.22
X171.45Y-113.03
X171.45Y-120.65
X173.99Y-109.22
X176.53Y-80.01
X176.53Y-102.87
X179.07Y-102.87
X187.96Y-102.87
X190.5Y-80.01
X190.5Y-102.87
M30
