M48
; DRILL file {KiCad 9.0.0} date 2025-03-06T19:32:25-0800
; FORMAT={-:-/ absolute / metric / decimal}
; #@! TF.CreationDate,2025-03-06T19:32:25-08:00
; #@! TF.GenerationSoftware,Kicad,Pcbnew,9.0.0
; #@! TF.FileFunction,Plated,1,2,PTH
FMAT,2
METRIC
; #@! TA.AperFunction,Plated,PTH,ComponentDrill
T1C0.800
%
G90
G05
T1
X107.95Y-116.84
X108.05Y-86.36
X108.05Y-109.22
X110.49Y-116.84
X110.59Y-86.36
X110.59Y-109.22
X113.03Y-116.84
X113.13Y-109.22
X123.19Y-116.84
X125.73Y-81.28
X125.73Y-109.22
X125.73Y-116.84
X128.27Y-81.28
X128.27Y-109.22
X128.27Y-116.84
X130.81Y-81.28
X130.81Y-109.22
X130.81Y-116.84
X133.35Y-81.28
X133.35Y-109.22
X133.35Y-113.03
X133.35Y-120.65
X135.86Y-113.03
X135.86Y-120.65
X135.89Y-81.28
X135.89Y-109.22
X138.36Y-113.03
X138.36Y-120.65
X138.43Y-81.28
X138.43Y-109.22
X140.94Y-113.03
X140.94Y-120.65
X140.97Y-81.28
X140.97Y-109.22
X143.51Y-81.28
X143.51Y-109.22
X143.51Y-113.03
X143.51Y-120.65
X146.05Y-81.28
X146.05Y-109.22
X146.05Y-116.84
X148.59Y-81.28
X148.59Y-109.22
X148.59Y-116.84
X151.13Y-81.28
X151.13Y-109.22
X151.13Y-116.84
X153.67Y-81.28
X153.67Y-109.22
X153.67Y-116.84
X156.21Y-109.22
X158.75Y-109.22
X160.02Y-116.84
X161.29Y-109.22
X162.56Y-116.84
X163.83Y-109.22
X165.1Y-116.84
X166.37Y-109.22
X167.64Y-116.84
X168.91Y-109.22
X171.45Y-109.22
X173.99Y-109.22
X176.53Y-80.01
X176.53Y-102.87
X179.07Y-102.87
X187.96Y-102.87
X190.5Y-80.01
X190.5Y-102.87
M30
