%TF.GenerationSoftware,KiCad,Pcbnew,9.0.0*%
%TF.CreationDate,2025-03-07T02:05:58-08:00*%
%TF.ProjectId,tag,7461672e-6b69-4636-9164-5f7063625858,v0.1*%
%TF.SameCoordinates,Original*%
%TF.FileFunction,Soldermask,Bot*%
%TF.FilePolarity,Negative*%
%FSLAX46Y46*%
G04 Gerber Fmt 4.6, Leading zero omitted, Abs format (unit mm)*
G04 Created by KiCad (PCBNEW 9.0.0) date 2025-03-07 02:05:58*
%MOMM*%
%LPD*%
G01*
G04 APERTURE LIST*
%ADD10C,1.800000*%
%ADD11R,1.800000X1.800000*%
G04 APERTURE END LIST*
D10*
%TO.C,ON_OFF_SWITCH1*%
X113030000Y-116840000D03*
X110490000Y-116840000D03*
X107950000Y-116840000D03*
%TD*%
%TO.C,R7*%
X177800000Y-113030000D03*
X177800000Y-120650000D03*
%TD*%
%TO.C,R6*%
X175260000Y-120650000D03*
X175260000Y-113030000D03*
%TD*%
%TO.C,ESP32_UWB1*%
X125730000Y-109220000D03*
X128270000Y-109220000D03*
X130810000Y-109220000D03*
X133350000Y-109220000D03*
X135890000Y-109220000D03*
X138430000Y-109220000D03*
X140970000Y-109220000D03*
X143510000Y-109220000D03*
X146050000Y-109220000D03*
X148590000Y-109220000D03*
X151130000Y-109220000D03*
X153670000Y-109220000D03*
X156210000Y-109220000D03*
X158750000Y-109220000D03*
X161290000Y-109220000D03*
X163830000Y-109220000D03*
X166370000Y-109220000D03*
X168910000Y-109220000D03*
X171450000Y-109220000D03*
X173990000Y-109220000D03*
X125730000Y-81280000D03*
X128270000Y-81280000D03*
X130810000Y-81280000D03*
X133350000Y-81280000D03*
X135890000Y-81280000D03*
X138430000Y-81280000D03*
X140970000Y-81280000D03*
X143510000Y-81280000D03*
X146050000Y-81280000D03*
X148590000Y-81280000D03*
X151130000Y-81280000D03*
X153670000Y-81280000D03*
%TD*%
D11*
%TO.C,5V_DC_DC_Converter1*%
X108050000Y-109220000D03*
D10*
X110590000Y-109220000D03*
X113130000Y-109220000D03*
D11*
X108050000Y-86360000D03*
D10*
X110590000Y-86360000D03*
%TD*%
%TO.C,R1*%
X133350000Y-120650000D03*
X133350000Y-113030000D03*
%TD*%
%TO.C,RGB_LED_ROUND1*%
X123190000Y-116840000D03*
D11*
X125730000Y-116840000D03*
D10*
X128270000Y-116840000D03*
X130810000Y-116840000D03*
%TD*%
%TO.C,R5*%
X143510000Y-120650000D03*
X143510000Y-113030000D03*
%TD*%
%TO.C,R2*%
X135860000Y-120650000D03*
X135860000Y-113030000D03*
%TD*%
%TO.C,RGB_LED_ROUND3*%
X160020000Y-116840000D03*
D11*
X162560000Y-116840000D03*
D10*
X165100000Y-116840000D03*
X167640000Y-116840000D03*
%TD*%
%TO.C,R4*%
X140940000Y-120650000D03*
X140940000Y-113030000D03*
%TD*%
%TO.C,RGB_LED_ROUND2*%
X146050000Y-116840000D03*
D11*
X148590000Y-116840000D03*
D10*
X151130000Y-116840000D03*
X153670000Y-116840000D03*
%TD*%
%TO.C,R3*%
X138360000Y-120650000D03*
X138360000Y-113030000D03*
%TD*%
D11*
%TO.C,Battery_Charger1*%
X176530000Y-80010000D03*
X190500000Y-80010000D03*
X176530000Y-102870000D03*
X179070000Y-102870000D03*
X187960000Y-102870000D03*
X190500000Y-102870000D03*
%TD*%
M02*
