%TF.GenerationSoftware,KiCad,Pcbnew,9.0.0*%
%TF.CreationDate,2025-03-09T03:24:53-07:00*%
%TF.ProjectId,tag,7461672e-6b69-4636-9164-5f7063625858,v0.1*%
%TF.SameCoordinates,Original*%
%TF.FileFunction,Soldermask,Top*%
%TF.FilePolarity,Negative*%
%FSLAX46Y46*%
G04 Gerber Fmt 4.6, Leading zero omitted, Abs format (unit mm)*
G04 Created by KiCad (PCBNEW 9.0.0) date 2025-03-09 03:24:53*
%MOMM*%
%LPD*%
G01*
G04 APERTURE LIST*
%ADD10C,1.800000*%
%ADD11R,1.800000X1.800000*%
%ADD12C,2.200000*%
G04 APERTURE END LIST*
D10*
%TO.C,ESP32_UWB1*%
X40855000Y-48260000D03*
X43395000Y-48260000D03*
X45935000Y-48260000D03*
X48475000Y-48260000D03*
X51015000Y-48260000D03*
X53555000Y-48260000D03*
X56095000Y-48260000D03*
X58635000Y-48260000D03*
X61175000Y-48260000D03*
X63715000Y-48260000D03*
X66255000Y-48260000D03*
X68795000Y-48260000D03*
X71335000Y-48260000D03*
X73875000Y-48260000D03*
X76415000Y-48260000D03*
X78955000Y-48260000D03*
X81495000Y-48260000D03*
X84035000Y-48260000D03*
X86575000Y-48260000D03*
X89115000Y-48260000D03*
X40855000Y-20320000D03*
X43395000Y-20320000D03*
X45935000Y-20320000D03*
X48475000Y-20320000D03*
X51015000Y-20320000D03*
X53555000Y-20320000D03*
X56095000Y-20320000D03*
X58635000Y-20320000D03*
X61175000Y-20320000D03*
X63715000Y-20320000D03*
X66255000Y-20320000D03*
X68795000Y-20320000D03*
%TD*%
D11*
%TO.C,5V_DC_DC_Converter1*%
X25185000Y-48260000D03*
D10*
X27725000Y-48260000D03*
X30265000Y-48260000D03*
D11*
X25185000Y-25400000D03*
D10*
X27725000Y-25400000D03*
%TD*%
%TO.C,R1*%
X53555000Y-59690000D03*
X53555000Y-52070000D03*
%TD*%
%TO.C,RGB_LED_ROUND1*%
X42125000Y-55880000D03*
D11*
X44665000Y-55880000D03*
D10*
X47205000Y-55880000D03*
X49745000Y-55880000D03*
%TD*%
D12*
%TO.C,REF\u002A\u002A*%
X110705000Y-60960000D03*
%TD*%
D10*
%TO.C,R2*%
X56095000Y-59690000D03*
X56095000Y-52070000D03*
%TD*%
%TO.C,R4*%
X61175000Y-59690000D03*
X61175000Y-52070000D03*
%TD*%
%TO.C,RGB_LED_ROUND2*%
X64985000Y-55880000D03*
D11*
X67525000Y-55880000D03*
D10*
X70065000Y-55880000D03*
X72605000Y-55880000D03*
%TD*%
%TO.C,R3*%
X58635000Y-59690000D03*
X58635000Y-52070000D03*
%TD*%
%TO.C,R6*%
X86575000Y-59690000D03*
X86575000Y-52070000D03*
%TD*%
%TO.C,ON_OFF_SWITCH1*%
X24345000Y-55880000D03*
X26885000Y-55880000D03*
X29425000Y-55880000D03*
%TD*%
D12*
%TO.C,REF\u002A\u002A*%
X110705000Y-17780000D03*
%TD*%
D10*
%TO.C,R5*%
X84035000Y-59690000D03*
X84035000Y-52070000D03*
%TD*%
D12*
%TO.C,REF\u002A\u002A*%
X17565000Y-17780000D03*
%TD*%
%TO.C,REF\u002A\u002A*%
X17565000Y-60960000D03*
%TD*%
D11*
%TO.C,Battery_Charger1*%
X91655000Y-19050000D03*
X105625000Y-19050000D03*
X91655000Y-41910000D03*
X94195000Y-41910000D03*
X103085000Y-41910000D03*
X105625000Y-41910000D03*
%TD*%
M02*
