M48
; DRILL file {KiCad 9.0.0} date 2025-03-03T00:58:10-0800
; FORMAT={-:-/ absolute / metric / decimal}
; #@! TF.CreationDate,2025-03-03T00:58:10-08:00
; #@! TF.GenerationSoftware,Kicad,Pcbnew,9.0.0
; #@! TF.FileFunction,Plated,1,2,PTH
FMAT,2
METRIC
; #@! TA.AperFunction,Plated,PTH,ComponentDrill
T1C0.800
%
G90
G05
T1
X106.88Y-80.11
X106.88Y-102.97
X109.42Y-80.11
X109.42Y-102.97
X111.96Y-102.97
X120.75Y-110.59
X123.29Y-75.03
X123.29Y-102.97
X123.29Y-110.59
X125.83Y-75.03
X125.83Y-102.97
X125.83Y-110.59
X128.37Y-75.03
X128.37Y-102.97
X128.37Y-110.59
X130.91Y-75.03
X130.91Y-102.97
X132.08Y-107.95
X132.08Y-115.57
X133.45Y-75.03
X133.45Y-102.97
X135.99Y-75.03
X135.99Y-102.97
X136.06Y-107.95
X136.06Y-115.57
X138.53Y-75.03
X138.53Y-102.97
X139.7Y-107.95
X139.7Y-115.57
X141.07Y-75.03
X141.07Y-102.97
X143.34Y-107.95
X143.34Y-115.57
X143.61Y-75.03
X143.61Y-102.97
X146.15Y-75.03
X146.15Y-102.97
X147.42Y-110.59
X148.69Y-75.03
X148.69Y-102.97
X149.96Y-110.59
X151.23Y-75.03
X151.23Y-102.97
X152.5Y-110.59
X153.77Y-102.97
X155.04Y-110.59
X156.31Y-102.97
X158.85Y-102.97
X161.39Y-102.97
X163.93Y-102.97
X166.47Y-102.97
X169.01Y-102.97
X171.55Y-102.97
M30
