%TF.GenerationSoftware,KiCad,Pcbnew,9.0.0*%
%TF.CreationDate,2025-03-07T02:05:58-08:00*%
%TF.ProjectId,tag,7461672e-6b69-4636-9164-5f7063625858,v0.1*%
%TF.SameCoordinates,Original*%
%TF.FileFunction,Copper,L1,Top*%
%TF.FilePolarity,Positive*%
%FSLAX46Y46*%
G04 Gerber Fmt 4.6, Leading zero omitted, Abs format (unit mm)*
G04 Created by KiCad (PCBNEW 9.0.0) date 2025-03-07 02:05:58*
%MOMM*%
%LPD*%
G01*
G04 APERTURE LIST*
%TA.AperFunction,ComponentPad*%
%ADD10C,1.800000*%
%TD*%
%TA.AperFunction,ComponentPad*%
%ADD11R,1.800000X1.800000*%
%TD*%
%TA.AperFunction,Conductor*%
%ADD12C,0.300000*%
%TD*%
%TA.AperFunction,Conductor*%
%ADD13C,0.500000*%
%TD*%
G04 APERTURE END LIST*
D10*
%TO.P,ON_OFF_SWITCH1,3*%
%TO.N,Net-(Battery_Charger1-OUT+)*%
X113030000Y-116840000D03*
%TO.P,ON_OFF_SWITCH1,2*%
%TO.N,Net-(5V_DC_DC_Converter1-+-Pad1)*%
X110490000Y-116840000D03*
%TO.P,ON_OFF_SWITCH1,1*%
%TO.N,unconnected-(ON_OFF_SWITCH1-Pad1)*%
X107950000Y-116840000D03*
%TD*%
%TO.P,R7,1*%
%TO.N,Net-(ESP32_UWB1-IO36)*%
X177800000Y-113030000D03*
%TO.P,R7,2*%
%TO.N,Net-(Battery_Charger1-OUT-)*%
X177800000Y-120650000D03*
%TD*%
%TO.P,R6,1*%
%TO.N,Net-(5V_DC_DC_Converter1-+-Pad1)*%
X175260000Y-120650000D03*
%TO.P,R6,2*%
%TO.N,Net-(ESP32_UWB1-IO36)*%
X175260000Y-113030000D03*
%TD*%
%TO.P,ESP32_UWB1,1,3V3*%
%TO.N,Net-(ESP32_UWB1-3V3)*%
X125730000Y-109220000D03*
%TO.P,ESP32_UWB1,2,GND*%
%TO.N,unconnected-(ESP32_UWB1-GND-Pad2)*%
X128270000Y-109220000D03*
%TO.P,ESP32_UWB1,3,RST*%
%TO.N,unconnected-(ESP32_UWB1-RST-Pad3)*%
X130810000Y-109220000D03*
%TO.P,ESP32_UWB1,4,GND*%
%TO.N,unconnected-(ESP32_UWB1-GND-Pad4)*%
X133350000Y-109220000D03*
%TO.P,ESP32_UWB1,5,IO2*%
%TO.N,Net-(ESP32_UWB1-IO2)*%
X135890000Y-109220000D03*
%TO.P,ESP32_UWB1,6,IO12*%
%TO.N,Net-(ESP32_UWB1-IO12)*%
X138430000Y-109220000D03*
%TO.P,ESP32_UWB1,7,IO13*%
%TO.N,Net-(ESP32_UWB1-IO13)*%
X140970000Y-109220000D03*
%TO.P,ESP32_UWB1,8,IO14*%
%TO.N,Net-(ESP32_UWB1-IO14)*%
X143510000Y-109220000D03*
%TO.P,ESP32_UWB1,9,IO15*%
%TO.N,Net-(ESP32_UWB1-IO15)*%
X146050000Y-109220000D03*
%TO.P,ESP32_UWB1,10,IO18*%
%TO.N,unconnected-(ESP32_UWB1-IO18-Pad10)*%
X148590000Y-109220000D03*
%TO.P,ESP32_UWB1,11,IO19*%
%TO.N,unconnected-(ESP32_UWB1-IO19-Pad11)*%
X151130000Y-109220000D03*
%TO.P,ESP32_UWB1,12,IO25*%
%TO.N,unconnected-(ESP32_UWB1-IO25-Pad12)*%
X153670000Y-109220000D03*
%TO.P,ESP32_UWB1,13,IO26*%
%TO.N,unconnected-(ESP32_UWB1-IO26-Pad13)*%
X156210000Y-109220000D03*
%TO.P,ESP32_UWB1,14,IO27*%
%TO.N,unconnected-(ESP32_UWB1-IO27-Pad14)*%
X158750000Y-109220000D03*
%TO.P,ESP32_UWB1,15,IO32*%
%TO.N,unconnected-(ESP32_UWB1-IO32-Pad15)*%
X161290000Y-109220000D03*
%TO.P,ESP32_UWB1,16,IO33*%
%TO.N,unconnected-(ESP32_UWB1-IO33-Pad16)*%
X163830000Y-109220000D03*
%TO.P,ESP32_UWB1,17,IO34*%
%TO.N,unconnected-(ESP32_UWB1-IO34-Pad17)*%
X166370000Y-109220000D03*
%TO.P,ESP32_UWB1,18,IO35*%
%TO.N,unconnected-(ESP32_UWB1-IO35-Pad18)*%
X168910000Y-109220000D03*
%TO.P,ESP32_UWB1,19,IO36*%
%TO.N,Net-(ESP32_UWB1-IO36)*%
X171450000Y-109220000D03*
%TO.P,ESP32_UWB1,20,IO39*%
%TO.N,unconnected-(ESP32_UWB1-IO39-Pad20)*%
X173990000Y-109220000D03*
%TO.P,ESP32_UWB1,21,5V0*%
%TO.N,Net-(ESP32_UWB1-5V0)*%
X125730000Y-81280000D03*
%TO.P,ESP32_UWB1,22,GND*%
%TO.N,Net-(Battery_Charger1-OUT-)*%
X128270000Y-81280000D03*
%TO.P,ESP32_UWB1,23,IO3*%
%TO.N,unconnected-(ESP32_UWB1-IO3-Pad23)*%
X130810000Y-81280000D03*
%TO.P,ESP32_UWB1,24,IO1*%
%TO.N,unconnected-(ESP32_UWB1-IO1-Pad24)*%
X133350000Y-81280000D03*
%TO.P,ESP32_UWB1,25,IO0*%
%TO.N,unconnected-(ESP32_UWB1-IO0-Pad25)*%
X135890000Y-81280000D03*
%TO.P,ESP32_UWB1,26,IO4*%
%TO.N,unconnected-(ESP32_UWB1-IO4-Pad26)*%
X138430000Y-81280000D03*
%TO.P,ESP32_UWB1,27,IO5*%
%TO.N,unconnected-(ESP32_UWB1-IO5-Pad27)*%
X140970000Y-81280000D03*
%TO.P,ESP32_UWB1,28,IO16*%
%TO.N,unconnected-(ESP32_UWB1-IO16-Pad28)*%
X143510000Y-81280000D03*
%TO.P,ESP32_UWB1,29,IO17*%
%TO.N,unconnected-(ESP32_UWB1-IO17-Pad29)*%
X146050000Y-81280000D03*
%TO.P,ESP32_UWB1,30,IO21*%
%TO.N,unconnected-(ESP32_UWB1-IO21-Pad30)*%
X148590000Y-81280000D03*
%TO.P,ESP32_UWB1,31,IO22*%
%TO.N,unconnected-(ESP32_UWB1-IO22-Pad31)*%
X151130000Y-81280000D03*
%TO.P,ESP32_UWB1,32,IO23*%
%TO.N,unconnected-(ESP32_UWB1-IO23-Pad32)*%
X153670000Y-81280000D03*
%TD*%
D11*
%TO.P,5V_DC_DC_Converter1,1,+*%
%TO.N,Net-(5V_DC_DC_Converter1-+-Pad1)*%
X108050000Y-109220000D03*
D10*
%TO.P,5V_DC_DC_Converter1,2,CTL*%
%TO.N,unconnected-(5V_DC_DC_Converter1-CTL-Pad2)*%
X110590000Y-109220000D03*
%TO.P,5V_DC_DC_Converter1,3,-*%
%TO.N,Net-(Battery_Charger1-OUT-)*%
X113130000Y-109220000D03*
D11*
%TO.P,5V_DC_DC_Converter1,4,+*%
%TO.N,Net-(ESP32_UWB1-5V0)*%
X108050000Y-86360000D03*
D10*
%TO.P,5V_DC_DC_Converter1,5,-*%
%TO.N,Net-(Battery_Charger1-OUT-)*%
X110590000Y-86360000D03*
%TD*%
%TO.P,R1,1*%
%TO.N,Net-(RGB_LED_ROUND1-R)*%
X133350000Y-120650000D03*
%TO.P,R1,2*%
%TO.N,Net-(ESP32_UWB1-IO2)*%
X133350000Y-113030000D03*
%TD*%
%TO.P,RGB_LED_ROUND1,1,R*%
%TO.N,Net-(RGB_LED_ROUND1-R)*%
X123190000Y-116840000D03*
D11*
%TO.P,RGB_LED_ROUND1,2,VCC*%
%TO.N,Net-(ESP32_UWB1-3V3)*%
X125730000Y-116840000D03*
D10*
%TO.P,RGB_LED_ROUND1,3,G*%
%TO.N,Net-(RGB_LED_ROUND1-G)*%
X128270000Y-116840000D03*
%TO.P,RGB_LED_ROUND1,4,B*%
%TO.N,unconnected-(RGB_LED_ROUND1-B-Pad4)*%
X130810000Y-116840000D03*
%TD*%
%TO.P,R5,1*%
%TO.N,Net-(RGB_LED_ROUND3-B)*%
X143510000Y-120650000D03*
%TO.P,R5,2*%
%TO.N,Net-(ESP32_UWB1-IO15)*%
X143510000Y-113030000D03*
%TD*%
%TO.P,R2,1*%
%TO.N,Net-(RGB_LED_ROUND1-G)*%
X135860000Y-120650000D03*
%TO.P,R2,2*%
%TO.N,Net-(ESP32_UWB1-IO12)*%
X135860000Y-113030000D03*
%TD*%
%TO.P,RGB_LED_ROUND3,1,R*%
%TO.N,unconnected-(RGB_LED_ROUND3-R-Pad1)*%
X160020000Y-116840000D03*
D11*
%TO.P,RGB_LED_ROUND3,2,VCC*%
%TO.N,Net-(ESP32_UWB1-3V3)*%
X162560000Y-116840000D03*
D10*
%TO.P,RGB_LED_ROUND3,3,G*%
%TO.N,unconnected-(RGB_LED_ROUND3-G-Pad3)*%
X165100000Y-116840000D03*
%TO.P,RGB_LED_ROUND3,4,B*%
%TO.N,Net-(RGB_LED_ROUND3-B)*%
X167640000Y-116840000D03*
%TD*%
%TO.P,R4,1*%
%TO.N,Net-(RGB_LED_ROUND2-G)*%
X140940000Y-120650000D03*
%TO.P,R4,2*%
%TO.N,Net-(ESP32_UWB1-IO14)*%
X140940000Y-113030000D03*
%TD*%
%TO.P,RGB_LED_ROUND2,1,R*%
%TO.N,Net-(RGB_LED_ROUND2-R)*%
X146050000Y-116840000D03*
D11*
%TO.P,RGB_LED_ROUND2,2,VCC*%
%TO.N,Net-(ESP32_UWB1-3V3)*%
X148590000Y-116840000D03*
D10*
%TO.P,RGB_LED_ROUND2,3,G*%
%TO.N,Net-(RGB_LED_ROUND2-G)*%
X151130000Y-116840000D03*
%TO.P,RGB_LED_ROUND2,4,B*%
%TO.N,unconnected-(RGB_LED_ROUND2-B-Pad4)*%
X153670000Y-116840000D03*
%TD*%
%TO.P,R3,1*%
%TO.N,Net-(RGB_LED_ROUND2-R)*%
X138360000Y-120650000D03*
%TO.P,R3,2*%
%TO.N,Net-(ESP32_UWB1-IO13)*%
X138360000Y-113030000D03*
%TD*%
D11*
%TO.P,Battery_Charger1,1,+*%
%TO.N,unconnected-(Battery_Charger1-+-Pad1)*%
X176530000Y-80010000D03*
%TO.P,Battery_Charger1,2,-*%
%TO.N,unconnected-(Battery_Charger1---Pad2)*%
X190500000Y-80010000D03*
%TO.P,Battery_Charger1,3,OUT+*%
%TO.N,Net-(Battery_Charger1-OUT+)*%
X176530000Y-102870000D03*
%TO.P,Battery_Charger1,4,B+*%
%TO.N,unconnected-(Battery_Charger1-B+-Pad4)*%
X179070000Y-102870000D03*
%TO.P,Battery_Charger1,5,B-*%
%TO.N,unconnected-(Battery_Charger1-B--Pad5)*%
X187960000Y-102870000D03*
%TO.P,Battery_Charger1,6,OUT-*%
%TO.N,Net-(Battery_Charger1-OUT-)*%
X190500000Y-102870000D03*
%TD*%
D12*
%TO.N,Net-(ESP32_UWB1-3V3)*%
X127570000Y-115000000D02*
X146750000Y-115000000D01*
X146750000Y-115000000D02*
X148590000Y-116840000D01*
X125730000Y-116840000D02*
X127570000Y-115000000D01*
X148590000Y-116840000D02*
X150430000Y-115000000D01*
X150430000Y-115000000D02*
X160720000Y-115000000D01*
X162560000Y-116840000D02*
X160720000Y-115000000D01*
D13*
%TO.N,Net-(Battery_Charger1-OUT-)*%
X113130000Y-109220000D02*
X116850000Y-105500000D01*
X116850000Y-105500000D02*
X171198000Y-105500000D01*
X171198000Y-105500000D02*
X176065696Y-100632304D01*
X176065696Y-100632304D02*
X189532304Y-100632304D01*
X182880000Y-100632304D02*
X176065696Y-100632304D01*
D12*
X180340000Y-106680000D02*
X182880000Y-104140000D01*
X180340000Y-118110000D02*
X180340000Y-106680000D01*
X182880000Y-104140000D02*
X182880000Y-100632304D01*
D13*
X189532304Y-100632304D02*
X190500000Y-101600000D01*
X182880000Y-100632304D02*
X189532304Y-100632304D01*
X190500000Y-101600000D02*
X190500000Y-102870000D01*
X110590000Y-86360000D02*
X113130000Y-88900000D01*
X113130000Y-88900000D02*
X113130000Y-109220000D01*
D12*
X177800000Y-120650000D02*
X180340000Y-118110000D01*
%TO.N,Net-(ESP32_UWB1-IO36)*%
X175260000Y-113030000D02*
X177800000Y-113030000D01*
X175260000Y-113030000D02*
X171450000Y-109220000D01*
%TO.N,Net-(5V_DC_DC_Converter1-+-Pad1)*%
X175260000Y-120650000D02*
X174009000Y-121901000D01*
X174009000Y-121901000D02*
X115551000Y-121901000D01*
X115551000Y-121901000D02*
X110490000Y-116840000D01*
D13*
%TO.N,Net-(Battery_Charger1-OUT+)*%
X176530000Y-102870000D02*
X172400000Y-107000000D01*
X172400000Y-107000000D02*
X122870000Y-107000000D01*
X122870000Y-107000000D02*
X113030000Y-116840000D01*
%TO.N,Net-(Battery_Charger1-OUT-)*%
X110590000Y-86360000D02*
X113130000Y-83820000D01*
X113130000Y-83820000D02*
X125730000Y-83820000D01*
X125730000Y-83820000D02*
X128270000Y-81280000D01*
%TO.N,Net-(ESP32_UWB1-5V0)*%
X113130000Y-81280000D02*
X125730000Y-81280000D01*
X108050000Y-86360000D02*
X113130000Y-81280000D01*
D12*
%TO.N,Net-(ESP32_UWB1-IO2)*%
X135890000Y-110490000D02*
X135890000Y-109220000D01*
X133350000Y-113030000D02*
X135890000Y-110490000D01*
%TO.N,Net-(ESP32_UWB1-3V3)*%
X125730000Y-116840000D02*
X125730000Y-109220000D01*
%TO.N,Net-(ESP32_UWB1-IO12)*%
X135860000Y-113030000D02*
X138430000Y-110460000D01*
X138430000Y-110460000D02*
X138430000Y-109220000D01*
%TO.N,Net-(ESP32_UWB1-IO14)*%
X143510000Y-110460000D02*
X143510000Y-109220000D01*
X140970000Y-112960000D02*
X140900000Y-113030000D01*
X142900000Y-109220000D02*
X143410000Y-109220000D01*
X140940000Y-113030000D02*
X143510000Y-110460000D01*
%TO.N,Net-(ESP32_UWB1-IO13)*%
X138360000Y-113030000D02*
X140970000Y-110420000D01*
X138430000Y-113000000D02*
X138400000Y-113030000D01*
X140970000Y-110420000D02*
X140970000Y-109220000D01*
%TO.N,Net-(RGB_LED_ROUND1-R)*%
X127000000Y-120650000D02*
X133350000Y-120650000D01*
X123190000Y-116840000D02*
X127000000Y-120650000D01*
%TO.N,Net-(RGB_LED_ROUND1-G)*%
X130810000Y-119380000D02*
X134590000Y-119380000D01*
X134590000Y-119380000D02*
X135860000Y-120650000D01*
X128270000Y-116840000D02*
X130810000Y-119380000D01*
%TO.N,Net-(RGB_LED_ROUND2-R)*%
X146050000Y-116840000D02*
X142170000Y-116840000D01*
X142170000Y-116840000D02*
X138360000Y-120650000D01*
%TO.N,Net-(RGB_LED_ROUND2-G)*%
X148590000Y-119380000D02*
X142210000Y-119380000D01*
X142210000Y-119380000D02*
X140940000Y-120650000D01*
X151130000Y-116840000D02*
X148590000Y-119380000D01*
%TO.N,Net-(ESP32_UWB1-IO15)*%
X143510000Y-113030000D02*
X146050000Y-110490000D01*
X143510000Y-113000000D02*
X143480000Y-113030000D01*
X146050000Y-110490000D02*
X146050000Y-109220000D01*
%TO.N,Net-(RGB_LED_ROUND3-B)*%
X163830000Y-120650000D02*
X143510000Y-120650000D01*
X167640000Y-116840000D02*
X163830000Y-120650000D01*
D13*
%TO.N,Net-(5V_DC_DC_Converter1-+-Pad1)*%
X108050000Y-114400000D02*
X110490000Y-116840000D01*
X108050000Y-109220000D02*
X108050000Y-114400000D01*
%TD*%
M02*
