%TF.GenerationSoftware,KiCad,Pcbnew,9.0.0*%
%TF.CreationDate,2025-03-02T14:09:47-08:00*%
%TF.ProjectId,tag,7461672e-6b69-4636-9164-5f7063625858,v0.1*%
%TF.SameCoordinates,Original*%
%TF.FileFunction,Copper,L1,Top*%
%TF.FilePolarity,Positive*%
%FSLAX46Y46*%
G04 Gerber Fmt 4.6, Leading zero omitted, Abs format (unit mm)*
G04 Created by KiCad (PCBNEW 9.0.0) date 2025-03-02 14:09:47*
%MOMM*%
%LPD*%
G01*
G04 APERTURE LIST*
%TA.AperFunction,ComponentPad*%
%ADD10R,1.800000X1.800000*%
%TD*%
%TA.AperFunction,ComponentPad*%
%ADD11C,1.800000*%
%TD*%
%TA.AperFunction,Conductor*%
%ADD12C,0.500000*%
%TD*%
%TA.AperFunction,Conductor*%
%ADD13C,0.300000*%
%TD*%
G04 APERTURE END LIST*
D10*
%TO.P,5V_DC_DC_Converter1,1,+*%
%TO.N,unconnected-(5V_DC_DC_Converter1-+-Pad1)*%
X106880000Y-102970000D03*
D11*
%TO.P,5V_DC_DC_Converter1,2,CTL*%
%TO.N,unconnected-(5V_DC_DC_Converter1-CTL-Pad2)*%
X109420000Y-102970000D03*
%TO.P,5V_DC_DC_Converter1,3,-*%
%TO.N,unconnected-(5V_DC_DC_Converter1---Pad3)*%
X111960000Y-102970000D03*
D10*
%TO.P,5V_DC_DC_Converter1,4,+*%
%TO.N,Net-(ESP32_UWB1-5V0)*%
X106880000Y-80110000D03*
D11*
%TO.P,5V_DC_DC_Converter1,5,-*%
%TO.N,Net-(5V_DC_DC_Converter1---Pad5)*%
X109420000Y-80110000D03*
%TD*%
%TO.P,ESP32_UWB1,1,3V3*%
%TO.N,Net-(ESP32_UWB1-3V3)*%
X123290000Y-102970000D03*
%TO.P,ESP32_UWB1,2,GND*%
%TO.N,unconnected-(ESP32_UWB1-GND-Pad2)*%
X125830000Y-102970000D03*
%TO.P,ESP32_UWB1,3,RST*%
%TO.N,unconnected-(ESP32_UWB1-RST-Pad3)*%
X128370000Y-102970000D03*
%TO.P,ESP32_UWB1,4,GND*%
%TO.N,unconnected-(ESP32_UWB1-GND-Pad4)*%
X130910000Y-102970000D03*
%TO.P,ESP32_UWB1,5,IO2*%
%TO.N,Net-(ESP32_UWB1-IO2)*%
X133450000Y-102970000D03*
%TO.P,ESP32_UWB1,6,IO12*%
%TO.N,Net-(ESP32_UWB1-IO12)*%
X135990000Y-102970000D03*
%TO.P,ESP32_UWB1,7,IO13*%
%TO.N,Net-(ESP32_UWB1-IO13)*%
X138530000Y-102970000D03*
%TO.P,ESP32_UWB1,8,IO14*%
%TO.N,Net-(ESP32_UWB1-IO14)*%
X141070000Y-102970000D03*
%TO.P,ESP32_UWB1,9,IO15*%
%TO.N,unconnected-(ESP32_UWB1-IO15-Pad9)*%
X143610000Y-102970000D03*
%TO.P,ESP32_UWB1,10,IO18*%
%TO.N,unconnected-(ESP32_UWB1-IO18-Pad10)*%
X146150000Y-102970000D03*
%TO.P,ESP32_UWB1,11,IO19*%
%TO.N,unconnected-(ESP32_UWB1-IO19-Pad11)*%
X148690000Y-102970000D03*
%TO.P,ESP32_UWB1,12,IO25*%
%TO.N,unconnected-(ESP32_UWB1-IO25-Pad12)*%
X151230000Y-102970000D03*
%TO.P,ESP32_UWB1,13,IO26*%
%TO.N,unconnected-(ESP32_UWB1-IO26-Pad13)*%
X153770000Y-102970000D03*
%TO.P,ESP32_UWB1,14,IO27*%
%TO.N,unconnected-(ESP32_UWB1-IO27-Pad14)*%
X156310000Y-102970000D03*
%TO.P,ESP32_UWB1,15,IO32*%
%TO.N,unconnected-(ESP32_UWB1-IO32-Pad15)*%
X158850000Y-102970000D03*
%TO.P,ESP32_UWB1,16,IO33*%
%TO.N,unconnected-(ESP32_UWB1-IO33-Pad16)*%
X161390000Y-102970000D03*
%TO.P,ESP32_UWB1,17,IO34*%
%TO.N,unconnected-(ESP32_UWB1-IO34-Pad17)*%
X163930000Y-102970000D03*
%TO.P,ESP32_UWB1,18,IO35*%
%TO.N,unconnected-(ESP32_UWB1-IO35-Pad18)*%
X166470000Y-102970000D03*
%TO.P,ESP32_UWB1,19,IO36*%
%TO.N,unconnected-(ESP32_UWB1-IO36-Pad19)*%
X169010000Y-102970000D03*
%TO.P,ESP32_UWB1,20,IO39*%
%TO.N,unconnected-(ESP32_UWB1-IO39-Pad20)*%
X171550000Y-102970000D03*
%TO.P,ESP32_UWB1,21,5V0*%
%TO.N,Net-(ESP32_UWB1-5V0)*%
X123290000Y-75030000D03*
%TO.P,ESP32_UWB1,22,GND*%
%TO.N,Net-(5V_DC_DC_Converter1---Pad5)*%
X125830000Y-75030000D03*
%TO.P,ESP32_UWB1,23,IO3*%
%TO.N,unconnected-(ESP32_UWB1-IO3-Pad23)*%
X128370000Y-75030000D03*
%TO.P,ESP32_UWB1,24,IO1*%
%TO.N,unconnected-(ESP32_UWB1-IO1-Pad24)*%
X130910000Y-75030000D03*
%TO.P,ESP32_UWB1,25,IO0*%
%TO.N,unconnected-(ESP32_UWB1-IO0-Pad25)*%
X133450000Y-75030000D03*
%TO.P,ESP32_UWB1,26,IO4*%
%TO.N,unconnected-(ESP32_UWB1-IO4-Pad26)*%
X135990000Y-75030000D03*
%TO.P,ESP32_UWB1,27,IO5*%
%TO.N,unconnected-(ESP32_UWB1-IO5-Pad27)*%
X138530000Y-75030000D03*
%TO.P,ESP32_UWB1,28,IO16*%
%TO.N,unconnected-(ESP32_UWB1-IO16-Pad28)*%
X141070000Y-75030000D03*
%TO.P,ESP32_UWB1,29,IO17*%
%TO.N,unconnected-(ESP32_UWB1-IO17-Pad29)*%
X143610000Y-75030000D03*
%TO.P,ESP32_UWB1,30,IO21*%
%TO.N,unconnected-(ESP32_UWB1-IO21-Pad30)*%
X146150000Y-75030000D03*
%TO.P,ESP32_UWB1,31,IO22*%
%TO.N,unconnected-(ESP32_UWB1-IO22-Pad31)*%
X148690000Y-75030000D03*
%TO.P,ESP32_UWB1,32,IO23*%
%TO.N,unconnected-(ESP32_UWB1-IO23-Pad32)*%
X151230000Y-75030000D03*
%TD*%
%TO.P,R4,1*%
%TO.N,Net-(RGB_LED_ROUND2-G)*%
X143270000Y-115670000D03*
%TO.P,R4,2*%
%TO.N,Net-(ESP32_UWB1-IO14)*%
X143270000Y-108050000D03*
%TD*%
%TO.P,RGB_LED_ROUND1,1,R*%
%TO.N,Net-(RGB_LED_ROUND1-R)*%
X120750000Y-110590000D03*
D10*
%TO.P,RGB_LED_ROUND1,2,VCC*%
%TO.N,Net-(ESP32_UWB1-3V3)*%
X123290000Y-110590000D03*
D11*
%TO.P,RGB_LED_ROUND1,3,G*%
%TO.N,Net-(RGB_LED_ROUND1-G)*%
X125830000Y-110590000D03*
%TO.P,RGB_LED_ROUND1,4,B*%
%TO.N,unconnected-(RGB_LED_ROUND1-B-Pad4)*%
X128370000Y-110590000D03*
%TD*%
%TO.P,RGB_LED_ROUND2,1,R*%
%TO.N,Net-(RGB_LED_ROUND2-R)*%
X147420000Y-110590000D03*
D10*
%TO.P,RGB_LED_ROUND2,2,VCC*%
%TO.N,Net-(ESP32_UWB1-3V3)*%
X149960000Y-110590000D03*
D11*
%TO.P,RGB_LED_ROUND2,3,G*%
%TO.N,Net-(RGB_LED_ROUND2-G)*%
X152500000Y-110590000D03*
%TO.P,RGB_LED_ROUND2,4,B*%
%TO.N,unconnected-(RGB_LED_ROUND2-B-Pad4)*%
X155040000Y-110590000D03*
%TD*%
%TO.P,R2,1*%
%TO.N,Net-(RGB_LED_ROUND1-G)*%
X135990000Y-115670000D03*
%TO.P,R2,2*%
%TO.N,Net-(ESP32_UWB1-IO12)*%
X135990000Y-108050000D03*
%TD*%
%TO.P,R3,1*%
%TO.N,Net-(RGB_LED_ROUND2-R)*%
X139630000Y-115670000D03*
%TO.P,R3,2*%
%TO.N,Net-(ESP32_UWB1-IO13)*%
X139630000Y-108050000D03*
%TD*%
%TO.P,R1,1*%
%TO.N,Net-(RGB_LED_ROUND1-R)*%
X132350000Y-115670000D03*
%TO.P,R1,2*%
%TO.N,Net-(ESP32_UWB1-IO2)*%
X132350000Y-108050000D03*
%TD*%
D12*
%TO.N,Net-(5V_DC_DC_Converter1---Pad5)*%
X123290000Y-77570000D02*
X125830000Y-75030000D01*
X111960000Y-77570000D02*
X123290000Y-77570000D01*
X109420000Y-80110000D02*
X111960000Y-77570000D01*
%TO.N,Net-(ESP32_UWB1-5V0)*%
X106880000Y-80110000D02*
X111960000Y-75030000D01*
X111960000Y-75030000D02*
X123290000Y-75030000D01*
D13*
%TO.N,Net-(ESP32_UWB1-IO2)*%
X133450000Y-105510000D02*
X133450000Y-106950000D01*
X133450000Y-102970000D02*
X133450000Y-105510000D01*
X133450000Y-106950000D02*
X132350000Y-108050000D01*
%TO.N,Net-(ESP32_UWB1-3V3)*%
X141070000Y-110590000D02*
X130910000Y-110590000D01*
X142321000Y-109339000D02*
X141070000Y-110590000D01*
X128370000Y-108050000D02*
X125830000Y-108050000D01*
X125830000Y-108050000D02*
X123290000Y-110590000D01*
X130910000Y-110590000D02*
X128370000Y-108050000D01*
X148709000Y-109339000D02*
X142321000Y-109339000D01*
X123290000Y-110590000D02*
X123290000Y-102970000D01*
X149960000Y-110590000D02*
X148709000Y-109339000D01*
%TO.N,Net-(ESP32_UWB1-IO12)*%
X135990000Y-102970000D02*
X135990000Y-108050000D01*
%TO.N,Net-(ESP32_UWB1-IO14)*%
X141070000Y-102970000D02*
X141070000Y-105850000D01*
X141070000Y-105850000D02*
X143270000Y-108050000D01*
X140560000Y-102970000D02*
X141070000Y-102970000D01*
%TO.N,Net-(ESP32_UWB1-IO13)*%
X138530000Y-105510000D02*
X138530000Y-106950000D01*
X138530000Y-102970000D02*
X138530000Y-105510000D01*
X138530000Y-106950000D02*
X139630000Y-108050000D01*
%TO.N,Net-(RGB_LED_ROUND1-R)*%
X125830000Y-115670000D02*
X132350000Y-115670000D01*
X120750000Y-110590000D02*
X125830000Y-115670000D01*
%TO.N,Net-(RGB_LED_ROUND1-G)*%
X133450000Y-113130000D02*
X135990000Y-115670000D01*
X128370000Y-113130000D02*
X133450000Y-113130000D01*
X125830000Y-110590000D02*
X128370000Y-113130000D01*
%TO.N,Net-(RGB_LED_ROUND2-R)*%
X147420000Y-110590000D02*
X144710000Y-110590000D01*
X144710000Y-110590000D02*
X139630000Y-115670000D01*
%TO.N,Net-(RGB_LED_ROUND2-G)*%
X152500000Y-110590000D02*
X147420000Y-115670000D01*
X147420000Y-115670000D02*
X143270000Y-115670000D01*
%TD*%
M02*
