M48
; DRILL file {KiCad 9.0.0} date 2025-03-09T03:24:52-0700
; FORMAT={-:-/ absolute / metric / decimal}
; #@! TF.CreationDate,2025-03-09T03:24:52-07:00
; #@! TF.GenerationSoftware,Kicad,Pcbnew,9.0.0
; #@! TF.FileFunction,Plated,1,2,PTH
FMAT,2
METRIC
; #@! TA.AperFunction,Plated,PTH,ComponentDrill
T1C0.800
%
G90
G05
T1
X24.345Y-55.88
X25.185Y-25.4
X25.185Y-48.26
X26.885Y-55.88
X27.725Y-25.4
X27.725Y-48.26
X29.425Y-55.88
X30.265Y-48.26
X40.855Y-20.32
X40.855Y-48.26
X42.125Y-55.88
X43.395Y-20.32
X43.395Y-48.26
X44.665Y-55.88
X45.935Y-20.32
X45.935Y-48.26
X47.205Y-55.88
X48.475Y-20.32
X48.475Y-48.26
X49.745Y-55.88
X51.015Y-20.32
X51.015Y-48.26
X53.555Y-20.32
X53.555Y-48.26
X53.555Y-52.07
X53.555Y-59.69
X56.095Y-20.32
X56.095Y-48.26
X56.095Y-52.07
X56.095Y-59.69
X58.635Y-20.32
X58.635Y-48.26
X58.635Y-52.07
X58.635Y-59.69
X61.175Y-20.32
X61.175Y-48.26
X61.175Y-52.07
X61.175Y-59.69
X63.715Y-20.32
X63.715Y-48.26
X64.985Y-55.88
X66.255Y-20.32
X66.255Y-48.26
X67.525Y-55.88
X68.795Y-20.32
X68.795Y-48.26
X70.065Y-55.88
X71.335Y-48.26
X72.605Y-55.88
X73.875Y-48.26
X76.415Y-48.26
X78.955Y-48.26
X81.495Y-48.26
X84.035Y-48.26
X84.035Y-52.07
X84.035Y-59.69
X86.575Y-48.26
X86.575Y-52.07
X86.575Y-59.69
X89.115Y-48.26
X91.655Y-19.05
X91.655Y-41.91
X94.195Y-41.91
X103.085Y-41.91
X105.625Y-19.05
X105.625Y-41.91
M30
