%TF.GenerationSoftware,KiCad,Pcbnew,9.0.0*%
%TF.CreationDate,2025-03-27T04:45:28-07:00*%
%TF.ProjectId,sensor,73656e73-6f72-42e6-9b69-6361645f7063,v0.5*%
%TF.SameCoordinates,Original*%
%TF.FileFunction,Plated,1,2,PTH,Drill*%
%TF.FilePolarity,Positive*%
%FSLAX46Y46*%
G04 Gerber Fmt 4.6, Leading zero omitted, Abs format (unit mm)*
G04 Created by KiCad (PCBNEW 9.0.0) date 2025-03-27 04:45:28*
%MOMM*%
%LPD*%
G01*
G04 APERTURE LIST*
%TA.AperFunction,ComponentDrill*%
%ADD10C,1.000000*%
%TD*%
%TA.AperFunction,ComponentDrill*%
%ADD11C,1.200000*%
%TD*%
G04 APERTURE END LIST*
D10*
%TO.C,2_PIN_Connector1*%
X116840000Y-125730000D03*
X116840000Y-130810000D03*
%TO.C,ESP32_UWB1*%
X118110000Y-80010000D03*
X118110000Y-107950000D03*
X120650000Y-80010000D03*
X120650000Y-107950000D03*
X123190000Y-80010000D03*
X123190000Y-107950000D03*
%TO.C,5V_Regulator1*%
X123750000Y-124230000D03*
X123750000Y-132510000D03*
%TO.C,ESP32_UWB1*%
X125730000Y-80010000D03*
X125730000Y-107950000D03*
X128270000Y-80010000D03*
X128270000Y-107950000D03*
X130810000Y-80010000D03*
X130810000Y-107950000D03*
X133350000Y-80010000D03*
X133350000Y-107950000D03*
X135890000Y-80010000D03*
X135890000Y-107950000D03*
%TO.C,5V_Regulator1*%
X138070000Y-124230000D03*
X138070000Y-132510000D03*
%TO.C,ESP32_UWB1*%
X138430000Y-80010000D03*
X138430000Y-107950000D03*
X140970000Y-80010000D03*
X140970000Y-107950000D03*
X143510000Y-80010000D03*
X143510000Y-107950000D03*
%TO.C,SERVER_LED1*%
X143510000Y-125730000D03*
%TO.C,ESP32_UWB1*%
X146050000Y-80010000D03*
X146050000Y-107950000D03*
%TO.C,R1*%
X146050000Y-111760000D03*
X146050000Y-119380000D03*
%TO.C,SERVER_LED1*%
X146050000Y-125730000D03*
%TO.C,ESP32_UWB1*%
X148590000Y-107950000D03*
%TO.C,R2*%
X148590000Y-111760000D03*
X148590000Y-119380000D03*
%TO.C,SERVER_LED1*%
X148590000Y-125730000D03*
%TO.C,ESP32_UWB1*%
X151130000Y-107950000D03*
%TO.C,SERVER_LED1*%
X151130000Y-125730000D03*
%TO.C,ESP32_UWB1*%
X153670000Y-107950000D03*
%TO.C,R3*%
X153670000Y-111760000D03*
X153670000Y-119380000D03*
%TO.C,TAG_LED1*%
X153670000Y-125730000D03*
%TO.C,ESP32_UWB1*%
X156210000Y-107950000D03*
%TO.C,R4*%
X156210000Y-111760000D03*
X156210000Y-119380000D03*
%TO.C,TAG_LED1*%
X156210000Y-125730000D03*
%TO.C,ESP32_UWB1*%
X158750000Y-107950000D03*
%TO.C,TAG_LED1*%
X158750000Y-125730000D03*
%TO.C,ESP32_UWB1*%
X161290000Y-107950000D03*
%TO.C,TAG_LED1*%
X161290000Y-125730000D03*
%TO.C,ESP32_UWB1*%
X163830000Y-107950000D03*
X166370000Y-107950000D03*
D11*
%TO.C,CAN_Transreceiver1*%
X116730000Y-113030000D03*
X116730000Y-118110000D03*
X123330000Y-114300000D03*
X123330000Y-116840000D03*
X137030000Y-111760000D03*
X137030000Y-114300000D03*
X137030000Y-116840000D03*
X137030000Y-119380000D03*
M02*
