%TF.GenerationSoftware,KiCad,Pcbnew,9.0.0*%
%TF.CreationDate,2025-03-19T00:35:10-07:00*%
%TF.ProjectId,sensor,73656e73-6f72-42e6-9b69-6361645f7063,v0.3*%
%TF.SameCoordinates,Original*%
%TF.FileFunction,Copper,L2,Bot*%
%TF.FilePolarity,Positive*%
%FSLAX46Y46*%
G04 Gerber Fmt 4.6, Leading zero omitted, Abs format (unit mm)*
G04 Created by KiCad (PCBNEW 9.0.0) date 2025-03-19 00:35:10*
%MOMM*%
%LPD*%
G01*
G04 APERTURE LIST*
%TA.AperFunction,ComponentPad*%
%ADD10C,1.800000*%
%TD*%
%TA.AperFunction,ComponentPad*%
%ADD11R,1.800000X1.800000*%
%TD*%
%TA.AperFunction,ComponentPad*%
%ADD12C,2.000000*%
%TD*%
%TA.AperFunction,Conductor*%
%ADD13C,0.500000*%
%TD*%
G04 APERTURE END LIST*
D10*
%TO.P,ESP32_UWB1,1,3V3*%
%TO.N,Net-(CAN_Transreceiver1-3.3V)*%
X118110000Y-107950000D03*
%TO.P,ESP32_UWB1,2,GND*%
%TO.N,Net-(CAN_Transreceiver1-GND)*%
X120650000Y-107950000D03*
%TO.P,ESP32_UWB1,3,RST*%
%TO.N,unconnected-(ESP32_UWB1-RST-Pad3)*%
X123190000Y-107950000D03*
%TO.P,ESP32_UWB1,4,GND*%
%TO.N,unconnected-(ESP32_UWB1-GND-Pad4)*%
X125730000Y-107950000D03*
%TO.P,ESP32_UWB1,5,IO2*%
%TO.N,Net-(CAN_Transreceiver1-CAN_RX)*%
X128270000Y-107950000D03*
%TO.P,ESP32_UWB1,6,IO12*%
%TO.N,Net-(CAN_Transreceiver1-CAN_TX)*%
X130810000Y-107950000D03*
%TO.P,ESP32_UWB1,7,IO13*%
%TO.N,unconnected-(ESP32_UWB1-IO13-Pad7)*%
X133350000Y-107950000D03*
%TO.P,ESP32_UWB1,8,IO14*%
%TO.N,unconnected-(ESP32_UWB1-IO14-Pad8)*%
X135890000Y-107950000D03*
%TO.P,ESP32_UWB1,9,IO15*%
%TO.N,unconnected-(ESP32_UWB1-IO15-Pad9)*%
X138430000Y-107950000D03*
%TO.P,ESP32_UWB1,10,IO18*%
%TO.N,unconnected-(ESP32_UWB1-IO18-Pad10)*%
X140970000Y-107950000D03*
%TO.P,ESP32_UWB1,11,IO19*%
%TO.N,unconnected-(ESP32_UWB1-IO19-Pad11)*%
X143510000Y-107950000D03*
%TO.P,ESP32_UWB1,12,IO25*%
%TO.N,Net-(ESP32_UWB1-IO25)*%
X146050000Y-107950000D03*
%TO.P,ESP32_UWB1,13,IO26*%
%TO.N,Net-(ESP32_UWB1-IO26)*%
X148590000Y-107950000D03*
%TO.P,ESP32_UWB1,14,IO27*%
%TO.N,unconnected-(ESP32_UWB1-IO27-Pad14)*%
X151130000Y-107950000D03*
%TO.P,ESP32_UWB1,15,IO32*%
%TO.N,Net-(ESP32_UWB1-IO32)*%
X153670000Y-107950000D03*
%TO.P,ESP32_UWB1,16,IO33*%
%TO.N,Net-(ESP32_UWB1-IO33)*%
X156210000Y-107950000D03*
%TO.P,ESP32_UWB1,17,IO34*%
%TO.N,unconnected-(ESP32_UWB1-IO34-Pad17)*%
X158750000Y-107950000D03*
%TO.P,ESP32_UWB1,18,IO35*%
%TO.N,unconnected-(ESP32_UWB1-IO35-Pad18)*%
X161290000Y-107950000D03*
%TO.P,ESP32_UWB1,19,IO36*%
%TO.N,unconnected-(ESP32_UWB1-IO36-Pad19)*%
X163830000Y-107950000D03*
%TO.P,ESP32_UWB1,20,IO39*%
%TO.N,unconnected-(ESP32_UWB1-IO39-Pad20)*%
X166370000Y-107950000D03*
%TO.P,ESP32_UWB1,21,5V0*%
%TO.N,Net-(5V_Regulator1-OUT+)*%
X118110000Y-80010000D03*
%TO.P,ESP32_UWB1,22,GND*%
%TO.N,Net-(5V_Regulator1-OUT-)*%
X120650000Y-80010000D03*
%TO.P,ESP32_UWB1,23,IO3*%
%TO.N,unconnected-(ESP32_UWB1-IO3-Pad23)*%
X123190000Y-80010000D03*
%TO.P,ESP32_UWB1,24,IO1*%
%TO.N,unconnected-(ESP32_UWB1-IO1-Pad24)*%
X125730000Y-80010000D03*
%TO.P,ESP32_UWB1,25,IO0*%
%TO.N,unconnected-(ESP32_UWB1-IO0-Pad25)*%
X128270000Y-80010000D03*
%TO.P,ESP32_UWB1,26,IO4*%
%TO.N,unconnected-(ESP32_UWB1-IO4-Pad26)*%
X130810000Y-80010000D03*
%TO.P,ESP32_UWB1,27,IO5*%
%TO.N,unconnected-(ESP32_UWB1-IO5-Pad27)*%
X133350000Y-80010000D03*
%TO.P,ESP32_UWB1,28,IO16*%
%TO.N,unconnected-(ESP32_UWB1-IO16-Pad28)*%
X135890000Y-80010000D03*
%TO.P,ESP32_UWB1,29,IO17*%
%TO.N,unconnected-(ESP32_UWB1-IO17-Pad29)*%
X138430000Y-80010000D03*
%TO.P,ESP32_UWB1,30,IO21*%
%TO.N,unconnected-(ESP32_UWB1-IO21-Pad30)*%
X140970000Y-80010000D03*
%TO.P,ESP32_UWB1,31,IO22*%
%TO.N,unconnected-(ESP32_UWB1-IO22-Pad31)*%
X143510000Y-80010000D03*
%TO.P,ESP32_UWB1,32,IO23*%
%TO.N,unconnected-(ESP32_UWB1-IO23-Pad32)*%
X146050000Y-80010000D03*
%TD*%
%TO.P,R3,1*%
%TO.N,Net-(TAG_LED1-R)*%
X153670000Y-119380000D03*
%TO.P,R3,2*%
%TO.N,Net-(ESP32_UWB1-IO32)*%
X153670000Y-111760000D03*
%TD*%
%TO.P,R1,1*%
%TO.N,Net-(SERVER_LED1-R)*%
X146050000Y-119380000D03*
%TO.P,R1,2*%
%TO.N,Net-(ESP32_UWB1-IO25)*%
X146050000Y-111760000D03*
%TD*%
%TO.P,R2,1*%
%TO.N,Net-(SERVER_LED1-G)*%
X148590000Y-119380000D03*
%TO.P,R2,2*%
%TO.N,Net-(ESP32_UWB1-IO26)*%
X148590000Y-111760000D03*
%TD*%
%TO.P,SERVER_LED1,1,R*%
%TO.N,Net-(SERVER_LED1-R)*%
X143510000Y-125730000D03*
D11*
%TO.P,SERVER_LED1,2,VCC*%
%TO.N,Net-(CAN_Transreceiver1-3.3V)*%
X146050000Y-125730000D03*
D10*
%TO.P,SERVER_LED1,3,G*%
%TO.N,Net-(SERVER_LED1-G)*%
X148590000Y-125730000D03*
%TO.P,SERVER_LED1,4,B*%
%TO.N,unconnected-(SERVER_LED1-B-Pad4)*%
X151130000Y-125730000D03*
%TD*%
%TO.P,5V_Regulator1,1,IN-*%
%TO.N,Net-(2_PIN_Connector1-Pin_1)*%
X123750000Y-124230000D03*
%TO.P,5V_Regulator1,2,IN+*%
%TO.N,Net-(2_PIN_Connector1-Pin_2)*%
X123750000Y-132510000D03*
%TO.P,5V_Regulator1,3,OUT-*%
%TO.N,Net-(5V_Regulator1-OUT-)*%
X138070000Y-124230000D03*
%TO.P,5V_Regulator1,4,OUT+*%
%TO.N,Net-(5V_Regulator1-OUT+)*%
X138070000Y-132510000D03*
%TD*%
%TO.P,TAG_LED1,1,R*%
%TO.N,Net-(TAG_LED1-R)*%
X153670000Y-125730000D03*
D11*
%TO.P,TAG_LED1,2,VCC*%
%TO.N,Net-(CAN_Transreceiver1-3.3V)*%
X156210000Y-125730000D03*
D10*
%TO.P,TAG_LED1,3,G*%
%TO.N,Net-(TAG_LED1-G)*%
X158750000Y-125730000D03*
%TO.P,TAG_LED1,4,B*%
%TO.N,unconnected-(TAG_LED1-B-Pad4)*%
X161290000Y-125730000D03*
%TD*%
D12*
%TO.P,CAN_Transreceiver1,1,3.3V*%
%TO.N,Net-(CAN_Transreceiver1-3.3V)*%
X137030000Y-119380000D03*
%TO.P,CAN_Transreceiver1,2,GND*%
%TO.N,Net-(CAN_Transreceiver1-GND)*%
X137030000Y-116840000D03*
%TO.P,CAN_Transreceiver1,3,CAN_RX*%
%TO.N,Net-(CAN_Transreceiver1-CAN_RX)*%
X137030000Y-114300000D03*
%TO.P,CAN_Transreceiver1,4,CAN_TX*%
%TO.N,Net-(CAN_Transreceiver1-CAN_TX)*%
X137030000Y-111760000D03*
%TO.P,CAN_Transreceiver1,5,CANL*%
%TO.N,unconnected-(CAN_Transreceiver1-CANL-Pad5)*%
X116730000Y-118110000D03*
%TO.P,CAN_Transreceiver1,6,CANH*%
%TO.N,unconnected-(CAN_Transreceiver1-CANH-Pad6)*%
X116730000Y-113030000D03*
%TO.P,CAN_Transreceiver1,7,R120*%
%TO.N,unconnected-(CAN_Transreceiver1-R120-Pad7)*%
X123330000Y-116840000D03*
%TO.P,CAN_Transreceiver1,8,R120*%
%TO.N,unconnected-(CAN_Transreceiver1-R120-Pad8)*%
X123330000Y-114300000D03*
%TD*%
D10*
%TO.P,R4,1*%
%TO.N,Net-(TAG_LED1-G)*%
X156210000Y-119380000D03*
%TO.P,R4,2*%
%TO.N,Net-(ESP32_UWB1-IO33)*%
X156210000Y-111760000D03*
%TD*%
%TO.P,2_PIN_Connector1,1,Pin_1*%
%TO.N,Net-(2_PIN_Connector1-Pin_1)*%
X116840000Y-125730000D03*
%TO.P,2_PIN_Connector1,2,Pin_2*%
%TO.N,Net-(2_PIN_Connector1-Pin_2)*%
X116840000Y-130810000D03*
%TD*%
D13*
%TO.N,Net-(5V_Regulator1-OUT-)*%
X146730000Y-115570000D02*
X138070000Y-124230000D01*
X120650000Y-80010000D02*
X146050000Y-105410000D01*
X166370000Y-105410000D02*
X168910000Y-107950000D01*
X146050000Y-105410000D02*
X166370000Y-105410000D01*
X168910000Y-110490000D02*
X163830000Y-115570000D01*
X163830000Y-115570000D02*
X146730000Y-115570000D01*
X168910000Y-107950000D02*
X168910000Y-110490000D01*
%TO.N,Net-(5V_Regulator1-OUT+)*%
X120650000Y-82550000D02*
X118110000Y-80010000D01*
X138070000Y-130450000D02*
X115570000Y-107950000D01*
X120650000Y-105410000D02*
X120650000Y-82550000D01*
X138070000Y-132510000D02*
X138070000Y-130450000D01*
X115570000Y-105410000D02*
X120650000Y-105410000D01*
X115570000Y-107950000D02*
X115570000Y-105410000D01*
%TO.N,Net-(2_PIN_Connector1-Pin_1)*%
X116840000Y-125730000D02*
X122250000Y-125730000D01*
X122250000Y-125730000D02*
X123750000Y-124230000D01*
%TO.N,Net-(2_PIN_Connector1-Pin_2)*%
X122050000Y-130810000D02*
X123750000Y-132510000D01*
X116840000Y-130810000D02*
X122050000Y-130810000D01*
%TD*%
M02*
