%TF.GenerationSoftware,KiCad,Pcbnew,9.0.0*%
%TF.CreationDate,2025-03-09T03:32:08-07:00*%
%TF.ProjectId,remote,72656d6f-7465-42e6-9b69-6361645f7063,v0.1*%
%TF.SameCoordinates,Original*%
%TF.FileFunction,Soldermask,Top*%
%TF.FilePolarity,Negative*%
%FSLAX46Y46*%
G04 Gerber Fmt 4.6, Leading zero omitted, Abs format (unit mm)*
G04 Created by KiCad (PCBNEW 9.0.0) date 2025-03-09 03:32:08*
%MOMM*%
%LPD*%
G01*
G04 APERTURE LIST*
%ADD10C,1.400000*%
%ADD11C,1.500000*%
%ADD12C,1.800000*%
%ADD13R,1.800000X1.800000*%
%ADD14C,2.200000*%
G04 APERTURE END LIST*
D10*
%TO.C,MINI_THUNSTICK1*%
X61069000Y-92189000D03*
D11*
X61069000Y-90189000D03*
X61069000Y-88189000D03*
D10*
X71869000Y-81389000D03*
D11*
X69869000Y-81389000D03*
X67869000Y-81389000D03*
%TD*%
D12*
%TO.C,RGB_LED4*%
X53359000Y-24149000D03*
D13*
X55899000Y-24149000D03*
D12*
X58439000Y-24149000D03*
X60979000Y-24149000D03*
%TD*%
%TO.C,R8*%
X69869000Y-38119000D03*
X69869000Y-30499000D03*
%TD*%
%TO.C,R2*%
X54629000Y-38119000D03*
X54629000Y-30499000D03*
%TD*%
D14*
%TO.C,REF\u002A\u002A*%
X120669000Y-100349000D03*
%TD*%
D13*
%TO.C,THUMBSTICK1*%
X112989000Y-93650058D03*
X112989000Y-81150058D03*
X102889000Y-93650058D03*
X102889000Y-81150058D03*
D12*
X110479000Y-79000058D03*
X107939000Y-79000058D03*
X105399000Y-79000058D03*
X99239000Y-84860058D03*
X99239000Y-87400058D03*
X99239000Y-89940058D03*
X113889000Y-90550058D03*
X118439000Y-90550058D03*
X113889000Y-84250058D03*
X118439000Y-84250058D03*
%TD*%
%TO.C,R4*%
X59709000Y-38119000D03*
X59709000Y-30499000D03*
%TD*%
%TO.C,R9*%
X72409000Y-38119000D03*
X72409000Y-30499000D03*
%TD*%
%TO.C,ESP32_UWB1*%
X47009000Y-69869000D03*
X49549000Y-69869000D03*
X52089000Y-69869000D03*
X54629000Y-69869000D03*
X57169000Y-69869000D03*
X59709000Y-69869000D03*
X62249000Y-69869000D03*
X64789000Y-69869000D03*
X67329000Y-69869000D03*
X69869000Y-69869000D03*
X72409000Y-69869000D03*
X74949000Y-69869000D03*
X77489000Y-69869000D03*
X80029000Y-69869000D03*
X82569000Y-69869000D03*
X85109000Y-69869000D03*
X87649000Y-69869000D03*
X90189000Y-69869000D03*
X92729000Y-69869000D03*
X95269000Y-69869000D03*
X47009000Y-41929000D03*
X49549000Y-41929000D03*
X52089000Y-41929000D03*
X54629000Y-41929000D03*
X57169000Y-41929000D03*
X59709000Y-41929000D03*
X62249000Y-41929000D03*
X64789000Y-41929000D03*
X67329000Y-41929000D03*
X69869000Y-41929000D03*
X72409000Y-41929000D03*
X74949000Y-41929000D03*
%TD*%
%TO.C,ON_OFF_SWITCH1*%
X24149000Y-34060058D03*
X26689000Y-34060058D03*
X29229000Y-34060058D03*
%TD*%
%TO.C,R7*%
X67329000Y-38119000D03*
X67329000Y-30499000D03*
%TD*%
%TO.C,BUTTON2*%
X45709000Y-77240058D03*
X45709000Y-82320058D03*
X58409000Y-77240058D03*
X58409000Y-82320058D03*
%TD*%
%TO.C,RGB_LED1*%
X22879000Y-24149000D03*
D13*
X25419000Y-24149000D03*
D12*
X27959000Y-24149000D03*
X30499000Y-24149000D03*
%TD*%
%TO.C,R1*%
X52089000Y-38119000D03*
X52089000Y-30499000D03*
%TD*%
D13*
%TO.C,THUMBSTICK2*%
X36819000Y-93650058D03*
X36819000Y-81150058D03*
X26719000Y-93650058D03*
X26719000Y-81150058D03*
D12*
X34309000Y-79000058D03*
X31769000Y-79000058D03*
X29229000Y-79000058D03*
X23069000Y-84860058D03*
X23069000Y-87400058D03*
X23069000Y-89940058D03*
X37719000Y-90550058D03*
X42269000Y-90550058D03*
X37719000Y-84250058D03*
X42269000Y-84250058D03*
%TD*%
D13*
%TO.C,5V_DC_DC_CONVERTER1*%
X29229000Y-69620058D03*
D12*
X31769000Y-69620058D03*
X34309000Y-69620058D03*
D13*
X29229000Y-46760058D03*
D12*
X31769000Y-46760058D03*
%TD*%
D14*
%TO.C,REF\u002A\u002A*%
X120669000Y-19069000D03*
%TD*%
D12*
%TO.C,BUTTON1*%
X81269000Y-77240058D03*
X81269000Y-82320058D03*
X93969000Y-77240058D03*
X93969000Y-82320058D03*
%TD*%
%TO.C,RGB_LED2*%
X33039000Y-24149000D03*
D13*
X35579000Y-24149000D03*
D12*
X38119000Y-24149000D03*
X40659000Y-24149000D03*
%TD*%
D14*
%TO.C,REF\u002A\u002A*%
X19069000Y-100349000D03*
%TD*%
D12*
%TO.C,R6*%
X64789000Y-38119000D03*
X64789000Y-30499000D03*
%TD*%
%TO.C,R10*%
X74949000Y-38119000D03*
X74949000Y-30499000D03*
%TD*%
%TO.C,RGB_LED3*%
X43199000Y-24149000D03*
D13*
X45739000Y-24149000D03*
D12*
X48279000Y-24149000D03*
X50819000Y-24149000D03*
%TD*%
%TO.C,LOCK_SWITCH1*%
X67329000Y-74949000D03*
X69869000Y-74949000D03*
X72409000Y-74949000D03*
%TD*%
%TO.C,R3*%
X57169000Y-38119000D03*
X57169000Y-30499000D03*
%TD*%
%TO.C,UWB_SELECTOR1*%
X34309000Y-34060058D03*
X36849000Y-34060058D03*
X39389000Y-34060058D03*
%TD*%
D14*
%TO.C,REF\u002A\u002A*%
X19069000Y-19069000D03*
%TD*%
D12*
%TO.C,R5*%
X62249000Y-38119000D03*
X62249000Y-30499000D03*
%TD*%
%TO.C,RGB_LED5*%
X63519000Y-24149000D03*
D13*
X66059000Y-24149000D03*
D12*
X68599000Y-24149000D03*
X71139000Y-24149000D03*
%TD*%
D13*
%TO.C,3.7V_BATTERY_CHARGER1*%
X99079000Y-40410058D03*
X113049000Y-40410058D03*
X99079000Y-63270058D03*
X101619000Y-63270058D03*
X110509000Y-63270058D03*
X113049000Y-63270058D03*
%TD*%
M02*
