%TF.GenerationSoftware,KiCad,Pcbnew,9.0.0*%
%TF.CreationDate,2025-03-19T00:30:10-07:00*%
%TF.ProjectId,remote,72656d6f-7465-42e6-9b69-6361645f7063,v0.3*%
%TF.SameCoordinates,Original*%
%TF.FileFunction,Copper,L1,Top*%
%TF.FilePolarity,Positive*%
%FSLAX46Y46*%
G04 Gerber Fmt 4.6, Leading zero omitted, Abs format (unit mm)*
G04 Created by KiCad (PCBNEW 9.0.0) date 2025-03-19 00:30:10*
%MOMM*%
%LPD*%
G01*
G04 APERTURE LIST*
%TA.AperFunction,ComponentPad*%
%ADD10C,1.600000*%
%TD*%
%TA.AperFunction,ComponentPad*%
%ADD11C,1.800000*%
%TD*%
%TA.AperFunction,ComponentPad*%
%ADD12R,1.800000X1.800000*%
%TD*%
%TA.AperFunction,Conductor*%
%ADD13C,0.500000*%
%TD*%
%TA.AperFunction,Conductor*%
%ADD14C,0.000000*%
%TD*%
G04 APERTURE END LIST*
D10*
%TO.P,MINI_THUNSTICK1,1,-*%
%TO.N,Net-(BUTTON1-S1_2)*%
X141060000Y-129019000D03*
%TO.P,MINI_THUNSTICK1,2,X*%
%TO.N,Net-(ESP32_UWB1-IO35)*%
X141060000Y-127019000D03*
%TO.P,MINI_THUNSTICK1,3,+*%
%TO.N,Net-(ESP32_UWB1-3V3)*%
X141060000Y-125019000D03*
%TO.P,MINI_THUNSTICK1,4,-*%
%TO.N,Net-(BUTTON1-S1_2)*%
X151860000Y-118219000D03*
%TO.P,MINI_THUNSTICK1,5,Y*%
%TO.N,Net-(ESP32_UWB1-IO25)*%
X149860000Y-118219000D03*
%TO.P,MINI_THUNSTICK1,6,+*%
%TO.N,Net-(ESP32_UWB1-3V3)*%
X147860000Y-118219000D03*
%TD*%
D11*
%TO.P,RGB_LED4,1,R*%
%TO.N,Net-(RGB_LED4-R)*%
X133350000Y-60979000D03*
D12*
%TO.P,RGB_LED4,2,VCC*%
%TO.N,Net-(ESP32_UWB1-3V3)*%
X135890000Y-60979000D03*
D11*
%TO.P,RGB_LED4,3,G*%
%TO.N,Net-(RGB_LED4-G)*%
X138430000Y-60979000D03*
%TO.P,RGB_LED4,4,B*%
%TO.N,unconnected-(RGB_LED4-B-Pad4)*%
X140970000Y-60979000D03*
%TD*%
%TO.P,R8,1*%
%TO.N,Net-(ESP32_UWB1-IO26)*%
X149860000Y-74949000D03*
%TO.P,R8,2*%
%TO.N,Net-(RGB_LED5-B)*%
X149860000Y-67329000D03*
%TD*%
%TO.P,R2,1*%
%TO.N,Net-(ESP32_UWB1-IO16)*%
X134620000Y-74949000D03*
%TO.P,R2,2*%
%TO.N,Net-(RGB_LED1-G)*%
X134620000Y-67329000D03*
%TD*%
D12*
%TO.P,THUMBSTICK1,*%
%TO.N,*%
X192980000Y-130480058D03*
X192980000Y-117980058D03*
X182880000Y-130480058D03*
X182880000Y-117980058D03*
D11*
%TO.P,THUMBSTICK1,1,-*%
%TO.N,unconnected-(THUMBSTICK1---Pad1)*%
X190470000Y-115830058D03*
%TO.P,THUMBSTICK1,2,X*%
%TO.N,unconnected-(THUMBSTICK1-X-Pad2)*%
X187930000Y-115830058D03*
%TO.P,THUMBSTICK1,3,+*%
%TO.N,unconnected-(THUMBSTICK1-+-Pad3)*%
X185390000Y-115830058D03*
%TO.P,THUMBSTICK1,4,-*%
%TO.N,Net-(BUTTON1-S1_2)*%
X179230000Y-121690058D03*
%TO.P,THUMBSTICK1,5,Y*%
%TO.N,Net-(ESP32_UWB1-IO36)*%
X179230000Y-124230058D03*
%TO.P,THUMBSTICK1,6,+*%
%TO.N,Net-(ESP32_UWB1-3V3)*%
X179230000Y-126770058D03*
%TO.P,THUMBSTICK1,7,S1_1*%
%TO.N,unconnected-(THUMBSTICK1-S1_1-Pad7)*%
X193880000Y-127380058D03*
%TO.P,THUMBSTICK1,8,S1_2*%
%TO.N,unconnected-(THUMBSTICK1-S1_2-Pad8)*%
X198430000Y-127380058D03*
%TO.P,THUMBSTICK1,9,S2_1*%
%TO.N,unconnected-(THUMBSTICK1-S2_1-Pad9)*%
X193880000Y-121080058D03*
%TO.P,THUMBSTICK1,10,S2_2*%
%TO.N,unconnected-(THUMBSTICK1-S2_2-Pad10)*%
X198430000Y-121080058D03*
%TD*%
%TO.P,R4,1*%
%TO.N,Net-(ESP32_UWB1-IO21)*%
X139700000Y-74949000D03*
%TO.P,R4,2*%
%TO.N,Net-(RGB_LED3-R)*%
X139700000Y-67329000D03*
%TD*%
%TO.P,R9,1*%
%TO.N,Net-(ESP32_UWB1-IO39)*%
X152400000Y-74949000D03*
%TO.P,R9,2*%
%TO.N,Net-(5V_DC_DC_CONVERTER1-IN_+)*%
X152400000Y-67329000D03*
%TD*%
%TO.P,ESP32_UWB1,1,3V3*%
%TO.N,Net-(ESP32_UWB1-3V3)*%
X127000000Y-106699000D03*
%TO.P,ESP32_UWB1,2,GND*%
%TO.N,Net-(ESP32_UWB1-GND-Pad2)*%
X129540000Y-106699000D03*
%TO.P,ESP32_UWB1,3,RST*%
%TO.N,unconnected-(ESP32_UWB1-RST-Pad3)*%
X132080000Y-106699000D03*
%TO.P,ESP32_UWB1,4,GND*%
%TO.N,Net-(BUTTON1-S1_2)*%
X134620000Y-106699000D03*
%TO.P,ESP32_UWB1,5,IO2*%
%TO.N,Net-(ESP32_UWB1-IO2)*%
X137160000Y-106699000D03*
%TO.P,ESP32_UWB1,6,IO12*%
%TO.N,Net-(ESP32_UWB1-IO12)*%
X139700000Y-106699000D03*
%TO.P,ESP32_UWB1,7,IO13*%
%TO.N,Net-(BUTTON2-S2_1)*%
X142240000Y-106699000D03*
%TO.P,ESP32_UWB1,8,IO14*%
%TO.N,Net-(ESP32_UWB1-IO14)*%
X144780000Y-106699000D03*
%TO.P,ESP32_UWB1,9,IO15*%
%TO.N,Net-(BUTTON1-S1_1)*%
X147320000Y-106699000D03*
%TO.P,ESP32_UWB1,10,IO18*%
%TO.N,unconnected-(ESP32_UWB1-IO18-Pad10)*%
X149860000Y-106699000D03*
%TO.P,ESP32_UWB1,11,IO19*%
%TO.N,unconnected-(ESP32_UWB1-IO19-Pad11)*%
X152400000Y-106699000D03*
%TO.P,ESP32_UWB1,12,IO25*%
%TO.N,Net-(ESP32_UWB1-IO25)*%
X154940000Y-106699000D03*
%TO.P,ESP32_UWB1,13,IO26*%
%TO.N,Net-(ESP32_UWB1-IO26)*%
X157480000Y-106699000D03*
%TO.P,ESP32_UWB1,14,IO27*%
%TO.N,unconnected-(ESP32_UWB1-IO27-Pad14)*%
X160020000Y-106699000D03*
%TO.P,ESP32_UWB1,15,IO32*%
%TO.N,Net-(ESP32_UWB1-IO32)*%
X162560000Y-106699000D03*
%TO.P,ESP32_UWB1,16,IO33*%
%TO.N,Net-(ESP32_UWB1-IO33)*%
X165100000Y-106699000D03*
%TO.P,ESP32_UWB1,17,IO34*%
%TO.N,unconnected-(ESP32_UWB1-IO34-Pad17)*%
X167640000Y-106699000D03*
%TO.P,ESP32_UWB1,18,IO35*%
%TO.N,Net-(ESP32_UWB1-IO35)*%
X170180000Y-106699000D03*
%TO.P,ESP32_UWB1,19,IO36*%
%TO.N,Net-(ESP32_UWB1-IO36)*%
X172720000Y-106699000D03*
%TO.P,ESP32_UWB1,20,IO39*%
%TO.N,Net-(ESP32_UWB1-IO39)*%
X175260000Y-106699000D03*
%TO.P,ESP32_UWB1,21,5V0*%
%TO.N,Net-(5V_DC_DC_CONVERTER1-OUT_+)*%
X127000000Y-78759000D03*
%TO.P,ESP32_UWB1,22,GND*%
%TO.N,Net-(3.7V_BATTERY_CHARGER1-OUT-)*%
X129540000Y-78759000D03*
%TO.P,ESP32_UWB1,23,IO3*%
%TO.N,unconnected-(ESP32_UWB1-IO3-Pad23)*%
X132080000Y-78759000D03*
%TO.P,ESP32_UWB1,24,IO1*%
%TO.N,unconnected-(ESP32_UWB1-IO1-Pad24)*%
X134620000Y-78759000D03*
%TO.P,ESP32_UWB1,25,IO0*%
%TO.N,unconnected-(ESP32_UWB1-IO0-Pad25)*%
X137160000Y-78759000D03*
%TO.P,ESP32_UWB1,26,IO4*%
%TO.N,unconnected-(ESP32_UWB1-IO4-Pad26)*%
X139700000Y-78759000D03*
%TO.P,ESP32_UWB1,27,IO5*%
%TO.N,Net-(ESP32_UWB1-IO5)*%
X142240000Y-78759000D03*
%TO.P,ESP32_UWB1,28,IO16*%
%TO.N,Net-(ESP32_UWB1-IO16)*%
X144780000Y-78759000D03*
%TO.P,ESP32_UWB1,29,IO17*%
%TO.N,Net-(ESP32_UWB1-IO17)*%
X147320000Y-78759000D03*
%TO.P,ESP32_UWB1,30,IO21*%
%TO.N,Net-(ESP32_UWB1-IO21)*%
X149860000Y-78759000D03*
%TO.P,ESP32_UWB1,31,IO22*%
%TO.N,Net-(ESP32_UWB1-IO22)*%
X152400000Y-78759000D03*
%TO.P,ESP32_UWB1,32,IO23*%
%TO.N,unconnected-(ESP32_UWB1-IO23-Pad32)*%
X154940000Y-78759000D03*
%TD*%
%TO.P,ON_OFF_SWITCH1,1*%
%TO.N,unconnected-(ON_OFF_SWITCH1-Pad1)*%
X101600000Y-70890058D03*
%TO.P,ON_OFF_SWITCH1,2*%
%TO.N,Net-(5V_DC_DC_CONVERTER1-IN_+)*%
X104140000Y-70890058D03*
%TO.P,ON_OFF_SWITCH1,3*%
%TO.N,Net-(3.7V_BATTERY_CHARGER1-OUT+)*%
X106680000Y-70890058D03*
%TD*%
%TO.P,R7,1*%
%TO.N,Net-(ESP32_UWB1-IO32)*%
X147320000Y-74949000D03*
%TO.P,R7,2*%
%TO.N,Net-(RGB_LED4-G)*%
X147320000Y-67329000D03*
%TD*%
%TO.P,BUTTON2,1,S1_1*%
%TO.N,unconnected-(BUTTON2-S1_1-Pad1)*%
X125700000Y-114070058D03*
%TO.P,BUTTON2,2,S1_2*%
%TO.N,unconnected-(BUTTON2-S1_2-Pad2)*%
X125700000Y-119150058D03*
%TO.P,BUTTON2,3,S2_1*%
%TO.N,Net-(BUTTON2-S2_1)*%
X138400000Y-114070058D03*
%TO.P,BUTTON2,4,S2_2*%
%TO.N,Net-(BUTTON1-S1_2)*%
X138400000Y-119150058D03*
%TD*%
%TO.P,RGB_LED1,1,R*%
%TO.N,Net-(RGB_LED1-R)*%
X102870000Y-60979000D03*
D12*
%TO.P,RGB_LED1,2,VCC*%
%TO.N,Net-(ESP32_UWB1-3V3)*%
X105410000Y-60979000D03*
D11*
%TO.P,RGB_LED1,3,G*%
%TO.N,Net-(RGB_LED1-G)*%
X107950000Y-60979000D03*
%TO.P,RGB_LED1,4,B*%
%TO.N,unconnected-(RGB_LED1-B-Pad4)*%
X110490000Y-60979000D03*
%TD*%
%TO.P,R1,1*%
%TO.N,Net-(ESP32_UWB1-IO5)*%
X132080000Y-74949000D03*
%TO.P,R1,2*%
%TO.N,Net-(RGB_LED1-R)*%
X132080000Y-67329000D03*
%TD*%
D12*
%TO.P,THUMBSTICK2,*%
%TO.N,*%
X116810000Y-130480058D03*
X116810000Y-117980058D03*
X106710000Y-130480058D03*
X106710000Y-117980058D03*
D11*
%TO.P,THUMBSTICK2,1,-*%
%TO.N,Net-(BUTTON1-S1_2)*%
X114300000Y-115830058D03*
%TO.P,THUMBSTICK2,2,X*%
%TO.N,Net-(ESP32_UWB1-IO2)*%
X111760000Y-115830058D03*
%TO.P,THUMBSTICK2,3,+*%
%TO.N,Net-(ESP32_UWB1-3V3)*%
X109220000Y-115830058D03*
%TO.P,THUMBSTICK2,4,-*%
%TO.N,unconnected-(THUMBSTICK2---Pad4)*%
X103060000Y-121690058D03*
%TO.P,THUMBSTICK2,5,Y*%
%TO.N,unconnected-(THUMBSTICK2-Y-Pad5)*%
X103060000Y-124230058D03*
%TO.P,THUMBSTICK2,6,+*%
%TO.N,unconnected-(THUMBSTICK2-+-Pad6)*%
X103060000Y-126770058D03*
%TO.P,THUMBSTICK2,7,S1_1*%
%TO.N,unconnected-(THUMBSTICK2-S1_1-Pad7)*%
X117710000Y-127380058D03*
%TO.P,THUMBSTICK2,8,S1_2*%
%TO.N,unconnected-(THUMBSTICK2-S1_2-Pad8)*%
X122260000Y-127380058D03*
%TO.P,THUMBSTICK2,9,S2_1*%
%TO.N,unconnected-(THUMBSTICK2-S2_1-Pad9)*%
X117710000Y-121080058D03*
%TO.P,THUMBSTICK2,10,S2_2*%
%TO.N,unconnected-(THUMBSTICK2-S2_2-Pad10)*%
X122260000Y-121080058D03*
%TD*%
D12*
%TO.P,5V_DC_DC_CONVERTER1,1,IN_+*%
%TO.N,Net-(5V_DC_DC_CONVERTER1-IN_+)*%
X110490000Y-106450058D03*
D11*
%TO.P,5V_DC_DC_CONVERTER1,2,CTL*%
%TO.N,unconnected-(5V_DC_DC_CONVERTER1-CTL-Pad2)*%
X113030000Y-106450058D03*
%TO.P,5V_DC_DC_CONVERTER1,3,IN_-*%
%TO.N,Net-(3.7V_BATTERY_CHARGER1-OUT-)*%
X115570000Y-106450058D03*
D12*
%TO.P,5V_DC_DC_CONVERTER1,4,OUT_+*%
%TO.N,Net-(5V_DC_DC_CONVERTER1-OUT_+)*%
X110490000Y-83590058D03*
D11*
%TO.P,5V_DC_DC_CONVERTER1,5,OUT_-*%
%TO.N,Net-(3.7V_BATTERY_CHARGER1-OUT-)*%
X113030000Y-83590058D03*
%TD*%
%TO.P,BUTTON1,1,S1_1*%
%TO.N,Net-(BUTTON1-S1_1)*%
X161260000Y-114070058D03*
%TO.P,BUTTON1,2,S1_2*%
%TO.N,Net-(BUTTON1-S1_2)*%
X161260000Y-119150058D03*
%TO.P,BUTTON1,3,S2_1*%
%TO.N,unconnected-(BUTTON1-S2_1-Pad3)*%
X173960000Y-114070058D03*
%TO.P,BUTTON1,4,S2_2*%
%TO.N,unconnected-(BUTTON1-S2_2-Pad4)*%
X173960000Y-119150058D03*
%TD*%
%TO.P,RGB_LED2,1,R*%
%TO.N,unconnected-(RGB_LED2-R-Pad1)*%
X113030000Y-60979000D03*
D12*
%TO.P,RGB_LED2,2,VCC*%
%TO.N,Net-(ESP32_UWB1-3V3)*%
X115570000Y-60979000D03*
D11*
%TO.P,RGB_LED2,3,G*%
%TO.N,unconnected-(RGB_LED2-G-Pad3)*%
X118110000Y-60979000D03*
%TO.P,RGB_LED2,4,B*%
%TO.N,Net-(RGB_LED2-B)*%
X120650000Y-60979000D03*
%TD*%
%TO.P,R6,1*%
%TO.N,Net-(ESP32_UWB1-IO33)*%
X144780000Y-74949000D03*
%TO.P,R6,2*%
%TO.N,Net-(RGB_LED4-R)*%
X144780000Y-67329000D03*
%TD*%
%TO.P,R10,1*%
%TO.N,Net-(ESP32_UWB1-IO39)*%
X154940000Y-74949000D03*
%TO.P,R10,2*%
%TO.N,Net-(3.7V_BATTERY_CHARGER1-OUT-)*%
X154940000Y-67329000D03*
%TD*%
%TO.P,RGB_LED3,1,R*%
%TO.N,Net-(RGB_LED3-R)*%
X123190000Y-60979000D03*
D12*
%TO.P,RGB_LED3,2,VCC*%
%TO.N,Net-(ESP32_UWB1-3V3)*%
X125730000Y-60979000D03*
D11*
%TO.P,RGB_LED3,3,G*%
%TO.N,Net-(RGB_LED3-G)*%
X128270000Y-60979000D03*
%TO.P,RGB_LED3,4,B*%
%TO.N,unconnected-(RGB_LED3-B-Pad4)*%
X130810000Y-60979000D03*
%TD*%
%TO.P,LOCK_SWITCH1,1*%
%TO.N,unconnected-(LOCK_SWITCH1-Pad1)*%
X147320000Y-111779000D03*
%TO.P,LOCK_SWITCH1,2*%
%TO.N,Net-(ESP32_UWB1-IO14)*%
X149860000Y-111779000D03*
%TO.P,LOCK_SWITCH1,3*%
%TO.N,Net-(BUTTON1-S1_2)*%
X152400000Y-111779000D03*
%TD*%
%TO.P,R3,1*%
%TO.N,Net-(ESP32_UWB1-IO17)*%
X137160000Y-74949000D03*
%TO.P,R3,2*%
%TO.N,Net-(RGB_LED2-B)*%
X137160000Y-67329000D03*
%TD*%
%TO.P,UWB_SELECTOR1,1*%
%TO.N,unconnected-(UWB_SELECTOR1-Pad1)*%
X101600000Y-76200000D03*
%TO.P,UWB_SELECTOR1,2*%
%TO.N,Net-(ESP32_UWB1-GND-Pad2)*%
X104140000Y-76200000D03*
%TO.P,UWB_SELECTOR1,3*%
%TO.N,Net-(ESP32_UWB1-IO12)*%
X106680000Y-76200000D03*
%TD*%
%TO.P,R5,1*%
%TO.N,Net-(ESP32_UWB1-IO22)*%
X142240000Y-74949000D03*
%TO.P,R5,2*%
%TO.N,Net-(RGB_LED3-G)*%
X142240000Y-67329000D03*
%TD*%
%TO.P,RGB_LED5,1,R*%
%TO.N,unconnected-(RGB_LED5-R-Pad1)*%
X143510000Y-60979000D03*
D12*
%TO.P,RGB_LED5,2,VCC*%
%TO.N,Net-(ESP32_UWB1-3V3)*%
X146050000Y-60979000D03*
D11*
%TO.P,RGB_LED5,3,G*%
%TO.N,unconnected-(RGB_LED5-G-Pad3)*%
X148590000Y-60979000D03*
%TO.P,RGB_LED5,4,B*%
%TO.N,Net-(RGB_LED5-B)*%
X151130000Y-60979000D03*
%TD*%
D12*
%TO.P,3.7V_BATTERY_CHARGER1,1,+*%
%TO.N,unconnected-(3.7V_BATTERY_CHARGER1-+-Pad1)*%
X178175000Y-77470000D03*
%TO.P,3.7V_BATTERY_CHARGER1,2,-*%
%TO.N,unconnected-(3.7V_BATTERY_CHARGER1---Pad2)*%
X192145000Y-77470000D03*
%TO.P,3.7V_BATTERY_CHARGER1,3,OUT+*%
%TO.N,Net-(3.7V_BATTERY_CHARGER1-OUT+)*%
X178175000Y-100330000D03*
%TO.P,3.7V_BATTERY_CHARGER1,4,B+*%
%TO.N,unconnected-(3.7V_BATTERY_CHARGER1-B+-Pad4)*%
X181075000Y-100330000D03*
%TO.P,3.7V_BATTERY_CHARGER1,5,B-*%
%TO.N,unconnected-(3.7V_BATTERY_CHARGER1-B--Pad5)*%
X188945000Y-100330000D03*
%TO.P,3.7V_BATTERY_CHARGER1,6,OUT-*%
%TO.N,Net-(3.7V_BATTERY_CHARGER1-OUT-)*%
X192145000Y-100330000D03*
%TD*%
D13*
%TO.N,Net-(ESP32_UWB1-3V3)*%
X147860000Y-118219000D02*
X147860000Y-122460000D01*
X147860000Y-122460000D02*
X152170058Y-126770058D01*
X152170058Y-126770058D02*
X179230000Y-126770058D01*
%TO.N,Net-(3.7V_BATTERY_CHARGER1-OUT+)*%
X187960000Y-82550000D02*
X176530000Y-71120000D01*
X178175000Y-100330000D02*
X187960000Y-90545000D01*
X176530000Y-71120000D02*
X111125000Y-71120000D01*
X109220000Y-73025000D02*
X108814942Y-73025000D01*
X111125000Y-71120000D02*
X109220000Y-73025000D01*
X108814942Y-73025000D02*
X106680000Y-70890058D01*
X187960000Y-90545000D02*
X187960000Y-82550000D01*
%TO.N,Net-(3.7V_BATTERY_CHARGER1-OUT-)*%
X115340058Y-81280000D02*
X127019000Y-81280000D01*
X127019000Y-81280000D02*
X129540000Y-78759000D01*
X113030000Y-83590058D02*
X115340058Y-81280000D01*
%TO.N,Net-(5V_DC_DC_CONVERTER1-OUT_+)*%
X115321058Y-78759000D02*
X127000000Y-78759000D01*
X110490000Y-83590058D02*
X115321058Y-78759000D01*
%TO.N,Net-(5V_DC_DC_CONVERTER1-IN_+)*%
X150729000Y-69000000D02*
X152400000Y-67329000D01*
X104140000Y-70890058D02*
X106030058Y-69000000D01*
X106030058Y-69000000D02*
X150729000Y-69000000D01*
%TO.N,Net-(ESP32_UWB1-3V3)*%
X113030000Y-58439000D02*
X107950000Y-58439000D01*
X135890000Y-60979000D02*
X133350000Y-58439000D01*
X118351058Y-106699000D02*
X109220000Y-115830058D01*
X107950000Y-58439000D02*
X105410000Y-60979000D01*
X138430000Y-58439000D02*
X143510000Y-58439000D01*
X128270000Y-58439000D02*
X125730000Y-60979000D01*
X141060000Y-125019000D02*
X147860000Y-118219000D01*
X123171000Y-58420000D02*
X125730000Y-60979000D01*
X135890000Y-60979000D02*
X138430000Y-58439000D01*
X115570000Y-60979000D02*
X113030000Y-58439000D01*
X133350000Y-58439000D02*
X128270000Y-58439000D01*
X143510000Y-58439000D02*
X146050000Y-60979000D01*
X127000000Y-106699000D02*
X118351058Y-106699000D01*
X118129000Y-58420000D02*
X123171000Y-58420000D01*
X115570000Y-60979000D02*
X118129000Y-58420000D01*
%TO.N,Net-(ESP32_UWB1-IO39)*%
X157480000Y-77489000D02*
X154940000Y-74949000D01*
X157480000Y-88919000D02*
X157480000Y-77489000D01*
X175260000Y-106699000D02*
X157480000Y-88919000D01*
%TO.N,Net-(RGB_LED1-R)*%
X104159000Y-67329000D02*
X132080000Y-67329000D01*
X102870000Y-60979000D02*
X102870000Y-66040000D01*
X102870000Y-66040000D02*
X104159000Y-67329000D01*
%TO.N,Net-(RGB_LED1-G)*%
X134620000Y-67329000D02*
X132061000Y-64770000D01*
X134620000Y-67328999D02*
X134620000Y-67329000D01*
X132061000Y-64770000D02*
X111741000Y-64770000D01*
X111741000Y-64770000D02*
X107950000Y-60979000D01*
%TO.N,Net-(ESP32_UWB1-IO5)*%
X140335000Y-76854000D02*
X133985000Y-76854000D01*
X133985000Y-76854000D02*
X132080000Y-74949000D01*
X142240000Y-78759000D02*
X140335000Y-76854000D01*
%TO.N,Net-(RGB_LED2-B)*%
X133850000Y-64770000D02*
X134601000Y-64770000D01*
X132580000Y-63500000D02*
X133850000Y-64770000D01*
X134601000Y-64770000D02*
X137160000Y-67329000D01*
X132580000Y-63500000D02*
X123171000Y-63500000D01*
X123171000Y-63500000D02*
X120650000Y-60979000D01*
%TO.N,Net-(ESP32_UWB1-IO22)*%
X144145000Y-76854000D02*
X150495000Y-76854000D01*
X152400000Y-78759000D02*
X150495000Y-76854000D01*
X142240000Y-74949000D02*
X144145000Y-76854000D01*
D14*
X152400000Y-78759000D02*
X152400000Y-78740000D01*
D13*
%TO.N,Net-(ESP32_UWB1-IO12)*%
X139700000Y-106699000D02*
X135871000Y-102870000D01*
X106680000Y-76200000D02*
X106680000Y-88900000D01*
X135871000Y-102870000D02*
X120650000Y-102870000D01*
X120650000Y-102870000D02*
X106680000Y-88900000D01*
%TO.N,Net-(ESP32_UWB1-GND-Pad2)*%
X129540000Y-106699000D02*
X126981000Y-104140000D01*
X119380000Y-104140000D02*
X104140000Y-88900000D01*
X104140000Y-76200000D02*
X104140000Y-88900000D01*
X126981000Y-104140000D02*
X119380000Y-104140000D01*
%TO.N,Net-(BUTTON2-S2_1)*%
X142240000Y-110894908D02*
X142240000Y-106699000D01*
X138400000Y-114070058D02*
X139064850Y-114070058D01*
X139064850Y-114070058D02*
X142240000Y-110894908D01*
%TO.N,Net-(ESP32_UWB1-IO14)*%
X144780000Y-106699000D02*
X149860000Y-111779000D01*
%TO.N,Net-(ESP32_UWB1-IO36)*%
X172720000Y-106699000D02*
X176540000Y-110519000D01*
X176540000Y-121540058D02*
X176540000Y-110519000D01*
X179230000Y-124230058D02*
X176540000Y-121540058D01*
%TO.N,Net-(ESP32_UWB1-IO2)*%
X115811058Y-111779000D02*
X132080000Y-111779000D01*
X132080000Y-111779000D02*
X137160000Y-106699000D01*
X111760000Y-115830058D02*
X115811058Y-111779000D01*
%TO.N,Net-(RGB_LED4-R)*%
X144780000Y-67329000D02*
X140970000Y-63519000D01*
X134341364Y-63519000D02*
X133350000Y-62527636D01*
X140970000Y-63519000D02*
X134341364Y-63519000D01*
X133350000Y-62527636D02*
X133350000Y-60979000D01*
%TO.N,Net-(RGB_LED5-B)*%
X151130000Y-60979000D02*
X151130000Y-63500000D01*
X149860000Y-64770000D02*
X149860000Y-67329000D01*
X151130000Y-63500000D02*
X149860000Y-64770000D01*
%TO.N,Net-(BUTTON1-S1_2)*%
X153888942Y-111779000D02*
X161260000Y-119150058D01*
X138400000Y-129019000D02*
X138400000Y-119150058D01*
X152400000Y-111779000D02*
X153888942Y-111779000D01*
X160328942Y-118219000D02*
X161260000Y-119150058D01*
X141060000Y-129019000D02*
X138400000Y-129019000D01*
X151860000Y-118219000D02*
X160328942Y-118219000D01*
%TO.N,Net-(BUTTON1-S1_1)*%
X150451000Y-109830000D02*
X157019942Y-109830000D01*
X147320000Y-106699000D02*
X150451000Y-109830000D01*
X157019942Y-109830000D02*
X161260000Y-114070058D01*
%TD*%
M02*
