%TF.GenerationSoftware,KiCad,Pcbnew,9.0.0*%
%TF.CreationDate,2025-03-19T00:26:51-07:00*%
%TF.ProjectId,remote_v3,72656d6f-7465-45f7-9633-2e6b69636164,v0.5*%
%TF.SameCoordinates,Original*%
%TF.FileFunction,Copper,L1,Top*%
%TF.FilePolarity,Positive*%
%FSLAX46Y46*%
G04 Gerber Fmt 4.6, Leading zero omitted, Abs format (unit mm)*
G04 Created by KiCad (PCBNEW 9.0.0) date 2025-03-19 00:26:51*
%MOMM*%
%LPD*%
G01*
G04 APERTURE LIST*
%TA.AperFunction,ComponentPad*%
%ADD10C,1.800000*%
%TD*%
%TA.AperFunction,ComponentPad*%
%ADD11R,1.800000X1.800000*%
%TD*%
%TA.AperFunction,ComponentPad*%
%ADD12C,1.600000*%
%TD*%
%TA.AperFunction,ComponentPad*%
%ADD13C,2.500000*%
%TD*%
%TA.AperFunction,Conductor*%
%ADD14C,0.500000*%
%TD*%
%TA.AperFunction,Conductor*%
%ADD15C,0.300000*%
%TD*%
G04 APERTURE END LIST*
D10*
%TO.P,RGB_LED4,1,R*%
%TO.N,Net-(RGB_LED4-R)*%
X106680000Y-82550000D03*
D11*
%TO.P,RGB_LED4,2,VCC*%
%TO.N,Net-(ESP32_UWB1-3V3)*%
X106680000Y-80010000D03*
D10*
%TO.P,RGB_LED4,3,G*%
%TO.N,Net-(RGB_LED4-G)*%
X106680000Y-77470000D03*
%TO.P,RGB_LED4,4,B*%
%TO.N,unconnected-(RGB_LED4-B-Pad4)*%
X106680000Y-74930000D03*
%TD*%
D11*
%TO.P,THUMBSTICK1,*%
%TO.N,*%
X190440000Y-126670058D03*
X190440000Y-114170058D03*
X180340000Y-126670058D03*
X180340000Y-114170058D03*
D10*
%TO.P,THUMBSTICK1,1,-*%
%TO.N,unconnected-(THUMBSTICK1---Pad1)*%
X187930000Y-112020058D03*
%TO.P,THUMBSTICK1,2,X*%
%TO.N,unconnected-(THUMBSTICK1-X-Pad2)*%
X185390000Y-112020058D03*
%TO.P,THUMBSTICK1,3,+*%
%TO.N,unconnected-(THUMBSTICK1-+-Pad3)*%
X182850000Y-112020058D03*
%TO.P,THUMBSTICK1,4,-*%
%TO.N,Net-(BUTTON1-S1_2)*%
X176690000Y-117880058D03*
%TO.P,THUMBSTICK1,5,Y*%
%TO.N,Net-(ESP32_UWB1-IO36)*%
X176690000Y-120420058D03*
%TO.P,THUMBSTICK1,6,+*%
%TO.N,Net-(ESP32_UWB1-3V3)*%
X176690000Y-122960058D03*
%TO.P,THUMBSTICK1,7,S1_1*%
%TO.N,unconnected-(THUMBSTICK1-S1_1-Pad7)*%
X191340000Y-123570058D03*
%TO.P,THUMBSTICK1,8,S1_2*%
%TO.N,unconnected-(THUMBSTICK1-S1_2-Pad8)*%
X195890000Y-123570058D03*
%TO.P,THUMBSTICK1,9,S2_1*%
%TO.N,unconnected-(THUMBSTICK1-S2_1-Pad9)*%
X191340000Y-117270058D03*
%TO.P,THUMBSTICK1,10,S2_2*%
%TO.N,unconnected-(THUMBSTICK1-S2_2-Pad10)*%
X195890000Y-117270058D03*
%TD*%
%TO.P,ESP32_UWB1,1,3V3*%
%TO.N,Net-(ESP32_UWB1-3V3)*%
X116840000Y-101600000D03*
%TO.P,ESP32_UWB1,2,GND*%
%TO.N,Net-(ESP32_UWB1-GND-Pad2)*%
X119380000Y-101600000D03*
%TO.P,ESP32_UWB1,3,RST*%
%TO.N,unconnected-(ESP32_UWB1-RST-Pad3)*%
X121920000Y-101600000D03*
%TO.P,ESP32_UWB1,4,GND*%
%TO.N,Net-(BUTTON1-S1_2)*%
X124460000Y-101600000D03*
%TO.P,ESP32_UWB1,5,IO2*%
%TO.N,Net-(ESP32_UWB1-IO2)*%
X127000000Y-101600000D03*
%TO.P,ESP32_UWB1,6,IO12*%
%TO.N,Net-(ESP32_UWB1-IO12)*%
X129540000Y-101600000D03*
%TO.P,ESP32_UWB1,7,IO13*%
%TO.N,Net-(BUTTON2-S2_1)*%
X132080000Y-101600000D03*
%TO.P,ESP32_UWB1,8,IO14*%
%TO.N,Net-(ESP32_UWB1-IO14)*%
X134620000Y-101600000D03*
%TO.P,ESP32_UWB1,9,IO15*%
%TO.N,Net-(ESP32_UWB1-IO15)*%
X137160000Y-101600000D03*
%TO.P,ESP32_UWB1,10,IO18*%
%TO.N,unconnected-(ESP32_UWB1-IO18-Pad10)*%
X139700000Y-101600000D03*
%TO.P,ESP32_UWB1,11,IO19*%
%TO.N,unconnected-(ESP32_UWB1-IO19-Pad11)*%
X142240000Y-101600000D03*
%TO.P,ESP32_UWB1,12,IO25*%
%TO.N,Net-(ESP32_UWB1-IO25)*%
X144780000Y-101600000D03*
%TO.P,ESP32_UWB1,13,IO26*%
%TO.N,Net-(ESP32_UWB1-IO26)*%
X147320000Y-101600000D03*
%TO.P,ESP32_UWB1,14,IO27*%
%TO.N,unconnected-(ESP32_UWB1-IO27-Pad14)*%
X149860000Y-101600000D03*
%TO.P,ESP32_UWB1,15,IO32*%
%TO.N,Net-(ESP32_UWB1-IO32)*%
X152400000Y-101600000D03*
%TO.P,ESP32_UWB1,16,IO33*%
%TO.N,Net-(ESP32_UWB1-IO33)*%
X154940000Y-101600000D03*
%TO.P,ESP32_UWB1,17,IO34*%
%TO.N,unconnected-(ESP32_UWB1-IO34-Pad17)*%
X157480000Y-101600000D03*
%TO.P,ESP32_UWB1,18,IO35*%
%TO.N,Net-(BUTTON1-S1_1)*%
X160020000Y-101600000D03*
%TO.P,ESP32_UWB1,19,IO36*%
%TO.N,Net-(ESP32_UWB1-IO36)*%
X162560000Y-101600000D03*
%TO.P,ESP32_UWB1,20,IO39*%
%TO.N,Net-(ESP32_UWB1-IO39)*%
X165100000Y-101600000D03*
%TO.P,ESP32_UWB1,21,5V0*%
%TO.N,Net-(5V_DC_DC_Converter1-OUT)*%
X116840000Y-73660000D03*
%TO.P,ESP32_UWB1,22,GND*%
%TO.N,Net-(3.7V_BATTERY_CHARGER1-OUT-)*%
X119380000Y-73660000D03*
%TO.P,ESP32_UWB1,23,IO3*%
%TO.N,unconnected-(ESP32_UWB1-IO3-Pad23)*%
X121920000Y-73660000D03*
%TO.P,ESP32_UWB1,24,IO1*%
%TO.N,unconnected-(ESP32_UWB1-IO1-Pad24)*%
X124460000Y-73660000D03*
%TO.P,ESP32_UWB1,25,IO0*%
%TO.N,unconnected-(ESP32_UWB1-IO0-Pad25)*%
X127000000Y-73660000D03*
%TO.P,ESP32_UWB1,26,IO4*%
%TO.N,unconnected-(ESP32_UWB1-IO4-Pad26)*%
X129540000Y-73660000D03*
%TO.P,ESP32_UWB1,27,IO5*%
%TO.N,Net-(ESP32_UWB1-IO5)*%
X132080000Y-73660000D03*
%TO.P,ESP32_UWB1,28,IO16*%
%TO.N,Net-(ESP32_UWB1-IO16)*%
X134620000Y-73660000D03*
%TO.P,ESP32_UWB1,29,IO17*%
%TO.N,Net-(ESP32_UWB1-IO17)*%
X137160000Y-73660000D03*
%TO.P,ESP32_UWB1,30,IO21*%
%TO.N,Net-(ESP32_UWB1-IO21)*%
X139700000Y-73660000D03*
%TO.P,ESP32_UWB1,31,IO22*%
%TO.N,Net-(ESP32_UWB1-IO22)*%
X142240000Y-73660000D03*
%TO.P,ESP32_UWB1,32,IO23*%
%TO.N,unconnected-(ESP32_UWB1-IO23-Pad32)*%
X144780000Y-73660000D03*
%TD*%
%TO.P,ON_OFF_SWITCH1,1*%
%TO.N,unconnected-(ON_OFF_SWITCH1-Pad1)*%
X195580000Y-106680000D03*
%TO.P,ON_OFF_SWITCH1,2*%
%TO.N,Net-(5V_DC_DC_Converter1-IN)*%
X195580000Y-104140000D03*
%TO.P,ON_OFF_SWITCH1,3*%
%TO.N,Net-(3.7V_BATTERY_CHARGER1-OUT+)*%
X195580000Y-101600000D03*
%TD*%
%TO.P,BUTTON2,1,S1_1*%
%TO.N,unconnected-(BUTTON2-S1_1-Pad1)*%
X123160000Y-110260058D03*
%TO.P,BUTTON2,2,S1_2*%
%TO.N,unconnected-(BUTTON2-S1_2-Pad2)*%
X123160000Y-115340058D03*
%TO.P,BUTTON2,3,S2_1*%
%TO.N,Net-(BUTTON2-S2_1)*%
X135860000Y-110260058D03*
%TO.P,BUTTON2,4,S2_2*%
%TO.N,Net-(BUTTON1-S1_2)*%
X135860000Y-115340058D03*
%TD*%
%TO.P,RGB_LED1,1,R*%
%TO.N,Net-(RGB_LED1-R)*%
X187960000Y-74930000D03*
D11*
%TO.P,RGB_LED1,2,VCC*%
%TO.N,Net-(ESP32_UWB1-3V3)*%
X187960000Y-77470000D03*
D10*
%TO.P,RGB_LED1,3,G*%
%TO.N,Net-(RGB_LED1-G)*%
X187960000Y-80010000D03*
%TO.P,RGB_LED1,4,B*%
%TO.N,unconnected-(RGB_LED1-B-Pad4)*%
X187960000Y-82550000D03*
%TD*%
D11*
%TO.P,THUMBSTICK2,*%
%TO.N,*%
X114270000Y-126670058D03*
X114270000Y-114170058D03*
X104170000Y-126670058D03*
X104170000Y-114170058D03*
D10*
%TO.P,THUMBSTICK2,1,-*%
%TO.N,Net-(BUTTON1-S1_2)*%
X111760000Y-112020058D03*
%TO.P,THUMBSTICK2,2,X*%
%TO.N,Net-(ESP32_UWB1-IO2)*%
X109220000Y-112020058D03*
%TO.P,THUMBSTICK2,3,+*%
%TO.N,Net-(ESP32_UWB1-3V3)*%
X106680000Y-112020058D03*
%TO.P,THUMBSTICK2,4,-*%
%TO.N,unconnected-(THUMBSTICK2---Pad4)*%
X100520000Y-117880058D03*
%TO.P,THUMBSTICK2,5,Y*%
%TO.N,unconnected-(THUMBSTICK2-Y-Pad5)*%
X100520000Y-120420058D03*
%TO.P,THUMBSTICK2,6,+*%
%TO.N,unconnected-(THUMBSTICK2-+-Pad6)*%
X100520000Y-122960058D03*
%TO.P,THUMBSTICK2,7,S1_1*%
%TO.N,unconnected-(THUMBSTICK2-S1_1-Pad7)*%
X115170000Y-123570058D03*
%TO.P,THUMBSTICK2,8,S1_2*%
%TO.N,unconnected-(THUMBSTICK2-S1_2-Pad8)*%
X119720000Y-123570058D03*
%TO.P,THUMBSTICK2,9,S2_1*%
%TO.N,unconnected-(THUMBSTICK2-S2_1-Pad9)*%
X115170000Y-117270058D03*
%TO.P,THUMBSTICK2,10,S2_2*%
%TO.N,unconnected-(THUMBSTICK2-S2_2-Pad10)*%
X119720000Y-117270058D03*
%TD*%
%TO.P,BUTTON1,1,S1_1*%
%TO.N,Net-(BUTTON1-S1_1)*%
X158720000Y-110260058D03*
%TO.P,BUTTON1,2,S1_2*%
%TO.N,Net-(BUTTON1-S1_2)*%
X158720000Y-115340058D03*
%TO.P,BUTTON1,3,S2_1*%
%TO.N,unconnected-(BUTTON1-S2_1-Pad3)*%
X171420000Y-110260058D03*
%TO.P,BUTTON1,4,S2_2*%
%TO.N,unconnected-(BUTTON1-S2_2-Pad4)*%
X171420000Y-115340058D03*
%TD*%
D12*
%TO.P,MINI_THUMBSTICK1,1,+*%
%TO.N,Net-(ESP32_UWB1-3V3)*%
X145920000Y-134120000D03*
%TO.P,MINI_THUMBSTICK1,2,-*%
%TO.N,Net-(BUTTON1-S1_2)*%
X147920000Y-134120000D03*
%TO.P,MINI_THUMBSTICK1,3,X*%
%TO.N,Net-(ESP32_UWB1-IO15)*%
X149920000Y-134120000D03*
%TO.P,MINI_THUMBSTICK1,4,S+*%
%TO.N,unconnected-(MINI_THUMBSTICK1-S+-Pad4)*%
X151920000Y-134120000D03*
%TO.P,MINI_THUMBSTICK1,5,S-*%
%TO.N,unconnected-(MINI_THUMBSTICK1-S--Pad5)*%
X153920000Y-134120000D03*
%TO.P,MINI_THUMBSTICK1,6,Y*%
%TO.N,Net-(ESP32_UWB1-IO25)*%
X155920000Y-134120000D03*
D13*
%TO.P,MINI_THUMBSTICK1,7*%
%TO.N,N/C*%
X147320000Y-113320000D03*
%TD*%
D10*
%TO.P,RGB_LED2,1,R*%
%TO.N,unconnected-(RGB_LED2-R-Pad1)*%
X106680000Y-106680000D03*
D11*
%TO.P,RGB_LED2,2,VCC*%
%TO.N,Net-(ESP32_UWB1-3V3)*%
X106680000Y-104140000D03*
D10*
%TO.P,RGB_LED2,3,G*%
%TO.N,unconnected-(RGB_LED2-G-Pad3)*%
X106680000Y-101600000D03*
%TO.P,RGB_LED2,4,B*%
%TO.N,Net-(RGB_LED2-B)*%
X106680000Y-99060000D03*
%TD*%
%TO.P,RGB_LED3,1,R*%
%TO.N,Net-(RGB_LED3-R)*%
X99060000Y-82550000D03*
D11*
%TO.P,RGB_LED3,2,VCC*%
%TO.N,Net-(ESP32_UWB1-3V3)*%
X99060000Y-80010000D03*
D10*
%TO.P,RGB_LED3,3,G*%
%TO.N,Net-(RGB_LED3-G)*%
X99060000Y-77470000D03*
%TO.P,RGB_LED3,4,B*%
%TO.N,unconnected-(RGB_LED3-B-Pad4)*%
X99060000Y-74930000D03*
%TD*%
%TO.P,LOCK_SWITCH1,1*%
%TO.N,unconnected-(LOCK_SWITCH1-Pad1)*%
X144780000Y-107969000D03*
%TO.P,LOCK_SWITCH1,2*%
%TO.N,Net-(ESP32_UWB1-IO14)*%
X147320000Y-107969000D03*
%TO.P,LOCK_SWITCH1,3*%
%TO.N,Net-(BUTTON1-S1_2)*%
X149860000Y-107969000D03*
%TD*%
%TO.P,UWB_SELECTOR1,1*%
%TO.N,unconnected-(UWB_SELECTOR1-Pad1)*%
X99060000Y-106680000D03*
%TO.P,UWB_SELECTOR1,2*%
%TO.N,Net-(ESP32_UWB1-GND-Pad2)*%
X99060000Y-104140000D03*
%TO.P,UWB_SELECTOR1,3*%
%TO.N,Net-(ESP32_UWB1-IO12)*%
X99060000Y-101600000D03*
%TD*%
%TO.P,RGB_LED5,1,R*%
%TO.N,unconnected-(RGB_LED5-R-Pad1)*%
X195580000Y-74930000D03*
D11*
%TO.P,RGB_LED5,2,VCC*%
%TO.N,Net-(ESP32_UWB1-3V3)*%
X195580000Y-77470000D03*
D10*
%TO.P,RGB_LED5,3,G*%
%TO.N,unconnected-(RGB_LED5-G-Pad3)*%
X195580000Y-80010000D03*
%TO.P,RGB_LED5,4,B*%
%TO.N,Net-(RGB_LED5-B)*%
X195580000Y-82550000D03*
%TD*%
%TO.P,R8,1*%
%TO.N,Net-(ESP32_UWB1-IO33)*%
X154940000Y-96520000D03*
%TO.P,R8,2*%
%TO.N,Net-(RGB_LED5-B)*%
X154940000Y-88900000D03*
%TD*%
%TO.P,R2,1*%
%TO.N,Net-(ESP32_UWB1-IO16)*%
X134620000Y-77470000D03*
%TO.P,R2,2*%
%TO.N,Net-(RGB_LED3-G)*%
X134620000Y-85090000D03*
%TD*%
D11*
%TO.P,5V_DC_DC_Converter1,1,IN*%
%TO.N,Net-(5V_DC_DC_Converter1-IN)*%
X185860000Y-104140000D03*
D10*
%TO.P,5V_DC_DC_Converter1,2,GND*%
%TO.N,Net-(3.7V_BATTERY_CHARGER1-OUT-)*%
X185860000Y-101600000D03*
%TO.P,5V_DC_DC_Converter1,3,OUT*%
%TO.N,Net-(5V_DC_DC_Converter1-OUT)*%
X185860000Y-99060000D03*
%TD*%
%TO.P,R4,1*%
%TO.N,Net-(ESP32_UWB1-IO21)*%
X139700000Y-77470000D03*
%TO.P,R4,2*%
%TO.N,Net-(RGB_LED4-R)*%
X139700000Y-85090000D03*
%TD*%
%TO.P,R9,1*%
%TO.N,Net-(ESP32_UWB1-IO39)*%
X157480000Y-96520000D03*
%TO.P,R9,2*%
%TO.N,Net-(5V_DC_DC_Converter1-IN)*%
X157480000Y-88900000D03*
%TD*%
%TO.P,R7,1*%
%TO.N,Net-(ESP32_UWB1-IO32)*%
X152400000Y-96520000D03*
%TO.P,R7,2*%
%TO.N,Net-(RGB_LED1-G)*%
X152400000Y-88900000D03*
%TD*%
%TO.P,R1,1*%
%TO.N,Net-(ESP32_UWB1-IO5)*%
X132080000Y-77470000D03*
%TO.P,R1,2*%
%TO.N,Net-(RGB_LED3-R)*%
X132080000Y-85090000D03*
%TD*%
%TO.P,R6,1*%
%TO.N,Net-(ESP32_UWB1-IO26)*%
X149860000Y-96520000D03*
%TO.P,R6,2*%
%TO.N,Net-(RGB_LED1-R)*%
X149860000Y-88900000D03*
%TD*%
%TO.P,R10,1*%
%TO.N,Net-(ESP32_UWB1-IO39)*%
X160020000Y-96520000D03*
%TO.P,R10,2*%
%TO.N,Net-(3.7V_BATTERY_CHARGER1-OUT-)*%
X160020000Y-88900000D03*
%TD*%
D11*
%TO.P,3.7V_BATTERY_CHARGER1,1,+*%
%TO.N,unconnected-(3.7V_BATTERY_CHARGER1-+-Pad1)*%
X167995000Y-72390000D03*
%TO.P,3.7V_BATTERY_CHARGER1,2,-*%
%TO.N,unconnected-(3.7V_BATTERY_CHARGER1---Pad2)*%
X181965000Y-72390000D03*
%TO.P,3.7V_BATTERY_CHARGER1,3,OUT+*%
%TO.N,Net-(3.7V_BATTERY_CHARGER1-OUT+)*%
X167995000Y-95250000D03*
%TO.P,3.7V_BATTERY_CHARGER1,4,B+*%
%TO.N,unconnected-(3.7V_BATTERY_CHARGER1-B+-Pad4)*%
X170895000Y-95250000D03*
%TO.P,3.7V_BATTERY_CHARGER1,5,B-*%
%TO.N,unconnected-(3.7V_BATTERY_CHARGER1-B--Pad5)*%
X178765000Y-95250000D03*
%TO.P,3.7V_BATTERY_CHARGER1,6,OUT-*%
%TO.N,Net-(3.7V_BATTERY_CHARGER1-OUT-)*%
X181965000Y-95250000D03*
%TD*%
D10*
%TO.P,R3,1*%
%TO.N,Net-(ESP32_UWB1-IO17)*%
X137160000Y-77470000D03*
%TO.P,R3,2*%
%TO.N,Net-(RGB_LED4-G)*%
X137160000Y-85090000D03*
%TD*%
%TO.P,R5,1*%
%TO.N,Net-(ESP32_UWB1-IO22)*%
X142240000Y-77470000D03*
%TO.P,R5,2*%
%TO.N,Net-(RGB_LED2-B)*%
X142240000Y-85090000D03*
%TD*%
D14*
%TO.N,Net-(3.7V_BATTERY_CHARGER1-OUT+)*%
X190500000Y-96520000D02*
X185420000Y-96520000D01*
X182880000Y-99060000D02*
X171805000Y-99060000D01*
X171805000Y-99060000D02*
X167995000Y-95250000D01*
X195580000Y-101600000D02*
X190500000Y-96520000D01*
X185420000Y-96520000D02*
X182880000Y-99060000D01*
%TO.N,Net-(3.7V_BATTERY_CHARGER1-OUT-)*%
X175615000Y-88900000D02*
X181965000Y-95250000D01*
X160020000Y-88900000D02*
X175615000Y-88900000D01*
X154940000Y-83820000D02*
X147320000Y-83820000D01*
X144780000Y-81280000D02*
X127000000Y-81280000D01*
X160020000Y-88900000D02*
X154940000Y-83820000D01*
X147320000Y-83820000D02*
X144780000Y-81280000D01*
X127000000Y-81280000D02*
X119380000Y-73660000D01*
%TO.N,Net-(ESP32_UWB1-IO25)*%
X144780000Y-101600000D02*
X142240000Y-104140000D01*
X155920000Y-125440000D02*
X155920000Y-134120000D01*
X142240000Y-111760000D02*
X155920000Y-125440000D01*
X142240000Y-104140000D02*
X142240000Y-111760000D01*
%TO.N,Net-(ESP32_UWB1-3V3)*%
X99060000Y-80010000D02*
X106680000Y-80010000D01*
D15*
X116840000Y-101860058D02*
X116840000Y-101600000D01*
D14*
%TO.N,Net-(ESP32_UWB1-IO39)*%
X165100000Y-101600000D02*
X160020000Y-96520000D01*
X157480000Y-96520000D02*
X160020000Y-96520000D01*
X162560000Y-99060000D02*
X165100000Y-101600000D01*
%TO.N,Net-(ESP32_UWB1-IO5)*%
X132080000Y-73660000D02*
X132080000Y-77470000D01*
%TO.N,Net-(ESP32_UWB1-IO17)*%
X137160000Y-73660000D02*
X137160000Y-77470000D01*
%TO.N,Net-(ESP32_UWB1-IO21)*%
X139700000Y-73660000D02*
X139700000Y-77470000D01*
%TO.N,Net-(ESP32_UWB1-IO22)*%
X142240000Y-73660000D02*
X142240000Y-77470000D01*
%TO.N,Net-(ESP32_UWB1-IO12)*%
X99060000Y-101600000D02*
X99060000Y-96520000D01*
X111760000Y-99060000D02*
X127000000Y-99060000D01*
X99060000Y-96520000D02*
X101600000Y-93980000D01*
X101600000Y-93980000D02*
X106680000Y-93980000D01*
X127000000Y-99060000D02*
X129540000Y-101600000D01*
X106680000Y-93980000D02*
X111760000Y-99060000D01*
%TO.N,Net-(ESP32_UWB1-GND-Pad2)*%
X111760000Y-109220000D02*
X119380000Y-101600000D01*
X99060000Y-104140000D02*
X104140000Y-109220000D01*
X104140000Y-109220000D02*
X111760000Y-109220000D01*
%TO.N,Net-(BUTTON2-S2_1)*%
X132080000Y-101600000D02*
X132080000Y-106480058D01*
X132080000Y-106480058D02*
X135860000Y-110260058D01*
%TO.N,Net-(ESP32_UWB1-IO33)*%
X154940000Y-101600000D02*
X154940000Y-96520000D01*
%TO.N,Net-(ESP32_UWB1-IO26)*%
X147320000Y-101600000D02*
X149860000Y-99060000D01*
X149860000Y-99060000D02*
X149860000Y-96520000D01*
%TO.N,Net-(BUTTON1-S1_2)*%
X111760000Y-112020058D02*
X114039942Y-112020058D01*
X135860000Y-115340058D02*
X132540000Y-112020058D01*
X176690000Y-117880058D02*
X161260000Y-117880058D01*
X161260000Y-117880058D02*
X158720000Y-115340058D01*
X132540000Y-112020058D02*
X111760000Y-112020058D01*
X114039942Y-112020058D02*
X124460000Y-101600000D01*
X147920000Y-134120000D02*
X147920000Y-127400058D01*
X147920000Y-127400058D02*
X135860000Y-115340058D01*
%TO.N,Net-(BUTTON1-S1_1)*%
X160020000Y-108960058D02*
X160020000Y-101600000D01*
X158720000Y-110260058D02*
X160020000Y-108960058D01*
%TO.N,Net-(ESP32_UWB1-IO15)*%
X137160000Y-109220000D02*
X149920000Y-121980000D01*
X137160000Y-101600000D02*
X137160000Y-109220000D01*
X149920000Y-121980000D02*
X149920000Y-134120000D01*
%TO.N,Net-(ESP32_UWB1-IO32)*%
X152400000Y-101600000D02*
X152400000Y-96520000D01*
%TO.N,Net-(ESP32_UWB1-IO16)*%
X134620000Y-73660000D02*
X134620000Y-77470000D01*
%TO.N,Net-(5V_DC_DC_Converter1-OUT)*%
X185420000Y-99060000D02*
X182880000Y-101600000D01*
X137160000Y-93980000D02*
X116840000Y-73660000D01*
X162560000Y-93980000D02*
X137160000Y-93980000D01*
X182880000Y-101600000D02*
X170180000Y-101600000D01*
X170180000Y-101600000D02*
X162560000Y-93980000D01*
%TD*%
M02*
