%TF.GenerationSoftware,KiCad,Pcbnew,9.0.0*%
%TF.CreationDate,2025-03-19T00:35:47-07:00*%
%TF.ProjectId,tag,7461672e-6b69-4636-9164-5f7063625858,v0.3*%
%TF.SameCoordinates,Original*%
%TF.FileFunction,Copper,L2,Bot*%
%TF.FilePolarity,Positive*%
%FSLAX46Y46*%
G04 Gerber Fmt 4.6, Leading zero omitted, Abs format (unit mm)*
G04 Created by KiCad (PCBNEW 9.0.0) date 2025-03-19 00:35:47*
%MOMM*%
%LPD*%
G01*
G04 APERTURE LIST*
%TA.AperFunction,ComponentPad*%
%ADD10C,1.800000*%
%TD*%
%TA.AperFunction,ComponentPad*%
%ADD11R,1.800000X1.800000*%
%TD*%
%TA.AperFunction,Conductor*%
%ADD12C,0.500000*%
%TD*%
G04 APERTURE END LIST*
D10*
%TO.P,ESP32_UWB1,1,3V3*%
%TO.N,Net-(ESP32_UWB1-3V3)*%
X119380000Y-113030000D03*
%TO.P,ESP32_UWB1,2,GND*%
%TO.N,unconnected-(ESP32_UWB1-GND-Pad2)*%
X121920000Y-113030000D03*
%TO.P,ESP32_UWB1,3,RST*%
%TO.N,unconnected-(ESP32_UWB1-RST-Pad3)*%
X124460000Y-113030000D03*
%TO.P,ESP32_UWB1,4,GND*%
%TO.N,unconnected-(ESP32_UWB1-GND-Pad4)*%
X127000000Y-113030000D03*
%TO.P,ESP32_UWB1,5,IO2*%
%TO.N,unconnected-(ESP32_UWB1-IO2-Pad5)*%
X129540000Y-113030000D03*
%TO.P,ESP32_UWB1,6,IO12*%
%TO.N,Net-(ESP32_UWB1-IO12)*%
X132080000Y-113030000D03*
%TO.P,ESP32_UWB1,7,IO13*%
%TO.N,Net-(ESP32_UWB1-IO13)*%
X134620000Y-113030000D03*
%TO.P,ESP32_UWB1,8,IO14*%
%TO.N,Net-(ESP32_UWB1-IO14)*%
X137160000Y-113030000D03*
%TO.P,ESP32_UWB1,9,IO15*%
%TO.N,Net-(ESP32_UWB1-IO15)*%
X139700000Y-113030000D03*
%TO.P,ESP32_UWB1,10,IO18*%
%TO.N,unconnected-(ESP32_UWB1-IO18-Pad10)*%
X142240000Y-113030000D03*
%TO.P,ESP32_UWB1,11,IO19*%
%TO.N,unconnected-(ESP32_UWB1-IO19-Pad11)*%
X144780000Y-113030000D03*
%TO.P,ESP32_UWB1,12,IO25*%
%TO.N,unconnected-(ESP32_UWB1-IO25-Pad12)*%
X147320000Y-113030000D03*
%TO.P,ESP32_UWB1,13,IO26*%
%TO.N,unconnected-(ESP32_UWB1-IO26-Pad13)*%
X149860000Y-113030000D03*
%TO.P,ESP32_UWB1,14,IO27*%
%TO.N,unconnected-(ESP32_UWB1-IO27-Pad14)*%
X152400000Y-113030000D03*
%TO.P,ESP32_UWB1,15,IO32*%
%TO.N,unconnected-(ESP32_UWB1-IO32-Pad15)*%
X154940000Y-113030000D03*
%TO.P,ESP32_UWB1,16,IO33*%
%TO.N,unconnected-(ESP32_UWB1-IO33-Pad16)*%
X157480000Y-113030000D03*
%TO.P,ESP32_UWB1,17,IO34*%
%TO.N,unconnected-(ESP32_UWB1-IO34-Pad17)*%
X160020000Y-113030000D03*
%TO.P,ESP32_UWB1,18,IO35*%
%TO.N,unconnected-(ESP32_UWB1-IO35-Pad18)*%
X162560000Y-113030000D03*
%TO.P,ESP32_UWB1,19,IO36*%
%TO.N,unconnected-(ESP32_UWB1-IO36-Pad19)*%
X165100000Y-113030000D03*
%TO.P,ESP32_UWB1,20,IO39*%
%TO.N,Net-(ESP32_UWB1-IO39)*%
X167640000Y-113030000D03*
%TO.P,ESP32_UWB1,21,5V0*%
%TO.N,Net-(ESP32_UWB1-5V0)*%
X119380000Y-85090000D03*
%TO.P,ESP32_UWB1,22,GND*%
%TO.N,Net-(Battery_Charger1-OUT-)*%
X121920000Y-85090000D03*
%TO.P,ESP32_UWB1,23,IO3*%
%TO.N,unconnected-(ESP32_UWB1-IO3-Pad23)*%
X124460000Y-85090000D03*
%TO.P,ESP32_UWB1,24,IO1*%
%TO.N,unconnected-(ESP32_UWB1-IO1-Pad24)*%
X127000000Y-85090000D03*
%TO.P,ESP32_UWB1,25,IO0*%
%TO.N,unconnected-(ESP32_UWB1-IO0-Pad25)*%
X129540000Y-85090000D03*
%TO.P,ESP32_UWB1,26,IO4*%
%TO.N,unconnected-(ESP32_UWB1-IO4-Pad26)*%
X132080000Y-85090000D03*
%TO.P,ESP32_UWB1,27,IO5*%
%TO.N,unconnected-(ESP32_UWB1-IO5-Pad27)*%
X134620000Y-85090000D03*
%TO.P,ESP32_UWB1,28,IO16*%
%TO.N,unconnected-(ESP32_UWB1-IO16-Pad28)*%
X137160000Y-85090000D03*
%TO.P,ESP32_UWB1,29,IO17*%
%TO.N,unconnected-(ESP32_UWB1-IO17-Pad29)*%
X139700000Y-85090000D03*
%TO.P,ESP32_UWB1,30,IO21*%
%TO.N,unconnected-(ESP32_UWB1-IO21-Pad30)*%
X142240000Y-85090000D03*
%TO.P,ESP32_UWB1,31,IO22*%
%TO.N,unconnected-(ESP32_UWB1-IO22-Pad31)*%
X144780000Y-85090000D03*
%TO.P,ESP32_UWB1,32,IO23*%
%TO.N,unconnected-(ESP32_UWB1-IO23-Pad32)*%
X147320000Y-85090000D03*
%TD*%
D11*
%TO.P,5V_DC_DC_Converter1,1,+*%
%TO.N,Net-(5V_DC_DC_Converter1-+-Pad1)*%
X103710000Y-113030000D03*
D10*
%TO.P,5V_DC_DC_Converter1,2,CTL*%
%TO.N,unconnected-(5V_DC_DC_Converter1-CTL-Pad2)*%
X106250000Y-113030000D03*
%TO.P,5V_DC_DC_Converter1,3,-*%
%TO.N,Net-(Battery_Charger1-OUT-)*%
X108790000Y-113030000D03*
D11*
%TO.P,5V_DC_DC_Converter1,4,+*%
%TO.N,Net-(ESP32_UWB1-5V0)*%
X103710000Y-90170000D03*
D10*
%TO.P,5V_DC_DC_Converter1,5,-*%
%TO.N,Net-(Battery_Charger1-OUT-)*%
X106250000Y-90170000D03*
%TD*%
%TO.P,R1,1*%
%TO.N,Net-(RGB_LED_SQAURE1-R)*%
X132080000Y-124460000D03*
%TO.P,R1,2*%
%TO.N,Net-(ESP32_UWB1-IO12)*%
X132080000Y-116840000D03*
%TD*%
D11*
%TO.P,RGB_LED_SQAURE1,1,VCC*%
%TO.N,Net-(ESP32_UWB1-3V3)*%
X119380000Y-123190000D03*
D10*
%TO.P,RGB_LED_SQAURE1,2,R*%
%TO.N,Net-(RGB_LED_SQAURE1-R)*%
X119380000Y-118110000D03*
%TO.P,RGB_LED_SQAURE1,3,G*%
%TO.N,Net-(RGB_LED_SQAURE1-G)*%
X124460000Y-118110000D03*
%TO.P,RGB_LED_SQAURE1,4,B*%
%TO.N,unconnected-(RGB_LED_SQAURE1-B-Pad4)*%
X124460000Y-123190000D03*
%TD*%
D11*
%TO.P,RGB_LED_SQAURE2,1,VCC*%
%TO.N,Net-(ESP32_UWB1-3V3)*%
X147320000Y-123190000D03*
D10*
%TO.P,RGB_LED_SQAURE2,2,R*%
%TO.N,Net-(RGB_LED_SQAURE2-R)*%
X147320000Y-118110000D03*
%TO.P,RGB_LED_SQAURE2,3,G*%
%TO.N,Net-(RGB_LED_SQAURE2-G)*%
X152400000Y-118110000D03*
%TO.P,RGB_LED_SQAURE2,4,B*%
%TO.N,unconnected-(RGB_LED_SQAURE2-B-Pad4)*%
X152400000Y-123190000D03*
%TD*%
%TO.P,R2,1*%
%TO.N,Net-(RGB_LED_SQAURE1-G)*%
X134620000Y-124460000D03*
%TO.P,R2,2*%
%TO.N,Net-(ESP32_UWB1-IO13)*%
X134620000Y-116840000D03*
%TD*%
%TO.P,R4,1*%
%TO.N,Net-(RGB_LED_SQAURE2-G)*%
X139700000Y-124460000D03*
%TO.P,R4,2*%
%TO.N,Net-(ESP32_UWB1-IO15)*%
X139700000Y-116840000D03*
%TD*%
%TO.P,R3,1*%
%TO.N,Net-(RGB_LED_SQAURE2-R)*%
X137160000Y-124460000D03*
%TO.P,R3,2*%
%TO.N,Net-(ESP32_UWB1-IO14)*%
X137160000Y-116840000D03*
%TD*%
%TO.P,R6,1*%
%TO.N,Net-(Battery_Charger1-OUT-)*%
X162560000Y-124460000D03*
%TO.P,R6,2*%
%TO.N,Net-(ESP32_UWB1-IO39)*%
X162560000Y-116840000D03*
%TD*%
%TO.P,ON_OFF_SWITCH1,1*%
%TO.N,unconnected-(ON_OFF_SWITCH1-Pad1)*%
X105410000Y-125730000D03*
%TO.P,ON_OFF_SWITCH1,2*%
%TO.N,Net-(5V_DC_DC_Converter1-+-Pad1)*%
X107950000Y-125730000D03*
%TO.P,ON_OFF_SWITCH1,3*%
%TO.N,Net-(Battery_Charger1-OUT+)*%
X110490000Y-125730000D03*
%TD*%
%TO.P,R5,1*%
%TO.N,Net-(5V_DC_DC_Converter1-+-Pad1)*%
X160020000Y-124460000D03*
%TO.P,R5,2*%
%TO.N,Net-(ESP32_UWB1-IO39)*%
X160020000Y-116840000D03*
%TD*%
D11*
%TO.P,Battery_Charger1,1,+*%
%TO.N,unconnected-(Battery_Charger1-+-Pad1)*%
X170715000Y-83820000D03*
%TO.P,Battery_Charger1,2,-*%
%TO.N,unconnected-(Battery_Charger1---Pad2)*%
X184685000Y-83820000D03*
%TO.P,Battery_Charger1,3,OUT+*%
%TO.N,Net-(Battery_Charger1-OUT+)*%
X170715000Y-106680000D03*
%TO.P,Battery_Charger1,4,B+*%
%TO.N,unconnected-(Battery_Charger1-B+-Pad4)*%
X173615000Y-106680000D03*
%TO.P,Battery_Charger1,5,B-*%
%TO.N,unconnected-(Battery_Charger1-B--Pad5)*%
X181485000Y-106680000D03*
%TO.P,Battery_Charger1,6,OUT-*%
%TO.N,Net-(Battery_Charger1-OUT-)*%
X184685000Y-106680000D03*
%TD*%
D12*
%TO.N,Net-(5V_DC_DC_Converter1-+-Pad1)*%
X110490000Y-128270000D02*
X107950000Y-125730000D01*
X156210000Y-128270000D02*
X110490000Y-128270000D01*
X103710000Y-120220000D02*
X103710000Y-113030000D01*
X160020000Y-124460000D02*
X156210000Y-128270000D01*
X107950000Y-124460000D02*
X103710000Y-120220000D01*
X107950000Y-125730000D02*
X107950000Y-124460000D01*
%TO.N,Net-(ESP32_UWB1-3V3)*%
X121920000Y-120650000D02*
X119380000Y-123190000D01*
X144780000Y-120650000D02*
X121920000Y-120650000D01*
X147320000Y-123190000D02*
X144780000Y-120650000D01*
%TO.N,Net-(Battery_Charger1-OUT+)*%
X170715000Y-106680000D02*
X166905000Y-110490000D01*
X166905000Y-110490000D02*
X116840000Y-110490000D01*
X110490000Y-116840000D02*
X110490000Y-125730000D01*
X116840000Y-110490000D02*
X110490000Y-116840000D01*
%TO.N,Net-(Battery_Charger1-OUT-)*%
X168910000Y-118110000D02*
X162560000Y-124460000D01*
X182880000Y-118110000D02*
X168910000Y-118110000D01*
X184685000Y-106680000D02*
X184685000Y-116305000D01*
X184685000Y-116305000D02*
X182880000Y-118110000D01*
%TD*%
M02*
