%TF.GenerationSoftware,KiCad,Pcbnew,9.0.0*%
%TF.CreationDate,2025-03-19T00:35:47-07:00*%
%TF.ProjectId,tag,7461672e-6b69-4636-9164-5f7063625858,v0.3*%
%TF.SameCoordinates,Original*%
%TF.FileFunction,Legend,Top*%
%TF.FilePolarity,Positive*%
%FSLAX46Y46*%
G04 Gerber Fmt 4.6, Leading zero omitted, Abs format (unit mm)*
G04 Created by KiCad (PCBNEW 9.0.0) date 2025-03-19 00:35:47*
%MOMM*%
%LPD*%
G01*
G04 APERTURE LIST*
%ADD10C,0.100000*%
%ADD11C,0.375000*%
%ADD12C,0.250000*%
%ADD13C,0.062500*%
%ADD14C,0.125000*%
G04 APERTURE END LIST*
D10*
G36*
X189738447Y-119312145D02*
G01*
X189664563Y-119383464D01*
X189555143Y-119263907D01*
X189603503Y-118719002D01*
X189807201Y-118526050D01*
X189738447Y-119312145D01*
G37*
G36*
X189631591Y-119592170D02*
G01*
X188951863Y-120216210D01*
X188816919Y-120216210D01*
X188829741Y-120077602D01*
X189506783Y-119453196D01*
X189656992Y-119452219D01*
X189631591Y-119592170D01*
G37*
G36*
X188867843Y-119263907D02*
G01*
X188738028Y-119383464D01*
X188671838Y-119312145D01*
X188740593Y-118526050D01*
X188916203Y-118719490D01*
X188867843Y-119263907D01*
G37*
G36*
X188592948Y-120215844D02*
G01*
X188679532Y-120304138D01*
X188783824Y-120215722D01*
X188839877Y-119574218D01*
X188730335Y-119454783D01*
X188654009Y-119528545D01*
X188592948Y-120215844D01*
G37*
G36*
X191110115Y-119312145D02*
G01*
X191036231Y-119383464D01*
X190926810Y-119263663D01*
X190970041Y-118754905D01*
X191176305Y-118563907D01*
X191110115Y-119312145D01*
G37*
G36*
X191143210Y-118528004D02*
G01*
X190939511Y-118715582D01*
X190320966Y-118715582D01*
X190147920Y-118528004D01*
X191143210Y-118528004D01*
G37*
G36*
X190239511Y-119263663D02*
G01*
X190109696Y-119383464D01*
X190043506Y-119312145D01*
X190109696Y-118563785D01*
X190282864Y-118754661D01*
X190239511Y-119263663D01*
G37*
G36*
X191026095Y-120270921D02*
G01*
X190855492Y-120083220D01*
X190898845Y-119574218D01*
X191028660Y-119454783D01*
X191092285Y-119528422D01*
X191026095Y-120270921D01*
G37*
G36*
X190987871Y-120310000D02*
G01*
X189992582Y-120310000D01*
X190198845Y-120122421D01*
X190817390Y-120122421D01*
X190987871Y-120310000D01*
G37*
G36*
X190168314Y-120083342D02*
G01*
X189959487Y-120274340D01*
X190025676Y-119528422D01*
X190102002Y-119454783D01*
X190211545Y-119574340D01*
X190168314Y-120083342D01*
G37*
G36*
X191328712Y-120310000D02*
G01*
X191346542Y-120122421D01*
X191537418Y-120122421D01*
X191519588Y-120310000D01*
X191328712Y-120310000D01*
G37*
G36*
X193007271Y-118528004D02*
G01*
X192803572Y-118715582D01*
X192185027Y-118715582D01*
X192011981Y-118528004D01*
X193007271Y-118528004D01*
G37*
G36*
X192851933Y-120310000D02*
G01*
X191856643Y-120310000D01*
X192062784Y-120122421D01*
X192681329Y-120122421D01*
X192851933Y-120310000D01*
G37*
G36*
X192956346Y-119528422D02*
G01*
X192890157Y-120270921D01*
X192719553Y-120083220D01*
X192762906Y-119574218D01*
X192892721Y-119454783D01*
X192956346Y-119528422D01*
G37*
G36*
X192790872Y-119263663D02*
G01*
X192834103Y-118754905D01*
X193040366Y-118563785D01*
X192974176Y-119312145D01*
X192900293Y-119383464D01*
X192790872Y-119263663D01*
G37*
G36*
X192773042Y-119325212D02*
G01*
X192862191Y-119419002D01*
X192755212Y-119512791D01*
X192090872Y-119512791D01*
X192006852Y-119419002D01*
X192108702Y-119325212D01*
X192773042Y-119325212D01*
G37*
D11*
G36*
X167958892Y-117467006D02*
G01*
X167487564Y-117865610D01*
X166755568Y-117865610D01*
X166450021Y-117467006D01*
X167958892Y-117467006D01*
G37*
G36*
X166417781Y-119130849D02*
G01*
X166291568Y-119738647D01*
X165821523Y-120131207D01*
X166049951Y-119032847D01*
X166226172Y-118885568D01*
X166417781Y-119130849D01*
G37*
G36*
X166144107Y-118579654D02*
G01*
X166360261Y-117539912D01*
X166665626Y-117938700D01*
X166553152Y-118479820D01*
X166257863Y-118733161D01*
X166144107Y-118579654D01*
G37*
G36*
X167704269Y-119033763D02*
G01*
X167474192Y-120140000D01*
X167167911Y-119744692D01*
X167295040Y-119132681D01*
X167589230Y-118885568D01*
X167704269Y-119033763D01*
G37*
G36*
X167430595Y-118481102D02*
G01*
X167542519Y-117942363D01*
X168014030Y-117543576D01*
X167798424Y-118580204D01*
X167620921Y-118733161D01*
X167430595Y-118481102D01*
G37*
G36*
X167382601Y-118604200D02*
G01*
X167535375Y-118803503D01*
X167299803Y-119002805D01*
X166470720Y-119002805D01*
X166317946Y-118803503D01*
X166553519Y-118604200D01*
X167382601Y-118604200D01*
G37*
G36*
X169708098Y-119671786D02*
G01*
X169472526Y-119870355D01*
X169319569Y-119671786D01*
X169431493Y-119133597D01*
X169725867Y-118885568D01*
X169840722Y-119034495D01*
X169708098Y-119671786D01*
G37*
G36*
X168419412Y-120140000D02*
G01*
X168266638Y-119940697D01*
X168502210Y-119741395D01*
X169234206Y-119741395D01*
X169386980Y-119940697D01*
X169151408Y-120140000D01*
X168419412Y-120140000D01*
G37*
G36*
X169935244Y-118579837D02*
G01*
X169757557Y-118733161D01*
X169567414Y-118480186D01*
X169694909Y-117866709D01*
X170167153Y-117464075D01*
X169935244Y-118579837D01*
G37*
G36*
X168511919Y-117467189D02*
G01*
X168816917Y-117868724D01*
X168689605Y-118480736D01*
X168394499Y-118733161D01*
X168280560Y-118580204D01*
X168511919Y-117467189D01*
G37*
G36*
X168054696Y-119666474D02*
G01*
X168207653Y-119865043D01*
X168443042Y-119666474D01*
X168554967Y-119128101D01*
X168363908Y-118880073D01*
X168187320Y-119028817D01*
X168054696Y-119666474D01*
G37*
G36*
X171153222Y-119961946D02*
G01*
X170917650Y-120160516D01*
X170764693Y-119961946D01*
X170936884Y-119133597D01*
X171231258Y-118885568D01*
X171346113Y-119034495D01*
X171153222Y-119961946D01*
G37*
G36*
X171440635Y-118579288D02*
G01*
X171262948Y-118733161D01*
X171072988Y-118479087D01*
X171136919Y-118171341D01*
X171372857Y-117971123D01*
X171525448Y-118171341D01*
X171440635Y-118579288D01*
G37*
G36*
X172351783Y-117664476D02*
G01*
X172111814Y-117865610D01*
X170674018Y-117865610D01*
X170521793Y-117664476D01*
X170756999Y-117467006D01*
X172194796Y-117467006D01*
X172351783Y-117664476D01*
G37*
G36*
X174208334Y-118580387D02*
G01*
X174030830Y-118733161D01*
X173840504Y-118481102D01*
X173952428Y-117942730D01*
X174187817Y-117744160D01*
X174340958Y-117942730D01*
X174208334Y-118580387D01*
G37*
G36*
X174133595Y-117664476D02*
G01*
X173897474Y-117865610D01*
X173165478Y-117865610D01*
X173013253Y-117664476D01*
X173248459Y-117467006D01*
X173980455Y-117467006D01*
X174133595Y-117664476D01*
G37*
G36*
X173981371Y-119671786D02*
G01*
X173745799Y-119870355D01*
X173592842Y-119671786D01*
X173704766Y-119133597D01*
X173999140Y-118885568D01*
X174113995Y-119034495D01*
X173981371Y-119671786D01*
G37*
G36*
X172962878Y-118481102D02*
G01*
X172667772Y-118733161D01*
X172553833Y-118580387D01*
X172686456Y-117942730D01*
X172921846Y-117744160D01*
X173074803Y-117942730D01*
X172962878Y-118481102D01*
G37*
G36*
X172692685Y-120140000D02*
G01*
X172539911Y-119940697D01*
X172775483Y-119741395D01*
X173507479Y-119741395D01*
X173660253Y-119940697D01*
X173424680Y-120140000D01*
X172692685Y-120140000D01*
G37*
G36*
X172327969Y-119666474D02*
G01*
X172480926Y-119865043D01*
X172716315Y-119666474D01*
X172828239Y-119128101D01*
X172637180Y-118880073D01*
X172460593Y-119028817D01*
X172327969Y-119666474D01*
G37*
G36*
X174829321Y-120140000D02*
G01*
X174676547Y-119940697D01*
X174912119Y-119741395D01*
X175715007Y-119741395D01*
X176020738Y-120140000D01*
X174829321Y-120140000D01*
G37*
G36*
X176576512Y-117467006D02*
G01*
X176105002Y-117865610D01*
X175302114Y-117865610D01*
X175149890Y-117664476D01*
X175385096Y-117467006D01*
X176576512Y-117467006D01*
G37*
G36*
X175099881Y-118479087D02*
G01*
X174804775Y-118731146D01*
X174690835Y-118578372D01*
X174823459Y-117940715D01*
X175058848Y-117742145D01*
X175211805Y-117940715D01*
X175099881Y-118479087D01*
G37*
G36*
X174463506Y-119671786D02*
G01*
X174616463Y-119870355D01*
X174851853Y-119671786D01*
X174963777Y-119133414D01*
X174772718Y-118885385D01*
X174596130Y-119034129D01*
X174463506Y-119671786D01*
G37*
G36*
X178642074Y-117467006D02*
G01*
X178170746Y-117865610D01*
X177438751Y-117865610D01*
X177133203Y-117467006D01*
X178642074Y-117467006D01*
G37*
G36*
X177100963Y-119130849D02*
G01*
X176974750Y-119738647D01*
X176504705Y-120131207D01*
X176733133Y-119032847D01*
X176909354Y-118885568D01*
X177100963Y-119130849D01*
G37*
G36*
X176827289Y-118579654D02*
G01*
X177043444Y-117539912D01*
X177348808Y-117938700D01*
X177236334Y-118479820D01*
X176941045Y-118733161D01*
X176827289Y-118579654D01*
G37*
G36*
X178387451Y-119033763D02*
G01*
X178157374Y-120140000D01*
X177851094Y-119744692D01*
X177978222Y-119132681D01*
X178272413Y-118885568D01*
X178387451Y-119033763D01*
G37*
G36*
X178113777Y-118481102D02*
G01*
X178225701Y-117942363D01*
X178697212Y-117543576D01*
X178481607Y-118580204D01*
X178304103Y-118733161D01*
X178113777Y-118481102D01*
G37*
G36*
X178065783Y-118604200D02*
G01*
X178218557Y-118803503D01*
X177982985Y-119002805D01*
X177153902Y-119002805D01*
X177001129Y-118803503D01*
X177236701Y-118604200D01*
X178065783Y-118604200D01*
G37*
G36*
X180778711Y-117467006D02*
G01*
X180307383Y-117865610D01*
X179575387Y-117865610D01*
X179269839Y-117467006D01*
X180778711Y-117467006D01*
G37*
G36*
X179237599Y-119130849D02*
G01*
X179111387Y-119738647D01*
X178641341Y-120131207D01*
X178869769Y-119032847D01*
X179045991Y-118885568D01*
X179237599Y-119130849D01*
G37*
G36*
X178963925Y-118579654D02*
G01*
X179180080Y-117539912D01*
X179485445Y-117938700D01*
X179372971Y-118479820D01*
X179077681Y-118733161D01*
X178963925Y-118579654D01*
G37*
G36*
X180524087Y-119033763D02*
G01*
X180294011Y-120140000D01*
X179987730Y-119744692D01*
X180114858Y-119132681D01*
X180409049Y-118885568D01*
X180524087Y-119033763D01*
G37*
G36*
X180250413Y-118481102D02*
G01*
X180362338Y-117942363D01*
X180833848Y-117543576D01*
X180618243Y-118580204D01*
X180440739Y-118733161D01*
X180250413Y-118481102D01*
G37*
G36*
X179697570Y-118157969D02*
G01*
X179936805Y-117959399D01*
X180089579Y-118157969D01*
X179926914Y-118941072D01*
X179690609Y-119143489D01*
X179534904Y-118941072D01*
X179697570Y-118157969D01*
G37*
G36*
X182827053Y-119961946D02*
G01*
X182591481Y-120160516D01*
X182438524Y-119961946D01*
X182610715Y-119133597D01*
X182905089Y-118885568D01*
X183019944Y-119034495D01*
X182827053Y-119961946D01*
G37*
G36*
X183114466Y-118579288D02*
G01*
X182936779Y-118733161D01*
X182746819Y-118479087D01*
X182810750Y-118171341D01*
X183046689Y-117971123D01*
X183199279Y-118171341D01*
X183114466Y-118579288D01*
G37*
G36*
X184025614Y-117664476D02*
G01*
X183785645Y-117865610D01*
X182347849Y-117865610D01*
X182195624Y-117664476D01*
X182430830Y-117467006D01*
X183868627Y-117467006D01*
X184025614Y-117664476D01*
G37*
G36*
X186042632Y-117467006D02*
G01*
X185571305Y-117865610D01*
X184839309Y-117865610D01*
X184533761Y-117467006D01*
X186042632Y-117467006D01*
G37*
G36*
X184501521Y-119130849D02*
G01*
X184375309Y-119738647D01*
X183905263Y-120131207D01*
X184133691Y-119032847D01*
X184309913Y-118885568D01*
X184501521Y-119130849D01*
G37*
G36*
X184227847Y-118579654D02*
G01*
X184444002Y-117539912D01*
X184749366Y-117938700D01*
X184636893Y-118479820D01*
X184341603Y-118733161D01*
X184227847Y-118579654D01*
G37*
G36*
X185788009Y-119033763D02*
G01*
X185557932Y-120140000D01*
X185251652Y-119744692D01*
X185378780Y-119132681D01*
X185672971Y-118885568D01*
X185788009Y-119033763D01*
G37*
G36*
X185514335Y-118481102D02*
G01*
X185626259Y-117942363D01*
X186097770Y-117543576D01*
X185882165Y-118580204D01*
X185704661Y-118733161D01*
X185514335Y-118481102D01*
G37*
G36*
X185466341Y-118604200D02*
G01*
X185619115Y-118803503D01*
X185383543Y-119002805D01*
X184554461Y-119002805D01*
X184401687Y-118803503D01*
X184637259Y-118604200D01*
X185466341Y-118604200D01*
G37*
G36*
X188250343Y-117467006D02*
G01*
X187778833Y-117865610D01*
X186975945Y-117865610D01*
X186823721Y-117664476D01*
X187058927Y-117467006D01*
X188250343Y-117467006D01*
G37*
G36*
X187767475Y-118746716D02*
G01*
X187532269Y-118944187D01*
X187091533Y-118944187D01*
X186938210Y-118746716D01*
X187174515Y-118545582D01*
X187615251Y-118545582D01*
X187767475Y-118746716D01*
G37*
G36*
X186784703Y-118426331D02*
G01*
X186490329Y-118674542D01*
X186375657Y-118525615D01*
X186497107Y-117941448D01*
X186732679Y-117742878D01*
X186885453Y-117941448D01*
X186784703Y-118426331D01*
G37*
G36*
X186525867Y-119671603D02*
G01*
X186290295Y-119870355D01*
X186137521Y-119671603D01*
X186282051Y-118976060D01*
X186458639Y-118826950D01*
X186649698Y-119075345D01*
X186525867Y-119671603D01*
G37*
G36*
X187792754Y-119667390D02*
G01*
X187557365Y-119865043D01*
X187404225Y-119667390D01*
X187527690Y-119074063D01*
X187821697Y-118826950D01*
X187936736Y-118975327D01*
X187792754Y-119667390D01*
G37*
G36*
X187235148Y-120140000D02*
G01*
X187470720Y-119940697D01*
X187317946Y-119741395D01*
X186585951Y-119741395D01*
X186350378Y-119940697D01*
X186503152Y-120140000D01*
X187235148Y-120140000D01*
G37*
D10*
G36*
X169329760Y-121878279D02*
G01*
X169625049Y-121873028D01*
X169840017Y-121876802D01*
X169919118Y-121884141D01*
X169983476Y-121899528D01*
X170015716Y-121913450D01*
X170052108Y-121937020D01*
X170063340Y-121972232D01*
X170052108Y-122003698D01*
X170043682Y-122026046D01*
X170032446Y-122056577D01*
X170021333Y-122087229D01*
X170003137Y-122113729D01*
X169980446Y-122127130D01*
X169938657Y-122134612D01*
X169702108Y-122137421D01*
X169301672Y-122143039D01*
X169135321Y-122149331D01*
X169100171Y-122145847D01*
X169064999Y-122117261D01*
X169055353Y-122089916D01*
X169044973Y-122061950D01*
X169034236Y-122044927D01*
X169039721Y-122017254D01*
X169039721Y-121955704D01*
X169038134Y-121902704D01*
X169045512Y-121892429D01*
X169060970Y-121888660D01*
X169081853Y-121882187D01*
X169097363Y-121883408D01*
X169133062Y-121887684D01*
X169329760Y-121878279D01*
G37*
G36*
X170584191Y-121878279D02*
G01*
X170879481Y-121873028D01*
X171094449Y-121876802D01*
X171173549Y-121884141D01*
X171237907Y-121899528D01*
X171270147Y-121913450D01*
X171306539Y-121937020D01*
X171317771Y-121972232D01*
X171306539Y-122003698D01*
X171298113Y-122026046D01*
X171286878Y-122056577D01*
X171275765Y-122087229D01*
X171257568Y-122113729D01*
X171234877Y-122127130D01*
X171193088Y-122134612D01*
X170956539Y-122137421D01*
X170556103Y-122143039D01*
X170389753Y-122149331D01*
X170354603Y-122145847D01*
X170319430Y-122117261D01*
X170309784Y-122089916D01*
X170299404Y-122061950D01*
X170288667Y-122044927D01*
X170294153Y-122017254D01*
X170294153Y-121955704D01*
X170292565Y-121902704D01*
X170299943Y-121892429D01*
X170315402Y-121888660D01*
X170336284Y-121882187D01*
X170351794Y-121883408D01*
X170387494Y-121887684D01*
X170584191Y-121878279D01*
G37*
G36*
X173906016Y-120934525D02*
G01*
X173928953Y-120951156D01*
X173956574Y-120991800D01*
X173993088Y-121057501D01*
X174018490Y-121095237D01*
X174063308Y-121169364D01*
X174088709Y-121237752D01*
X174074644Y-121279372D01*
X174021665Y-121330076D01*
X173962347Y-121377429D01*
X173912610Y-121436200D01*
X173881836Y-121465631D01*
X173865105Y-121483827D01*
X173858022Y-121503367D01*
X173845444Y-121514480D01*
X173832987Y-121528524D01*
X173831522Y-121542445D01*
X173837139Y-121549528D01*
X173828835Y-121548063D01*
X173814672Y-121543440D01*
X173809173Y-121564794D01*
X173803556Y-121581646D01*
X173800747Y-121589951D01*
X173802090Y-121592759D01*
X173797938Y-121592759D01*
X173781086Y-121605338D01*
X173769973Y-121626343D01*
X173761668Y-121643196D01*
X173732237Y-121671161D01*
X173711354Y-121685083D01*
X173697310Y-121693510D01*
X173688884Y-121710240D01*
X173693055Y-121715566D01*
X173714163Y-121701814D01*
X173719658Y-121696196D01*
X173733741Y-121683840D01*
X173736511Y-121687892D01*
X173725276Y-121707431D01*
X173704393Y-121718545D01*
X173682045Y-121738206D01*
X173663971Y-121780094D01*
X173652736Y-121803907D01*
X173647118Y-121821981D01*
X173647118Y-121830408D01*
X173641501Y-121833217D01*
X173647118Y-121866800D01*
X173654227Y-121879359D01*
X173661162Y-121880722D01*
X173666780Y-121880722D01*
X173658354Y-121903070D01*
X173654079Y-121931036D01*
X173652736Y-121945080D01*
X173642966Y-121970237D01*
X173638814Y-121992585D01*
X173633319Y-122006507D01*
X173606696Y-122079291D01*
X173591431Y-122147679D01*
X173587157Y-122158914D01*
X173573235Y-122207885D01*
X173560656Y-122267969D01*
X173560656Y-122286043D01*
X173562000Y-122316817D01*
X173560656Y-122353210D01*
X173556504Y-122393754D01*
X173552352Y-122439794D01*
X173544048Y-122453838D01*
X173535622Y-122439794D01*
X173532813Y-122423063D01*
X173527195Y-122439794D01*
X173525852Y-122467882D01*
X173532813Y-122470568D01*
X173545269Y-122462142D01*
X173548078Y-122470568D01*
X173548078Y-122483147D01*
X173548078Y-122502686D01*
X173546285Y-122517155D01*
X173555039Y-122530652D01*
X173557848Y-122537613D01*
X173550765Y-122541887D01*
X173549421Y-122565579D01*
X173545603Y-122589612D01*
X173536843Y-122599162D01*
X173530359Y-122608274D01*
X173527317Y-122632745D01*
X173532813Y-122674633D01*
X173538308Y-122669016D01*
X173543804Y-122655094D01*
X173546612Y-122667672D01*
X173543804Y-122694295D01*
X173535377Y-122711025D01*
X173531103Y-122736182D01*
X173538186Y-122761339D01*
X173540995Y-122741800D01*
X173542114Y-122726124D01*
X173549299Y-122722138D01*
X173557725Y-122733374D01*
X173549421Y-122786496D01*
X173552230Y-122819958D01*
X173557848Y-122840963D01*
X173555039Y-122859159D01*
X173545147Y-122877233D01*
X173549421Y-122895429D01*
X173557848Y-122912281D01*
X173560534Y-122923394D01*
X173566030Y-122931821D01*
X173577265Y-122954169D01*
X173582882Y-122963817D01*
X173574456Y-122970778D01*
X173563343Y-122986043D01*
X173555039Y-123004117D01*
X173548200Y-123017916D01*
X173539896Y-123030373D01*
X173519135Y-123056751D01*
X173501531Y-123072063D01*
X173483231Y-123062369D01*
X173469310Y-123053942D01*
X173442931Y-123056751D01*
X173422586Y-123060062D01*
X173413866Y-123067864D01*
X173410671Y-123081124D01*
X173416675Y-123084473D01*
X173425040Y-123086732D01*
X173422171Y-123092899D01*
X173408249Y-123098394D01*
X173391640Y-123088747D01*
X173377841Y-123079221D01*
X173369536Y-123073970D01*
X173358545Y-123068841D01*
X173342302Y-123062366D01*
X173336319Y-123040875D01*
X173336106Y-123040143D01*
X173356225Y-123040143D01*
X173367338Y-123034525D01*
X173374151Y-123023901D01*
X173371490Y-123017672D01*
X173359034Y-123026099D01*
X173356225Y-123040143D01*
X173336106Y-123040143D01*
X173332883Y-123029043D01*
X173322275Y-123021214D01*
X173300600Y-122989829D01*
X173317024Y-122989829D01*
X173319711Y-122999476D01*
X173328137Y-122999476D01*
X173325328Y-122989706D01*
X173317024Y-122989829D01*
X173300600Y-122989829D01*
X173295287Y-122982135D01*
X173276846Y-122931821D01*
X173269763Y-122913625D01*
X173267068Y-122904904D01*
X173273915Y-122885659D01*
X173285976Y-122869429D01*
X173293577Y-122867463D01*
X173297729Y-122863311D01*
X173304812Y-122846580D01*
X173311771Y-122833588D01*
X173311772Y-122819958D01*
X173359034Y-122819958D01*
X173360377Y-122836810D01*
X173364652Y-122839619D01*
X173370147Y-122822766D01*
X173361843Y-122803227D01*
X173359034Y-122819958D01*
X173311772Y-122819958D01*
X173311773Y-122808112D01*
X173328137Y-122808112D01*
X173333755Y-122819225D01*
X173336564Y-122808112D01*
X173330946Y-122796877D01*
X173328137Y-122808112D01*
X173311773Y-122808112D01*
X173311773Y-122806036D01*
X173308659Y-122761024D01*
X173319854Y-122761024D01*
X173325328Y-122774528D01*
X173330946Y-122771720D01*
X173325328Y-122757798D01*
X173319854Y-122761024D01*
X173308659Y-122761024D01*
X173304812Y-122705408D01*
X173304781Y-122704675D01*
X173319833Y-122704675D01*
X173325328Y-122729832D01*
X173330946Y-122721406D01*
X173325328Y-122699057D01*
X173319833Y-122704675D01*
X173304781Y-122704675D01*
X173303956Y-122685136D01*
X173319833Y-122685136D01*
X173325328Y-122690631D01*
X173330946Y-122687822D01*
X173325328Y-122682327D01*
X173319833Y-122685136D01*
X173303956Y-122685136D01*
X173301301Y-122622243D01*
X173314215Y-122622243D01*
X173319711Y-122629204D01*
X173325328Y-122626395D01*
X173319711Y-122619434D01*
X173314215Y-122622243D01*
X173301301Y-122622243D01*
X173299346Y-122575925D01*
X173318829Y-122575925D01*
X173325206Y-122582431D01*
X173333511Y-122585240D01*
X173340471Y-122592201D01*
X173341937Y-122669016D01*
X173345234Y-122744609D01*
X173355248Y-122775261D01*
X173361843Y-122794801D01*
X173361843Y-122777337D01*
X173398235Y-122777337D01*
X173403730Y-122813607D01*
X173407882Y-122777337D01*
X173402387Y-122740945D01*
X173398235Y-122777337D01*
X173361843Y-122777337D01*
X173361843Y-122771109D01*
X173359400Y-122733374D01*
X173361843Y-122722138D01*
X173367338Y-122713712D01*
X173360866Y-122699790D01*
X173359400Y-122688555D01*
X173359400Y-122638241D01*
X173354393Y-122587927D01*
X173349386Y-122562770D01*
X173341110Y-122559242D01*
X173328015Y-122565579D01*
X173318829Y-122575925D01*
X173299346Y-122575925D01*
X173290768Y-122372749D01*
X173290516Y-122366399D01*
X173308598Y-122366399D01*
X173308598Y-122372016D01*
X173314215Y-122388747D01*
X173319833Y-122374825D01*
X173316088Y-122363590D01*
X173524142Y-122363590D01*
X173529760Y-122369207D01*
X173535377Y-122366399D01*
X173529760Y-122360781D01*
X173524142Y-122363590D01*
X173316088Y-122363590D01*
X173314215Y-122357972D01*
X173308598Y-122366399D01*
X173290516Y-122366399D01*
X173286616Y-122267969D01*
X173274892Y-122266503D01*
X173272083Y-122258199D01*
X173271107Y-122220464D01*
X173271107Y-122144993D01*
X173271107Y-122017742D01*
X173268176Y-121989776D01*
X173265367Y-121978541D01*
X173272427Y-121938927D01*
X173265367Y-121911496D01*
X173203207Y-121830408D01*
X173132377Y-121706088D01*
X173047502Y-121528524D01*
X173017705Y-121441939D01*
X173003687Y-121406211D01*
X172996455Y-121399930D01*
X172975206Y-121369155D01*
X172959697Y-121327267D01*
X172949683Y-121299302D01*
X172939791Y-121247644D01*
X172943922Y-121218986D01*
X172953957Y-121204291D01*
X172979481Y-121191713D01*
X172999264Y-121195865D01*
X173021857Y-121201482D01*
X173067164Y-121216870D01*
X173098305Y-121237752D01*
X173118210Y-121248988D01*
X173149136Y-121269459D01*
X173193193Y-121314689D01*
X173228888Y-121364699D01*
X173237157Y-121391503D01*
X173256574Y-121447435D01*
X173273305Y-121468440D01*
X173281731Y-121483827D01*
X173283197Y-121492131D01*
X173297118Y-121520097D01*
X173312384Y-121548063D01*
X173318001Y-121559298D01*
X173323497Y-121573220D01*
X173329114Y-121570411D01*
X173329114Y-121566259D01*
X173331923Y-121567602D01*
X173327771Y-121581646D01*
X173327771Y-121592759D01*
X173334732Y-121587264D01*
X173337305Y-121580538D01*
X173348654Y-121595568D01*
X173357080Y-121617916D01*
X173366728Y-121636113D01*
X173379306Y-121645882D01*
X173416919Y-121615230D01*
X173436227Y-121589340D01*
X173759348Y-121589340D01*
X173764966Y-121594836D01*
X173773392Y-121589340D01*
X173767774Y-121583722D01*
X173759348Y-121589340D01*
X173436227Y-121589340D01*
X173442511Y-121580914D01*
X173535377Y-121580914D01*
X173538186Y-121583722D01*
X173555039Y-121550139D01*
X173563343Y-121522173D01*
X173535377Y-121580914D01*
X173442511Y-121580914D01*
X173454533Y-121564794D01*
X173489460Y-121517288D01*
X173503655Y-121497016D01*
X173568961Y-121497016D01*
X173571769Y-121502634D01*
X173571769Y-121491399D01*
X173568961Y-121497016D01*
X173503655Y-121497016D01*
X173528538Y-121461479D01*
X173564686Y-121398586D01*
X173578701Y-121369099D01*
X173582882Y-121343998D01*
X173588500Y-121310537D01*
X173613779Y-121265840D01*
X173662872Y-121186095D01*
X173717705Y-121098046D01*
X173787461Y-120990462D01*
X173844222Y-120941486D01*
X173879541Y-120931216D01*
X173906016Y-120934525D01*
G37*
G36*
X173282464Y-122766835D02*
G01*
X173279655Y-122769644D01*
X173276846Y-122755722D01*
X173282464Y-122755722D01*
X173282464Y-122766835D01*
G37*
G36*
X173276724Y-122663398D02*
G01*
X173279724Y-122729638D01*
X173271107Y-122738869D01*
X173268298Y-122683060D01*
X173271107Y-122635554D01*
X173276724Y-122663398D01*
G37*
G36*
X173268298Y-122455792D02*
G01*
X173271107Y-122538346D01*
X173271107Y-122604047D01*
X173262680Y-122469836D01*
X173265489Y-122430635D01*
X173268298Y-122455792D01*
G37*
G36*
X173574578Y-122299354D02*
G01*
X173568961Y-122304849D01*
X173563343Y-122299354D01*
X173568961Y-122293736D01*
X173574578Y-122299354D01*
G37*
G36*
X173672520Y-121989043D02*
G01*
X173667024Y-121997348D01*
X173664215Y-121989043D01*
X173669711Y-121980617D01*
X173672520Y-121989043D01*
G37*
G36*
X173678137Y-121942882D02*
G01*
X173667024Y-121947034D01*
X173667024Y-121935921D01*
X173686564Y-121930303D01*
X173678137Y-121942882D01*
G37*
G36*
X173675328Y-121847871D02*
G01*
X173669833Y-121860450D01*
X173664264Y-121865653D01*
X173655789Y-121852023D01*
X173654324Y-121840910D01*
X173661407Y-121846406D01*
X173669833Y-121846406D01*
X173669833Y-121840910D01*
X173675328Y-121847871D01*
G37*
G36*
X173710377Y-121854832D02*
G01*
X173700608Y-121860450D01*
X173704760Y-121849337D01*
X173714529Y-121843719D01*
X173710377Y-121854832D01*
G37*
G36*
X173700241Y-121791329D02*
G01*
X173683388Y-121812212D01*
X173662384Y-121830408D01*
X173669344Y-121823447D01*
X173676337Y-121814927D01*
X173675084Y-121802442D01*
X173677771Y-121796824D01*
X173686197Y-121796824D01*
X173694563Y-121788284D01*
X173700241Y-121791329D01*
G37*
G36*
X174755492Y-121522173D02*
G01*
X174794088Y-121515226D01*
X174845130Y-121522173D01*
X174895688Y-121536095D01*
X174971525Y-121557100D01*
X175044676Y-121589218D01*
X175066648Y-121622522D01*
X175068817Y-121674355D01*
X175041867Y-121757013D01*
X175015139Y-121821179D01*
X174981295Y-121930303D01*
X174943437Y-122097976D01*
X174936354Y-122135833D01*
X174923898Y-122190422D01*
X174907757Y-122352414D01*
X174915872Y-122464393D01*
X174940628Y-122539811D01*
X174957475Y-122557590D01*
X174992652Y-122570586D01*
X175032784Y-122574081D01*
X175069955Y-122567777D01*
X175099547Y-122547409D01*
X175142984Y-122492306D01*
X175181540Y-122426059D01*
X175213204Y-122355286D01*
X175227370Y-122313398D01*
X175248938Y-122250269D01*
X175263884Y-122181995D01*
X175272310Y-122159647D01*
X175275801Y-122165067D01*
X175269501Y-122198848D01*
X175261075Y-122242445D01*
X175253992Y-122270533D01*
X175248252Y-122291660D01*
X175235674Y-122338066D01*
X175218821Y-122395708D01*
X175196186Y-122463383D01*
X175137000Y-122567166D01*
X175117216Y-122600994D01*
X175105981Y-122631891D01*
X175105981Y-122645935D01*
X175097432Y-122659979D01*
X175091815Y-122671214D01*
X175091815Y-122676953D01*
X175078396Y-122693181D01*
X175066536Y-122730321D01*
X175050904Y-122752913D01*
X175041653Y-122761020D01*
X175038326Y-122775383D01*
X175033172Y-122791712D01*
X175013046Y-122814829D01*
X174971037Y-122848412D01*
X174944414Y-122868073D01*
X174912296Y-122887857D01*
X174892635Y-122896284D01*
X174836703Y-122904710D01*
X174780312Y-122901312D01*
X174744257Y-122882362D01*
X174730335Y-122873935D01*
X174710674Y-122861235D01*
X174699439Y-122843039D01*
X174688326Y-122829117D01*
X174663985Y-122814723D01*
X174668664Y-122806646D01*
X174663046Y-122789916D01*
X174651933Y-122773063D01*
X174643507Y-122761950D01*
X174621037Y-122728367D01*
X174609924Y-122693318D01*
X174597223Y-122662421D01*
X174580370Y-122617602D01*
X174570723Y-122532117D01*
X174564503Y-122416792D01*
X174573531Y-122333304D01*
X174584645Y-122271755D01*
X174598688Y-122198848D01*
X174595880Y-122154030D01*
X174570235Y-122113992D01*
X174538269Y-122091659D01*
X174497938Y-122084054D01*
X174431472Y-122070228D01*
X174375471Y-122028162D01*
X174327090Y-121949842D01*
X174310867Y-121902844D01*
X174311653Y-121872419D01*
X174324282Y-121852023D01*
X174359436Y-121837310D01*
X174402684Y-121854832D01*
X174439500Y-121867410D01*
X174478277Y-121854832D01*
X174536793Y-121799231D01*
X174612732Y-121687159D01*
X174686860Y-121569678D01*
X174716883Y-121542725D01*
X174755492Y-121522173D01*
G37*
G36*
X174730702Y-121125523D02*
G01*
X174764285Y-121122714D01*
X174820217Y-121125523D01*
X174960849Y-121141854D01*
X175002300Y-121156175D01*
X175016222Y-121178646D01*
X175035761Y-121214916D01*
X175056766Y-121248499D01*
X175069467Y-121282083D01*
X175075441Y-121303309D01*
X175070810Y-121318475D01*
X175057003Y-121330667D01*
X175025991Y-121344975D01*
X174993329Y-121360791D01*
X174965785Y-121382711D01*
X174937820Y-121407868D01*
X174921521Y-121402727D01*
X174898619Y-121382711D01*
X174803486Y-121307240D01*
X174748169Y-121266051D01*
X174741815Y-121251308D01*
X174739006Y-121242882D01*
X174725084Y-121224685D01*
X174722275Y-121192568D01*
X174719467Y-121173028D01*
X174715192Y-121149214D01*
X174730702Y-121125523D01*
G37*
G36*
X175749805Y-123161653D02*
G01*
X175740035Y-123165928D01*
X175730266Y-123161653D01*
X175740035Y-123157501D01*
X175749805Y-123161653D01*
G37*
G36*
X175714756Y-123151884D02*
G01*
X175719030Y-123163119D01*
X175706330Y-123151884D01*
X175702178Y-123140771D01*
X175714756Y-123151884D01*
G37*
G36*
X175688256Y-123132344D02*
G01*
X175689599Y-123140771D01*
X175681173Y-123132344D01*
X175679829Y-123123918D01*
X175688256Y-123132344D01*
G37*
G36*
X175744187Y-123118300D02*
G01*
X175755423Y-123129535D01*
X175746996Y-123135153D01*
X175731609Y-123126727D01*
X175728800Y-123115491D01*
X175744187Y-123118300D01*
G37*
G36*
X176363091Y-120864459D02*
G01*
X176404742Y-120893126D01*
X176435395Y-120918283D01*
X176435395Y-120996441D01*
X176431827Y-121068091D01*
X176424282Y-121099877D01*
X176396619Y-121139302D01*
X176359679Y-121167044D01*
X176340140Y-121174005D01*
X176345758Y-121150191D01*
X176356871Y-121083147D01*
X176354062Y-121013293D01*
X176331714Y-120995097D01*
X176314605Y-120992287D01*
X176295199Y-120997906D01*
X176256120Y-121030024D01*
X176221921Y-121081102D01*
X176177719Y-121176814D01*
X176140575Y-121280791D01*
X176116047Y-121373918D01*
X176099317Y-121447923D01*
X176088081Y-121505321D01*
X176087097Y-121543188D01*
X176093699Y-121559787D01*
X176114040Y-121567786D01*
X176188832Y-121572365D01*
X176266700Y-121577440D01*
X176309243Y-121589218D01*
X176343619Y-121610253D01*
X176376532Y-121642096D01*
X176404480Y-121685888D01*
X176390454Y-121695219D01*
X176376166Y-121682641D01*
X176371643Y-121675677D01*
X176363221Y-121679832D01*
X176358947Y-121699616D01*
X176360025Y-121709913D01*
X176350398Y-121725383D01*
X176341149Y-121740457D01*
X176343193Y-121749685D01*
X176341850Y-121769713D01*
X176334645Y-121788398D01*
X176347589Y-121806960D01*
X176354210Y-121815145D01*
X176339041Y-121818318D01*
X176293123Y-121818318D01*
X176180039Y-121825401D01*
X176089913Y-121840788D01*
X176069763Y-121860205D01*
X176064146Y-122072208D01*
X176052910Y-122538101D01*
X176020744Y-122777796D01*
X175991239Y-122884193D01*
X175979882Y-122924616D01*
X175964494Y-122966381D01*
X175960220Y-122984455D01*
X175957411Y-122990073D01*
X175951916Y-122998499D01*
X175942905Y-123014676D01*
X175940192Y-123009368D01*
X175934575Y-123014863D01*
X175937384Y-123020481D01*
X175942550Y-123015313D01*
X175936407Y-123026343D01*
X175901358Y-123071039D01*
X175866187Y-123098883D01*
X175849938Y-123103048D01*
X175842495Y-123098883D01*
X175837140Y-123094167D01*
X175822712Y-123096074D01*
X175797555Y-123098883D01*
X175797555Y-123104501D01*
X175803172Y-123110118D01*
X175817094Y-123121231D01*
X175792059Y-123118422D01*
X175738241Y-123104756D01*
X175732344Y-123100104D01*
X175761040Y-123100104D01*
X175772153Y-123107187D01*
X175779114Y-123104378D01*
X175780580Y-123101570D01*
X175769344Y-123093143D01*
X175761040Y-123100104D01*
X175732344Y-123100104D01*
X175716710Y-123087770D01*
X175711093Y-123098883D01*
X175711093Y-123112927D01*
X175691553Y-123093265D01*
X175644292Y-123037456D01*
X175627561Y-123012177D01*
X175610831Y-122978715D01*
X175605213Y-122970289D01*
X175594100Y-122964672D01*
X175582865Y-122942323D01*
X175580056Y-122931210D01*
X175574439Y-122931210D01*
X175574439Y-122925593D01*
X175582945Y-122922216D01*
X175596787Y-122936706D01*
X175614983Y-122961863D01*
X175630248Y-122984211D01*
X175651131Y-123014986D01*
X175660901Y-123034525D01*
X175681783Y-123065300D01*
X175705475Y-123082152D01*
X175708222Y-123070987D01*
X175701284Y-123062613D01*
X175763849Y-123062613D01*
X175770197Y-123069757D01*
X175803050Y-123073726D01*
X175816972Y-123068108D01*
X175881208Y-123068108D01*
X175886703Y-123070917D01*
X175900747Y-123059804D01*
X175881208Y-123068108D01*
X175816972Y-123068108D01*
X175800485Y-123062613D01*
X175825398Y-123062613D01*
X175836633Y-123056995D01*
X175846403Y-123054187D01*
X175860325Y-123061147D01*
X175873026Y-123056995D01*
X175873026Y-123052721D01*
X175861790Y-123051378D01*
X175847746Y-123051378D01*
X175867408Y-123029030D01*
X175905916Y-122967272D01*
X175937384Y-122855739D01*
X175958388Y-122753646D01*
X175959732Y-122727145D01*
X175954236Y-122727145D01*
X175930423Y-122816538D01*
X175898183Y-122917166D01*
X175889756Y-122954902D01*
X175871560Y-122987142D01*
X175853364Y-123016451D01*
X175836633Y-123042951D01*
X175825398Y-123062613D01*
X175800485Y-123062613D01*
X175800119Y-123062491D01*
X175774962Y-123061147D01*
X175763849Y-123062613D01*
X175701284Y-123062613D01*
X175680440Y-123037456D01*
X175660901Y-123013642D01*
X175660090Y-123012299D01*
X175683249Y-123012299D01*
X175688866Y-123020603D01*
X175691553Y-123014986D01*
X175685060Y-123004495D01*
X175683249Y-123012299D01*
X175660090Y-123012299D01*
X175649910Y-122995446D01*
X175647736Y-122992515D01*
X175662977Y-122992515D01*
X175668594Y-122998133D01*
X175674212Y-122995324D01*
X175668594Y-122989706D01*
X175662977Y-122992515D01*
X175647736Y-122992515D01*
X175618752Y-122953436D01*
X175637820Y-122953436D01*
X175640628Y-122964549D01*
X175649055Y-122975785D01*
X175646246Y-122964549D01*
X175637820Y-122953436D01*
X175618752Y-122953436D01*
X175606974Y-122937555D01*
X175600363Y-122925471D01*
X175629393Y-122925471D01*
X175635011Y-122932431D01*
X175640628Y-122929623D01*
X175635011Y-122922662D01*
X175629393Y-122925471D01*
X175600363Y-122925471D01*
X175589672Y-122905931D01*
X175609854Y-122905931D01*
X175612663Y-122917044D01*
X175619501Y-122918510D01*
X175618158Y-122905931D01*
X175609854Y-122905931D01*
X175589672Y-122905931D01*
X175577379Y-122883461D01*
X175587384Y-122883461D01*
X175594344Y-122889078D01*
X175601428Y-122886270D01*
X175594344Y-122880774D01*
X175587384Y-122883461D01*
X175577379Y-122883461D01*
X175574439Y-122878087D01*
X175564669Y-122857083D01*
X175557708Y-122851465D01*
X175553434Y-122851465D01*
X175554899Y-122844504D01*
X175546473Y-122808234D01*
X175538046Y-122769033D01*
X175543664Y-122774651D01*
X175557708Y-122781612D01*
X175563326Y-122783077D01*
X175557708Y-122788572D01*
X175554899Y-122796999D01*
X175563326Y-122802616D01*
X175567478Y-122804082D01*
X175568943Y-122810921D01*
X175568943Y-122816538D01*
X175575904Y-122818004D01*
X175582865Y-122830582D01*
X175591291Y-122844504D01*
X175590282Y-122841695D01*
X175627439Y-122841695D01*
X175628783Y-122847313D01*
X175635866Y-122855617D01*
X175638675Y-122866852D01*
X175644292Y-122861235D01*
X175644292Y-122855739D01*
X175639680Y-122839344D01*
X175627439Y-122841695D01*
X175590282Y-122841695D01*
X175577247Y-122805425D01*
X175568943Y-122760607D01*
X175577247Y-122774651D01*
X175588361Y-122785764D01*
X175592513Y-122787229D01*
X175591169Y-122791381D01*
X175593883Y-122807266D01*
X175599596Y-122810921D01*
X175603748Y-122812386D01*
X175610831Y-122822156D01*
X175620554Y-122836533D01*
X175630248Y-122833391D01*
X175633057Y-122824965D01*
X175627439Y-122813729D01*
X175621822Y-122806769D01*
X175630248Y-122806769D01*
X175638675Y-122822156D01*
X175649788Y-122841695D01*
X175670668Y-122870452D01*
X175666518Y-122875279D01*
X175663709Y-122880896D01*
X175677631Y-122880896D01*
X175680440Y-122872470D01*
X175691553Y-122880896D01*
X175704132Y-122892009D01*
X175726358Y-122904588D01*
X175759819Y-122919975D01*
X175778200Y-122917783D01*
X175790594Y-122905931D01*
X175807202Y-122882240D01*
X175816972Y-122854274D01*
X175829550Y-122809577D01*
X175836511Y-122773185D01*
X175839320Y-122760607D01*
X175842129Y-122743876D01*
X175842129Y-122729954D01*
X175853242Y-122721528D01*
X175858859Y-122727145D01*
X175858859Y-122743876D01*
X175853242Y-122778925D01*
X175844816Y-122808234D01*
X175833702Y-122838886D01*
X175818193Y-122877965D01*
X175816850Y-122914357D01*
X175821815Y-122919839D01*
X175821002Y-122935362D01*
X175808423Y-122967480D01*
X175802928Y-122984333D01*
X175815377Y-122975456D01*
X175828333Y-122949994D01*
X175841175Y-122949994D01*
X175842129Y-122970289D01*
X175860345Y-122932877D01*
X175892443Y-122824965D01*
X175918374Y-122707696D01*
X175920361Y-122693440D01*
X175965349Y-122693440D01*
X175970967Y-122699057D01*
X175976585Y-122696249D01*
X175970967Y-122690631D01*
X175965349Y-122693440D01*
X175920361Y-122693440D01*
X175922301Y-122679518D01*
X176018594Y-122679518D01*
X176021403Y-122687822D01*
X176021403Y-122676709D01*
X176018594Y-122679518D01*
X175922301Y-122679518D01*
X175924455Y-122664058D01*
X176012206Y-122664058D01*
X176015785Y-122668283D01*
X176024212Y-122645935D01*
X176025501Y-122624909D01*
X176018594Y-122640317D01*
X176012206Y-122664058D01*
X175924455Y-122664058D01*
X175931644Y-122612473D01*
X175932987Y-122588782D01*
X175932987Y-122573394D01*
X175931644Y-122567777D01*
X175926782Y-122582478D01*
X175906487Y-122718719D01*
X175889634Y-122794190D01*
X175868629Y-122869661D01*
X175850433Y-122922784D01*
X175841175Y-122949994D01*
X175828333Y-122949994D01*
X175839320Y-122928401D01*
X175860465Y-122869596D01*
X175879620Y-122780268D01*
X175895130Y-122626395D01*
X175899648Y-122612351D01*
X175904167Y-122596964D01*
X175911738Y-122580233D01*
X175911738Y-122564968D01*
X175910273Y-122545307D01*
X175922363Y-122550924D01*
X175934086Y-122560694D01*
X175934086Y-122545307D01*
X175939704Y-122522958D01*
X175949492Y-122509781D01*
X175939704Y-122506106D01*
X175931277Y-122499145D01*
X175939704Y-122492184D01*
X175948130Y-122483879D01*
X175939704Y-122472644D01*
X175934513Y-122463424D01*
X175931277Y-122418056D01*
X175931277Y-122360659D01*
X175931277Y-122324389D01*
X175925660Y-122290806D01*
X175917478Y-122268457D01*
X175914424Y-122252678D01*
X175908016Y-122249040D01*
X175926148Y-122249040D01*
X175931766Y-122257344D01*
X175933109Y-122249040D01*
X175927492Y-122240614D01*
X175926148Y-122249040D01*
X175908016Y-122249040D01*
X175907586Y-122248796D01*
X175903434Y-122241835D01*
X175909051Y-122229256D01*
X175909051Y-122223639D01*
X175922973Y-122225104D01*
X175934208Y-122226570D01*
X175928591Y-122220952D01*
X175922973Y-122209717D01*
X175925782Y-122206908D01*
X175933179Y-122216036D01*
X175937017Y-122209717D01*
X175937017Y-122198482D01*
X175925782Y-122178942D01*
X175917478Y-122167829D01*
X175928469Y-122165020D01*
X175941047Y-122156594D01*
X175939704Y-122141207D01*
X175931277Y-122033496D01*
X175934981Y-121944297D01*
X175939704Y-121932868D01*
X175942513Y-121930059D01*
X175936895Y-121916137D01*
X175931522Y-121904902D01*
X175926270Y-121913328D01*
X175923278Y-121918816D01*
X175911127Y-121913328D01*
X175908563Y-121904902D01*
X175903556Y-121885362D01*
X175906365Y-121885362D01*
X175916152Y-121890203D01*
X175922973Y-121882554D01*
X175925782Y-121874127D01*
X175928591Y-121885362D01*
X175934086Y-121896475D01*
X175939582Y-121874127D01*
X175936773Y-121857397D01*
X175853242Y-121857397D01*
X175778504Y-121853272D01*
X175758476Y-121846161D01*
X175739190Y-121819371D01*
X175725014Y-121762264D01*
X175712979Y-121726958D01*
X175699735Y-121737107D01*
X175690465Y-121753200D01*
X175688622Y-121748342D01*
X175691309Y-121734542D01*
X175697302Y-121715027D01*
X175692774Y-121696807D01*
X175687157Y-121666032D01*
X175705353Y-121638066D01*
X175727823Y-121622679D01*
X175744554Y-121614253D01*
X175751515Y-121610101D01*
X175752980Y-121622679D01*
X175775206Y-121630983D01*
X175813811Y-121626319D01*
X175839442Y-121614131D01*
X175844720Y-121608111D01*
X175906243Y-121594591D01*
X175931277Y-121586287D01*
X175931761Y-121578105D01*
X175954236Y-121578105D01*
X175957045Y-121586409D01*
X175957045Y-121572487D01*
X175954236Y-121578105D01*
X175931761Y-121578105D01*
X175934086Y-121538782D01*
X175936895Y-121516434D01*
X175948008Y-121508007D01*
X175948008Y-121510816D01*
X175950817Y-121522051D01*
X175956312Y-121547208D01*
X175964617Y-121538782D01*
X175964617Y-121496894D01*
X175959121Y-121471737D01*
X175956312Y-121480163D01*
X175950695Y-121477355D01*
X175952038Y-121463311D01*
X175943612Y-121471737D01*
X175936651Y-121478820D01*
X175939460Y-121466120D01*
X175947886Y-121440963D01*
X175953199Y-121421426D01*
X175956312Y-121348761D01*
X175961808Y-121298447D01*
X175958999Y-121292829D01*
X175950695Y-121319452D01*
X175939582Y-121373918D01*
X175934086Y-121427041D01*
X175932621Y-121442428D01*
X175920164Y-121435345D01*
X175917356Y-121420080D01*
X175922973Y-121386496D01*
X175929934Y-121354378D01*
X175934086Y-121334717D01*
X175939704Y-121326413D01*
X175942391Y-121327756D01*
X175942391Y-121323604D01*
X175945199Y-121311025D01*
X175945199Y-121302599D01*
X175945199Y-121281594D01*
X175953504Y-121264863D01*
X175967425Y-121262055D01*
X175967425Y-121267672D01*
X175964617Y-121284403D01*
X175972921Y-121273290D01*
X175980561Y-121260537D01*
X175975608Y-121253628D01*
X175969346Y-121239725D01*
X175978416Y-121211741D01*
X175983912Y-121186584D01*
X175990075Y-121159025D01*
X176011755Y-121125034D01*
X176017373Y-121122348D01*
X176023179Y-121125735D01*
X176034104Y-121111113D01*
X176042408Y-121094382D01*
X176036913Y-121091573D01*
X176064756Y-121049563D01*
X176075991Y-121030024D01*
X176130213Y-120965788D01*
X176206906Y-120893126D01*
X176234627Y-120873464D01*
X176265402Y-120859542D01*
X176317639Y-120853386D01*
X176363091Y-120864459D01*
G37*
G36*
X175688866Y-123059804D02*
G01*
X175688866Y-123065300D01*
X175677631Y-123051378D01*
X175680440Y-123045760D01*
X175688866Y-123059804D01*
G37*
G36*
X175943001Y-123014863D02*
G01*
X175942550Y-123015313D01*
X175942905Y-123014676D01*
X175943001Y-123014863D01*
G37*
G36*
X175563326Y-122892009D02*
G01*
X175566134Y-122906053D01*
X175571752Y-122922784D01*
X175563326Y-122908862D01*
X175552213Y-122886392D01*
X175554418Y-122879241D01*
X175563326Y-122892009D01*
G37*
G36*
X175548183Y-122841573D02*
G01*
X175542565Y-122844382D01*
X175536947Y-122838886D01*
X175542565Y-122836078D01*
X175548183Y-122841573D01*
G37*
G36*
X175619501Y-122788572D02*
G01*
X175618158Y-122796877D01*
X175612663Y-122788572D01*
X175614006Y-122780146D01*
X175619501Y-122788572D01*
G37*
G36*
X175520217Y-122774528D02*
G01*
X175514599Y-122780146D01*
X175508982Y-122771720D01*
X175514599Y-122766102D01*
X175520217Y-122774528D01*
G37*
G36*
X175598619Y-122752302D02*
G01*
X175603470Y-122767100D01*
X175590192Y-122771842D01*
X175584575Y-122763538D01*
X175588727Y-122748150D01*
X175598619Y-122752302D01*
G37*
G36*
X175510203Y-122674023D02*
G01*
X175510203Y-122690753D01*
X175518629Y-122687944D01*
X175521438Y-122679640D01*
X175524247Y-122685136D01*
X175529864Y-122707484D01*
X175531347Y-122721999D01*
X175524247Y-122741067D01*
X175521438Y-122732763D01*
X175521438Y-122717376D01*
X175510203Y-122714567D01*
X175501776Y-122715910D01*
X175507394Y-122710293D01*
X175511546Y-122703332D01*
X175504585Y-122696371D01*
X175499288Y-122692979D01*
X175504585Y-122665596D01*
X175507394Y-122657170D01*
X175513012Y-122657170D01*
X175510203Y-122674023D01*
G37*
G36*
X175578957Y-122721406D02*
G01*
X175587384Y-122729832D01*
X175585181Y-122734765D01*
X175576148Y-122727023D01*
X175573462Y-122720062D01*
X175578957Y-122721406D01*
G37*
G36*
X175867408Y-122701866D02*
G01*
X175863134Y-122712979D01*
X175856173Y-122701866D01*
X175860325Y-122690631D01*
X175867408Y-122701866D01*
G37*
G36*
X175542565Y-122676709D02*
G01*
X175536947Y-122685013D01*
X175535604Y-122676709D01*
X175541100Y-122668283D01*
X175542565Y-122676709D01*
G37*
G36*
X175867286Y-122654361D02*
G01*
X175858859Y-122668283D01*
X175861668Y-122643126D01*
X175870095Y-122626395D01*
X175867286Y-122654361D01*
G37*
G36*
X175508982Y-122617969D02*
G01*
X175508982Y-122640317D01*
X175503364Y-122623586D01*
X175504707Y-122606856D01*
X175508982Y-122617969D01*
G37*
G36*
X175874369Y-122605390D02*
G01*
X175867408Y-122606856D01*
X175871560Y-122597086D01*
X175878643Y-122595621D01*
X175874369Y-122605390D01*
G37*
G36*
X175531452Y-122587316D02*
G01*
X175525834Y-122590003D01*
X175520217Y-122584508D01*
X175525834Y-122581699D01*
X175531452Y-122587316D01*
G37*
G36*
X175865943Y-122581699D02*
G01*
X175858982Y-122587194D01*
X175856173Y-122581699D01*
X175863134Y-122576081D01*
X175865943Y-122581699D01*
G37*
G36*
X175873026Y-122545307D02*
G01*
X175870217Y-122539689D01*
X175873026Y-122534071D01*
X175873026Y-122545307D01*
G37*
G36*
X175920488Y-122485080D02*
G01*
X175920164Y-122500488D01*
X175912064Y-122508175D01*
X175906120Y-122503175D01*
X175913081Y-122492062D01*
X175911738Y-122486444D01*
X175911738Y-122480826D01*
X175920488Y-122485080D01*
G37*
G36*
X175881330Y-122433565D02*
G01*
X175888291Y-122464340D01*
X175884261Y-122478262D01*
X175878643Y-122472644D01*
X175870217Y-122425139D01*
X175873026Y-122413904D01*
X175881330Y-122433565D01*
G37*
G36*
X175905754Y-122352233D02*
G01*
X175914669Y-122357850D01*
X175914669Y-122360659D01*
X175914669Y-122385816D01*
X175922411Y-122432444D01*
X175917478Y-122455792D01*
X175907708Y-122420865D01*
X175903556Y-122369085D01*
X175903556Y-122349424D01*
X175905754Y-122352233D01*
G37*
G36*
X175878643Y-122377634D02*
G01*
X175873026Y-122383129D01*
X175871560Y-122377634D01*
X175877178Y-122372016D01*
X175878643Y-122377634D01*
G37*
G36*
X175878643Y-122353820D02*
G01*
X175873026Y-122360781D01*
X175867408Y-122353820D01*
X175873026Y-122346859D01*
X175878643Y-122353820D01*
G37*
G36*
X175878643Y-122335624D02*
G01*
X175873026Y-122341242D01*
X175867408Y-122335624D01*
X175873026Y-122330006D01*
X175878643Y-122335624D01*
G37*
G36*
X175923462Y-122112020D02*
G01*
X175920653Y-122106402D01*
X175923462Y-122100785D01*
X175923462Y-122112020D01*
G37*
G36*
X175926148Y-122043632D02*
G01*
X175920531Y-122044975D01*
X175915035Y-122039357D01*
X175920531Y-122038014D01*
X175926148Y-122043632D01*
G37*
G36*
X175881452Y-122005774D02*
G01*
X175875834Y-122017009D01*
X175873026Y-122005774D01*
X175878643Y-121994539D01*
X175881452Y-122005774D01*
G37*
G36*
X175912227Y-121991852D02*
G01*
X175920653Y-122008583D01*
X175912227Y-122003087D01*
X175903800Y-121986235D01*
X175912227Y-121991852D01*
G37*
G36*
X175895130Y-121966451D02*
G01*
X175895130Y-121972069D01*
X175889512Y-121963764D01*
X175895130Y-121966451D01*
G37*
G36*
X175881452Y-121927494D02*
G01*
X175884261Y-121938729D01*
X175888291Y-121952651D01*
X175881452Y-121947034D01*
X175873026Y-121927494D01*
X175874963Y-121920545D01*
X175881452Y-121927494D01*
G37*
G36*
X177360464Y-121685572D02*
G01*
X177427604Y-121721743D01*
X177445583Y-121738450D01*
X177462321Y-121759500D01*
X177479777Y-121763607D01*
X177491012Y-121772034D01*
X177498095Y-121781926D01*
X177513849Y-121780460D01*
X177527893Y-121772034D01*
X177551663Y-121762166D01*
X177581993Y-121777651D01*
X177598458Y-121800259D01*
X177610203Y-121833461D01*
X177621507Y-121907158D01*
X177615820Y-121970237D01*
X177600838Y-122067969D01*
X177601899Y-122146092D01*
X177607604Y-122231944D01*
X177624735Y-122316451D01*
X177650681Y-122391414D01*
X177670653Y-122422452D01*
X177699229Y-122433565D01*
X177735789Y-122419837D01*
X177773160Y-122368893D01*
X177811703Y-122252093D01*
X177817199Y-122235362D01*
X177822694Y-122240980D01*
X177822694Y-122260519D01*
X177825503Y-122285676D01*
X177833349Y-122278991D01*
X177841989Y-122243789D01*
X177849085Y-122229092D01*
X177858842Y-122240980D01*
X177861651Y-122249284D01*
X177863358Y-122295315D01*
X177841989Y-122388991D01*
X177836372Y-122428192D01*
X177822694Y-122475697D01*
X177809016Y-122532972D01*
X177796438Y-122586095D01*
X177783982Y-122616748D01*
X177765175Y-122657170D01*
X177744921Y-122707044D01*
X177752596Y-122715910D01*
X177757594Y-122722599D01*
X177746490Y-122735450D01*
X177746490Y-122753646D01*
X177749912Y-122759909D01*
X177763221Y-122760607D01*
X177772991Y-122760729D01*
X177751986Y-122783077D01*
X177723000Y-122804596D01*
X177696665Y-122810921D01*
X177664953Y-122805633D01*
X177602509Y-122783443D01*
X177566761Y-122760604D01*
X177531923Y-122721161D01*
X177504598Y-122673737D01*
X177490592Y-122634822D01*
X177752230Y-122634822D01*
X177756188Y-122638608D01*
X177767495Y-122625174D01*
X177780196Y-122597208D01*
X177791309Y-122564968D01*
X177799735Y-122537002D01*
X177785813Y-122551046D01*
X177753865Y-122611081D01*
X177752230Y-122634822D01*
X177490592Y-122634822D01*
X177486372Y-122623098D01*
X177466017Y-122580608D01*
X177431051Y-122567777D01*
X177404550Y-122601238D01*
X177379393Y-122631891D01*
X177375241Y-122637508D01*
X177353015Y-122676587D01*
X177305950Y-122724253D01*
X177249945Y-122754623D01*
X177210988Y-122772819D01*
X177159453Y-122795167D01*
X177113535Y-122813119D01*
X177057848Y-122818736D01*
X176979812Y-122810310D01*
X176924170Y-122792892D01*
X176858668Y-122758775D01*
X176800042Y-122716449D01*
X176768298Y-122681960D01*
X176726804Y-122607835D01*
X176704184Y-122550802D01*
X176681836Y-122467027D01*
X176672086Y-122415802D01*
X176669436Y-122357972D01*
X177035255Y-122357972D01*
X177039434Y-122417567D01*
X177049177Y-122450296D01*
X177088195Y-122502159D01*
X177126058Y-122513615D01*
X177171543Y-122492184D01*
X177205476Y-122458987D01*
X177257882Y-122388747D01*
X177338605Y-122249040D01*
X177391840Y-122115414D01*
X177402596Y-122067323D01*
X177388919Y-122008583D01*
X177369426Y-121951931D01*
X177372188Y-121896720D01*
X177382240Y-121841402D01*
X177377806Y-121824057D01*
X177341902Y-121812944D01*
X177310150Y-121815753D01*
X177288046Y-121825523D01*
X177250677Y-121840910D01*
X177192670Y-121903803D01*
X177137471Y-121991852D01*
X177109749Y-122039357D01*
X177094606Y-122078558D01*
X177073968Y-122131559D01*
X177046476Y-122217317D01*
X177035255Y-122357972D01*
X176669436Y-122357972D01*
X176667914Y-122324755D01*
X176673423Y-122231685D01*
X176687698Y-122165631D01*
X176712467Y-122094285D01*
X176752666Y-122006507D01*
X176800079Y-121923974D01*
X176871246Y-121831995D01*
X176950173Y-121752391D01*
X176984872Y-121729047D01*
X177369868Y-121729047D01*
X177383912Y-121737473D01*
X177404917Y-121745778D01*
X177414686Y-121745778D01*
X177395147Y-121734665D01*
X177369868Y-121729047D01*
X176984872Y-121729047D01*
X177004114Y-121716102D01*
X177153835Y-121654797D01*
X177230039Y-121646371D01*
X177283772Y-121646371D01*
X177360464Y-121685572D01*
G37*
G36*
X179098374Y-121654187D02*
G01*
X179138768Y-121682346D01*
X179158580Y-121718422D01*
X179162735Y-121755097D01*
X179158580Y-121828942D01*
X179138919Y-121939340D01*
X179113762Y-121995150D01*
X179092757Y-122041311D01*
X179082987Y-122053890D01*
X179081522Y-122059508D01*
X179077370Y-122090282D01*
X179041212Y-122207808D01*
X179021316Y-122302651D01*
X179010203Y-122411706D01*
X179005929Y-122431367D01*
X179004585Y-122450907D01*
X179015820Y-122559839D01*
X179041580Y-122602404D01*
X179080178Y-122635310D01*
X179099718Y-122654972D01*
X179064791Y-122641050D01*
X179018507Y-122610275D01*
X179003120Y-122589270D01*
X178996159Y-122578035D01*
X178991885Y-122571074D01*
X178995507Y-122567340D01*
X178993350Y-122547383D01*
X178989076Y-122516608D01*
X178987732Y-122456402D01*
X178982115Y-122408897D01*
X178979428Y-122422941D01*
X178976619Y-122431245D01*
X178968193Y-122436863D01*
X178973811Y-122450907D01*
X178969536Y-122456402D01*
X178959767Y-122463485D01*
X178969536Y-122477407D01*
X178979428Y-122506716D01*
X178976619Y-122527721D01*
X178968193Y-122531873D01*
X178961110Y-122538956D01*
X178971002Y-122547383D01*
X178976806Y-122549644D01*
X178979428Y-122562648D01*
X178986182Y-122597060D01*
X179007394Y-122629815D01*
X179045554Y-122660186D01*
X179110953Y-122685624D01*
X179136110Y-122699668D01*
X179101183Y-122691364D01*
X179071752Y-122681594D01*
X179032551Y-122663276D01*
X178985961Y-122634131D01*
X178976619Y-122618579D01*
X178962575Y-122590614D01*
X178951340Y-122579501D01*
X178956958Y-122601849D01*
X178973658Y-122643165D01*
X179018894Y-122680935D01*
X179108144Y-122715300D01*
X179203277Y-122724825D01*
X179309767Y-122722016D01*
X179332115Y-122722016D01*
X179340541Y-122733251D01*
X179357336Y-122735235D01*
X179393786Y-122722016D01*
X179410517Y-122716399D01*
X179418943Y-122712247D01*
X179437139Y-122701133D01*
X179469379Y-122692707D01*
X179483423Y-122696859D01*
X179474997Y-122698325D01*
X179466571Y-122702477D01*
X179456679Y-122713590D01*
X179446909Y-122708094D01*
X179441291Y-122703942D01*
X179438605Y-122715055D01*
X179430178Y-122724825D01*
X179413326Y-122722016D01*
X179410517Y-122723482D01*
X179410517Y-122727634D01*
X179404899Y-122733251D01*
X179389512Y-122740212D01*
X179368507Y-122748639D01*
X179346159Y-122755600D01*
X179329428Y-122758408D01*
X179318193Y-122764026D01*
X179305492Y-122769521D01*
X179276061Y-122780757D01*
X179256522Y-122789183D01*
X179221595Y-122794801D01*
X179154550Y-122803105D01*
X179119624Y-122808722D01*
X179127928Y-122814218D01*
X179134889Y-122818492D01*
X179130737Y-122828262D01*
X179125241Y-122825453D01*
X179114006Y-122825453D01*
X179042565Y-122825453D01*
X178976986Y-122822644D01*
X178965961Y-122823050D01*
X178934976Y-122808722D01*
X178934131Y-122808112D01*
X179090070Y-122808112D01*
X179101183Y-122813607D01*
X179112418Y-122808112D01*
X179101183Y-122802494D01*
X179090070Y-122808112D01*
X178934131Y-122808112D01*
X178884540Y-122772330D01*
X178871654Y-122752180D01*
X179288884Y-122752180D01*
X179299997Y-122750837D01*
X179322345Y-122743754D01*
X179336389Y-122738136D01*
X179328085Y-122735327D01*
X179305615Y-122740945D01*
X179288884Y-122752180D01*
X178871654Y-122752180D01*
X178854044Y-122724642D01*
X178831986Y-122645375D01*
X178823113Y-122520760D01*
X178827641Y-122404421D01*
X178839966Y-122311078D01*
X178854010Y-122235607D01*
X178865123Y-122199337D01*
X178906640Y-122097633D01*
X178909941Y-122076238D01*
X178926794Y-122017620D01*
X178969577Y-121885602D01*
X178980874Y-121809405D01*
X178974421Y-121768736D01*
X178956091Y-121752218D01*
X178912750Y-121749197D01*
X178872206Y-121760432D01*
X178833005Y-121779972D01*
X178820426Y-121793893D01*
X178816152Y-121805129D01*
X178813465Y-121799511D01*
X178812122Y-121793893D01*
X178799665Y-121800976D01*
X178798322Y-121813555D01*
X178790018Y-121816242D01*
X178781714Y-121816242D01*
X178777561Y-121817707D01*
X178779027Y-121819050D01*
X178753992Y-121849825D01*
X178661546Y-121961688D01*
X178626554Y-122020049D01*
X178618682Y-122048272D01*
X178614407Y-122072086D01*
X178601829Y-122112630D01*
X178577226Y-122207956D01*
X178540280Y-122311078D01*
X178509505Y-122392166D01*
X178442216Y-122554344D01*
X178436598Y-122571074D01*
X178425363Y-122590736D01*
X178418402Y-122615893D01*
X178417059Y-122633967D01*
X178408633Y-122660467D01*
X178405824Y-122675976D01*
X178397397Y-122680129D01*
X178391902Y-122691364D01*
X178389184Y-122703535D01*
X178372240Y-122716521D01*
X178344275Y-122738869D01*
X178331574Y-122749982D01*
X178327422Y-122758408D01*
X178321804Y-122777948D01*
X178313500Y-122779291D01*
X178306417Y-122769521D01*
X178286878Y-122783565D01*
X178271490Y-122808722D01*
X178263064Y-122805914D01*
X178254638Y-122797487D01*
X178246211Y-122805914D01*
X178221054Y-122826919D01*
X178201515Y-122831071D01*
X178191623Y-122811531D01*
X178184713Y-122799381D01*
X178173427Y-122797487D01*
X178158040Y-122793335D01*
X178145461Y-122758408D01*
X178127265Y-122738869D01*
X178116123Y-122727097D01*
X178111878Y-122705286D01*
X178120304Y-122660467D01*
X178128608Y-122638119D01*
X178118839Y-122647889D01*
X178106260Y-122659124D01*
X178103451Y-122646545D01*
X178097834Y-122627006D01*
X178093054Y-122620069D01*
X178093559Y-122593422D01*
X178097834Y-122561304D01*
X178114564Y-122552878D01*
X178131417Y-122536147D01*
X178141187Y-122509647D01*
X178153887Y-122467637D01*
X178162192Y-122442480D01*
X178193088Y-122425750D01*
X178229358Y-122408897D01*
X178248898Y-122347470D01*
X178282481Y-122255146D01*
X178310797Y-122164239D01*
X178310569Y-122146214D01*
X178306295Y-122144870D01*
X178304952Y-122151709D01*
X178288099Y-122207641D01*
X178265751Y-122262229D01*
X178262942Y-122258077D01*
X178276864Y-122210572D01*
X178313378Y-122101395D01*
X178352311Y-121955457D01*
X178355388Y-121902948D01*
X178338535Y-121887683D01*
X178307760Y-121891835D01*
X178279475Y-121901800D01*
X178265751Y-121897330D01*
X178276864Y-121879256D01*
X178285290Y-121862526D01*
X178283947Y-121844330D01*
X178283947Y-121819173D01*
X178295182Y-121779972D01*
X178313340Y-121753377D01*
X178334261Y-121738084D01*
X178353017Y-121725942D01*
X178355388Y-121718422D01*
X178353922Y-121708775D01*
X178360883Y-121710118D01*
X178404801Y-121717010D01*
X178428172Y-121710118D01*
X178467067Y-121699606D01*
X178520374Y-121712927D01*
X178559932Y-121743774D01*
X178595967Y-121799511D01*
X178611266Y-121828055D01*
X178621246Y-121835903D01*
X178639442Y-121831751D01*
X178696717Y-121785589D01*
X178800344Y-121710047D01*
X178895711Y-121663161D01*
X178984924Y-121640143D01*
X179046876Y-121639673D01*
X179098374Y-121654187D01*
G37*
G36*
X179165663Y-122819225D02*
G01*
X179154428Y-122813607D01*
X179167007Y-122810921D01*
X179165663Y-122819225D01*
G37*
G36*
X179199247Y-122813729D02*
G01*
X179188012Y-122819225D01*
X179182394Y-122813729D01*
X179193629Y-122808112D01*
X179199247Y-122813729D01*
G37*
G36*
X179263605Y-122799685D02*
G01*
X179245409Y-122808112D01*
X179234173Y-122813607D01*
X179238448Y-122805303D01*
X179260796Y-122796877D01*
X179270566Y-122796877D01*
X179263605Y-122799685D01*
G37*
G36*
X179375590Y-122774528D02*
G01*
X179369973Y-122780146D01*
X179367286Y-122774528D01*
X179372781Y-122768911D01*
X179375590Y-122774528D01*
G37*
G36*
X179179585Y-122704675D02*
G01*
X179173968Y-122710170D01*
X179165663Y-122704675D01*
X179171159Y-122699057D01*
X179179585Y-122704675D01*
G37*
G36*
X179381208Y-122704675D02*
G01*
X179372781Y-122710170D01*
X179369973Y-122704675D01*
X179378399Y-122699057D01*
X179381208Y-122704675D01*
G37*
G36*
X179440070Y-122682327D02*
G01*
X179428835Y-122685013D01*
X179402213Y-122700523D01*
X179395252Y-122701866D01*
X179410639Y-122686479D01*
X179437261Y-122676709D01*
X179440070Y-122682327D01*
G37*
G36*
X179152963Y-122668893D02*
G01*
X179167007Y-122677320D01*
X179150154Y-122674511D01*
X179127806Y-122666085D01*
X179127806Y-122660467D01*
X179152963Y-122668893D01*
G37*
G36*
X179458144Y-122671092D02*
G01*
X179459610Y-122665474D01*
X179473654Y-122665474D01*
X179458144Y-122671092D01*
G37*
G36*
X179533737Y-122661322D02*
G01*
X179526776Y-122662787D01*
X179529585Y-122653018D01*
X179536546Y-122651552D01*
X179533737Y-122661322D01*
G37*
G36*
X179514198Y-122651552D02*
G01*
X179504428Y-122651552D01*
X179507237Y-122643126D01*
X179521281Y-122643126D01*
X179514198Y-122651552D01*
G37*
G36*
X179582830Y-122617969D02*
G01*
X179567443Y-122634822D01*
X179546438Y-122648743D01*
X179557673Y-122632013D01*
X179579229Y-122614751D01*
X179582830Y-122617969D01*
G37*
G36*
X179613605Y-122576081D02*
G01*
X179607987Y-122581699D01*
X179613605Y-122587194D01*
X179622031Y-122578890D01*
X179627649Y-122576081D01*
X179617757Y-122588660D01*
X179602370Y-122595621D01*
X179607987Y-122571929D01*
X179622031Y-122559351D01*
X179613605Y-122576081D01*
G37*
G36*
X178135203Y-122478262D02*
G01*
X178129585Y-122483757D01*
X178123968Y-122478262D01*
X178129585Y-122472644D01*
X178135203Y-122478262D01*
G37*
G36*
X178238884Y-122327198D02*
G01*
X178238884Y-122335624D01*
X178230458Y-122346859D01*
X178230458Y-122335624D01*
X178235981Y-122323292D01*
X178238884Y-122327198D01*
G37*
G36*
X181716658Y-122346859D02*
G01*
X181723619Y-122360781D01*
X181708231Y-122352477D01*
X181701270Y-122338433D01*
X181716658Y-122346859D01*
G37*
G36*
X181509418Y-121537561D02*
G01*
X181481452Y-121587875D01*
X181457638Y-121619993D01*
X181450677Y-121617184D01*
X181489878Y-121552948D01*
X181501113Y-121530600D01*
X181515035Y-121519364D01*
X181509418Y-121537561D01*
G37*
G36*
X182269868Y-121012683D02*
G01*
X182327265Y-121044923D01*
X182362314Y-121074232D01*
X182387471Y-121102198D01*
X182422413Y-121138952D01*
X182438966Y-121174605D01*
X182440716Y-121211130D01*
X182420074Y-121275906D01*
X182384662Y-121317376D01*
X182352422Y-121339724D01*
X182321647Y-121348150D01*
X182292338Y-121359263D01*
X182286721Y-121362072D01*
X182295147Y-121325802D01*
X182309727Y-121261313D01*
X182306260Y-121233478D01*
X182292216Y-121262909D01*
X182276829Y-121292219D01*
X182272677Y-121283914D01*
X182279638Y-121248988D01*
X182279742Y-121227797D01*
X182272677Y-121216748D01*
X182254521Y-121211484D01*
X182212471Y-121218091D01*
X182124299Y-121255826D01*
X182065437Y-121289410D01*
X182024230Y-121310424D01*
X181959069Y-121358042D01*
X181902338Y-121410231D01*
X181891902Y-121429361D01*
X181880667Y-121440474D01*
X181860014Y-121456428D01*
X181830353Y-121502023D01*
X181795304Y-121550994D01*
X181754638Y-121602773D01*
X181721054Y-121661514D01*
X181692194Y-121733287D01*
X181690280Y-121773255D01*
X181707132Y-121795603D01*
X181730713Y-121801313D01*
X181796647Y-121797069D01*
X181942338Y-121762142D01*
X182064093Y-121724406D01*
X182121490Y-121709019D01*
X182261441Y-121672627D01*
X182463954Y-121635804D01*
X182628267Y-121622255D01*
X182760596Y-121627374D01*
X182866553Y-121647470D01*
X182924205Y-121673432D01*
X182933720Y-121683862D01*
X182912715Y-121679710D01*
X182896077Y-121677296D01*
X182884749Y-121683862D01*
X182863744Y-121692166D01*
X182858127Y-121692288D01*
X182860936Y-121703401D01*
X182869362Y-121717323D01*
X182887436Y-121735519D01*
X182897328Y-121757868D01*
X182887436Y-121776064D01*
X182872171Y-121778872D01*
X182858127Y-121781681D01*
X182849700Y-121798534D01*
X182845426Y-121809647D01*
X182818804Y-121823691D01*
X182804921Y-121838191D01*
X182804882Y-121848848D01*
X182807691Y-121865701D01*
X182813308Y-121875471D01*
X182821735Y-121886706D01*
X182802073Y-121903436D01*
X182776916Y-121909054D01*
X182771298Y-121910397D01*
X182773267Y-121919690D01*
X182790960Y-121941172D01*
X182804218Y-121961919D01*
X182802073Y-121970481D01*
X182794091Y-121973003D01*
X182785342Y-121966329D01*
X182765681Y-121960711D01*
X182764215Y-121977442D01*
X182754446Y-121981716D01*
X182746141Y-121971946D01*
X182736250Y-121969138D01*
X182698514Y-121974633D01*
X182611915Y-121980220D01*
X182592146Y-121989410D01*
X182577087Y-121994913D01*
X182521682Y-121998080D01*
X182467710Y-122002361D01*
X182456958Y-122009316D01*
X182458301Y-122016399D01*
X182465140Y-122014933D01*
X182474665Y-122017742D01*
X182470635Y-122023237D01*
X182464444Y-122027714D01*
X182473322Y-122048517D01*
X182501938Y-122095820D01*
X182522659Y-122149267D01*
X182536337Y-122199825D01*
X182543702Y-122247550D01*
X182547328Y-122365055D01*
X182542634Y-122482124D01*
X182533284Y-122527477D01*
X182530597Y-122544207D01*
X182538901Y-122532972D01*
X182552945Y-122516242D01*
X182561372Y-122521859D01*
X182558563Y-122549825D01*
X182550137Y-122595987D01*
X182550137Y-122602948D01*
X182551480Y-122612718D01*
X182544519Y-122630914D01*
X182536093Y-122644836D01*
X182517896Y-122679884D01*
X182517081Y-122702692D01*
X182518873Y-122699057D01*
X182523148Y-122692096D01*
X182527300Y-122676709D01*
X182535604Y-122665474D01*
X182537070Y-122676709D01*
X182528079Y-122697777D01*
X182516968Y-122705850D01*
X182516553Y-122717498D01*
X182516553Y-122731542D01*
X182513744Y-122739968D01*
X182508127Y-122745464D01*
X182481382Y-122779047D01*
X182460377Y-122820935D01*
X182471612Y-122816782D01*
X182487122Y-122811165D01*
X182481504Y-122822400D01*
X182471612Y-122834979D01*
X182460377Y-122837787D01*
X182444990Y-122844748D01*
X182418367Y-122871249D01*
X182396019Y-122896406D01*
X182385095Y-122915767D01*
X182324578Y-122970533D01*
X182258961Y-123016902D01*
X182244589Y-123019382D01*
X182250206Y-123011078D01*
X182253137Y-122999842D01*
X182253137Y-122997034D01*
X182261441Y-122997034D01*
X182295147Y-122985921D01*
X182328730Y-122949528D01*
X182337035Y-122941102D01*
X182352544Y-122924371D01*
X182369397Y-122906175D01*
X182379167Y-122893597D01*
X182373671Y-122890788D01*
X182381975Y-122879675D01*
X182396019Y-122861479D01*
X182415559Y-122826552D01*
X182437953Y-122790873D01*
X182435220Y-122787473D01*
X182404446Y-122812630D01*
X182292216Y-122927180D01*
X182222118Y-122985921D01*
X182198703Y-122985273D01*
X182194153Y-122980303D01*
X182196961Y-122974685D01*
X182199770Y-122959298D01*
X182194153Y-122938293D01*
X182178643Y-122915945D01*
X182163256Y-122896406D01*
X182160447Y-122890788D01*
X182146403Y-122904832D01*
X182138099Y-122904832D01*
X182143594Y-122896406D01*
X182157638Y-122879675D01*
X182166065Y-122874057D01*
X182163256Y-122866974D01*
X182152021Y-122865631D01*
X182140785Y-122862822D01*
X182139442Y-122847557D01*
X182139442Y-122833635D01*
X182132237Y-122834979D01*
X182104393Y-122836322D01*
X182092836Y-122827503D01*
X182091326Y-122816782D01*
X182090283Y-122806402D01*
X182081068Y-122800052D01*
X182073049Y-122794015D01*
X182075206Y-122784665D01*
X182076672Y-122766468D01*
X182070810Y-122696615D01*
X182074609Y-122639987D01*
X182082045Y-122619678D01*
X182096765Y-122591657D01*
X182084854Y-122574982D01*
X182064871Y-122577442D01*
X181997903Y-122608565D01*
X181953745Y-122629623D01*
X181919379Y-122639218D01*
X181909610Y-122643492D01*
X181897031Y-122647644D01*
X181884797Y-122650116D01*
X181888605Y-122656071D01*
X181902649Y-122664375D01*
X181919379Y-122669993D01*
X181900657Y-122678541D01*
X181756836Y-122689532D01*
X181718978Y-122686845D01*
X181697973Y-122679884D01*
X181653155Y-122671458D01*
X181627998Y-122660223D01*
X181611145Y-122649110D01*
X181573287Y-122619678D01*
X181536773Y-122594521D01*
X181521386Y-122583408D01*
X181513481Y-122569364D01*
X182006330Y-122569364D01*
X182011947Y-122577791D01*
X182025991Y-122574982D01*
X182037227Y-122569364D01*
X182020374Y-122566556D01*
X182006330Y-122569364D01*
X181513481Y-122569364D01*
X181508807Y-122561060D01*
X181487802Y-122549825D01*
X181482185Y-122547016D01*
X181490611Y-122538590D01*
X181499037Y-122541399D01*
X181504655Y-122547016D01*
X181511590Y-122544540D01*
X181504655Y-122535781D01*
X181840977Y-122535781D01*
X181874561Y-122532972D01*
X181962732Y-122514898D01*
X181977293Y-122508914D01*
X182159104Y-122508914D01*
X182165247Y-122509708D01*
X182178643Y-122497801D01*
X182209418Y-122450296D01*
X182237506Y-122388747D01*
X182251550Y-122345394D01*
X182248741Y-122344050D01*
X182219310Y-122408286D01*
X182174491Y-122482414D01*
X182159104Y-122508914D01*
X181977293Y-122508914D01*
X182027213Y-122488398D01*
X182053713Y-122471545D01*
X182067757Y-122460310D01*
X182062422Y-122457047D01*
X182028556Y-122474354D01*
X181971218Y-122502572D01*
X181880178Y-122527477D01*
X181840977Y-122535781D01*
X181504655Y-122535781D01*
X181490611Y-122530286D01*
X181465454Y-122507815D01*
X181450414Y-122488265D01*
X181440175Y-122485467D01*
X181433092Y-122496702D01*
X181416239Y-122492550D01*
X181406469Y-122477163D01*
X181395234Y-122458967D01*
X181389938Y-122450296D01*
X181439564Y-122450296D01*
X181445060Y-122458600D01*
X181450677Y-122454448D01*
X181445060Y-122446144D01*
X181439564Y-122450296D01*
X181389938Y-122450296D01*
X181384121Y-122440771D01*
X181378504Y-122432344D01*
X181375695Y-122446388D01*
X181381312Y-122457501D01*
X181369955Y-122446388D01*
X181358720Y-122407187D01*
X181341745Y-122356873D01*
X181333197Y-122327564D01*
X181331853Y-122309490D01*
X181323427Y-122291294D01*
X181320618Y-122284211D01*
X181317809Y-122240980D01*
X181310726Y-122194818D01*
X181305109Y-122208740D01*
X181313657Y-122312177D01*
X181319275Y-122351378D01*
X181316466Y-122349912D01*
X181307917Y-122340143D01*
X181296560Y-122328907D01*
X181275433Y-122303750D01*
X181271281Y-122291172D01*
X181259924Y-122261863D01*
X181257115Y-122245132D01*
X181268350Y-122250750D01*
X181276776Y-122256245D01*
X181275311Y-122247941D01*
X181273968Y-122233897D01*
X181279585Y-122217166D01*
X181265541Y-122197627D01*
X181262732Y-122175157D01*
X181268490Y-122164440D01*
X181276776Y-122183583D01*
X181282394Y-122197627D01*
X181293507Y-122228279D01*
X181296316Y-122214357D01*
X181296316Y-122192009D01*
X181292042Y-122148656D01*
X181287889Y-122138886D01*
X181282394Y-122147313D01*
X181278816Y-122154801D01*
X181265541Y-122150000D01*
X181259999Y-122140372D01*
X181257115Y-122109577D01*
X181254441Y-122079700D01*
X181250154Y-122074651D01*
X181254306Y-122067690D01*
X181255964Y-122064375D01*
X181623688Y-122064375D01*
X181624212Y-122114340D01*
X181642408Y-122228279D01*
X181677457Y-122320603D01*
X181703917Y-122372015D01*
X181715192Y-122384839D01*
X181726572Y-122392639D01*
X181729236Y-122387648D01*
X181729236Y-122382030D01*
X181729236Y-122370917D01*
X181739319Y-122378413D01*
X181754393Y-122404501D01*
X181781410Y-122441797D01*
X181813256Y-122460310D01*
X181846474Y-122463401D01*
X181914006Y-122454815D01*
X182065192Y-122415614D01*
X182082045Y-122409996D01*
X182103478Y-122399118D01*
X182171804Y-122337334D01*
X182218859Y-122277996D01*
X182244711Y-122217166D01*
X182255824Y-122185048D01*
X182261441Y-122133269D01*
X182258513Y-122095350D01*
X182252160Y-122078070D01*
X182239503Y-122068470D01*
X182213814Y-122064515D01*
X182187070Y-122068667D01*
X182171804Y-122114218D01*
X182160569Y-122152808D01*
X182157760Y-122127773D01*
X182150677Y-122095778D01*
X182132481Y-122088817D01*
X182105859Y-122105425D01*
X182087663Y-122130338D01*
X182084854Y-122119225D01*
X182082045Y-122099685D01*
X182023305Y-122099685D01*
X181934561Y-122089909D01*
X181858074Y-122061706D01*
X181799072Y-122023543D01*
X181723619Y-121958269D01*
X181675926Y-121918987D01*
X181657795Y-121912229D01*
X181645813Y-121921694D01*
X181631295Y-121963886D01*
X181629829Y-122011392D01*
X181628486Y-122047784D01*
X181623688Y-122064375D01*
X181255964Y-122064375D01*
X181261267Y-122053768D01*
X181265541Y-122032763D01*
X181272502Y-122013224D01*
X181262732Y-122001988D01*
X181261267Y-121989532D01*
X181264956Y-121932817D01*
X181379516Y-121932817D01*
X181380702Y-121958269D01*
X181385571Y-121962597D01*
X181390471Y-121952651D01*
X181397555Y-121910764D01*
X181436633Y-121782170D01*
X181487070Y-121659193D01*
X181509540Y-121619993D01*
X181562527Y-121528148D01*
X181632760Y-121427163D01*
X181660604Y-121389427D01*
X181669153Y-121371231D01*
X181656479Y-121381603D01*
X181597712Y-121455129D01*
X181512349Y-121580914D01*
X181495496Y-121603262D01*
X181487070Y-121619993D01*
X181459104Y-121681542D01*
X181428229Y-121755072D01*
X181398898Y-121846528D01*
X181379516Y-121932817D01*
X181264956Y-121932817D01*
X181265541Y-121923831D01*
X181271642Y-121834109D01*
X181280562Y-121820516D01*
X181286546Y-121812212D01*
X181288012Y-121808060D01*
X181290943Y-121806594D01*
X181295461Y-121802442D01*
X181301567Y-121792550D01*
X181313657Y-121762020D01*
X181313850Y-121761120D01*
X181385060Y-121761120D01*
X181389128Y-121773011D01*
X181405859Y-121759089D01*
X181411476Y-121747854D01*
X181432481Y-121694853D01*
X181461913Y-121637456D01*
X181475956Y-121616451D01*
X181529079Y-121528524D01*
X181604672Y-121426430D01*
X181627143Y-121392847D01*
X181603329Y-121416660D01*
X181559854Y-121472592D01*
X181531888Y-121510327D01*
X181523462Y-121513014D01*
X181524576Y-121503462D01*
X181551550Y-121460013D01*
X181563391Y-121430110D01*
X181554358Y-121423621D01*
X181526270Y-121455739D01*
X181501113Y-121499092D01*
X181488413Y-121520097D01*
X181460447Y-121566259D01*
X181429672Y-121622191D01*
X181417094Y-121652843D01*
X181397555Y-121711584D01*
X181385060Y-121761120D01*
X181313850Y-121761120D01*
X181319641Y-121734054D01*
X181314023Y-121703279D01*
X181316832Y-121690701D01*
X181322854Y-121688616D01*
X181333685Y-121697662D01*
X181344920Y-121711706D01*
X181344920Y-121686549D01*
X181346264Y-121661392D01*
X181350538Y-121655774D01*
X181355062Y-121631684D01*
X181372886Y-121591416D01*
X181381697Y-121600133D01*
X181398165Y-121571877D01*
X181424837Y-121518579D01*
X181445792Y-121490788D01*
X181458371Y-121474057D01*
X181487802Y-121436322D01*
X181515768Y-121404082D01*
X181563518Y-121359263D01*
X181625189Y-121303454D01*
X181674160Y-121264375D01*
X181703713Y-121241905D01*
X181793350Y-121181821D01*
X181913884Y-121113311D01*
X181972371Y-121083178D01*
X181981173Y-121074232D01*
X181990551Y-121063767D01*
X182046996Y-121037840D01*
X182110150Y-121017240D01*
X182152143Y-121009874D01*
X182230047Y-121006583D01*
X182269868Y-121012683D01*
G37*
G36*
X182314442Y-123000942D02*
G01*
X182303207Y-123009368D01*
X182301864Y-123000942D01*
X182313099Y-122992515D01*
X182314442Y-123000942D01*
G37*
G36*
X182184261Y-122956245D02*
G01*
X182181452Y-122964672D01*
X182178765Y-122981402D01*
X182173148Y-122967358D01*
X182178765Y-122950628D01*
X182184261Y-122956245D01*
G37*
G36*
X182397118Y-122936584D02*
G01*
X182388692Y-122942201D01*
X182385883Y-122936584D01*
X182394310Y-122931088D01*
X182397118Y-122936584D01*
G37*
G36*
X182500677Y-122777337D02*
G01*
X182490908Y-122789916D01*
X182486755Y-122791259D01*
X182492251Y-122774528D01*
X182503486Y-122760607D01*
X182500677Y-122777337D01*
G37*
G36*
X181956016Y-122665474D02*
G01*
X181937820Y-122668283D01*
X181929515Y-122662665D01*
X181935133Y-122661322D01*
X181951864Y-122657170D01*
X181971525Y-122657170D01*
X181956016Y-122665474D01*
G37*
G36*
X182570653Y-122567655D02*
G01*
X182567844Y-122570464D01*
X182570653Y-122562037D01*
X182576270Y-122555076D01*
X182570653Y-122567655D01*
G37*
G36*
X181454829Y-122520150D02*
G01*
X181461913Y-122542498D01*
X181452021Y-122538346D01*
X181439442Y-122521493D01*
X181436755Y-122508914D01*
X181442251Y-122500610D01*
X181454829Y-122520150D01*
G37*
G36*
X182581888Y-122528576D02*
G01*
X182579079Y-122522958D01*
X182581888Y-122514532D01*
X182581888Y-122528576D01*
G37*
G36*
X181391937Y-122514532D02*
G01*
X181389128Y-122522958D01*
X181383511Y-122514532D01*
X181386319Y-122506106D01*
X181391937Y-122514532D01*
G37*
G36*
X181369467Y-122467027D02*
G01*
X181375084Y-122483757D01*
X181375084Y-122489375D01*
X181366658Y-122478262D01*
X181355545Y-122455792D01*
X181357710Y-122452230D01*
X181369467Y-122467027D01*
G37*
G36*
X181339303Y-122398883D02*
G01*
X181344920Y-122412805D01*
X181353347Y-122443579D01*
X181353347Y-122447854D01*
X181344920Y-122449197D01*
X181330876Y-122443579D01*
X181333685Y-122429658D01*
X181333685Y-122419888D01*
X181328067Y-122401692D01*
X181330900Y-122387001D01*
X181339303Y-122398883D01*
G37*
G36*
X184081661Y-121526325D02*
G01*
X184106818Y-121545865D01*
X184132804Y-121574247D01*
X184146019Y-121618893D01*
X184143010Y-121650436D01*
X184123671Y-121708775D01*
X184078566Y-121827628D01*
X184055012Y-121921487D01*
X184048078Y-121995150D01*
X184043804Y-122123866D01*
X184048078Y-122204832D01*
X184051864Y-122266259D01*
X184058214Y-122326343D01*
X184056871Y-122336113D01*
X184058214Y-122358461D01*
X184073357Y-122420010D01*
X184080642Y-122475699D01*
X184106818Y-122554344D01*
X184118053Y-122586461D01*
X184123549Y-122600383D01*
X184131975Y-122621388D01*
X184144554Y-122641050D01*
X184168245Y-122643736D01*
X184184329Y-122625865D01*
X184201707Y-122579501D01*
X184210133Y-122543108D01*
X184210133Y-122590614D01*
X184207324Y-122642393D01*
X184213186Y-122653506D01*
X184215995Y-122660467D01*
X184210133Y-122666085D01*
X184217094Y-122668893D01*
X184224177Y-122657780D01*
X184218315Y-122646545D01*
X184222956Y-122635432D01*
X184233580Y-122611618D01*
X184235545Y-122602369D01*
X184240541Y-122606001D01*
X184243350Y-122621388D01*
X184244816Y-122629815D01*
X184253120Y-122618579D01*
X184253120Y-122612962D01*
X184264355Y-122596231D01*
X184265698Y-122608810D01*
X184258737Y-122635432D01*
X184253120Y-122660589D01*
X184247624Y-122685624D01*
X184244816Y-122705286D01*
X184240541Y-122699668D01*
X184236389Y-122699668D01*
X184236389Y-122710781D01*
X184233580Y-122734595D01*
X184194501Y-122777948D01*
X184145948Y-122817005D01*
X184089599Y-122844993D01*
X184032433Y-122857710D01*
X183993245Y-122850610D01*
X183941561Y-122816107D01*
X183938422Y-122812264D01*
X184099735Y-122812264D01*
X184112314Y-122805303D01*
X184117931Y-122796877D01*
X184103887Y-122802494D01*
X184099735Y-122812264D01*
X183938422Y-122812264D01*
X183890360Y-122753425D01*
X183850413Y-122673900D01*
X184227108Y-122673900D01*
X184229917Y-122682327D01*
X184232725Y-122671092D01*
X184227108Y-122673900D01*
X183850413Y-122673900D01*
X183839494Y-122652163D01*
X183810063Y-122587927D01*
X183791867Y-122576692D01*
X183765489Y-122590736D01*
X183747293Y-122610153D01*
X183710901Y-122671702D01*
X183652160Y-122755600D01*
X183637604Y-122779695D01*
X183636773Y-122791992D01*
X183636877Y-122800268D01*
X183628469Y-122803105D01*
X183619504Y-122807312D01*
X183615890Y-122822644D01*
X183611616Y-122842184D01*
X183596229Y-122859036D01*
X183555397Y-122914333D01*
X183514774Y-122942812D01*
X183456114Y-122956022D01*
X183410970Y-122940003D01*
X183361878Y-122889689D01*
X183358394Y-122883583D01*
X183546769Y-122883583D01*
X183559348Y-122872348D01*
X183566309Y-122855617D01*
X183553730Y-122866730D01*
X183546769Y-122883583D01*
X183358394Y-122883583D01*
X183326829Y-122828262D01*
X183314250Y-122798953D01*
X183307167Y-122773796D01*
X183291780Y-122743021D01*
X183283354Y-122723482D01*
X183274927Y-122703820D01*
X183263692Y-122687090D01*
X183279201Y-122680129D01*
X183295932Y-122674511D01*
X183281888Y-122671702D01*
X183265157Y-122660467D01*
X183264791Y-122657780D01*
X183270775Y-122657780D01*
X183281888Y-122654972D01*
X183270775Y-122632623D01*
X183258074Y-122611618D01*
X183251113Y-122590736D01*
X183254655Y-122582309D01*
X183249282Y-122562770D01*
X183237070Y-122531995D01*
X183237070Y-122469103D01*
X183239847Y-122423919D01*
X183243786Y-122417323D01*
X183245130Y-122408897D01*
X183241330Y-122387878D01*
X183245130Y-122299842D01*
X183266989Y-122112508D01*
X183270636Y-122071731D01*
X183265646Y-122053890D01*
X183251956Y-122044095D01*
X183221316Y-122039846D01*
X183190996Y-122035555D01*
X183178207Y-122025802D01*
X183169232Y-121998173D01*
X183175398Y-121958757D01*
X183193902Y-121927258D01*
X183214599Y-121922365D01*
X183229108Y-121919504D01*
X183254655Y-121900017D01*
X183305213Y-121835781D01*
X183323870Y-121796011D01*
X183325130Y-121782170D01*
X183577544Y-121782170D01*
X183580353Y-121790474D01*
X183588657Y-121784979D01*
X183585848Y-121776552D01*
X183577544Y-121782170D01*
X183325130Y-121782170D01*
X183325608Y-121776919D01*
X183326951Y-121747609D01*
X183332446Y-121705722D01*
X183337464Y-121680002D01*
X183350887Y-121665177D01*
X183370792Y-121641364D01*
X183376116Y-121630907D01*
X183392164Y-121621824D01*
X183415000Y-121609246D01*
X183415000Y-121605094D01*
X183409261Y-121606437D01*
X183403521Y-121603628D01*
X183407280Y-121599565D01*
X183426358Y-121603628D01*
X183528818Y-121612055D01*
X183587802Y-121617672D01*
X183598915Y-121655652D01*
X183598915Y-121701814D01*
X183591954Y-121736985D01*
X183584993Y-121749563D01*
X183584993Y-121763485D01*
X183590611Y-121769103D01*
X183597738Y-121776784D01*
X183597450Y-121790230D01*
X183590489Y-121822470D01*
X183582185Y-121853244D01*
X183576567Y-121878524D01*
X183570949Y-121942882D01*
X183559714Y-121987944D01*
X183559714Y-121985013D01*
X183554097Y-121970969D01*
X183554097Y-121985013D01*
X183550927Y-121998207D01*
X183542984Y-122001866D01*
X183537366Y-122001866D01*
X183542984Y-122007484D01*
X183549557Y-122014421D01*
X183547136Y-122024337D01*
X183544327Y-122039846D01*
X183542984Y-122049494D01*
X183531626Y-122087473D01*
X183531626Y-122106240D01*
X183532725Y-122104082D01*
X183542495Y-122099930D01*
X183546769Y-122106891D01*
X183538343Y-122115317D01*
X183531626Y-122113352D01*
X183531626Y-122122400D01*
X183534557Y-122133635D01*
X183528818Y-122133635D01*
X183520269Y-122136444D01*
X183527352Y-122144870D01*
X183523078Y-122158914D01*
X183513064Y-122195429D01*
X183514529Y-122226203D01*
X183515873Y-122259909D01*
X183510255Y-122296301D01*
X183513186Y-122310345D01*
X183514529Y-122322923D01*
X183510377Y-122331350D01*
X183515995Y-122388869D01*
X183528818Y-122489741D01*
X183537366Y-122559839D01*
X183534557Y-122548726D01*
X183520610Y-122494044D01*
X183509400Y-122414515D01*
X183500974Y-122364078D01*
X183498165Y-122358461D01*
X183498165Y-122372505D01*
X183495356Y-122411706D01*
X183495356Y-122435519D01*
X183503783Y-122476064D01*
X183516717Y-122565698D01*
X183537366Y-122643736D01*
X183547136Y-122671702D01*
X183554097Y-122689898D01*
X183559714Y-122698325D01*
X183565332Y-122696859D01*
X183565332Y-122682937D01*
X183554097Y-122642393D01*
X183545792Y-122601849D01*
X183545792Y-122593422D01*
X183555562Y-122614427D01*
X183570949Y-122648011D01*
X183583634Y-122660481D01*
X183596229Y-122660467D01*
X183666448Y-122571074D01*
X183743507Y-122445167D01*
X183769682Y-122388449D01*
X183773060Y-122369696D01*
X183775869Y-122361270D01*
X183784296Y-122364078D01*
X183784296Y-122347348D01*
X183775869Y-122343196D01*
X183770252Y-122341730D01*
X183767443Y-122312421D01*
X183770252Y-122291416D01*
X183775869Y-122308147D01*
X183777213Y-122322191D01*
X183784296Y-122322191D01*
X183788448Y-122315230D01*
X183781487Y-122303995D01*
X183786982Y-122291416D01*
X183786982Y-122269068D01*
X183784173Y-122239759D01*
X183781365Y-122229867D01*
X183775869Y-122252337D01*
X183770252Y-122277372D01*
X183764634Y-122249528D01*
X183767443Y-122207519D01*
X183771925Y-122166608D01*
X183775869Y-122166608D01*
X183775869Y-122202878D01*
X183778678Y-122218265D01*
X183782830Y-122184682D01*
X183785639Y-122138520D01*
X183784173Y-122125942D01*
X183778678Y-122128750D01*
X183775869Y-122166608D01*
X183771925Y-122166608D01*
X183786017Y-122037996D01*
X183823619Y-121883286D01*
X183848776Y-121796702D01*
X183840349Y-121771423D01*
X183840349Y-121768614D01*
X183848776Y-121765928D01*
X183851585Y-121751884D01*
X183881302Y-121663000D01*
X183929132Y-121593859D01*
X183974683Y-121562840D01*
X184020356Y-121548674D01*
X184035232Y-121544704D01*
X184048078Y-121531943D01*
X184067073Y-121516447D01*
X184081661Y-121526325D01*
G37*
G36*
X184266309Y-122662665D02*
G01*
X184263500Y-122654361D01*
X184266309Y-122645935D01*
X184266309Y-122662665D01*
G37*
G36*
X184239686Y-122562159D02*
G01*
X184236878Y-122576081D01*
X184231260Y-122581699D01*
X184225642Y-122574616D01*
X184231260Y-122557885D01*
X184239686Y-122550924D01*
X184239686Y-122562159D01*
G37*
G36*
X183526131Y-122215945D02*
G01*
X183523322Y-122215945D01*
X183526131Y-122193597D01*
X183528940Y-122193597D01*
X183526131Y-122215945D01*
G37*
G36*
X183552265Y-122084054D02*
G01*
X183546647Y-122086863D01*
X183541152Y-122081245D01*
X183546647Y-122078436D01*
X183552265Y-122084054D01*
G37*
G36*
X183836441Y-121786322D02*
G01*
X183835098Y-121796092D01*
X183826672Y-121804518D01*
X183823863Y-121818440D01*
X183818367Y-121821249D01*
X183816902Y-121811479D01*
X183823863Y-121791939D01*
X183829481Y-121782170D01*
X183836441Y-121786322D01*
G37*
G36*
X184862628Y-122568632D02*
G01*
X184904638Y-122568632D01*
X184949456Y-122576448D01*
X184974613Y-122584263D01*
X185033354Y-122596964D01*
X185080981Y-122617969D01*
X185109069Y-122634822D01*
X185131236Y-122654632D01*
X185153765Y-122693928D01*
X185168541Y-122739618D01*
X185173427Y-122786496D01*
X185167342Y-122815351D01*
X185141187Y-122873569D01*
X185106630Y-122931057D01*
X185072677Y-122971877D01*
X184979056Y-123045025D01*
X184868245Y-123103890D01*
X184828415Y-123118173D01*
X184772991Y-123123551D01*
X184703015Y-123126360D01*
X184736598Y-123106821D01*
X184796838Y-123072594D01*
X184844310Y-123034281D01*
X184886471Y-122987124D01*
X184935412Y-122917166D01*
X184963378Y-122865631D01*
X184958810Y-122857061D01*
X184938221Y-122844748D01*
X184896211Y-122818248D01*
X184863971Y-122793091D01*
X184845775Y-122769399D01*
X184827579Y-122726168D01*
X184818298Y-122694552D01*
X184820618Y-122652285D01*
X184837342Y-122592736D01*
X184862628Y-122568632D01*
G37*
G36*
X188000416Y-121341434D02*
G01*
X188061932Y-121365338D01*
X188119606Y-121404448D01*
X188169139Y-121454493D01*
X188207900Y-121512037D01*
X188230370Y-121570778D01*
X188235988Y-121593004D01*
X188247426Y-121635731D01*
X188252841Y-121732833D01*
X188247785Y-121831338D01*
X188236232Y-121883775D01*
X188225119Y-121922976D01*
X188208633Y-121962055D01*
X188194833Y-121988677D01*
X188187994Y-121999790D01*
X188147938Y-122054256D01*
X188108957Y-122106848D01*
X188081749Y-122132536D01*
X188077029Y-122140173D01*
X188092984Y-122151099D01*
X188104219Y-122156472D01*
X188174317Y-122167096D01*
X188185430Y-122168440D01*
X188185430Y-122177721D01*
X188175254Y-122182838D01*
X188139268Y-122185659D01*
X188104442Y-122188720D01*
X188098601Y-122193597D01*
X188113211Y-122201353D01*
X188224753Y-122219853D01*
X188248294Y-122224853D01*
X188252841Y-122230233D01*
X188238797Y-122232920D01*
X188227561Y-122235729D01*
X188250032Y-122244155D01*
X188269571Y-122240003D01*
X188276532Y-122232920D01*
X188279341Y-122238538D01*
X188284959Y-122248429D01*
X188297537Y-122245621D01*
X188305963Y-122238538D01*
X188307307Y-122244155D01*
X188310116Y-122249773D01*
X188317199Y-122244155D01*
X188322816Y-122238538D01*
X188325625Y-122244155D01*
X188326968Y-122248429D01*
X188336738Y-122252581D01*
X188347973Y-122256734D01*
X188360552Y-122259542D01*
X188370444Y-122260886D01*
X188381557Y-122251116D01*
X188387800Y-122244967D01*
X188406836Y-122244155D01*
X188435458Y-122248143D01*
X188440419Y-122244155D01*
X188429184Y-122238538D01*
X188417949Y-122230355D01*
X188401096Y-122222906D01*
X188381557Y-122225471D01*
X188362017Y-122226692D01*
X188352566Y-122219407D01*
X188353591Y-122212648D01*
X188360747Y-122207885D01*
X188389983Y-122205198D01*
X188458049Y-122212773D01*
X188490855Y-122230111D01*
X188506120Y-122246964D01*
X188496351Y-122252459D01*
X188485868Y-122262037D01*
X188499160Y-122269068D01*
X188525782Y-122287142D01*
X188530056Y-122305094D01*
X188529934Y-122330129D01*
X188531400Y-122346737D01*
X188524439Y-122362002D01*
X188525459Y-122375849D01*
X188534208Y-122387037D01*
X188540848Y-122394664D01*
X188535552Y-122396685D01*
X188525668Y-122402670D01*
X188527247Y-122427215D01*
X188524439Y-122446632D01*
X188521630Y-122455059D01*
X188532865Y-122460432D01*
X188540000Y-122468080D01*
X188539704Y-122481315D01*
X188532865Y-122499389D01*
X188515723Y-122504291D01*
X188462767Y-122496580D01*
X188390288Y-122484737D01*
X188353469Y-122493771D01*
X188333929Y-122502198D01*
X188342234Y-122493771D01*
X188342234Y-122491085D01*
X188294606Y-122499389D01*
X188249788Y-122505006D01*
X188214739Y-122499389D01*
X188172729Y-122498046D01*
X188136215Y-122502198D01*
X188102631Y-122507693D01*
X188097014Y-122507693D01*
X188091396Y-122502198D01*
X188081626Y-122509159D01*
X188070391Y-122518684D01*
X188047244Y-122521857D01*
X188042425Y-122515997D01*
X188033342Y-122510704D01*
X187975137Y-122524302D01*
X187940088Y-122528454D01*
X187926044Y-122531263D01*
X187857289Y-122551901D01*
X187675084Y-122598918D01*
X187622745Y-122621277D01*
X187585325Y-122645935D01*
X187544536Y-122662421D01*
X187498252Y-122676465D01*
X187436822Y-122697674D01*
X187394571Y-122687578D01*
X187373466Y-122668690D01*
X187341204Y-122616381D01*
X187317000Y-122559998D01*
X187313238Y-122533827D01*
X187307621Y-122508792D01*
X187296889Y-122474476D01*
X188339547Y-122474476D01*
X188350782Y-122482780D01*
X188356400Y-122477285D01*
X188342413Y-122470870D01*
X188339547Y-122474476D01*
X187296889Y-122474476D01*
X187291413Y-122456966D01*
X187294794Y-122421978D01*
X187313238Y-122397051D01*
X187318856Y-122360659D01*
X187325817Y-122291172D01*
X187335266Y-122266013D01*
X187344013Y-122260519D01*
X187353285Y-122256081D01*
X187362331Y-122238293D01*
X187368587Y-122229378D01*
X188189460Y-122229378D01*
X188190925Y-122234996D01*
X188200695Y-122229378D01*
X188189460Y-122229378D01*
X187368587Y-122229378D01*
X187381871Y-122210450D01*
X187394571Y-122199337D01*
X187412767Y-122178576D01*
X187447816Y-122160380D01*
X187597903Y-122093335D01*
X187784505Y-121998325D01*
X187899115Y-121918512D01*
X187976137Y-121835892D01*
X188022886Y-121749563D01*
X188033999Y-121674092D01*
X188022886Y-121595812D01*
X187992133Y-121547053D01*
X187947171Y-121520341D01*
X187910834Y-121513873D01*
X187860098Y-121516189D01*
X187809152Y-121526636D01*
X187767530Y-121542690D01*
X187729973Y-121569522D01*
X187690471Y-121609856D01*
X187657835Y-121655822D01*
X187638570Y-121699249D01*
X187616100Y-121756646D01*
X187607673Y-121785956D01*
X187603521Y-121801343D01*
X187586668Y-121805495D01*
X187576899Y-121797191D01*
X187559924Y-121785956D01*
X187535802Y-121763582D01*
X187526340Y-121716102D01*
X187536601Y-121653216D01*
X187572624Y-121570778D01*
X187624791Y-121493096D01*
X187686197Y-121430949D01*
X187774613Y-121366713D01*
X187846054Y-121341434D01*
X187930599Y-121333076D01*
X188000416Y-121341434D01*
G37*
G36*
X188468835Y-122516362D02*
G01*
X188458249Y-122522958D01*
X188452753Y-122520150D01*
X188461058Y-122514532D01*
X188468835Y-122516362D01*
G37*
G36*
X188371543Y-122246231D02*
G01*
X188361651Y-122250383D01*
X188343455Y-122246231D01*
X188343455Y-122240614D01*
X188360307Y-122234996D01*
X188371543Y-122246231D01*
G37*
G36*
X188332342Y-122229378D02*
G01*
X188318298Y-122229378D01*
X188326724Y-122226570D01*
X188332342Y-122229378D01*
G37*
G36*
X188304254Y-122195917D02*
G01*
X188297293Y-122200069D01*
X188290332Y-122193108D01*
X188300102Y-122190300D01*
X188304254Y-122195917D01*
G37*
G36*
X188256749Y-122191277D02*
G01*
X188242705Y-122196894D01*
X188228661Y-122191277D01*
X188242705Y-122185659D01*
X188256749Y-122191277D01*
G37*
G36*
X188281906Y-122193108D02*
G01*
X188270670Y-122193108D01*
X188279097Y-122190300D01*
X188281906Y-122193108D01*
G37*
G36*
X188209121Y-122187491D02*
G01*
X188197886Y-122187491D01*
X188203504Y-122184682D01*
X188209121Y-122187491D01*
G37*
G36*
X189455552Y-121272534D02*
G01*
X189547694Y-121289898D01*
X189614717Y-121311364D01*
X189678730Y-121348639D01*
X189759453Y-121422766D01*
X189803089Y-121472116D01*
X189818071Y-121496772D01*
X189846539Y-121577175D01*
X189868263Y-121714881D01*
X189866797Y-121847749D01*
X189857028Y-121935921D01*
X189850268Y-122026692D01*
X189828695Y-122128872D01*
X189808790Y-122205931D01*
X189794624Y-122249284D01*
X189776305Y-122291294D01*
X189766414Y-122319260D01*
X189726724Y-122403157D01*
X189726724Y-122411461D01*
X189735150Y-122411461D01*
X189726724Y-122417079D01*
X189708162Y-122428314D01*
X189698270Y-122447976D01*
X189689843Y-122475942D01*
X189681295Y-122495481D01*
X189675677Y-122478750D01*
X189667251Y-122461898D01*
X189653329Y-122484002D01*
X189633668Y-122518562D01*
X189625241Y-122531018D01*
X189619624Y-122544940D01*
X189612567Y-122559112D01*
X189577858Y-122589270D01*
X189524613Y-122630792D01*
X189516187Y-122650209D01*
X189507882Y-122658391D01*
X189488343Y-122670969D01*
X189482725Y-122683304D01*
X189477108Y-122686113D01*
X189464529Y-122686235D01*
X189412750Y-122704187D01*
X189355475Y-122727756D01*
X189340088Y-122734717D01*
X189330196Y-122737526D01*
X189303695Y-122748761D01*
X189287899Y-122749028D01*
X189284156Y-122743143D01*
X189292582Y-122738869D01*
X189312122Y-122734717D01*
X189331661Y-122724947D01*
X189306626Y-122724947D01*
X189228224Y-122724947D01*
X189173636Y-122730565D01*
X189158873Y-122731243D01*
X189086930Y-122716521D01*
X188979341Y-122683060D01*
X188943183Y-122657589D01*
X188895444Y-122610153D01*
X188837540Y-122526935D01*
X188803120Y-122447976D01*
X188772345Y-122338799D01*
X188766728Y-122249406D01*
X188769940Y-122150556D01*
X189042139Y-122150556D01*
X189054568Y-122203855D01*
X189057377Y-122237438D01*
X189058720Y-122261252D01*
X189073985Y-122276517D01*
X189083017Y-122284229D01*
X189082289Y-122296179D01*
X189082513Y-122319751D01*
X189096211Y-122354919D01*
X189118108Y-122386763D01*
X189140785Y-122405111D01*
X189194093Y-122416121D01*
X189262818Y-122403382D01*
X189354742Y-122357606D01*
X189387643Y-122328689D01*
X189432656Y-122272365D01*
X189472427Y-122208908D01*
X189499334Y-122150732D01*
X189522100Y-122074354D01*
X189566134Y-121874005D01*
X189571752Y-121793039D01*
X189569592Y-121759699D01*
X189821857Y-121759699D01*
X189827719Y-121913572D01*
X189833580Y-121919068D01*
X189845304Y-121793161D01*
X189841332Y-121743291D01*
X189833580Y-121726116D01*
X189821857Y-121714881D01*
X189821857Y-121759699D01*
X189569592Y-121759699D01*
X189566134Y-121706332D01*
X189543786Y-121637822D01*
X189493472Y-121586043D01*
X189434732Y-121544155D01*
X189431663Y-121542934D01*
X189793891Y-121542934D01*
X189796700Y-121570900D01*
X189805126Y-121588974D01*
X189816541Y-121606219D01*
X189821857Y-121650523D01*
X189827719Y-121678489D01*
X189830649Y-121689724D01*
X189836389Y-121698028D01*
X189842373Y-121686915D01*
X189833580Y-121647714D01*
X189815018Y-121570900D01*
X189796700Y-121527547D01*
X189793891Y-121542934D01*
X189431663Y-121542934D01*
X189415012Y-121536309D01*
X189380266Y-121533042D01*
X189314442Y-121544155D01*
X189286475Y-121561643D01*
X189244589Y-121602896D01*
X189182671Y-121681158D01*
X189127230Y-121776186D01*
X189079725Y-121868387D01*
X189062994Y-121904780D01*
X189062994Y-121929937D01*
X189066838Y-121938776D01*
X189061529Y-121964863D01*
X189051759Y-122059874D01*
X189046141Y-122131193D01*
X189042139Y-122150556D01*
X188769940Y-122150556D01*
X188771027Y-122117108D01*
X188780772Y-122047784D01*
X188783458Y-122021284D01*
X188784924Y-122012979D01*
X188790419Y-121965352D01*
X188797380Y-121916381D01*
X188802998Y-121899528D01*
X188806745Y-121874164D01*
X188814111Y-121868754D01*
X188816919Y-121888415D01*
X188816919Y-121905146D01*
X188819728Y-121899528D01*
X188822537Y-121870219D01*
X188825346Y-121852023D01*
X188828155Y-121838101D01*
X188830303Y-121809993D01*
X188856120Y-121740038D01*
X188872973Y-121699616D01*
X188886773Y-121687037D01*
X188890925Y-121685694D01*
X188889582Y-121681420D01*
X188893502Y-121666694D01*
X188928783Y-121600209D01*
X188954062Y-121572243D01*
X188954062Y-121583478D01*
X188954062Y-121594591D01*
X188965175Y-121577861D01*
X188984714Y-121549895D01*
X188995949Y-121524738D01*
X189001445Y-121510694D01*
X189023671Y-121492620D01*
X189040402Y-121468806D01*
X189073937Y-121432658D01*
X189421176Y-121432658D01*
X189446333Y-121439741D01*
X189498113Y-121436933D01*
X189527544Y-121427163D01*
X189514966Y-121414584D01*
X189486878Y-121408967D01*
X189447677Y-121418736D01*
X189421176Y-121432658D01*
X189073937Y-121432658D01*
X189078015Y-121428262D01*
X189124055Y-121387718D01*
X189138099Y-121379413D01*
X189145341Y-121370161D01*
X189189634Y-121341678D01*
X189255091Y-121312247D01*
X189288552Y-121301133D01*
X189338499Y-121283349D01*
X189416780Y-121270359D01*
X189455552Y-121272534D01*
G37*
G36*
X189717931Y-122436741D02*
G01*
X189712314Y-122438206D01*
X189715123Y-122433932D01*
X189729167Y-122428436D01*
X189717931Y-122436741D01*
G37*
G36*
X190810185Y-121341434D02*
G01*
X190871701Y-121365338D01*
X190929376Y-121404448D01*
X190978909Y-121454493D01*
X191017670Y-121512037D01*
X191040140Y-121570778D01*
X191045758Y-121593004D01*
X191057195Y-121635731D01*
X191062610Y-121732833D01*
X191057554Y-121831338D01*
X191046002Y-121883775D01*
X191034889Y-121922976D01*
X191018402Y-121962055D01*
X191004603Y-121988677D01*
X190997764Y-121999790D01*
X190957708Y-122054256D01*
X190918727Y-122106848D01*
X190891518Y-122132536D01*
X190886799Y-122140173D01*
X190902753Y-122151099D01*
X190913989Y-122156472D01*
X190984086Y-122167096D01*
X190995199Y-122168440D01*
X190995199Y-122177721D01*
X190985024Y-122182838D01*
X190949037Y-122185659D01*
X190914212Y-122188720D01*
X190908371Y-122193597D01*
X190922981Y-122201353D01*
X191034522Y-122219853D01*
X191058064Y-122224853D01*
X191062610Y-122230233D01*
X191048566Y-122232920D01*
X191037331Y-122235729D01*
X191059802Y-122244155D01*
X191079341Y-122240003D01*
X191086302Y-122232920D01*
X191089111Y-122238538D01*
X191094728Y-122248429D01*
X191107307Y-122245621D01*
X191115733Y-122238538D01*
X191117076Y-122244155D01*
X191119885Y-122249773D01*
X191126968Y-122244155D01*
X191132586Y-122238538D01*
X191135395Y-122244155D01*
X191136738Y-122248429D01*
X191146508Y-122252581D01*
X191157743Y-122256734D01*
X191170321Y-122259542D01*
X191180213Y-122260886D01*
X191191326Y-122251116D01*
X191197570Y-122244967D01*
X191216605Y-122244155D01*
X191245228Y-122248143D01*
X191250189Y-122244155D01*
X191238954Y-122238538D01*
X191227719Y-122230355D01*
X191210866Y-122222906D01*
X191191326Y-122225471D01*
X191171787Y-122226692D01*
X191162336Y-122219407D01*
X191163361Y-122212648D01*
X191170517Y-122207885D01*
X191199753Y-122205198D01*
X191267819Y-122212773D01*
X191300625Y-122230111D01*
X191315890Y-122246964D01*
X191306120Y-122252459D01*
X191295638Y-122262037D01*
X191308929Y-122269068D01*
X191335552Y-122287142D01*
X191339826Y-122305094D01*
X191339704Y-122330129D01*
X191341169Y-122346737D01*
X191334208Y-122362002D01*
X191335229Y-122375849D01*
X191343978Y-122387037D01*
X191350617Y-122394664D01*
X191345321Y-122396685D01*
X191335438Y-122402670D01*
X191337017Y-122427215D01*
X191334208Y-122446632D01*
X191331400Y-122455059D01*
X191342635Y-122460432D01*
X191349770Y-122468080D01*
X191349474Y-122481315D01*
X191342635Y-122499389D01*
X191325492Y-122504291D01*
X191272537Y-122496580D01*
X191200057Y-122484737D01*
X191163238Y-122493771D01*
X191143699Y-122502198D01*
X191152003Y-122493771D01*
X191152003Y-122491085D01*
X191104376Y-122499389D01*
X191059557Y-122505006D01*
X191024508Y-122499389D01*
X190982499Y-122498046D01*
X190945984Y-122502198D01*
X190912401Y-122507693D01*
X190906783Y-122507693D01*
X190901166Y-122502198D01*
X190891396Y-122509159D01*
X190880161Y-122518684D01*
X190857014Y-122521857D01*
X190852195Y-122515997D01*
X190843112Y-122510704D01*
X190784906Y-122524302D01*
X190749857Y-122528454D01*
X190735813Y-122531263D01*
X190667059Y-122551901D01*
X190484854Y-122598918D01*
X190432515Y-122621277D01*
X190395095Y-122645935D01*
X190354306Y-122662421D01*
X190308022Y-122676465D01*
X190246592Y-122697674D01*
X190204341Y-122687578D01*
X190183235Y-122668690D01*
X190150974Y-122616381D01*
X190126770Y-122559998D01*
X190123008Y-122533827D01*
X190117391Y-122508792D01*
X190106659Y-122474476D01*
X191149317Y-122474476D01*
X191160552Y-122482780D01*
X191166169Y-122477285D01*
X191152182Y-122470870D01*
X191149317Y-122474476D01*
X190106659Y-122474476D01*
X190101183Y-122456966D01*
X190104563Y-122421978D01*
X190123008Y-122397051D01*
X190128626Y-122360659D01*
X190135587Y-122291172D01*
X190145036Y-122266013D01*
X190153783Y-122260519D01*
X190163055Y-122256081D01*
X190172101Y-122238293D01*
X190178357Y-122229378D01*
X190999229Y-122229378D01*
X191000695Y-122234996D01*
X191010464Y-122229378D01*
X190999229Y-122229378D01*
X190178357Y-122229378D01*
X190191640Y-122210450D01*
X190204341Y-122199337D01*
X190222537Y-122178576D01*
X190257586Y-122160380D01*
X190407673Y-122093335D01*
X190594275Y-121998325D01*
X190708885Y-121918512D01*
X190785907Y-121835892D01*
X190832656Y-121749563D01*
X190843769Y-121674092D01*
X190832656Y-121595812D01*
X190801902Y-121547053D01*
X190756940Y-121520341D01*
X190720603Y-121513873D01*
X190669868Y-121516189D01*
X190618921Y-121526636D01*
X190577300Y-121542690D01*
X190539743Y-121569522D01*
X190500241Y-121609856D01*
X190467605Y-121655822D01*
X190448340Y-121699249D01*
X190425869Y-121756646D01*
X190417443Y-121785956D01*
X190413291Y-121801343D01*
X190396438Y-121805495D01*
X190386668Y-121797191D01*
X190369693Y-121785956D01*
X190345572Y-121763582D01*
X190336110Y-121716102D01*
X190346370Y-121653216D01*
X190382394Y-121570778D01*
X190434561Y-121493096D01*
X190495967Y-121430949D01*
X190584383Y-121366713D01*
X190655824Y-121341434D01*
X190740369Y-121333076D01*
X190810185Y-121341434D01*
G37*
G36*
X191278605Y-122516362D02*
G01*
X191268019Y-122522958D01*
X191262523Y-122520150D01*
X191270827Y-122514532D01*
X191278605Y-122516362D01*
G37*
G36*
X191181312Y-122246231D02*
G01*
X191171421Y-122250383D01*
X191153224Y-122246231D01*
X191153224Y-122240614D01*
X191170077Y-122234996D01*
X191181312Y-122246231D01*
G37*
G36*
X191142111Y-122229378D02*
G01*
X191128067Y-122229378D01*
X191136494Y-122226570D01*
X191142111Y-122229378D01*
G37*
G36*
X191114023Y-122195917D02*
G01*
X191107063Y-122200069D01*
X191100102Y-122193108D01*
X191109871Y-122190300D01*
X191114023Y-122195917D01*
G37*
G36*
X191066518Y-122191277D02*
G01*
X191052474Y-122196894D01*
X191038430Y-122191277D01*
X191052474Y-122185659D01*
X191066518Y-122191277D01*
G37*
G36*
X191091675Y-122193108D02*
G01*
X191080440Y-122193108D01*
X191088866Y-122190300D01*
X191091675Y-122193108D01*
G37*
G36*
X191018891Y-122187491D02*
G01*
X191007656Y-122187491D01*
X191013273Y-122184682D01*
X191018891Y-122187491D01*
G37*
G36*
X191743682Y-122814096D02*
G01*
X191739529Y-122819713D01*
X191715716Y-122822522D01*
X191708633Y-122823988D01*
X191715716Y-122816905D01*
X191729845Y-122810629D01*
X191743682Y-122814096D01*
G37*
G36*
X192772188Y-121202093D02*
G01*
X192799305Y-121206579D01*
X192819816Y-121219312D01*
X192871595Y-121250697D01*
X192898217Y-121259368D01*
X192910796Y-121269382D01*
X192912139Y-121279396D01*
X192902370Y-121290753D01*
X192893834Y-121302298D01*
X192896752Y-121310903D01*
X192905178Y-121348028D01*
X192909331Y-121388084D01*
X192908509Y-121398202D01*
X192895287Y-121409455D01*
X192865733Y-121419469D01*
X192854498Y-121425209D01*
X192829097Y-121439497D01*
X192772677Y-121450976D01*
X192658382Y-121459426D01*
X192548382Y-121484606D01*
X192441483Y-121526814D01*
X192393734Y-121546475D01*
X192346107Y-121566015D01*
X192306783Y-121589951D01*
X192275887Y-121630739D01*
X192242287Y-121693303D01*
X192233755Y-121731856D01*
X192246691Y-121759710D01*
X192298235Y-121787909D01*
X192413728Y-121846864D01*
X192508139Y-121928502D01*
X192583999Y-122035205D01*
X192620826Y-122121335D01*
X192631626Y-122191032D01*
X192620470Y-122261681D01*
X192581190Y-122355286D01*
X192529411Y-122434054D01*
X192484592Y-122484612D01*
X192432691Y-122518318D01*
X192393158Y-122543890D01*
X192376759Y-122549214D01*
X192350137Y-122558984D01*
X192345984Y-122580111D01*
X192338901Y-122594033D01*
X192317896Y-122602459D01*
X192307129Y-122600005D01*
X192309470Y-122594033D01*
X192323514Y-122585484D01*
X192334749Y-122579989D01*
X192309470Y-122585484D01*
X192285764Y-122596752D01*
X192287000Y-122607955D01*
X192295548Y-122610764D01*
X192298357Y-122605268D01*
X192303975Y-122605268D01*
X192310813Y-122616381D01*
X192289931Y-122627616D01*
X192267460Y-122641660D01*
X192256225Y-122647278D01*
X192243614Y-122643453D01*
X192256225Y-122630425D01*
X192264652Y-122627616D01*
X192281382Y-122607955D01*
X192251951Y-122620533D01*
X192222642Y-122635921D01*
X192202980Y-122641538D01*
X192194554Y-122648621D01*
X192159505Y-122666939D01*
X192124578Y-122680861D01*
X192128730Y-122686357D01*
X192139966Y-122685013D01*
X192152666Y-122678053D01*
X192177701Y-122669626D01*
X192202980Y-122661200D01*
X192224791Y-122654893D01*
X192242181Y-122658391D01*
X192219711Y-122679396D01*
X192191623Y-122691974D01*
X192183319Y-122697592D01*
X192122991Y-122731175D01*
X192042879Y-122767568D01*
X191985440Y-122783977D01*
X191958737Y-122784420D01*
X191950433Y-122783077D01*
X191958737Y-122791503D01*
X191965698Y-122798464D01*
X191956051Y-122801273D01*
X191933458Y-122789916D01*
X191927841Y-122784420D01*
X191930649Y-122792847D01*
X191927841Y-122802739D01*
X191888518Y-122804082D01*
X191843699Y-122801273D01*
X191874596Y-122795655D01*
X191908301Y-122790160D01*
X191926497Y-122780390D01*
X191944816Y-122770498D01*
X191948968Y-122767690D01*
X191961546Y-122762072D01*
X191964507Y-122754198D01*
X191948846Y-122750837D01*
X191854934Y-122767690D01*
X191798880Y-122774773D01*
X191742827Y-122784542D01*
X191713948Y-122784172D01*
X191697886Y-122767690D01*
X191686651Y-122748028D01*
X191666989Y-122766346D01*
X191650785Y-122779436D01*
X191643176Y-122778925D01*
X191639023Y-122748028D01*
X191639023Y-122742787D01*
X191974978Y-122742787D01*
X191976079Y-122752180D01*
X191994275Y-122760607D01*
X192009662Y-122752180D01*
X192022240Y-122743754D01*
X192036284Y-122736793D01*
X192048863Y-122729832D01*
X192060098Y-122724214D01*
X192061441Y-122714445D01*
X192020897Y-122727023D01*
X192004044Y-122731297D01*
X191983040Y-122736793D01*
X191974978Y-122742787D01*
X191639023Y-122742787D01*
X191639023Y-122725680D01*
X191622171Y-122717254D01*
X191588587Y-122712979D01*
X191571735Y-122710293D01*
X191580161Y-122686357D01*
X191590905Y-122661491D01*
X191599822Y-122607955D01*
X191613744Y-122558984D01*
X191640367Y-122516974D01*
X191661372Y-122479117D01*
X191674047Y-122452300D01*
X191683842Y-122459577D01*
X191700573Y-122465195D01*
X191714739Y-122469469D01*
X191738552Y-122473621D01*
X191762366Y-122477773D01*
X191772136Y-122481926D01*
X191798758Y-122477773D01*
X191829655Y-122468004D01*
X191867086Y-122454759D01*
X191852003Y-122465195D01*
X191832464Y-122476430D01*
X191849194Y-122473621D01*
X191913797Y-122448464D01*
X191953120Y-122431612D01*
X191947502Y-122440038D01*
X191922223Y-122453960D01*
X191913919Y-122459577D01*
X191923688Y-122461043D01*
X191940419Y-122455425D01*
X191953120Y-122448464D01*
X191967164Y-122442847D01*
X191997938Y-122434420D01*
X192082202Y-122395219D01*
X192096246Y-122378367D01*
X192107359Y-122367254D01*
X192122746Y-122363101D01*
X192134104Y-122360293D01*
X192165000Y-122339288D01*
X192201515Y-122314009D01*
X192225328Y-122302651D01*
X192233755Y-122297156D01*
X192228137Y-122311200D01*
X192225328Y-122316817D01*
X192239372Y-122308391D01*
X192242181Y-122294347D01*
X192250608Y-122285921D01*
X192268804Y-122276151D01*
X192298235Y-122252337D01*
X192354411Y-122204588D01*
X192392870Y-122152998D01*
X192404969Y-122098098D01*
X192395438Y-122066035D01*
X192360028Y-122025314D01*
X192317896Y-122002965D01*
X192275887Y-121988921D01*
X192241614Y-122000658D01*
X192183319Y-122050348D01*
X192143996Y-122089549D01*
X192104795Y-122092358D01*
X192062919Y-122089472D01*
X192000869Y-122072697D01*
X191913795Y-122036896D01*
X191883022Y-122014078D01*
X191852658Y-121974305D01*
X191846508Y-121958147D01*
X191840719Y-121924835D01*
X191824160Y-121899528D01*
X191792764Y-121855451D01*
X191784836Y-121826988D01*
X191796965Y-121783107D01*
X191835273Y-121748831D01*
X191865190Y-121729718D01*
X191884243Y-121708531D01*
X191916483Y-121665177D01*
X192028591Y-121531332D01*
X192098090Y-121449575D01*
X192162924Y-121358164D01*
X192230091Y-121266085D01*
X192272101Y-121238241D01*
X192316919Y-121224319D01*
X192351968Y-121235554D01*
X192375904Y-121260589D01*
X192395444Y-121271824D01*
X192675468Y-121200750D01*
X192713326Y-121199406D01*
X192772188Y-121202093D01*
G37*
G36*
X191750642Y-122458722D02*
G01*
X191740873Y-122467027D01*
X191743682Y-122455792D01*
X191752108Y-122447487D01*
X191750642Y-122458722D01*
G37*
D12*
X140669523Y-100194619D02*
X141336190Y-100194619D01*
X141621904Y-101242238D02*
X140669523Y-101242238D01*
X140669523Y-101242238D02*
X140669523Y-99242238D01*
X140669523Y-99242238D02*
X141621904Y-99242238D01*
X142383809Y-101147000D02*
X142669523Y-101242238D01*
X142669523Y-101242238D02*
X143145714Y-101242238D01*
X143145714Y-101242238D02*
X143336190Y-101147000D01*
X143336190Y-101147000D02*
X143431428Y-101051761D01*
X143431428Y-101051761D02*
X143526666Y-100861285D01*
X143526666Y-100861285D02*
X143526666Y-100670809D01*
X143526666Y-100670809D02*
X143431428Y-100480333D01*
X143431428Y-100480333D02*
X143336190Y-100385095D01*
X143336190Y-100385095D02*
X143145714Y-100289857D01*
X143145714Y-100289857D02*
X142764761Y-100194619D01*
X142764761Y-100194619D02*
X142574285Y-100099380D01*
X142574285Y-100099380D02*
X142479047Y-100004142D01*
X142479047Y-100004142D02*
X142383809Y-99813666D01*
X142383809Y-99813666D02*
X142383809Y-99623190D01*
X142383809Y-99623190D02*
X142479047Y-99432714D01*
X142479047Y-99432714D02*
X142574285Y-99337476D01*
X142574285Y-99337476D02*
X142764761Y-99242238D01*
X142764761Y-99242238D02*
X143240952Y-99242238D01*
X143240952Y-99242238D02*
X143526666Y-99337476D01*
X144383809Y-101242238D02*
X144383809Y-99242238D01*
X144383809Y-99242238D02*
X145145714Y-99242238D01*
X145145714Y-99242238D02*
X145336190Y-99337476D01*
X145336190Y-99337476D02*
X145431428Y-99432714D01*
X145431428Y-99432714D02*
X145526666Y-99623190D01*
X145526666Y-99623190D02*
X145526666Y-99908904D01*
X145526666Y-99908904D02*
X145431428Y-100099380D01*
X145431428Y-100099380D02*
X145336190Y-100194619D01*
X145336190Y-100194619D02*
X145145714Y-100289857D01*
X145145714Y-100289857D02*
X144383809Y-100289857D01*
X146193333Y-99242238D02*
X147431428Y-99242238D01*
X147431428Y-99242238D02*
X146764761Y-100004142D01*
X146764761Y-100004142D02*
X147050476Y-100004142D01*
X147050476Y-100004142D02*
X147240952Y-100099380D01*
X147240952Y-100099380D02*
X147336190Y-100194619D01*
X147336190Y-100194619D02*
X147431428Y-100385095D01*
X147431428Y-100385095D02*
X147431428Y-100861285D01*
X147431428Y-100861285D02*
X147336190Y-101051761D01*
X147336190Y-101051761D02*
X147240952Y-101147000D01*
X147240952Y-101147000D02*
X147050476Y-101242238D01*
X147050476Y-101242238D02*
X146479047Y-101242238D01*
X146479047Y-101242238D02*
X146288571Y-101147000D01*
X146288571Y-101147000D02*
X146193333Y-101051761D01*
X148193333Y-99432714D02*
X148288571Y-99337476D01*
X148288571Y-99337476D02*
X148479047Y-99242238D01*
X148479047Y-99242238D02*
X148955238Y-99242238D01*
X148955238Y-99242238D02*
X149145714Y-99337476D01*
X149145714Y-99337476D02*
X149240952Y-99432714D01*
X149240952Y-99432714D02*
X149336190Y-99623190D01*
X149336190Y-99623190D02*
X149336190Y-99813666D01*
X149336190Y-99813666D02*
X149240952Y-100099380D01*
X149240952Y-100099380D02*
X148098095Y-101242238D01*
X148098095Y-101242238D02*
X149336190Y-101242238D01*
X149717143Y-101432714D02*
X151240952Y-101432714D01*
X151717143Y-99242238D02*
X151717143Y-100861285D01*
X151717143Y-100861285D02*
X151812381Y-101051761D01*
X151812381Y-101051761D02*
X151907619Y-101147000D01*
X151907619Y-101147000D02*
X152098095Y-101242238D01*
X152098095Y-101242238D02*
X152479048Y-101242238D01*
X152479048Y-101242238D02*
X152669524Y-101147000D01*
X152669524Y-101147000D02*
X152764762Y-101051761D01*
X152764762Y-101051761D02*
X152860000Y-100861285D01*
X152860000Y-100861285D02*
X152860000Y-99242238D01*
X153621905Y-99242238D02*
X154098095Y-101242238D01*
X154098095Y-101242238D02*
X154479048Y-99813666D01*
X154479048Y-99813666D02*
X154860000Y-101242238D01*
X154860000Y-101242238D02*
X155336191Y-99242238D01*
X156764762Y-100194619D02*
X157050476Y-100289857D01*
X157050476Y-100289857D02*
X157145714Y-100385095D01*
X157145714Y-100385095D02*
X157240952Y-100575571D01*
X157240952Y-100575571D02*
X157240952Y-100861285D01*
X157240952Y-100861285D02*
X157145714Y-101051761D01*
X157145714Y-101051761D02*
X157050476Y-101147000D01*
X157050476Y-101147000D02*
X156860000Y-101242238D01*
X156860000Y-101242238D02*
X156098095Y-101242238D01*
X156098095Y-101242238D02*
X156098095Y-99242238D01*
X156098095Y-99242238D02*
X156764762Y-99242238D01*
X156764762Y-99242238D02*
X156955238Y-99337476D01*
X156955238Y-99337476D02*
X157050476Y-99432714D01*
X157050476Y-99432714D02*
X157145714Y-99623190D01*
X157145714Y-99623190D02*
X157145714Y-99813666D01*
X157145714Y-99813666D02*
X157050476Y-100004142D01*
X157050476Y-100004142D02*
X156955238Y-100099380D01*
X156955238Y-100099380D02*
X156764762Y-100194619D01*
X156764762Y-100194619D02*
X156098095Y-100194619D01*
X159145714Y-101242238D02*
X158002857Y-101242238D01*
X158574285Y-101242238D02*
X158574285Y-99242238D01*
X158574285Y-99242238D02*
X158383809Y-99527952D01*
X158383809Y-99527952D02*
X158193333Y-99718428D01*
X158193333Y-99718428D02*
X158002857Y-99813666D01*
D10*
X116773609Y-104536190D02*
X116773609Y-104202857D01*
X117297419Y-104060000D02*
X117297419Y-104536190D01*
X117297419Y-104536190D02*
X116297419Y-104536190D01*
X116297419Y-104536190D02*
X116297419Y-104060000D01*
X117249800Y-103679047D02*
X117297419Y-103536190D01*
X117297419Y-103536190D02*
X117297419Y-103298095D01*
X117297419Y-103298095D02*
X117249800Y-103202857D01*
X117249800Y-103202857D02*
X117202180Y-103155238D01*
X117202180Y-103155238D02*
X117106942Y-103107619D01*
X117106942Y-103107619D02*
X117011704Y-103107619D01*
X117011704Y-103107619D02*
X116916466Y-103155238D01*
X116916466Y-103155238D02*
X116868847Y-103202857D01*
X116868847Y-103202857D02*
X116821228Y-103298095D01*
X116821228Y-103298095D02*
X116773609Y-103488571D01*
X116773609Y-103488571D02*
X116725990Y-103583809D01*
X116725990Y-103583809D02*
X116678371Y-103631428D01*
X116678371Y-103631428D02*
X116583133Y-103679047D01*
X116583133Y-103679047D02*
X116487895Y-103679047D01*
X116487895Y-103679047D02*
X116392657Y-103631428D01*
X116392657Y-103631428D02*
X116345038Y-103583809D01*
X116345038Y-103583809D02*
X116297419Y-103488571D01*
X116297419Y-103488571D02*
X116297419Y-103250476D01*
X116297419Y-103250476D02*
X116345038Y-103107619D01*
X117297419Y-102679047D02*
X116297419Y-102679047D01*
X116297419Y-102679047D02*
X116297419Y-102298095D01*
X116297419Y-102298095D02*
X116345038Y-102202857D01*
X116345038Y-102202857D02*
X116392657Y-102155238D01*
X116392657Y-102155238D02*
X116487895Y-102107619D01*
X116487895Y-102107619D02*
X116630752Y-102107619D01*
X116630752Y-102107619D02*
X116725990Y-102155238D01*
X116725990Y-102155238D02*
X116773609Y-102202857D01*
X116773609Y-102202857D02*
X116821228Y-102298095D01*
X116821228Y-102298095D02*
X116821228Y-102679047D01*
X116297419Y-101774285D02*
X116297419Y-101155238D01*
X116297419Y-101155238D02*
X116678371Y-101488571D01*
X116678371Y-101488571D02*
X116678371Y-101345714D01*
X116678371Y-101345714D02*
X116725990Y-101250476D01*
X116725990Y-101250476D02*
X116773609Y-101202857D01*
X116773609Y-101202857D02*
X116868847Y-101155238D01*
X116868847Y-101155238D02*
X117106942Y-101155238D01*
X117106942Y-101155238D02*
X117202180Y-101202857D01*
X117202180Y-101202857D02*
X117249800Y-101250476D01*
X117249800Y-101250476D02*
X117297419Y-101345714D01*
X117297419Y-101345714D02*
X117297419Y-101631428D01*
X117297419Y-101631428D02*
X117249800Y-101726666D01*
X117249800Y-101726666D02*
X117202180Y-101774285D01*
X116392657Y-100774285D02*
X116345038Y-100726666D01*
X116345038Y-100726666D02*
X116297419Y-100631428D01*
X116297419Y-100631428D02*
X116297419Y-100393333D01*
X116297419Y-100393333D02*
X116345038Y-100298095D01*
X116345038Y-100298095D02*
X116392657Y-100250476D01*
X116392657Y-100250476D02*
X116487895Y-100202857D01*
X116487895Y-100202857D02*
X116583133Y-100202857D01*
X116583133Y-100202857D02*
X116725990Y-100250476D01*
X116725990Y-100250476D02*
X117297419Y-100821904D01*
X117297419Y-100821904D02*
X117297419Y-100202857D01*
X117011704Y-99059999D02*
X117011704Y-98583809D01*
X117297419Y-99155237D02*
X116297419Y-98821904D01*
X116297419Y-98821904D02*
X117297419Y-98488571D01*
X116630752Y-98155237D02*
X117297419Y-98155237D01*
X116725990Y-98155237D02*
X116678371Y-98107618D01*
X116678371Y-98107618D02*
X116630752Y-98012380D01*
X116630752Y-98012380D02*
X116630752Y-97869523D01*
X116630752Y-97869523D02*
X116678371Y-97774285D01*
X116678371Y-97774285D02*
X116773609Y-97726666D01*
X116773609Y-97726666D02*
X117297419Y-97726666D01*
X116630752Y-97393332D02*
X116630752Y-97012380D01*
X116297419Y-97250475D02*
X117154561Y-97250475D01*
X117154561Y-97250475D02*
X117249800Y-97202856D01*
X117249800Y-97202856D02*
X117297419Y-97107618D01*
X117297419Y-97107618D02*
X117297419Y-97012380D01*
X117249800Y-96298094D02*
X117297419Y-96393332D01*
X117297419Y-96393332D02*
X117297419Y-96583808D01*
X117297419Y-96583808D02*
X117249800Y-96679046D01*
X117249800Y-96679046D02*
X117154561Y-96726665D01*
X117154561Y-96726665D02*
X116773609Y-96726665D01*
X116773609Y-96726665D02*
X116678371Y-96679046D01*
X116678371Y-96679046D02*
X116630752Y-96583808D01*
X116630752Y-96583808D02*
X116630752Y-96393332D01*
X116630752Y-96393332D02*
X116678371Y-96298094D01*
X116678371Y-96298094D02*
X116773609Y-96250475D01*
X116773609Y-96250475D02*
X116868847Y-96250475D01*
X116868847Y-96250475D02*
X116964085Y-96726665D01*
X116630752Y-95821903D02*
X117297419Y-95821903D01*
X116725990Y-95821903D02*
X116678371Y-95774284D01*
X116678371Y-95774284D02*
X116630752Y-95679046D01*
X116630752Y-95679046D02*
X116630752Y-95536189D01*
X116630752Y-95536189D02*
X116678371Y-95440951D01*
X116678371Y-95440951D02*
X116773609Y-95393332D01*
X116773609Y-95393332D02*
X117297419Y-95393332D01*
X116630752Y-94917141D02*
X117297419Y-94917141D01*
X116725990Y-94917141D02*
X116678371Y-94869522D01*
X116678371Y-94869522D02*
X116630752Y-94774284D01*
X116630752Y-94774284D02*
X116630752Y-94631427D01*
X116630752Y-94631427D02*
X116678371Y-94536189D01*
X116678371Y-94536189D02*
X116773609Y-94488570D01*
X116773609Y-94488570D02*
X117297419Y-94488570D01*
X117297419Y-93583808D02*
X116773609Y-93583808D01*
X116773609Y-93583808D02*
X116678371Y-93631427D01*
X116678371Y-93631427D02*
X116630752Y-93726665D01*
X116630752Y-93726665D02*
X116630752Y-93917141D01*
X116630752Y-93917141D02*
X116678371Y-94012379D01*
X117249800Y-93583808D02*
X117297419Y-93679046D01*
X117297419Y-93679046D02*
X117297419Y-93917141D01*
X117297419Y-93917141D02*
X117249800Y-94012379D01*
X117249800Y-94012379D02*
X117154561Y-94059998D01*
X117154561Y-94059998D02*
X117059323Y-94059998D01*
X117059323Y-94059998D02*
X116964085Y-94012379D01*
X116964085Y-94012379D02*
X116916466Y-93917141D01*
X116916466Y-93917141D02*
X116916466Y-93679046D01*
X116916466Y-93679046D02*
X116868847Y-93583808D01*
X154059523Y-87087419D02*
X154059523Y-87896942D01*
X154059523Y-87896942D02*
X154107142Y-87992180D01*
X154107142Y-87992180D02*
X154154761Y-88039800D01*
X154154761Y-88039800D02*
X154249999Y-88087419D01*
X154249999Y-88087419D02*
X154440475Y-88087419D01*
X154440475Y-88087419D02*
X154535713Y-88039800D01*
X154535713Y-88039800D02*
X154583332Y-87992180D01*
X154583332Y-87992180D02*
X154630951Y-87896942D01*
X154630951Y-87896942D02*
X154630951Y-87087419D01*
X155011904Y-87087419D02*
X155249999Y-88087419D01*
X155249999Y-88087419D02*
X155440475Y-87373133D01*
X155440475Y-87373133D02*
X155630951Y-88087419D01*
X155630951Y-88087419D02*
X155869047Y-87087419D01*
X156583332Y-87563609D02*
X156726189Y-87611228D01*
X156726189Y-87611228D02*
X156773808Y-87658847D01*
X156773808Y-87658847D02*
X156821427Y-87754085D01*
X156821427Y-87754085D02*
X156821427Y-87896942D01*
X156821427Y-87896942D02*
X156773808Y-87992180D01*
X156773808Y-87992180D02*
X156726189Y-88039800D01*
X156726189Y-88039800D02*
X156630951Y-88087419D01*
X156630951Y-88087419D02*
X156249999Y-88087419D01*
X156249999Y-88087419D02*
X156249999Y-87087419D01*
X156249999Y-87087419D02*
X156583332Y-87087419D01*
X156583332Y-87087419D02*
X156678570Y-87135038D01*
X156678570Y-87135038D02*
X156726189Y-87182657D01*
X156726189Y-87182657D02*
X156773808Y-87277895D01*
X156773808Y-87277895D02*
X156773808Y-87373133D01*
X156773808Y-87373133D02*
X156726189Y-87468371D01*
X156726189Y-87468371D02*
X156678570Y-87515990D01*
X156678570Y-87515990D02*
X156583332Y-87563609D01*
X156583332Y-87563609D02*
X156249999Y-87563609D01*
X157964285Y-87801704D02*
X158440475Y-87801704D01*
X157869047Y-88087419D02*
X158202380Y-87087419D01*
X158202380Y-87087419D02*
X158535713Y-88087419D01*
X158869047Y-87420752D02*
X158869047Y-88087419D01*
X158869047Y-87515990D02*
X158916666Y-87468371D01*
X158916666Y-87468371D02*
X159011904Y-87420752D01*
X159011904Y-87420752D02*
X159154761Y-87420752D01*
X159154761Y-87420752D02*
X159249999Y-87468371D01*
X159249999Y-87468371D02*
X159297618Y-87563609D01*
X159297618Y-87563609D02*
X159297618Y-88087419D01*
X159630952Y-87420752D02*
X160011904Y-87420752D01*
X159773809Y-87087419D02*
X159773809Y-87944561D01*
X159773809Y-87944561D02*
X159821428Y-88039800D01*
X159821428Y-88039800D02*
X159916666Y-88087419D01*
X159916666Y-88087419D02*
X160011904Y-88087419D01*
X160726190Y-88039800D02*
X160630952Y-88087419D01*
X160630952Y-88087419D02*
X160440476Y-88087419D01*
X160440476Y-88087419D02*
X160345238Y-88039800D01*
X160345238Y-88039800D02*
X160297619Y-87944561D01*
X160297619Y-87944561D02*
X160297619Y-87563609D01*
X160297619Y-87563609D02*
X160345238Y-87468371D01*
X160345238Y-87468371D02*
X160440476Y-87420752D01*
X160440476Y-87420752D02*
X160630952Y-87420752D01*
X160630952Y-87420752D02*
X160726190Y-87468371D01*
X160726190Y-87468371D02*
X160773809Y-87563609D01*
X160773809Y-87563609D02*
X160773809Y-87658847D01*
X160773809Y-87658847D02*
X160297619Y-87754085D01*
X161202381Y-87420752D02*
X161202381Y-88087419D01*
X161202381Y-87515990D02*
X161250000Y-87468371D01*
X161250000Y-87468371D02*
X161345238Y-87420752D01*
X161345238Y-87420752D02*
X161488095Y-87420752D01*
X161488095Y-87420752D02*
X161583333Y-87468371D01*
X161583333Y-87468371D02*
X161630952Y-87563609D01*
X161630952Y-87563609D02*
X161630952Y-88087419D01*
X162107143Y-87420752D02*
X162107143Y-88087419D01*
X162107143Y-87515990D02*
X162154762Y-87468371D01*
X162154762Y-87468371D02*
X162250000Y-87420752D01*
X162250000Y-87420752D02*
X162392857Y-87420752D01*
X162392857Y-87420752D02*
X162488095Y-87468371D01*
X162488095Y-87468371D02*
X162535714Y-87563609D01*
X162535714Y-87563609D02*
X162535714Y-88087419D01*
X163440476Y-88087419D02*
X163440476Y-87563609D01*
X163440476Y-87563609D02*
X163392857Y-87468371D01*
X163392857Y-87468371D02*
X163297619Y-87420752D01*
X163297619Y-87420752D02*
X163107143Y-87420752D01*
X163107143Y-87420752D02*
X163011905Y-87468371D01*
X163440476Y-88039800D02*
X163345238Y-88087419D01*
X163345238Y-88087419D02*
X163107143Y-88087419D01*
X163107143Y-88087419D02*
X163011905Y-88039800D01*
X163011905Y-88039800D02*
X162964286Y-87944561D01*
X162964286Y-87944561D02*
X162964286Y-87849323D01*
X162964286Y-87849323D02*
X163011905Y-87754085D01*
X163011905Y-87754085D02*
X163107143Y-87706466D01*
X163107143Y-87706466D02*
X163345238Y-87706466D01*
X163345238Y-87706466D02*
X163440476Y-87658847D01*
X182888095Y-98517419D02*
X182888095Y-99326942D01*
X182888095Y-99326942D02*
X182935714Y-99422180D01*
X182935714Y-99422180D02*
X182983333Y-99469800D01*
X182983333Y-99469800D02*
X183078571Y-99517419D01*
X183078571Y-99517419D02*
X183269047Y-99517419D01*
X183269047Y-99517419D02*
X183364285Y-99469800D01*
X183364285Y-99469800D02*
X183411904Y-99422180D01*
X183411904Y-99422180D02*
X183459523Y-99326942D01*
X183459523Y-99326942D02*
X183459523Y-98517419D01*
X183888095Y-99469800D02*
X184030952Y-99517419D01*
X184030952Y-99517419D02*
X184269047Y-99517419D01*
X184269047Y-99517419D02*
X184364285Y-99469800D01*
X184364285Y-99469800D02*
X184411904Y-99422180D01*
X184411904Y-99422180D02*
X184459523Y-99326942D01*
X184459523Y-99326942D02*
X184459523Y-99231704D01*
X184459523Y-99231704D02*
X184411904Y-99136466D01*
X184411904Y-99136466D02*
X184364285Y-99088847D01*
X184364285Y-99088847D02*
X184269047Y-99041228D01*
X184269047Y-99041228D02*
X184078571Y-98993609D01*
X184078571Y-98993609D02*
X183983333Y-98945990D01*
X183983333Y-98945990D02*
X183935714Y-98898371D01*
X183935714Y-98898371D02*
X183888095Y-98803133D01*
X183888095Y-98803133D02*
X183888095Y-98707895D01*
X183888095Y-98707895D02*
X183935714Y-98612657D01*
X183935714Y-98612657D02*
X183983333Y-98565038D01*
X183983333Y-98565038D02*
X184078571Y-98517419D01*
X184078571Y-98517419D02*
X184316666Y-98517419D01*
X184316666Y-98517419D02*
X184459523Y-98565038D01*
X185221428Y-98993609D02*
X185364285Y-99041228D01*
X185364285Y-99041228D02*
X185411904Y-99088847D01*
X185411904Y-99088847D02*
X185459523Y-99184085D01*
X185459523Y-99184085D02*
X185459523Y-99326942D01*
X185459523Y-99326942D02*
X185411904Y-99422180D01*
X185411904Y-99422180D02*
X185364285Y-99469800D01*
X185364285Y-99469800D02*
X185269047Y-99517419D01*
X185269047Y-99517419D02*
X184888095Y-99517419D01*
X184888095Y-99517419D02*
X184888095Y-98517419D01*
X184888095Y-98517419D02*
X185221428Y-98517419D01*
X185221428Y-98517419D02*
X185316666Y-98565038D01*
X185316666Y-98565038D02*
X185364285Y-98612657D01*
X185364285Y-98612657D02*
X185411904Y-98707895D01*
X185411904Y-98707895D02*
X185411904Y-98803133D01*
X185411904Y-98803133D02*
X185364285Y-98898371D01*
X185364285Y-98898371D02*
X185316666Y-98945990D01*
X185316666Y-98945990D02*
X185221428Y-98993609D01*
X185221428Y-98993609D02*
X184888095Y-98993609D01*
X104547419Y-108427144D02*
X104547419Y-108903334D01*
X104547419Y-108903334D02*
X105023609Y-108950953D01*
X105023609Y-108950953D02*
X104975990Y-108903334D01*
X104975990Y-108903334D02*
X104928371Y-108808096D01*
X104928371Y-108808096D02*
X104928371Y-108570001D01*
X104928371Y-108570001D02*
X104975990Y-108474763D01*
X104975990Y-108474763D02*
X105023609Y-108427144D01*
X105023609Y-108427144D02*
X105118847Y-108379525D01*
X105118847Y-108379525D02*
X105356942Y-108379525D01*
X105356942Y-108379525D02*
X105452180Y-108427144D01*
X105452180Y-108427144D02*
X105499800Y-108474763D01*
X105499800Y-108474763D02*
X105547419Y-108570001D01*
X105547419Y-108570001D02*
X105547419Y-108808096D01*
X105547419Y-108808096D02*
X105499800Y-108903334D01*
X105499800Y-108903334D02*
X105452180Y-108950953D01*
X104547419Y-108093810D02*
X105547419Y-107760477D01*
X105547419Y-107760477D02*
X104547419Y-107427144D01*
X105642657Y-107331906D02*
X105642657Y-106570001D01*
X105547419Y-106331905D02*
X104547419Y-106331905D01*
X104547419Y-106331905D02*
X104547419Y-106093810D01*
X104547419Y-106093810D02*
X104595038Y-105950953D01*
X104595038Y-105950953D02*
X104690276Y-105855715D01*
X104690276Y-105855715D02*
X104785514Y-105808096D01*
X104785514Y-105808096D02*
X104975990Y-105760477D01*
X104975990Y-105760477D02*
X105118847Y-105760477D01*
X105118847Y-105760477D02*
X105309323Y-105808096D01*
X105309323Y-105808096D02*
X105404561Y-105855715D01*
X105404561Y-105855715D02*
X105499800Y-105950953D01*
X105499800Y-105950953D02*
X105547419Y-106093810D01*
X105547419Y-106093810D02*
X105547419Y-106331905D01*
X105452180Y-104760477D02*
X105499800Y-104808096D01*
X105499800Y-104808096D02*
X105547419Y-104950953D01*
X105547419Y-104950953D02*
X105547419Y-105046191D01*
X105547419Y-105046191D02*
X105499800Y-105189048D01*
X105499800Y-105189048D02*
X105404561Y-105284286D01*
X105404561Y-105284286D02*
X105309323Y-105331905D01*
X105309323Y-105331905D02*
X105118847Y-105379524D01*
X105118847Y-105379524D02*
X104975990Y-105379524D01*
X104975990Y-105379524D02*
X104785514Y-105331905D01*
X104785514Y-105331905D02*
X104690276Y-105284286D01*
X104690276Y-105284286D02*
X104595038Y-105189048D01*
X104595038Y-105189048D02*
X104547419Y-105046191D01*
X104547419Y-105046191D02*
X104547419Y-104950953D01*
X104547419Y-104950953D02*
X104595038Y-104808096D01*
X104595038Y-104808096D02*
X104642657Y-104760477D01*
X105642657Y-104570001D02*
X105642657Y-103808096D01*
X105547419Y-103570000D02*
X104547419Y-103570000D01*
X104547419Y-103570000D02*
X104547419Y-103331905D01*
X104547419Y-103331905D02*
X104595038Y-103189048D01*
X104595038Y-103189048D02*
X104690276Y-103093810D01*
X104690276Y-103093810D02*
X104785514Y-103046191D01*
X104785514Y-103046191D02*
X104975990Y-102998572D01*
X104975990Y-102998572D02*
X105118847Y-102998572D01*
X105118847Y-102998572D02*
X105309323Y-103046191D01*
X105309323Y-103046191D02*
X105404561Y-103093810D01*
X105404561Y-103093810D02*
X105499800Y-103189048D01*
X105499800Y-103189048D02*
X105547419Y-103331905D01*
X105547419Y-103331905D02*
X105547419Y-103570000D01*
X105452180Y-101998572D02*
X105499800Y-102046191D01*
X105499800Y-102046191D02*
X105547419Y-102189048D01*
X105547419Y-102189048D02*
X105547419Y-102284286D01*
X105547419Y-102284286D02*
X105499800Y-102427143D01*
X105499800Y-102427143D02*
X105404561Y-102522381D01*
X105404561Y-102522381D02*
X105309323Y-102570000D01*
X105309323Y-102570000D02*
X105118847Y-102617619D01*
X105118847Y-102617619D02*
X104975990Y-102617619D01*
X104975990Y-102617619D02*
X104785514Y-102570000D01*
X104785514Y-102570000D02*
X104690276Y-102522381D01*
X104690276Y-102522381D02*
X104595038Y-102427143D01*
X104595038Y-102427143D02*
X104547419Y-102284286D01*
X104547419Y-102284286D02*
X104547419Y-102189048D01*
X104547419Y-102189048D02*
X104595038Y-102046191D01*
X104595038Y-102046191D02*
X104642657Y-101998572D01*
X105642657Y-101808096D02*
X105642657Y-101046191D01*
X105452180Y-100236667D02*
X105499800Y-100284286D01*
X105499800Y-100284286D02*
X105547419Y-100427143D01*
X105547419Y-100427143D02*
X105547419Y-100522381D01*
X105547419Y-100522381D02*
X105499800Y-100665238D01*
X105499800Y-100665238D02*
X105404561Y-100760476D01*
X105404561Y-100760476D02*
X105309323Y-100808095D01*
X105309323Y-100808095D02*
X105118847Y-100855714D01*
X105118847Y-100855714D02*
X104975990Y-100855714D01*
X104975990Y-100855714D02*
X104785514Y-100808095D01*
X104785514Y-100808095D02*
X104690276Y-100760476D01*
X104690276Y-100760476D02*
X104595038Y-100665238D01*
X104595038Y-100665238D02*
X104547419Y-100522381D01*
X104547419Y-100522381D02*
X104547419Y-100427143D01*
X104547419Y-100427143D02*
X104595038Y-100284286D01*
X104595038Y-100284286D02*
X104642657Y-100236667D01*
X105547419Y-99665238D02*
X105499800Y-99760476D01*
X105499800Y-99760476D02*
X105452180Y-99808095D01*
X105452180Y-99808095D02*
X105356942Y-99855714D01*
X105356942Y-99855714D02*
X105071228Y-99855714D01*
X105071228Y-99855714D02*
X104975990Y-99808095D01*
X104975990Y-99808095D02*
X104928371Y-99760476D01*
X104928371Y-99760476D02*
X104880752Y-99665238D01*
X104880752Y-99665238D02*
X104880752Y-99522381D01*
X104880752Y-99522381D02*
X104928371Y-99427143D01*
X104928371Y-99427143D02*
X104975990Y-99379524D01*
X104975990Y-99379524D02*
X105071228Y-99331905D01*
X105071228Y-99331905D02*
X105356942Y-99331905D01*
X105356942Y-99331905D02*
X105452180Y-99379524D01*
X105452180Y-99379524D02*
X105499800Y-99427143D01*
X105499800Y-99427143D02*
X105547419Y-99522381D01*
X105547419Y-99522381D02*
X105547419Y-99665238D01*
X104880752Y-98903333D02*
X105547419Y-98903333D01*
X104975990Y-98903333D02*
X104928371Y-98855714D01*
X104928371Y-98855714D02*
X104880752Y-98760476D01*
X104880752Y-98760476D02*
X104880752Y-98617619D01*
X104880752Y-98617619D02*
X104928371Y-98522381D01*
X104928371Y-98522381D02*
X105023609Y-98474762D01*
X105023609Y-98474762D02*
X105547419Y-98474762D01*
X104880752Y-98093809D02*
X105547419Y-97855714D01*
X105547419Y-97855714D02*
X104880752Y-97617619D01*
X105499800Y-96855714D02*
X105547419Y-96950952D01*
X105547419Y-96950952D02*
X105547419Y-97141428D01*
X105547419Y-97141428D02*
X105499800Y-97236666D01*
X105499800Y-97236666D02*
X105404561Y-97284285D01*
X105404561Y-97284285D02*
X105023609Y-97284285D01*
X105023609Y-97284285D02*
X104928371Y-97236666D01*
X104928371Y-97236666D02*
X104880752Y-97141428D01*
X104880752Y-97141428D02*
X104880752Y-96950952D01*
X104880752Y-96950952D02*
X104928371Y-96855714D01*
X104928371Y-96855714D02*
X105023609Y-96808095D01*
X105023609Y-96808095D02*
X105118847Y-96808095D01*
X105118847Y-96808095D02*
X105214085Y-97284285D01*
X105547419Y-96379523D02*
X104880752Y-96379523D01*
X105071228Y-96379523D02*
X104975990Y-96331904D01*
X104975990Y-96331904D02*
X104928371Y-96284285D01*
X104928371Y-96284285D02*
X104880752Y-96189047D01*
X104880752Y-96189047D02*
X104880752Y-96093809D01*
X104880752Y-95903332D02*
X104880752Y-95522380D01*
X104547419Y-95760475D02*
X105404561Y-95760475D01*
X105404561Y-95760475D02*
X105499800Y-95712856D01*
X105499800Y-95712856D02*
X105547419Y-95617618D01*
X105547419Y-95617618D02*
X105547419Y-95522380D01*
X105499800Y-94808094D02*
X105547419Y-94903332D01*
X105547419Y-94903332D02*
X105547419Y-95093808D01*
X105547419Y-95093808D02*
X105499800Y-95189046D01*
X105499800Y-95189046D02*
X105404561Y-95236665D01*
X105404561Y-95236665D02*
X105023609Y-95236665D01*
X105023609Y-95236665D02*
X104928371Y-95189046D01*
X104928371Y-95189046D02*
X104880752Y-95093808D01*
X104880752Y-95093808D02*
X104880752Y-94903332D01*
X104880752Y-94903332D02*
X104928371Y-94808094D01*
X104928371Y-94808094D02*
X105023609Y-94760475D01*
X105023609Y-94760475D02*
X105118847Y-94760475D01*
X105118847Y-94760475D02*
X105214085Y-95236665D01*
X105547419Y-94331903D02*
X104880752Y-94331903D01*
X105071228Y-94331903D02*
X104975990Y-94284284D01*
X104975990Y-94284284D02*
X104928371Y-94236665D01*
X104928371Y-94236665D02*
X104880752Y-94141427D01*
X104880752Y-94141427D02*
X104880752Y-94046189D01*
X105547419Y-93189046D02*
X105547419Y-93760474D01*
X105547419Y-93474760D02*
X104547419Y-93474760D01*
X104547419Y-93474760D02*
X104690276Y-93569998D01*
X104690276Y-93569998D02*
X104785514Y-93665236D01*
X104785514Y-93665236D02*
X104833133Y-93760474D01*
X106326466Y-88695788D02*
X106326466Y-87933884D01*
D13*
X106430440Y-111412070D02*
X106454250Y-111435879D01*
X106454250Y-111435879D02*
X106478059Y-111507308D01*
X106478059Y-111507308D02*
X106478059Y-111554927D01*
X106478059Y-111554927D02*
X106454250Y-111626355D01*
X106454250Y-111626355D02*
X106406630Y-111673974D01*
X106406630Y-111673974D02*
X106359011Y-111697784D01*
X106359011Y-111697784D02*
X106263773Y-111721593D01*
X106263773Y-111721593D02*
X106192345Y-111721593D01*
X106192345Y-111721593D02*
X106097107Y-111697784D01*
X106097107Y-111697784D02*
X106049488Y-111673974D01*
X106049488Y-111673974D02*
X106001869Y-111626355D01*
X106001869Y-111626355D02*
X105978059Y-111554927D01*
X105978059Y-111554927D02*
X105978059Y-111507308D01*
X105978059Y-111507308D02*
X106001869Y-111435879D01*
X106001869Y-111435879D02*
X106025678Y-111412070D01*
X105978059Y-111269212D02*
X105978059Y-110983498D01*
X106478059Y-111126355D02*
X105978059Y-111126355D01*
X106478059Y-110578737D02*
X106478059Y-110816832D01*
X106478059Y-110816832D02*
X105978059Y-110816832D01*
D10*
X103786466Y-111555788D02*
X103786466Y-110793884D01*
X104167419Y-111174836D02*
X103405514Y-111174836D01*
X101042419Y-113553808D02*
X100042419Y-113553808D01*
X101042419Y-113077618D02*
X100042419Y-113077618D01*
X100042419Y-113077618D02*
X101042419Y-112506190D01*
X101042419Y-112506190D02*
X100042419Y-112506190D01*
X103786466Y-88695788D02*
X103786466Y-87933884D01*
X104167419Y-88314836D02*
X103405514Y-88314836D01*
X100042419Y-91169999D02*
X100042419Y-90979523D01*
X100042419Y-90979523D02*
X100090038Y-90884285D01*
X100090038Y-90884285D02*
X100185276Y-90789047D01*
X100185276Y-90789047D02*
X100375752Y-90741428D01*
X100375752Y-90741428D02*
X100709085Y-90741428D01*
X100709085Y-90741428D02*
X100899561Y-90789047D01*
X100899561Y-90789047D02*
X100994800Y-90884285D01*
X100994800Y-90884285D02*
X101042419Y-90979523D01*
X101042419Y-90979523D02*
X101042419Y-91169999D01*
X101042419Y-91169999D02*
X100994800Y-91265237D01*
X100994800Y-91265237D02*
X100899561Y-91360475D01*
X100899561Y-91360475D02*
X100709085Y-91408094D01*
X100709085Y-91408094D02*
X100375752Y-91408094D01*
X100375752Y-91408094D02*
X100185276Y-91360475D01*
X100185276Y-91360475D02*
X100090038Y-91265237D01*
X100090038Y-91265237D02*
X100042419Y-91169999D01*
X100042419Y-90312856D02*
X100851942Y-90312856D01*
X100851942Y-90312856D02*
X100947180Y-90265237D01*
X100947180Y-90265237D02*
X100994800Y-90217618D01*
X100994800Y-90217618D02*
X101042419Y-90122380D01*
X101042419Y-90122380D02*
X101042419Y-89931904D01*
X101042419Y-89931904D02*
X100994800Y-89836666D01*
X100994800Y-89836666D02*
X100947180Y-89789047D01*
X100947180Y-89789047D02*
X100851942Y-89741428D01*
X100851942Y-89741428D02*
X100042419Y-89741428D01*
X100042419Y-89408094D02*
X100042419Y-88836666D01*
X101042419Y-89122380D02*
X100042419Y-89122380D01*
X108866466Y-111555788D02*
X108866466Y-110793884D01*
D13*
X131635290Y-120769297D02*
X131397195Y-120935963D01*
X131635290Y-121055011D02*
X131135290Y-121055011D01*
X131135290Y-121055011D02*
X131135290Y-120864535D01*
X131135290Y-120864535D02*
X131159100Y-120816916D01*
X131159100Y-120816916D02*
X131182909Y-120793106D01*
X131182909Y-120793106D02*
X131230528Y-120769297D01*
X131230528Y-120769297D02*
X131301957Y-120769297D01*
X131301957Y-120769297D02*
X131349576Y-120793106D01*
X131349576Y-120793106D02*
X131373385Y-120816916D01*
X131373385Y-120816916D02*
X131397195Y-120864535D01*
X131397195Y-120864535D02*
X131397195Y-121055011D01*
X131635290Y-120293106D02*
X131635290Y-120578820D01*
X131635290Y-120435963D02*
X131135290Y-120435963D01*
X131135290Y-120435963D02*
X131206719Y-120483582D01*
X131206719Y-120483582D02*
X131254338Y-120531201D01*
X131254338Y-120531201D02*
X131278147Y-120578820D01*
X131855678Y-121685713D02*
X131831869Y-121661904D01*
X131831869Y-121661904D02*
X131808059Y-121614285D01*
X131808059Y-121614285D02*
X131808059Y-121495237D01*
X131808059Y-121495237D02*
X131831869Y-121447618D01*
X131831869Y-121447618D02*
X131855678Y-121423809D01*
X131855678Y-121423809D02*
X131903297Y-121399999D01*
X131903297Y-121399999D02*
X131950916Y-121399999D01*
X131950916Y-121399999D02*
X132022345Y-121423809D01*
X132022345Y-121423809D02*
X132308059Y-121709523D01*
X132308059Y-121709523D02*
X132308059Y-121399999D01*
X132260440Y-121185714D02*
X132284250Y-121161904D01*
X132284250Y-121161904D02*
X132308059Y-121185714D01*
X132308059Y-121185714D02*
X132284250Y-121209523D01*
X132284250Y-121209523D02*
X132260440Y-121185714D01*
X132260440Y-121185714D02*
X132308059Y-121185714D01*
X131855678Y-120971428D02*
X131831869Y-120947619D01*
X131831869Y-120947619D02*
X131808059Y-120900000D01*
X131808059Y-120900000D02*
X131808059Y-120780952D01*
X131808059Y-120780952D02*
X131831869Y-120733333D01*
X131831869Y-120733333D02*
X131855678Y-120709524D01*
X131855678Y-120709524D02*
X131903297Y-120685714D01*
X131903297Y-120685714D02*
X131950916Y-120685714D01*
X131950916Y-120685714D02*
X132022345Y-120709524D01*
X132022345Y-120709524D02*
X132308059Y-120995238D01*
X132308059Y-120995238D02*
X132308059Y-120685714D01*
X132308059Y-120471429D02*
X131808059Y-120471429D01*
X132308059Y-120185715D02*
X132022345Y-120400000D01*
X131808059Y-120185715D02*
X132093773Y-120471429D01*
X132308059Y-119995238D02*
X132308059Y-119876191D01*
X132308059Y-119876191D02*
X132212821Y-119876191D01*
X132212821Y-119876191D02*
X132189011Y-119923810D01*
X132189011Y-119923810D02*
X132141392Y-119971429D01*
X132141392Y-119971429D02*
X132069964Y-119995238D01*
X132069964Y-119995238D02*
X131950916Y-119995238D01*
X131950916Y-119995238D02*
X131879488Y-119971429D01*
X131879488Y-119971429D02*
X131831869Y-119923810D01*
X131831869Y-119923810D02*
X131808059Y-119852381D01*
X131808059Y-119852381D02*
X131808059Y-119757143D01*
X131808059Y-119757143D02*
X131831869Y-119685715D01*
X131831869Y-119685715D02*
X131879488Y-119638096D01*
X131879488Y-119638096D02*
X131950916Y-119614286D01*
X131950916Y-119614286D02*
X132069964Y-119614286D01*
X132069964Y-119614286D02*
X132141392Y-119638096D01*
X132141392Y-119638096D02*
X132189011Y-119685715D01*
X132189011Y-119685715D02*
X132212821Y-119733334D01*
X132212821Y-119733334D02*
X132308059Y-119733334D01*
X132308059Y-119733334D02*
X132308059Y-119614286D01*
D10*
X115729523Y-120607419D02*
X115396190Y-120131228D01*
X115158095Y-120607419D02*
X115158095Y-119607419D01*
X115158095Y-119607419D02*
X115539047Y-119607419D01*
X115539047Y-119607419D02*
X115634285Y-119655038D01*
X115634285Y-119655038D02*
X115681904Y-119702657D01*
X115681904Y-119702657D02*
X115729523Y-119797895D01*
X115729523Y-119797895D02*
X115729523Y-119940752D01*
X115729523Y-119940752D02*
X115681904Y-120035990D01*
X115681904Y-120035990D02*
X115634285Y-120083609D01*
X115634285Y-120083609D02*
X115539047Y-120131228D01*
X115539047Y-120131228D02*
X115158095Y-120131228D01*
X116681904Y-119655038D02*
X116586666Y-119607419D01*
X116586666Y-119607419D02*
X116443809Y-119607419D01*
X116443809Y-119607419D02*
X116300952Y-119655038D01*
X116300952Y-119655038D02*
X116205714Y-119750276D01*
X116205714Y-119750276D02*
X116158095Y-119845514D01*
X116158095Y-119845514D02*
X116110476Y-120035990D01*
X116110476Y-120035990D02*
X116110476Y-120178847D01*
X116110476Y-120178847D02*
X116158095Y-120369323D01*
X116158095Y-120369323D02*
X116205714Y-120464561D01*
X116205714Y-120464561D02*
X116300952Y-120559800D01*
X116300952Y-120559800D02*
X116443809Y-120607419D01*
X116443809Y-120607419D02*
X116539047Y-120607419D01*
X116539047Y-120607419D02*
X116681904Y-120559800D01*
X116681904Y-120559800D02*
X116729523Y-120512180D01*
X116729523Y-120512180D02*
X116729523Y-120178847D01*
X116729523Y-120178847D02*
X116539047Y-120178847D01*
X117491428Y-120083609D02*
X117634285Y-120131228D01*
X117634285Y-120131228D02*
X117681904Y-120178847D01*
X117681904Y-120178847D02*
X117729523Y-120274085D01*
X117729523Y-120274085D02*
X117729523Y-120416942D01*
X117729523Y-120416942D02*
X117681904Y-120512180D01*
X117681904Y-120512180D02*
X117634285Y-120559800D01*
X117634285Y-120559800D02*
X117539047Y-120607419D01*
X117539047Y-120607419D02*
X117158095Y-120607419D01*
X117158095Y-120607419D02*
X117158095Y-119607419D01*
X117158095Y-119607419D02*
X117491428Y-119607419D01*
X117491428Y-119607419D02*
X117586666Y-119655038D01*
X117586666Y-119655038D02*
X117634285Y-119702657D01*
X117634285Y-119702657D02*
X117681904Y-119797895D01*
X117681904Y-119797895D02*
X117681904Y-119893133D01*
X117681904Y-119893133D02*
X117634285Y-119988371D01*
X117634285Y-119988371D02*
X117586666Y-120035990D01*
X117586666Y-120035990D02*
X117491428Y-120083609D01*
X117491428Y-120083609D02*
X117158095Y-120083609D01*
X117920000Y-120702657D02*
X118681904Y-120702657D01*
X119396190Y-120607419D02*
X118920000Y-120607419D01*
X118920000Y-120607419D02*
X118920000Y-119607419D01*
X119729524Y-120083609D02*
X120062857Y-120083609D01*
X120205714Y-120607419D02*
X119729524Y-120607419D01*
X119729524Y-120607419D02*
X119729524Y-119607419D01*
X119729524Y-119607419D02*
X120205714Y-119607419D01*
X120634286Y-120607419D02*
X120634286Y-119607419D01*
X120634286Y-119607419D02*
X120872381Y-119607419D01*
X120872381Y-119607419D02*
X121015238Y-119655038D01*
X121015238Y-119655038D02*
X121110476Y-119750276D01*
X121110476Y-119750276D02*
X121158095Y-119845514D01*
X121158095Y-119845514D02*
X121205714Y-120035990D01*
X121205714Y-120035990D02*
X121205714Y-120178847D01*
X121205714Y-120178847D02*
X121158095Y-120369323D01*
X121158095Y-120369323D02*
X121110476Y-120464561D01*
X121110476Y-120464561D02*
X121015238Y-120559800D01*
X121015238Y-120559800D02*
X120872381Y-120607419D01*
X120872381Y-120607419D02*
X120634286Y-120607419D01*
X121396191Y-120702657D02*
X122158095Y-120702657D01*
X122348572Y-120559800D02*
X122491429Y-120607419D01*
X122491429Y-120607419D02*
X122729524Y-120607419D01*
X122729524Y-120607419D02*
X122824762Y-120559800D01*
X122824762Y-120559800D02*
X122872381Y-120512180D01*
X122872381Y-120512180D02*
X122920000Y-120416942D01*
X122920000Y-120416942D02*
X122920000Y-120321704D01*
X122920000Y-120321704D02*
X122872381Y-120226466D01*
X122872381Y-120226466D02*
X122824762Y-120178847D01*
X122824762Y-120178847D02*
X122729524Y-120131228D01*
X122729524Y-120131228D02*
X122539048Y-120083609D01*
X122539048Y-120083609D02*
X122443810Y-120035990D01*
X122443810Y-120035990D02*
X122396191Y-119988371D01*
X122396191Y-119988371D02*
X122348572Y-119893133D01*
X122348572Y-119893133D02*
X122348572Y-119797895D01*
X122348572Y-119797895D02*
X122396191Y-119702657D01*
X122396191Y-119702657D02*
X122443810Y-119655038D01*
X122443810Y-119655038D02*
X122539048Y-119607419D01*
X122539048Y-119607419D02*
X122777143Y-119607419D01*
X122777143Y-119607419D02*
X122920000Y-119655038D01*
X124015238Y-120702657D02*
X123920000Y-120655038D01*
X123920000Y-120655038D02*
X123824762Y-120559800D01*
X123824762Y-120559800D02*
X123681905Y-120416942D01*
X123681905Y-120416942D02*
X123586667Y-120369323D01*
X123586667Y-120369323D02*
X123491429Y-120369323D01*
X123539048Y-120607419D02*
X123443810Y-120559800D01*
X123443810Y-120559800D02*
X123348572Y-120464561D01*
X123348572Y-120464561D02*
X123300953Y-120274085D01*
X123300953Y-120274085D02*
X123300953Y-119940752D01*
X123300953Y-119940752D02*
X123348572Y-119750276D01*
X123348572Y-119750276D02*
X123443810Y-119655038D01*
X123443810Y-119655038D02*
X123539048Y-119607419D01*
X123539048Y-119607419D02*
X123729524Y-119607419D01*
X123729524Y-119607419D02*
X123824762Y-119655038D01*
X123824762Y-119655038D02*
X123920000Y-119750276D01*
X123920000Y-119750276D02*
X123967619Y-119940752D01*
X123967619Y-119940752D02*
X123967619Y-120274085D01*
X123967619Y-120274085D02*
X123920000Y-120464561D01*
X123920000Y-120464561D02*
X123824762Y-120559800D01*
X123824762Y-120559800D02*
X123729524Y-120607419D01*
X123729524Y-120607419D02*
X123539048Y-120607419D01*
X124348572Y-120321704D02*
X124824762Y-120321704D01*
X124253334Y-120607419D02*
X124586667Y-119607419D01*
X124586667Y-119607419D02*
X124920000Y-120607419D01*
X125253334Y-119607419D02*
X125253334Y-120416942D01*
X125253334Y-120416942D02*
X125300953Y-120512180D01*
X125300953Y-120512180D02*
X125348572Y-120559800D01*
X125348572Y-120559800D02*
X125443810Y-120607419D01*
X125443810Y-120607419D02*
X125634286Y-120607419D01*
X125634286Y-120607419D02*
X125729524Y-120559800D01*
X125729524Y-120559800D02*
X125777143Y-120512180D01*
X125777143Y-120512180D02*
X125824762Y-120416942D01*
X125824762Y-120416942D02*
X125824762Y-119607419D01*
X126872381Y-120607419D02*
X126539048Y-120131228D01*
X126300953Y-120607419D02*
X126300953Y-119607419D01*
X126300953Y-119607419D02*
X126681905Y-119607419D01*
X126681905Y-119607419D02*
X126777143Y-119655038D01*
X126777143Y-119655038D02*
X126824762Y-119702657D01*
X126824762Y-119702657D02*
X126872381Y-119797895D01*
X126872381Y-119797895D02*
X126872381Y-119940752D01*
X126872381Y-119940752D02*
X126824762Y-120035990D01*
X126824762Y-120035990D02*
X126777143Y-120083609D01*
X126777143Y-120083609D02*
X126681905Y-120131228D01*
X126681905Y-120131228D02*
X126300953Y-120131228D01*
X127300953Y-120083609D02*
X127634286Y-120083609D01*
X127777143Y-120607419D02*
X127300953Y-120607419D01*
X127300953Y-120607419D02*
X127300953Y-119607419D01*
X127300953Y-119607419D02*
X127777143Y-119607419D01*
X128729524Y-120607419D02*
X128158096Y-120607419D01*
X128443810Y-120607419D02*
X128443810Y-119607419D01*
X128443810Y-119607419D02*
X128348572Y-119750276D01*
X128348572Y-119750276D02*
X128253334Y-119845514D01*
X128253334Y-119845514D02*
X128158096Y-119893133D01*
D12*
X116919999Y-128134619D02*
X117205713Y-128229857D01*
X117205713Y-128229857D02*
X117300951Y-128325095D01*
X117300951Y-128325095D02*
X117396189Y-128515571D01*
X117396189Y-128515571D02*
X117396189Y-128801285D01*
X117396189Y-128801285D02*
X117300951Y-128991761D01*
X117300951Y-128991761D02*
X117205713Y-129087000D01*
X117205713Y-129087000D02*
X117015237Y-129182238D01*
X117015237Y-129182238D02*
X116253332Y-129182238D01*
X116253332Y-129182238D02*
X116253332Y-127182238D01*
X116253332Y-127182238D02*
X116919999Y-127182238D01*
X116919999Y-127182238D02*
X117110475Y-127277476D01*
X117110475Y-127277476D02*
X117205713Y-127372714D01*
X117205713Y-127372714D02*
X117300951Y-127563190D01*
X117300951Y-127563190D02*
X117300951Y-127753666D01*
X117300951Y-127753666D02*
X117205713Y-127944142D01*
X117205713Y-127944142D02*
X117110475Y-128039380D01*
X117110475Y-128039380D02*
X116919999Y-128134619D01*
X116919999Y-128134619D02*
X116253332Y-128134619D01*
X118158094Y-128610809D02*
X119110475Y-128610809D01*
X117967618Y-129182238D02*
X118634284Y-127182238D01*
X118634284Y-127182238D02*
X119300951Y-129182238D01*
X119681904Y-127182238D02*
X120824761Y-127182238D01*
X120253332Y-129182238D02*
X120253332Y-127182238D01*
X121205714Y-127182238D02*
X122348571Y-127182238D01*
X121777142Y-129182238D02*
X121777142Y-127182238D01*
X123015238Y-128134619D02*
X123681905Y-128134619D01*
X123967619Y-129182238D02*
X123015238Y-129182238D01*
X123015238Y-129182238D02*
X123015238Y-127182238D01*
X123015238Y-127182238D02*
X123967619Y-127182238D01*
X125967619Y-129182238D02*
X125300952Y-128229857D01*
X124824762Y-129182238D02*
X124824762Y-127182238D01*
X124824762Y-127182238D02*
X125586667Y-127182238D01*
X125586667Y-127182238D02*
X125777143Y-127277476D01*
X125777143Y-127277476D02*
X125872381Y-127372714D01*
X125872381Y-127372714D02*
X125967619Y-127563190D01*
X125967619Y-127563190D02*
X125967619Y-127848904D01*
X125967619Y-127848904D02*
X125872381Y-128039380D01*
X125872381Y-128039380D02*
X125777143Y-128134619D01*
X125777143Y-128134619D02*
X125586667Y-128229857D01*
X125586667Y-128229857D02*
X124824762Y-128229857D01*
X127205714Y-128229857D02*
X127205714Y-129182238D01*
X126539048Y-127182238D02*
X127205714Y-128229857D01*
X127205714Y-128229857D02*
X127872381Y-127182238D01*
D13*
X119534761Y-116090559D02*
X119368095Y-115852464D01*
X119249047Y-116090559D02*
X119249047Y-115590559D01*
X119249047Y-115590559D02*
X119439523Y-115590559D01*
X119439523Y-115590559D02*
X119487142Y-115614369D01*
X119487142Y-115614369D02*
X119510952Y-115638178D01*
X119510952Y-115638178D02*
X119534761Y-115685797D01*
X119534761Y-115685797D02*
X119534761Y-115757226D01*
X119534761Y-115757226D02*
X119510952Y-115804845D01*
X119510952Y-115804845D02*
X119487142Y-115828654D01*
X119487142Y-115828654D02*
X119439523Y-115852464D01*
X119439523Y-115852464D02*
X119249047Y-115852464D01*
X118713334Y-125165559D02*
X118880000Y-125665559D01*
X118880000Y-125665559D02*
X119046667Y-125165559D01*
X119499047Y-125617940D02*
X119475238Y-125641750D01*
X119475238Y-125641750D02*
X119403809Y-125665559D01*
X119403809Y-125665559D02*
X119356190Y-125665559D01*
X119356190Y-125665559D02*
X119284762Y-125641750D01*
X119284762Y-125641750D02*
X119237143Y-125594130D01*
X119237143Y-125594130D02*
X119213333Y-125546511D01*
X119213333Y-125546511D02*
X119189524Y-125451273D01*
X119189524Y-125451273D02*
X119189524Y-125379845D01*
X119189524Y-125379845D02*
X119213333Y-125284607D01*
X119213333Y-125284607D02*
X119237143Y-125236988D01*
X119237143Y-125236988D02*
X119284762Y-125189369D01*
X119284762Y-125189369D02*
X119356190Y-125165559D01*
X119356190Y-125165559D02*
X119403809Y-125165559D01*
X119403809Y-125165559D02*
X119475238Y-125189369D01*
X119475238Y-125189369D02*
X119499047Y-125213178D01*
X119999047Y-125617940D02*
X119975238Y-125641750D01*
X119975238Y-125641750D02*
X119903809Y-125665559D01*
X119903809Y-125665559D02*
X119856190Y-125665559D01*
X119856190Y-125665559D02*
X119784762Y-125641750D01*
X119784762Y-125641750D02*
X119737143Y-125594130D01*
X119737143Y-125594130D02*
X119713333Y-125546511D01*
X119713333Y-125546511D02*
X119689524Y-125451273D01*
X119689524Y-125451273D02*
X119689524Y-125379845D01*
X119689524Y-125379845D02*
X119713333Y-125284607D01*
X119713333Y-125284607D02*
X119737143Y-125236988D01*
X119737143Y-125236988D02*
X119784762Y-125189369D01*
X119784762Y-125189369D02*
X119856190Y-125165559D01*
X119856190Y-125165559D02*
X119903809Y-125165559D01*
X119903809Y-125165559D02*
X119975238Y-125189369D01*
X119975238Y-125189369D02*
X119999047Y-125213178D01*
X124495714Y-125403654D02*
X124567142Y-125427464D01*
X124567142Y-125427464D02*
X124590952Y-125451273D01*
X124590952Y-125451273D02*
X124614761Y-125498892D01*
X124614761Y-125498892D02*
X124614761Y-125570321D01*
X124614761Y-125570321D02*
X124590952Y-125617940D01*
X124590952Y-125617940D02*
X124567142Y-125641750D01*
X124567142Y-125641750D02*
X124519523Y-125665559D01*
X124519523Y-125665559D02*
X124329047Y-125665559D01*
X124329047Y-125665559D02*
X124329047Y-125165559D01*
X124329047Y-125165559D02*
X124495714Y-125165559D01*
X124495714Y-125165559D02*
X124543333Y-125189369D01*
X124543333Y-125189369D02*
X124567142Y-125213178D01*
X124567142Y-125213178D02*
X124590952Y-125260797D01*
X124590952Y-125260797D02*
X124590952Y-125308416D01*
X124590952Y-125308416D02*
X124567142Y-125356035D01*
X124567142Y-125356035D02*
X124543333Y-125379845D01*
X124543333Y-125379845D02*
X124495714Y-125403654D01*
X124495714Y-125403654D02*
X124329047Y-125403654D01*
X124590952Y-115614369D02*
X124543333Y-115590559D01*
X124543333Y-115590559D02*
X124471904Y-115590559D01*
X124471904Y-115590559D02*
X124400476Y-115614369D01*
X124400476Y-115614369D02*
X124352857Y-115661988D01*
X124352857Y-115661988D02*
X124329047Y-115709607D01*
X124329047Y-115709607D02*
X124305238Y-115804845D01*
X124305238Y-115804845D02*
X124305238Y-115876273D01*
X124305238Y-115876273D02*
X124329047Y-115971511D01*
X124329047Y-115971511D02*
X124352857Y-116019130D01*
X124352857Y-116019130D02*
X124400476Y-116066750D01*
X124400476Y-116066750D02*
X124471904Y-116090559D01*
X124471904Y-116090559D02*
X124519523Y-116090559D01*
X124519523Y-116090559D02*
X124590952Y-116066750D01*
X124590952Y-116066750D02*
X124614761Y-116042940D01*
X124614761Y-116042940D02*
X124614761Y-115876273D01*
X124614761Y-115876273D02*
X124519523Y-115876273D01*
D10*
X143669523Y-120607419D02*
X143336190Y-120131228D01*
X143098095Y-120607419D02*
X143098095Y-119607419D01*
X143098095Y-119607419D02*
X143479047Y-119607419D01*
X143479047Y-119607419D02*
X143574285Y-119655038D01*
X143574285Y-119655038D02*
X143621904Y-119702657D01*
X143621904Y-119702657D02*
X143669523Y-119797895D01*
X143669523Y-119797895D02*
X143669523Y-119940752D01*
X143669523Y-119940752D02*
X143621904Y-120035990D01*
X143621904Y-120035990D02*
X143574285Y-120083609D01*
X143574285Y-120083609D02*
X143479047Y-120131228D01*
X143479047Y-120131228D02*
X143098095Y-120131228D01*
X144621904Y-119655038D02*
X144526666Y-119607419D01*
X144526666Y-119607419D02*
X144383809Y-119607419D01*
X144383809Y-119607419D02*
X144240952Y-119655038D01*
X144240952Y-119655038D02*
X144145714Y-119750276D01*
X144145714Y-119750276D02*
X144098095Y-119845514D01*
X144098095Y-119845514D02*
X144050476Y-120035990D01*
X144050476Y-120035990D02*
X144050476Y-120178847D01*
X144050476Y-120178847D02*
X144098095Y-120369323D01*
X144098095Y-120369323D02*
X144145714Y-120464561D01*
X144145714Y-120464561D02*
X144240952Y-120559800D01*
X144240952Y-120559800D02*
X144383809Y-120607419D01*
X144383809Y-120607419D02*
X144479047Y-120607419D01*
X144479047Y-120607419D02*
X144621904Y-120559800D01*
X144621904Y-120559800D02*
X144669523Y-120512180D01*
X144669523Y-120512180D02*
X144669523Y-120178847D01*
X144669523Y-120178847D02*
X144479047Y-120178847D01*
X145431428Y-120083609D02*
X145574285Y-120131228D01*
X145574285Y-120131228D02*
X145621904Y-120178847D01*
X145621904Y-120178847D02*
X145669523Y-120274085D01*
X145669523Y-120274085D02*
X145669523Y-120416942D01*
X145669523Y-120416942D02*
X145621904Y-120512180D01*
X145621904Y-120512180D02*
X145574285Y-120559800D01*
X145574285Y-120559800D02*
X145479047Y-120607419D01*
X145479047Y-120607419D02*
X145098095Y-120607419D01*
X145098095Y-120607419D02*
X145098095Y-119607419D01*
X145098095Y-119607419D02*
X145431428Y-119607419D01*
X145431428Y-119607419D02*
X145526666Y-119655038D01*
X145526666Y-119655038D02*
X145574285Y-119702657D01*
X145574285Y-119702657D02*
X145621904Y-119797895D01*
X145621904Y-119797895D02*
X145621904Y-119893133D01*
X145621904Y-119893133D02*
X145574285Y-119988371D01*
X145574285Y-119988371D02*
X145526666Y-120035990D01*
X145526666Y-120035990D02*
X145431428Y-120083609D01*
X145431428Y-120083609D02*
X145098095Y-120083609D01*
X145860000Y-120702657D02*
X146621904Y-120702657D01*
X147336190Y-120607419D02*
X146860000Y-120607419D01*
X146860000Y-120607419D02*
X146860000Y-119607419D01*
X147669524Y-120083609D02*
X148002857Y-120083609D01*
X148145714Y-120607419D02*
X147669524Y-120607419D01*
X147669524Y-120607419D02*
X147669524Y-119607419D01*
X147669524Y-119607419D02*
X148145714Y-119607419D01*
X148574286Y-120607419D02*
X148574286Y-119607419D01*
X148574286Y-119607419D02*
X148812381Y-119607419D01*
X148812381Y-119607419D02*
X148955238Y-119655038D01*
X148955238Y-119655038D02*
X149050476Y-119750276D01*
X149050476Y-119750276D02*
X149098095Y-119845514D01*
X149098095Y-119845514D02*
X149145714Y-120035990D01*
X149145714Y-120035990D02*
X149145714Y-120178847D01*
X149145714Y-120178847D02*
X149098095Y-120369323D01*
X149098095Y-120369323D02*
X149050476Y-120464561D01*
X149050476Y-120464561D02*
X148955238Y-120559800D01*
X148955238Y-120559800D02*
X148812381Y-120607419D01*
X148812381Y-120607419D02*
X148574286Y-120607419D01*
X149336191Y-120702657D02*
X150098095Y-120702657D01*
X150288572Y-120559800D02*
X150431429Y-120607419D01*
X150431429Y-120607419D02*
X150669524Y-120607419D01*
X150669524Y-120607419D02*
X150764762Y-120559800D01*
X150764762Y-120559800D02*
X150812381Y-120512180D01*
X150812381Y-120512180D02*
X150860000Y-120416942D01*
X150860000Y-120416942D02*
X150860000Y-120321704D01*
X150860000Y-120321704D02*
X150812381Y-120226466D01*
X150812381Y-120226466D02*
X150764762Y-120178847D01*
X150764762Y-120178847D02*
X150669524Y-120131228D01*
X150669524Y-120131228D02*
X150479048Y-120083609D01*
X150479048Y-120083609D02*
X150383810Y-120035990D01*
X150383810Y-120035990D02*
X150336191Y-119988371D01*
X150336191Y-119988371D02*
X150288572Y-119893133D01*
X150288572Y-119893133D02*
X150288572Y-119797895D01*
X150288572Y-119797895D02*
X150336191Y-119702657D01*
X150336191Y-119702657D02*
X150383810Y-119655038D01*
X150383810Y-119655038D02*
X150479048Y-119607419D01*
X150479048Y-119607419D02*
X150717143Y-119607419D01*
X150717143Y-119607419D02*
X150860000Y-119655038D01*
X151955238Y-120702657D02*
X151860000Y-120655038D01*
X151860000Y-120655038D02*
X151764762Y-120559800D01*
X151764762Y-120559800D02*
X151621905Y-120416942D01*
X151621905Y-120416942D02*
X151526667Y-120369323D01*
X151526667Y-120369323D02*
X151431429Y-120369323D01*
X151479048Y-120607419D02*
X151383810Y-120559800D01*
X151383810Y-120559800D02*
X151288572Y-120464561D01*
X151288572Y-120464561D02*
X151240953Y-120274085D01*
X151240953Y-120274085D02*
X151240953Y-119940752D01*
X151240953Y-119940752D02*
X151288572Y-119750276D01*
X151288572Y-119750276D02*
X151383810Y-119655038D01*
X151383810Y-119655038D02*
X151479048Y-119607419D01*
X151479048Y-119607419D02*
X151669524Y-119607419D01*
X151669524Y-119607419D02*
X151764762Y-119655038D01*
X151764762Y-119655038D02*
X151860000Y-119750276D01*
X151860000Y-119750276D02*
X151907619Y-119940752D01*
X151907619Y-119940752D02*
X151907619Y-120274085D01*
X151907619Y-120274085D02*
X151860000Y-120464561D01*
X151860000Y-120464561D02*
X151764762Y-120559800D01*
X151764762Y-120559800D02*
X151669524Y-120607419D01*
X151669524Y-120607419D02*
X151479048Y-120607419D01*
X152288572Y-120321704D02*
X152764762Y-120321704D01*
X152193334Y-120607419D02*
X152526667Y-119607419D01*
X152526667Y-119607419D02*
X152860000Y-120607419D01*
X153193334Y-119607419D02*
X153193334Y-120416942D01*
X153193334Y-120416942D02*
X153240953Y-120512180D01*
X153240953Y-120512180D02*
X153288572Y-120559800D01*
X153288572Y-120559800D02*
X153383810Y-120607419D01*
X153383810Y-120607419D02*
X153574286Y-120607419D01*
X153574286Y-120607419D02*
X153669524Y-120559800D01*
X153669524Y-120559800D02*
X153717143Y-120512180D01*
X153717143Y-120512180D02*
X153764762Y-120416942D01*
X153764762Y-120416942D02*
X153764762Y-119607419D01*
X154812381Y-120607419D02*
X154479048Y-120131228D01*
X154240953Y-120607419D02*
X154240953Y-119607419D01*
X154240953Y-119607419D02*
X154621905Y-119607419D01*
X154621905Y-119607419D02*
X154717143Y-119655038D01*
X154717143Y-119655038D02*
X154764762Y-119702657D01*
X154764762Y-119702657D02*
X154812381Y-119797895D01*
X154812381Y-119797895D02*
X154812381Y-119940752D01*
X154812381Y-119940752D02*
X154764762Y-120035990D01*
X154764762Y-120035990D02*
X154717143Y-120083609D01*
X154717143Y-120083609D02*
X154621905Y-120131228D01*
X154621905Y-120131228D02*
X154240953Y-120131228D01*
X155240953Y-120083609D02*
X155574286Y-120083609D01*
X155717143Y-120607419D02*
X155240953Y-120607419D01*
X155240953Y-120607419D02*
X155240953Y-119607419D01*
X155240953Y-119607419D02*
X155717143Y-119607419D01*
X156098096Y-119702657D02*
X156145715Y-119655038D01*
X156145715Y-119655038D02*
X156240953Y-119607419D01*
X156240953Y-119607419D02*
X156479048Y-119607419D01*
X156479048Y-119607419D02*
X156574286Y-119655038D01*
X156574286Y-119655038D02*
X156621905Y-119702657D01*
X156621905Y-119702657D02*
X156669524Y-119797895D01*
X156669524Y-119797895D02*
X156669524Y-119893133D01*
X156669524Y-119893133D02*
X156621905Y-120035990D01*
X156621905Y-120035990D02*
X156050477Y-120607419D01*
X156050477Y-120607419D02*
X156669524Y-120607419D01*
D12*
X144336190Y-129087000D02*
X144621904Y-129182238D01*
X144621904Y-129182238D02*
X145098095Y-129182238D01*
X145098095Y-129182238D02*
X145288571Y-129087000D01*
X145288571Y-129087000D02*
X145383809Y-128991761D01*
X145383809Y-128991761D02*
X145479047Y-128801285D01*
X145479047Y-128801285D02*
X145479047Y-128610809D01*
X145479047Y-128610809D02*
X145383809Y-128420333D01*
X145383809Y-128420333D02*
X145288571Y-128325095D01*
X145288571Y-128325095D02*
X145098095Y-128229857D01*
X145098095Y-128229857D02*
X144717142Y-128134619D01*
X144717142Y-128134619D02*
X144526666Y-128039380D01*
X144526666Y-128039380D02*
X144431428Y-127944142D01*
X144431428Y-127944142D02*
X144336190Y-127753666D01*
X144336190Y-127753666D02*
X144336190Y-127563190D01*
X144336190Y-127563190D02*
X144431428Y-127372714D01*
X144431428Y-127372714D02*
X144526666Y-127277476D01*
X144526666Y-127277476D02*
X144717142Y-127182238D01*
X144717142Y-127182238D02*
X145193333Y-127182238D01*
X145193333Y-127182238D02*
X145479047Y-127277476D01*
X146336190Y-128134619D02*
X147002857Y-128134619D01*
X147288571Y-129182238D02*
X146336190Y-129182238D01*
X146336190Y-129182238D02*
X146336190Y-127182238D01*
X146336190Y-127182238D02*
X147288571Y-127182238D01*
X148145714Y-129182238D02*
X148145714Y-127182238D01*
X148145714Y-127182238D02*
X149288571Y-129182238D01*
X149288571Y-129182238D02*
X149288571Y-127182238D01*
X150145714Y-129087000D02*
X150431428Y-129182238D01*
X150431428Y-129182238D02*
X150907619Y-129182238D01*
X150907619Y-129182238D02*
X151098095Y-129087000D01*
X151098095Y-129087000D02*
X151193333Y-128991761D01*
X151193333Y-128991761D02*
X151288571Y-128801285D01*
X151288571Y-128801285D02*
X151288571Y-128610809D01*
X151288571Y-128610809D02*
X151193333Y-128420333D01*
X151193333Y-128420333D02*
X151098095Y-128325095D01*
X151098095Y-128325095D02*
X150907619Y-128229857D01*
X150907619Y-128229857D02*
X150526666Y-128134619D01*
X150526666Y-128134619D02*
X150336190Y-128039380D01*
X150336190Y-128039380D02*
X150240952Y-127944142D01*
X150240952Y-127944142D02*
X150145714Y-127753666D01*
X150145714Y-127753666D02*
X150145714Y-127563190D01*
X150145714Y-127563190D02*
X150240952Y-127372714D01*
X150240952Y-127372714D02*
X150336190Y-127277476D01*
X150336190Y-127277476D02*
X150526666Y-127182238D01*
X150526666Y-127182238D02*
X151002857Y-127182238D01*
X151002857Y-127182238D02*
X151288571Y-127277476D01*
X152526666Y-127182238D02*
X152907619Y-127182238D01*
X152907619Y-127182238D02*
X153098095Y-127277476D01*
X153098095Y-127277476D02*
X153288571Y-127467952D01*
X153288571Y-127467952D02*
X153383809Y-127848904D01*
X153383809Y-127848904D02*
X153383809Y-128515571D01*
X153383809Y-128515571D02*
X153288571Y-128896523D01*
X153288571Y-128896523D02*
X153098095Y-129087000D01*
X153098095Y-129087000D02*
X152907619Y-129182238D01*
X152907619Y-129182238D02*
X152526666Y-129182238D01*
X152526666Y-129182238D02*
X152336190Y-129087000D01*
X152336190Y-129087000D02*
X152145714Y-128896523D01*
X152145714Y-128896523D02*
X152050476Y-128515571D01*
X152050476Y-128515571D02*
X152050476Y-127848904D01*
X152050476Y-127848904D02*
X152145714Y-127467952D01*
X152145714Y-127467952D02*
X152336190Y-127277476D01*
X152336190Y-127277476D02*
X152526666Y-127182238D01*
X155383809Y-129182238D02*
X154717142Y-128229857D01*
X154240952Y-129182238D02*
X154240952Y-127182238D01*
X154240952Y-127182238D02*
X155002857Y-127182238D01*
X155002857Y-127182238D02*
X155193333Y-127277476D01*
X155193333Y-127277476D02*
X155288571Y-127372714D01*
X155288571Y-127372714D02*
X155383809Y-127563190D01*
X155383809Y-127563190D02*
X155383809Y-127848904D01*
X155383809Y-127848904D02*
X155288571Y-128039380D01*
X155288571Y-128039380D02*
X155193333Y-128134619D01*
X155193333Y-128134619D02*
X155002857Y-128229857D01*
X155002857Y-128229857D02*
X154240952Y-128229857D01*
D13*
X152530952Y-115614369D02*
X152483333Y-115590559D01*
X152483333Y-115590559D02*
X152411904Y-115590559D01*
X152411904Y-115590559D02*
X152340476Y-115614369D01*
X152340476Y-115614369D02*
X152292857Y-115661988D01*
X152292857Y-115661988D02*
X152269047Y-115709607D01*
X152269047Y-115709607D02*
X152245238Y-115804845D01*
X152245238Y-115804845D02*
X152245238Y-115876273D01*
X152245238Y-115876273D02*
X152269047Y-115971511D01*
X152269047Y-115971511D02*
X152292857Y-116019130D01*
X152292857Y-116019130D02*
X152340476Y-116066750D01*
X152340476Y-116066750D02*
X152411904Y-116090559D01*
X152411904Y-116090559D02*
X152459523Y-116090559D01*
X152459523Y-116090559D02*
X152530952Y-116066750D01*
X152530952Y-116066750D02*
X152554761Y-116042940D01*
X152554761Y-116042940D02*
X152554761Y-115876273D01*
X152554761Y-115876273D02*
X152459523Y-115876273D01*
X147474761Y-116090559D02*
X147308095Y-115852464D01*
X147189047Y-116090559D02*
X147189047Y-115590559D01*
X147189047Y-115590559D02*
X147379523Y-115590559D01*
X147379523Y-115590559D02*
X147427142Y-115614369D01*
X147427142Y-115614369D02*
X147450952Y-115638178D01*
X147450952Y-115638178D02*
X147474761Y-115685797D01*
X147474761Y-115685797D02*
X147474761Y-115757226D01*
X147474761Y-115757226D02*
X147450952Y-115804845D01*
X147450952Y-115804845D02*
X147427142Y-115828654D01*
X147427142Y-115828654D02*
X147379523Y-115852464D01*
X147379523Y-115852464D02*
X147189047Y-115852464D01*
X146653334Y-125165559D02*
X146820000Y-125665559D01*
X146820000Y-125665559D02*
X146986667Y-125165559D01*
X147439047Y-125617940D02*
X147415238Y-125641750D01*
X147415238Y-125641750D02*
X147343809Y-125665559D01*
X147343809Y-125665559D02*
X147296190Y-125665559D01*
X147296190Y-125665559D02*
X147224762Y-125641750D01*
X147224762Y-125641750D02*
X147177143Y-125594130D01*
X147177143Y-125594130D02*
X147153333Y-125546511D01*
X147153333Y-125546511D02*
X147129524Y-125451273D01*
X147129524Y-125451273D02*
X147129524Y-125379845D01*
X147129524Y-125379845D02*
X147153333Y-125284607D01*
X147153333Y-125284607D02*
X147177143Y-125236988D01*
X147177143Y-125236988D02*
X147224762Y-125189369D01*
X147224762Y-125189369D02*
X147296190Y-125165559D01*
X147296190Y-125165559D02*
X147343809Y-125165559D01*
X147343809Y-125165559D02*
X147415238Y-125189369D01*
X147415238Y-125189369D02*
X147439047Y-125213178D01*
X147939047Y-125617940D02*
X147915238Y-125641750D01*
X147915238Y-125641750D02*
X147843809Y-125665559D01*
X147843809Y-125665559D02*
X147796190Y-125665559D01*
X147796190Y-125665559D02*
X147724762Y-125641750D01*
X147724762Y-125641750D02*
X147677143Y-125594130D01*
X147677143Y-125594130D02*
X147653333Y-125546511D01*
X147653333Y-125546511D02*
X147629524Y-125451273D01*
X147629524Y-125451273D02*
X147629524Y-125379845D01*
X147629524Y-125379845D02*
X147653333Y-125284607D01*
X147653333Y-125284607D02*
X147677143Y-125236988D01*
X147677143Y-125236988D02*
X147724762Y-125189369D01*
X147724762Y-125189369D02*
X147796190Y-125165559D01*
X147796190Y-125165559D02*
X147843809Y-125165559D01*
X147843809Y-125165559D02*
X147915238Y-125189369D01*
X147915238Y-125189369D02*
X147939047Y-125213178D01*
X152435714Y-125403654D02*
X152507142Y-125427464D01*
X152507142Y-125427464D02*
X152530952Y-125451273D01*
X152530952Y-125451273D02*
X152554761Y-125498892D01*
X152554761Y-125498892D02*
X152554761Y-125570321D01*
X152554761Y-125570321D02*
X152530952Y-125617940D01*
X152530952Y-125617940D02*
X152507142Y-125641750D01*
X152507142Y-125641750D02*
X152459523Y-125665559D01*
X152459523Y-125665559D02*
X152269047Y-125665559D01*
X152269047Y-125665559D02*
X152269047Y-125165559D01*
X152269047Y-125165559D02*
X152435714Y-125165559D01*
X152435714Y-125165559D02*
X152483333Y-125189369D01*
X152483333Y-125189369D02*
X152507142Y-125213178D01*
X152507142Y-125213178D02*
X152530952Y-125260797D01*
X152530952Y-125260797D02*
X152530952Y-125308416D01*
X152530952Y-125308416D02*
X152507142Y-125356035D01*
X152507142Y-125356035D02*
X152483333Y-125379845D01*
X152483333Y-125379845D02*
X152435714Y-125403654D01*
X152435714Y-125403654D02*
X152269047Y-125403654D01*
X134175290Y-120769297D02*
X133937195Y-120935963D01*
X134175290Y-121055011D02*
X133675290Y-121055011D01*
X133675290Y-121055011D02*
X133675290Y-120864535D01*
X133675290Y-120864535D02*
X133699100Y-120816916D01*
X133699100Y-120816916D02*
X133722909Y-120793106D01*
X133722909Y-120793106D02*
X133770528Y-120769297D01*
X133770528Y-120769297D02*
X133841957Y-120769297D01*
X133841957Y-120769297D02*
X133889576Y-120793106D01*
X133889576Y-120793106D02*
X133913385Y-120816916D01*
X133913385Y-120816916D02*
X133937195Y-120864535D01*
X133937195Y-120864535D02*
X133937195Y-121055011D01*
X133722909Y-120578820D02*
X133699100Y-120555011D01*
X133699100Y-120555011D02*
X133675290Y-120507392D01*
X133675290Y-120507392D02*
X133675290Y-120388344D01*
X133675290Y-120388344D02*
X133699100Y-120340725D01*
X133699100Y-120340725D02*
X133722909Y-120316916D01*
X133722909Y-120316916D02*
X133770528Y-120293106D01*
X133770528Y-120293106D02*
X133818147Y-120293106D01*
X133818147Y-120293106D02*
X133889576Y-120316916D01*
X133889576Y-120316916D02*
X134175290Y-120602630D01*
X134175290Y-120602630D02*
X134175290Y-120293106D01*
X134514726Y-121447618D02*
X134848059Y-121447618D01*
X134324250Y-121566666D02*
X134681392Y-121685713D01*
X134681392Y-121685713D02*
X134681392Y-121376190D01*
X134800440Y-121185714D02*
X134824250Y-121161904D01*
X134824250Y-121161904D02*
X134848059Y-121185714D01*
X134848059Y-121185714D02*
X134824250Y-121209523D01*
X134824250Y-121209523D02*
X134800440Y-121185714D01*
X134800440Y-121185714D02*
X134848059Y-121185714D01*
X134348059Y-120995238D02*
X134348059Y-120661905D01*
X134348059Y-120661905D02*
X134848059Y-120876190D01*
X134848059Y-120471429D02*
X134348059Y-120471429D01*
X134848059Y-120185715D02*
X134562345Y-120400000D01*
X134348059Y-120185715D02*
X134633773Y-120471429D01*
X134848059Y-119995238D02*
X134848059Y-119876191D01*
X134848059Y-119876191D02*
X134752821Y-119876191D01*
X134752821Y-119876191D02*
X134729011Y-119923810D01*
X134729011Y-119923810D02*
X134681392Y-119971429D01*
X134681392Y-119971429D02*
X134609964Y-119995238D01*
X134609964Y-119995238D02*
X134490916Y-119995238D01*
X134490916Y-119995238D02*
X134419488Y-119971429D01*
X134419488Y-119971429D02*
X134371869Y-119923810D01*
X134371869Y-119923810D02*
X134348059Y-119852381D01*
X134348059Y-119852381D02*
X134348059Y-119757143D01*
X134348059Y-119757143D02*
X134371869Y-119685715D01*
X134371869Y-119685715D02*
X134419488Y-119638096D01*
X134419488Y-119638096D02*
X134490916Y-119614286D01*
X134490916Y-119614286D02*
X134609964Y-119614286D01*
X134609964Y-119614286D02*
X134681392Y-119638096D01*
X134681392Y-119638096D02*
X134729011Y-119685715D01*
X134729011Y-119685715D02*
X134752821Y-119733334D01*
X134752821Y-119733334D02*
X134848059Y-119733334D01*
X134848059Y-119733334D02*
X134848059Y-119614286D01*
X139255290Y-120769297D02*
X139017195Y-120935963D01*
X139255290Y-121055011D02*
X138755290Y-121055011D01*
X138755290Y-121055011D02*
X138755290Y-120864535D01*
X138755290Y-120864535D02*
X138779100Y-120816916D01*
X138779100Y-120816916D02*
X138802909Y-120793106D01*
X138802909Y-120793106D02*
X138850528Y-120769297D01*
X138850528Y-120769297D02*
X138921957Y-120769297D01*
X138921957Y-120769297D02*
X138969576Y-120793106D01*
X138969576Y-120793106D02*
X138993385Y-120816916D01*
X138993385Y-120816916D02*
X139017195Y-120864535D01*
X139017195Y-120864535D02*
X139017195Y-121055011D01*
X138921957Y-120340725D02*
X139255290Y-120340725D01*
X138731481Y-120459773D02*
X139088623Y-120578820D01*
X139088623Y-120578820D02*
X139088623Y-120269297D01*
X139594726Y-121447618D02*
X139928059Y-121447618D01*
X139404250Y-121566666D02*
X139761392Y-121685713D01*
X139761392Y-121685713D02*
X139761392Y-121376190D01*
X139880440Y-121185714D02*
X139904250Y-121161904D01*
X139904250Y-121161904D02*
X139928059Y-121185714D01*
X139928059Y-121185714D02*
X139904250Y-121209523D01*
X139904250Y-121209523D02*
X139880440Y-121185714D01*
X139880440Y-121185714D02*
X139928059Y-121185714D01*
X139428059Y-120995238D02*
X139428059Y-120661905D01*
X139428059Y-120661905D02*
X139928059Y-120876190D01*
X139928059Y-120471429D02*
X139428059Y-120471429D01*
X139928059Y-120185715D02*
X139642345Y-120400000D01*
X139428059Y-120185715D02*
X139713773Y-120471429D01*
X139928059Y-119995238D02*
X139928059Y-119876191D01*
X139928059Y-119876191D02*
X139832821Y-119876191D01*
X139832821Y-119876191D02*
X139809011Y-119923810D01*
X139809011Y-119923810D02*
X139761392Y-119971429D01*
X139761392Y-119971429D02*
X139689964Y-119995238D01*
X139689964Y-119995238D02*
X139570916Y-119995238D01*
X139570916Y-119995238D02*
X139499488Y-119971429D01*
X139499488Y-119971429D02*
X139451869Y-119923810D01*
X139451869Y-119923810D02*
X139428059Y-119852381D01*
X139428059Y-119852381D02*
X139428059Y-119757143D01*
X139428059Y-119757143D02*
X139451869Y-119685715D01*
X139451869Y-119685715D02*
X139499488Y-119638096D01*
X139499488Y-119638096D02*
X139570916Y-119614286D01*
X139570916Y-119614286D02*
X139689964Y-119614286D01*
X139689964Y-119614286D02*
X139761392Y-119638096D01*
X139761392Y-119638096D02*
X139809011Y-119685715D01*
X139809011Y-119685715D02*
X139832821Y-119733334D01*
X139832821Y-119733334D02*
X139928059Y-119733334D01*
X139928059Y-119733334D02*
X139928059Y-119614286D01*
X136715290Y-120769297D02*
X136477195Y-120935963D01*
X136715290Y-121055011D02*
X136215290Y-121055011D01*
X136215290Y-121055011D02*
X136215290Y-120864535D01*
X136215290Y-120864535D02*
X136239100Y-120816916D01*
X136239100Y-120816916D02*
X136262909Y-120793106D01*
X136262909Y-120793106D02*
X136310528Y-120769297D01*
X136310528Y-120769297D02*
X136381957Y-120769297D01*
X136381957Y-120769297D02*
X136429576Y-120793106D01*
X136429576Y-120793106D02*
X136453385Y-120816916D01*
X136453385Y-120816916D02*
X136477195Y-120864535D01*
X136477195Y-120864535D02*
X136477195Y-121055011D01*
X136215290Y-120602630D02*
X136215290Y-120293106D01*
X136215290Y-120293106D02*
X136405766Y-120459773D01*
X136405766Y-120459773D02*
X136405766Y-120388344D01*
X136405766Y-120388344D02*
X136429576Y-120340725D01*
X136429576Y-120340725D02*
X136453385Y-120316916D01*
X136453385Y-120316916D02*
X136501004Y-120293106D01*
X136501004Y-120293106D02*
X136620052Y-120293106D01*
X136620052Y-120293106D02*
X136667671Y-120316916D01*
X136667671Y-120316916D02*
X136691481Y-120340725D01*
X136691481Y-120340725D02*
X136715290Y-120388344D01*
X136715290Y-120388344D02*
X136715290Y-120531201D01*
X136715290Y-120531201D02*
X136691481Y-120578820D01*
X136691481Y-120578820D02*
X136667671Y-120602630D01*
X136935678Y-121685713D02*
X136911869Y-121661904D01*
X136911869Y-121661904D02*
X136888059Y-121614285D01*
X136888059Y-121614285D02*
X136888059Y-121495237D01*
X136888059Y-121495237D02*
X136911869Y-121447618D01*
X136911869Y-121447618D02*
X136935678Y-121423809D01*
X136935678Y-121423809D02*
X136983297Y-121399999D01*
X136983297Y-121399999D02*
X137030916Y-121399999D01*
X137030916Y-121399999D02*
X137102345Y-121423809D01*
X137102345Y-121423809D02*
X137388059Y-121709523D01*
X137388059Y-121709523D02*
X137388059Y-121399999D01*
X137340440Y-121185714D02*
X137364250Y-121161904D01*
X137364250Y-121161904D02*
X137388059Y-121185714D01*
X137388059Y-121185714D02*
X137364250Y-121209523D01*
X137364250Y-121209523D02*
X137340440Y-121185714D01*
X137340440Y-121185714D02*
X137388059Y-121185714D01*
X136935678Y-120971428D02*
X136911869Y-120947619D01*
X136911869Y-120947619D02*
X136888059Y-120900000D01*
X136888059Y-120900000D02*
X136888059Y-120780952D01*
X136888059Y-120780952D02*
X136911869Y-120733333D01*
X136911869Y-120733333D02*
X136935678Y-120709524D01*
X136935678Y-120709524D02*
X136983297Y-120685714D01*
X136983297Y-120685714D02*
X137030916Y-120685714D01*
X137030916Y-120685714D02*
X137102345Y-120709524D01*
X137102345Y-120709524D02*
X137388059Y-120995238D01*
X137388059Y-120995238D02*
X137388059Y-120685714D01*
X137388059Y-120471429D02*
X136888059Y-120471429D01*
X137388059Y-120185715D02*
X137102345Y-120400000D01*
X136888059Y-120185715D02*
X137173773Y-120471429D01*
X137388059Y-119995238D02*
X137388059Y-119876191D01*
X137388059Y-119876191D02*
X137292821Y-119876191D01*
X137292821Y-119876191D02*
X137269011Y-119923810D01*
X137269011Y-119923810D02*
X137221392Y-119971429D01*
X137221392Y-119971429D02*
X137149964Y-119995238D01*
X137149964Y-119995238D02*
X137030916Y-119995238D01*
X137030916Y-119995238D02*
X136959488Y-119971429D01*
X136959488Y-119971429D02*
X136911869Y-119923810D01*
X136911869Y-119923810D02*
X136888059Y-119852381D01*
X136888059Y-119852381D02*
X136888059Y-119757143D01*
X136888059Y-119757143D02*
X136911869Y-119685715D01*
X136911869Y-119685715D02*
X136959488Y-119638096D01*
X136959488Y-119638096D02*
X137030916Y-119614286D01*
X137030916Y-119614286D02*
X137149964Y-119614286D01*
X137149964Y-119614286D02*
X137221392Y-119638096D01*
X137221392Y-119638096D02*
X137269011Y-119685715D01*
X137269011Y-119685715D02*
X137292821Y-119733334D01*
X137292821Y-119733334D02*
X137388059Y-119733334D01*
X137388059Y-119733334D02*
X137388059Y-119614286D01*
X162115290Y-120769297D02*
X161877195Y-120935963D01*
X162115290Y-121055011D02*
X161615290Y-121055011D01*
X161615290Y-121055011D02*
X161615290Y-120864535D01*
X161615290Y-120864535D02*
X161639100Y-120816916D01*
X161639100Y-120816916D02*
X161662909Y-120793106D01*
X161662909Y-120793106D02*
X161710528Y-120769297D01*
X161710528Y-120769297D02*
X161781957Y-120769297D01*
X161781957Y-120769297D02*
X161829576Y-120793106D01*
X161829576Y-120793106D02*
X161853385Y-120816916D01*
X161853385Y-120816916D02*
X161877195Y-120864535D01*
X161877195Y-120864535D02*
X161877195Y-121055011D01*
X161615290Y-120340725D02*
X161615290Y-120435963D01*
X161615290Y-120435963D02*
X161639100Y-120483582D01*
X161639100Y-120483582D02*
X161662909Y-120507392D01*
X161662909Y-120507392D02*
X161734338Y-120555011D01*
X161734338Y-120555011D02*
X161829576Y-120578820D01*
X161829576Y-120578820D02*
X162020052Y-120578820D01*
X162020052Y-120578820D02*
X162067671Y-120555011D01*
X162067671Y-120555011D02*
X162091481Y-120531201D01*
X162091481Y-120531201D02*
X162115290Y-120483582D01*
X162115290Y-120483582D02*
X162115290Y-120388344D01*
X162115290Y-120388344D02*
X162091481Y-120340725D01*
X162091481Y-120340725D02*
X162067671Y-120316916D01*
X162067671Y-120316916D02*
X162020052Y-120293106D01*
X162020052Y-120293106D02*
X161901004Y-120293106D01*
X161901004Y-120293106D02*
X161853385Y-120316916D01*
X161853385Y-120316916D02*
X161829576Y-120340725D01*
X161829576Y-120340725D02*
X161805766Y-120388344D01*
X161805766Y-120388344D02*
X161805766Y-120483582D01*
X161805766Y-120483582D02*
X161829576Y-120531201D01*
X161829576Y-120531201D02*
X161853385Y-120555011D01*
X161853385Y-120555011D02*
X161901004Y-120578820D01*
X162788059Y-121519046D02*
X162788059Y-121804760D01*
X162788059Y-121661903D02*
X162288059Y-121661903D01*
X162288059Y-121661903D02*
X162359488Y-121709522D01*
X162359488Y-121709522D02*
X162407107Y-121757141D01*
X162407107Y-121757141D02*
X162430916Y-121804760D01*
X162288059Y-121209523D02*
X162288059Y-121161904D01*
X162288059Y-121161904D02*
X162311869Y-121114285D01*
X162311869Y-121114285D02*
X162335678Y-121090475D01*
X162335678Y-121090475D02*
X162383297Y-121066666D01*
X162383297Y-121066666D02*
X162478535Y-121042856D01*
X162478535Y-121042856D02*
X162597583Y-121042856D01*
X162597583Y-121042856D02*
X162692821Y-121066666D01*
X162692821Y-121066666D02*
X162740440Y-121090475D01*
X162740440Y-121090475D02*
X162764250Y-121114285D01*
X162764250Y-121114285D02*
X162788059Y-121161904D01*
X162788059Y-121161904D02*
X162788059Y-121209523D01*
X162788059Y-121209523D02*
X162764250Y-121257142D01*
X162764250Y-121257142D02*
X162740440Y-121280951D01*
X162740440Y-121280951D02*
X162692821Y-121304761D01*
X162692821Y-121304761D02*
X162597583Y-121328570D01*
X162597583Y-121328570D02*
X162478535Y-121328570D01*
X162478535Y-121328570D02*
X162383297Y-121304761D01*
X162383297Y-121304761D02*
X162335678Y-121280951D01*
X162335678Y-121280951D02*
X162311869Y-121257142D01*
X162311869Y-121257142D02*
X162288059Y-121209523D01*
X162288059Y-120733333D02*
X162288059Y-120685714D01*
X162288059Y-120685714D02*
X162311869Y-120638095D01*
X162311869Y-120638095D02*
X162335678Y-120614285D01*
X162335678Y-120614285D02*
X162383297Y-120590476D01*
X162383297Y-120590476D02*
X162478535Y-120566666D01*
X162478535Y-120566666D02*
X162597583Y-120566666D01*
X162597583Y-120566666D02*
X162692821Y-120590476D01*
X162692821Y-120590476D02*
X162740440Y-120614285D01*
X162740440Y-120614285D02*
X162764250Y-120638095D01*
X162764250Y-120638095D02*
X162788059Y-120685714D01*
X162788059Y-120685714D02*
X162788059Y-120733333D01*
X162788059Y-120733333D02*
X162764250Y-120780952D01*
X162764250Y-120780952D02*
X162740440Y-120804761D01*
X162740440Y-120804761D02*
X162692821Y-120828571D01*
X162692821Y-120828571D02*
X162597583Y-120852380D01*
X162597583Y-120852380D02*
X162478535Y-120852380D01*
X162478535Y-120852380D02*
X162383297Y-120828571D01*
X162383297Y-120828571D02*
X162335678Y-120804761D01*
X162335678Y-120804761D02*
X162311869Y-120780952D01*
X162311869Y-120780952D02*
X162288059Y-120733333D01*
X162788059Y-120352381D02*
X162288059Y-120352381D01*
X162788059Y-120066667D02*
X162502345Y-120280952D01*
X162288059Y-120066667D02*
X162573773Y-120352381D01*
X162788059Y-119876190D02*
X162788059Y-119757143D01*
X162788059Y-119757143D02*
X162692821Y-119757143D01*
X162692821Y-119757143D02*
X162669011Y-119804762D01*
X162669011Y-119804762D02*
X162621392Y-119852381D01*
X162621392Y-119852381D02*
X162549964Y-119876190D01*
X162549964Y-119876190D02*
X162430916Y-119876190D01*
X162430916Y-119876190D02*
X162359488Y-119852381D01*
X162359488Y-119852381D02*
X162311869Y-119804762D01*
X162311869Y-119804762D02*
X162288059Y-119733333D01*
X162288059Y-119733333D02*
X162288059Y-119638095D01*
X162288059Y-119638095D02*
X162311869Y-119566667D01*
X162311869Y-119566667D02*
X162359488Y-119519048D01*
X162359488Y-119519048D02*
X162430916Y-119495238D01*
X162430916Y-119495238D02*
X162549964Y-119495238D01*
X162549964Y-119495238D02*
X162621392Y-119519048D01*
X162621392Y-119519048D02*
X162669011Y-119566667D01*
X162669011Y-119566667D02*
X162692821Y-119614286D01*
X162692821Y-119614286D02*
X162788059Y-119614286D01*
X162788059Y-119614286D02*
X162788059Y-119495238D01*
D10*
X103207143Y-122754895D02*
X103359524Y-122754895D01*
X103359524Y-122754895D02*
X103435714Y-122792990D01*
X103435714Y-122792990D02*
X103511905Y-122869180D01*
X103511905Y-122869180D02*
X103550000Y-123021561D01*
X103550000Y-123021561D02*
X103550000Y-123288228D01*
X103550000Y-123288228D02*
X103511905Y-123440609D01*
X103511905Y-123440609D02*
X103435714Y-123516800D01*
X103435714Y-123516800D02*
X103359524Y-123554895D01*
X103359524Y-123554895D02*
X103207143Y-123554895D01*
X103207143Y-123554895D02*
X103130952Y-123516800D01*
X103130952Y-123516800D02*
X103054762Y-123440609D01*
X103054762Y-123440609D02*
X103016666Y-123288228D01*
X103016666Y-123288228D02*
X103016666Y-123021561D01*
X103016666Y-123021561D02*
X103054762Y-122869180D01*
X103054762Y-122869180D02*
X103130952Y-122792990D01*
X103130952Y-122792990D02*
X103207143Y-122754895D01*
X103892857Y-123554895D02*
X103892857Y-122754895D01*
X103892857Y-122754895D02*
X104350000Y-123554895D01*
X104350000Y-123554895D02*
X104350000Y-122754895D01*
X104540476Y-123631085D02*
X105149999Y-123631085D01*
X105492857Y-122754895D02*
X105645238Y-122754895D01*
X105645238Y-122754895D02*
X105721428Y-122792990D01*
X105721428Y-122792990D02*
X105797619Y-122869180D01*
X105797619Y-122869180D02*
X105835714Y-123021561D01*
X105835714Y-123021561D02*
X105835714Y-123288228D01*
X105835714Y-123288228D02*
X105797619Y-123440609D01*
X105797619Y-123440609D02*
X105721428Y-123516800D01*
X105721428Y-123516800D02*
X105645238Y-123554895D01*
X105645238Y-123554895D02*
X105492857Y-123554895D01*
X105492857Y-123554895D02*
X105416666Y-123516800D01*
X105416666Y-123516800D02*
X105340476Y-123440609D01*
X105340476Y-123440609D02*
X105302380Y-123288228D01*
X105302380Y-123288228D02*
X105302380Y-123021561D01*
X105302380Y-123021561D02*
X105340476Y-122869180D01*
X105340476Y-122869180D02*
X105416666Y-122792990D01*
X105416666Y-122792990D02*
X105492857Y-122754895D01*
X106445237Y-123135847D02*
X106178571Y-123135847D01*
X106178571Y-123554895D02*
X106178571Y-122754895D01*
X106178571Y-122754895D02*
X106559523Y-122754895D01*
X107130951Y-123135847D02*
X106864285Y-123135847D01*
X106864285Y-123554895D02*
X106864285Y-122754895D01*
X106864285Y-122754895D02*
X107245237Y-122754895D01*
X107359523Y-123631085D02*
X107969046Y-123631085D01*
X108121427Y-123516800D02*
X108235713Y-123554895D01*
X108235713Y-123554895D02*
X108426189Y-123554895D01*
X108426189Y-123554895D02*
X108502380Y-123516800D01*
X108502380Y-123516800D02*
X108540475Y-123478704D01*
X108540475Y-123478704D02*
X108578570Y-123402514D01*
X108578570Y-123402514D02*
X108578570Y-123326323D01*
X108578570Y-123326323D02*
X108540475Y-123250133D01*
X108540475Y-123250133D02*
X108502380Y-123212038D01*
X108502380Y-123212038D02*
X108426189Y-123173942D01*
X108426189Y-123173942D02*
X108273808Y-123135847D01*
X108273808Y-123135847D02*
X108197618Y-123097752D01*
X108197618Y-123097752D02*
X108159523Y-123059657D01*
X108159523Y-123059657D02*
X108121427Y-122983466D01*
X108121427Y-122983466D02*
X108121427Y-122907276D01*
X108121427Y-122907276D02*
X108159523Y-122831085D01*
X108159523Y-122831085D02*
X108197618Y-122792990D01*
X108197618Y-122792990D02*
X108273808Y-122754895D01*
X108273808Y-122754895D02*
X108464285Y-122754895D01*
X108464285Y-122754895D02*
X108578570Y-122792990D01*
X108845237Y-122754895D02*
X109035713Y-123554895D01*
X109035713Y-123554895D02*
X109188094Y-122983466D01*
X109188094Y-122983466D02*
X109340475Y-123554895D01*
X109340475Y-123554895D02*
X109530952Y-122754895D01*
X109835714Y-123554895D02*
X109835714Y-122754895D01*
X110102380Y-122754895D02*
X110559523Y-122754895D01*
X110330951Y-123554895D02*
X110330951Y-122754895D01*
X111283333Y-123478704D02*
X111245237Y-123516800D01*
X111245237Y-123516800D02*
X111130952Y-123554895D01*
X111130952Y-123554895D02*
X111054761Y-123554895D01*
X111054761Y-123554895D02*
X110940475Y-123516800D01*
X110940475Y-123516800D02*
X110864285Y-123440609D01*
X110864285Y-123440609D02*
X110826190Y-123364419D01*
X110826190Y-123364419D02*
X110788094Y-123212038D01*
X110788094Y-123212038D02*
X110788094Y-123097752D01*
X110788094Y-123097752D02*
X110826190Y-122945371D01*
X110826190Y-122945371D02*
X110864285Y-122869180D01*
X110864285Y-122869180D02*
X110940475Y-122792990D01*
X110940475Y-122792990D02*
X111054761Y-122754895D01*
X111054761Y-122754895D02*
X111130952Y-122754895D01*
X111130952Y-122754895D02*
X111245237Y-122792990D01*
X111245237Y-122792990D02*
X111283333Y-122831085D01*
X111626190Y-123554895D02*
X111626190Y-122754895D01*
X111626190Y-123135847D02*
X112083333Y-123135847D01*
X112083333Y-123554895D02*
X112083333Y-122754895D01*
X112883332Y-123554895D02*
X112426189Y-123554895D01*
X112654761Y-123554895D02*
X112654761Y-122754895D01*
X112654761Y-122754895D02*
X112578570Y-122869180D01*
X112578570Y-122869180D02*
X112502380Y-122945371D01*
X112502380Y-122945371D02*
X112426189Y-122983466D01*
D14*
X105611797Y-128311119D02*
X105802273Y-128311119D01*
X105802273Y-128311119D02*
X105897511Y-128358738D01*
X105897511Y-128358738D02*
X105992749Y-128453976D01*
X105992749Y-128453976D02*
X106040368Y-128644452D01*
X106040368Y-128644452D02*
X106040368Y-128977785D01*
X106040368Y-128977785D02*
X105992749Y-129168261D01*
X105992749Y-129168261D02*
X105897511Y-129263500D01*
X105897511Y-129263500D02*
X105802273Y-129311119D01*
X105802273Y-129311119D02*
X105611797Y-129311119D01*
X105611797Y-129311119D02*
X105516559Y-129263500D01*
X105516559Y-129263500D02*
X105421321Y-129168261D01*
X105421321Y-129168261D02*
X105373702Y-128977785D01*
X105373702Y-128977785D02*
X105373702Y-128644452D01*
X105373702Y-128644452D02*
X105421321Y-128453976D01*
X105421321Y-128453976D02*
X105516559Y-128358738D01*
X105516559Y-128358738D02*
X105611797Y-128311119D01*
X106802273Y-128787309D02*
X106468940Y-128787309D01*
X106468940Y-129311119D02*
X106468940Y-128311119D01*
X106468940Y-128311119D02*
X106945130Y-128311119D01*
X107659416Y-128787309D02*
X107326083Y-128787309D01*
X107326083Y-129311119D02*
X107326083Y-128311119D01*
X107326083Y-128311119D02*
X107802273Y-128311119D01*
X109135607Y-128311119D02*
X109326083Y-128311119D01*
X109326083Y-128311119D02*
X109421321Y-128358738D01*
X109421321Y-128358738D02*
X109516559Y-128453976D01*
X109516559Y-128453976D02*
X109564178Y-128644452D01*
X109564178Y-128644452D02*
X109564178Y-128977785D01*
X109564178Y-128977785D02*
X109516559Y-129168261D01*
X109516559Y-129168261D02*
X109421321Y-129263500D01*
X109421321Y-129263500D02*
X109326083Y-129311119D01*
X109326083Y-129311119D02*
X109135607Y-129311119D01*
X109135607Y-129311119D02*
X109040369Y-129263500D01*
X109040369Y-129263500D02*
X108945131Y-129168261D01*
X108945131Y-129168261D02*
X108897512Y-128977785D01*
X108897512Y-128977785D02*
X108897512Y-128644452D01*
X108897512Y-128644452D02*
X108945131Y-128453976D01*
X108945131Y-128453976D02*
X109040369Y-128358738D01*
X109040369Y-128358738D02*
X109135607Y-128311119D01*
X109992750Y-129311119D02*
X109992750Y-128311119D01*
X109992750Y-128311119D02*
X110564178Y-129311119D01*
X110564178Y-129311119D02*
X110564178Y-128311119D01*
D13*
X109549524Y-127228059D02*
X109549524Y-126728059D01*
X109549524Y-126728059D02*
X109740000Y-126728059D01*
X109740000Y-126728059D02*
X109787619Y-126751869D01*
X109787619Y-126751869D02*
X109811429Y-126775678D01*
X109811429Y-126775678D02*
X109835238Y-126823297D01*
X109835238Y-126823297D02*
X109835238Y-126894726D01*
X109835238Y-126894726D02*
X109811429Y-126942345D01*
X109811429Y-126942345D02*
X109787619Y-126966154D01*
X109787619Y-126966154D02*
X109740000Y-126989964D01*
X109740000Y-126989964D02*
X109549524Y-126989964D01*
X110049524Y-127228059D02*
X110049524Y-126728059D01*
X110287619Y-127228059D02*
X110287619Y-126728059D01*
X110287619Y-126728059D02*
X110573333Y-127228059D01*
X110573333Y-127228059D02*
X110573333Y-126728059D01*
X110692382Y-127275678D02*
X111073334Y-127275678D01*
X111144762Y-126728059D02*
X111454286Y-126728059D01*
X111454286Y-126728059D02*
X111287619Y-126918535D01*
X111287619Y-126918535D02*
X111359048Y-126918535D01*
X111359048Y-126918535D02*
X111406667Y-126942345D01*
X111406667Y-126942345D02*
X111430476Y-126966154D01*
X111430476Y-126966154D02*
X111454286Y-127013773D01*
X111454286Y-127013773D02*
X111454286Y-127132821D01*
X111454286Y-127132821D02*
X111430476Y-127180440D01*
X111430476Y-127180440D02*
X111406667Y-127204250D01*
X111406667Y-127204250D02*
X111359048Y-127228059D01*
X111359048Y-127228059D02*
X111216191Y-127228059D01*
X111216191Y-127228059D02*
X111168572Y-127204250D01*
X111168572Y-127204250D02*
X111144762Y-127180440D01*
X107009524Y-127228059D02*
X107009524Y-126728059D01*
X107009524Y-126728059D02*
X107200000Y-126728059D01*
X107200000Y-126728059D02*
X107247619Y-126751869D01*
X107247619Y-126751869D02*
X107271429Y-126775678D01*
X107271429Y-126775678D02*
X107295238Y-126823297D01*
X107295238Y-126823297D02*
X107295238Y-126894726D01*
X107295238Y-126894726D02*
X107271429Y-126942345D01*
X107271429Y-126942345D02*
X107247619Y-126966154D01*
X107247619Y-126966154D02*
X107200000Y-126989964D01*
X107200000Y-126989964D02*
X107009524Y-126989964D01*
X107509524Y-127228059D02*
X107509524Y-126728059D01*
X107747619Y-127228059D02*
X107747619Y-126728059D01*
X107747619Y-126728059D02*
X108033333Y-127228059D01*
X108033333Y-127228059D02*
X108033333Y-126728059D01*
X108152382Y-127275678D02*
X108533334Y-127275678D01*
X108628572Y-126775678D02*
X108652381Y-126751869D01*
X108652381Y-126751869D02*
X108700000Y-126728059D01*
X108700000Y-126728059D02*
X108819048Y-126728059D01*
X108819048Y-126728059D02*
X108866667Y-126751869D01*
X108866667Y-126751869D02*
X108890476Y-126775678D01*
X108890476Y-126775678D02*
X108914286Y-126823297D01*
X108914286Y-126823297D02*
X108914286Y-126870916D01*
X108914286Y-126870916D02*
X108890476Y-126942345D01*
X108890476Y-126942345D02*
X108604762Y-127228059D01*
X108604762Y-127228059D02*
X108914286Y-127228059D01*
X104469524Y-127228059D02*
X104469524Y-126728059D01*
X104469524Y-126728059D02*
X104660000Y-126728059D01*
X104660000Y-126728059D02*
X104707619Y-126751869D01*
X104707619Y-126751869D02*
X104731429Y-126775678D01*
X104731429Y-126775678D02*
X104755238Y-126823297D01*
X104755238Y-126823297D02*
X104755238Y-126894726D01*
X104755238Y-126894726D02*
X104731429Y-126942345D01*
X104731429Y-126942345D02*
X104707619Y-126966154D01*
X104707619Y-126966154D02*
X104660000Y-126989964D01*
X104660000Y-126989964D02*
X104469524Y-126989964D01*
X104969524Y-127228059D02*
X104969524Y-126728059D01*
X105207619Y-127228059D02*
X105207619Y-126728059D01*
X105207619Y-126728059D02*
X105493333Y-127228059D01*
X105493333Y-127228059D02*
X105493333Y-126728059D01*
X105612382Y-127275678D02*
X105993334Y-127275678D01*
X106374286Y-127228059D02*
X106088572Y-127228059D01*
X106231429Y-127228059D02*
X106231429Y-126728059D01*
X106231429Y-126728059D02*
X106183810Y-126799488D01*
X106183810Y-126799488D02*
X106136191Y-126847107D01*
X106136191Y-126847107D02*
X106088572Y-126870916D01*
X159575290Y-120769297D02*
X159337195Y-120935963D01*
X159575290Y-121055011D02*
X159075290Y-121055011D01*
X159075290Y-121055011D02*
X159075290Y-120864535D01*
X159075290Y-120864535D02*
X159099100Y-120816916D01*
X159099100Y-120816916D02*
X159122909Y-120793106D01*
X159122909Y-120793106D02*
X159170528Y-120769297D01*
X159170528Y-120769297D02*
X159241957Y-120769297D01*
X159241957Y-120769297D02*
X159289576Y-120793106D01*
X159289576Y-120793106D02*
X159313385Y-120816916D01*
X159313385Y-120816916D02*
X159337195Y-120864535D01*
X159337195Y-120864535D02*
X159337195Y-121055011D01*
X159075290Y-120316916D02*
X159075290Y-120555011D01*
X159075290Y-120555011D02*
X159313385Y-120578820D01*
X159313385Y-120578820D02*
X159289576Y-120555011D01*
X159289576Y-120555011D02*
X159265766Y-120507392D01*
X159265766Y-120507392D02*
X159265766Y-120388344D01*
X159265766Y-120388344D02*
X159289576Y-120340725D01*
X159289576Y-120340725D02*
X159313385Y-120316916D01*
X159313385Y-120316916D02*
X159361004Y-120293106D01*
X159361004Y-120293106D02*
X159480052Y-120293106D01*
X159480052Y-120293106D02*
X159527671Y-120316916D01*
X159527671Y-120316916D02*
X159551481Y-120340725D01*
X159551481Y-120340725D02*
X159575290Y-120388344D01*
X159575290Y-120388344D02*
X159575290Y-120507392D01*
X159575290Y-120507392D02*
X159551481Y-120555011D01*
X159551481Y-120555011D02*
X159527671Y-120578820D01*
X159795678Y-121804760D02*
X159771869Y-121780951D01*
X159771869Y-121780951D02*
X159748059Y-121733332D01*
X159748059Y-121733332D02*
X159748059Y-121614284D01*
X159748059Y-121614284D02*
X159771869Y-121566665D01*
X159771869Y-121566665D02*
X159795678Y-121542856D01*
X159795678Y-121542856D02*
X159843297Y-121519046D01*
X159843297Y-121519046D02*
X159890916Y-121519046D01*
X159890916Y-121519046D02*
X159962345Y-121542856D01*
X159962345Y-121542856D02*
X160248059Y-121828570D01*
X160248059Y-121828570D02*
X160248059Y-121519046D01*
X159795678Y-121328570D02*
X159771869Y-121304761D01*
X159771869Y-121304761D02*
X159748059Y-121257142D01*
X159748059Y-121257142D02*
X159748059Y-121138094D01*
X159748059Y-121138094D02*
X159771869Y-121090475D01*
X159771869Y-121090475D02*
X159795678Y-121066666D01*
X159795678Y-121066666D02*
X159843297Y-121042856D01*
X159843297Y-121042856D02*
X159890916Y-121042856D01*
X159890916Y-121042856D02*
X159962345Y-121066666D01*
X159962345Y-121066666D02*
X160248059Y-121352380D01*
X160248059Y-121352380D02*
X160248059Y-121042856D01*
X159748059Y-120733333D02*
X159748059Y-120685714D01*
X159748059Y-120685714D02*
X159771869Y-120638095D01*
X159771869Y-120638095D02*
X159795678Y-120614285D01*
X159795678Y-120614285D02*
X159843297Y-120590476D01*
X159843297Y-120590476D02*
X159938535Y-120566666D01*
X159938535Y-120566666D02*
X160057583Y-120566666D01*
X160057583Y-120566666D02*
X160152821Y-120590476D01*
X160152821Y-120590476D02*
X160200440Y-120614285D01*
X160200440Y-120614285D02*
X160224250Y-120638095D01*
X160224250Y-120638095D02*
X160248059Y-120685714D01*
X160248059Y-120685714D02*
X160248059Y-120733333D01*
X160248059Y-120733333D02*
X160224250Y-120780952D01*
X160224250Y-120780952D02*
X160200440Y-120804761D01*
X160200440Y-120804761D02*
X160152821Y-120828571D01*
X160152821Y-120828571D02*
X160057583Y-120852380D01*
X160057583Y-120852380D02*
X159938535Y-120852380D01*
X159938535Y-120852380D02*
X159843297Y-120828571D01*
X159843297Y-120828571D02*
X159795678Y-120804761D01*
X159795678Y-120804761D02*
X159771869Y-120780952D01*
X159771869Y-120780952D02*
X159748059Y-120733333D01*
X160248059Y-120352381D02*
X159748059Y-120352381D01*
X160248059Y-120066667D02*
X159962345Y-120280952D01*
X159748059Y-120066667D02*
X160033773Y-120352381D01*
X160248059Y-119876190D02*
X160248059Y-119757143D01*
X160248059Y-119757143D02*
X160152821Y-119757143D01*
X160152821Y-119757143D02*
X160129011Y-119804762D01*
X160129011Y-119804762D02*
X160081392Y-119852381D01*
X160081392Y-119852381D02*
X160009964Y-119876190D01*
X160009964Y-119876190D02*
X159890916Y-119876190D01*
X159890916Y-119876190D02*
X159819488Y-119852381D01*
X159819488Y-119852381D02*
X159771869Y-119804762D01*
X159771869Y-119804762D02*
X159748059Y-119733333D01*
X159748059Y-119733333D02*
X159748059Y-119638095D01*
X159748059Y-119638095D02*
X159771869Y-119566667D01*
X159771869Y-119566667D02*
X159819488Y-119519048D01*
X159819488Y-119519048D02*
X159890916Y-119495238D01*
X159890916Y-119495238D02*
X160009964Y-119495238D01*
X160009964Y-119495238D02*
X160081392Y-119519048D01*
X160081392Y-119519048D02*
X160129011Y-119566667D01*
X160129011Y-119566667D02*
X160152821Y-119614286D01*
X160152821Y-119614286D02*
X160248059Y-119614286D01*
X160248059Y-119614286D02*
X160248059Y-119495238D01*
%TO.C,ESP32_UWB1*%
D10*
X114300000Y-82550000D02*
X186300000Y-82550000D01*
X186300000Y-115570000D01*
X114300000Y-115570000D01*
X114300000Y-82550000D01*
X114300000Y-90170000D02*
X119380000Y-90170000D01*
X119380000Y-107950000D01*
X114300000Y-107950000D01*
X114300000Y-90170000D01*
X152400000Y-82550000D02*
X165100000Y-82550000D01*
X165100000Y-92710000D01*
X152400000Y-92710000D01*
X152400000Y-82550000D01*
X181660000Y-95250000D02*
X187300000Y-95250000D01*
X187300000Y-102870000D01*
X181660000Y-102870000D01*
X181660000Y-95250000D01*
%TO.C,5V_DC_DC_Converter1*%
X96090000Y-115570000D02*
X113870000Y-115570000D01*
X113870000Y-86570000D01*
X96090000Y-86570000D01*
X96090000Y-115570000D01*
X102090000Y-91370000D02*
X108090000Y-91370000D01*
X108090000Y-88970000D01*
X102090000Y-88970000D01*
X102090000Y-91370000D01*
X102250000Y-114230000D02*
X110250000Y-114230000D01*
X110250000Y-111830000D01*
X102250000Y-111830000D01*
X102250000Y-114230000D01*
%TO.C,R1*%
X130810000Y-125730000D02*
X133350000Y-125730000D01*
X133350000Y-115570000D01*
X130810000Y-115570000D01*
X130810000Y-125730000D01*
%TO.C,RGB_LED_SQAURE1*%
X124460000Y-124450000D02*
X125720000Y-123190000D01*
X118120000Y-116850000D02*
X125720000Y-116850000D01*
X125720000Y-124450000D01*
X118120000Y-124450000D01*
X118120000Y-116850000D01*
%TO.C,RGB_LED_SQAURE2*%
X152400000Y-124450000D02*
X153660000Y-123190000D01*
X146060000Y-116850000D02*
X153660000Y-116850000D01*
X153660000Y-124450000D01*
X146060000Y-124450000D01*
X146060000Y-116850000D01*
%TO.C,R2*%
X133350000Y-125730000D02*
X135890000Y-125730000D01*
X135890000Y-115570000D01*
X133350000Y-115570000D01*
X133350000Y-125730000D01*
%TO.C,R4*%
X138430000Y-125730000D02*
X140970000Y-125730000D01*
X140970000Y-115570000D01*
X138430000Y-115570000D01*
X138430000Y-125730000D01*
%TO.C,R3*%
X135890000Y-125730000D02*
X138430000Y-125730000D01*
X138430000Y-115570000D01*
X135890000Y-115570000D01*
X135890000Y-125730000D01*
%TO.C,R6*%
X161290000Y-125730000D02*
X163830000Y-125730000D01*
X163830000Y-115570000D01*
X161290000Y-115570000D01*
X161290000Y-125730000D01*
%TO.C,ON_OFF_SWITCH1*%
X102870000Y-123825000D02*
X113030000Y-123825000D01*
X113030000Y-127635000D01*
X102870000Y-127635000D01*
X102870000Y-123825000D01*
%TO.C,R5*%
X158750000Y-125730000D02*
X161290000Y-125730000D01*
X161290000Y-115570000D01*
X158750000Y-115570000D01*
X158750000Y-125730000D01*
%TD*%
M02*
