%TF.GenerationSoftware,KiCad,Pcbnew,9.0.0*%
%TF.CreationDate,2025-03-19T00:35:47-07:00*%
%TF.ProjectId,tag,7461672e-6b69-4636-9164-5f7063625858,v0.3*%
%TF.SameCoordinates,Original*%
%TF.FileFunction,Soldermask,Bot*%
%TF.FilePolarity,Negative*%
%FSLAX46Y46*%
G04 Gerber Fmt 4.6, Leading zero omitted, Abs format (unit mm)*
G04 Created by KiCad (PCBNEW 9.0.0) date 2025-03-19 00:35:47*
%MOMM*%
%LPD*%
G01*
G04 APERTURE LIST*
%ADD10C,1.800000*%
%ADD11R,1.800000X1.800000*%
%ADD12C,2.200000*%
G04 APERTURE END LIST*
D10*
%TO.C,ESP32_UWB1*%
X119380000Y-113030000D03*
X121920000Y-113030000D03*
X124460000Y-113030000D03*
X127000000Y-113030000D03*
X129540000Y-113030000D03*
X132080000Y-113030000D03*
X134620000Y-113030000D03*
X137160000Y-113030000D03*
X139700000Y-113030000D03*
X142240000Y-113030000D03*
X144780000Y-113030000D03*
X147320000Y-113030000D03*
X149860000Y-113030000D03*
X152400000Y-113030000D03*
X154940000Y-113030000D03*
X157480000Y-113030000D03*
X160020000Y-113030000D03*
X162560000Y-113030000D03*
X165100000Y-113030000D03*
X167640000Y-113030000D03*
X119380000Y-85090000D03*
X121920000Y-85090000D03*
X124460000Y-85090000D03*
X127000000Y-85090000D03*
X129540000Y-85090000D03*
X132080000Y-85090000D03*
X134620000Y-85090000D03*
X137160000Y-85090000D03*
X139700000Y-85090000D03*
X142240000Y-85090000D03*
X144780000Y-85090000D03*
X147320000Y-85090000D03*
%TD*%
D11*
%TO.C,5V_DC_DC_Converter1*%
X103710000Y-113030000D03*
D10*
X106250000Y-113030000D03*
X108790000Y-113030000D03*
D11*
X103710000Y-90170000D03*
D10*
X106250000Y-90170000D03*
%TD*%
%TO.C,R1*%
X132080000Y-124460000D03*
X132080000Y-116840000D03*
%TD*%
D12*
%TO.C,REF\u002A\u002A*%
X190500000Y-127000000D03*
%TD*%
D11*
%TO.C,RGB_LED_SQAURE1*%
X119380000Y-123190000D03*
D10*
X119380000Y-118110000D03*
X124460000Y-118110000D03*
X124460000Y-123190000D03*
%TD*%
D11*
%TO.C,RGB_LED_SQAURE2*%
X147320000Y-123190000D03*
D10*
X147320000Y-118110000D03*
X152400000Y-118110000D03*
X152400000Y-123190000D03*
%TD*%
%TO.C,R2*%
X134620000Y-124460000D03*
X134620000Y-116840000D03*
%TD*%
%TO.C,R4*%
X139700000Y-124460000D03*
X139700000Y-116840000D03*
%TD*%
%TO.C,R3*%
X137160000Y-124460000D03*
X137160000Y-116840000D03*
%TD*%
%TO.C,R6*%
X162560000Y-124460000D03*
X162560000Y-116840000D03*
%TD*%
%TO.C,ON_OFF_SWITCH1*%
X105410000Y-125730000D03*
X107950000Y-125730000D03*
X110490000Y-125730000D03*
%TD*%
D12*
%TO.C,REF\u002A\u002A*%
X190500000Y-82550000D03*
%TD*%
D10*
%TO.C,R5*%
X160020000Y-124460000D03*
X160020000Y-116840000D03*
%TD*%
D12*
%TO.C,REF\u002A\u002A*%
X97790000Y-82550000D03*
%TD*%
%TO.C,REF\u002A\u002A*%
X97790000Y-127000000D03*
%TD*%
D11*
%TO.C,Battery_Charger1*%
X170715000Y-83820000D03*
X184685000Y-83820000D03*
X170715000Y-106680000D03*
X173615000Y-106680000D03*
X181485000Y-106680000D03*
X184685000Y-106680000D03*
%TD*%
M02*
