%TF.GenerationSoftware,KiCad,Pcbnew,9.0.0*%
%TF.CreationDate,2025-03-19T00:35:47-07:00*%
%TF.ProjectId,tag,7461672e-6b69-4636-9164-5f7063625858,v0.3*%
%TF.SameCoordinates,Original*%
%TF.FileFunction,Legend,Bot*%
%TF.FilePolarity,Positive*%
%FSLAX46Y46*%
G04 Gerber Fmt 4.6, Leading zero omitted, Abs format (unit mm)*
G04 Created by KiCad (PCBNEW 9.0.0) date 2025-03-19 00:35:47*
%MOMM*%
%LPD*%
G01*
G04 APERTURE LIST*
%ADD10C,0.100000*%
G04 APERTURE END LIST*
D10*
X177633609Y-90666665D02*
X177681228Y-90809522D01*
X177681228Y-90809522D02*
X177728847Y-90857141D01*
X177728847Y-90857141D02*
X177824085Y-90904760D01*
X177824085Y-90904760D02*
X177966942Y-90904760D01*
X177966942Y-90904760D02*
X178062180Y-90857141D01*
X178062180Y-90857141D02*
X178109800Y-90809522D01*
X178109800Y-90809522D02*
X178157419Y-90714284D01*
X178157419Y-90714284D02*
X178157419Y-90333332D01*
X178157419Y-90333332D02*
X177157419Y-90333332D01*
X177157419Y-90333332D02*
X177157419Y-90666665D01*
X177157419Y-90666665D02*
X177205038Y-90761903D01*
X177205038Y-90761903D02*
X177252657Y-90809522D01*
X177252657Y-90809522D02*
X177347895Y-90857141D01*
X177347895Y-90857141D02*
X177443133Y-90857141D01*
X177443133Y-90857141D02*
X177538371Y-90809522D01*
X177538371Y-90809522D02*
X177585990Y-90761903D01*
X177585990Y-90761903D02*
X177633609Y-90666665D01*
X177633609Y-90666665D02*
X177633609Y-90333332D01*
X178157419Y-91761903D02*
X177633609Y-91761903D01*
X177633609Y-91761903D02*
X177538371Y-91714284D01*
X177538371Y-91714284D02*
X177490752Y-91619046D01*
X177490752Y-91619046D02*
X177490752Y-91428570D01*
X177490752Y-91428570D02*
X177538371Y-91333332D01*
X178109800Y-91761903D02*
X178157419Y-91666665D01*
X178157419Y-91666665D02*
X178157419Y-91428570D01*
X178157419Y-91428570D02*
X178109800Y-91333332D01*
X178109800Y-91333332D02*
X178014561Y-91285713D01*
X178014561Y-91285713D02*
X177919323Y-91285713D01*
X177919323Y-91285713D02*
X177824085Y-91333332D01*
X177824085Y-91333332D02*
X177776466Y-91428570D01*
X177776466Y-91428570D02*
X177776466Y-91666665D01*
X177776466Y-91666665D02*
X177728847Y-91761903D01*
X177490752Y-92095237D02*
X177490752Y-92476189D01*
X177157419Y-92238094D02*
X178014561Y-92238094D01*
X178014561Y-92238094D02*
X178109800Y-92285713D01*
X178109800Y-92285713D02*
X178157419Y-92380951D01*
X178157419Y-92380951D02*
X178157419Y-92476189D01*
X177490752Y-92666666D02*
X177490752Y-93047618D01*
X177157419Y-92809523D02*
X178014561Y-92809523D01*
X178014561Y-92809523D02*
X178109800Y-92857142D01*
X178109800Y-92857142D02*
X178157419Y-92952380D01*
X178157419Y-92952380D02*
X178157419Y-93047618D01*
X178109800Y-93761904D02*
X178157419Y-93666666D01*
X178157419Y-93666666D02*
X178157419Y-93476190D01*
X178157419Y-93476190D02*
X178109800Y-93380952D01*
X178109800Y-93380952D02*
X178014561Y-93333333D01*
X178014561Y-93333333D02*
X177633609Y-93333333D01*
X177633609Y-93333333D02*
X177538371Y-93380952D01*
X177538371Y-93380952D02*
X177490752Y-93476190D01*
X177490752Y-93476190D02*
X177490752Y-93666666D01*
X177490752Y-93666666D02*
X177538371Y-93761904D01*
X177538371Y-93761904D02*
X177633609Y-93809523D01*
X177633609Y-93809523D02*
X177728847Y-93809523D01*
X177728847Y-93809523D02*
X177824085Y-93333333D01*
X178157419Y-94238095D02*
X177490752Y-94238095D01*
X177681228Y-94238095D02*
X177585990Y-94285714D01*
X177585990Y-94285714D02*
X177538371Y-94333333D01*
X177538371Y-94333333D02*
X177490752Y-94428571D01*
X177490752Y-94428571D02*
X177490752Y-94523809D01*
X177490752Y-94761905D02*
X178157419Y-95000000D01*
X177490752Y-95238095D02*
X178157419Y-95000000D01*
X178157419Y-95000000D02*
X178395514Y-94904762D01*
X178395514Y-94904762D02*
X178443133Y-94857143D01*
X178443133Y-94857143D02*
X178490752Y-94761905D01*
X178252657Y-95380953D02*
X178252657Y-96142857D01*
X178062180Y-96952381D02*
X178109800Y-96904762D01*
X178109800Y-96904762D02*
X178157419Y-96761905D01*
X178157419Y-96761905D02*
X178157419Y-96666667D01*
X178157419Y-96666667D02*
X178109800Y-96523810D01*
X178109800Y-96523810D02*
X178014561Y-96428572D01*
X178014561Y-96428572D02*
X177919323Y-96380953D01*
X177919323Y-96380953D02*
X177728847Y-96333334D01*
X177728847Y-96333334D02*
X177585990Y-96333334D01*
X177585990Y-96333334D02*
X177395514Y-96380953D01*
X177395514Y-96380953D02*
X177300276Y-96428572D01*
X177300276Y-96428572D02*
X177205038Y-96523810D01*
X177205038Y-96523810D02*
X177157419Y-96666667D01*
X177157419Y-96666667D02*
X177157419Y-96761905D01*
X177157419Y-96761905D02*
X177205038Y-96904762D01*
X177205038Y-96904762D02*
X177252657Y-96952381D01*
X178157419Y-97380953D02*
X177157419Y-97380953D01*
X178157419Y-97809524D02*
X177633609Y-97809524D01*
X177633609Y-97809524D02*
X177538371Y-97761905D01*
X177538371Y-97761905D02*
X177490752Y-97666667D01*
X177490752Y-97666667D02*
X177490752Y-97523810D01*
X177490752Y-97523810D02*
X177538371Y-97428572D01*
X177538371Y-97428572D02*
X177585990Y-97380953D01*
X178157419Y-98714286D02*
X177633609Y-98714286D01*
X177633609Y-98714286D02*
X177538371Y-98666667D01*
X177538371Y-98666667D02*
X177490752Y-98571429D01*
X177490752Y-98571429D02*
X177490752Y-98380953D01*
X177490752Y-98380953D02*
X177538371Y-98285715D01*
X178109800Y-98714286D02*
X178157419Y-98619048D01*
X178157419Y-98619048D02*
X178157419Y-98380953D01*
X178157419Y-98380953D02*
X178109800Y-98285715D01*
X178109800Y-98285715D02*
X178014561Y-98238096D01*
X178014561Y-98238096D02*
X177919323Y-98238096D01*
X177919323Y-98238096D02*
X177824085Y-98285715D01*
X177824085Y-98285715D02*
X177776466Y-98380953D01*
X177776466Y-98380953D02*
X177776466Y-98619048D01*
X177776466Y-98619048D02*
X177728847Y-98714286D01*
X178157419Y-99190477D02*
X177490752Y-99190477D01*
X177681228Y-99190477D02*
X177585990Y-99238096D01*
X177585990Y-99238096D02*
X177538371Y-99285715D01*
X177538371Y-99285715D02*
X177490752Y-99380953D01*
X177490752Y-99380953D02*
X177490752Y-99476191D01*
X177490752Y-100238096D02*
X178300276Y-100238096D01*
X178300276Y-100238096D02*
X178395514Y-100190477D01*
X178395514Y-100190477D02*
X178443133Y-100142858D01*
X178443133Y-100142858D02*
X178490752Y-100047620D01*
X178490752Y-100047620D02*
X178490752Y-99904763D01*
X178490752Y-99904763D02*
X178443133Y-99809525D01*
X178109800Y-100238096D02*
X178157419Y-100142858D01*
X178157419Y-100142858D02*
X178157419Y-99952382D01*
X178157419Y-99952382D02*
X178109800Y-99857144D01*
X178109800Y-99857144D02*
X178062180Y-99809525D01*
X178062180Y-99809525D02*
X177966942Y-99761906D01*
X177966942Y-99761906D02*
X177681228Y-99761906D01*
X177681228Y-99761906D02*
X177585990Y-99809525D01*
X177585990Y-99809525D02*
X177538371Y-99857144D01*
X177538371Y-99857144D02*
X177490752Y-99952382D01*
X177490752Y-99952382D02*
X177490752Y-100142858D01*
X177490752Y-100142858D02*
X177538371Y-100238096D01*
X178109800Y-101095239D02*
X178157419Y-101000001D01*
X178157419Y-101000001D02*
X178157419Y-100809525D01*
X178157419Y-100809525D02*
X178109800Y-100714287D01*
X178109800Y-100714287D02*
X178014561Y-100666668D01*
X178014561Y-100666668D02*
X177633609Y-100666668D01*
X177633609Y-100666668D02*
X177538371Y-100714287D01*
X177538371Y-100714287D02*
X177490752Y-100809525D01*
X177490752Y-100809525D02*
X177490752Y-101000001D01*
X177490752Y-101000001D02*
X177538371Y-101095239D01*
X177538371Y-101095239D02*
X177633609Y-101142858D01*
X177633609Y-101142858D02*
X177728847Y-101142858D01*
X177728847Y-101142858D02*
X177824085Y-100666668D01*
X178157419Y-101571430D02*
X177490752Y-101571430D01*
X177681228Y-101571430D02*
X177585990Y-101619049D01*
X177585990Y-101619049D02*
X177538371Y-101666668D01*
X177538371Y-101666668D02*
X177490752Y-101761906D01*
X177490752Y-101761906D02*
X177490752Y-101857144D01*
X178157419Y-102714287D02*
X178157419Y-102142859D01*
X178157419Y-102428573D02*
X177157419Y-102428573D01*
X177157419Y-102428573D02*
X177300276Y-102333335D01*
X177300276Y-102333335D02*
X177395514Y-102238097D01*
X177395514Y-102238097D02*
X177443133Y-102142859D01*
X175272847Y-106241904D02*
X175310942Y-106356190D01*
X175310942Y-106356190D02*
X175349038Y-106394285D01*
X175349038Y-106394285D02*
X175425228Y-106432381D01*
X175425228Y-106432381D02*
X175539514Y-106432381D01*
X175539514Y-106432381D02*
X175615704Y-106394285D01*
X175615704Y-106394285D02*
X175653800Y-106356190D01*
X175653800Y-106356190D02*
X175691895Y-106280000D01*
X175691895Y-106280000D02*
X175691895Y-105975238D01*
X175691895Y-105975238D02*
X174891895Y-105975238D01*
X174891895Y-105975238D02*
X174891895Y-106241904D01*
X174891895Y-106241904D02*
X174929990Y-106318095D01*
X174929990Y-106318095D02*
X174968085Y-106356190D01*
X174968085Y-106356190D02*
X175044276Y-106394285D01*
X175044276Y-106394285D02*
X175120466Y-106394285D01*
X175120466Y-106394285D02*
X175196657Y-106356190D01*
X175196657Y-106356190D02*
X175234752Y-106318095D01*
X175234752Y-106318095D02*
X175272847Y-106241904D01*
X175272847Y-106241904D02*
X175272847Y-105975238D01*
X175387133Y-106775238D02*
X175387133Y-107384762D01*
X175691895Y-107080000D02*
X175082371Y-107080000D01*
X180018847Y-106241904D02*
X180056942Y-106356190D01*
X180056942Y-106356190D02*
X180095038Y-106394285D01*
X180095038Y-106394285D02*
X180171228Y-106432381D01*
X180171228Y-106432381D02*
X180285514Y-106432381D01*
X180285514Y-106432381D02*
X180361704Y-106394285D01*
X180361704Y-106394285D02*
X180399800Y-106356190D01*
X180399800Y-106356190D02*
X180437895Y-106280000D01*
X180437895Y-106280000D02*
X180437895Y-105975238D01*
X180437895Y-105975238D02*
X179637895Y-105975238D01*
X179637895Y-105975238D02*
X179637895Y-106241904D01*
X179637895Y-106241904D02*
X179675990Y-106318095D01*
X179675990Y-106318095D02*
X179714085Y-106356190D01*
X179714085Y-106356190D02*
X179790276Y-106394285D01*
X179790276Y-106394285D02*
X179866466Y-106394285D01*
X179866466Y-106394285D02*
X179942657Y-106356190D01*
X179942657Y-106356190D02*
X179980752Y-106318095D01*
X179980752Y-106318095D02*
X180018847Y-106241904D01*
X180018847Y-106241904D02*
X180018847Y-105975238D01*
X180133133Y-106775238D02*
X180133133Y-107384762D01*
X170775133Y-85494211D02*
X170775133Y-86103735D01*
X171079895Y-85798973D02*
X170470371Y-85798973D01*
X170279895Y-102008646D02*
X170279895Y-102161027D01*
X170279895Y-102161027D02*
X170317990Y-102237217D01*
X170317990Y-102237217D02*
X170394180Y-102313408D01*
X170394180Y-102313408D02*
X170546561Y-102351503D01*
X170546561Y-102351503D02*
X170813228Y-102351503D01*
X170813228Y-102351503D02*
X170965609Y-102313408D01*
X170965609Y-102313408D02*
X171041800Y-102237217D01*
X171041800Y-102237217D02*
X171079895Y-102161027D01*
X171079895Y-102161027D02*
X171079895Y-102008646D01*
X171079895Y-102008646D02*
X171041800Y-101932455D01*
X171041800Y-101932455D02*
X170965609Y-101856265D01*
X170965609Y-101856265D02*
X170813228Y-101818169D01*
X170813228Y-101818169D02*
X170546561Y-101818169D01*
X170546561Y-101818169D02*
X170394180Y-101856265D01*
X170394180Y-101856265D02*
X170317990Y-101932455D01*
X170317990Y-101932455D02*
X170279895Y-102008646D01*
X170279895Y-102694360D02*
X170927514Y-102694360D01*
X170927514Y-102694360D02*
X171003704Y-102732455D01*
X171003704Y-102732455D02*
X171041800Y-102770550D01*
X171041800Y-102770550D02*
X171079895Y-102846741D01*
X171079895Y-102846741D02*
X171079895Y-102999122D01*
X171079895Y-102999122D02*
X171041800Y-103075312D01*
X171041800Y-103075312D02*
X171003704Y-103113407D01*
X171003704Y-103113407D02*
X170927514Y-103151503D01*
X170927514Y-103151503D02*
X170279895Y-103151503D01*
X170279895Y-103418169D02*
X170279895Y-103875312D01*
X171079895Y-103646740D02*
X170279895Y-103646740D01*
X170775133Y-104141979D02*
X170775133Y-104751503D01*
X171079895Y-104446741D02*
X170470371Y-104446741D01*
X184745133Y-85494211D02*
X184745133Y-86103735D01*
X184249895Y-102008646D02*
X184249895Y-102161027D01*
X184249895Y-102161027D02*
X184287990Y-102237217D01*
X184287990Y-102237217D02*
X184364180Y-102313408D01*
X184364180Y-102313408D02*
X184516561Y-102351503D01*
X184516561Y-102351503D02*
X184783228Y-102351503D01*
X184783228Y-102351503D02*
X184935609Y-102313408D01*
X184935609Y-102313408D02*
X185011800Y-102237217D01*
X185011800Y-102237217D02*
X185049895Y-102161027D01*
X185049895Y-102161027D02*
X185049895Y-102008646D01*
X185049895Y-102008646D02*
X185011800Y-101932455D01*
X185011800Y-101932455D02*
X184935609Y-101856265D01*
X184935609Y-101856265D02*
X184783228Y-101818169D01*
X184783228Y-101818169D02*
X184516561Y-101818169D01*
X184516561Y-101818169D02*
X184364180Y-101856265D01*
X184364180Y-101856265D02*
X184287990Y-101932455D01*
X184287990Y-101932455D02*
X184249895Y-102008646D01*
X184249895Y-102694360D02*
X184897514Y-102694360D01*
X184897514Y-102694360D02*
X184973704Y-102732455D01*
X184973704Y-102732455D02*
X185011800Y-102770550D01*
X185011800Y-102770550D02*
X185049895Y-102846741D01*
X185049895Y-102846741D02*
X185049895Y-102999122D01*
X185049895Y-102999122D02*
X185011800Y-103075312D01*
X185011800Y-103075312D02*
X184973704Y-103113407D01*
X184973704Y-103113407D02*
X184897514Y-103151503D01*
X184897514Y-103151503D02*
X184249895Y-103151503D01*
X184249895Y-103418169D02*
X184249895Y-103875312D01*
X185049895Y-103646740D02*
X184249895Y-103646740D01*
X184745133Y-104141979D02*
X184745133Y-104751503D01*
%TO.C,Battery_Charger1*%
X169000000Y-82550000D02*
X186400000Y-82550000D01*
X186400000Y-110450000D01*
X169000000Y-110450000D01*
X169000000Y-82550000D01*
X173180000Y-81210000D02*
X182220000Y-81210000D01*
X182220000Y-88070000D01*
X173180000Y-88070000D01*
X173180000Y-81210000D01*
%TD*%
M02*
