%TF.GenerationSoftware,KiCad,Pcbnew,9.0.0*%
%TF.CreationDate,2025-05-21T23:54:08-07:00*%
%TF.ProjectId,server,73657276-6572-42e6-9b69-6361645f7063,v0.3*%
%TF.SameCoordinates,Original*%
%TF.FileFunction,Soldermask,Top*%
%TF.FilePolarity,Negative*%
%FSLAX46Y46*%
G04 Gerber Fmt 4.6, Leading zero omitted, Abs format (unit mm)*
G04 Created by KiCad (PCBNEW 9.0.0) date 2025-05-21 23:54:08*
%MOMM*%
%LPD*%
G01*
G04 APERTURE LIST*
%ADD10C,1.800000*%
%ADD11R,1.800000X1.800000*%
%ADD12C,2.200000*%
G04 APERTURE END LIST*
D10*
%TO.C,R2*%
X148990000Y-97790000D03*
X156610000Y-97790000D03*
%TD*%
%TO.C,ESP32_Nano1*%
X146050000Y-115570000D03*
X146050000Y-113030000D03*
X146050000Y-110490000D03*
X146050000Y-107950000D03*
X146050000Y-105410000D03*
X146050000Y-102870000D03*
X146050000Y-100330000D03*
X146050000Y-97790000D03*
X146050000Y-95250000D03*
X146050000Y-92710000D03*
X146050000Y-90170000D03*
X146050000Y-87630000D03*
X146050000Y-85090000D03*
X146050000Y-82550000D03*
X146050000Y-80010000D03*
X130810000Y-80010000D03*
X130806528Y-82701898D03*
X130810000Y-85090000D03*
X130810000Y-87630000D03*
X130810000Y-90170000D03*
X130810000Y-92710000D03*
X130810000Y-95250000D03*
X130810000Y-97790000D03*
X130810000Y-100330000D03*
X130810000Y-102870000D03*
X130810000Y-105410000D03*
X130810000Y-107950000D03*
X130810000Y-110490000D03*
X130810000Y-113030000D03*
X130810000Y-115570000D03*
%TD*%
%TO.C,RGB_LED_ROUND2*%
X162560000Y-97790000D03*
D11*
X162560000Y-100330000D03*
D10*
X162560000Y-102870000D03*
X162560000Y-105410000D03*
%TD*%
D12*
%TO.C,REF\u002A\u002A*%
X171450000Y-73660000D03*
%TD*%
D10*
%TO.C,R1*%
X148990000Y-95250000D03*
X156610000Y-95250000D03*
%TD*%
%TO.C,R3*%
X148990000Y-100330000D03*
X156610000Y-100330000D03*
%TD*%
%TO.C,2_PIN_CONNECTOR2*%
X161290000Y-79910000D03*
X166370000Y-79910000D03*
%TD*%
%TO.C,RGB_LED_ROUND1*%
X162560000Y-87630000D03*
D11*
X162560000Y-90170000D03*
D10*
X162560000Y-92710000D03*
X162560000Y-95250000D03*
%TD*%
%TO.C,2_PIN_CONNECTOR1*%
X151130000Y-79910000D03*
X156210000Y-79910000D03*
%TD*%
D12*
%TO.C,REF\u002A\u002A*%
X127000000Y-73660000D03*
%TD*%
D10*
%TO.C,RGB_LED_ROUND3*%
X162550000Y-107950000D03*
D11*
X162550000Y-110490000D03*
D10*
X162550000Y-113030000D03*
X162550000Y-115570000D03*
%TD*%
%TO.C,R5*%
X148990000Y-105410000D03*
X156610000Y-105410000D03*
%TD*%
D12*
%TO.C,REF\u002A\u002A*%
X127000000Y-123190000D03*
%TD*%
%TO.C,REF\u002A\u002A*%
X171450000Y-123190000D03*
%TD*%
D10*
%TO.C,R4*%
X148990000Y-102870000D03*
X156610000Y-102870000D03*
%TD*%
M02*
