%TF.GenerationSoftware,KiCad,Pcbnew,9.0.0*%
%TF.CreationDate,2025-03-19T00:35:28-07:00*%
%TF.ProjectId,server,73657276-6572-42e6-9b69-6361645f7063,v0.2*%
%TF.SameCoordinates,Original*%
%TF.FileFunction,Copper,L2,Bot*%
%TF.FilePolarity,Positive*%
%FSLAX46Y46*%
G04 Gerber Fmt 4.6, Leading zero omitted, Abs format (unit mm)*
G04 Created by KiCad (PCBNEW 9.0.0) date 2025-03-19 00:35:28*
%MOMM*%
%LPD*%
G01*
G04 APERTURE LIST*
%TA.AperFunction,ComponentPad*%
%ADD10C,1.800000*%
%TD*%
%TA.AperFunction,ComponentPad*%
%ADD11R,1.800000X1.800000*%
%TD*%
G04 APERTURE END LIST*
D10*
%TO.P,RGB_LED_ROUND2,1,R*%
%TO.N,Net-(RGB_LED_ROUND2-R)*%
X162560000Y-97790000D03*
D11*
%TO.P,RGB_LED_ROUND2,2,VCC*%
%TO.N,Net-(ESP32_Nano1-3.3V)*%
X162560000Y-100330000D03*
D10*
%TO.P,RGB_LED_ROUND2,3,G*%
%TO.N,Net-(RGB_LED_ROUND2-G)*%
X162560000Y-102870000D03*
%TO.P,RGB_LED_ROUND2,4,B*%
%TO.N,unconnected-(RGB_LED_ROUND2-B-Pad4)*%
X162560000Y-105410000D03*
%TD*%
%TO.P,R1,1*%
%TO.N,Net-(ESP32_Nano1-A4)*%
X148990000Y-97790000D03*
%TO.P,R1,2*%
%TO.N,Net-(RGB_LED_ROUND1-R)*%
X156610000Y-97790000D03*
%TD*%
%TO.P,ESP32_Nano1,1,TX1*%
%TO.N,unconnected-(ESP32_Nano1-TX1-Pad1)*%
X130810000Y-80010000D03*
%TO.P,ESP32_Nano1,2,RX0*%
%TO.N,unconnected-(ESP32_Nano1-RX0-Pad2)*%
X130810000Y-82550000D03*
%TO.P,ESP32_Nano1,3,RST*%
%TO.N,unconnected-(ESP32_Nano1-RST-Pad3)*%
X130810000Y-85090000D03*
%TO.P,ESP32_Nano1,4,GND*%
%TO.N,unconnected-(ESP32_Nano1-GND-Pad4)*%
X130810000Y-87630000D03*
%TO.P,ESP32_Nano1,5,D2*%
%TO.N,unconnected-(ESP32_Nano1-D2-Pad5)*%
X130810000Y-90170000D03*
%TO.P,ESP32_Nano1,6,D3*%
%TO.N,unconnected-(ESP32_Nano1-D3-Pad6)*%
X130810000Y-92710000D03*
%TO.P,ESP32_Nano1,7,D4*%
%TO.N,unconnected-(ESP32_Nano1-D4-Pad7)*%
X130810000Y-95250000D03*
%TO.P,ESP32_Nano1,8,D5*%
%TO.N,unconnected-(ESP32_Nano1-D5-Pad8)*%
X130810000Y-97790000D03*
%TO.P,ESP32_Nano1,9,D6*%
%TO.N,unconnected-(ESP32_Nano1-D6-Pad9)*%
X130810000Y-100330000D03*
%TO.P,ESP32_Nano1,10,D7*%
%TO.N,unconnected-(ESP32_Nano1-D7-Pad10)*%
X130810000Y-102870000D03*
%TO.P,ESP32_Nano1,11,D8*%
%TO.N,unconnected-(ESP32_Nano1-D8-Pad11)*%
X130810000Y-105410000D03*
%TO.P,ESP32_Nano1,12,D9*%
%TO.N,unconnected-(ESP32_Nano1-D9-Pad12)*%
X130810000Y-107950000D03*
%TO.P,ESP32_Nano1,13,D10*%
%TO.N,unconnected-(ESP32_Nano1-D10-Pad13)*%
X130810000Y-110490000D03*
%TO.P,ESP32_Nano1,14,D11*%
%TO.N,unconnected-(ESP32_Nano1-D11-Pad14)*%
X130810000Y-113030000D03*
%TO.P,ESP32_Nano1,15,D12*%
%TO.N,unconnected-(ESP32_Nano1-D12-Pad15)*%
X130810000Y-115570000D03*
%TO.P,ESP32_Nano1,16,D13*%
%TO.N,unconnected-(ESP32_Nano1-D13-Pad16)*%
X146050000Y-115570000D03*
%TO.P,ESP32_Nano1,17,3.3V*%
%TO.N,Net-(ESP32_Nano1-3.3V)*%
X146053472Y-112878102D03*
%TO.P,ESP32_Nano1,18,B0*%
%TO.N,unconnected-(ESP32_Nano1-B0-Pad18)*%
X146050000Y-110490000D03*
%TO.P,ESP32_Nano1,19,A0*%
%TO.N,Net-(ESP32_Nano1-A0)*%
X146050000Y-107950000D03*
%TO.P,ESP32_Nano1,20,A1*%
%TO.N,Net-(ESP32_Nano1-A1)*%
X146050000Y-105410000D03*
%TO.P,ESP32_Nano1,21,A2*%
%TO.N,Net-(ESP32_Nano1-A2)*%
X146050000Y-102870000D03*
%TO.P,ESP32_Nano1,22,A3*%
%TO.N,Net-(ESP32_Nano1-A3)*%
X146050000Y-100330000D03*
%TO.P,ESP32_Nano1,23,A4*%
%TO.N,Net-(ESP32_Nano1-A4)*%
X146050000Y-97790000D03*
%TO.P,ESP32_Nano1,24,A5*%
%TO.N,Net-(2_PIN_CONNECTOR2-Pin_2)*%
X146050000Y-95250000D03*
%TO.P,ESP32_Nano1,25,A6*%
%TO.N,Net-(2_PIN_CONNECTOR2-Pin_1)*%
X146050000Y-92710000D03*
%TO.P,ESP32_Nano1,26,A7*%
%TO.N,unconnected-(ESP32_Nano1-A7-Pad26)*%
X146050000Y-90170000D03*
%TO.P,ESP32_Nano1,27,VBUS*%
%TO.N,unconnected-(ESP32_Nano1-VBUS-Pad27)*%
X146050000Y-87630000D03*
%TO.P,ESP32_Nano1,28,B1*%
%TO.N,unconnected-(ESP32_Nano1-B1-Pad28)*%
X146050000Y-85090000D03*
%TO.P,ESP32_Nano1,29,GND*%
%TO.N,Net-(2_PIN_CONNECTOR1-Pin_2)*%
X146050000Y-82550000D03*
%TO.P,ESP32_Nano1,30,VIN*%
%TO.N,Net-(2_PIN_CONNECTOR1-Pin_1)*%
X146050000Y-80010000D03*
%TD*%
%TO.P,R3,1*%
%TO.N,Net-(ESP32_Nano1-A2)*%
X148990000Y-102870000D03*
%TO.P,R3,2*%
%TO.N,Net-(RGB_LED_ROUND2-R)*%
X156610000Y-102870000D03*
%TD*%
%TO.P,R2,1*%
%TO.N,Net-(ESP32_Nano1-A3)*%
X148990000Y-100330000D03*
%TO.P,R2,2*%
%TO.N,Net-(RGB_LED_ROUND1-G)*%
X156610000Y-100330000D03*
%TD*%
%TO.P,2_PIN_CONNECTOR2,1,Pin_1*%
%TO.N,Net-(2_PIN_CONNECTOR2-Pin_1)*%
X161290000Y-79910000D03*
%TO.P,2_PIN_CONNECTOR2,2,Pin_2*%
%TO.N,Net-(2_PIN_CONNECTOR2-Pin_2)*%
X166370000Y-79910000D03*
%TD*%
%TO.P,RGB_LED_ROUND1,1,R*%
%TO.N,Net-(RGB_LED_ROUND1-R)*%
X162560000Y-87630000D03*
D11*
%TO.P,RGB_LED_ROUND1,2,VCC*%
%TO.N,Net-(ESP32_Nano1-3.3V)*%
X162560000Y-90170000D03*
D10*
%TO.P,RGB_LED_ROUND1,3,G*%
%TO.N,Net-(RGB_LED_ROUND1-G)*%
X162560000Y-92710000D03*
%TO.P,RGB_LED_ROUND1,4,B*%
%TO.N,unconnected-(RGB_LED_ROUND1-B-Pad4)*%
X162560000Y-95250000D03*
%TD*%
%TO.P,2_PIN_CONNECTOR1,1,Pin_1*%
%TO.N,Net-(2_PIN_CONNECTOR1-Pin_1)*%
X151130000Y-79910000D03*
%TO.P,2_PIN_CONNECTOR1,2,Pin_2*%
%TO.N,Net-(2_PIN_CONNECTOR1-Pin_2)*%
X156210000Y-79910000D03*
%TD*%
%TO.P,RGB_LED_ROUND3,1,R*%
%TO.N,unconnected-(RGB_LED_ROUND3-R-Pad1)*%
X162550000Y-107950000D03*
D11*
%TO.P,RGB_LED_ROUND3,2,VCC*%
%TO.N,Net-(ESP32_Nano1-3.3V)*%
X162550000Y-110490000D03*
D10*
%TO.P,RGB_LED_ROUND3,3,G*%
%TO.N,unconnected-(RGB_LED_ROUND3-G-Pad3)*%
X162550000Y-113030000D03*
%TO.P,RGB_LED_ROUND3,4,B*%
%TO.N,Net-(RGB_LED_ROUND3-B)*%
X162550000Y-115570000D03*
%TD*%
%TO.P,R5,1*%
%TO.N,Net-(ESP32_Nano1-A0)*%
X148990000Y-107950000D03*
%TO.P,R5,2*%
%TO.N,Net-(RGB_LED_ROUND3-B)*%
X156610000Y-107950000D03*
%TD*%
%TO.P,R4,1*%
%TO.N,Net-(ESP32_Nano1-A1)*%
X148990000Y-105410000D03*
%TO.P,R4,2*%
%TO.N,Net-(RGB_LED_ROUND2-G)*%
X156610000Y-105410000D03*
%TD*%
M02*
