%TF.GenerationSoftware,KiCad,Pcbnew,9.0.0*%
%TF.CreationDate,2025-03-09T03:37:22-07:00*%
%TF.ProjectId,tag,7461672e-6b69-4636-9164-5f7063625858,v0.1*%
%TF.SameCoordinates,Original*%
%TF.FileFunction,Copper,L2,Bot*%
%TF.FilePolarity,Positive*%
%FSLAX46Y46*%
G04 Gerber Fmt 4.6, Leading zero omitted, Abs format (unit mm)*
G04 Created by KiCad (PCBNEW 9.0.0) date 2025-03-09 03:37:22*
%MOMM*%
%LPD*%
G01*
G04 APERTURE LIST*
%TA.AperFunction,ComponentPad*%
%ADD10C,1.800000*%
%TD*%
%TA.AperFunction,ComponentPad*%
%ADD11R,1.800000X1.800000*%
%TD*%
G04 APERTURE END LIST*
D10*
%TO.P,ESP32_UWB1,1,3V3*%
%TO.N,Net-(ESP32_UWB1-3V3)*%
X40855000Y-48260000D03*
%TO.P,ESP32_UWB1,2,GND*%
%TO.N,unconnected-(ESP32_UWB1-GND-Pad2)*%
X43395000Y-48260000D03*
%TO.P,ESP32_UWB1,3,RST*%
%TO.N,unconnected-(ESP32_UWB1-RST-Pad3)*%
X45935000Y-48260000D03*
%TO.P,ESP32_UWB1,4,GND*%
%TO.N,unconnected-(ESP32_UWB1-GND-Pad4)*%
X48475000Y-48260000D03*
%TO.P,ESP32_UWB1,5,IO2*%
%TO.N,unconnected-(ESP32_UWB1-IO2-Pad5)*%
X51015000Y-48260000D03*
%TO.P,ESP32_UWB1,6,IO12*%
%TO.N,Net-(ESP32_UWB1-IO12)*%
X53555000Y-48260000D03*
%TO.P,ESP32_UWB1,7,IO13*%
%TO.N,Net-(ESP32_UWB1-IO13)*%
X56095000Y-48260000D03*
%TO.P,ESP32_UWB1,8,IO14*%
%TO.N,Net-(ESP32_UWB1-IO14)*%
X58635000Y-48260000D03*
%TO.P,ESP32_UWB1,9,IO15*%
%TO.N,Net-(ESP32_UWB1-IO15)*%
X61175000Y-48260000D03*
%TO.P,ESP32_UWB1,10,IO18*%
%TO.N,unconnected-(ESP32_UWB1-IO18-Pad10)*%
X63715000Y-48260000D03*
%TO.P,ESP32_UWB1,11,IO19*%
%TO.N,unconnected-(ESP32_UWB1-IO19-Pad11)*%
X66255000Y-48260000D03*
%TO.P,ESP32_UWB1,12,IO25*%
%TO.N,unconnected-(ESP32_UWB1-IO25-Pad12)*%
X68795000Y-48260000D03*
%TO.P,ESP32_UWB1,13,IO26*%
%TO.N,unconnected-(ESP32_UWB1-IO26-Pad13)*%
X71335000Y-48260000D03*
%TO.P,ESP32_UWB1,14,IO27*%
%TO.N,unconnected-(ESP32_UWB1-IO27-Pad14)*%
X73875000Y-48260000D03*
%TO.P,ESP32_UWB1,15,IO32*%
%TO.N,unconnected-(ESP32_UWB1-IO32-Pad15)*%
X76415000Y-48260000D03*
%TO.P,ESP32_UWB1,16,IO33*%
%TO.N,unconnected-(ESP32_UWB1-IO33-Pad16)*%
X78955000Y-48260000D03*
%TO.P,ESP32_UWB1,17,IO34*%
%TO.N,unconnected-(ESP32_UWB1-IO34-Pad17)*%
X81495000Y-48260000D03*
%TO.P,ESP32_UWB1,18,IO35*%
%TO.N,unconnected-(ESP32_UWB1-IO35-Pad18)*%
X84035000Y-48260000D03*
%TO.P,ESP32_UWB1,19,IO36*%
%TO.N,unconnected-(ESP32_UWB1-IO36-Pad19)*%
X86575000Y-48260000D03*
%TO.P,ESP32_UWB1,20,IO39*%
%TO.N,Net-(ESP32_UWB1-IO39)*%
X89115000Y-48260000D03*
%TO.P,ESP32_UWB1,21,5V0*%
%TO.N,Net-(ESP32_UWB1-5V0)*%
X40855000Y-20320000D03*
%TO.P,ESP32_UWB1,22,GND*%
%TO.N,Net-(Battery_Charger1-OUT-)*%
X43395000Y-20320000D03*
%TO.P,ESP32_UWB1,23,IO3*%
%TO.N,unconnected-(ESP32_UWB1-IO3-Pad23)*%
X45935000Y-20320000D03*
%TO.P,ESP32_UWB1,24,IO1*%
%TO.N,unconnected-(ESP32_UWB1-IO1-Pad24)*%
X48475000Y-20320000D03*
%TO.P,ESP32_UWB1,25,IO0*%
%TO.N,unconnected-(ESP32_UWB1-IO0-Pad25)*%
X51015000Y-20320000D03*
%TO.P,ESP32_UWB1,26,IO4*%
%TO.N,unconnected-(ESP32_UWB1-IO4-Pad26)*%
X53555000Y-20320000D03*
%TO.P,ESP32_UWB1,27,IO5*%
%TO.N,unconnected-(ESP32_UWB1-IO5-Pad27)*%
X56095000Y-20320000D03*
%TO.P,ESP32_UWB1,28,IO16*%
%TO.N,unconnected-(ESP32_UWB1-IO16-Pad28)*%
X58635000Y-20320000D03*
%TO.P,ESP32_UWB1,29,IO17*%
%TO.N,unconnected-(ESP32_UWB1-IO17-Pad29)*%
X61175000Y-20320000D03*
%TO.P,ESP32_UWB1,30,IO21*%
%TO.N,unconnected-(ESP32_UWB1-IO21-Pad30)*%
X63715000Y-20320000D03*
%TO.P,ESP32_UWB1,31,IO22*%
%TO.N,unconnected-(ESP32_UWB1-IO22-Pad31)*%
X66255000Y-20320000D03*
%TO.P,ESP32_UWB1,32,IO23*%
%TO.N,unconnected-(ESP32_UWB1-IO23-Pad32)*%
X68795000Y-20320000D03*
%TD*%
D11*
%TO.P,5V_DC_DC_Converter1,1,+*%
%TO.N,Net-(5V_DC_DC_Converter1-+-Pad1)*%
X25185000Y-48260000D03*
D10*
%TO.P,5V_DC_DC_Converter1,2,CTL*%
%TO.N,unconnected-(5V_DC_DC_Converter1-CTL-Pad2)*%
X27725000Y-48260000D03*
%TO.P,5V_DC_DC_Converter1,3,-*%
%TO.N,Net-(Battery_Charger1-OUT-)*%
X30265000Y-48260000D03*
D11*
%TO.P,5V_DC_DC_Converter1,4,+*%
%TO.N,Net-(ESP32_UWB1-5V0)*%
X25185000Y-25400000D03*
D10*
%TO.P,5V_DC_DC_Converter1,5,-*%
%TO.N,Net-(Battery_Charger1-OUT-)*%
X27725000Y-25400000D03*
%TD*%
%TO.P,R1,1*%
%TO.N,Net-(RGB_LED_ROUND1-R)*%
X53555000Y-59690000D03*
%TO.P,R1,2*%
%TO.N,Net-(ESP32_UWB1-IO12)*%
X53555000Y-52070000D03*
%TD*%
%TO.P,RGB_LED_ROUND1,1,R*%
%TO.N,Net-(RGB_LED_ROUND1-R)*%
X42125000Y-55880000D03*
D11*
%TO.P,RGB_LED_ROUND1,2,VCC*%
%TO.N,Net-(ESP32_UWB1-3V3)*%
X44665000Y-55880000D03*
D10*
%TO.P,RGB_LED_ROUND1,3,G*%
%TO.N,Net-(RGB_LED_ROUND1-G)*%
X47205000Y-55880000D03*
%TO.P,RGB_LED_ROUND1,4,B*%
%TO.N,unconnected-(RGB_LED_ROUND1-B-Pad4)*%
X49745000Y-55880000D03*
%TD*%
%TO.P,R2,1*%
%TO.N,Net-(RGB_LED_ROUND1-G)*%
X56095000Y-59690000D03*
%TO.P,R2,2*%
%TO.N,Net-(ESP32_UWB1-IO13)*%
X56095000Y-52070000D03*
%TD*%
%TO.P,R4,1*%
%TO.N,Net-(RGB_LED_ROUND2-G)*%
X61175000Y-59690000D03*
%TO.P,R4,2*%
%TO.N,Net-(ESP32_UWB1-IO15)*%
X61175000Y-52070000D03*
%TD*%
%TO.P,RGB_LED_ROUND2,1,R*%
%TO.N,Net-(RGB_LED_ROUND2-R)*%
X64985000Y-55880000D03*
D11*
%TO.P,RGB_LED_ROUND2,2,VCC*%
%TO.N,Net-(ESP32_UWB1-3V3)*%
X67525000Y-55880000D03*
D10*
%TO.P,RGB_LED_ROUND2,3,G*%
%TO.N,Net-(RGB_LED_ROUND2-G)*%
X70065000Y-55880000D03*
%TO.P,RGB_LED_ROUND2,4,B*%
%TO.N,unconnected-(RGB_LED_ROUND2-B-Pad4)*%
X72605000Y-55880000D03*
%TD*%
%TO.P,R3,1*%
%TO.N,Net-(RGB_LED_ROUND2-R)*%
X58635000Y-59690000D03*
%TO.P,R3,2*%
%TO.N,Net-(ESP32_UWB1-IO14)*%
X58635000Y-52070000D03*
%TD*%
%TO.P,R6,1*%
%TO.N,Net-(Battery_Charger1-OUT-)*%
X86575000Y-59690000D03*
%TO.P,R6,2*%
%TO.N,Net-(ESP32_UWB1-IO39)*%
X86575000Y-52070000D03*
%TD*%
%TO.P,ON_OFF_SWITCH1,1*%
%TO.N,unconnected-(ON_OFF_SWITCH1-Pad1)*%
X24345000Y-55880000D03*
%TO.P,ON_OFF_SWITCH1,2*%
%TO.N,Net-(5V_DC_DC_Converter1-+-Pad1)*%
X26885000Y-55880000D03*
%TO.P,ON_OFF_SWITCH1,3*%
%TO.N,Net-(Battery_Charger1-OUT+)*%
X29425000Y-55880000D03*
%TD*%
%TO.P,R5,1*%
%TO.N,Net-(5V_DC_DC_Converter1-+-Pad1)*%
X84035000Y-59690000D03*
%TO.P,R5,2*%
%TO.N,Net-(ESP32_UWB1-IO39)*%
X84035000Y-52070000D03*
%TD*%
D11*
%TO.P,Battery_Charger1,1,+*%
%TO.N,unconnected-(Battery_Charger1-+-Pad1)*%
X91655000Y-19050000D03*
%TO.P,Battery_Charger1,2,-*%
%TO.N,unconnected-(Battery_Charger1---Pad2)*%
X105625000Y-19050000D03*
%TO.P,Battery_Charger1,3,OUT+*%
%TO.N,Net-(Battery_Charger1-OUT+)*%
X91655000Y-41910000D03*
%TO.P,Battery_Charger1,4,B+*%
%TO.N,unconnected-(Battery_Charger1-B+-Pad4)*%
X94195000Y-41910000D03*
%TO.P,Battery_Charger1,5,B-*%
%TO.N,unconnected-(Battery_Charger1-B--Pad5)*%
X103085000Y-41910000D03*
%TO.P,Battery_Charger1,6,OUT-*%
%TO.N,Net-(Battery_Charger1-OUT-)*%
X105625000Y-41910000D03*
%TD*%
M02*
