%TF.GenerationSoftware,KiCad,Pcbnew,9.0.0*%
%TF.CreationDate,2025-03-09T14:02:56-07:00*%
%TF.ProjectId,tag,7461672e-6b69-4636-9164-5f7063625858,v0.1*%
%TF.SameCoordinates,Original*%
%TF.FileFunction,Legend,Top*%
%TF.FilePolarity,Positive*%
%FSLAX46Y46*%
G04 Gerber Fmt 4.6, Leading zero omitted, Abs format (unit mm)*
G04 Created by KiCad (PCBNEW 9.0.0) date 2025-03-09 14:02:56*
%MOMM*%
%LPD*%
G01*
G04 APERTURE LIST*
%ADD10C,0.100000*%
%ADD11C,0.375000*%
%ADD12C,0.250000*%
%ADD13C,0.062500*%
%ADD14C,0.187500*%
%ADD15C,0.125000*%
G04 APERTURE END LIST*
D10*
G36*
X106792356Y-57749363D02*
G01*
X106757978Y-57784961D01*
X106698200Y-57725244D01*
X106698200Y-57453340D01*
X106792356Y-57358025D01*
X106792356Y-57749363D01*
G37*
G36*
X106750346Y-57888276D02*
G01*
X106438570Y-58203349D01*
X106371098Y-58203349D01*
X106371098Y-58135450D01*
X106682874Y-57820132D01*
X106757978Y-57820132D01*
X106750346Y-57888276D01*
G37*
G36*
X106354550Y-57725366D02*
G01*
X106294711Y-57784961D01*
X106259112Y-57749485D01*
X106259112Y-57359063D01*
X106354550Y-57454134D01*
X106354550Y-57725366D01*
G37*
G36*
X106259112Y-58200296D02*
G01*
X106306190Y-58247069D01*
X106354550Y-58200296D01*
X106354550Y-57881803D01*
X106294772Y-57822391D01*
X106259112Y-57859028D01*
X106259112Y-58200296D01*
G37*
G36*
X107478190Y-57749790D02*
G01*
X107443812Y-57784961D01*
X107384034Y-57725610D01*
X107384034Y-57471109D01*
X107478190Y-57375610D01*
X107478190Y-57749790D01*
G37*
G36*
X107460360Y-57359002D02*
G01*
X107366204Y-57452791D01*
X107056871Y-57452791D01*
X106962715Y-57359002D01*
X107460360Y-57359002D01*
G37*
G36*
X107040384Y-57725122D02*
G01*
X106980545Y-57784961D01*
X106944946Y-57749302D01*
X106944946Y-57375122D01*
X107040384Y-57470621D01*
X107040384Y-57725122D01*
G37*
G36*
X107478190Y-58230460D02*
G01*
X107384034Y-58134900D01*
X107384034Y-57880033D01*
X107443812Y-57820132D01*
X107478190Y-57857074D01*
X107478190Y-58230460D01*
G37*
G36*
X107460360Y-58250000D02*
G01*
X106962715Y-58250000D01*
X107056871Y-58156210D01*
X107366204Y-58156210D01*
X107460360Y-58250000D01*
G37*
G36*
X107040384Y-58136182D02*
G01*
X106944946Y-58232170D01*
X106944946Y-57859211D01*
X106980606Y-57820132D01*
X107040384Y-57880277D01*
X107040384Y-58136182D01*
G37*
G36*
X107630780Y-58250000D02*
G01*
X107630780Y-58156210D01*
X107726218Y-58156210D01*
X107726218Y-58250000D01*
X107630780Y-58250000D01*
G37*
G36*
X108030972Y-57857501D02*
G01*
X108030972Y-58235345D01*
X107935473Y-58138625D01*
X107935473Y-57880765D01*
X107995313Y-57820132D01*
X108030972Y-57857501D01*
G37*
G36*
X107935473Y-57724938D02*
G01*
X107935473Y-57469460D01*
X108030972Y-57373656D01*
X108030972Y-57749180D01*
X107995313Y-57784961D01*
X107935473Y-57724938D01*
G37*
D11*
G36*
X95624446Y-56828503D02*
G01*
X95388782Y-57027805D01*
X95022784Y-57027805D01*
X94870011Y-56828503D01*
X95624446Y-56828503D01*
G37*
G36*
X94853891Y-57660424D02*
G01*
X94790784Y-57964323D01*
X94555762Y-58160603D01*
X94669976Y-57611423D01*
X94758086Y-57537784D01*
X94853891Y-57660424D01*
G37*
G36*
X94717054Y-57384827D02*
G01*
X94825131Y-56864956D01*
X94977813Y-57064350D01*
X94921576Y-57334910D01*
X94773932Y-57461580D01*
X94717054Y-57384827D01*
G37*
G36*
X95497135Y-57611881D02*
G01*
X95382096Y-58165000D01*
X95228956Y-57967346D01*
X95292520Y-57661340D01*
X95439615Y-57537784D01*
X95497135Y-57611881D01*
G37*
G36*
X95360298Y-57335551D02*
G01*
X95416260Y-57066181D01*
X95652015Y-56866788D01*
X95544212Y-57385102D01*
X95455461Y-57461580D01*
X95360298Y-57335551D01*
G37*
G36*
X95336301Y-57397100D02*
G01*
X95412688Y-57496751D01*
X95294902Y-57596402D01*
X94880360Y-57596402D01*
X94803973Y-57496751D01*
X94921760Y-57397100D01*
X95336301Y-57397100D01*
G37*
G36*
X96499049Y-57930893D02*
G01*
X96381263Y-58030177D01*
X96304785Y-57930893D01*
X96360747Y-57661798D01*
X96507934Y-57537784D01*
X96565361Y-57612247D01*
X96499049Y-57930893D01*
G37*
G36*
X95854706Y-58165000D02*
G01*
X95778319Y-58065348D01*
X95896105Y-57965697D01*
X96262103Y-57965697D01*
X96338490Y-58065348D01*
X96220704Y-58165000D01*
X95854706Y-58165000D01*
G37*
G36*
X96612622Y-57384918D02*
G01*
X96523779Y-57461580D01*
X96428707Y-57335093D01*
X96492455Y-57028354D01*
X96728577Y-56827037D01*
X96612622Y-57384918D01*
G37*
G36*
X95900960Y-56828594D02*
G01*
X96053459Y-57029362D01*
X95989803Y-57335368D01*
X95842250Y-57461580D01*
X95785280Y-57385102D01*
X95900960Y-56828594D01*
G37*
G36*
X95672348Y-57928237D02*
G01*
X95748827Y-58027521D01*
X95866521Y-57928237D01*
X95922484Y-57659050D01*
X95826954Y-57535036D01*
X95738660Y-57609408D01*
X95672348Y-57928237D01*
G37*
G36*
X97221611Y-58075973D02*
G01*
X97103825Y-58175258D01*
X97027347Y-58075973D01*
X97113442Y-57661798D01*
X97260629Y-57537784D01*
X97318057Y-57612247D01*
X97221611Y-58075973D01*
G37*
G36*
X97365318Y-57384644D02*
G01*
X97276474Y-57461580D01*
X97181494Y-57334543D01*
X97213460Y-57180670D01*
X97331429Y-57080561D01*
X97407724Y-57180670D01*
X97365318Y-57384644D01*
G37*
G36*
X97820892Y-56927238D02*
G01*
X97700907Y-57027805D01*
X96982009Y-57027805D01*
X96905897Y-56927238D01*
X97023500Y-56828503D01*
X97742398Y-56828503D01*
X97820892Y-56927238D01*
G37*
G36*
X98749167Y-57385193D02*
G01*
X98660415Y-57461580D01*
X98565252Y-57335551D01*
X98621214Y-57066365D01*
X98738909Y-56967080D01*
X98815479Y-57066365D01*
X98749167Y-57385193D01*
G37*
G36*
X98711798Y-56927238D02*
G01*
X98593737Y-57027805D01*
X98227739Y-57027805D01*
X98151627Y-56927238D01*
X98269230Y-56828503D01*
X98635228Y-56828503D01*
X98711798Y-56927238D01*
G37*
G36*
X98635686Y-57930893D02*
G01*
X98517900Y-58030177D01*
X98441421Y-57930893D01*
X98497383Y-57661798D01*
X98644570Y-57537784D01*
X98701998Y-57612247D01*
X98635686Y-57930893D01*
G37*
G36*
X98126439Y-57335551D02*
G01*
X97978886Y-57461580D01*
X97921917Y-57385193D01*
X97988228Y-57066365D01*
X98105923Y-56967080D01*
X98182402Y-57066365D01*
X98126439Y-57335551D01*
G37*
G36*
X97991343Y-58165000D02*
G01*
X97914956Y-58065348D01*
X98032742Y-57965697D01*
X98398740Y-57965697D01*
X98475127Y-58065348D01*
X98357340Y-58165000D01*
X97991343Y-58165000D01*
G37*
G36*
X97808985Y-57928237D02*
G01*
X97885463Y-58027521D01*
X98003158Y-57928237D01*
X98059120Y-57659050D01*
X97963590Y-57535036D01*
X97875297Y-57609408D01*
X97808985Y-57928237D01*
G37*
G36*
X99059661Y-58165000D02*
G01*
X98983274Y-58065348D01*
X99101060Y-57965697D01*
X99502504Y-57965697D01*
X99655369Y-58165000D01*
X99059661Y-58165000D01*
G37*
G36*
X99933256Y-56828503D02*
G01*
X99697501Y-57027805D01*
X99296057Y-57027805D01*
X99219945Y-56927238D01*
X99337548Y-56828503D01*
X99933256Y-56828503D01*
G37*
G36*
X99194941Y-57334543D02*
G01*
X99047388Y-57460573D01*
X98990418Y-57384186D01*
X99056730Y-57065357D01*
X99174424Y-56966072D01*
X99250903Y-57065357D01*
X99194941Y-57334543D01*
G37*
G36*
X98876753Y-57930893D02*
G01*
X98953232Y-58030177D01*
X99070927Y-57930893D01*
X99126889Y-57661707D01*
X99031359Y-57537692D01*
X98943065Y-57612064D01*
X98876753Y-57930893D01*
G37*
G36*
X100966037Y-56828503D02*
G01*
X100730373Y-57027805D01*
X100364376Y-57027805D01*
X100211602Y-56828503D01*
X100966037Y-56828503D01*
G37*
G36*
X100195482Y-57660424D02*
G01*
X100132375Y-57964323D01*
X99897353Y-58160603D01*
X100011567Y-57611423D01*
X100099677Y-57537784D01*
X100195482Y-57660424D01*
G37*
G36*
X100058645Y-57384827D02*
G01*
X100166722Y-56864956D01*
X100319404Y-57064350D01*
X100263167Y-57334910D01*
X100115523Y-57461580D01*
X100058645Y-57384827D01*
G37*
G36*
X100838726Y-57611881D02*
G01*
X100723687Y-58165000D01*
X100570547Y-57967346D01*
X100634111Y-57661340D01*
X100781207Y-57537784D01*
X100838726Y-57611881D01*
G37*
G36*
X100701889Y-57335551D02*
G01*
X100757851Y-57066181D01*
X100993606Y-56866788D01*
X100885804Y-57385102D01*
X100797052Y-57461580D01*
X100701889Y-57335551D01*
G37*
G36*
X100677892Y-57397100D02*
G01*
X100754279Y-57496751D01*
X100636493Y-57596402D01*
X100221951Y-57596402D01*
X100145565Y-57496751D01*
X100263351Y-57397100D01*
X100677892Y-57397100D01*
G37*
G36*
X102034356Y-56828503D02*
G01*
X101798692Y-57027805D01*
X101432694Y-57027805D01*
X101279920Y-56828503D01*
X102034356Y-56828503D01*
G37*
G36*
X101263800Y-57660424D02*
G01*
X101200694Y-57964323D01*
X100965671Y-58160603D01*
X101079885Y-57611423D01*
X101167996Y-57537784D01*
X101263800Y-57660424D01*
G37*
G36*
X101126963Y-57384827D02*
G01*
X101235040Y-56864956D01*
X101387723Y-57064350D01*
X101331486Y-57334910D01*
X101183841Y-57461580D01*
X101126963Y-57384827D01*
G37*
G36*
X101907044Y-57611881D02*
G01*
X101792006Y-58165000D01*
X101638865Y-57967346D01*
X101702429Y-57661340D01*
X101849525Y-57537784D01*
X101907044Y-57611881D01*
G37*
G36*
X101770207Y-57335551D02*
G01*
X101826169Y-57066181D01*
X102061924Y-56866788D01*
X101954122Y-57385102D01*
X101865370Y-57461580D01*
X101770207Y-57335551D01*
G37*
G36*
X101493785Y-57173984D02*
G01*
X101613403Y-57074699D01*
X101689790Y-57173984D01*
X101608457Y-57565536D01*
X101490305Y-57666744D01*
X101412452Y-57565536D01*
X101493785Y-57173984D01*
G37*
G36*
X103058527Y-58075973D02*
G01*
X102940741Y-58175258D01*
X102864262Y-58075973D01*
X102950358Y-57661798D01*
X103097545Y-57537784D01*
X103154972Y-57612247D01*
X103058527Y-58075973D01*
G37*
G36*
X103202233Y-57384644D02*
G01*
X103113390Y-57461580D01*
X103018410Y-57334543D01*
X103050375Y-57180670D01*
X103168345Y-57080561D01*
X103244640Y-57180670D01*
X103202233Y-57384644D01*
G37*
G36*
X103657807Y-56927238D02*
G01*
X103537823Y-57027805D01*
X102818925Y-57027805D01*
X102742812Y-56927238D01*
X102860415Y-56828503D01*
X103579314Y-56828503D01*
X103657807Y-56927238D01*
G37*
G36*
X104666316Y-56828503D02*
G01*
X104430653Y-57027805D01*
X104064655Y-57027805D01*
X103911881Y-56828503D01*
X104666316Y-56828503D01*
G37*
G36*
X103895761Y-57660424D02*
G01*
X103832655Y-57964323D01*
X103597632Y-58160603D01*
X103711846Y-57611423D01*
X103799957Y-57537784D01*
X103895761Y-57660424D01*
G37*
G36*
X103758924Y-57384827D02*
G01*
X103867001Y-56864956D01*
X104019683Y-57064350D01*
X103963447Y-57334910D01*
X103815802Y-57461580D01*
X103758924Y-57384827D01*
G37*
G36*
X104539005Y-57611881D02*
G01*
X104423966Y-58165000D01*
X104270826Y-57967346D01*
X104334390Y-57661340D01*
X104481486Y-57537784D01*
X104539005Y-57611881D01*
G37*
G36*
X104402168Y-57335551D02*
G01*
X104458130Y-57066181D01*
X104693885Y-56866788D01*
X104586083Y-57385102D01*
X104497331Y-57461580D01*
X104402168Y-57335551D01*
G37*
G36*
X104378171Y-57397100D02*
G01*
X104454558Y-57496751D01*
X104336772Y-57596402D01*
X103922231Y-57596402D01*
X103845844Y-57496751D01*
X103963630Y-57397100D01*
X104378171Y-57397100D01*
G37*
G36*
X105770172Y-56828503D02*
G01*
X105534417Y-57027805D01*
X105132973Y-57027805D01*
X105056861Y-56927238D01*
X105174464Y-56828503D01*
X105770172Y-56828503D01*
G37*
G36*
X105528738Y-57468358D02*
G01*
X105411135Y-57567093D01*
X105190767Y-57567093D01*
X105114105Y-57468358D01*
X105232258Y-57367791D01*
X105452626Y-57367791D01*
X105528738Y-57468358D01*
G37*
G36*
X105037352Y-57308165D02*
G01*
X104890165Y-57432271D01*
X104832829Y-57357807D01*
X104893554Y-57065724D01*
X105011340Y-56966439D01*
X105087727Y-57065724D01*
X105037352Y-57308165D01*
G37*
G36*
X104907934Y-57930801D02*
G01*
X104790148Y-58030177D01*
X104713761Y-57930801D01*
X104786026Y-57583030D01*
X104874320Y-57508475D01*
X104969849Y-57632672D01*
X104907934Y-57930801D01*
G37*
G36*
X105541377Y-57928695D02*
G01*
X105423683Y-58027521D01*
X105347113Y-57928695D01*
X105408845Y-57632031D01*
X105555849Y-57508475D01*
X105613368Y-57582663D01*
X105541377Y-57928695D01*
G37*
G36*
X105262574Y-58165000D02*
G01*
X105380360Y-58065348D01*
X105303973Y-57965697D01*
X104937976Y-57965697D01*
X104820189Y-58065348D01*
X104896576Y-58165000D01*
X105262574Y-58165000D01*
G37*
D10*
G36*
X93938856Y-59173728D02*
G01*
X94116030Y-59170578D01*
X94245011Y-59172842D01*
X94292471Y-59177245D01*
X94331086Y-59186478D01*
X94350430Y-59194831D01*
X94372265Y-59208973D01*
X94379004Y-59230100D01*
X94372265Y-59248980D01*
X94367209Y-59262389D01*
X94360468Y-59280707D01*
X94353800Y-59299098D01*
X94342883Y-59314998D01*
X94329268Y-59323039D01*
X94304194Y-59327528D01*
X94162265Y-59329213D01*
X93922003Y-59332584D01*
X93822193Y-59336359D01*
X93801103Y-59334269D01*
X93780000Y-59317117D01*
X93774212Y-59300710D01*
X93767984Y-59283931D01*
X93761542Y-59273717D01*
X93764833Y-59257113D01*
X93764833Y-59220183D01*
X93763880Y-59188383D01*
X93768307Y-59182218D01*
X93777582Y-59179957D01*
X93790112Y-59176073D01*
X93799418Y-59176806D01*
X93820838Y-59179371D01*
X93938856Y-59173728D01*
G37*
G36*
X94691515Y-59173728D02*
G01*
X94868689Y-59170578D01*
X94997669Y-59172842D01*
X95045130Y-59177245D01*
X95083744Y-59186478D01*
X95103088Y-59194831D01*
X95124924Y-59208973D01*
X95131663Y-59230100D01*
X95124924Y-59248980D01*
X95119868Y-59262389D01*
X95113127Y-59280707D01*
X95106459Y-59299098D01*
X95095541Y-59314998D01*
X95081927Y-59323039D01*
X95056853Y-59327528D01*
X94914924Y-59329213D01*
X94674662Y-59332584D01*
X94574852Y-59336359D01*
X94553762Y-59334269D01*
X94532658Y-59317117D01*
X94526871Y-59300710D01*
X94520642Y-59283931D01*
X94514200Y-59273717D01*
X94517492Y-59257113D01*
X94517492Y-59220183D01*
X94516539Y-59188383D01*
X94520966Y-59182218D01*
X94530241Y-59179957D01*
X94542771Y-59176073D01*
X94552077Y-59176806D01*
X94573496Y-59179371D01*
X94691515Y-59173728D01*
G37*
G36*
X96684610Y-58607476D02*
G01*
X96698372Y-58617455D01*
X96714945Y-58641841D01*
X96736853Y-58681262D01*
X96752094Y-58703903D01*
X96778985Y-58748379D01*
X96794226Y-58789412D01*
X96785787Y-58814384D01*
X96753999Y-58844807D01*
X96718408Y-58873218D01*
X96688566Y-58908481D01*
X96670102Y-58926139D01*
X96660063Y-58937057D01*
X96655813Y-58948781D01*
X96648266Y-58955449D01*
X96640793Y-58963875D01*
X96639913Y-58972228D01*
X96643284Y-58976478D01*
X96638301Y-58975599D01*
X96629803Y-58972825D01*
X96626504Y-58985637D01*
X96623134Y-58995749D01*
X96621448Y-59000731D01*
X96622254Y-59002416D01*
X96619763Y-59002416D01*
X96609652Y-59009964D01*
X96602984Y-59022567D01*
X96598001Y-59032678D01*
X96580342Y-59049458D01*
X96567813Y-59057811D01*
X96559386Y-59062867D01*
X96554331Y-59072905D01*
X96556833Y-59076100D01*
X96569498Y-59067849D01*
X96572795Y-59064479D01*
X96581245Y-59057065D01*
X96582907Y-59059496D01*
X96576166Y-59071220D01*
X96563636Y-59077888D01*
X96550227Y-59089684D01*
X96539383Y-59114817D01*
X96532642Y-59129105D01*
X96529271Y-59139950D01*
X96529271Y-59145005D01*
X96525901Y-59146691D01*
X96529271Y-59166841D01*
X96533537Y-59174376D01*
X96537698Y-59175194D01*
X96541068Y-59175194D01*
X96536012Y-59188603D01*
X96533448Y-59205382D01*
X96532642Y-59213809D01*
X96526780Y-59228903D01*
X96524289Y-59242312D01*
X96520991Y-59250665D01*
X96505018Y-59294336D01*
X96495859Y-59335368D01*
X96493294Y-59342109D01*
X96484941Y-59371492D01*
X96477394Y-59407542D01*
X96477394Y-59418386D01*
X96478200Y-59436851D01*
X96477394Y-59458687D01*
X96474903Y-59483013D01*
X96472411Y-59510637D01*
X96467429Y-59519063D01*
X96462373Y-59510637D01*
X96460688Y-59500599D01*
X96457317Y-59510637D01*
X96456511Y-59527490D01*
X96460688Y-59529102D01*
X96468162Y-59524046D01*
X96469847Y-59529102D01*
X96469847Y-59536649D01*
X96469847Y-59548373D01*
X96468771Y-59557054D01*
X96474023Y-59565152D01*
X96475709Y-59569329D01*
X96471459Y-59571893D01*
X96470653Y-59586108D01*
X96468362Y-59600528D01*
X96463106Y-59606258D01*
X96459216Y-59611725D01*
X96457391Y-59626408D01*
X96460688Y-59651541D01*
X96463985Y-59648170D01*
X96467282Y-59639817D01*
X96468968Y-59647364D01*
X96467282Y-59663338D01*
X96462227Y-59673376D01*
X96459662Y-59688470D01*
X96463912Y-59703564D01*
X96465597Y-59691841D01*
X96466269Y-59682435D01*
X96470580Y-59680044D01*
X96475635Y-59686785D01*
X96470653Y-59718659D01*
X96472338Y-59738735D01*
X96475709Y-59751338D01*
X96474023Y-59762256D01*
X96468088Y-59773100D01*
X96470653Y-59784018D01*
X96475709Y-59794130D01*
X96477321Y-59800797D01*
X96480618Y-59805853D01*
X96487359Y-59819262D01*
X96490730Y-59825051D01*
X96485674Y-59829227D01*
X96479006Y-59838386D01*
X96474023Y-59849231D01*
X96469920Y-59857511D01*
X96464938Y-59864985D01*
X96452481Y-59880811D01*
X96441919Y-59889999D01*
X96430939Y-59884182D01*
X96422586Y-59879126D01*
X96406759Y-59880811D01*
X96394552Y-59882798D01*
X96389320Y-59887479D01*
X96387403Y-59895435D01*
X96391005Y-59897444D01*
X96396024Y-59898800D01*
X96394303Y-59902500D01*
X96385950Y-59905797D01*
X96375984Y-59900009D01*
X96367705Y-59894294D01*
X96362722Y-59891143D01*
X96356127Y-59888065D01*
X96346382Y-59884181D01*
X96342792Y-59871286D01*
X96342664Y-59870846D01*
X96354735Y-59870846D01*
X96361403Y-59867476D01*
X96365491Y-59861101D01*
X96363894Y-59857364D01*
X96356421Y-59862420D01*
X96354735Y-59870846D01*
X96342664Y-59870846D01*
X96340730Y-59864187D01*
X96334365Y-59859489D01*
X96321360Y-59840658D01*
X96331215Y-59840658D01*
X96332827Y-59846446D01*
X96337883Y-59846446D01*
X96336197Y-59840585D01*
X96331215Y-59840658D01*
X96321360Y-59840658D01*
X96318172Y-59836042D01*
X96307108Y-59805853D01*
X96302858Y-59794936D01*
X96301241Y-59789703D01*
X96305349Y-59778156D01*
X96312586Y-59768418D01*
X96317146Y-59767239D01*
X96319638Y-59764747D01*
X96323887Y-59754709D01*
X96328063Y-59746914D01*
X96328064Y-59738735D01*
X96356421Y-59738735D01*
X96357227Y-59748847D01*
X96359791Y-59750532D01*
X96363088Y-59740421D01*
X96358106Y-59728697D01*
X96356421Y-59738735D01*
X96328064Y-59738735D01*
X96328064Y-59731628D01*
X96337883Y-59731628D01*
X96341253Y-59738296D01*
X96342938Y-59731628D01*
X96339568Y-59724887D01*
X96337883Y-59731628D01*
X96328064Y-59731628D01*
X96328064Y-59730382D01*
X96326196Y-59703375D01*
X96332913Y-59703375D01*
X96336197Y-59711478D01*
X96339568Y-59709793D01*
X96336197Y-59701439D01*
X96332913Y-59703375D01*
X96326196Y-59703375D01*
X96323887Y-59670005D01*
X96323868Y-59669566D01*
X96332900Y-59669566D01*
X96336197Y-59684660D01*
X96339568Y-59679604D01*
X96336197Y-59666195D01*
X96332900Y-59669566D01*
X96323868Y-59669566D01*
X96323374Y-59657842D01*
X96332900Y-59657842D01*
X96336197Y-59661139D01*
X96339568Y-59659454D01*
X96336197Y-59656157D01*
X96332900Y-59657842D01*
X96323374Y-59657842D01*
X96321781Y-59620107D01*
X96329529Y-59620107D01*
X96332827Y-59624283D01*
X96336197Y-59622598D01*
X96332827Y-59618421D01*
X96329529Y-59620107D01*
X96321781Y-59620107D01*
X96320608Y-59592316D01*
X96332298Y-59592316D01*
X96336124Y-59596220D01*
X96341107Y-59597905D01*
X96345283Y-59602082D01*
X96346162Y-59648170D01*
X96348141Y-59693526D01*
X96354149Y-59711918D01*
X96358106Y-59723641D01*
X96358106Y-59713163D01*
X96379941Y-59713163D01*
X96383238Y-59734925D01*
X96385730Y-59713163D01*
X96382432Y-59691328D01*
X96379941Y-59713163D01*
X96358106Y-59713163D01*
X96358106Y-59709426D01*
X96356640Y-59686785D01*
X96358106Y-59680044D01*
X96361403Y-59674988D01*
X96357520Y-59666635D01*
X96356640Y-59659894D01*
X96356640Y-59629705D01*
X96353636Y-59599517D01*
X96350632Y-59584423D01*
X96345666Y-59582306D01*
X96337809Y-59586108D01*
X96332298Y-59592316D01*
X96320608Y-59592316D01*
X96315461Y-59470410D01*
X96315310Y-59466600D01*
X96326159Y-59466600D01*
X96326159Y-59469971D01*
X96329529Y-59480009D01*
X96332900Y-59471656D01*
X96330653Y-59464915D01*
X96455485Y-59464915D01*
X96458856Y-59468285D01*
X96462227Y-59466600D01*
X96458856Y-59463229D01*
X96455485Y-59464915D01*
X96330653Y-59464915D01*
X96329529Y-59461544D01*
X96326159Y-59466600D01*
X96315310Y-59466600D01*
X96312970Y-59407542D01*
X96305936Y-59406663D01*
X96304250Y-59401680D01*
X96303664Y-59379039D01*
X96303664Y-59333756D01*
X96303664Y-59257406D01*
X96301906Y-59240627D01*
X96300220Y-59233885D01*
X96304456Y-59210117D01*
X96300220Y-59193659D01*
X96262924Y-59145005D01*
X96220426Y-59070414D01*
X96169502Y-58963875D01*
X96151623Y-58911924D01*
X96143213Y-58890488D01*
X96138873Y-58886719D01*
X96126124Y-58868254D01*
X96116818Y-58843121D01*
X96110810Y-58826342D01*
X96104875Y-58795347D01*
X96107353Y-58778152D01*
X96113374Y-58769336D01*
X96128689Y-58761788D01*
X96140559Y-58764280D01*
X96154114Y-58767650D01*
X96181298Y-58776883D01*
X96199983Y-58789412D01*
X96211926Y-58796153D01*
X96230482Y-58808436D01*
X96256916Y-58835574D01*
X96278333Y-58865580D01*
X96283294Y-58881663D01*
X96294945Y-58915222D01*
X96304983Y-58927825D01*
X96310039Y-58937057D01*
X96310918Y-58942040D01*
X96319271Y-58958819D01*
X96328430Y-58975599D01*
X96331801Y-58982340D01*
X96335098Y-58990693D01*
X96338469Y-58989008D01*
X96338469Y-58986516D01*
X96340154Y-58987322D01*
X96337663Y-58995749D01*
X96337663Y-59002416D01*
X96341839Y-58999119D01*
X96343383Y-58995084D01*
X96350192Y-59004102D01*
X96355248Y-59017511D01*
X96361037Y-59028428D01*
X96368584Y-59034290D01*
X96391152Y-59015899D01*
X96402736Y-59000365D01*
X96596609Y-59000365D01*
X96599980Y-59003662D01*
X96605035Y-59000365D01*
X96601665Y-58996994D01*
X96596609Y-59000365D01*
X96402736Y-59000365D01*
X96406507Y-58995309D01*
X96462227Y-58995309D01*
X96463912Y-58996994D01*
X96474023Y-58976844D01*
X96479006Y-58960065D01*
X96462227Y-58995309D01*
X96406507Y-58995309D01*
X96413720Y-58985637D01*
X96434676Y-58957134D01*
X96443193Y-58944971D01*
X96482377Y-58944971D01*
X96484062Y-58948341D01*
X96484062Y-58941600D01*
X96482377Y-58944971D01*
X96443193Y-58944971D01*
X96458123Y-58923648D01*
X96479812Y-58885913D01*
X96488221Y-58868220D01*
X96490730Y-58853160D01*
X96494100Y-58833083D01*
X96509268Y-58806265D01*
X96538723Y-58758418D01*
X96571623Y-58705588D01*
X96613477Y-58641038D01*
X96647534Y-58611652D01*
X96668725Y-58605490D01*
X96684610Y-58607476D01*
G37*
G36*
X96310478Y-59706862D02*
G01*
X96308793Y-59708547D01*
X96307108Y-59700194D01*
X96310478Y-59700194D01*
X96310478Y-59706862D01*
G37*
G36*
X96307035Y-59644800D02*
G01*
X96308835Y-59684544D01*
X96303664Y-59690082D01*
X96301979Y-59656597D01*
X96303664Y-59628093D01*
X96307035Y-59644800D01*
G37*
G36*
X96301979Y-59520236D02*
G01*
X96303664Y-59569768D01*
X96303664Y-59609189D01*
X96298608Y-59528662D01*
X96300294Y-59505142D01*
X96301979Y-59520236D01*
G37*
G36*
X96485747Y-59426373D02*
G01*
X96482377Y-59429670D01*
X96479006Y-59426373D01*
X96482377Y-59423003D01*
X96485747Y-59426373D01*
G37*
G36*
X96544512Y-59240187D02*
G01*
X96541215Y-59245169D01*
X96539529Y-59240187D01*
X96542827Y-59235131D01*
X96544512Y-59240187D01*
G37*
G36*
X96547883Y-59212490D02*
G01*
X96541215Y-59214981D01*
X96541215Y-59208313D01*
X96552938Y-59204943D01*
X96547883Y-59212490D01*
G37*
G36*
X96546197Y-59155483D02*
G01*
X96542900Y-59163031D01*
X96539559Y-59166153D01*
X96534474Y-59157975D01*
X96533594Y-59151307D01*
X96537844Y-59154604D01*
X96542900Y-59154604D01*
X96542900Y-59151307D01*
X96546197Y-59155483D01*
G37*
G36*
X96567227Y-59159660D02*
G01*
X96561365Y-59163031D01*
X96563856Y-59156363D01*
X96569718Y-59152992D01*
X96567227Y-59159660D01*
G37*
G36*
X96561145Y-59121558D02*
G01*
X96551033Y-59134088D01*
X96538430Y-59145005D01*
X96542607Y-59140829D01*
X96546803Y-59135717D01*
X96546051Y-59128226D01*
X96547663Y-59124855D01*
X96552719Y-59124855D01*
X96557738Y-59119731D01*
X96561145Y-59121558D01*
G37*
G36*
X97194296Y-58960065D02*
G01*
X97217453Y-58955897D01*
X97248078Y-58960065D01*
X97278413Y-58968418D01*
X97323915Y-58981021D01*
X97367806Y-59000292D01*
X97380989Y-59020274D01*
X97382291Y-59051374D01*
X97366120Y-59100968D01*
X97350083Y-59139468D01*
X97329777Y-59204943D01*
X97307063Y-59305546D01*
X97302813Y-59328261D01*
X97295339Y-59361014D01*
X97285654Y-59458209D01*
X97290524Y-59525397D01*
X97305377Y-59570647D01*
X97315485Y-59581315D01*
X97336592Y-59589112D01*
X97360671Y-59591209D01*
X97382973Y-59587427D01*
X97400729Y-59575206D01*
X97426790Y-59542144D01*
X97449924Y-59502396D01*
X97468922Y-59459932D01*
X97477422Y-59434800D01*
X97490363Y-59396922D01*
X97499331Y-59355958D01*
X97504386Y-59342549D01*
X97506481Y-59345801D01*
X97502701Y-59366070D01*
X97497645Y-59392228D01*
X97493395Y-59409081D01*
X97489952Y-59421757D01*
X97482405Y-59449601D01*
X97472293Y-59484185D01*
X97458712Y-59524791D01*
X97423200Y-59587061D01*
X97411330Y-59607357D01*
X97404589Y-59625895D01*
X97404589Y-59634322D01*
X97399460Y-59642748D01*
X97396089Y-59649489D01*
X97396089Y-59652933D01*
X97388038Y-59662669D01*
X97380922Y-59684953D01*
X97371543Y-59698509D01*
X97365992Y-59703373D01*
X97363996Y-59711991D01*
X97360903Y-59721788D01*
X97348828Y-59735658D01*
X97323622Y-59755808D01*
X97307649Y-59767605D01*
X97288378Y-59779475D01*
X97276581Y-59784531D01*
X97243022Y-59789587D01*
X97209187Y-59787548D01*
X97187555Y-59776178D01*
X97179201Y-59771122D01*
X97167405Y-59763502D01*
X97160663Y-59752584D01*
X97153996Y-59744231D01*
X97139391Y-59735595D01*
X97142199Y-59730749D01*
X97138828Y-59720710D01*
X97132160Y-59710599D01*
X97127104Y-59703931D01*
X97113622Y-59683781D01*
X97106954Y-59662751D01*
X97099334Y-59644213D01*
X97089222Y-59617322D01*
X97083434Y-59566031D01*
X97079702Y-59496836D01*
X97085119Y-59446743D01*
X97091787Y-59409814D01*
X97100213Y-59366070D01*
X97098528Y-59339179D01*
X97083141Y-59315156D01*
X97063962Y-59301756D01*
X97039763Y-59297193D01*
X96999884Y-59288898D01*
X96966283Y-59263658D01*
X96937254Y-59216666D01*
X96927521Y-59188467D01*
X96927992Y-59170212D01*
X96935569Y-59157975D01*
X96956662Y-59149147D01*
X96982610Y-59159660D01*
X97004700Y-59167207D01*
X97027966Y-59159660D01*
X97063076Y-59126300D01*
X97108640Y-59059056D01*
X97153116Y-58988568D01*
X97171130Y-58972396D01*
X97194296Y-58960065D01*
G37*
G36*
X97179421Y-58722075D02*
G01*
X97199571Y-58720389D01*
X97233130Y-58722075D01*
X97317509Y-58731873D01*
X97342380Y-58740466D01*
X97350733Y-58753948D01*
X97362457Y-58775710D01*
X97375060Y-58795860D01*
X97382680Y-58816010D01*
X97386265Y-58828746D01*
X97383486Y-58837846D01*
X97375202Y-58845161D01*
X97356595Y-58853746D01*
X97336998Y-58863235D01*
X97320471Y-58876387D01*
X97303692Y-58891481D01*
X97293913Y-58888397D01*
X97280171Y-58876387D01*
X97223092Y-58831105D01*
X97189901Y-58806391D01*
X97186089Y-58797546D01*
X97184404Y-58792490D01*
X97176051Y-58781572D01*
X97174365Y-58762301D01*
X97172680Y-58750578D01*
X97170116Y-58736289D01*
X97179421Y-58722075D01*
G37*
G36*
X97790883Y-59943753D02*
G01*
X97785021Y-59946317D01*
X97779160Y-59943753D01*
X97785021Y-59941262D01*
X97790883Y-59943753D01*
G37*
G36*
X97769854Y-59937891D02*
G01*
X97772418Y-59944632D01*
X97764798Y-59937891D01*
X97762307Y-59931223D01*
X97769854Y-59937891D01*
G37*
G36*
X97753954Y-59926167D02*
G01*
X97754760Y-59931223D01*
X97749704Y-59926167D01*
X97748898Y-59921112D01*
X97753954Y-59926167D01*
G37*
G36*
X97787513Y-59917741D02*
G01*
X97794254Y-59924482D01*
X97789198Y-59927853D01*
X97779966Y-59922797D01*
X97778280Y-59916056D01*
X97787513Y-59917741D01*
G37*
G36*
X98158855Y-58565436D02*
G01*
X98183846Y-58582636D01*
X98202237Y-58597730D01*
X98202237Y-58644625D01*
X98200097Y-58687616D01*
X98195569Y-58706687D01*
X98178972Y-58730342D01*
X98156808Y-58746987D01*
X98145084Y-58751164D01*
X98148455Y-58736876D01*
X98155123Y-58696649D01*
X98153437Y-58654737D01*
X98140028Y-58643819D01*
X98129763Y-58642133D01*
X98118120Y-58645504D01*
X98094672Y-58664775D01*
X98074153Y-58695422D01*
X98047631Y-58752849D01*
X98025345Y-58815236D01*
X98010629Y-58871112D01*
X98000590Y-58915515D01*
X97993849Y-58949953D01*
X97993258Y-58972674D01*
X97997220Y-58982633D01*
X98009424Y-58987432D01*
X98054299Y-58990180D01*
X98101020Y-58993225D01*
X98126546Y-59000292D01*
X98147172Y-59012912D01*
X98166920Y-59032019D01*
X98183688Y-59058293D01*
X98175273Y-59063892D01*
X98166700Y-59056345D01*
X98163986Y-59052167D01*
X98158933Y-59054660D01*
X98156368Y-59066530D01*
X98157015Y-59072709D01*
X98151239Y-59081991D01*
X98145690Y-59091035D01*
X98146916Y-59096572D01*
X98146110Y-59108589D01*
X98141787Y-59119800D01*
X98149554Y-59130937D01*
X98153526Y-59135848D01*
X98144425Y-59137751D01*
X98116874Y-59137751D01*
X98049023Y-59142001D01*
X97994948Y-59151234D01*
X97982858Y-59162884D01*
X97979488Y-59290086D01*
X97972746Y-59569622D01*
X97953447Y-59713438D01*
X97935744Y-59777277D01*
X97928929Y-59801530D01*
X97919697Y-59826590D01*
X97917132Y-59837434D01*
X97915447Y-59840804D01*
X97912150Y-59845860D01*
X97906743Y-59855566D01*
X97905116Y-59852382D01*
X97901745Y-59855679D01*
X97903430Y-59859049D01*
X97906529Y-59855950D01*
X97902844Y-59862567D01*
X97881815Y-59889384D01*
X97860712Y-59906091D01*
X97850963Y-59908590D01*
X97846497Y-59906091D01*
X97843284Y-59903261D01*
X97834627Y-59904405D01*
X97819533Y-59906091D01*
X97819533Y-59909461D01*
X97822903Y-59912832D01*
X97831257Y-59919500D01*
X97816236Y-59917814D01*
X97783945Y-59909614D01*
X97780407Y-59906823D01*
X97797624Y-59906823D01*
X97804292Y-59911073D01*
X97808469Y-59909388D01*
X97809348Y-59907703D01*
X97802607Y-59902647D01*
X97797624Y-59906823D01*
X97780407Y-59906823D01*
X97771026Y-59899423D01*
X97767656Y-59906091D01*
X97767656Y-59914517D01*
X97755932Y-59902720D01*
X97727575Y-59869234D01*
X97717537Y-59854067D01*
X97707499Y-59833990D01*
X97704128Y-59828934D01*
X97697460Y-59825564D01*
X97690719Y-59812155D01*
X97689034Y-59805487D01*
X97685663Y-59805487D01*
X97685663Y-59802116D01*
X97690767Y-59800091D01*
X97699072Y-59808784D01*
X97709990Y-59823878D01*
X97719149Y-59837287D01*
X97731679Y-59855752D01*
X97737541Y-59867476D01*
X97750070Y-59885941D01*
X97764285Y-59896052D01*
X97765933Y-59889353D01*
X97761771Y-59884329D01*
X97799310Y-59884329D01*
X97803118Y-59888615D01*
X97822830Y-59890996D01*
X97831183Y-59887626D01*
X97869725Y-59887626D01*
X97873022Y-59889311D01*
X97881448Y-59882643D01*
X97869725Y-59887626D01*
X97831183Y-59887626D01*
X97821294Y-59884329D01*
X97836239Y-59884329D01*
X97842980Y-59880958D01*
X97848842Y-59879273D01*
X97857195Y-59883449D01*
X97864816Y-59880958D01*
X97864816Y-59878393D01*
X97858074Y-59877587D01*
X97849648Y-59877587D01*
X97861445Y-59864179D01*
X97884550Y-59827124D01*
X97903430Y-59760204D01*
X97916033Y-59698948D01*
X97916839Y-59683048D01*
X97913542Y-59683048D01*
X97899254Y-59736684D01*
X97879910Y-59797061D01*
X97874854Y-59819702D01*
X97863936Y-59839046D01*
X97853019Y-59856631D01*
X97842980Y-59872532D01*
X97836239Y-59884329D01*
X97821294Y-59884329D01*
X97821072Y-59884255D01*
X97805977Y-59883449D01*
X97799310Y-59884329D01*
X97761771Y-59884329D01*
X97749264Y-59869234D01*
X97737541Y-59854946D01*
X97737054Y-59854140D01*
X97750950Y-59854140D01*
X97754320Y-59859123D01*
X97755932Y-59855752D01*
X97752036Y-59849458D01*
X97750950Y-59854140D01*
X97737054Y-59854140D01*
X97730946Y-59844028D01*
X97729642Y-59842270D01*
X97738786Y-59842270D01*
X97742157Y-59845640D01*
X97745527Y-59843955D01*
X97742157Y-59840585D01*
X97738786Y-59842270D01*
X97729642Y-59842270D01*
X97712252Y-59818823D01*
X97723692Y-59818823D01*
X97725377Y-59825490D01*
X97730433Y-59832232D01*
X97728748Y-59825490D01*
X97723692Y-59818823D01*
X97712252Y-59818823D01*
X97705185Y-59809294D01*
X97701218Y-59802043D01*
X97718636Y-59802043D01*
X97722007Y-59806220D01*
X97725377Y-59804534D01*
X97722007Y-59800358D01*
X97718636Y-59802043D01*
X97701218Y-59802043D01*
X97694803Y-59790319D01*
X97706913Y-59790319D01*
X97708598Y-59796987D01*
X97712701Y-59797867D01*
X97711895Y-59790319D01*
X97706913Y-59790319D01*
X97694803Y-59790319D01*
X97687427Y-59776837D01*
X97693430Y-59776837D01*
X97697607Y-59780208D01*
X97701857Y-59778523D01*
X97697607Y-59775225D01*
X97693430Y-59776837D01*
X97687427Y-59776837D01*
X97685663Y-59773613D01*
X97679802Y-59761010D01*
X97675625Y-59757640D01*
X97673060Y-59757640D01*
X97673940Y-59753463D01*
X97668884Y-59731701D01*
X97663828Y-59708181D01*
X97667199Y-59711551D01*
X97675625Y-59715728D01*
X97678996Y-59716607D01*
X97675625Y-59719904D01*
X97673940Y-59724960D01*
X97678996Y-59728331D01*
X97681487Y-59729210D01*
X97682366Y-59733313D01*
X97682366Y-59736684D01*
X97686543Y-59737563D01*
X97690719Y-59745110D01*
X97695775Y-59753463D01*
X97695169Y-59751778D01*
X97717464Y-59751778D01*
X97718270Y-59755148D01*
X97722520Y-59760131D01*
X97724205Y-59766872D01*
X97727575Y-59763502D01*
X97727575Y-59760204D01*
X97724808Y-59750367D01*
X97717464Y-59751778D01*
X97695169Y-59751778D01*
X97687349Y-59730016D01*
X97682366Y-59703125D01*
X97687349Y-59711551D01*
X97694017Y-59718219D01*
X97696508Y-59719098D01*
X97695702Y-59721590D01*
X97697330Y-59731121D01*
X97700758Y-59733313D01*
X97703249Y-59734192D01*
X97707499Y-59740054D01*
X97713333Y-59748681D01*
X97719149Y-59746795D01*
X97720834Y-59741740D01*
X97717464Y-59734998D01*
X97714093Y-59730822D01*
X97719149Y-59730822D01*
X97724205Y-59740054D01*
X97730873Y-59751778D01*
X97743401Y-59769032D01*
X97740911Y-59771928D01*
X97739226Y-59775299D01*
X97747579Y-59775299D01*
X97749264Y-59770243D01*
X97755932Y-59775299D01*
X97763479Y-59781966D01*
X97776815Y-59789513D01*
X97796892Y-59798746D01*
X97807920Y-59797431D01*
X97815356Y-59790319D01*
X97825321Y-59776105D01*
X97831183Y-59759325D01*
X97838730Y-59732507D01*
X97842907Y-59710672D01*
X97844592Y-59703125D01*
X97846277Y-59693086D01*
X97846277Y-59684733D01*
X97852945Y-59679677D01*
X97856316Y-59683048D01*
X97856316Y-59693086D01*
X97852945Y-59714116D01*
X97847890Y-59731701D01*
X97841222Y-59750093D01*
X97831916Y-59773540D01*
X97831110Y-59795375D01*
X97834089Y-59798664D01*
X97833601Y-59807978D01*
X97826054Y-59827249D01*
X97822757Y-59837361D01*
X97830226Y-59832034D01*
X97838000Y-59816757D01*
X97845705Y-59816757D01*
X97846277Y-59828934D01*
X97857207Y-59806487D01*
X97876466Y-59741740D01*
X97892024Y-59671378D01*
X97893216Y-59662825D01*
X97920210Y-59662825D01*
X97923580Y-59666195D01*
X97926951Y-59664510D01*
X97923580Y-59661139D01*
X97920210Y-59662825D01*
X97893216Y-59662825D01*
X97894380Y-59654472D01*
X97952157Y-59654472D01*
X97953842Y-59659454D01*
X97953842Y-59652786D01*
X97952157Y-59654472D01*
X97894380Y-59654472D01*
X97895673Y-59645196D01*
X97948324Y-59645196D01*
X97950471Y-59647730D01*
X97955527Y-59634322D01*
X97956301Y-59621706D01*
X97952157Y-59630951D01*
X97948324Y-59645196D01*
X97895673Y-59645196D01*
X97899987Y-59614245D01*
X97900793Y-59600030D01*
X97900793Y-59590797D01*
X97899987Y-59587427D01*
X97897069Y-59596247D01*
X97884892Y-59677992D01*
X97874781Y-59723275D01*
X97862178Y-59768557D01*
X97851260Y-59800431D01*
X97845705Y-59816757D01*
X97838000Y-59816757D01*
X97844592Y-59803802D01*
X97857279Y-59768518D01*
X97868772Y-59714922D01*
X97878078Y-59622598D01*
X97880789Y-59614172D01*
X97883500Y-59604939D01*
X97888043Y-59594901D01*
X97888043Y-59585742D01*
X97887164Y-59573945D01*
X97894418Y-59577315D01*
X97901452Y-59583177D01*
X97901452Y-59573945D01*
X97904823Y-59560536D01*
X97910695Y-59552629D01*
X97904823Y-59550424D01*
X97899767Y-59546248D01*
X97904823Y-59542071D01*
X97909878Y-59537088D01*
X97904823Y-59530347D01*
X97901708Y-59524815D01*
X97899767Y-59497594D01*
X97899767Y-59463156D01*
X97899767Y-59441394D01*
X97896396Y-59421244D01*
X97891487Y-59407835D01*
X97889654Y-59398368D01*
X97885811Y-59396185D01*
X97896689Y-59396185D01*
X97900060Y-59401167D01*
X97900866Y-59396185D01*
X97897495Y-59391129D01*
X97896689Y-59396185D01*
X97885811Y-59396185D01*
X97885552Y-59396038D01*
X97883060Y-59391862D01*
X97886431Y-59384315D01*
X97886431Y-59380944D01*
X97894784Y-59381823D01*
X97901525Y-59382703D01*
X97898155Y-59379332D01*
X97894784Y-59372591D01*
X97896469Y-59370906D01*
X97900907Y-59376382D01*
X97903211Y-59372591D01*
X97903211Y-59365850D01*
X97896469Y-59354126D01*
X97891487Y-59347458D01*
X97898081Y-59345773D01*
X97905629Y-59340717D01*
X97904823Y-59331485D01*
X97899767Y-59266858D01*
X97901989Y-59213339D01*
X97904823Y-59206481D01*
X97906508Y-59204796D01*
X97903137Y-59196443D01*
X97899913Y-59189702D01*
X97896762Y-59194758D01*
X97894967Y-59198051D01*
X97887677Y-59194758D01*
X97886138Y-59189702D01*
X97883134Y-59177978D01*
X97884819Y-59177978D01*
X97890692Y-59180882D01*
X97894784Y-59176293D01*
X97896469Y-59171237D01*
X97898155Y-59177978D01*
X97901452Y-59184646D01*
X97904749Y-59171237D01*
X97903064Y-59161199D01*
X97852945Y-59161199D01*
X97808103Y-59158724D01*
X97796086Y-59154458D01*
X97784514Y-59138383D01*
X97776009Y-59104119D01*
X97768788Y-59082935D01*
X97760841Y-59089025D01*
X97755279Y-59098681D01*
X97754174Y-59095766D01*
X97755786Y-59087486D01*
X97759381Y-59075777D01*
X97756665Y-59064845D01*
X97753294Y-59046380D01*
X97764212Y-59029601D01*
X97777694Y-59020368D01*
X97787732Y-59015312D01*
X97791909Y-59012821D01*
X97792788Y-59020368D01*
X97806124Y-59025351D01*
X97829287Y-59022552D01*
X97844665Y-59015239D01*
X97847832Y-59011627D01*
X97884746Y-59003516D01*
X97899767Y-58998533D01*
X97900057Y-58993624D01*
X97913542Y-58993624D01*
X97915227Y-58998606D01*
X97915227Y-58990253D01*
X97913542Y-58993624D01*
X97900057Y-58993624D01*
X97901452Y-58970030D01*
X97903137Y-58956621D01*
X97909805Y-58951565D01*
X97909805Y-58953250D01*
X97911490Y-58959991D01*
X97914788Y-58975086D01*
X97919770Y-58970030D01*
X97919770Y-58944897D01*
X97916473Y-58929803D01*
X97914788Y-58934859D01*
X97911417Y-58933174D01*
X97912223Y-58924747D01*
X97907167Y-58929803D01*
X97902991Y-58934053D01*
X97904676Y-58926433D01*
X97909732Y-58911338D01*
X97912920Y-58899617D01*
X97914788Y-58856017D01*
X97918085Y-58825829D01*
X97916400Y-58822458D01*
X97911417Y-58838432D01*
X97904749Y-58871112D01*
X97901452Y-58902985D01*
X97900573Y-58912218D01*
X97893099Y-58907968D01*
X97891414Y-58898809D01*
X97894784Y-58878659D01*
X97898961Y-58859388D01*
X97901452Y-58847591D01*
X97904823Y-58842608D01*
X97906435Y-58843414D01*
X97906435Y-58840923D01*
X97908120Y-58833376D01*
X97908120Y-58828320D01*
X97908120Y-58815717D01*
X97913102Y-58805679D01*
X97921455Y-58803994D01*
X97921455Y-58807364D01*
X97919770Y-58817403D01*
X97924753Y-58810735D01*
X97929337Y-58803083D01*
X97926365Y-58798938D01*
X97922608Y-58790596D01*
X97928050Y-58773805D01*
X97931347Y-58758711D01*
X97935045Y-58742176D01*
X97948053Y-58721781D01*
X97951424Y-58720169D01*
X97954907Y-58722202D01*
X97961462Y-58713428D01*
X97966445Y-58703390D01*
X97963148Y-58701705D01*
X97979854Y-58676499D01*
X97986595Y-58664775D01*
X98019128Y-58626234D01*
X98065144Y-58582636D01*
X98081776Y-58570839D01*
X98100241Y-58562486D01*
X98131584Y-58558792D01*
X98158855Y-58565436D01*
G37*
G36*
X97754320Y-59882643D02*
G01*
X97754320Y-59885941D01*
X97747579Y-59877587D01*
X97749264Y-59874217D01*
X97754320Y-59882643D01*
G37*
G36*
X97906801Y-59855679D02*
G01*
X97906529Y-59855950D01*
X97906743Y-59855566D01*
X97906801Y-59855679D01*
G37*
G36*
X97678996Y-59781966D02*
G01*
X97680681Y-59790393D01*
X97684051Y-59800431D01*
X97678996Y-59792078D01*
X97672328Y-59778596D01*
X97673651Y-59774305D01*
X97678996Y-59781966D01*
G37*
G36*
X97669910Y-59751705D02*
G01*
X97666539Y-59753390D01*
X97663169Y-59750093D01*
X97666539Y-59748407D01*
X97669910Y-59751705D01*
G37*
G36*
X97712701Y-59719904D02*
G01*
X97711895Y-59724887D01*
X97708598Y-59719904D01*
X97709404Y-59714848D01*
X97712701Y-59719904D01*
G37*
G36*
X97653130Y-59711478D02*
G01*
X97649760Y-59714848D01*
X97646389Y-59709793D01*
X97649760Y-59706422D01*
X97653130Y-59711478D01*
G37*
G36*
X97700171Y-59698142D02*
G01*
X97703082Y-59707021D01*
X97695116Y-59709866D01*
X97691745Y-59704883D01*
X97694236Y-59695651D01*
X97700171Y-59698142D01*
G37*
G36*
X97647122Y-59651174D02*
G01*
X97647122Y-59661213D01*
X97652178Y-59659527D01*
X97653863Y-59654545D01*
X97655548Y-59657842D01*
X97658919Y-59671251D01*
X97659809Y-59679960D01*
X97655548Y-59691401D01*
X97653863Y-59686419D01*
X97653863Y-59677186D01*
X97647122Y-59675501D01*
X97642066Y-59676307D01*
X97645437Y-59672936D01*
X97647928Y-59668760D01*
X97643751Y-59664583D01*
X97640573Y-59662548D01*
X97643751Y-59646118D01*
X97645437Y-59641063D01*
X97648807Y-59641063D01*
X97647122Y-59651174D01*
G37*
G36*
X97688374Y-59679604D02*
G01*
X97693430Y-59684660D01*
X97692109Y-59687620D01*
X97686689Y-59682975D01*
X97685077Y-59678798D01*
X97688374Y-59679604D01*
G37*
G36*
X97861445Y-59667881D02*
G01*
X97858880Y-59674548D01*
X97854704Y-59667881D01*
X97857195Y-59661139D01*
X97861445Y-59667881D01*
G37*
G36*
X97666539Y-59652786D02*
G01*
X97663169Y-59657769D01*
X97662363Y-59652786D01*
X97665660Y-59647730D01*
X97666539Y-59652786D01*
G37*
G36*
X97861372Y-59639377D02*
G01*
X97856316Y-59647730D01*
X97858001Y-59632636D01*
X97863057Y-59622598D01*
X97861372Y-59639377D01*
G37*
G36*
X97646389Y-59617542D02*
G01*
X97646389Y-59630951D01*
X97643019Y-59620913D01*
X97643825Y-59610874D01*
X97646389Y-59617542D01*
G37*
G36*
X97865622Y-59609995D02*
G01*
X97861445Y-59610874D01*
X97863936Y-59605012D01*
X97868186Y-59604133D01*
X97865622Y-59609995D01*
G37*
G36*
X97659871Y-59599151D02*
G01*
X97656501Y-59600763D01*
X97653130Y-59597465D01*
X97656501Y-59595780D01*
X97659871Y-59599151D01*
G37*
G36*
X97860566Y-59595780D02*
G01*
X97856389Y-59599077D01*
X97854704Y-59595780D01*
X97858880Y-59592409D01*
X97860566Y-59595780D01*
G37*
G36*
X97864816Y-59573945D02*
G01*
X97863130Y-59570574D01*
X97864816Y-59567204D01*
X97864816Y-59573945D01*
G37*
G36*
X97893293Y-59537809D02*
G01*
X97893099Y-59547054D01*
X97888239Y-59551666D01*
X97884672Y-59548666D01*
X97888849Y-59541998D01*
X97888043Y-59538627D01*
X97888043Y-59535257D01*
X97893293Y-59537809D01*
G37*
G36*
X97869798Y-59506900D02*
G01*
X97873975Y-59525365D01*
X97871557Y-59533718D01*
X97868186Y-59530347D01*
X97863130Y-59501844D01*
X97864816Y-59495103D01*
X97869798Y-59506900D01*
G37*
G36*
X97884453Y-59458100D02*
G01*
X97889802Y-59461471D01*
X97889802Y-59463156D01*
X97889802Y-59478250D01*
X97894447Y-59506227D01*
X97891487Y-59520236D01*
X97885625Y-59499280D01*
X97883134Y-59468212D01*
X97883134Y-59456415D01*
X97884453Y-59458100D01*
G37*
G36*
X97868186Y-59473341D02*
G01*
X97864816Y-59476638D01*
X97863936Y-59473341D01*
X97867307Y-59469971D01*
X97868186Y-59473341D01*
G37*
G36*
X97868186Y-59459053D02*
G01*
X97864816Y-59463229D01*
X97861445Y-59459053D01*
X97864816Y-59454876D01*
X97868186Y-59459053D01*
G37*
G36*
X97868186Y-59448135D02*
G01*
X97864816Y-59451506D01*
X97861445Y-59448135D01*
X97864816Y-59444765D01*
X97868186Y-59448135D01*
G37*
G36*
X97895077Y-59313973D02*
G01*
X97893392Y-59310602D01*
X97895077Y-59307232D01*
X97895077Y-59313973D01*
G37*
G36*
X97896689Y-59272940D02*
G01*
X97893319Y-59273746D01*
X97890021Y-59270375D01*
X97893319Y-59269569D01*
X97896689Y-59272940D01*
G37*
G36*
X97869871Y-59250225D02*
G01*
X97866501Y-59256966D01*
X97864816Y-59250225D01*
X97868186Y-59243484D01*
X97869871Y-59250225D01*
G37*
G36*
X97888336Y-59241872D02*
G01*
X97893392Y-59251911D01*
X97888336Y-59248613D01*
X97883280Y-59238502D01*
X97888336Y-59241872D01*
G37*
G36*
X97878078Y-59226631D02*
G01*
X97878078Y-59230002D01*
X97874707Y-59225019D01*
X97878078Y-59226631D01*
G37*
G36*
X97869871Y-59203257D02*
G01*
X97871557Y-59209998D01*
X97873975Y-59218352D01*
X97869871Y-59214981D01*
X97864816Y-59203257D01*
X97865978Y-59199088D01*
X97869871Y-59203257D01*
G37*
G36*
X98757279Y-59058104D02*
G01*
X98797563Y-59079807D01*
X98808350Y-59089831D01*
X98818393Y-59102461D01*
X98828866Y-59104925D01*
X98835608Y-59109981D01*
X98839857Y-59115916D01*
X98849310Y-59115037D01*
X98857736Y-59109981D01*
X98871998Y-59104060D01*
X98890196Y-59113352D01*
X98900075Y-59126916D01*
X98907122Y-59146837D01*
X98913904Y-59191055D01*
X98910492Y-59228903D01*
X98901503Y-59287542D01*
X98902139Y-59334416D01*
X98905562Y-59385927D01*
X98915841Y-59436631D01*
X98931409Y-59481609D01*
X98943392Y-59500232D01*
X98960538Y-59506900D01*
X98982474Y-59498663D01*
X99004896Y-59468097D01*
X99028022Y-59398017D01*
X99031319Y-59387978D01*
X99034617Y-59391349D01*
X99034617Y-59403072D01*
X99036302Y-59418167D01*
X99041010Y-59414155D01*
X99046194Y-59393034D01*
X99050451Y-59384216D01*
X99056305Y-59391349D01*
X99057991Y-59396331D01*
X99059015Y-59423950D01*
X99046194Y-59480155D01*
X99042823Y-59503676D01*
X99034617Y-59532179D01*
X99026410Y-59566544D01*
X99018863Y-59598418D01*
X99011389Y-59616809D01*
X99000105Y-59641063D01*
X98987953Y-59670987D01*
X98992558Y-59676307D01*
X98995556Y-59680320D01*
X98988894Y-59688031D01*
X98988894Y-59698948D01*
X98990947Y-59702706D01*
X98998933Y-59703125D01*
X99004795Y-59703198D01*
X98992192Y-59716607D01*
X98974800Y-59729519D01*
X98958999Y-59733313D01*
X98939972Y-59730140D01*
X98902506Y-59716827D01*
X98881057Y-59703123D01*
X98860154Y-59679458D01*
X98843759Y-59651003D01*
X98835355Y-59627654D01*
X98992338Y-59627654D01*
X98994713Y-59629925D01*
X99001497Y-59621865D01*
X99009118Y-59605086D01*
X99015786Y-59585742D01*
X99020841Y-59568962D01*
X99012488Y-59577389D01*
X98993319Y-59613409D01*
X98992338Y-59627654D01*
X98835355Y-59627654D01*
X98832823Y-59620620D01*
X98820611Y-59595126D01*
X98799631Y-59587427D01*
X98783730Y-59607504D01*
X98768636Y-59625895D01*
X98766145Y-59629266D01*
X98752809Y-59652713D01*
X98724570Y-59681313D01*
X98690967Y-59699534D01*
X98667593Y-59710452D01*
X98636672Y-59723861D01*
X98609121Y-59734632D01*
X98575709Y-59738003D01*
X98528887Y-59732947D01*
X98495502Y-59722496D01*
X98456201Y-59702026D01*
X98421026Y-59676630D01*
X98401979Y-59655937D01*
X98377083Y-59611462D01*
X98363511Y-59577242D01*
X98350102Y-59526977D01*
X98344252Y-59496242D01*
X98342662Y-59461544D01*
X98562153Y-59461544D01*
X98564660Y-59497301D01*
X98570506Y-59516938D01*
X98593917Y-59548056D01*
X98616635Y-59554930D01*
X98643926Y-59542071D01*
X98664286Y-59522153D01*
X98695730Y-59480009D01*
X98744163Y-59396185D01*
X98776104Y-59316009D01*
X98782558Y-59287155D01*
X98774351Y-59251911D01*
X98762656Y-59217920D01*
X98764313Y-59184793D01*
X98770344Y-59151602D01*
X98767684Y-59141195D01*
X98746141Y-59134527D01*
X98727090Y-59136213D01*
X98713828Y-59142075D01*
X98691407Y-59151307D01*
X98656602Y-59189042D01*
X98623483Y-59241872D01*
X98606850Y-59270375D01*
X98597764Y-59293896D01*
X98585381Y-59325696D01*
X98568886Y-59377151D01*
X98562153Y-59461544D01*
X98342662Y-59461544D01*
X98341749Y-59441614D01*
X98345054Y-59385772D01*
X98353619Y-59346139D01*
X98368480Y-59303332D01*
X98392600Y-59250665D01*
X98421047Y-59201145D01*
X98463748Y-59145958D01*
X98511104Y-59098195D01*
X98531924Y-59084189D01*
X98762921Y-59084189D01*
X98771347Y-59089245D01*
X98783950Y-59094227D01*
X98789812Y-59094227D01*
X98778088Y-59087560D01*
X98762921Y-59084189D01*
X98531924Y-59084189D01*
X98543469Y-59076422D01*
X98633301Y-59039639D01*
X98679023Y-59034583D01*
X98711264Y-59034583D01*
X98757279Y-59058104D01*
G37*
G36*
X99800025Y-59039273D02*
G01*
X99824261Y-59056169D01*
X99836148Y-59077814D01*
X99838641Y-59099819D01*
X99836148Y-59144126D01*
X99824351Y-59210365D01*
X99809257Y-59243851D01*
X99796654Y-59271548D01*
X99790793Y-59279095D01*
X99789913Y-59282465D01*
X99787422Y-59300930D01*
X99765727Y-59371446D01*
X99753790Y-59428352D01*
X99747122Y-59493784D01*
X99744557Y-59505581D01*
X99743751Y-59517305D01*
X99750492Y-59582664D01*
X99765948Y-59608203D01*
X99789107Y-59627947D01*
X99800831Y-59639744D01*
X99779875Y-59631391D01*
X99752104Y-59612926D01*
X99742872Y-59600323D01*
X99738696Y-59593582D01*
X99736131Y-59589405D01*
X99738304Y-59587165D01*
X99737010Y-59575190D01*
X99734446Y-59556726D01*
X99733640Y-59520602D01*
X99730269Y-59492099D01*
X99728657Y-59500525D01*
X99726972Y-59505508D01*
X99721916Y-59508878D01*
X99725287Y-59517305D01*
X99722722Y-59520602D01*
X99716860Y-59524852D01*
X99722722Y-59533205D01*
X99728657Y-59550791D01*
X99726972Y-59563393D01*
X99721916Y-59565885D01*
X99717666Y-59570135D01*
X99723601Y-59575190D01*
X99727084Y-59576547D01*
X99728657Y-59584349D01*
X99732710Y-59604997D01*
X99745437Y-59624650D01*
X99768333Y-59642872D01*
X99807572Y-59658135D01*
X99822666Y-59666562D01*
X99801710Y-59661579D01*
X99784051Y-59655717D01*
X99760531Y-59644726D01*
X99732577Y-59627239D01*
X99726972Y-59617908D01*
X99718545Y-59601129D01*
X99711804Y-59594461D01*
X99715175Y-59607870D01*
X99725195Y-59632660D01*
X99752337Y-59655322D01*
X99805887Y-59675941D01*
X99862966Y-59681656D01*
X99926860Y-59679971D01*
X99940269Y-59679971D01*
X99945325Y-59686712D01*
X99955402Y-59687902D01*
X99977272Y-59679971D01*
X99987310Y-59676600D01*
X99992366Y-59674109D01*
X100003284Y-59667441D01*
X100022628Y-59662385D01*
X100031054Y-59664876D01*
X100025998Y-59665756D01*
X100020943Y-59668247D01*
X100015007Y-59674915D01*
X100009146Y-59671617D01*
X100005775Y-59669126D01*
X100004163Y-59675794D01*
X99999107Y-59681656D01*
X99988996Y-59679971D01*
X99987310Y-59680850D01*
X99987310Y-59683341D01*
X99983940Y-59686712D01*
X99974707Y-59690888D01*
X99962104Y-59695944D01*
X99948696Y-59700121D01*
X99938657Y-59701806D01*
X99931916Y-59705176D01*
X99924296Y-59708474D01*
X99906637Y-59715215D01*
X99894913Y-59720271D01*
X99873957Y-59723641D01*
X99833730Y-59728624D01*
X99812774Y-59731994D01*
X99817757Y-59735292D01*
X99821933Y-59737856D01*
X99819442Y-59743718D01*
X99816145Y-59742033D01*
X99809404Y-59742033D01*
X99766539Y-59742033D01*
X99727192Y-59740347D01*
X99720577Y-59740591D01*
X99701986Y-59731994D01*
X99701479Y-59731628D01*
X99795042Y-59731628D01*
X99801710Y-59734925D01*
X99808451Y-59731628D01*
X99801710Y-59728257D01*
X99795042Y-59731628D01*
X99701479Y-59731628D01*
X99671724Y-59710159D01*
X99663992Y-59698069D01*
X99914331Y-59698069D01*
X99920998Y-59697263D01*
X99934407Y-59693013D01*
X99942834Y-59689643D01*
X99937851Y-59687957D01*
X99924369Y-59691328D01*
X99914331Y-59698069D01*
X99663992Y-59698069D01*
X99653426Y-59681546D01*
X99640192Y-59633986D01*
X99634868Y-59559217D01*
X99637585Y-59489413D01*
X99644980Y-59433407D01*
X99653406Y-59388125D01*
X99660074Y-59366363D01*
X99684984Y-59305341D01*
X99686965Y-59292504D01*
X99697077Y-59257333D01*
X99722746Y-59178122D01*
X99729524Y-59132404D01*
X99725653Y-59108003D01*
X99714655Y-59098092D01*
X99688650Y-59096279D01*
X99664324Y-59103020D01*
X99640803Y-59114744D01*
X99633256Y-59123097D01*
X99630691Y-59129838D01*
X99629079Y-59126467D01*
X99628273Y-59123097D01*
X99620799Y-59127347D01*
X99619993Y-59134894D01*
X99615011Y-59136506D01*
X99610028Y-59136506D01*
X99607537Y-59137385D01*
X99608416Y-59138191D01*
X99593395Y-59156656D01*
X99537928Y-59223774D01*
X99516933Y-59258790D01*
X99512209Y-59275724D01*
X99509645Y-59290012D01*
X99502097Y-59314339D01*
X99487336Y-59371535D01*
X99465168Y-59433407D01*
X99446703Y-59482061D01*
X99406330Y-59579367D01*
X99402959Y-59589405D01*
X99396218Y-59601202D01*
X99392042Y-59616296D01*
X99391236Y-59627141D01*
X99386180Y-59643041D01*
X99384495Y-59652347D01*
X99379439Y-59654838D01*
X99376141Y-59661579D01*
X99374511Y-59668882D01*
X99364344Y-59676673D01*
X99347565Y-59690082D01*
X99339945Y-59696750D01*
X99337453Y-59701806D01*
X99334083Y-59713530D01*
X99329100Y-59714336D01*
X99324850Y-59708474D01*
X99313127Y-59716900D01*
X99303894Y-59731994D01*
X99298839Y-59730309D01*
X99293783Y-59725253D01*
X99288727Y-59730309D01*
X99273633Y-59742912D01*
X99261909Y-59745403D01*
X99255974Y-59733680D01*
X99251828Y-59726389D01*
X99245056Y-59725253D01*
X99235824Y-59722762D01*
X99228277Y-59701806D01*
X99217359Y-59690082D01*
X99210674Y-59683019D01*
X99208127Y-59669932D01*
X99213183Y-59643041D01*
X99218165Y-59629632D01*
X99212303Y-59635494D01*
X99204756Y-59642235D01*
X99203071Y-59634688D01*
X99199700Y-59622964D01*
X99196833Y-59618802D01*
X99197136Y-59602814D01*
X99199700Y-59583543D01*
X99209739Y-59578488D01*
X99219850Y-59568449D01*
X99225712Y-59552549D01*
X99233333Y-59527343D01*
X99238315Y-59512249D01*
X99256853Y-59502211D01*
X99278615Y-59492099D01*
X99290339Y-59455243D01*
X99310489Y-59399848D01*
X99327478Y-59345304D01*
X99327342Y-59334489D01*
X99324777Y-59333683D01*
X99323971Y-59337786D01*
X99313859Y-59371345D01*
X99300451Y-59404098D01*
X99298765Y-59401607D01*
X99307118Y-59373104D01*
X99329027Y-59307598D01*
X99352387Y-59220035D01*
X99354233Y-59188530D01*
X99344121Y-59179370D01*
X99325656Y-59181862D01*
X99308685Y-59187841D01*
X99300451Y-59185159D01*
X99307118Y-59174315D01*
X99312174Y-59164276D01*
X99311368Y-59153359D01*
X99311368Y-59138264D01*
X99318109Y-59114744D01*
X99329004Y-59098787D01*
X99341557Y-59089611D01*
X99352810Y-59082326D01*
X99354233Y-59077814D01*
X99353354Y-59072026D01*
X99357530Y-59072832D01*
X99383881Y-59076967D01*
X99397903Y-59072832D01*
X99421241Y-59066524D01*
X99453224Y-59074517D01*
X99476959Y-59093025D01*
X99498580Y-59126467D01*
X99507760Y-59143594D01*
X99513748Y-59148303D01*
X99524665Y-59145811D01*
X99559030Y-59118114D01*
X99621206Y-59072789D01*
X99678427Y-59044657D01*
X99731954Y-59030846D01*
X99769126Y-59030565D01*
X99800025Y-59039273D01*
G37*
G36*
X99840398Y-59738296D02*
G01*
X99833657Y-59734925D01*
X99841204Y-59733313D01*
X99840398Y-59738296D01*
G37*
G36*
X99860548Y-59734998D02*
G01*
X99853807Y-59738296D01*
X99850437Y-59734998D01*
X99857178Y-59731628D01*
X99860548Y-59734998D01*
G37*
G36*
X99899163Y-59726572D02*
G01*
X99888245Y-59731628D01*
X99881504Y-59734925D01*
X99884069Y-59729943D01*
X99897478Y-59724887D01*
X99903340Y-59724887D01*
X99899163Y-59726572D01*
G37*
G36*
X99966354Y-59711478D02*
G01*
X99962984Y-59714848D01*
X99961372Y-59711478D01*
X99964669Y-59708107D01*
X99966354Y-59711478D01*
G37*
G36*
X99848751Y-59669566D02*
G01*
X99845381Y-59672863D01*
X99840398Y-59669566D01*
X99843696Y-59666195D01*
X99848751Y-59669566D01*
G37*
G36*
X99969725Y-59669566D02*
G01*
X99964669Y-59672863D01*
X99962984Y-59669566D01*
X99968040Y-59666195D01*
X99969725Y-59669566D01*
G37*
G36*
X100005042Y-59656157D02*
G01*
X99998301Y-59657769D01*
X99982328Y-59667075D01*
X99978151Y-59667881D01*
X99987384Y-59658648D01*
X100003357Y-59652786D01*
X100005042Y-59656157D01*
G37*
G36*
X99832778Y-59648097D02*
G01*
X99841204Y-59653153D01*
X99831093Y-59651467D01*
X99817684Y-59646412D01*
X99817684Y-59643041D01*
X99832778Y-59648097D01*
G37*
G36*
X100015887Y-59649416D02*
G01*
X100016766Y-59646045D01*
X100025192Y-59646045D01*
X100015887Y-59649416D01*
G37*
G36*
X100061243Y-59643554D02*
G01*
X100057066Y-59644433D01*
X100058751Y-59638571D01*
X100062928Y-59637692D01*
X100061243Y-59643554D01*
G37*
G36*
X100049519Y-59637692D02*
G01*
X100043657Y-59637692D01*
X100045342Y-59632636D01*
X100053769Y-59632636D01*
X100049519Y-59637692D01*
G37*
G36*
X100090698Y-59617542D02*
G01*
X100081466Y-59627654D01*
X100068863Y-59636007D01*
X100075604Y-59625968D01*
X100088538Y-59615612D01*
X100090698Y-59617542D01*
G37*
G36*
X100109163Y-59592409D02*
G01*
X100105793Y-59595780D01*
X100109163Y-59599077D01*
X100114219Y-59594095D01*
X100117589Y-59592409D01*
X100111654Y-59599957D01*
X100102422Y-59604133D01*
X100105793Y-59589918D01*
X100114219Y-59582371D01*
X100109163Y-59592409D01*
G37*
G36*
X99222122Y-59533718D02*
G01*
X99218751Y-59537015D01*
X99215381Y-59533718D01*
X99218751Y-59530347D01*
X99222122Y-59533718D01*
G37*
G36*
X99284331Y-59443079D02*
G01*
X99284331Y-59448135D01*
X99279275Y-59454876D01*
X99279275Y-59448135D01*
X99282589Y-59440736D01*
X99284331Y-59443079D01*
G37*
G36*
X101370995Y-59454876D02*
G01*
X101375171Y-59463229D01*
X101365939Y-59458247D01*
X101361762Y-59449821D01*
X101370995Y-59454876D01*
G37*
G36*
X101246651Y-58969297D02*
G01*
X101229871Y-58999486D01*
X101215583Y-59018756D01*
X101211407Y-59017071D01*
X101234927Y-58978530D01*
X101241668Y-58965121D01*
X101250021Y-58958379D01*
X101246651Y-58969297D01*
G37*
G36*
X101702921Y-58654370D02*
G01*
X101737359Y-58673714D01*
X101758388Y-58691300D01*
X101773483Y-58708079D01*
X101794448Y-58730132D01*
X101804380Y-58751524D01*
X101805430Y-58773439D01*
X101793044Y-58812304D01*
X101771797Y-58837186D01*
X101752453Y-58850595D01*
X101733989Y-58855651D01*
X101716403Y-58862319D01*
X101713033Y-58864004D01*
X101718088Y-58842242D01*
X101726836Y-58803548D01*
X101724756Y-58786848D01*
X101716330Y-58804506D01*
X101707097Y-58822092D01*
X101704606Y-58817109D01*
X101708783Y-58796153D01*
X101708845Y-58783439D01*
X101704606Y-58776809D01*
X101693713Y-58773651D01*
X101668483Y-58777615D01*
X101615580Y-58800257D01*
X101580262Y-58820407D01*
X101555538Y-58833015D01*
X101516441Y-58861586D01*
X101482403Y-58892900D01*
X101476141Y-58904377D01*
X101469400Y-58911045D01*
X101457009Y-58920618D01*
X101439212Y-58947975D01*
X101418183Y-58977357D01*
X101393783Y-59008425D01*
X101373633Y-59043669D01*
X101356316Y-59086733D01*
X101355168Y-59110714D01*
X101365280Y-59124123D01*
X101379428Y-59127549D01*
X101418989Y-59125002D01*
X101506403Y-59104046D01*
X101579456Y-59081405D01*
X101613894Y-59072172D01*
X101697865Y-59050337D01*
X101819373Y-59028243D01*
X101917960Y-59020114D01*
X101997358Y-59023185D01*
X102060932Y-59035243D01*
X102095523Y-59050820D01*
X102101232Y-59057078D01*
X102088629Y-59054587D01*
X102078646Y-59053138D01*
X102071850Y-59057078D01*
X102059247Y-59062061D01*
X102055876Y-59062134D01*
X102057562Y-59068802D01*
X102062617Y-59077155D01*
X102073462Y-59088072D01*
X102079397Y-59101481D01*
X102073462Y-59112399D01*
X102064303Y-59114084D01*
X102055876Y-59115770D01*
X102050820Y-59125881D01*
X102048256Y-59132549D01*
X102032282Y-59140975D01*
X102023953Y-59149675D01*
X102023929Y-59156070D01*
X102025615Y-59166181D01*
X102028985Y-59172043D01*
X102034041Y-59178784D01*
X102022244Y-59188823D01*
X102007150Y-59192193D01*
X102003779Y-59192999D01*
X102004961Y-59198575D01*
X102015576Y-59211464D01*
X102023531Y-59223912D01*
X102022244Y-59229049D01*
X102017455Y-59230563D01*
X102012206Y-59226558D01*
X102000409Y-59223188D01*
X101999529Y-59233226D01*
X101993668Y-59235791D01*
X101988685Y-59229929D01*
X101982750Y-59228243D01*
X101960109Y-59231541D01*
X101908149Y-59234893D01*
X101896288Y-59240407D01*
X101887253Y-59243709D01*
X101854010Y-59245609D01*
X101821626Y-59248177D01*
X101815175Y-59252350D01*
X101815981Y-59256600D01*
X101820084Y-59255721D01*
X101825799Y-59257406D01*
X101823381Y-59260703D01*
X101819667Y-59263389D01*
X101824993Y-59275871D01*
X101842163Y-59304253D01*
X101854596Y-59336321D01*
X101862802Y-59366656D01*
X101867221Y-59395291D01*
X101869397Y-59465794D01*
X101866581Y-59536035D01*
X101860970Y-59563247D01*
X101859358Y-59573285D01*
X101864341Y-59566544D01*
X101872767Y-59556506D01*
X101877823Y-59559876D01*
X101876138Y-59576656D01*
X101871082Y-59604353D01*
X101871082Y-59608530D01*
X101871888Y-59614391D01*
X101867712Y-59625309D01*
X101862656Y-59633662D01*
X101851738Y-59654691D01*
X101851249Y-59668376D01*
X101852324Y-59666195D01*
X101854889Y-59662019D01*
X101857380Y-59652786D01*
X101862363Y-59646045D01*
X101863242Y-59652786D01*
X101857847Y-59665427D01*
X101851181Y-59670270D01*
X101850932Y-59677259D01*
X101850932Y-59685686D01*
X101849247Y-59690742D01*
X101845876Y-59694039D01*
X101829829Y-59714189D01*
X101817227Y-59739322D01*
X101823968Y-59736830D01*
X101833273Y-59733460D01*
X101829903Y-59740201D01*
X101823968Y-59747748D01*
X101817227Y-59749433D01*
X101807994Y-59753610D01*
X101792021Y-59769510D01*
X101778612Y-59784604D01*
X101772057Y-59796221D01*
X101735747Y-59829081D01*
X101696377Y-59856902D01*
X101687753Y-59858390D01*
X101691124Y-59853407D01*
X101692883Y-59846666D01*
X101692883Y-59844981D01*
X101697865Y-59844981D01*
X101718088Y-59838313D01*
X101738238Y-59816478D01*
X101743221Y-59811422D01*
X101752527Y-59801384D01*
X101762638Y-59790466D01*
X101768500Y-59782919D01*
X101765203Y-59781234D01*
X101770185Y-59774566D01*
X101778612Y-59763648D01*
X101790335Y-59742692D01*
X101803772Y-59721285D01*
X101802132Y-59719245D01*
X101783668Y-59734339D01*
X101716330Y-59803069D01*
X101674271Y-59838313D01*
X101660222Y-59837925D01*
X101657492Y-59834943D01*
X101659177Y-59831572D01*
X101660862Y-59822340D01*
X101657492Y-59809737D01*
X101648186Y-59796328D01*
X101638954Y-59784604D01*
X101637268Y-59781234D01*
X101628842Y-59789660D01*
X101623859Y-59789660D01*
X101627157Y-59784604D01*
X101635583Y-59774566D01*
X101640639Y-59771195D01*
X101638954Y-59766945D01*
X101632213Y-59766139D01*
X101625471Y-59764454D01*
X101624665Y-59755295D01*
X101624665Y-59746942D01*
X101620342Y-59747748D01*
X101603636Y-59748554D01*
X101596702Y-59743262D01*
X101595796Y-59736830D01*
X101595170Y-59730602D01*
X101589641Y-59726792D01*
X101584830Y-59723170D01*
X101586124Y-59717560D01*
X101587003Y-59706642D01*
X101583486Y-59664730D01*
X101585766Y-59630753D01*
X101590227Y-59618568D01*
X101599059Y-59601755D01*
X101591913Y-59591750D01*
X101579923Y-59593226D01*
X101539742Y-59611900D01*
X101513247Y-59624534D01*
X101492628Y-59630292D01*
X101486766Y-59632856D01*
X101479219Y-59635347D01*
X101471878Y-59636830D01*
X101474163Y-59640403D01*
X101482589Y-59645386D01*
X101492628Y-59648756D01*
X101481394Y-59653885D01*
X101395102Y-59660480D01*
X101372387Y-59658868D01*
X101359784Y-59654691D01*
X101332893Y-59649636D01*
X101317799Y-59642894D01*
X101307687Y-59636227D01*
X101284973Y-59618568D01*
X101263064Y-59603474D01*
X101253832Y-59596806D01*
X101249088Y-59588379D01*
X101544798Y-59588379D01*
X101548169Y-59593435D01*
X101556595Y-59591750D01*
X101563336Y-59588379D01*
X101553224Y-59586694D01*
X101544798Y-59588379D01*
X101249088Y-59588379D01*
X101246284Y-59583397D01*
X101233682Y-59576656D01*
X101230311Y-59574971D01*
X101235367Y-59569915D01*
X101240423Y-59571600D01*
X101243793Y-59574971D01*
X101247954Y-59573485D01*
X101243793Y-59568229D01*
X101445587Y-59568229D01*
X101465737Y-59566544D01*
X101518640Y-59555700D01*
X101527378Y-59552109D01*
X101636462Y-59552109D01*
X101640148Y-59552585D01*
X101648186Y-59545442D01*
X101666651Y-59516938D01*
X101683504Y-59480009D01*
X101691930Y-59453997D01*
X101690245Y-59453191D01*
X101672586Y-59491733D01*
X101645695Y-59536209D01*
X101636462Y-59552109D01*
X101527378Y-59552109D01*
X101557328Y-59539800D01*
X101573228Y-59529688D01*
X101581654Y-59522947D01*
X101578453Y-59520989D01*
X101558134Y-59531373D01*
X101523731Y-59548304D01*
X101469107Y-59563247D01*
X101445587Y-59568229D01*
X101243793Y-59568229D01*
X101235367Y-59564932D01*
X101220273Y-59551450D01*
X101211249Y-59539720D01*
X101205105Y-59538041D01*
X101200855Y-59544782D01*
X101190744Y-59542291D01*
X101184882Y-59533058D01*
X101178141Y-59522141D01*
X101174963Y-59516938D01*
X101204739Y-59516938D01*
X101208036Y-59521921D01*
X101211407Y-59519430D01*
X101208036Y-59514447D01*
X101204739Y-59516938D01*
X101174963Y-59516938D01*
X101171473Y-59511223D01*
X101168102Y-59506167D01*
X101166417Y-59514594D01*
X101169788Y-59521262D01*
X101162973Y-59514594D01*
X101156232Y-59491073D01*
X101146047Y-59460885D01*
X101140918Y-59443299D01*
X101140112Y-59432455D01*
X101135056Y-59421537D01*
X101133371Y-59417287D01*
X101131686Y-59391349D01*
X101127436Y-59363652D01*
X101124065Y-59372005D01*
X101129194Y-59434067D01*
X101132565Y-59457587D01*
X101130880Y-59456708D01*
X101125751Y-59450846D01*
X101118936Y-59444105D01*
X101106260Y-59429011D01*
X101103769Y-59421464D01*
X101096954Y-59403878D01*
X101095269Y-59393840D01*
X101102010Y-59397211D01*
X101107066Y-59400508D01*
X101106187Y-59395525D01*
X101105381Y-59387099D01*
X101108751Y-59377061D01*
X101100325Y-59365337D01*
X101098640Y-59351855D01*
X101102094Y-59345425D01*
X101107066Y-59356911D01*
X101110437Y-59365337D01*
X101117104Y-59383728D01*
X101118790Y-59375375D01*
X101118790Y-59361966D01*
X101116225Y-59335954D01*
X101113734Y-59330093D01*
X101110437Y-59335148D01*
X101108290Y-59339642D01*
X101100325Y-59336761D01*
X101097000Y-59330984D01*
X101095269Y-59312507D01*
X101093665Y-59294581D01*
X101091093Y-59291551D01*
X101093584Y-59287375D01*
X101094578Y-59285386D01*
X101315213Y-59285386D01*
X101315527Y-59315365D01*
X101326445Y-59383728D01*
X101347474Y-59439123D01*
X101363351Y-59469970D01*
X101370116Y-59477664D01*
X101376943Y-59482344D01*
X101378542Y-59479349D01*
X101378542Y-59475979D01*
X101378542Y-59469311D01*
X101384592Y-59473809D01*
X101393636Y-59489461D01*
X101409846Y-59511839D01*
X101428954Y-59522947D01*
X101448885Y-59524801D01*
X101489404Y-59519650D01*
X101580116Y-59496129D01*
X101590227Y-59492758D01*
X101603087Y-59486231D01*
X101644083Y-59449161D01*
X101672316Y-59413559D01*
X101687827Y-59377061D01*
X101694495Y-59357790D01*
X101697865Y-59326722D01*
X101696108Y-59303971D01*
X101692296Y-59293603D01*
X101684702Y-59287843D01*
X101669289Y-59285470D01*
X101653242Y-59287961D01*
X101644083Y-59315292D01*
X101637342Y-59338446D01*
X101635656Y-59323425D01*
X101631407Y-59304227D01*
X101620489Y-59300051D01*
X101604515Y-59310016D01*
X101593598Y-59324964D01*
X101591913Y-59318296D01*
X101590227Y-59306572D01*
X101554983Y-59306572D01*
X101501737Y-59300706D01*
X101455845Y-59283784D01*
X101420443Y-59260887D01*
X101375171Y-59221722D01*
X101346556Y-59198153D01*
X101335677Y-59194098D01*
X101328488Y-59199777D01*
X101319777Y-59225093D01*
X101318898Y-59253596D01*
X101318092Y-59275431D01*
X101315213Y-59285386D01*
X101094578Y-59285386D01*
X101097760Y-59279021D01*
X101100325Y-59266419D01*
X101104502Y-59254695D01*
X101098640Y-59247954D01*
X101097760Y-59240480D01*
X101099974Y-59206451D01*
X101168710Y-59206451D01*
X101169421Y-59221722D01*
X101172343Y-59224319D01*
X101175283Y-59218352D01*
X101179533Y-59193219D01*
X101202980Y-59116063D01*
X101233242Y-59042277D01*
X101246724Y-59018756D01*
X101278516Y-58963650D01*
X101320656Y-58903058D01*
X101337363Y-58880417D01*
X101342492Y-58869500D01*
X101334888Y-58875722D01*
X101299627Y-58919838D01*
X101248409Y-58995309D01*
X101238298Y-59008718D01*
X101233242Y-59018756D01*
X101216462Y-59055686D01*
X101197938Y-59099804D01*
X101180339Y-59154677D01*
X101168710Y-59206451D01*
X101099974Y-59206451D01*
X101100325Y-59201059D01*
X101103985Y-59147226D01*
X101109338Y-59139070D01*
X101112928Y-59134088D01*
X101113807Y-59131597D01*
X101115566Y-59130717D01*
X101118277Y-59128226D01*
X101121940Y-59122291D01*
X101129194Y-59103973D01*
X101129310Y-59103433D01*
X101172036Y-59103433D01*
X101174477Y-59110567D01*
X101184515Y-59102214D01*
X101187886Y-59095473D01*
X101200489Y-59063673D01*
X101218148Y-59029234D01*
X101226574Y-59016631D01*
X101258448Y-58963875D01*
X101303804Y-58902619D01*
X101317286Y-58882469D01*
X101302998Y-58896757D01*
X101276913Y-58930316D01*
X101260133Y-58952957D01*
X101255077Y-58954569D01*
X101255746Y-58948838D01*
X101271930Y-58922769D01*
X101279035Y-58904827D01*
X101273615Y-58900934D01*
X101256762Y-58920204D01*
X101241668Y-58946216D01*
X101234048Y-58958819D01*
X101217268Y-58986516D01*
X101198804Y-59020075D01*
X101191257Y-59038467D01*
X101179533Y-59073711D01*
X101172036Y-59103433D01*
X101129310Y-59103433D01*
X101132785Y-59087193D01*
X101129414Y-59068728D01*
X101131100Y-59061181D01*
X101134713Y-59059930D01*
X101141211Y-59065358D01*
X101147952Y-59073784D01*
X101147952Y-59058690D01*
X101148758Y-59043596D01*
X101151323Y-59040225D01*
X101154037Y-59025771D01*
X101164732Y-59001610D01*
X101170018Y-59006841D01*
X101179899Y-58989887D01*
X101195903Y-58957908D01*
X101208476Y-58941234D01*
X101216023Y-58931195D01*
X101233682Y-58908554D01*
X101250461Y-58889210D01*
X101279111Y-58862319D01*
X101316114Y-58828833D01*
X101345496Y-58805386D01*
X101363228Y-58791904D01*
X101417010Y-58755853D01*
X101489331Y-58714747D01*
X101524423Y-58696667D01*
X101529704Y-58691300D01*
X101535331Y-58685021D01*
X101569198Y-58669465D01*
X101607090Y-58657105D01*
X101632286Y-58652685D01*
X101679028Y-58650711D01*
X101702921Y-58654370D01*
G37*
G36*
X101729665Y-59847326D02*
G01*
X101722924Y-59852382D01*
X101722118Y-59847326D01*
X101728859Y-59842270D01*
X101729665Y-59847326D01*
G37*
G36*
X101651557Y-59820508D02*
G01*
X101649871Y-59825564D01*
X101648259Y-59835602D01*
X101644889Y-59827176D01*
X101648259Y-59817137D01*
X101651557Y-59820508D01*
G37*
G36*
X101779271Y-59808711D02*
G01*
X101774215Y-59812082D01*
X101772530Y-59808711D01*
X101777586Y-59805414D01*
X101779271Y-59808711D01*
G37*
G36*
X101841407Y-59713163D02*
G01*
X101835545Y-59720710D01*
X101833053Y-59721516D01*
X101836351Y-59711478D01*
X101843092Y-59703125D01*
X101841407Y-59713163D01*
G37*
G36*
X101514610Y-59646045D02*
G01*
X101503692Y-59647730D01*
X101498709Y-59644360D01*
X101502080Y-59643554D01*
X101512118Y-59641063D01*
X101523915Y-59641063D01*
X101514610Y-59646045D01*
G37*
G36*
X101883392Y-59587354D02*
G01*
X101881707Y-59589039D01*
X101883392Y-59583983D01*
X101886762Y-59579807D01*
X101883392Y-59587354D01*
G37*
G36*
X101213898Y-59558851D02*
G01*
X101218148Y-59572259D01*
X101212213Y-59569768D01*
X101204665Y-59559657D01*
X101203053Y-59552109D01*
X101206351Y-59547127D01*
X101213898Y-59558851D01*
G37*
G36*
X101890133Y-59563906D02*
G01*
X101888448Y-59560536D01*
X101890133Y-59555480D01*
X101890133Y-59563906D01*
G37*
G36*
X101176162Y-59555480D02*
G01*
X101174477Y-59560536D01*
X101171107Y-59555480D01*
X101172792Y-59550424D01*
X101176162Y-59555480D01*
G37*
G36*
X101162680Y-59526977D02*
G01*
X101166051Y-59537015D01*
X101166051Y-59540386D01*
X101160995Y-59533718D01*
X101154327Y-59520236D01*
X101155626Y-59518099D01*
X101162680Y-59526977D01*
G37*
G36*
X101144582Y-59486091D02*
G01*
X101147952Y-59494444D01*
X101153008Y-59512908D01*
X101153008Y-59515473D01*
X101147952Y-59516279D01*
X101139526Y-59512908D01*
X101141211Y-59504555D01*
X101141211Y-59498694D01*
X101137841Y-59487776D01*
X101139540Y-59478961D01*
X101144582Y-59486091D01*
G37*
G36*
X102789997Y-58962556D02*
G01*
X102805091Y-58974280D01*
X102820683Y-58991309D01*
X102828612Y-59018097D01*
X102826806Y-59037023D01*
X102815203Y-59072026D01*
X102788140Y-59143338D01*
X102774008Y-59199653D01*
X102769847Y-59243851D01*
X102767282Y-59321080D01*
X102769847Y-59369660D01*
X102772118Y-59406516D01*
X102775929Y-59442567D01*
X102775123Y-59448428D01*
X102775929Y-59461837D01*
X102785014Y-59498767D01*
X102789385Y-59532180D01*
X102805091Y-59579367D01*
X102811832Y-59598638D01*
X102815130Y-59606991D01*
X102820185Y-59619594D01*
X102827732Y-59631391D01*
X102841947Y-59633003D01*
X102851598Y-59622280D01*
X102862024Y-59594461D01*
X102867080Y-59572626D01*
X102867080Y-59601129D01*
X102865395Y-59632197D01*
X102868912Y-59638864D01*
X102870597Y-59643041D01*
X102867080Y-59646412D01*
X102871257Y-59648097D01*
X102875506Y-59641429D01*
X102871989Y-59634688D01*
X102874774Y-59628020D01*
X102881148Y-59613732D01*
X102882327Y-59608182D01*
X102885325Y-59610361D01*
X102887010Y-59619594D01*
X102887890Y-59624650D01*
X102892872Y-59617908D01*
X102892872Y-59614538D01*
X102899613Y-59604500D01*
X102900419Y-59612047D01*
X102896243Y-59628020D01*
X102892872Y-59643114D01*
X102889575Y-59658135D01*
X102887890Y-59669932D01*
X102885325Y-59666562D01*
X102882834Y-59666562D01*
X102882834Y-59673229D01*
X102881148Y-59687518D01*
X102857701Y-59713530D01*
X102828569Y-59736964D01*
X102794760Y-59753756D01*
X102760460Y-59761387D01*
X102736947Y-59757127D01*
X102705937Y-59736425D01*
X102704053Y-59734119D01*
X102800841Y-59734119D01*
X102808388Y-59729943D01*
X102811759Y-59724887D01*
X102803333Y-59728257D01*
X102800841Y-59734119D01*
X102704053Y-59734119D01*
X102675216Y-59698816D01*
X102651249Y-59651101D01*
X102877265Y-59651101D01*
X102878950Y-59656157D01*
X102880635Y-59649416D01*
X102877265Y-59651101D01*
X102651249Y-59651101D01*
X102644697Y-59638058D01*
X102627038Y-59599517D01*
X102616120Y-59592776D01*
X102600294Y-59601202D01*
X102589376Y-59612853D01*
X102567541Y-59649782D01*
X102532296Y-59700121D01*
X102523562Y-59714578D01*
X102523064Y-59721956D01*
X102523126Y-59726922D01*
X102518081Y-59728624D01*
X102512702Y-59731148D01*
X102510534Y-59740347D01*
X102507970Y-59752071D01*
X102498737Y-59762183D01*
X102474239Y-59795360D01*
X102449864Y-59812448D01*
X102414669Y-59820374D01*
X102387582Y-59810763D01*
X102358127Y-59780574D01*
X102356037Y-59776911D01*
X102469062Y-59776911D01*
X102476609Y-59770169D01*
X102480786Y-59760131D01*
X102473238Y-59766799D01*
X102469062Y-59776911D01*
X102356037Y-59776911D01*
X102337097Y-59743718D01*
X102329550Y-59726132D01*
X102325301Y-59711038D01*
X102316068Y-59692573D01*
X102311012Y-59680850D01*
X102305956Y-59669053D01*
X102299215Y-59659015D01*
X102308521Y-59654838D01*
X102318559Y-59651467D01*
X102310133Y-59649782D01*
X102300095Y-59643041D01*
X102299875Y-59641429D01*
X102303465Y-59641429D01*
X102310133Y-59639744D01*
X102303465Y-59626335D01*
X102295845Y-59613732D01*
X102291668Y-59601202D01*
X102293793Y-59596146D01*
X102290569Y-59584423D01*
X102283242Y-59565958D01*
X102283242Y-59528222D01*
X102284909Y-59501112D01*
X102287272Y-59497155D01*
X102288078Y-59492099D01*
X102285798Y-59479488D01*
X102288078Y-59426666D01*
X102301194Y-59314266D01*
X102303382Y-59289800D01*
X102300388Y-59279095D01*
X102292174Y-59273218D01*
X102273790Y-59270668D01*
X102255598Y-59268094D01*
X102247924Y-59262242D01*
X102242539Y-59245665D01*
X102246239Y-59222015D01*
X102257341Y-59203116D01*
X102269760Y-59200180D01*
X102278465Y-59198463D01*
X102293793Y-59186771D01*
X102324128Y-59148229D01*
X102335322Y-59124367D01*
X102336078Y-59116063D01*
X102487527Y-59116063D01*
X102489212Y-59121045D01*
X102494194Y-59117748D01*
X102492509Y-59112692D01*
X102487527Y-59116063D01*
X102336078Y-59116063D01*
X102336365Y-59112912D01*
X102337171Y-59095326D01*
X102340468Y-59070194D01*
X102343478Y-59054762D01*
X102351532Y-59045867D01*
X102363476Y-59031579D01*
X102366670Y-59025305D01*
X102376298Y-59019855D01*
X102390000Y-59012308D01*
X102390000Y-59009817D01*
X102386557Y-59010623D01*
X102383113Y-59008938D01*
X102385368Y-59006500D01*
X102396815Y-59008938D01*
X102458291Y-59013994D01*
X102493682Y-59017364D01*
X102500349Y-59040152D01*
X102500349Y-59067849D01*
X102496173Y-59088952D01*
X102491996Y-59096499D01*
X102491996Y-59104852D01*
X102495367Y-59108222D01*
X102499643Y-59112831D01*
X102499470Y-59120899D01*
X102495294Y-59140243D01*
X102490311Y-59158707D01*
X102486940Y-59173875D01*
X102483570Y-59212490D01*
X102476829Y-59239527D01*
X102476829Y-59237769D01*
X102473458Y-59229342D01*
X102473458Y-59237769D01*
X102471557Y-59245685D01*
X102466790Y-59247881D01*
X102463420Y-59247881D01*
X102466790Y-59251251D01*
X102470734Y-59255413D01*
X102469282Y-59261363D01*
X102467596Y-59270668D01*
X102466790Y-59276457D01*
X102459976Y-59299245D01*
X102459976Y-59310504D01*
X102460635Y-59309210D01*
X102466497Y-59306719D01*
X102469062Y-59310895D01*
X102464006Y-59315951D01*
X102459976Y-59314772D01*
X102459976Y-59320201D01*
X102461735Y-59326942D01*
X102458291Y-59326942D01*
X102453162Y-59328627D01*
X102457411Y-59333683D01*
X102454847Y-59342109D01*
X102448839Y-59364018D01*
X102449718Y-59382483D01*
X102450524Y-59402706D01*
X102447153Y-59424541D01*
X102448912Y-59432968D01*
X102449718Y-59440515D01*
X102447227Y-59445571D01*
X102450597Y-59480082D01*
X102458291Y-59540606D01*
X102463420Y-59582664D01*
X102461735Y-59575996D01*
X102453366Y-59543187D01*
X102446640Y-59495470D01*
X102441585Y-59465208D01*
X102439899Y-59461837D01*
X102439899Y-59470264D01*
X102438214Y-59493784D01*
X102438214Y-59508072D01*
X102443270Y-59532399D01*
X102451030Y-59586180D01*
X102463420Y-59633003D01*
X102469282Y-59649782D01*
X102473458Y-59660700D01*
X102476829Y-59665756D01*
X102480199Y-59664876D01*
X102480199Y-59656523D01*
X102473458Y-59632197D01*
X102468476Y-59607870D01*
X102468476Y-59602814D01*
X102474338Y-59615417D01*
X102483570Y-59635567D01*
X102491180Y-59643050D01*
X102498737Y-59643041D01*
X102540869Y-59589405D01*
X102587104Y-59513861D01*
X102602809Y-59479830D01*
X102604836Y-59468578D01*
X102606522Y-59463523D01*
X102611578Y-59465208D01*
X102611578Y-59455169D01*
X102606522Y-59452678D01*
X102603151Y-59451799D01*
X102601466Y-59434213D01*
X102603151Y-59421610D01*
X102606522Y-59431649D01*
X102607328Y-59440075D01*
X102611578Y-59440075D01*
X102614069Y-59435899D01*
X102609892Y-59429158D01*
X102613190Y-59421610D01*
X102613190Y-59408202D01*
X102611504Y-59390616D01*
X102609819Y-59384681D01*
X102606522Y-59398163D01*
X102603151Y-59413184D01*
X102599781Y-59396478D01*
X102601466Y-59371272D01*
X102604155Y-59346726D01*
X102606522Y-59346726D01*
X102606522Y-59368488D01*
X102608207Y-59377720D01*
X102610698Y-59357570D01*
X102612384Y-59329873D01*
X102611504Y-59322326D01*
X102608207Y-59324011D01*
X102606522Y-59346726D01*
X102604155Y-59346726D01*
X102612610Y-59269559D01*
X102635171Y-59176733D01*
X102650266Y-59124782D01*
X102645210Y-59109615D01*
X102645210Y-59107929D01*
X102650266Y-59106317D01*
X102651951Y-59097891D01*
X102669782Y-59044561D01*
X102698479Y-59003076D01*
X102725810Y-58984465D01*
X102753214Y-58975965D01*
X102762139Y-58973583D01*
X102769847Y-58965927D01*
X102781244Y-58956629D01*
X102789997Y-58962556D01*
G37*
G36*
X102900786Y-59644360D02*
G01*
X102899100Y-59639377D01*
X102900786Y-59634322D01*
X102900786Y-59644360D01*
G37*
G36*
X102884812Y-59584056D02*
G01*
X102883127Y-59592409D01*
X102879756Y-59595780D01*
X102876386Y-59591530D01*
X102879756Y-59581492D01*
X102884812Y-59577315D01*
X102884812Y-59584056D01*
G37*
G36*
X102456679Y-59376328D02*
G01*
X102454993Y-59376328D01*
X102456679Y-59362919D01*
X102458364Y-59362919D01*
X102456679Y-59376328D01*
G37*
G36*
X102472359Y-59297193D02*
G01*
X102468989Y-59298878D01*
X102465691Y-59295508D01*
X102468989Y-59293823D01*
X102472359Y-59297193D01*
G37*
G36*
X102642865Y-59118554D02*
G01*
X102642059Y-59124416D01*
X102637003Y-59129472D01*
X102635318Y-59137825D01*
X102632021Y-59139510D01*
X102631141Y-59133648D01*
X102635318Y-59121924D01*
X102638689Y-59116063D01*
X102642865Y-59118554D01*
G37*
G36*
X103258577Y-59587940D02*
G01*
X103283783Y-59587940D01*
X103310674Y-59592629D01*
X103325768Y-59597319D01*
X103361012Y-59604939D01*
X103389589Y-59617542D01*
X103406441Y-59627654D01*
X103419742Y-59639540D01*
X103433259Y-59663118D01*
X103442125Y-59690532D01*
X103445056Y-59718659D01*
X103441406Y-59735972D01*
X103425712Y-59770902D01*
X103404978Y-59805395D01*
X103384606Y-59829887D01*
X103328434Y-59873776D01*
X103261947Y-59909095D01*
X103238049Y-59917665D01*
X103204795Y-59920892D01*
X103162809Y-59922577D01*
X103182959Y-59910853D01*
X103219103Y-59890317D01*
X103247586Y-59867329D01*
X103272883Y-59839035D01*
X103302247Y-59797061D01*
X103319027Y-59766139D01*
X103316286Y-59760997D01*
X103303933Y-59753610D01*
X103278727Y-59737710D01*
X103259383Y-59722615D01*
X103248465Y-59708400D01*
X103237548Y-59682462D01*
X103231979Y-59663492D01*
X103233371Y-59638132D01*
X103243405Y-59602402D01*
X103258577Y-59587940D01*
G37*
G36*
X105141250Y-58851621D02*
G01*
X105178159Y-58865964D01*
X105212764Y-58889430D01*
X105242484Y-58919457D01*
X105265740Y-58953983D01*
X105279222Y-58989227D01*
X105282593Y-59002563D01*
X105289456Y-59028199D01*
X105292705Y-59086460D01*
X105289671Y-59145563D01*
X105282739Y-59177026D01*
X105276072Y-59200546D01*
X105266180Y-59223994D01*
X105257900Y-59239967D01*
X105253797Y-59246635D01*
X105229763Y-59279315D01*
X105206375Y-59310870D01*
X105190049Y-59326282D01*
X105187218Y-59330865D01*
X105196790Y-59337420D01*
X105203532Y-59340644D01*
X105245590Y-59347019D01*
X105252258Y-59347825D01*
X105252258Y-59353393D01*
X105246153Y-59356464D01*
X105224561Y-59358156D01*
X105203666Y-59359993D01*
X105200161Y-59362919D01*
X105208927Y-59367573D01*
X105275852Y-59378673D01*
X105289977Y-59381673D01*
X105292705Y-59384901D01*
X105284278Y-59386513D01*
X105277537Y-59388198D01*
X105291019Y-59393254D01*
X105302743Y-59390763D01*
X105306920Y-59386513D01*
X105308605Y-59389883D01*
X105311975Y-59395818D01*
X105319522Y-59394133D01*
X105324578Y-59389883D01*
X105325384Y-59393254D01*
X105327070Y-59396624D01*
X105331319Y-59393254D01*
X105334690Y-59389883D01*
X105336375Y-59393254D01*
X105337181Y-59395818D01*
X105343043Y-59398310D01*
X105349784Y-59400801D01*
X105357331Y-59402486D01*
X105363266Y-59403292D01*
X105369934Y-59397430D01*
X105373680Y-59393741D01*
X105385102Y-59393254D01*
X105402275Y-59395647D01*
X105405252Y-59393254D01*
X105398511Y-59389883D01*
X105391769Y-59384974D01*
X105381658Y-59380504D01*
X105369934Y-59382043D01*
X105358211Y-59382776D01*
X105352540Y-59378405D01*
X105353155Y-59374349D01*
X105357448Y-59371492D01*
X105374990Y-59369880D01*
X105415829Y-59374424D01*
X105435513Y-59384827D01*
X105444672Y-59394939D01*
X105438811Y-59398236D01*
X105432521Y-59403983D01*
X105440496Y-59408202D01*
X105456469Y-59419046D01*
X105459034Y-59429817D01*
X105458961Y-59444838D01*
X105459840Y-59454803D01*
X105455663Y-59463962D01*
X105456276Y-59472270D01*
X105461525Y-59478983D01*
X105465509Y-59483559D01*
X105462331Y-59484772D01*
X105456401Y-59488363D01*
X105457349Y-59503090D01*
X105455663Y-59514740D01*
X105453978Y-59519796D01*
X105460719Y-59523020D01*
X105465000Y-59527609D01*
X105464823Y-59535550D01*
X105460719Y-59546394D01*
X105450434Y-59549335D01*
X105418661Y-59544709D01*
X105375173Y-59537603D01*
X105353081Y-59543024D01*
X105341358Y-59548079D01*
X105346340Y-59543024D01*
X105346340Y-59541412D01*
X105317764Y-59546394D01*
X105290873Y-59549765D01*
X105269843Y-59546394D01*
X105244638Y-59545588D01*
X105222729Y-59548079D01*
X105202579Y-59551377D01*
X105199208Y-59551377D01*
X105195838Y-59548079D01*
X105189976Y-59552256D01*
X105183235Y-59557971D01*
X105169347Y-59559875D01*
X105166455Y-59556359D01*
X105161006Y-59553183D01*
X105126082Y-59561342D01*
X105105053Y-59563833D01*
X105096626Y-59565518D01*
X105055374Y-59577901D01*
X104946051Y-59606112D01*
X104914647Y-59619527D01*
X104892195Y-59634322D01*
X104867722Y-59644213D01*
X104839952Y-59652640D01*
X104803094Y-59665365D01*
X104777743Y-59659308D01*
X104765080Y-59647975D01*
X104745723Y-59616590D01*
X104731200Y-59582760D01*
X104728943Y-59567057D01*
X104725573Y-59552036D01*
X104719134Y-59531446D01*
X105344728Y-59531446D01*
X105351469Y-59536429D01*
X105354840Y-59533132D01*
X105346448Y-59529283D01*
X105344728Y-59531446D01*
X104719134Y-59531446D01*
X104715848Y-59520940D01*
X104717876Y-59499948D01*
X104728943Y-59484991D01*
X104732314Y-59463156D01*
X104736490Y-59421464D01*
X104742160Y-59406369D01*
X104747408Y-59403072D01*
X104752971Y-59400409D01*
X104758399Y-59389737D01*
X104762153Y-59384388D01*
X105254676Y-59384388D01*
X105255555Y-59387758D01*
X105261417Y-59384388D01*
X105254676Y-59384388D01*
X104762153Y-59384388D01*
X104770123Y-59373031D01*
X104777743Y-59366363D01*
X104788661Y-59353906D01*
X104809690Y-59342989D01*
X104899742Y-59302762D01*
X105011703Y-59245756D01*
X105080469Y-59197868D01*
X105126683Y-59148296D01*
X105154732Y-59096499D01*
X105161400Y-59051216D01*
X105154732Y-59004248D01*
X105136280Y-58974992D01*
X105109303Y-58958966D01*
X105087500Y-58955084D01*
X105057059Y-58956474D01*
X105026491Y-58962742D01*
X105001518Y-58972375D01*
X104978984Y-58988474D01*
X104955283Y-59012675D01*
X104935701Y-59040254D01*
X104924142Y-59066310D01*
X104910660Y-59100749D01*
X104905604Y-59118334D01*
X104903113Y-59127567D01*
X104893001Y-59130058D01*
X104887139Y-59125075D01*
X104876954Y-59118334D01*
X104862482Y-59104910D01*
X104856804Y-59076422D01*
X104862961Y-59038691D01*
X104884575Y-58989227D01*
X104915875Y-58942618D01*
X104952719Y-58905330D01*
X105005768Y-58866788D01*
X105048633Y-58851621D01*
X105099360Y-58846607D01*
X105141250Y-58851621D01*
G37*
G36*
X105422301Y-59556578D02*
G01*
X105415950Y-59560536D01*
X105412652Y-59558851D01*
X105417635Y-59555480D01*
X105422301Y-59556578D01*
G37*
G36*
X105363926Y-59394500D02*
G01*
X105357991Y-59396991D01*
X105347073Y-59394500D01*
X105347073Y-59391129D01*
X105357185Y-59387758D01*
X105363926Y-59394500D01*
G37*
G36*
X105340405Y-59384388D02*
G01*
X105331979Y-59384388D01*
X105337035Y-59382703D01*
X105340405Y-59384388D01*
G37*
G36*
X105323552Y-59364311D02*
G01*
X105319376Y-59366802D01*
X105315199Y-59362626D01*
X105321061Y-59360941D01*
X105323552Y-59364311D01*
G37*
G36*
X105295049Y-59361527D02*
G01*
X105286623Y-59364897D01*
X105278197Y-59361527D01*
X105286623Y-59358156D01*
X105295049Y-59361527D01*
G37*
G36*
X105310144Y-59362626D02*
G01*
X105303402Y-59362626D01*
X105308458Y-59360941D01*
X105310144Y-59362626D01*
G37*
G36*
X105266473Y-59359255D02*
G01*
X105259732Y-59359255D01*
X105263102Y-59357570D01*
X105266473Y-59359255D01*
G37*
G36*
X106014331Y-58810281D02*
G01*
X106069617Y-58820700D01*
X106109831Y-58833579D01*
X106148238Y-58855944D01*
X106196672Y-58900421D01*
X106222853Y-58930030D01*
X106231843Y-58944824D01*
X106248923Y-58993066D01*
X106261958Y-59075689D01*
X106261079Y-59155410D01*
X106255217Y-59208313D01*
X106251161Y-59262776D01*
X106238217Y-59324084D01*
X106226274Y-59370319D01*
X106217774Y-59396331D01*
X106206783Y-59421537D01*
X106200848Y-59438317D01*
X106177035Y-59488655D01*
X106177035Y-59493638D01*
X106182090Y-59493638D01*
X106177035Y-59497008D01*
X106165897Y-59503749D01*
X106159962Y-59515546D01*
X106154906Y-59532326D01*
X106149777Y-59544049D01*
X106146407Y-59534011D01*
X106141351Y-59523899D01*
X106132998Y-59537162D01*
X106121201Y-59557898D01*
X106116145Y-59565372D01*
X106112774Y-59573725D01*
X106108540Y-59582228D01*
X106087715Y-59600323D01*
X106055768Y-59625236D01*
X106050712Y-59636886D01*
X106045730Y-59641795D01*
X106034006Y-59649342D01*
X106030635Y-59656743D01*
X106027265Y-59658428D01*
X106019718Y-59658502D01*
X105988650Y-59669273D01*
X105954285Y-59683414D01*
X105945053Y-59687591D01*
X105939118Y-59689276D01*
X105923217Y-59696017D01*
X105913740Y-59696178D01*
X105911494Y-59692647D01*
X105916550Y-59690082D01*
X105928273Y-59687591D01*
X105939997Y-59681729D01*
X105924976Y-59681729D01*
X105877935Y-59681729D01*
X105845182Y-59685100D01*
X105836324Y-59685506D01*
X105793158Y-59676673D01*
X105728605Y-59656597D01*
X105706910Y-59641314D01*
X105678266Y-59612853D01*
X105643524Y-59562922D01*
X105622872Y-59515546D01*
X105604407Y-59450040D01*
X105601037Y-59396405D01*
X105602965Y-59337095D01*
X105766284Y-59337095D01*
X105773741Y-59369074D01*
X105775426Y-59389224D01*
X105776232Y-59403512D01*
X105785391Y-59412671D01*
X105790810Y-59417298D01*
X105790374Y-59424468D01*
X105790508Y-59438611D01*
X105798727Y-59459712D01*
X105811865Y-59478819D01*
X105825471Y-59489827D01*
X105857456Y-59496433D01*
X105898691Y-59488790D01*
X105953846Y-59461324D01*
X105973586Y-59443974D01*
X106000594Y-59410180D01*
X106024456Y-59372105D01*
X106040601Y-59337200D01*
X106054260Y-59291373D01*
X106080681Y-59171164D01*
X106084051Y-59122584D01*
X106082755Y-59102580D01*
X106234114Y-59102580D01*
X106237631Y-59194904D01*
X106241148Y-59198202D01*
X106248183Y-59122657D01*
X106245799Y-59092736D01*
X106241148Y-59082430D01*
X106234114Y-59075689D01*
X106234114Y-59102580D01*
X106082755Y-59102580D01*
X106080681Y-59070560D01*
X106067272Y-59029454D01*
X106037084Y-58998386D01*
X106001839Y-58973254D01*
X105999997Y-58972521D01*
X106217335Y-58972521D01*
X106219020Y-58989301D01*
X106224076Y-59000145D01*
X106230925Y-59010492D01*
X106234114Y-59037075D01*
X106237631Y-59053854D01*
X106239390Y-59060595D01*
X106242834Y-59065578D01*
X106246424Y-59058910D01*
X106241148Y-59035389D01*
X106230011Y-58989301D01*
X106219020Y-58963289D01*
X106217335Y-58972521D01*
X105999997Y-58972521D01*
X105990007Y-58968546D01*
X105969160Y-58966586D01*
X105929665Y-58973254D01*
X105912885Y-58983747D01*
X105887753Y-59008498D01*
X105850603Y-59055456D01*
X105817338Y-59112472D01*
X105788835Y-59167793D01*
X105778797Y-59189629D01*
X105778797Y-59204723D01*
X105781103Y-59210026D01*
X105777917Y-59225679D01*
X105772056Y-59282685D01*
X105768685Y-59325476D01*
X105766284Y-59337095D01*
X105602965Y-59337095D01*
X105603617Y-59317026D01*
X105609463Y-59275431D01*
X105611075Y-59259531D01*
X105611954Y-59254548D01*
X105615252Y-59225972D01*
X105619428Y-59196590D01*
X105622799Y-59186478D01*
X105625047Y-59171259D01*
X105629467Y-59168013D01*
X105631152Y-59179810D01*
X105631152Y-59189848D01*
X105632837Y-59186478D01*
X105634522Y-59168892D01*
X105636208Y-59157975D01*
X105637893Y-59149622D01*
X105639182Y-59132756D01*
X105654672Y-59090784D01*
X105664784Y-59066530D01*
X105673064Y-59058983D01*
X105675555Y-59058177D01*
X105674749Y-59055613D01*
X105677102Y-59046777D01*
X105698270Y-59006886D01*
X105713437Y-58990107D01*
X105713437Y-58996848D01*
X105713437Y-59003516D01*
X105720105Y-58993477D01*
X105731829Y-58976698D01*
X105738570Y-58961603D01*
X105741867Y-58953177D01*
X105755203Y-58942333D01*
X105765241Y-58928045D01*
X105785362Y-58906356D01*
X105993706Y-58906356D01*
X106008800Y-58910606D01*
X106039868Y-58908920D01*
X106057527Y-58903058D01*
X106049980Y-58895511D01*
X106033127Y-58892141D01*
X106009606Y-58898003D01*
X105993706Y-58906356D01*
X105785362Y-58906356D01*
X105787809Y-58903718D01*
X105815433Y-58879391D01*
X105823859Y-58874409D01*
X105828205Y-58868858D01*
X105854781Y-58851767D01*
X105894055Y-58834109D01*
X105914132Y-58827441D01*
X105944100Y-58816770D01*
X105991068Y-58808976D01*
X106014331Y-58810281D01*
G37*
G36*
X106171759Y-59508805D02*
G01*
X106168388Y-59509684D01*
X106170074Y-59507120D01*
X106178500Y-59503823D01*
X106171759Y-59508805D01*
G37*
G36*
X106827111Y-58851621D02*
G01*
X106864021Y-58865964D01*
X106898626Y-58889430D01*
X106928346Y-58919457D01*
X106951602Y-58953983D01*
X106965084Y-58989227D01*
X106968455Y-59002563D01*
X106975317Y-59028199D01*
X106978566Y-59086460D01*
X106975533Y-59145563D01*
X106968601Y-59177026D01*
X106961933Y-59200546D01*
X106952042Y-59223994D01*
X106943762Y-59239967D01*
X106939659Y-59246635D01*
X106915625Y-59279315D01*
X106892236Y-59310870D01*
X106875911Y-59326282D01*
X106873079Y-59330865D01*
X106882652Y-59337420D01*
X106889393Y-59340644D01*
X106931452Y-59347019D01*
X106938120Y-59347825D01*
X106938120Y-59353393D01*
X106932014Y-59356464D01*
X106910423Y-59358156D01*
X106889527Y-59359993D01*
X106886023Y-59362919D01*
X106894789Y-59367573D01*
X106961714Y-59378673D01*
X106975838Y-59381673D01*
X106978566Y-59384901D01*
X106970140Y-59386513D01*
X106963399Y-59388198D01*
X106976881Y-59393254D01*
X106988605Y-59390763D01*
X106992781Y-59386513D01*
X106994467Y-59389883D01*
X106997837Y-59395818D01*
X107005384Y-59394133D01*
X107010440Y-59389883D01*
X107011246Y-59393254D01*
X107012931Y-59396624D01*
X107017181Y-59393254D01*
X107020552Y-59389883D01*
X107022237Y-59393254D01*
X107023043Y-59395818D01*
X107028905Y-59398310D01*
X107035646Y-59400801D01*
X107043193Y-59402486D01*
X107049128Y-59403292D01*
X107055796Y-59397430D01*
X107059542Y-59393741D01*
X107070963Y-59393254D01*
X107088137Y-59395647D01*
X107091114Y-59393254D01*
X107084372Y-59389883D01*
X107077631Y-59384974D01*
X107067520Y-59380504D01*
X107055796Y-59382043D01*
X107044072Y-59382776D01*
X107038402Y-59378405D01*
X107039017Y-59374349D01*
X107043310Y-59371492D01*
X107060852Y-59369880D01*
X107101691Y-59374424D01*
X107121375Y-59384827D01*
X107130534Y-59394939D01*
X107124672Y-59398236D01*
X107118383Y-59403983D01*
X107126358Y-59408202D01*
X107142331Y-59419046D01*
X107144896Y-59429817D01*
X107144823Y-59444838D01*
X107145702Y-59454803D01*
X107141525Y-59463962D01*
X107142138Y-59472270D01*
X107147387Y-59478983D01*
X107151371Y-59483559D01*
X107148193Y-59484772D01*
X107142263Y-59488363D01*
X107143211Y-59503090D01*
X107141525Y-59514740D01*
X107139840Y-59519796D01*
X107146581Y-59523020D01*
X107150862Y-59527609D01*
X107150684Y-59535550D01*
X107146581Y-59546394D01*
X107136296Y-59549335D01*
X107104522Y-59544709D01*
X107061035Y-59537603D01*
X107038943Y-59543024D01*
X107027220Y-59548079D01*
X107032202Y-59543024D01*
X107032202Y-59541412D01*
X107003626Y-59546394D01*
X106976735Y-59549765D01*
X106955705Y-59546394D01*
X106930499Y-59545588D01*
X106908591Y-59548079D01*
X106888441Y-59551377D01*
X106885070Y-59551377D01*
X106881700Y-59548079D01*
X106875838Y-59552256D01*
X106869097Y-59557971D01*
X106855209Y-59559875D01*
X106852317Y-59556359D01*
X106846867Y-59553183D01*
X106811944Y-59561342D01*
X106790915Y-59563833D01*
X106782488Y-59565518D01*
X106741236Y-59577901D01*
X106631913Y-59606112D01*
X106600509Y-59619527D01*
X106578057Y-59634322D01*
X106553584Y-59644213D01*
X106525813Y-59652640D01*
X106488955Y-59665365D01*
X106463605Y-59659308D01*
X106450941Y-59647975D01*
X106431585Y-59616590D01*
X106417062Y-59582760D01*
X106414805Y-59567057D01*
X106411435Y-59552036D01*
X106404996Y-59531446D01*
X107030590Y-59531446D01*
X107037331Y-59536429D01*
X107040702Y-59533132D01*
X107032310Y-59529283D01*
X107030590Y-59531446D01*
X106404996Y-59531446D01*
X106401710Y-59520940D01*
X106403738Y-59499948D01*
X106414805Y-59484991D01*
X106418176Y-59463156D01*
X106422352Y-59421464D01*
X106428022Y-59406369D01*
X106433270Y-59403072D01*
X106438833Y-59400409D01*
X106444261Y-59389737D01*
X106448015Y-59384388D01*
X106940538Y-59384388D01*
X106941417Y-59387758D01*
X106947279Y-59384388D01*
X106940538Y-59384388D01*
X106448015Y-59384388D01*
X106455984Y-59373031D01*
X106463605Y-59366363D01*
X106474522Y-59353906D01*
X106495552Y-59342989D01*
X106585604Y-59302762D01*
X106697565Y-59245756D01*
X106766331Y-59197868D01*
X106812544Y-59148296D01*
X106840594Y-59096499D01*
X106847261Y-59051216D01*
X106840594Y-59004248D01*
X106822142Y-58974992D01*
X106795164Y-58958966D01*
X106773362Y-58955084D01*
X106742921Y-58956474D01*
X106712353Y-58962742D01*
X106687380Y-58972375D01*
X106664846Y-58988474D01*
X106641145Y-59012675D01*
X106621563Y-59040254D01*
X106610004Y-59066310D01*
X106596522Y-59100749D01*
X106591466Y-59118334D01*
X106588975Y-59127567D01*
X106578863Y-59130058D01*
X106573001Y-59125075D01*
X106562816Y-59118334D01*
X106548343Y-59104910D01*
X106542666Y-59076422D01*
X106548822Y-59038691D01*
X106570437Y-58989227D01*
X106601737Y-58942618D01*
X106638580Y-58905330D01*
X106691630Y-58866788D01*
X106734495Y-58851621D01*
X106785221Y-58846607D01*
X106827111Y-58851621D01*
G37*
G36*
X107108163Y-59556578D02*
G01*
X107101811Y-59560536D01*
X107098514Y-59558851D01*
X107103497Y-59555480D01*
X107108163Y-59556578D01*
G37*
G36*
X107049788Y-59394500D02*
G01*
X107043853Y-59396991D01*
X107032935Y-59394500D01*
X107032935Y-59391129D01*
X107043047Y-59387758D01*
X107049788Y-59394500D01*
G37*
G36*
X107026267Y-59384388D02*
G01*
X107017841Y-59384388D01*
X107022896Y-59382703D01*
X107026267Y-59384388D01*
G37*
G36*
X107009414Y-59364311D02*
G01*
X107005238Y-59366802D01*
X107001061Y-59362626D01*
X107006923Y-59360941D01*
X107009414Y-59364311D01*
G37*
G36*
X106980911Y-59361527D02*
G01*
X106972485Y-59364897D01*
X106964058Y-59361527D01*
X106972485Y-59358156D01*
X106980911Y-59361527D01*
G37*
G36*
X106996005Y-59362626D02*
G01*
X106989264Y-59362626D01*
X106994320Y-59360941D01*
X106996005Y-59362626D01*
G37*
G36*
X106952335Y-59359255D02*
G01*
X106945594Y-59359255D01*
X106948964Y-59357570D01*
X106952335Y-59359255D01*
G37*
G36*
X107387209Y-59735218D02*
G01*
X107384718Y-59738589D01*
X107370430Y-59740274D01*
X107366180Y-59741153D01*
X107370430Y-59736904D01*
X107378907Y-59733138D01*
X107387209Y-59735218D01*
G37*
G36*
X108004313Y-58768017D02*
G01*
X108020583Y-58770708D01*
X108032890Y-58778348D01*
X108063957Y-58797179D01*
X108079931Y-58802382D01*
X108087478Y-58808390D01*
X108088284Y-58814398D01*
X108082422Y-58821213D01*
X108077301Y-58828140D01*
X108079051Y-58833303D01*
X108084107Y-58855578D01*
X108086599Y-58879611D01*
X108086105Y-58885682D01*
X108078172Y-58892434D01*
X108060440Y-58898442D01*
X108053699Y-58901886D01*
X108038458Y-58910459D01*
X108004606Y-58917347D01*
X107936029Y-58922416D01*
X107870029Y-58937524D01*
X107805890Y-58962849D01*
X107777241Y-58974646D01*
X107748664Y-58986370D01*
X107725070Y-59000731D01*
X107706532Y-59025204D01*
X107686373Y-59062742D01*
X107681253Y-59085874D01*
X107689015Y-59102587D01*
X107719941Y-59119506D01*
X107789237Y-59154879D01*
X107845883Y-59203862D01*
X107891400Y-59267884D01*
X107913496Y-59319562D01*
X107919976Y-59361380D01*
X107913282Y-59403769D01*
X107889714Y-59459932D01*
X107858647Y-59507193D01*
X107831756Y-59537528D01*
X107800615Y-59557751D01*
X107776895Y-59573095D01*
X107767056Y-59576289D01*
X107751082Y-59582151D01*
X107748591Y-59594827D01*
X107744341Y-59603181D01*
X107731738Y-59608236D01*
X107725278Y-59606764D01*
X107726682Y-59603181D01*
X107735109Y-59598051D01*
X107741850Y-59594754D01*
X107726682Y-59598051D01*
X107712458Y-59604812D01*
X107713200Y-59611534D01*
X107718329Y-59613219D01*
X107720014Y-59609922D01*
X107723385Y-59609922D01*
X107727488Y-59616590D01*
X107714959Y-59623331D01*
X107701476Y-59631757D01*
X107694735Y-59635128D01*
X107687168Y-59632832D01*
X107694735Y-59625016D01*
X107699791Y-59623331D01*
X107709829Y-59611534D01*
X107692171Y-59619081D01*
X107674585Y-59628313D01*
X107662788Y-59631684D01*
X107657732Y-59635934D01*
X107636703Y-59646924D01*
X107615747Y-59655278D01*
X107618238Y-59658575D01*
X107624980Y-59657769D01*
X107632600Y-59653592D01*
X107647621Y-59648536D01*
X107662788Y-59643481D01*
X107675875Y-59639697D01*
X107686309Y-59641795D01*
X107672827Y-59654398D01*
X107655974Y-59661945D01*
X107650991Y-59665316D01*
X107614795Y-59685466D01*
X107566728Y-59707301D01*
X107532264Y-59717147D01*
X107516243Y-59717413D01*
X107511260Y-59716607D01*
X107516243Y-59721663D01*
X107520419Y-59725839D01*
X107514631Y-59727525D01*
X107501075Y-59720710D01*
X107497705Y-59717413D01*
X107499390Y-59722469D01*
X107497705Y-59728404D01*
X107474111Y-59729210D01*
X107447220Y-59727525D01*
X107465758Y-59724154D01*
X107485981Y-59720857D01*
X107496899Y-59714995D01*
X107507890Y-59709060D01*
X107510381Y-59707375D01*
X107517928Y-59704004D01*
X107519705Y-59699279D01*
X107510308Y-59697263D01*
X107453961Y-59707375D01*
X107420328Y-59711624D01*
X107386696Y-59717486D01*
X107369369Y-59717264D01*
X107359732Y-59707375D01*
X107352991Y-59695578D01*
X107341194Y-59706569D01*
X107331471Y-59714422D01*
X107326906Y-59714116D01*
X107324414Y-59695578D01*
X107324414Y-59692433D01*
X107525987Y-59692433D01*
X107526647Y-59698069D01*
X107537565Y-59703125D01*
X107546797Y-59698069D01*
X107554344Y-59693013D01*
X107562771Y-59688837D01*
X107570318Y-59684660D01*
X107577059Y-59681289D01*
X107577865Y-59675428D01*
X107553538Y-59682975D01*
X107543427Y-59685539D01*
X107530824Y-59688837D01*
X107525987Y-59692433D01*
X107324414Y-59692433D01*
X107324414Y-59682169D01*
X107314303Y-59677113D01*
X107294153Y-59674548D01*
X107284041Y-59672936D01*
X107289097Y-59658575D01*
X107295543Y-59643655D01*
X107300894Y-59611534D01*
X107309247Y-59582151D01*
X107325220Y-59556945D01*
X107337823Y-59534231D01*
X107345428Y-59518141D01*
X107351305Y-59522507D01*
X107361344Y-59525878D01*
X107369843Y-59528442D01*
X107384132Y-59530934D01*
X107398420Y-59533425D01*
X107404282Y-59535916D01*
X107420255Y-59533425D01*
X107438793Y-59527563D01*
X107461252Y-59519616D01*
X107452202Y-59525878D01*
X107440478Y-59532619D01*
X107450517Y-59530934D01*
X107489278Y-59515839D01*
X107512872Y-59505728D01*
X107509502Y-59510784D01*
X107494334Y-59519137D01*
X107489351Y-59522507D01*
X107495213Y-59523386D01*
X107505252Y-59520016D01*
X107512872Y-59515839D01*
X107521298Y-59512469D01*
X107539763Y-59507413D01*
X107590321Y-59483892D01*
X107598748Y-59473781D01*
X107605416Y-59467113D01*
X107614648Y-59464622D01*
X107621462Y-59462936D01*
X107640000Y-59450333D01*
X107661909Y-59435166D01*
X107676197Y-59428352D01*
X107681253Y-59425054D01*
X107677883Y-59433481D01*
X107676197Y-59436851D01*
X107684624Y-59431795D01*
X107686309Y-59423369D01*
X107691365Y-59418313D01*
X107702282Y-59412451D01*
X107719941Y-59398163D01*
X107753647Y-59369513D01*
X107776722Y-59338560D01*
X107783982Y-59305620D01*
X107778263Y-59286382D01*
X107757017Y-59261949D01*
X107731738Y-59248540D01*
X107706532Y-59240114D01*
X107685969Y-59247155D01*
X107650991Y-59276970D01*
X107627398Y-59300490D01*
X107603877Y-59302176D01*
X107578752Y-59300444D01*
X107541522Y-59290379D01*
X107489277Y-59268898D01*
X107470813Y-59255208D01*
X107452595Y-59231344D01*
X107448905Y-59221649D01*
X107445432Y-59201662D01*
X107435496Y-59186478D01*
X107416659Y-59160031D01*
X107411902Y-59142954D01*
X107419179Y-59116625D01*
X107442164Y-59096059D01*
X107460114Y-59084591D01*
X107471546Y-59071879D01*
X107490890Y-59045867D01*
X107558155Y-58965560D01*
X107599854Y-58916506D01*
X107638755Y-58861659D01*
X107679055Y-58806412D01*
X107704261Y-58789705D01*
X107731152Y-58781352D01*
X107752181Y-58788093D01*
X107766543Y-58803114D01*
X107778266Y-58809855D01*
X107946281Y-58767211D01*
X107968996Y-58766405D01*
X108004313Y-58768017D01*
G37*
G36*
X107391386Y-59521994D02*
G01*
X107385524Y-59526977D01*
X107387209Y-59520236D01*
X107392265Y-59515253D01*
X107391386Y-59521994D01*
G37*
D12*
X62144523Y-35424619D02*
X62811190Y-35424619D01*
X63096904Y-36472238D02*
X62144523Y-36472238D01*
X62144523Y-36472238D02*
X62144523Y-34472238D01*
X62144523Y-34472238D02*
X63096904Y-34472238D01*
X63858809Y-36377000D02*
X64144523Y-36472238D01*
X64144523Y-36472238D02*
X64620714Y-36472238D01*
X64620714Y-36472238D02*
X64811190Y-36377000D01*
X64811190Y-36377000D02*
X64906428Y-36281761D01*
X64906428Y-36281761D02*
X65001666Y-36091285D01*
X65001666Y-36091285D02*
X65001666Y-35900809D01*
X65001666Y-35900809D02*
X64906428Y-35710333D01*
X64906428Y-35710333D02*
X64811190Y-35615095D01*
X64811190Y-35615095D02*
X64620714Y-35519857D01*
X64620714Y-35519857D02*
X64239761Y-35424619D01*
X64239761Y-35424619D02*
X64049285Y-35329380D01*
X64049285Y-35329380D02*
X63954047Y-35234142D01*
X63954047Y-35234142D02*
X63858809Y-35043666D01*
X63858809Y-35043666D02*
X63858809Y-34853190D01*
X63858809Y-34853190D02*
X63954047Y-34662714D01*
X63954047Y-34662714D02*
X64049285Y-34567476D01*
X64049285Y-34567476D02*
X64239761Y-34472238D01*
X64239761Y-34472238D02*
X64715952Y-34472238D01*
X64715952Y-34472238D02*
X65001666Y-34567476D01*
X65858809Y-36472238D02*
X65858809Y-34472238D01*
X65858809Y-34472238D02*
X66620714Y-34472238D01*
X66620714Y-34472238D02*
X66811190Y-34567476D01*
X66811190Y-34567476D02*
X66906428Y-34662714D01*
X66906428Y-34662714D02*
X67001666Y-34853190D01*
X67001666Y-34853190D02*
X67001666Y-35138904D01*
X67001666Y-35138904D02*
X66906428Y-35329380D01*
X66906428Y-35329380D02*
X66811190Y-35424619D01*
X66811190Y-35424619D02*
X66620714Y-35519857D01*
X66620714Y-35519857D02*
X65858809Y-35519857D01*
X67668333Y-34472238D02*
X68906428Y-34472238D01*
X68906428Y-34472238D02*
X68239761Y-35234142D01*
X68239761Y-35234142D02*
X68525476Y-35234142D01*
X68525476Y-35234142D02*
X68715952Y-35329380D01*
X68715952Y-35329380D02*
X68811190Y-35424619D01*
X68811190Y-35424619D02*
X68906428Y-35615095D01*
X68906428Y-35615095D02*
X68906428Y-36091285D01*
X68906428Y-36091285D02*
X68811190Y-36281761D01*
X68811190Y-36281761D02*
X68715952Y-36377000D01*
X68715952Y-36377000D02*
X68525476Y-36472238D01*
X68525476Y-36472238D02*
X67954047Y-36472238D01*
X67954047Y-36472238D02*
X67763571Y-36377000D01*
X67763571Y-36377000D02*
X67668333Y-36281761D01*
X69668333Y-34662714D02*
X69763571Y-34567476D01*
X69763571Y-34567476D02*
X69954047Y-34472238D01*
X69954047Y-34472238D02*
X70430238Y-34472238D01*
X70430238Y-34472238D02*
X70620714Y-34567476D01*
X70620714Y-34567476D02*
X70715952Y-34662714D01*
X70715952Y-34662714D02*
X70811190Y-34853190D01*
X70811190Y-34853190D02*
X70811190Y-35043666D01*
X70811190Y-35043666D02*
X70715952Y-35329380D01*
X70715952Y-35329380D02*
X69573095Y-36472238D01*
X69573095Y-36472238D02*
X70811190Y-36472238D01*
X71192143Y-36662714D02*
X72715952Y-36662714D01*
X73192143Y-34472238D02*
X73192143Y-36091285D01*
X73192143Y-36091285D02*
X73287381Y-36281761D01*
X73287381Y-36281761D02*
X73382619Y-36377000D01*
X73382619Y-36377000D02*
X73573095Y-36472238D01*
X73573095Y-36472238D02*
X73954048Y-36472238D01*
X73954048Y-36472238D02*
X74144524Y-36377000D01*
X74144524Y-36377000D02*
X74239762Y-36281761D01*
X74239762Y-36281761D02*
X74335000Y-36091285D01*
X74335000Y-36091285D02*
X74335000Y-34472238D01*
X75096905Y-34472238D02*
X75573095Y-36472238D01*
X75573095Y-36472238D02*
X75954048Y-35043666D01*
X75954048Y-35043666D02*
X76335000Y-36472238D01*
X76335000Y-36472238D02*
X76811191Y-34472238D01*
X78239762Y-35424619D02*
X78525476Y-35519857D01*
X78525476Y-35519857D02*
X78620714Y-35615095D01*
X78620714Y-35615095D02*
X78715952Y-35805571D01*
X78715952Y-35805571D02*
X78715952Y-36091285D01*
X78715952Y-36091285D02*
X78620714Y-36281761D01*
X78620714Y-36281761D02*
X78525476Y-36377000D01*
X78525476Y-36377000D02*
X78335000Y-36472238D01*
X78335000Y-36472238D02*
X77573095Y-36472238D01*
X77573095Y-36472238D02*
X77573095Y-34472238D01*
X77573095Y-34472238D02*
X78239762Y-34472238D01*
X78239762Y-34472238D02*
X78430238Y-34567476D01*
X78430238Y-34567476D02*
X78525476Y-34662714D01*
X78525476Y-34662714D02*
X78620714Y-34853190D01*
X78620714Y-34853190D02*
X78620714Y-35043666D01*
X78620714Y-35043666D02*
X78525476Y-35234142D01*
X78525476Y-35234142D02*
X78430238Y-35329380D01*
X78430238Y-35329380D02*
X78239762Y-35424619D01*
X78239762Y-35424619D02*
X77573095Y-35424619D01*
X80620714Y-36472238D02*
X79477857Y-36472238D01*
X80049285Y-36472238D02*
X80049285Y-34472238D01*
X80049285Y-34472238D02*
X79858809Y-34757952D01*
X79858809Y-34757952D02*
X79668333Y-34948428D01*
X79668333Y-34948428D02*
X79477857Y-35043666D01*
D10*
X38248609Y-39766190D02*
X38248609Y-39432857D01*
X38772419Y-39290000D02*
X38772419Y-39766190D01*
X38772419Y-39766190D02*
X37772419Y-39766190D01*
X37772419Y-39766190D02*
X37772419Y-39290000D01*
X38724800Y-38909047D02*
X38772419Y-38766190D01*
X38772419Y-38766190D02*
X38772419Y-38528095D01*
X38772419Y-38528095D02*
X38724800Y-38432857D01*
X38724800Y-38432857D02*
X38677180Y-38385238D01*
X38677180Y-38385238D02*
X38581942Y-38337619D01*
X38581942Y-38337619D02*
X38486704Y-38337619D01*
X38486704Y-38337619D02*
X38391466Y-38385238D01*
X38391466Y-38385238D02*
X38343847Y-38432857D01*
X38343847Y-38432857D02*
X38296228Y-38528095D01*
X38296228Y-38528095D02*
X38248609Y-38718571D01*
X38248609Y-38718571D02*
X38200990Y-38813809D01*
X38200990Y-38813809D02*
X38153371Y-38861428D01*
X38153371Y-38861428D02*
X38058133Y-38909047D01*
X38058133Y-38909047D02*
X37962895Y-38909047D01*
X37962895Y-38909047D02*
X37867657Y-38861428D01*
X37867657Y-38861428D02*
X37820038Y-38813809D01*
X37820038Y-38813809D02*
X37772419Y-38718571D01*
X37772419Y-38718571D02*
X37772419Y-38480476D01*
X37772419Y-38480476D02*
X37820038Y-38337619D01*
X38772419Y-37909047D02*
X37772419Y-37909047D01*
X37772419Y-37909047D02*
X37772419Y-37528095D01*
X37772419Y-37528095D02*
X37820038Y-37432857D01*
X37820038Y-37432857D02*
X37867657Y-37385238D01*
X37867657Y-37385238D02*
X37962895Y-37337619D01*
X37962895Y-37337619D02*
X38105752Y-37337619D01*
X38105752Y-37337619D02*
X38200990Y-37385238D01*
X38200990Y-37385238D02*
X38248609Y-37432857D01*
X38248609Y-37432857D02*
X38296228Y-37528095D01*
X38296228Y-37528095D02*
X38296228Y-37909047D01*
X37772419Y-37004285D02*
X37772419Y-36385238D01*
X37772419Y-36385238D02*
X38153371Y-36718571D01*
X38153371Y-36718571D02*
X38153371Y-36575714D01*
X38153371Y-36575714D02*
X38200990Y-36480476D01*
X38200990Y-36480476D02*
X38248609Y-36432857D01*
X38248609Y-36432857D02*
X38343847Y-36385238D01*
X38343847Y-36385238D02*
X38581942Y-36385238D01*
X38581942Y-36385238D02*
X38677180Y-36432857D01*
X38677180Y-36432857D02*
X38724800Y-36480476D01*
X38724800Y-36480476D02*
X38772419Y-36575714D01*
X38772419Y-36575714D02*
X38772419Y-36861428D01*
X38772419Y-36861428D02*
X38724800Y-36956666D01*
X38724800Y-36956666D02*
X38677180Y-37004285D01*
X37867657Y-36004285D02*
X37820038Y-35956666D01*
X37820038Y-35956666D02*
X37772419Y-35861428D01*
X37772419Y-35861428D02*
X37772419Y-35623333D01*
X37772419Y-35623333D02*
X37820038Y-35528095D01*
X37820038Y-35528095D02*
X37867657Y-35480476D01*
X37867657Y-35480476D02*
X37962895Y-35432857D01*
X37962895Y-35432857D02*
X38058133Y-35432857D01*
X38058133Y-35432857D02*
X38200990Y-35480476D01*
X38200990Y-35480476D02*
X38772419Y-36051904D01*
X38772419Y-36051904D02*
X38772419Y-35432857D01*
X38486704Y-34289999D02*
X38486704Y-33813809D01*
X38772419Y-34385237D02*
X37772419Y-34051904D01*
X37772419Y-34051904D02*
X38772419Y-33718571D01*
X38105752Y-33385237D02*
X38772419Y-33385237D01*
X38200990Y-33385237D02*
X38153371Y-33337618D01*
X38153371Y-33337618D02*
X38105752Y-33242380D01*
X38105752Y-33242380D02*
X38105752Y-33099523D01*
X38105752Y-33099523D02*
X38153371Y-33004285D01*
X38153371Y-33004285D02*
X38248609Y-32956666D01*
X38248609Y-32956666D02*
X38772419Y-32956666D01*
X38105752Y-32623332D02*
X38105752Y-32242380D01*
X37772419Y-32480475D02*
X38629561Y-32480475D01*
X38629561Y-32480475D02*
X38724800Y-32432856D01*
X38724800Y-32432856D02*
X38772419Y-32337618D01*
X38772419Y-32337618D02*
X38772419Y-32242380D01*
X38724800Y-31528094D02*
X38772419Y-31623332D01*
X38772419Y-31623332D02*
X38772419Y-31813808D01*
X38772419Y-31813808D02*
X38724800Y-31909046D01*
X38724800Y-31909046D02*
X38629561Y-31956665D01*
X38629561Y-31956665D02*
X38248609Y-31956665D01*
X38248609Y-31956665D02*
X38153371Y-31909046D01*
X38153371Y-31909046D02*
X38105752Y-31813808D01*
X38105752Y-31813808D02*
X38105752Y-31623332D01*
X38105752Y-31623332D02*
X38153371Y-31528094D01*
X38153371Y-31528094D02*
X38248609Y-31480475D01*
X38248609Y-31480475D02*
X38343847Y-31480475D01*
X38343847Y-31480475D02*
X38439085Y-31956665D01*
X38105752Y-31051903D02*
X38772419Y-31051903D01*
X38200990Y-31051903D02*
X38153371Y-31004284D01*
X38153371Y-31004284D02*
X38105752Y-30909046D01*
X38105752Y-30909046D02*
X38105752Y-30766189D01*
X38105752Y-30766189D02*
X38153371Y-30670951D01*
X38153371Y-30670951D02*
X38248609Y-30623332D01*
X38248609Y-30623332D02*
X38772419Y-30623332D01*
X38105752Y-30147141D02*
X38772419Y-30147141D01*
X38200990Y-30147141D02*
X38153371Y-30099522D01*
X38153371Y-30099522D02*
X38105752Y-30004284D01*
X38105752Y-30004284D02*
X38105752Y-29861427D01*
X38105752Y-29861427D02*
X38153371Y-29766189D01*
X38153371Y-29766189D02*
X38248609Y-29718570D01*
X38248609Y-29718570D02*
X38772419Y-29718570D01*
X38772419Y-28813808D02*
X38248609Y-28813808D01*
X38248609Y-28813808D02*
X38153371Y-28861427D01*
X38153371Y-28861427D02*
X38105752Y-28956665D01*
X38105752Y-28956665D02*
X38105752Y-29147141D01*
X38105752Y-29147141D02*
X38153371Y-29242379D01*
X38724800Y-28813808D02*
X38772419Y-28909046D01*
X38772419Y-28909046D02*
X38772419Y-29147141D01*
X38772419Y-29147141D02*
X38724800Y-29242379D01*
X38724800Y-29242379D02*
X38629561Y-29289998D01*
X38629561Y-29289998D02*
X38534323Y-29289998D01*
X38534323Y-29289998D02*
X38439085Y-29242379D01*
X38439085Y-29242379D02*
X38391466Y-29147141D01*
X38391466Y-29147141D02*
X38391466Y-28909046D01*
X38391466Y-28909046D02*
X38343847Y-28813808D01*
X75534523Y-22317419D02*
X75534523Y-23126942D01*
X75534523Y-23126942D02*
X75582142Y-23222180D01*
X75582142Y-23222180D02*
X75629761Y-23269800D01*
X75629761Y-23269800D02*
X75724999Y-23317419D01*
X75724999Y-23317419D02*
X75915475Y-23317419D01*
X75915475Y-23317419D02*
X76010713Y-23269800D01*
X76010713Y-23269800D02*
X76058332Y-23222180D01*
X76058332Y-23222180D02*
X76105951Y-23126942D01*
X76105951Y-23126942D02*
X76105951Y-22317419D01*
X76486904Y-22317419D02*
X76724999Y-23317419D01*
X76724999Y-23317419D02*
X76915475Y-22603133D01*
X76915475Y-22603133D02*
X77105951Y-23317419D01*
X77105951Y-23317419D02*
X77344047Y-22317419D01*
X78058332Y-22793609D02*
X78201189Y-22841228D01*
X78201189Y-22841228D02*
X78248808Y-22888847D01*
X78248808Y-22888847D02*
X78296427Y-22984085D01*
X78296427Y-22984085D02*
X78296427Y-23126942D01*
X78296427Y-23126942D02*
X78248808Y-23222180D01*
X78248808Y-23222180D02*
X78201189Y-23269800D01*
X78201189Y-23269800D02*
X78105951Y-23317419D01*
X78105951Y-23317419D02*
X77724999Y-23317419D01*
X77724999Y-23317419D02*
X77724999Y-22317419D01*
X77724999Y-22317419D02*
X78058332Y-22317419D01*
X78058332Y-22317419D02*
X78153570Y-22365038D01*
X78153570Y-22365038D02*
X78201189Y-22412657D01*
X78201189Y-22412657D02*
X78248808Y-22507895D01*
X78248808Y-22507895D02*
X78248808Y-22603133D01*
X78248808Y-22603133D02*
X78201189Y-22698371D01*
X78201189Y-22698371D02*
X78153570Y-22745990D01*
X78153570Y-22745990D02*
X78058332Y-22793609D01*
X78058332Y-22793609D02*
X77724999Y-22793609D01*
X79439285Y-23031704D02*
X79915475Y-23031704D01*
X79344047Y-23317419D02*
X79677380Y-22317419D01*
X79677380Y-22317419D02*
X80010713Y-23317419D01*
X80344047Y-22650752D02*
X80344047Y-23317419D01*
X80344047Y-22745990D02*
X80391666Y-22698371D01*
X80391666Y-22698371D02*
X80486904Y-22650752D01*
X80486904Y-22650752D02*
X80629761Y-22650752D01*
X80629761Y-22650752D02*
X80724999Y-22698371D01*
X80724999Y-22698371D02*
X80772618Y-22793609D01*
X80772618Y-22793609D02*
X80772618Y-23317419D01*
X81105952Y-22650752D02*
X81486904Y-22650752D01*
X81248809Y-22317419D02*
X81248809Y-23174561D01*
X81248809Y-23174561D02*
X81296428Y-23269800D01*
X81296428Y-23269800D02*
X81391666Y-23317419D01*
X81391666Y-23317419D02*
X81486904Y-23317419D01*
X82201190Y-23269800D02*
X82105952Y-23317419D01*
X82105952Y-23317419D02*
X81915476Y-23317419D01*
X81915476Y-23317419D02*
X81820238Y-23269800D01*
X81820238Y-23269800D02*
X81772619Y-23174561D01*
X81772619Y-23174561D02*
X81772619Y-22793609D01*
X81772619Y-22793609D02*
X81820238Y-22698371D01*
X81820238Y-22698371D02*
X81915476Y-22650752D01*
X81915476Y-22650752D02*
X82105952Y-22650752D01*
X82105952Y-22650752D02*
X82201190Y-22698371D01*
X82201190Y-22698371D02*
X82248809Y-22793609D01*
X82248809Y-22793609D02*
X82248809Y-22888847D01*
X82248809Y-22888847D02*
X81772619Y-22984085D01*
X82677381Y-22650752D02*
X82677381Y-23317419D01*
X82677381Y-22745990D02*
X82725000Y-22698371D01*
X82725000Y-22698371D02*
X82820238Y-22650752D01*
X82820238Y-22650752D02*
X82963095Y-22650752D01*
X82963095Y-22650752D02*
X83058333Y-22698371D01*
X83058333Y-22698371D02*
X83105952Y-22793609D01*
X83105952Y-22793609D02*
X83105952Y-23317419D01*
X83582143Y-22650752D02*
X83582143Y-23317419D01*
X83582143Y-22745990D02*
X83629762Y-22698371D01*
X83629762Y-22698371D02*
X83725000Y-22650752D01*
X83725000Y-22650752D02*
X83867857Y-22650752D01*
X83867857Y-22650752D02*
X83963095Y-22698371D01*
X83963095Y-22698371D02*
X84010714Y-22793609D01*
X84010714Y-22793609D02*
X84010714Y-23317419D01*
X84915476Y-23317419D02*
X84915476Y-22793609D01*
X84915476Y-22793609D02*
X84867857Y-22698371D01*
X84867857Y-22698371D02*
X84772619Y-22650752D01*
X84772619Y-22650752D02*
X84582143Y-22650752D01*
X84582143Y-22650752D02*
X84486905Y-22698371D01*
X84915476Y-23269800D02*
X84820238Y-23317419D01*
X84820238Y-23317419D02*
X84582143Y-23317419D01*
X84582143Y-23317419D02*
X84486905Y-23269800D01*
X84486905Y-23269800D02*
X84439286Y-23174561D01*
X84439286Y-23174561D02*
X84439286Y-23079323D01*
X84439286Y-23079323D02*
X84486905Y-22984085D01*
X84486905Y-22984085D02*
X84582143Y-22936466D01*
X84582143Y-22936466D02*
X84820238Y-22936466D01*
X84820238Y-22936466D02*
X84915476Y-22888847D01*
X104363095Y-33747419D02*
X104363095Y-34556942D01*
X104363095Y-34556942D02*
X104410714Y-34652180D01*
X104410714Y-34652180D02*
X104458333Y-34699800D01*
X104458333Y-34699800D02*
X104553571Y-34747419D01*
X104553571Y-34747419D02*
X104744047Y-34747419D01*
X104744047Y-34747419D02*
X104839285Y-34699800D01*
X104839285Y-34699800D02*
X104886904Y-34652180D01*
X104886904Y-34652180D02*
X104934523Y-34556942D01*
X104934523Y-34556942D02*
X104934523Y-33747419D01*
X105363095Y-34699800D02*
X105505952Y-34747419D01*
X105505952Y-34747419D02*
X105744047Y-34747419D01*
X105744047Y-34747419D02*
X105839285Y-34699800D01*
X105839285Y-34699800D02*
X105886904Y-34652180D01*
X105886904Y-34652180D02*
X105934523Y-34556942D01*
X105934523Y-34556942D02*
X105934523Y-34461704D01*
X105934523Y-34461704D02*
X105886904Y-34366466D01*
X105886904Y-34366466D02*
X105839285Y-34318847D01*
X105839285Y-34318847D02*
X105744047Y-34271228D01*
X105744047Y-34271228D02*
X105553571Y-34223609D01*
X105553571Y-34223609D02*
X105458333Y-34175990D01*
X105458333Y-34175990D02*
X105410714Y-34128371D01*
X105410714Y-34128371D02*
X105363095Y-34033133D01*
X105363095Y-34033133D02*
X105363095Y-33937895D01*
X105363095Y-33937895D02*
X105410714Y-33842657D01*
X105410714Y-33842657D02*
X105458333Y-33795038D01*
X105458333Y-33795038D02*
X105553571Y-33747419D01*
X105553571Y-33747419D02*
X105791666Y-33747419D01*
X105791666Y-33747419D02*
X105934523Y-33795038D01*
X106696428Y-34223609D02*
X106839285Y-34271228D01*
X106839285Y-34271228D02*
X106886904Y-34318847D01*
X106886904Y-34318847D02*
X106934523Y-34414085D01*
X106934523Y-34414085D02*
X106934523Y-34556942D01*
X106934523Y-34556942D02*
X106886904Y-34652180D01*
X106886904Y-34652180D02*
X106839285Y-34699800D01*
X106839285Y-34699800D02*
X106744047Y-34747419D01*
X106744047Y-34747419D02*
X106363095Y-34747419D01*
X106363095Y-34747419D02*
X106363095Y-33747419D01*
X106363095Y-33747419D02*
X106696428Y-33747419D01*
X106696428Y-33747419D02*
X106791666Y-33795038D01*
X106791666Y-33795038D02*
X106839285Y-33842657D01*
X106839285Y-33842657D02*
X106886904Y-33937895D01*
X106886904Y-33937895D02*
X106886904Y-34033133D01*
X106886904Y-34033133D02*
X106839285Y-34128371D01*
X106839285Y-34128371D02*
X106791666Y-34175990D01*
X106791666Y-34175990D02*
X106696428Y-34223609D01*
X106696428Y-34223609D02*
X106363095Y-34223609D01*
X26022419Y-43657144D02*
X26022419Y-44133334D01*
X26022419Y-44133334D02*
X26498609Y-44180953D01*
X26498609Y-44180953D02*
X26450990Y-44133334D01*
X26450990Y-44133334D02*
X26403371Y-44038096D01*
X26403371Y-44038096D02*
X26403371Y-43800001D01*
X26403371Y-43800001D02*
X26450990Y-43704763D01*
X26450990Y-43704763D02*
X26498609Y-43657144D01*
X26498609Y-43657144D02*
X26593847Y-43609525D01*
X26593847Y-43609525D02*
X26831942Y-43609525D01*
X26831942Y-43609525D02*
X26927180Y-43657144D01*
X26927180Y-43657144D02*
X26974800Y-43704763D01*
X26974800Y-43704763D02*
X27022419Y-43800001D01*
X27022419Y-43800001D02*
X27022419Y-44038096D01*
X27022419Y-44038096D02*
X26974800Y-44133334D01*
X26974800Y-44133334D02*
X26927180Y-44180953D01*
X26022419Y-43323810D02*
X27022419Y-42990477D01*
X27022419Y-42990477D02*
X26022419Y-42657144D01*
X27117657Y-42561906D02*
X27117657Y-41800001D01*
X27022419Y-41561905D02*
X26022419Y-41561905D01*
X26022419Y-41561905D02*
X26022419Y-41323810D01*
X26022419Y-41323810D02*
X26070038Y-41180953D01*
X26070038Y-41180953D02*
X26165276Y-41085715D01*
X26165276Y-41085715D02*
X26260514Y-41038096D01*
X26260514Y-41038096D02*
X26450990Y-40990477D01*
X26450990Y-40990477D02*
X26593847Y-40990477D01*
X26593847Y-40990477D02*
X26784323Y-41038096D01*
X26784323Y-41038096D02*
X26879561Y-41085715D01*
X26879561Y-41085715D02*
X26974800Y-41180953D01*
X26974800Y-41180953D02*
X27022419Y-41323810D01*
X27022419Y-41323810D02*
X27022419Y-41561905D01*
X26927180Y-39990477D02*
X26974800Y-40038096D01*
X26974800Y-40038096D02*
X27022419Y-40180953D01*
X27022419Y-40180953D02*
X27022419Y-40276191D01*
X27022419Y-40276191D02*
X26974800Y-40419048D01*
X26974800Y-40419048D02*
X26879561Y-40514286D01*
X26879561Y-40514286D02*
X26784323Y-40561905D01*
X26784323Y-40561905D02*
X26593847Y-40609524D01*
X26593847Y-40609524D02*
X26450990Y-40609524D01*
X26450990Y-40609524D02*
X26260514Y-40561905D01*
X26260514Y-40561905D02*
X26165276Y-40514286D01*
X26165276Y-40514286D02*
X26070038Y-40419048D01*
X26070038Y-40419048D02*
X26022419Y-40276191D01*
X26022419Y-40276191D02*
X26022419Y-40180953D01*
X26022419Y-40180953D02*
X26070038Y-40038096D01*
X26070038Y-40038096D02*
X26117657Y-39990477D01*
X27117657Y-39800001D02*
X27117657Y-39038096D01*
X27022419Y-38800000D02*
X26022419Y-38800000D01*
X26022419Y-38800000D02*
X26022419Y-38561905D01*
X26022419Y-38561905D02*
X26070038Y-38419048D01*
X26070038Y-38419048D02*
X26165276Y-38323810D01*
X26165276Y-38323810D02*
X26260514Y-38276191D01*
X26260514Y-38276191D02*
X26450990Y-38228572D01*
X26450990Y-38228572D02*
X26593847Y-38228572D01*
X26593847Y-38228572D02*
X26784323Y-38276191D01*
X26784323Y-38276191D02*
X26879561Y-38323810D01*
X26879561Y-38323810D02*
X26974800Y-38419048D01*
X26974800Y-38419048D02*
X27022419Y-38561905D01*
X27022419Y-38561905D02*
X27022419Y-38800000D01*
X26927180Y-37228572D02*
X26974800Y-37276191D01*
X26974800Y-37276191D02*
X27022419Y-37419048D01*
X27022419Y-37419048D02*
X27022419Y-37514286D01*
X27022419Y-37514286D02*
X26974800Y-37657143D01*
X26974800Y-37657143D02*
X26879561Y-37752381D01*
X26879561Y-37752381D02*
X26784323Y-37800000D01*
X26784323Y-37800000D02*
X26593847Y-37847619D01*
X26593847Y-37847619D02*
X26450990Y-37847619D01*
X26450990Y-37847619D02*
X26260514Y-37800000D01*
X26260514Y-37800000D02*
X26165276Y-37752381D01*
X26165276Y-37752381D02*
X26070038Y-37657143D01*
X26070038Y-37657143D02*
X26022419Y-37514286D01*
X26022419Y-37514286D02*
X26022419Y-37419048D01*
X26022419Y-37419048D02*
X26070038Y-37276191D01*
X26070038Y-37276191D02*
X26117657Y-37228572D01*
X27117657Y-37038096D02*
X27117657Y-36276191D01*
X26927180Y-35466667D02*
X26974800Y-35514286D01*
X26974800Y-35514286D02*
X27022419Y-35657143D01*
X27022419Y-35657143D02*
X27022419Y-35752381D01*
X27022419Y-35752381D02*
X26974800Y-35895238D01*
X26974800Y-35895238D02*
X26879561Y-35990476D01*
X26879561Y-35990476D02*
X26784323Y-36038095D01*
X26784323Y-36038095D02*
X26593847Y-36085714D01*
X26593847Y-36085714D02*
X26450990Y-36085714D01*
X26450990Y-36085714D02*
X26260514Y-36038095D01*
X26260514Y-36038095D02*
X26165276Y-35990476D01*
X26165276Y-35990476D02*
X26070038Y-35895238D01*
X26070038Y-35895238D02*
X26022419Y-35752381D01*
X26022419Y-35752381D02*
X26022419Y-35657143D01*
X26022419Y-35657143D02*
X26070038Y-35514286D01*
X26070038Y-35514286D02*
X26117657Y-35466667D01*
X27022419Y-34895238D02*
X26974800Y-34990476D01*
X26974800Y-34990476D02*
X26927180Y-35038095D01*
X26927180Y-35038095D02*
X26831942Y-35085714D01*
X26831942Y-35085714D02*
X26546228Y-35085714D01*
X26546228Y-35085714D02*
X26450990Y-35038095D01*
X26450990Y-35038095D02*
X26403371Y-34990476D01*
X26403371Y-34990476D02*
X26355752Y-34895238D01*
X26355752Y-34895238D02*
X26355752Y-34752381D01*
X26355752Y-34752381D02*
X26403371Y-34657143D01*
X26403371Y-34657143D02*
X26450990Y-34609524D01*
X26450990Y-34609524D02*
X26546228Y-34561905D01*
X26546228Y-34561905D02*
X26831942Y-34561905D01*
X26831942Y-34561905D02*
X26927180Y-34609524D01*
X26927180Y-34609524D02*
X26974800Y-34657143D01*
X26974800Y-34657143D02*
X27022419Y-34752381D01*
X27022419Y-34752381D02*
X27022419Y-34895238D01*
X26355752Y-34133333D02*
X27022419Y-34133333D01*
X26450990Y-34133333D02*
X26403371Y-34085714D01*
X26403371Y-34085714D02*
X26355752Y-33990476D01*
X26355752Y-33990476D02*
X26355752Y-33847619D01*
X26355752Y-33847619D02*
X26403371Y-33752381D01*
X26403371Y-33752381D02*
X26498609Y-33704762D01*
X26498609Y-33704762D02*
X27022419Y-33704762D01*
X26355752Y-33323809D02*
X27022419Y-33085714D01*
X27022419Y-33085714D02*
X26355752Y-32847619D01*
X26974800Y-32085714D02*
X27022419Y-32180952D01*
X27022419Y-32180952D02*
X27022419Y-32371428D01*
X27022419Y-32371428D02*
X26974800Y-32466666D01*
X26974800Y-32466666D02*
X26879561Y-32514285D01*
X26879561Y-32514285D02*
X26498609Y-32514285D01*
X26498609Y-32514285D02*
X26403371Y-32466666D01*
X26403371Y-32466666D02*
X26355752Y-32371428D01*
X26355752Y-32371428D02*
X26355752Y-32180952D01*
X26355752Y-32180952D02*
X26403371Y-32085714D01*
X26403371Y-32085714D02*
X26498609Y-32038095D01*
X26498609Y-32038095D02*
X26593847Y-32038095D01*
X26593847Y-32038095D02*
X26689085Y-32514285D01*
X27022419Y-31609523D02*
X26355752Y-31609523D01*
X26546228Y-31609523D02*
X26450990Y-31561904D01*
X26450990Y-31561904D02*
X26403371Y-31514285D01*
X26403371Y-31514285D02*
X26355752Y-31419047D01*
X26355752Y-31419047D02*
X26355752Y-31323809D01*
X26355752Y-31133332D02*
X26355752Y-30752380D01*
X26022419Y-30990475D02*
X26879561Y-30990475D01*
X26879561Y-30990475D02*
X26974800Y-30942856D01*
X26974800Y-30942856D02*
X27022419Y-30847618D01*
X27022419Y-30847618D02*
X27022419Y-30752380D01*
X26974800Y-30038094D02*
X27022419Y-30133332D01*
X27022419Y-30133332D02*
X27022419Y-30323808D01*
X27022419Y-30323808D02*
X26974800Y-30419046D01*
X26974800Y-30419046D02*
X26879561Y-30466665D01*
X26879561Y-30466665D02*
X26498609Y-30466665D01*
X26498609Y-30466665D02*
X26403371Y-30419046D01*
X26403371Y-30419046D02*
X26355752Y-30323808D01*
X26355752Y-30323808D02*
X26355752Y-30133332D01*
X26355752Y-30133332D02*
X26403371Y-30038094D01*
X26403371Y-30038094D02*
X26498609Y-29990475D01*
X26498609Y-29990475D02*
X26593847Y-29990475D01*
X26593847Y-29990475D02*
X26689085Y-30466665D01*
X27022419Y-29561903D02*
X26355752Y-29561903D01*
X26546228Y-29561903D02*
X26450990Y-29514284D01*
X26450990Y-29514284D02*
X26403371Y-29466665D01*
X26403371Y-29466665D02*
X26355752Y-29371427D01*
X26355752Y-29371427D02*
X26355752Y-29276189D01*
X27022419Y-28419046D02*
X27022419Y-28990474D01*
X27022419Y-28704760D02*
X26022419Y-28704760D01*
X26022419Y-28704760D02*
X26165276Y-28799998D01*
X26165276Y-28799998D02*
X26260514Y-28895236D01*
X26260514Y-28895236D02*
X26308133Y-28990474D01*
X27801466Y-23925788D02*
X27801466Y-23163884D01*
D13*
X27905440Y-46642070D02*
X27929250Y-46665879D01*
X27929250Y-46665879D02*
X27953059Y-46737308D01*
X27953059Y-46737308D02*
X27953059Y-46784927D01*
X27953059Y-46784927D02*
X27929250Y-46856355D01*
X27929250Y-46856355D02*
X27881630Y-46903974D01*
X27881630Y-46903974D02*
X27834011Y-46927784D01*
X27834011Y-46927784D02*
X27738773Y-46951593D01*
X27738773Y-46951593D02*
X27667345Y-46951593D01*
X27667345Y-46951593D02*
X27572107Y-46927784D01*
X27572107Y-46927784D02*
X27524488Y-46903974D01*
X27524488Y-46903974D02*
X27476869Y-46856355D01*
X27476869Y-46856355D02*
X27453059Y-46784927D01*
X27453059Y-46784927D02*
X27453059Y-46737308D01*
X27453059Y-46737308D02*
X27476869Y-46665879D01*
X27476869Y-46665879D02*
X27500678Y-46642070D01*
X27453059Y-46499212D02*
X27453059Y-46213498D01*
X27953059Y-46356355D02*
X27453059Y-46356355D01*
X27953059Y-45808737D02*
X27953059Y-46046832D01*
X27953059Y-46046832D02*
X27453059Y-46046832D01*
D10*
X25261466Y-46785788D02*
X25261466Y-46023884D01*
X25642419Y-46404836D02*
X24880514Y-46404836D01*
X22517419Y-48783808D02*
X21517419Y-48783808D01*
X22517419Y-48307618D02*
X21517419Y-48307618D01*
X21517419Y-48307618D02*
X22517419Y-47736190D01*
X22517419Y-47736190D02*
X21517419Y-47736190D01*
X25261466Y-23925788D02*
X25261466Y-23163884D01*
X25642419Y-23544836D02*
X24880514Y-23544836D01*
X21517419Y-26399999D02*
X21517419Y-26209523D01*
X21517419Y-26209523D02*
X21565038Y-26114285D01*
X21565038Y-26114285D02*
X21660276Y-26019047D01*
X21660276Y-26019047D02*
X21850752Y-25971428D01*
X21850752Y-25971428D02*
X22184085Y-25971428D01*
X22184085Y-25971428D02*
X22374561Y-26019047D01*
X22374561Y-26019047D02*
X22469800Y-26114285D01*
X22469800Y-26114285D02*
X22517419Y-26209523D01*
X22517419Y-26209523D02*
X22517419Y-26399999D01*
X22517419Y-26399999D02*
X22469800Y-26495237D01*
X22469800Y-26495237D02*
X22374561Y-26590475D01*
X22374561Y-26590475D02*
X22184085Y-26638094D01*
X22184085Y-26638094D02*
X21850752Y-26638094D01*
X21850752Y-26638094D02*
X21660276Y-26590475D01*
X21660276Y-26590475D02*
X21565038Y-26495237D01*
X21565038Y-26495237D02*
X21517419Y-26399999D01*
X21517419Y-25542856D02*
X22326942Y-25542856D01*
X22326942Y-25542856D02*
X22422180Y-25495237D01*
X22422180Y-25495237D02*
X22469800Y-25447618D01*
X22469800Y-25447618D02*
X22517419Y-25352380D01*
X22517419Y-25352380D02*
X22517419Y-25161904D01*
X22517419Y-25161904D02*
X22469800Y-25066666D01*
X22469800Y-25066666D02*
X22422180Y-25019047D01*
X22422180Y-25019047D02*
X22326942Y-24971428D01*
X22326942Y-24971428D02*
X21517419Y-24971428D01*
X21517419Y-24638094D02*
X21517419Y-24066666D01*
X22517419Y-24352380D02*
X21517419Y-24352380D01*
X30341466Y-46785788D02*
X30341466Y-46023884D01*
D13*
X53110290Y-55999297D02*
X52872195Y-56165963D01*
X53110290Y-56285011D02*
X52610290Y-56285011D01*
X52610290Y-56285011D02*
X52610290Y-56094535D01*
X52610290Y-56094535D02*
X52634100Y-56046916D01*
X52634100Y-56046916D02*
X52657909Y-56023106D01*
X52657909Y-56023106D02*
X52705528Y-55999297D01*
X52705528Y-55999297D02*
X52776957Y-55999297D01*
X52776957Y-55999297D02*
X52824576Y-56023106D01*
X52824576Y-56023106D02*
X52848385Y-56046916D01*
X52848385Y-56046916D02*
X52872195Y-56094535D01*
X52872195Y-56094535D02*
X52872195Y-56285011D01*
X53110290Y-55523106D02*
X53110290Y-55808820D01*
X53110290Y-55665963D02*
X52610290Y-55665963D01*
X52610290Y-55665963D02*
X52681719Y-55713582D01*
X52681719Y-55713582D02*
X52729338Y-55761201D01*
X52729338Y-55761201D02*
X52753147Y-55808820D01*
X53783059Y-56510951D02*
X53783059Y-56796665D01*
X53783059Y-56653808D02*
X53283059Y-56653808D01*
X53283059Y-56653808D02*
X53354488Y-56701427D01*
X53354488Y-56701427D02*
X53402107Y-56749046D01*
X53402107Y-56749046D02*
X53425916Y-56796665D01*
X53283059Y-56201428D02*
X53283059Y-56153809D01*
X53283059Y-56153809D02*
X53306869Y-56106190D01*
X53306869Y-56106190D02*
X53330678Y-56082380D01*
X53330678Y-56082380D02*
X53378297Y-56058571D01*
X53378297Y-56058571D02*
X53473535Y-56034761D01*
X53473535Y-56034761D02*
X53592583Y-56034761D01*
X53592583Y-56034761D02*
X53687821Y-56058571D01*
X53687821Y-56058571D02*
X53735440Y-56082380D01*
X53735440Y-56082380D02*
X53759250Y-56106190D01*
X53759250Y-56106190D02*
X53783059Y-56153809D01*
X53783059Y-56153809D02*
X53783059Y-56201428D01*
X53783059Y-56201428D02*
X53759250Y-56249047D01*
X53759250Y-56249047D02*
X53735440Y-56272856D01*
X53735440Y-56272856D02*
X53687821Y-56296666D01*
X53687821Y-56296666D02*
X53592583Y-56320475D01*
X53592583Y-56320475D02*
X53473535Y-56320475D01*
X53473535Y-56320475D02*
X53378297Y-56296666D01*
X53378297Y-56296666D02*
X53330678Y-56272856D01*
X53330678Y-56272856D02*
X53306869Y-56249047D01*
X53306869Y-56249047D02*
X53283059Y-56201428D01*
X53783059Y-55820476D02*
X53283059Y-55820476D01*
X53783059Y-55534762D02*
X53497345Y-55749047D01*
X53283059Y-55534762D02*
X53568773Y-55820476D01*
X53783059Y-55344285D02*
X53783059Y-55225238D01*
X53783059Y-55225238D02*
X53687821Y-55225238D01*
X53687821Y-55225238D02*
X53664011Y-55272857D01*
X53664011Y-55272857D02*
X53616392Y-55320476D01*
X53616392Y-55320476D02*
X53544964Y-55344285D01*
X53544964Y-55344285D02*
X53425916Y-55344285D01*
X53425916Y-55344285D02*
X53354488Y-55320476D01*
X53354488Y-55320476D02*
X53306869Y-55272857D01*
X53306869Y-55272857D02*
X53283059Y-55201428D01*
X53283059Y-55201428D02*
X53283059Y-55106190D01*
X53283059Y-55106190D02*
X53306869Y-55034762D01*
X53306869Y-55034762D02*
X53354488Y-54987143D01*
X53354488Y-54987143D02*
X53425916Y-54963333D01*
X53425916Y-54963333D02*
X53544964Y-54963333D01*
X53544964Y-54963333D02*
X53616392Y-54987143D01*
X53616392Y-54987143D02*
X53664011Y-55034762D01*
X53664011Y-55034762D02*
X53687821Y-55082381D01*
X53687821Y-55082381D02*
X53783059Y-55082381D01*
X53783059Y-55082381D02*
X53783059Y-54963333D01*
X43006428Y-52473410D02*
X42839762Y-52235315D01*
X42720714Y-52473410D02*
X42720714Y-51973410D01*
X42720714Y-51973410D02*
X42911190Y-51973410D01*
X42911190Y-51973410D02*
X42958809Y-51997220D01*
X42958809Y-51997220D02*
X42982619Y-52021029D01*
X42982619Y-52021029D02*
X43006428Y-52068648D01*
X43006428Y-52068648D02*
X43006428Y-52140077D01*
X43006428Y-52140077D02*
X42982619Y-52187696D01*
X42982619Y-52187696D02*
X42958809Y-52211505D01*
X42958809Y-52211505D02*
X42911190Y-52235315D01*
X42911190Y-52235315D02*
X42720714Y-52235315D01*
X43482619Y-51997220D02*
X43435000Y-51973410D01*
X43435000Y-51973410D02*
X43363571Y-51973410D01*
X43363571Y-51973410D02*
X43292143Y-51997220D01*
X43292143Y-51997220D02*
X43244524Y-52044839D01*
X43244524Y-52044839D02*
X43220714Y-52092458D01*
X43220714Y-52092458D02*
X43196905Y-52187696D01*
X43196905Y-52187696D02*
X43196905Y-52259124D01*
X43196905Y-52259124D02*
X43220714Y-52354362D01*
X43220714Y-52354362D02*
X43244524Y-52401981D01*
X43244524Y-52401981D02*
X43292143Y-52449601D01*
X43292143Y-52449601D02*
X43363571Y-52473410D01*
X43363571Y-52473410D02*
X43411190Y-52473410D01*
X43411190Y-52473410D02*
X43482619Y-52449601D01*
X43482619Y-52449601D02*
X43506428Y-52425791D01*
X43506428Y-52425791D02*
X43506428Y-52259124D01*
X43506428Y-52259124D02*
X43411190Y-52259124D01*
X43887381Y-52211505D02*
X43958809Y-52235315D01*
X43958809Y-52235315D02*
X43982619Y-52259124D01*
X43982619Y-52259124D02*
X44006428Y-52306743D01*
X44006428Y-52306743D02*
X44006428Y-52378172D01*
X44006428Y-52378172D02*
X43982619Y-52425791D01*
X43982619Y-52425791D02*
X43958809Y-52449601D01*
X43958809Y-52449601D02*
X43911190Y-52473410D01*
X43911190Y-52473410D02*
X43720714Y-52473410D01*
X43720714Y-52473410D02*
X43720714Y-51973410D01*
X43720714Y-51973410D02*
X43887381Y-51973410D01*
X43887381Y-51973410D02*
X43935000Y-51997220D01*
X43935000Y-51997220D02*
X43958809Y-52021029D01*
X43958809Y-52021029D02*
X43982619Y-52068648D01*
X43982619Y-52068648D02*
X43982619Y-52116267D01*
X43982619Y-52116267D02*
X43958809Y-52163886D01*
X43958809Y-52163886D02*
X43935000Y-52187696D01*
X43935000Y-52187696D02*
X43887381Y-52211505D01*
X43887381Y-52211505D02*
X43720714Y-52211505D01*
X44101667Y-52521029D02*
X44482619Y-52521029D01*
X44839761Y-52473410D02*
X44601666Y-52473410D01*
X44601666Y-52473410D02*
X44601666Y-51973410D01*
X45006428Y-52211505D02*
X45173095Y-52211505D01*
X45244523Y-52473410D02*
X45006428Y-52473410D01*
X45006428Y-52473410D02*
X45006428Y-51973410D01*
X45006428Y-51973410D02*
X45244523Y-51973410D01*
X45458809Y-52473410D02*
X45458809Y-51973410D01*
X45458809Y-51973410D02*
X45577857Y-51973410D01*
X45577857Y-51973410D02*
X45649285Y-51997220D01*
X45649285Y-51997220D02*
X45696904Y-52044839D01*
X45696904Y-52044839D02*
X45720714Y-52092458D01*
X45720714Y-52092458D02*
X45744523Y-52187696D01*
X45744523Y-52187696D02*
X45744523Y-52259124D01*
X45744523Y-52259124D02*
X45720714Y-52354362D01*
X45720714Y-52354362D02*
X45696904Y-52401981D01*
X45696904Y-52401981D02*
X45649285Y-52449601D01*
X45649285Y-52449601D02*
X45577857Y-52473410D01*
X45577857Y-52473410D02*
X45458809Y-52473410D01*
X45839762Y-52521029D02*
X46220714Y-52521029D01*
X46625475Y-52473410D02*
X46458809Y-52235315D01*
X46339761Y-52473410D02*
X46339761Y-51973410D01*
X46339761Y-51973410D02*
X46530237Y-51973410D01*
X46530237Y-51973410D02*
X46577856Y-51997220D01*
X46577856Y-51997220D02*
X46601666Y-52021029D01*
X46601666Y-52021029D02*
X46625475Y-52068648D01*
X46625475Y-52068648D02*
X46625475Y-52140077D01*
X46625475Y-52140077D02*
X46601666Y-52187696D01*
X46601666Y-52187696D02*
X46577856Y-52211505D01*
X46577856Y-52211505D02*
X46530237Y-52235315D01*
X46530237Y-52235315D02*
X46339761Y-52235315D01*
X46934999Y-51973410D02*
X47030237Y-51973410D01*
X47030237Y-51973410D02*
X47077856Y-51997220D01*
X47077856Y-51997220D02*
X47125475Y-52044839D01*
X47125475Y-52044839D02*
X47149285Y-52140077D01*
X47149285Y-52140077D02*
X47149285Y-52306743D01*
X47149285Y-52306743D02*
X47125475Y-52401981D01*
X47125475Y-52401981D02*
X47077856Y-52449601D01*
X47077856Y-52449601D02*
X47030237Y-52473410D01*
X47030237Y-52473410D02*
X46934999Y-52473410D01*
X46934999Y-52473410D02*
X46887380Y-52449601D01*
X46887380Y-52449601D02*
X46839761Y-52401981D01*
X46839761Y-52401981D02*
X46815952Y-52306743D01*
X46815952Y-52306743D02*
X46815952Y-52140077D01*
X46815952Y-52140077D02*
X46839761Y-52044839D01*
X46839761Y-52044839D02*
X46887380Y-51997220D01*
X46887380Y-51997220D02*
X46934999Y-51973410D01*
X47363571Y-51973410D02*
X47363571Y-52378172D01*
X47363571Y-52378172D02*
X47387381Y-52425791D01*
X47387381Y-52425791D02*
X47411190Y-52449601D01*
X47411190Y-52449601D02*
X47458809Y-52473410D01*
X47458809Y-52473410D02*
X47554047Y-52473410D01*
X47554047Y-52473410D02*
X47601666Y-52449601D01*
X47601666Y-52449601D02*
X47625476Y-52425791D01*
X47625476Y-52425791D02*
X47649285Y-52378172D01*
X47649285Y-52378172D02*
X47649285Y-51973410D01*
X47887381Y-52473410D02*
X47887381Y-51973410D01*
X47887381Y-51973410D02*
X48173095Y-52473410D01*
X48173095Y-52473410D02*
X48173095Y-51973410D01*
X48411191Y-52473410D02*
X48411191Y-51973410D01*
X48411191Y-51973410D02*
X48530239Y-51973410D01*
X48530239Y-51973410D02*
X48601667Y-51997220D01*
X48601667Y-51997220D02*
X48649286Y-52044839D01*
X48649286Y-52044839D02*
X48673096Y-52092458D01*
X48673096Y-52092458D02*
X48696905Y-52187696D01*
X48696905Y-52187696D02*
X48696905Y-52259124D01*
X48696905Y-52259124D02*
X48673096Y-52354362D01*
X48673096Y-52354362D02*
X48649286Y-52401981D01*
X48649286Y-52401981D02*
X48601667Y-52449601D01*
X48601667Y-52449601D02*
X48530239Y-52473410D01*
X48530239Y-52473410D02*
X48411191Y-52473410D01*
X49173096Y-52473410D02*
X48887382Y-52473410D01*
X49030239Y-52473410D02*
X49030239Y-51973410D01*
X49030239Y-51973410D02*
X48982620Y-52044839D01*
X48982620Y-52044839D02*
X48935001Y-52092458D01*
X48935001Y-52092458D02*
X48887382Y-52116267D01*
D14*
X39875964Y-59629999D02*
X39947392Y-59415713D01*
X39947392Y-59415713D02*
X40018821Y-59344284D01*
X40018821Y-59344284D02*
X40161678Y-59272856D01*
X40161678Y-59272856D02*
X40375964Y-59272856D01*
X40375964Y-59272856D02*
X40518821Y-59344284D01*
X40518821Y-59344284D02*
X40590250Y-59415713D01*
X40590250Y-59415713D02*
X40661678Y-59558570D01*
X40661678Y-59558570D02*
X40661678Y-60129999D01*
X40661678Y-60129999D02*
X39161678Y-60129999D01*
X39161678Y-60129999D02*
X39161678Y-59629999D01*
X39161678Y-59629999D02*
X39233107Y-59487142D01*
X39233107Y-59487142D02*
X39304535Y-59415713D01*
X39304535Y-59415713D02*
X39447392Y-59344284D01*
X39447392Y-59344284D02*
X39590250Y-59344284D01*
X39590250Y-59344284D02*
X39733107Y-59415713D01*
X39733107Y-59415713D02*
X39804535Y-59487142D01*
X39804535Y-59487142D02*
X39875964Y-59629999D01*
X39875964Y-59629999D02*
X39875964Y-60129999D01*
X40233107Y-58701427D02*
X40233107Y-57987142D01*
X40661678Y-58844284D02*
X39161678Y-58344284D01*
X39161678Y-58344284D02*
X40661678Y-57844284D01*
X39161678Y-57558570D02*
X39161678Y-56701428D01*
X40661678Y-57129999D02*
X39161678Y-57129999D01*
X39161678Y-56415713D02*
X39161678Y-55558571D01*
X40661678Y-55987142D02*
X39161678Y-55987142D01*
X39875964Y-55058571D02*
X39875964Y-54558571D01*
X40661678Y-54344285D02*
X40661678Y-55058571D01*
X40661678Y-55058571D02*
X39161678Y-55058571D01*
X39161678Y-55058571D02*
X39161678Y-54344285D01*
X40661678Y-52844285D02*
X39947392Y-53344285D01*
X40661678Y-53701428D02*
X39161678Y-53701428D01*
X39161678Y-53701428D02*
X39161678Y-53129999D01*
X39161678Y-53129999D02*
X39233107Y-52987142D01*
X39233107Y-52987142D02*
X39304535Y-52915713D01*
X39304535Y-52915713D02*
X39447392Y-52844285D01*
X39447392Y-52844285D02*
X39661678Y-52844285D01*
X39661678Y-52844285D02*
X39804535Y-52915713D01*
X39804535Y-52915713D02*
X39875964Y-52987142D01*
X39875964Y-52987142D02*
X39947392Y-53129999D01*
X39947392Y-53129999D02*
X39947392Y-53701428D01*
X39947392Y-51915713D02*
X40661678Y-51915713D01*
X39161678Y-52415713D02*
X39947392Y-51915713D01*
X39947392Y-51915713D02*
X39161678Y-51415713D01*
D13*
X42279761Y-57378059D02*
X42113095Y-57139964D01*
X41994047Y-57378059D02*
X41994047Y-56878059D01*
X41994047Y-56878059D02*
X42184523Y-56878059D01*
X42184523Y-56878059D02*
X42232142Y-56901869D01*
X42232142Y-56901869D02*
X42255952Y-56925678D01*
X42255952Y-56925678D02*
X42279761Y-56973297D01*
X42279761Y-56973297D02*
X42279761Y-57044726D01*
X42279761Y-57044726D02*
X42255952Y-57092345D01*
X42255952Y-57092345D02*
X42232142Y-57116154D01*
X42232142Y-57116154D02*
X42184523Y-57139964D01*
X42184523Y-57139964D02*
X41994047Y-57139964D01*
X47335952Y-56901869D02*
X47288333Y-56878059D01*
X47288333Y-56878059D02*
X47216904Y-56878059D01*
X47216904Y-56878059D02*
X47145476Y-56901869D01*
X47145476Y-56901869D02*
X47097857Y-56949488D01*
X47097857Y-56949488D02*
X47074047Y-56997107D01*
X47074047Y-56997107D02*
X47050238Y-57092345D01*
X47050238Y-57092345D02*
X47050238Y-57163773D01*
X47050238Y-57163773D02*
X47074047Y-57259011D01*
X47074047Y-57259011D02*
X47097857Y-57306630D01*
X47097857Y-57306630D02*
X47145476Y-57354250D01*
X47145476Y-57354250D02*
X47216904Y-57378059D01*
X47216904Y-57378059D02*
X47264523Y-57378059D01*
X47264523Y-57378059D02*
X47335952Y-57354250D01*
X47335952Y-57354250D02*
X47359761Y-57330440D01*
X47359761Y-57330440D02*
X47359761Y-57163773D01*
X47359761Y-57163773D02*
X47264523Y-57163773D01*
X49780714Y-57116154D02*
X49852142Y-57139964D01*
X49852142Y-57139964D02*
X49875952Y-57163773D01*
X49875952Y-57163773D02*
X49899761Y-57211392D01*
X49899761Y-57211392D02*
X49899761Y-57282821D01*
X49899761Y-57282821D02*
X49875952Y-57330440D01*
X49875952Y-57330440D02*
X49852142Y-57354250D01*
X49852142Y-57354250D02*
X49804523Y-57378059D01*
X49804523Y-57378059D02*
X49614047Y-57378059D01*
X49614047Y-57378059D02*
X49614047Y-56878059D01*
X49614047Y-56878059D02*
X49780714Y-56878059D01*
X49780714Y-56878059D02*
X49828333Y-56901869D01*
X49828333Y-56901869D02*
X49852142Y-56925678D01*
X49852142Y-56925678D02*
X49875952Y-56973297D01*
X49875952Y-56973297D02*
X49875952Y-57020916D01*
X49875952Y-57020916D02*
X49852142Y-57068535D01*
X49852142Y-57068535D02*
X49828333Y-57092345D01*
X49828333Y-57092345D02*
X49780714Y-57116154D01*
X49780714Y-57116154D02*
X49614047Y-57116154D01*
X43998334Y-56878059D02*
X44165000Y-57378059D01*
X44165000Y-57378059D02*
X44331667Y-56878059D01*
X44784047Y-57330440D02*
X44760238Y-57354250D01*
X44760238Y-57354250D02*
X44688809Y-57378059D01*
X44688809Y-57378059D02*
X44641190Y-57378059D01*
X44641190Y-57378059D02*
X44569762Y-57354250D01*
X44569762Y-57354250D02*
X44522143Y-57306630D01*
X44522143Y-57306630D02*
X44498333Y-57259011D01*
X44498333Y-57259011D02*
X44474524Y-57163773D01*
X44474524Y-57163773D02*
X44474524Y-57092345D01*
X44474524Y-57092345D02*
X44498333Y-56997107D01*
X44498333Y-56997107D02*
X44522143Y-56949488D01*
X44522143Y-56949488D02*
X44569762Y-56901869D01*
X44569762Y-56901869D02*
X44641190Y-56878059D01*
X44641190Y-56878059D02*
X44688809Y-56878059D01*
X44688809Y-56878059D02*
X44760238Y-56901869D01*
X44760238Y-56901869D02*
X44784047Y-56925678D01*
X45284047Y-57330440D02*
X45260238Y-57354250D01*
X45260238Y-57354250D02*
X45188809Y-57378059D01*
X45188809Y-57378059D02*
X45141190Y-57378059D01*
X45141190Y-57378059D02*
X45069762Y-57354250D01*
X45069762Y-57354250D02*
X45022143Y-57306630D01*
X45022143Y-57306630D02*
X44998333Y-57259011D01*
X44998333Y-57259011D02*
X44974524Y-57163773D01*
X44974524Y-57163773D02*
X44974524Y-57092345D01*
X44974524Y-57092345D02*
X44998333Y-56997107D01*
X44998333Y-56997107D02*
X45022143Y-56949488D01*
X45022143Y-56949488D02*
X45069762Y-56901869D01*
X45069762Y-56901869D02*
X45141190Y-56878059D01*
X45141190Y-56878059D02*
X45188809Y-56878059D01*
X45188809Y-56878059D02*
X45260238Y-56901869D01*
X45260238Y-56901869D02*
X45284047Y-56925678D01*
X55650290Y-55999297D02*
X55412195Y-56165963D01*
X55650290Y-56285011D02*
X55150290Y-56285011D01*
X55150290Y-56285011D02*
X55150290Y-56094535D01*
X55150290Y-56094535D02*
X55174100Y-56046916D01*
X55174100Y-56046916D02*
X55197909Y-56023106D01*
X55197909Y-56023106D02*
X55245528Y-55999297D01*
X55245528Y-55999297D02*
X55316957Y-55999297D01*
X55316957Y-55999297D02*
X55364576Y-56023106D01*
X55364576Y-56023106D02*
X55388385Y-56046916D01*
X55388385Y-56046916D02*
X55412195Y-56094535D01*
X55412195Y-56094535D02*
X55412195Y-56285011D01*
X55197909Y-55808820D02*
X55174100Y-55785011D01*
X55174100Y-55785011D02*
X55150290Y-55737392D01*
X55150290Y-55737392D02*
X55150290Y-55618344D01*
X55150290Y-55618344D02*
X55174100Y-55570725D01*
X55174100Y-55570725D02*
X55197909Y-55546916D01*
X55197909Y-55546916D02*
X55245528Y-55523106D01*
X55245528Y-55523106D02*
X55293147Y-55523106D01*
X55293147Y-55523106D02*
X55364576Y-55546916D01*
X55364576Y-55546916D02*
X55650290Y-55832630D01*
X55650290Y-55832630D02*
X55650290Y-55523106D01*
X56323059Y-56510951D02*
X56323059Y-56796665D01*
X56323059Y-56653808D02*
X55823059Y-56653808D01*
X55823059Y-56653808D02*
X55894488Y-56701427D01*
X55894488Y-56701427D02*
X55942107Y-56749046D01*
X55942107Y-56749046D02*
X55965916Y-56796665D01*
X55823059Y-56201428D02*
X55823059Y-56153809D01*
X55823059Y-56153809D02*
X55846869Y-56106190D01*
X55846869Y-56106190D02*
X55870678Y-56082380D01*
X55870678Y-56082380D02*
X55918297Y-56058571D01*
X55918297Y-56058571D02*
X56013535Y-56034761D01*
X56013535Y-56034761D02*
X56132583Y-56034761D01*
X56132583Y-56034761D02*
X56227821Y-56058571D01*
X56227821Y-56058571D02*
X56275440Y-56082380D01*
X56275440Y-56082380D02*
X56299250Y-56106190D01*
X56299250Y-56106190D02*
X56323059Y-56153809D01*
X56323059Y-56153809D02*
X56323059Y-56201428D01*
X56323059Y-56201428D02*
X56299250Y-56249047D01*
X56299250Y-56249047D02*
X56275440Y-56272856D01*
X56275440Y-56272856D02*
X56227821Y-56296666D01*
X56227821Y-56296666D02*
X56132583Y-56320475D01*
X56132583Y-56320475D02*
X56013535Y-56320475D01*
X56013535Y-56320475D02*
X55918297Y-56296666D01*
X55918297Y-56296666D02*
X55870678Y-56272856D01*
X55870678Y-56272856D02*
X55846869Y-56249047D01*
X55846869Y-56249047D02*
X55823059Y-56201428D01*
X56323059Y-55820476D02*
X55823059Y-55820476D01*
X56323059Y-55534762D02*
X56037345Y-55749047D01*
X55823059Y-55534762D02*
X56108773Y-55820476D01*
X56323059Y-55344285D02*
X56323059Y-55225238D01*
X56323059Y-55225238D02*
X56227821Y-55225238D01*
X56227821Y-55225238D02*
X56204011Y-55272857D01*
X56204011Y-55272857D02*
X56156392Y-55320476D01*
X56156392Y-55320476D02*
X56084964Y-55344285D01*
X56084964Y-55344285D02*
X55965916Y-55344285D01*
X55965916Y-55344285D02*
X55894488Y-55320476D01*
X55894488Y-55320476D02*
X55846869Y-55272857D01*
X55846869Y-55272857D02*
X55823059Y-55201428D01*
X55823059Y-55201428D02*
X55823059Y-55106190D01*
X55823059Y-55106190D02*
X55846869Y-55034762D01*
X55846869Y-55034762D02*
X55894488Y-54987143D01*
X55894488Y-54987143D02*
X55965916Y-54963333D01*
X55965916Y-54963333D02*
X56084964Y-54963333D01*
X56084964Y-54963333D02*
X56156392Y-54987143D01*
X56156392Y-54987143D02*
X56204011Y-55034762D01*
X56204011Y-55034762D02*
X56227821Y-55082381D01*
X56227821Y-55082381D02*
X56323059Y-55082381D01*
X56323059Y-55082381D02*
X56323059Y-54963333D01*
X60730290Y-55999297D02*
X60492195Y-56165963D01*
X60730290Y-56285011D02*
X60230290Y-56285011D01*
X60230290Y-56285011D02*
X60230290Y-56094535D01*
X60230290Y-56094535D02*
X60254100Y-56046916D01*
X60254100Y-56046916D02*
X60277909Y-56023106D01*
X60277909Y-56023106D02*
X60325528Y-55999297D01*
X60325528Y-55999297D02*
X60396957Y-55999297D01*
X60396957Y-55999297D02*
X60444576Y-56023106D01*
X60444576Y-56023106D02*
X60468385Y-56046916D01*
X60468385Y-56046916D02*
X60492195Y-56094535D01*
X60492195Y-56094535D02*
X60492195Y-56285011D01*
X60396957Y-55570725D02*
X60730290Y-55570725D01*
X60206481Y-55689773D02*
X60563623Y-55808820D01*
X60563623Y-55808820D02*
X60563623Y-55499297D01*
X61403059Y-56510951D02*
X61403059Y-56796665D01*
X61403059Y-56653808D02*
X60903059Y-56653808D01*
X60903059Y-56653808D02*
X60974488Y-56701427D01*
X60974488Y-56701427D02*
X61022107Y-56749046D01*
X61022107Y-56749046D02*
X61045916Y-56796665D01*
X60903059Y-56201428D02*
X60903059Y-56153809D01*
X60903059Y-56153809D02*
X60926869Y-56106190D01*
X60926869Y-56106190D02*
X60950678Y-56082380D01*
X60950678Y-56082380D02*
X60998297Y-56058571D01*
X60998297Y-56058571D02*
X61093535Y-56034761D01*
X61093535Y-56034761D02*
X61212583Y-56034761D01*
X61212583Y-56034761D02*
X61307821Y-56058571D01*
X61307821Y-56058571D02*
X61355440Y-56082380D01*
X61355440Y-56082380D02*
X61379250Y-56106190D01*
X61379250Y-56106190D02*
X61403059Y-56153809D01*
X61403059Y-56153809D02*
X61403059Y-56201428D01*
X61403059Y-56201428D02*
X61379250Y-56249047D01*
X61379250Y-56249047D02*
X61355440Y-56272856D01*
X61355440Y-56272856D02*
X61307821Y-56296666D01*
X61307821Y-56296666D02*
X61212583Y-56320475D01*
X61212583Y-56320475D02*
X61093535Y-56320475D01*
X61093535Y-56320475D02*
X60998297Y-56296666D01*
X60998297Y-56296666D02*
X60950678Y-56272856D01*
X60950678Y-56272856D02*
X60926869Y-56249047D01*
X60926869Y-56249047D02*
X60903059Y-56201428D01*
X61403059Y-55820476D02*
X60903059Y-55820476D01*
X61403059Y-55534762D02*
X61117345Y-55749047D01*
X60903059Y-55534762D02*
X61188773Y-55820476D01*
X61403059Y-55344285D02*
X61403059Y-55225238D01*
X61403059Y-55225238D02*
X61307821Y-55225238D01*
X61307821Y-55225238D02*
X61284011Y-55272857D01*
X61284011Y-55272857D02*
X61236392Y-55320476D01*
X61236392Y-55320476D02*
X61164964Y-55344285D01*
X61164964Y-55344285D02*
X61045916Y-55344285D01*
X61045916Y-55344285D02*
X60974488Y-55320476D01*
X60974488Y-55320476D02*
X60926869Y-55272857D01*
X60926869Y-55272857D02*
X60903059Y-55201428D01*
X60903059Y-55201428D02*
X60903059Y-55106190D01*
X60903059Y-55106190D02*
X60926869Y-55034762D01*
X60926869Y-55034762D02*
X60974488Y-54987143D01*
X60974488Y-54987143D02*
X61045916Y-54963333D01*
X61045916Y-54963333D02*
X61164964Y-54963333D01*
X61164964Y-54963333D02*
X61236392Y-54987143D01*
X61236392Y-54987143D02*
X61284011Y-55034762D01*
X61284011Y-55034762D02*
X61307821Y-55082381D01*
X61307821Y-55082381D02*
X61403059Y-55082381D01*
X61403059Y-55082381D02*
X61403059Y-54963333D01*
X65866428Y-52473410D02*
X65699762Y-52235315D01*
X65580714Y-52473410D02*
X65580714Y-51973410D01*
X65580714Y-51973410D02*
X65771190Y-51973410D01*
X65771190Y-51973410D02*
X65818809Y-51997220D01*
X65818809Y-51997220D02*
X65842619Y-52021029D01*
X65842619Y-52021029D02*
X65866428Y-52068648D01*
X65866428Y-52068648D02*
X65866428Y-52140077D01*
X65866428Y-52140077D02*
X65842619Y-52187696D01*
X65842619Y-52187696D02*
X65818809Y-52211505D01*
X65818809Y-52211505D02*
X65771190Y-52235315D01*
X65771190Y-52235315D02*
X65580714Y-52235315D01*
X66342619Y-51997220D02*
X66295000Y-51973410D01*
X66295000Y-51973410D02*
X66223571Y-51973410D01*
X66223571Y-51973410D02*
X66152143Y-51997220D01*
X66152143Y-51997220D02*
X66104524Y-52044839D01*
X66104524Y-52044839D02*
X66080714Y-52092458D01*
X66080714Y-52092458D02*
X66056905Y-52187696D01*
X66056905Y-52187696D02*
X66056905Y-52259124D01*
X66056905Y-52259124D02*
X66080714Y-52354362D01*
X66080714Y-52354362D02*
X66104524Y-52401981D01*
X66104524Y-52401981D02*
X66152143Y-52449601D01*
X66152143Y-52449601D02*
X66223571Y-52473410D01*
X66223571Y-52473410D02*
X66271190Y-52473410D01*
X66271190Y-52473410D02*
X66342619Y-52449601D01*
X66342619Y-52449601D02*
X66366428Y-52425791D01*
X66366428Y-52425791D02*
X66366428Y-52259124D01*
X66366428Y-52259124D02*
X66271190Y-52259124D01*
X66747381Y-52211505D02*
X66818809Y-52235315D01*
X66818809Y-52235315D02*
X66842619Y-52259124D01*
X66842619Y-52259124D02*
X66866428Y-52306743D01*
X66866428Y-52306743D02*
X66866428Y-52378172D01*
X66866428Y-52378172D02*
X66842619Y-52425791D01*
X66842619Y-52425791D02*
X66818809Y-52449601D01*
X66818809Y-52449601D02*
X66771190Y-52473410D01*
X66771190Y-52473410D02*
X66580714Y-52473410D01*
X66580714Y-52473410D02*
X66580714Y-51973410D01*
X66580714Y-51973410D02*
X66747381Y-51973410D01*
X66747381Y-51973410D02*
X66795000Y-51997220D01*
X66795000Y-51997220D02*
X66818809Y-52021029D01*
X66818809Y-52021029D02*
X66842619Y-52068648D01*
X66842619Y-52068648D02*
X66842619Y-52116267D01*
X66842619Y-52116267D02*
X66818809Y-52163886D01*
X66818809Y-52163886D02*
X66795000Y-52187696D01*
X66795000Y-52187696D02*
X66747381Y-52211505D01*
X66747381Y-52211505D02*
X66580714Y-52211505D01*
X66961667Y-52521029D02*
X67342619Y-52521029D01*
X67699761Y-52473410D02*
X67461666Y-52473410D01*
X67461666Y-52473410D02*
X67461666Y-51973410D01*
X67866428Y-52211505D02*
X68033095Y-52211505D01*
X68104523Y-52473410D02*
X67866428Y-52473410D01*
X67866428Y-52473410D02*
X67866428Y-51973410D01*
X67866428Y-51973410D02*
X68104523Y-51973410D01*
X68318809Y-52473410D02*
X68318809Y-51973410D01*
X68318809Y-51973410D02*
X68437857Y-51973410D01*
X68437857Y-51973410D02*
X68509285Y-51997220D01*
X68509285Y-51997220D02*
X68556904Y-52044839D01*
X68556904Y-52044839D02*
X68580714Y-52092458D01*
X68580714Y-52092458D02*
X68604523Y-52187696D01*
X68604523Y-52187696D02*
X68604523Y-52259124D01*
X68604523Y-52259124D02*
X68580714Y-52354362D01*
X68580714Y-52354362D02*
X68556904Y-52401981D01*
X68556904Y-52401981D02*
X68509285Y-52449601D01*
X68509285Y-52449601D02*
X68437857Y-52473410D01*
X68437857Y-52473410D02*
X68318809Y-52473410D01*
X68699762Y-52521029D02*
X69080714Y-52521029D01*
X69485475Y-52473410D02*
X69318809Y-52235315D01*
X69199761Y-52473410D02*
X69199761Y-51973410D01*
X69199761Y-51973410D02*
X69390237Y-51973410D01*
X69390237Y-51973410D02*
X69437856Y-51997220D01*
X69437856Y-51997220D02*
X69461666Y-52021029D01*
X69461666Y-52021029D02*
X69485475Y-52068648D01*
X69485475Y-52068648D02*
X69485475Y-52140077D01*
X69485475Y-52140077D02*
X69461666Y-52187696D01*
X69461666Y-52187696D02*
X69437856Y-52211505D01*
X69437856Y-52211505D02*
X69390237Y-52235315D01*
X69390237Y-52235315D02*
X69199761Y-52235315D01*
X69794999Y-51973410D02*
X69890237Y-51973410D01*
X69890237Y-51973410D02*
X69937856Y-51997220D01*
X69937856Y-51997220D02*
X69985475Y-52044839D01*
X69985475Y-52044839D02*
X70009285Y-52140077D01*
X70009285Y-52140077D02*
X70009285Y-52306743D01*
X70009285Y-52306743D02*
X69985475Y-52401981D01*
X69985475Y-52401981D02*
X69937856Y-52449601D01*
X69937856Y-52449601D02*
X69890237Y-52473410D01*
X69890237Y-52473410D02*
X69794999Y-52473410D01*
X69794999Y-52473410D02*
X69747380Y-52449601D01*
X69747380Y-52449601D02*
X69699761Y-52401981D01*
X69699761Y-52401981D02*
X69675952Y-52306743D01*
X69675952Y-52306743D02*
X69675952Y-52140077D01*
X69675952Y-52140077D02*
X69699761Y-52044839D01*
X69699761Y-52044839D02*
X69747380Y-51997220D01*
X69747380Y-51997220D02*
X69794999Y-51973410D01*
X70223571Y-51973410D02*
X70223571Y-52378172D01*
X70223571Y-52378172D02*
X70247381Y-52425791D01*
X70247381Y-52425791D02*
X70271190Y-52449601D01*
X70271190Y-52449601D02*
X70318809Y-52473410D01*
X70318809Y-52473410D02*
X70414047Y-52473410D01*
X70414047Y-52473410D02*
X70461666Y-52449601D01*
X70461666Y-52449601D02*
X70485476Y-52425791D01*
X70485476Y-52425791D02*
X70509285Y-52378172D01*
X70509285Y-52378172D02*
X70509285Y-51973410D01*
X70747381Y-52473410D02*
X70747381Y-51973410D01*
X70747381Y-51973410D02*
X71033095Y-52473410D01*
X71033095Y-52473410D02*
X71033095Y-51973410D01*
X71271191Y-52473410D02*
X71271191Y-51973410D01*
X71271191Y-51973410D02*
X71390239Y-51973410D01*
X71390239Y-51973410D02*
X71461667Y-51997220D01*
X71461667Y-51997220D02*
X71509286Y-52044839D01*
X71509286Y-52044839D02*
X71533096Y-52092458D01*
X71533096Y-52092458D02*
X71556905Y-52187696D01*
X71556905Y-52187696D02*
X71556905Y-52259124D01*
X71556905Y-52259124D02*
X71533096Y-52354362D01*
X71533096Y-52354362D02*
X71509286Y-52401981D01*
X71509286Y-52401981D02*
X71461667Y-52449601D01*
X71461667Y-52449601D02*
X71390239Y-52473410D01*
X71390239Y-52473410D02*
X71271191Y-52473410D01*
X71747382Y-52021029D02*
X71771191Y-51997220D01*
X71771191Y-51997220D02*
X71818810Y-51973410D01*
X71818810Y-51973410D02*
X71937858Y-51973410D01*
X71937858Y-51973410D02*
X71985477Y-51997220D01*
X71985477Y-51997220D02*
X72009286Y-52021029D01*
X72009286Y-52021029D02*
X72033096Y-52068648D01*
X72033096Y-52068648D02*
X72033096Y-52116267D01*
X72033096Y-52116267D02*
X72009286Y-52187696D01*
X72009286Y-52187696D02*
X71723572Y-52473410D01*
X71723572Y-52473410D02*
X72033096Y-52473410D01*
D14*
X76150250Y-60022856D02*
X76221678Y-59808571D01*
X76221678Y-59808571D02*
X76221678Y-59451428D01*
X76221678Y-59451428D02*
X76150250Y-59308571D01*
X76150250Y-59308571D02*
X76078821Y-59237142D01*
X76078821Y-59237142D02*
X75935964Y-59165713D01*
X75935964Y-59165713D02*
X75793107Y-59165713D01*
X75793107Y-59165713D02*
X75650250Y-59237142D01*
X75650250Y-59237142D02*
X75578821Y-59308571D01*
X75578821Y-59308571D02*
X75507392Y-59451428D01*
X75507392Y-59451428D02*
X75435964Y-59737142D01*
X75435964Y-59737142D02*
X75364535Y-59879999D01*
X75364535Y-59879999D02*
X75293107Y-59951428D01*
X75293107Y-59951428D02*
X75150250Y-60022856D01*
X75150250Y-60022856D02*
X75007392Y-60022856D01*
X75007392Y-60022856D02*
X74864535Y-59951428D01*
X74864535Y-59951428D02*
X74793107Y-59879999D01*
X74793107Y-59879999D02*
X74721678Y-59737142D01*
X74721678Y-59737142D02*
X74721678Y-59379999D01*
X74721678Y-59379999D02*
X74793107Y-59165713D01*
X75435964Y-58522857D02*
X75435964Y-58022857D01*
X76221678Y-57808571D02*
X76221678Y-58522857D01*
X76221678Y-58522857D02*
X74721678Y-58522857D01*
X74721678Y-58522857D02*
X74721678Y-57808571D01*
X76221678Y-57165714D02*
X74721678Y-57165714D01*
X74721678Y-57165714D02*
X76221678Y-56308571D01*
X76221678Y-56308571D02*
X74721678Y-56308571D01*
X76150250Y-55665713D02*
X76221678Y-55451428D01*
X76221678Y-55451428D02*
X76221678Y-55094285D01*
X76221678Y-55094285D02*
X76150250Y-54951428D01*
X76150250Y-54951428D02*
X76078821Y-54879999D01*
X76078821Y-54879999D02*
X75935964Y-54808570D01*
X75935964Y-54808570D02*
X75793107Y-54808570D01*
X75793107Y-54808570D02*
X75650250Y-54879999D01*
X75650250Y-54879999D02*
X75578821Y-54951428D01*
X75578821Y-54951428D02*
X75507392Y-55094285D01*
X75507392Y-55094285D02*
X75435964Y-55379999D01*
X75435964Y-55379999D02*
X75364535Y-55522856D01*
X75364535Y-55522856D02*
X75293107Y-55594285D01*
X75293107Y-55594285D02*
X75150250Y-55665713D01*
X75150250Y-55665713D02*
X75007392Y-55665713D01*
X75007392Y-55665713D02*
X74864535Y-55594285D01*
X74864535Y-55594285D02*
X74793107Y-55522856D01*
X74793107Y-55522856D02*
X74721678Y-55379999D01*
X74721678Y-55379999D02*
X74721678Y-55022856D01*
X74721678Y-55022856D02*
X74793107Y-54808570D01*
X74721678Y-53879999D02*
X74721678Y-53594285D01*
X74721678Y-53594285D02*
X74793107Y-53451428D01*
X74793107Y-53451428D02*
X74935964Y-53308571D01*
X74935964Y-53308571D02*
X75221678Y-53237142D01*
X75221678Y-53237142D02*
X75721678Y-53237142D01*
X75721678Y-53237142D02*
X76007392Y-53308571D01*
X76007392Y-53308571D02*
X76150250Y-53451428D01*
X76150250Y-53451428D02*
X76221678Y-53594285D01*
X76221678Y-53594285D02*
X76221678Y-53879999D01*
X76221678Y-53879999D02*
X76150250Y-54022857D01*
X76150250Y-54022857D02*
X76007392Y-54165714D01*
X76007392Y-54165714D02*
X75721678Y-54237142D01*
X75721678Y-54237142D02*
X75221678Y-54237142D01*
X75221678Y-54237142D02*
X74935964Y-54165714D01*
X74935964Y-54165714D02*
X74793107Y-54022857D01*
X74793107Y-54022857D02*
X74721678Y-53879999D01*
X76221678Y-51737142D02*
X75507392Y-52237142D01*
X76221678Y-52594285D02*
X74721678Y-52594285D01*
X74721678Y-52594285D02*
X74721678Y-52022856D01*
X74721678Y-52022856D02*
X74793107Y-51879999D01*
X74793107Y-51879999D02*
X74864535Y-51808570D01*
X74864535Y-51808570D02*
X75007392Y-51737142D01*
X75007392Y-51737142D02*
X75221678Y-51737142D01*
X75221678Y-51737142D02*
X75364535Y-51808570D01*
X75364535Y-51808570D02*
X75435964Y-51879999D01*
X75435964Y-51879999D02*
X75507392Y-52022856D01*
X75507392Y-52022856D02*
X75507392Y-52594285D01*
D13*
X72640714Y-57116154D02*
X72712142Y-57139964D01*
X72712142Y-57139964D02*
X72735952Y-57163773D01*
X72735952Y-57163773D02*
X72759761Y-57211392D01*
X72759761Y-57211392D02*
X72759761Y-57282821D01*
X72759761Y-57282821D02*
X72735952Y-57330440D01*
X72735952Y-57330440D02*
X72712142Y-57354250D01*
X72712142Y-57354250D02*
X72664523Y-57378059D01*
X72664523Y-57378059D02*
X72474047Y-57378059D01*
X72474047Y-57378059D02*
X72474047Y-56878059D01*
X72474047Y-56878059D02*
X72640714Y-56878059D01*
X72640714Y-56878059D02*
X72688333Y-56901869D01*
X72688333Y-56901869D02*
X72712142Y-56925678D01*
X72712142Y-56925678D02*
X72735952Y-56973297D01*
X72735952Y-56973297D02*
X72735952Y-57020916D01*
X72735952Y-57020916D02*
X72712142Y-57068535D01*
X72712142Y-57068535D02*
X72688333Y-57092345D01*
X72688333Y-57092345D02*
X72640714Y-57116154D01*
X72640714Y-57116154D02*
X72474047Y-57116154D01*
X70195952Y-56901869D02*
X70148333Y-56878059D01*
X70148333Y-56878059D02*
X70076904Y-56878059D01*
X70076904Y-56878059D02*
X70005476Y-56901869D01*
X70005476Y-56901869D02*
X69957857Y-56949488D01*
X69957857Y-56949488D02*
X69934047Y-56997107D01*
X69934047Y-56997107D02*
X69910238Y-57092345D01*
X69910238Y-57092345D02*
X69910238Y-57163773D01*
X69910238Y-57163773D02*
X69934047Y-57259011D01*
X69934047Y-57259011D02*
X69957857Y-57306630D01*
X69957857Y-57306630D02*
X70005476Y-57354250D01*
X70005476Y-57354250D02*
X70076904Y-57378059D01*
X70076904Y-57378059D02*
X70124523Y-57378059D01*
X70124523Y-57378059D02*
X70195952Y-57354250D01*
X70195952Y-57354250D02*
X70219761Y-57330440D01*
X70219761Y-57330440D02*
X70219761Y-57163773D01*
X70219761Y-57163773D02*
X70124523Y-57163773D01*
X66858334Y-56878059D02*
X67025000Y-57378059D01*
X67025000Y-57378059D02*
X67191667Y-56878059D01*
X67644047Y-57330440D02*
X67620238Y-57354250D01*
X67620238Y-57354250D02*
X67548809Y-57378059D01*
X67548809Y-57378059D02*
X67501190Y-57378059D01*
X67501190Y-57378059D02*
X67429762Y-57354250D01*
X67429762Y-57354250D02*
X67382143Y-57306630D01*
X67382143Y-57306630D02*
X67358333Y-57259011D01*
X67358333Y-57259011D02*
X67334524Y-57163773D01*
X67334524Y-57163773D02*
X67334524Y-57092345D01*
X67334524Y-57092345D02*
X67358333Y-56997107D01*
X67358333Y-56997107D02*
X67382143Y-56949488D01*
X67382143Y-56949488D02*
X67429762Y-56901869D01*
X67429762Y-56901869D02*
X67501190Y-56878059D01*
X67501190Y-56878059D02*
X67548809Y-56878059D01*
X67548809Y-56878059D02*
X67620238Y-56901869D01*
X67620238Y-56901869D02*
X67644047Y-56925678D01*
X68144047Y-57330440D02*
X68120238Y-57354250D01*
X68120238Y-57354250D02*
X68048809Y-57378059D01*
X68048809Y-57378059D02*
X68001190Y-57378059D01*
X68001190Y-57378059D02*
X67929762Y-57354250D01*
X67929762Y-57354250D02*
X67882143Y-57306630D01*
X67882143Y-57306630D02*
X67858333Y-57259011D01*
X67858333Y-57259011D02*
X67834524Y-57163773D01*
X67834524Y-57163773D02*
X67834524Y-57092345D01*
X67834524Y-57092345D02*
X67858333Y-56997107D01*
X67858333Y-56997107D02*
X67882143Y-56949488D01*
X67882143Y-56949488D02*
X67929762Y-56901869D01*
X67929762Y-56901869D02*
X68001190Y-56878059D01*
X68001190Y-56878059D02*
X68048809Y-56878059D01*
X68048809Y-56878059D02*
X68120238Y-56901869D01*
X68120238Y-56901869D02*
X68144047Y-56925678D01*
X65139761Y-57378059D02*
X64973095Y-57139964D01*
X64854047Y-57378059D02*
X64854047Y-56878059D01*
X64854047Y-56878059D02*
X65044523Y-56878059D01*
X65044523Y-56878059D02*
X65092142Y-56901869D01*
X65092142Y-56901869D02*
X65115952Y-56925678D01*
X65115952Y-56925678D02*
X65139761Y-56973297D01*
X65139761Y-56973297D02*
X65139761Y-57044726D01*
X65139761Y-57044726D02*
X65115952Y-57092345D01*
X65115952Y-57092345D02*
X65092142Y-57116154D01*
X65092142Y-57116154D02*
X65044523Y-57139964D01*
X65044523Y-57139964D02*
X64854047Y-57139964D01*
X58190290Y-55999297D02*
X57952195Y-56165963D01*
X58190290Y-56285011D02*
X57690290Y-56285011D01*
X57690290Y-56285011D02*
X57690290Y-56094535D01*
X57690290Y-56094535D02*
X57714100Y-56046916D01*
X57714100Y-56046916D02*
X57737909Y-56023106D01*
X57737909Y-56023106D02*
X57785528Y-55999297D01*
X57785528Y-55999297D02*
X57856957Y-55999297D01*
X57856957Y-55999297D02*
X57904576Y-56023106D01*
X57904576Y-56023106D02*
X57928385Y-56046916D01*
X57928385Y-56046916D02*
X57952195Y-56094535D01*
X57952195Y-56094535D02*
X57952195Y-56285011D01*
X57690290Y-55832630D02*
X57690290Y-55523106D01*
X57690290Y-55523106D02*
X57880766Y-55689773D01*
X57880766Y-55689773D02*
X57880766Y-55618344D01*
X57880766Y-55618344D02*
X57904576Y-55570725D01*
X57904576Y-55570725D02*
X57928385Y-55546916D01*
X57928385Y-55546916D02*
X57976004Y-55523106D01*
X57976004Y-55523106D02*
X58095052Y-55523106D01*
X58095052Y-55523106D02*
X58142671Y-55546916D01*
X58142671Y-55546916D02*
X58166481Y-55570725D01*
X58166481Y-55570725D02*
X58190290Y-55618344D01*
X58190290Y-55618344D02*
X58190290Y-55761201D01*
X58190290Y-55761201D02*
X58166481Y-55808820D01*
X58166481Y-55808820D02*
X58142671Y-55832630D01*
X58863059Y-56510951D02*
X58863059Y-56796665D01*
X58863059Y-56653808D02*
X58363059Y-56653808D01*
X58363059Y-56653808D02*
X58434488Y-56701427D01*
X58434488Y-56701427D02*
X58482107Y-56749046D01*
X58482107Y-56749046D02*
X58505916Y-56796665D01*
X58363059Y-56201428D02*
X58363059Y-56153809D01*
X58363059Y-56153809D02*
X58386869Y-56106190D01*
X58386869Y-56106190D02*
X58410678Y-56082380D01*
X58410678Y-56082380D02*
X58458297Y-56058571D01*
X58458297Y-56058571D02*
X58553535Y-56034761D01*
X58553535Y-56034761D02*
X58672583Y-56034761D01*
X58672583Y-56034761D02*
X58767821Y-56058571D01*
X58767821Y-56058571D02*
X58815440Y-56082380D01*
X58815440Y-56082380D02*
X58839250Y-56106190D01*
X58839250Y-56106190D02*
X58863059Y-56153809D01*
X58863059Y-56153809D02*
X58863059Y-56201428D01*
X58863059Y-56201428D02*
X58839250Y-56249047D01*
X58839250Y-56249047D02*
X58815440Y-56272856D01*
X58815440Y-56272856D02*
X58767821Y-56296666D01*
X58767821Y-56296666D02*
X58672583Y-56320475D01*
X58672583Y-56320475D02*
X58553535Y-56320475D01*
X58553535Y-56320475D02*
X58458297Y-56296666D01*
X58458297Y-56296666D02*
X58410678Y-56272856D01*
X58410678Y-56272856D02*
X58386869Y-56249047D01*
X58386869Y-56249047D02*
X58363059Y-56201428D01*
X58863059Y-55820476D02*
X58363059Y-55820476D01*
X58863059Y-55534762D02*
X58577345Y-55749047D01*
X58363059Y-55534762D02*
X58648773Y-55820476D01*
X58863059Y-55344285D02*
X58863059Y-55225238D01*
X58863059Y-55225238D02*
X58767821Y-55225238D01*
X58767821Y-55225238D02*
X58744011Y-55272857D01*
X58744011Y-55272857D02*
X58696392Y-55320476D01*
X58696392Y-55320476D02*
X58624964Y-55344285D01*
X58624964Y-55344285D02*
X58505916Y-55344285D01*
X58505916Y-55344285D02*
X58434488Y-55320476D01*
X58434488Y-55320476D02*
X58386869Y-55272857D01*
X58386869Y-55272857D02*
X58363059Y-55201428D01*
X58363059Y-55201428D02*
X58363059Y-55106190D01*
X58363059Y-55106190D02*
X58386869Y-55034762D01*
X58386869Y-55034762D02*
X58434488Y-54987143D01*
X58434488Y-54987143D02*
X58505916Y-54963333D01*
X58505916Y-54963333D02*
X58624964Y-54963333D01*
X58624964Y-54963333D02*
X58696392Y-54987143D01*
X58696392Y-54987143D02*
X58744011Y-55034762D01*
X58744011Y-55034762D02*
X58767821Y-55082381D01*
X58767821Y-55082381D02*
X58863059Y-55082381D01*
X58863059Y-55082381D02*
X58863059Y-54963333D01*
X86130290Y-55999297D02*
X85892195Y-56165963D01*
X86130290Y-56285011D02*
X85630290Y-56285011D01*
X85630290Y-56285011D02*
X85630290Y-56094535D01*
X85630290Y-56094535D02*
X85654100Y-56046916D01*
X85654100Y-56046916D02*
X85677909Y-56023106D01*
X85677909Y-56023106D02*
X85725528Y-55999297D01*
X85725528Y-55999297D02*
X85796957Y-55999297D01*
X85796957Y-55999297D02*
X85844576Y-56023106D01*
X85844576Y-56023106D02*
X85868385Y-56046916D01*
X85868385Y-56046916D02*
X85892195Y-56094535D01*
X85892195Y-56094535D02*
X85892195Y-56285011D01*
X85630290Y-55570725D02*
X85630290Y-55665963D01*
X85630290Y-55665963D02*
X85654100Y-55713582D01*
X85654100Y-55713582D02*
X85677909Y-55737392D01*
X85677909Y-55737392D02*
X85749338Y-55785011D01*
X85749338Y-55785011D02*
X85844576Y-55808820D01*
X85844576Y-55808820D02*
X86035052Y-55808820D01*
X86035052Y-55808820D02*
X86082671Y-55785011D01*
X86082671Y-55785011D02*
X86106481Y-55761201D01*
X86106481Y-55761201D02*
X86130290Y-55713582D01*
X86130290Y-55713582D02*
X86130290Y-55618344D01*
X86130290Y-55618344D02*
X86106481Y-55570725D01*
X86106481Y-55570725D02*
X86082671Y-55546916D01*
X86082671Y-55546916D02*
X86035052Y-55523106D01*
X86035052Y-55523106D02*
X85916004Y-55523106D01*
X85916004Y-55523106D02*
X85868385Y-55546916D01*
X85868385Y-55546916D02*
X85844576Y-55570725D01*
X85844576Y-55570725D02*
X85820766Y-55618344D01*
X85820766Y-55618344D02*
X85820766Y-55713582D01*
X85820766Y-55713582D02*
X85844576Y-55761201D01*
X85844576Y-55761201D02*
X85868385Y-55785011D01*
X85868385Y-55785011D02*
X85916004Y-55808820D01*
X86803059Y-56749046D02*
X86803059Y-57034760D01*
X86803059Y-56891903D02*
X86303059Y-56891903D01*
X86303059Y-56891903D02*
X86374488Y-56939522D01*
X86374488Y-56939522D02*
X86422107Y-56987141D01*
X86422107Y-56987141D02*
X86445916Y-57034760D01*
X86303059Y-56439523D02*
X86303059Y-56391904D01*
X86303059Y-56391904D02*
X86326869Y-56344285D01*
X86326869Y-56344285D02*
X86350678Y-56320475D01*
X86350678Y-56320475D02*
X86398297Y-56296666D01*
X86398297Y-56296666D02*
X86493535Y-56272856D01*
X86493535Y-56272856D02*
X86612583Y-56272856D01*
X86612583Y-56272856D02*
X86707821Y-56296666D01*
X86707821Y-56296666D02*
X86755440Y-56320475D01*
X86755440Y-56320475D02*
X86779250Y-56344285D01*
X86779250Y-56344285D02*
X86803059Y-56391904D01*
X86803059Y-56391904D02*
X86803059Y-56439523D01*
X86803059Y-56439523D02*
X86779250Y-56487142D01*
X86779250Y-56487142D02*
X86755440Y-56510951D01*
X86755440Y-56510951D02*
X86707821Y-56534761D01*
X86707821Y-56534761D02*
X86612583Y-56558570D01*
X86612583Y-56558570D02*
X86493535Y-56558570D01*
X86493535Y-56558570D02*
X86398297Y-56534761D01*
X86398297Y-56534761D02*
X86350678Y-56510951D01*
X86350678Y-56510951D02*
X86326869Y-56487142D01*
X86326869Y-56487142D02*
X86303059Y-56439523D01*
X86303059Y-55963333D02*
X86303059Y-55915714D01*
X86303059Y-55915714D02*
X86326869Y-55868095D01*
X86326869Y-55868095D02*
X86350678Y-55844285D01*
X86350678Y-55844285D02*
X86398297Y-55820476D01*
X86398297Y-55820476D02*
X86493535Y-55796666D01*
X86493535Y-55796666D02*
X86612583Y-55796666D01*
X86612583Y-55796666D02*
X86707821Y-55820476D01*
X86707821Y-55820476D02*
X86755440Y-55844285D01*
X86755440Y-55844285D02*
X86779250Y-55868095D01*
X86779250Y-55868095D02*
X86803059Y-55915714D01*
X86803059Y-55915714D02*
X86803059Y-55963333D01*
X86803059Y-55963333D02*
X86779250Y-56010952D01*
X86779250Y-56010952D02*
X86755440Y-56034761D01*
X86755440Y-56034761D02*
X86707821Y-56058571D01*
X86707821Y-56058571D02*
X86612583Y-56082380D01*
X86612583Y-56082380D02*
X86493535Y-56082380D01*
X86493535Y-56082380D02*
X86398297Y-56058571D01*
X86398297Y-56058571D02*
X86350678Y-56034761D01*
X86350678Y-56034761D02*
X86326869Y-56010952D01*
X86326869Y-56010952D02*
X86303059Y-55963333D01*
X86803059Y-55582381D02*
X86303059Y-55582381D01*
X86803059Y-55296667D02*
X86517345Y-55510952D01*
X86303059Y-55296667D02*
X86588773Y-55582381D01*
X86803059Y-55106190D02*
X86803059Y-54987143D01*
X86803059Y-54987143D02*
X86707821Y-54987143D01*
X86707821Y-54987143D02*
X86684011Y-55034762D01*
X86684011Y-55034762D02*
X86636392Y-55082381D01*
X86636392Y-55082381D02*
X86564964Y-55106190D01*
X86564964Y-55106190D02*
X86445916Y-55106190D01*
X86445916Y-55106190D02*
X86374488Y-55082381D01*
X86374488Y-55082381D02*
X86326869Y-55034762D01*
X86326869Y-55034762D02*
X86303059Y-54963333D01*
X86303059Y-54963333D02*
X86303059Y-54868095D01*
X86303059Y-54868095D02*
X86326869Y-54796667D01*
X86326869Y-54796667D02*
X86374488Y-54749048D01*
X86374488Y-54749048D02*
X86445916Y-54725238D01*
X86445916Y-54725238D02*
X86564964Y-54725238D01*
X86564964Y-54725238D02*
X86636392Y-54749048D01*
X86636392Y-54749048D02*
X86684011Y-54796667D01*
X86684011Y-54796667D02*
X86707821Y-54844286D01*
X86707821Y-54844286D02*
X86803059Y-54844286D01*
X86803059Y-54844286D02*
X86803059Y-54725238D01*
D10*
X22142143Y-52904895D02*
X22294524Y-52904895D01*
X22294524Y-52904895D02*
X22370714Y-52942990D01*
X22370714Y-52942990D02*
X22446905Y-53019180D01*
X22446905Y-53019180D02*
X22485000Y-53171561D01*
X22485000Y-53171561D02*
X22485000Y-53438228D01*
X22485000Y-53438228D02*
X22446905Y-53590609D01*
X22446905Y-53590609D02*
X22370714Y-53666800D01*
X22370714Y-53666800D02*
X22294524Y-53704895D01*
X22294524Y-53704895D02*
X22142143Y-53704895D01*
X22142143Y-53704895D02*
X22065952Y-53666800D01*
X22065952Y-53666800D02*
X21989762Y-53590609D01*
X21989762Y-53590609D02*
X21951666Y-53438228D01*
X21951666Y-53438228D02*
X21951666Y-53171561D01*
X21951666Y-53171561D02*
X21989762Y-53019180D01*
X21989762Y-53019180D02*
X22065952Y-52942990D01*
X22065952Y-52942990D02*
X22142143Y-52904895D01*
X22827857Y-53704895D02*
X22827857Y-52904895D01*
X22827857Y-52904895D02*
X23285000Y-53704895D01*
X23285000Y-53704895D02*
X23285000Y-52904895D01*
X23475476Y-53781085D02*
X24084999Y-53781085D01*
X24427857Y-52904895D02*
X24580238Y-52904895D01*
X24580238Y-52904895D02*
X24656428Y-52942990D01*
X24656428Y-52942990D02*
X24732619Y-53019180D01*
X24732619Y-53019180D02*
X24770714Y-53171561D01*
X24770714Y-53171561D02*
X24770714Y-53438228D01*
X24770714Y-53438228D02*
X24732619Y-53590609D01*
X24732619Y-53590609D02*
X24656428Y-53666800D01*
X24656428Y-53666800D02*
X24580238Y-53704895D01*
X24580238Y-53704895D02*
X24427857Y-53704895D01*
X24427857Y-53704895D02*
X24351666Y-53666800D01*
X24351666Y-53666800D02*
X24275476Y-53590609D01*
X24275476Y-53590609D02*
X24237380Y-53438228D01*
X24237380Y-53438228D02*
X24237380Y-53171561D01*
X24237380Y-53171561D02*
X24275476Y-53019180D01*
X24275476Y-53019180D02*
X24351666Y-52942990D01*
X24351666Y-52942990D02*
X24427857Y-52904895D01*
X25380237Y-53285847D02*
X25113571Y-53285847D01*
X25113571Y-53704895D02*
X25113571Y-52904895D01*
X25113571Y-52904895D02*
X25494523Y-52904895D01*
X26065951Y-53285847D02*
X25799285Y-53285847D01*
X25799285Y-53704895D02*
X25799285Y-52904895D01*
X25799285Y-52904895D02*
X26180237Y-52904895D01*
X26294523Y-53781085D02*
X26904046Y-53781085D01*
X27056427Y-53666800D02*
X27170713Y-53704895D01*
X27170713Y-53704895D02*
X27361189Y-53704895D01*
X27361189Y-53704895D02*
X27437380Y-53666800D01*
X27437380Y-53666800D02*
X27475475Y-53628704D01*
X27475475Y-53628704D02*
X27513570Y-53552514D01*
X27513570Y-53552514D02*
X27513570Y-53476323D01*
X27513570Y-53476323D02*
X27475475Y-53400133D01*
X27475475Y-53400133D02*
X27437380Y-53362038D01*
X27437380Y-53362038D02*
X27361189Y-53323942D01*
X27361189Y-53323942D02*
X27208808Y-53285847D01*
X27208808Y-53285847D02*
X27132618Y-53247752D01*
X27132618Y-53247752D02*
X27094523Y-53209657D01*
X27094523Y-53209657D02*
X27056427Y-53133466D01*
X27056427Y-53133466D02*
X27056427Y-53057276D01*
X27056427Y-53057276D02*
X27094523Y-52981085D01*
X27094523Y-52981085D02*
X27132618Y-52942990D01*
X27132618Y-52942990D02*
X27208808Y-52904895D01*
X27208808Y-52904895D02*
X27399285Y-52904895D01*
X27399285Y-52904895D02*
X27513570Y-52942990D01*
X27780237Y-52904895D02*
X27970713Y-53704895D01*
X27970713Y-53704895D02*
X28123094Y-53133466D01*
X28123094Y-53133466D02*
X28275475Y-53704895D01*
X28275475Y-53704895D02*
X28465952Y-52904895D01*
X28770714Y-53704895D02*
X28770714Y-52904895D01*
X29037380Y-52904895D02*
X29494523Y-52904895D01*
X29265951Y-53704895D02*
X29265951Y-52904895D01*
X30218333Y-53628704D02*
X30180237Y-53666800D01*
X30180237Y-53666800D02*
X30065952Y-53704895D01*
X30065952Y-53704895D02*
X29989761Y-53704895D01*
X29989761Y-53704895D02*
X29875475Y-53666800D01*
X29875475Y-53666800D02*
X29799285Y-53590609D01*
X29799285Y-53590609D02*
X29761190Y-53514419D01*
X29761190Y-53514419D02*
X29723094Y-53362038D01*
X29723094Y-53362038D02*
X29723094Y-53247752D01*
X29723094Y-53247752D02*
X29761190Y-53095371D01*
X29761190Y-53095371D02*
X29799285Y-53019180D01*
X29799285Y-53019180D02*
X29875475Y-52942990D01*
X29875475Y-52942990D02*
X29989761Y-52904895D01*
X29989761Y-52904895D02*
X30065952Y-52904895D01*
X30065952Y-52904895D02*
X30180237Y-52942990D01*
X30180237Y-52942990D02*
X30218333Y-52981085D01*
X30561190Y-53704895D02*
X30561190Y-52904895D01*
X30561190Y-53285847D02*
X31018333Y-53285847D01*
X31018333Y-53704895D02*
X31018333Y-52904895D01*
X31818332Y-53704895D02*
X31361189Y-53704895D01*
X31589761Y-53704895D02*
X31589761Y-52904895D01*
X31589761Y-52904895D02*
X31513570Y-53019180D01*
X31513570Y-53019180D02*
X31437380Y-53095371D01*
X31437380Y-53095371D02*
X31361189Y-53133466D01*
D15*
X24546797Y-59069279D02*
X24737273Y-59069279D01*
X24737273Y-59069279D02*
X24832511Y-59116898D01*
X24832511Y-59116898D02*
X24927749Y-59212136D01*
X24927749Y-59212136D02*
X24975368Y-59402612D01*
X24975368Y-59402612D02*
X24975368Y-59735945D01*
X24975368Y-59735945D02*
X24927749Y-59926421D01*
X24927749Y-59926421D02*
X24832511Y-60021660D01*
X24832511Y-60021660D02*
X24737273Y-60069279D01*
X24737273Y-60069279D02*
X24546797Y-60069279D01*
X24546797Y-60069279D02*
X24451559Y-60021660D01*
X24451559Y-60021660D02*
X24356321Y-59926421D01*
X24356321Y-59926421D02*
X24308702Y-59735945D01*
X24308702Y-59735945D02*
X24308702Y-59402612D01*
X24308702Y-59402612D02*
X24356321Y-59212136D01*
X24356321Y-59212136D02*
X24451559Y-59116898D01*
X24451559Y-59116898D02*
X24546797Y-59069279D01*
X25737273Y-59545469D02*
X25403940Y-59545469D01*
X25403940Y-60069279D02*
X25403940Y-59069279D01*
X25403940Y-59069279D02*
X25880130Y-59069279D01*
X26594416Y-59545469D02*
X26261083Y-59545469D01*
X26261083Y-60069279D02*
X26261083Y-59069279D01*
X26261083Y-59069279D02*
X26737273Y-59069279D01*
X28070607Y-59069279D02*
X28261083Y-59069279D01*
X28261083Y-59069279D02*
X28356321Y-59116898D01*
X28356321Y-59116898D02*
X28451559Y-59212136D01*
X28451559Y-59212136D02*
X28499178Y-59402612D01*
X28499178Y-59402612D02*
X28499178Y-59735945D01*
X28499178Y-59735945D02*
X28451559Y-59926421D01*
X28451559Y-59926421D02*
X28356321Y-60021660D01*
X28356321Y-60021660D02*
X28261083Y-60069279D01*
X28261083Y-60069279D02*
X28070607Y-60069279D01*
X28070607Y-60069279D02*
X27975369Y-60021660D01*
X27975369Y-60021660D02*
X27880131Y-59926421D01*
X27880131Y-59926421D02*
X27832512Y-59735945D01*
X27832512Y-59735945D02*
X27832512Y-59402612D01*
X27832512Y-59402612D02*
X27880131Y-59212136D01*
X27880131Y-59212136D02*
X27975369Y-59116898D01*
X27975369Y-59116898D02*
X28070607Y-59069279D01*
X28927750Y-60069279D02*
X28927750Y-59069279D01*
X28927750Y-59069279D02*
X29499178Y-60069279D01*
X29499178Y-60069279D02*
X29499178Y-59069279D01*
D13*
X28484524Y-57378059D02*
X28484524Y-56878059D01*
X28484524Y-56878059D02*
X28675000Y-56878059D01*
X28675000Y-56878059D02*
X28722619Y-56901869D01*
X28722619Y-56901869D02*
X28746429Y-56925678D01*
X28746429Y-56925678D02*
X28770238Y-56973297D01*
X28770238Y-56973297D02*
X28770238Y-57044726D01*
X28770238Y-57044726D02*
X28746429Y-57092345D01*
X28746429Y-57092345D02*
X28722619Y-57116154D01*
X28722619Y-57116154D02*
X28675000Y-57139964D01*
X28675000Y-57139964D02*
X28484524Y-57139964D01*
X28984524Y-57378059D02*
X28984524Y-56878059D01*
X29222619Y-57378059D02*
X29222619Y-56878059D01*
X29222619Y-56878059D02*
X29508333Y-57378059D01*
X29508333Y-57378059D02*
X29508333Y-56878059D01*
X29627382Y-57425678D02*
X30008334Y-57425678D01*
X30079762Y-56878059D02*
X30389286Y-56878059D01*
X30389286Y-56878059D02*
X30222619Y-57068535D01*
X30222619Y-57068535D02*
X30294048Y-57068535D01*
X30294048Y-57068535D02*
X30341667Y-57092345D01*
X30341667Y-57092345D02*
X30365476Y-57116154D01*
X30365476Y-57116154D02*
X30389286Y-57163773D01*
X30389286Y-57163773D02*
X30389286Y-57282821D01*
X30389286Y-57282821D02*
X30365476Y-57330440D01*
X30365476Y-57330440D02*
X30341667Y-57354250D01*
X30341667Y-57354250D02*
X30294048Y-57378059D01*
X30294048Y-57378059D02*
X30151191Y-57378059D01*
X30151191Y-57378059D02*
X30103572Y-57354250D01*
X30103572Y-57354250D02*
X30079762Y-57330440D01*
X25944524Y-57378059D02*
X25944524Y-56878059D01*
X25944524Y-56878059D02*
X26135000Y-56878059D01*
X26135000Y-56878059D02*
X26182619Y-56901869D01*
X26182619Y-56901869D02*
X26206429Y-56925678D01*
X26206429Y-56925678D02*
X26230238Y-56973297D01*
X26230238Y-56973297D02*
X26230238Y-57044726D01*
X26230238Y-57044726D02*
X26206429Y-57092345D01*
X26206429Y-57092345D02*
X26182619Y-57116154D01*
X26182619Y-57116154D02*
X26135000Y-57139964D01*
X26135000Y-57139964D02*
X25944524Y-57139964D01*
X26444524Y-57378059D02*
X26444524Y-56878059D01*
X26682619Y-57378059D02*
X26682619Y-56878059D01*
X26682619Y-56878059D02*
X26968333Y-57378059D01*
X26968333Y-57378059D02*
X26968333Y-56878059D01*
X27087382Y-57425678D02*
X27468334Y-57425678D01*
X27563572Y-56925678D02*
X27587381Y-56901869D01*
X27587381Y-56901869D02*
X27635000Y-56878059D01*
X27635000Y-56878059D02*
X27754048Y-56878059D01*
X27754048Y-56878059D02*
X27801667Y-56901869D01*
X27801667Y-56901869D02*
X27825476Y-56925678D01*
X27825476Y-56925678D02*
X27849286Y-56973297D01*
X27849286Y-56973297D02*
X27849286Y-57020916D01*
X27849286Y-57020916D02*
X27825476Y-57092345D01*
X27825476Y-57092345D02*
X27539762Y-57378059D01*
X27539762Y-57378059D02*
X27849286Y-57378059D01*
X23404524Y-57378059D02*
X23404524Y-56878059D01*
X23404524Y-56878059D02*
X23595000Y-56878059D01*
X23595000Y-56878059D02*
X23642619Y-56901869D01*
X23642619Y-56901869D02*
X23666429Y-56925678D01*
X23666429Y-56925678D02*
X23690238Y-56973297D01*
X23690238Y-56973297D02*
X23690238Y-57044726D01*
X23690238Y-57044726D02*
X23666429Y-57092345D01*
X23666429Y-57092345D02*
X23642619Y-57116154D01*
X23642619Y-57116154D02*
X23595000Y-57139964D01*
X23595000Y-57139964D02*
X23404524Y-57139964D01*
X23904524Y-57378059D02*
X23904524Y-56878059D01*
X24142619Y-57378059D02*
X24142619Y-56878059D01*
X24142619Y-56878059D02*
X24428333Y-57378059D01*
X24428333Y-57378059D02*
X24428333Y-56878059D01*
X24547382Y-57425678D02*
X24928334Y-57425678D01*
X25309286Y-57378059D02*
X25023572Y-57378059D01*
X25166429Y-57378059D02*
X25166429Y-56878059D01*
X25166429Y-56878059D02*
X25118810Y-56949488D01*
X25118810Y-56949488D02*
X25071191Y-56997107D01*
X25071191Y-56997107D02*
X25023572Y-57020916D01*
X83590290Y-55999297D02*
X83352195Y-56165963D01*
X83590290Y-56285011D02*
X83090290Y-56285011D01*
X83090290Y-56285011D02*
X83090290Y-56094535D01*
X83090290Y-56094535D02*
X83114100Y-56046916D01*
X83114100Y-56046916D02*
X83137909Y-56023106D01*
X83137909Y-56023106D02*
X83185528Y-55999297D01*
X83185528Y-55999297D02*
X83256957Y-55999297D01*
X83256957Y-55999297D02*
X83304576Y-56023106D01*
X83304576Y-56023106D02*
X83328385Y-56046916D01*
X83328385Y-56046916D02*
X83352195Y-56094535D01*
X83352195Y-56094535D02*
X83352195Y-56285011D01*
X83090290Y-55546916D02*
X83090290Y-55785011D01*
X83090290Y-55785011D02*
X83328385Y-55808820D01*
X83328385Y-55808820D02*
X83304576Y-55785011D01*
X83304576Y-55785011D02*
X83280766Y-55737392D01*
X83280766Y-55737392D02*
X83280766Y-55618344D01*
X83280766Y-55618344D02*
X83304576Y-55570725D01*
X83304576Y-55570725D02*
X83328385Y-55546916D01*
X83328385Y-55546916D02*
X83376004Y-55523106D01*
X83376004Y-55523106D02*
X83495052Y-55523106D01*
X83495052Y-55523106D02*
X83542671Y-55546916D01*
X83542671Y-55546916D02*
X83566481Y-55570725D01*
X83566481Y-55570725D02*
X83590290Y-55618344D01*
X83590290Y-55618344D02*
X83590290Y-55737392D01*
X83590290Y-55737392D02*
X83566481Y-55785011D01*
X83566481Y-55785011D02*
X83542671Y-55808820D01*
X83810678Y-57034760D02*
X83786869Y-57010951D01*
X83786869Y-57010951D02*
X83763059Y-56963332D01*
X83763059Y-56963332D02*
X83763059Y-56844284D01*
X83763059Y-56844284D02*
X83786869Y-56796665D01*
X83786869Y-56796665D02*
X83810678Y-56772856D01*
X83810678Y-56772856D02*
X83858297Y-56749046D01*
X83858297Y-56749046D02*
X83905916Y-56749046D01*
X83905916Y-56749046D02*
X83977345Y-56772856D01*
X83977345Y-56772856D02*
X84263059Y-57058570D01*
X84263059Y-57058570D02*
X84263059Y-56749046D01*
X83810678Y-56558570D02*
X83786869Y-56534761D01*
X83786869Y-56534761D02*
X83763059Y-56487142D01*
X83763059Y-56487142D02*
X83763059Y-56368094D01*
X83763059Y-56368094D02*
X83786869Y-56320475D01*
X83786869Y-56320475D02*
X83810678Y-56296666D01*
X83810678Y-56296666D02*
X83858297Y-56272856D01*
X83858297Y-56272856D02*
X83905916Y-56272856D01*
X83905916Y-56272856D02*
X83977345Y-56296666D01*
X83977345Y-56296666D02*
X84263059Y-56582380D01*
X84263059Y-56582380D02*
X84263059Y-56272856D01*
X83763059Y-55963333D02*
X83763059Y-55915714D01*
X83763059Y-55915714D02*
X83786869Y-55868095D01*
X83786869Y-55868095D02*
X83810678Y-55844285D01*
X83810678Y-55844285D02*
X83858297Y-55820476D01*
X83858297Y-55820476D02*
X83953535Y-55796666D01*
X83953535Y-55796666D02*
X84072583Y-55796666D01*
X84072583Y-55796666D02*
X84167821Y-55820476D01*
X84167821Y-55820476D02*
X84215440Y-55844285D01*
X84215440Y-55844285D02*
X84239250Y-55868095D01*
X84239250Y-55868095D02*
X84263059Y-55915714D01*
X84263059Y-55915714D02*
X84263059Y-55963333D01*
X84263059Y-55963333D02*
X84239250Y-56010952D01*
X84239250Y-56010952D02*
X84215440Y-56034761D01*
X84215440Y-56034761D02*
X84167821Y-56058571D01*
X84167821Y-56058571D02*
X84072583Y-56082380D01*
X84072583Y-56082380D02*
X83953535Y-56082380D01*
X83953535Y-56082380D02*
X83858297Y-56058571D01*
X83858297Y-56058571D02*
X83810678Y-56034761D01*
X83810678Y-56034761D02*
X83786869Y-56010952D01*
X83786869Y-56010952D02*
X83763059Y-55963333D01*
X84263059Y-55582381D02*
X83763059Y-55582381D01*
X84263059Y-55296667D02*
X83977345Y-55510952D01*
X83763059Y-55296667D02*
X84048773Y-55582381D01*
X84263059Y-55106190D02*
X84263059Y-54987143D01*
X84263059Y-54987143D02*
X84167821Y-54987143D01*
X84167821Y-54987143D02*
X84144011Y-55034762D01*
X84144011Y-55034762D02*
X84096392Y-55082381D01*
X84096392Y-55082381D02*
X84024964Y-55106190D01*
X84024964Y-55106190D02*
X83905916Y-55106190D01*
X83905916Y-55106190D02*
X83834488Y-55082381D01*
X83834488Y-55082381D02*
X83786869Y-55034762D01*
X83786869Y-55034762D02*
X83763059Y-54963333D01*
X83763059Y-54963333D02*
X83763059Y-54868095D01*
X83763059Y-54868095D02*
X83786869Y-54796667D01*
X83786869Y-54796667D02*
X83834488Y-54749048D01*
X83834488Y-54749048D02*
X83905916Y-54725238D01*
X83905916Y-54725238D02*
X84024964Y-54725238D01*
X84024964Y-54725238D02*
X84096392Y-54749048D01*
X84096392Y-54749048D02*
X84144011Y-54796667D01*
X84144011Y-54796667D02*
X84167821Y-54844286D01*
X84167821Y-54844286D02*
X84263059Y-54844286D01*
X84263059Y-54844286D02*
X84263059Y-54725238D01*
%TO.C,ESP32_UWB1*%
D10*
X35775000Y-17780000D02*
X108575000Y-17780000D01*
X108575000Y-50800000D01*
X35775000Y-50800000D01*
X35775000Y-17780000D01*
X35775000Y-25400000D02*
X40855000Y-25400000D01*
X40855000Y-43180000D01*
X35775000Y-43180000D01*
X35775000Y-25400000D01*
X73875000Y-17780000D02*
X86575000Y-17780000D01*
X86575000Y-27940000D01*
X73875000Y-27940000D01*
X73875000Y-17780000D01*
X101815000Y-30480000D02*
X109435000Y-30480000D01*
X109435000Y-38100000D01*
X101815000Y-38100000D01*
X101815000Y-30480000D01*
%TO.C,5V_DC_DC_Converter1*%
X17565000Y-50800000D02*
X35345000Y-50800000D01*
X35345000Y-21800000D01*
X17565000Y-21800000D01*
X17565000Y-50800000D01*
X23565000Y-26600000D02*
X29565000Y-26600000D01*
X29565000Y-24200000D01*
X23565000Y-24200000D01*
X23565000Y-26600000D01*
X23725000Y-49460000D02*
X31725000Y-49460000D01*
X31725000Y-47060000D01*
X23725000Y-47060000D01*
X23725000Y-49460000D01*
%TO.C,R1*%
X52285000Y-60960000D02*
X54825000Y-60960000D01*
X54825000Y-50800000D01*
X52285000Y-50800000D01*
X52285000Y-60960000D01*
%TO.C,RGB_LED_ROUND1*%
X48775000Y-55880000D02*
G75*
G02*
X43095000Y-55880000I-2840000J0D01*
G01*
X43095000Y-55880000D02*
G75*
G02*
X48775000Y-55880000I2840000J0D01*
G01*
%TO.C,R2*%
X54825000Y-60960000D02*
X57365000Y-60960000D01*
X57365000Y-50800000D01*
X54825000Y-50800000D01*
X54825000Y-60960000D01*
%TO.C,R4*%
X59905000Y-60960000D02*
X62445000Y-60960000D01*
X62445000Y-50800000D01*
X59905000Y-50800000D01*
X59905000Y-60960000D01*
%TO.C,RGB_LED_ROUND2*%
X71635000Y-55880000D02*
G75*
G02*
X65955000Y-55880000I-2840000J0D01*
G01*
X65955000Y-55880000D02*
G75*
G02*
X71635000Y-55880000I2840000J0D01*
G01*
%TO.C,R3*%
X57365000Y-60960000D02*
X59905000Y-60960000D01*
X59905000Y-50800000D01*
X57365000Y-50800000D01*
X57365000Y-60960000D01*
%TO.C,R6*%
X85305000Y-60960000D02*
X87845000Y-60960000D01*
X87845000Y-50800000D01*
X85305000Y-50800000D01*
X85305000Y-60960000D01*
%TO.C,ON_OFF_SWITCH1*%
X21805000Y-53975000D02*
X31965000Y-53975000D01*
X31965000Y-57785000D01*
X21805000Y-57785000D01*
X21805000Y-53975000D01*
%TO.C,R5*%
X82765000Y-60960000D02*
X85305000Y-60960000D01*
X85305000Y-50800000D01*
X82765000Y-50800000D01*
X82765000Y-60960000D01*
%TD*%
M02*
