%TF.GenerationSoftware,KiCad,Pcbnew,9.0.0*%
%TF.CreationDate,2025-03-02T14:37:26-08:00*%
%TF.ProjectId,sensor,73656e73-6f72-42e6-9b69-6361645f7063,v0.2*%
%TF.SameCoordinates,Original*%
%TF.FileFunction,Legend,Top*%
%TF.FilePolarity,Positive*%
%FSLAX46Y46*%
G04 Gerber Fmt 4.6, Leading zero omitted, Abs format (unit mm)*
G04 Created by KiCad (PCBNEW 9.0.0) date 2025-03-02 14:37:26*
%MOMM*%
%LPD*%
G01*
G04 APERTURE LIST*
%ADD10C,0.150000*%
%ADD11C,0.500000*%
%ADD12C,0.400000*%
%ADD13C,0.250000*%
%ADD14C,0.100000*%
%ADD15C,0.062500*%
G04 APERTURE END LIST*
D10*
G36*
X196081072Y-108330775D02*
G01*
X196116732Y-108367717D01*
X196056953Y-108422427D01*
X195784501Y-108398247D01*
X195688025Y-108296398D01*
X196081072Y-108330775D01*
G37*
G36*
X196221085Y-108384203D02*
G01*
X196533105Y-108724067D01*
X196533105Y-108791539D01*
X196463801Y-108785128D01*
X196151598Y-108446607D01*
X196151109Y-108371503D01*
X196221085Y-108384203D01*
G37*
G36*
X196056953Y-108766077D02*
G01*
X196116732Y-108830985D01*
X196081072Y-108864080D01*
X195688025Y-108829702D01*
X195784745Y-108741897D01*
X196056953Y-108766077D01*
G37*
G36*
X196532922Y-108903525D02*
G01*
X196577069Y-108860233D01*
X196532861Y-108808087D01*
X196212109Y-108780060D01*
X196152391Y-108834831D01*
X196189272Y-108872994D01*
X196532922Y-108903525D01*
G37*
G36*
X196081072Y-107644941D02*
G01*
X196116732Y-107681883D01*
X196056831Y-107736594D01*
X195802452Y-107714978D01*
X195706953Y-107611846D01*
X196081072Y-107644941D01*
G37*
G36*
X195689002Y-107628394D02*
G01*
X195782791Y-107730243D01*
X195782791Y-108039516D01*
X195689002Y-108126039D01*
X195689002Y-107628394D01*
G37*
G36*
X196056831Y-108080243D02*
G01*
X196116732Y-108145151D01*
X196081072Y-108178246D01*
X195706892Y-108145151D01*
X195802330Y-108058567D01*
X196056831Y-108080243D01*
G37*
G36*
X196560460Y-107686951D02*
G01*
X196466610Y-107772253D01*
X196212109Y-107750576D01*
X196152391Y-107685669D01*
X196189211Y-107653856D01*
X196560460Y-107686951D01*
G37*
G36*
X196580000Y-107706063D02*
G01*
X196580000Y-108203708D01*
X196486210Y-108100576D01*
X196486210Y-107791304D01*
X196580000Y-107706063D01*
G37*
G36*
X196466671Y-108115842D02*
G01*
X196562170Y-108220255D01*
X196189211Y-108187161D01*
X196152391Y-108148998D01*
X196212170Y-108094226D01*
X196466671Y-108115842D01*
G37*
G36*
X196580000Y-107535643D02*
G01*
X196486210Y-107526728D01*
X196486210Y-107431290D01*
X196580000Y-107440205D01*
X196580000Y-107535643D01*
G37*
G36*
X195689002Y-106696363D02*
G01*
X195782791Y-106798213D01*
X195782791Y-107107485D01*
X195689002Y-107194008D01*
X195689002Y-106696363D01*
G37*
G36*
X196580000Y-106774032D02*
G01*
X196580000Y-107271677D01*
X196486210Y-107168546D01*
X196486210Y-106859273D01*
X196580000Y-106774032D01*
G37*
G36*
X196212109Y-107162195D02*
G01*
X196466610Y-107183811D01*
X196560460Y-107288225D01*
X196189272Y-107255130D01*
X196152391Y-107216967D01*
X196212109Y-107162195D01*
G37*
G36*
X196056831Y-106804563D02*
G01*
X195802452Y-106782947D01*
X195706953Y-106679816D01*
X196081072Y-106712911D01*
X196116732Y-106749852D01*
X196056831Y-106804563D01*
G37*
G36*
X196087606Y-106813478D02*
G01*
X196134501Y-106768903D01*
X196181395Y-106822393D01*
X196181395Y-107154563D01*
X196134501Y-107196573D01*
X196087606Y-107145648D01*
X196087606Y-106813478D01*
G37*
G36*
X198306209Y-124462679D02*
G01*
X198302271Y-124241212D01*
X198305102Y-124079986D01*
X198310606Y-124020661D01*
X198322146Y-123972392D01*
X198332588Y-123948212D01*
X198350265Y-123920918D01*
X198376674Y-123912494D01*
X198400273Y-123920918D01*
X198417035Y-123927238D01*
X198439932Y-123935664D01*
X198462922Y-123943999D01*
X198482797Y-123957646D01*
X198492847Y-123974664D01*
X198498459Y-124006006D01*
X198500566Y-124183418D01*
X198504779Y-124483745D01*
X198509498Y-124608508D01*
X198506885Y-124634870D01*
X198485446Y-124661250D01*
X198464937Y-124668484D01*
X198443962Y-124676269D01*
X198431195Y-124684322D01*
X198410440Y-124680208D01*
X198364278Y-124680208D01*
X198324528Y-124681399D01*
X198316821Y-124675865D01*
X198313995Y-124664271D01*
X198309140Y-124648609D01*
X198310056Y-124636977D01*
X198313263Y-124610202D01*
X198306209Y-124462679D01*
G37*
G36*
X198306209Y-123521856D02*
G01*
X198302271Y-123300388D01*
X198305102Y-123139162D01*
X198310606Y-123079837D01*
X198322146Y-123031569D01*
X198332588Y-123007389D01*
X198350265Y-122980095D01*
X198376674Y-122971670D01*
X198400273Y-122980095D01*
X198417035Y-122986414D01*
X198439932Y-122994841D01*
X198462922Y-123003175D01*
X198482797Y-123016823D01*
X198492847Y-123033841D01*
X198498459Y-123065183D01*
X198500566Y-123242595D01*
X198504779Y-123542922D01*
X198509498Y-123667684D01*
X198506885Y-123694047D01*
X198485446Y-123720426D01*
X198464937Y-123727661D01*
X198443962Y-123735446D01*
X198431195Y-123743499D01*
X198410440Y-123739384D01*
X198364278Y-123739384D01*
X198324528Y-123740575D01*
X198316821Y-123735042D01*
X198313995Y-123723448D01*
X198309140Y-123707786D01*
X198310056Y-123696153D01*
X198313263Y-123669379D01*
X198306209Y-123521856D01*
G37*
G36*
X197857029Y-120904016D02*
G01*
X197895057Y-120943750D01*
X197930572Y-120988239D01*
X197974650Y-121025541D01*
X197996723Y-121048622D01*
X198010370Y-121061170D01*
X198025025Y-121066482D01*
X198033360Y-121075916D01*
X198043893Y-121085258D01*
X198054334Y-121086358D01*
X198059646Y-121082144D01*
X198058547Y-121088373D01*
X198055080Y-121098995D01*
X198071095Y-121103119D01*
X198083735Y-121107332D01*
X198089963Y-121109439D01*
X198092069Y-121108431D01*
X198092069Y-121111545D01*
X198101503Y-121124185D01*
X198117257Y-121132519D01*
X198129897Y-121138748D01*
X198150871Y-121160821D01*
X198161312Y-121176483D01*
X198167632Y-121187016D01*
X198180180Y-121193336D01*
X198184174Y-121190208D01*
X198173860Y-121174377D01*
X198169647Y-121170255D01*
X198160380Y-121159693D01*
X198163419Y-121157615D01*
X198178073Y-121166042D01*
X198186408Y-121181704D01*
X198201154Y-121198465D01*
X198232570Y-121212021D01*
X198250430Y-121220447D01*
X198263986Y-121224660D01*
X198270306Y-121224660D01*
X198272412Y-121228873D01*
X198297600Y-121224660D01*
X198307019Y-121219328D01*
X198308041Y-121214127D01*
X198308041Y-121209914D01*
X198324802Y-121216234D01*
X198345777Y-121219439D01*
X198356310Y-121220447D01*
X198375177Y-121227774D01*
X198391939Y-121230888D01*
X198402380Y-121235010D01*
X198456968Y-121254977D01*
X198508259Y-121266426D01*
X198516686Y-121269631D01*
X198553414Y-121280073D01*
X198598476Y-121289507D01*
X198612032Y-121289507D01*
X198635113Y-121288499D01*
X198662407Y-121289507D01*
X198692815Y-121292621D01*
X198727345Y-121295735D01*
X198737878Y-121301963D01*
X198727345Y-121308283D01*
X198714797Y-121310389D01*
X198727345Y-121314603D01*
X198748411Y-121315610D01*
X198750426Y-121310389D01*
X198744106Y-121301047D01*
X198750426Y-121298940D01*
X198759860Y-121298940D01*
X198774515Y-121298940D01*
X198785366Y-121300285D01*
X198795489Y-121293720D01*
X198800710Y-121291613D01*
X198803915Y-121296925D01*
X198821684Y-121297933D01*
X198839709Y-121300797D01*
X198846871Y-121307367D01*
X198853706Y-121312229D01*
X198872059Y-121314511D01*
X198903475Y-121310389D01*
X198899262Y-121306268D01*
X198888820Y-121302146D01*
X198898254Y-121300040D01*
X198918221Y-121302146D01*
X198930769Y-121308466D01*
X198949637Y-121311672D01*
X198968504Y-121306359D01*
X198953850Y-121304253D01*
X198942093Y-121303413D01*
X198939104Y-121298025D01*
X198947530Y-121291705D01*
X198987372Y-121297933D01*
X199012468Y-121295826D01*
X199028222Y-121291613D01*
X199041869Y-121293720D01*
X199055424Y-121301139D01*
X199069071Y-121297933D01*
X199081711Y-121291613D01*
X199090046Y-121289598D01*
X199096366Y-121285477D01*
X199113127Y-121277050D01*
X199120362Y-121272837D01*
X199125583Y-121279157D01*
X199137032Y-121287492D01*
X199150587Y-121293720D01*
X199160937Y-121298849D01*
X199170280Y-121305077D01*
X199190063Y-121320648D01*
X199201547Y-121333851D01*
X199194276Y-121347575D01*
X199187957Y-121358017D01*
X199190063Y-121377800D01*
X199192547Y-121393060D01*
X199198398Y-121399599D01*
X199208343Y-121401996D01*
X199210854Y-121397492D01*
X199212549Y-121391219D01*
X199217174Y-121393371D01*
X199221296Y-121403812D01*
X199214060Y-121416269D01*
X199206916Y-121426618D01*
X199202978Y-121432847D01*
X199199131Y-121441090D01*
X199194275Y-121453272D01*
X199178156Y-121457759D01*
X199169282Y-121460337D01*
X199163410Y-121468292D01*
X199134101Y-121488534D01*
X199096366Y-121502364D01*
X199082718Y-121507677D01*
X199076178Y-121509698D01*
X199061744Y-121504562D01*
X199049572Y-121495517D01*
X199048097Y-121489816D01*
X199044983Y-121486702D01*
X199032435Y-121481390D01*
X199022691Y-121476171D01*
X199002027Y-121476169D01*
X198926556Y-121481390D01*
X198677062Y-121491923D01*
X198598476Y-121495037D01*
X198597377Y-121503830D01*
X198591149Y-121505936D01*
X198562848Y-121506669D01*
X198506244Y-121506669D01*
X198410806Y-121506669D01*
X198389832Y-121508867D01*
X198381406Y-121510974D01*
X198351695Y-121505679D01*
X198331122Y-121510974D01*
X198270306Y-121557594D01*
X198177066Y-121610716D01*
X198043893Y-121674372D01*
X197978954Y-121696720D01*
X197952158Y-121707233D01*
X197947447Y-121712657D01*
X197924366Y-121728594D01*
X197892950Y-121740226D01*
X197871976Y-121747737D01*
X197833233Y-121755156D01*
X197811739Y-121752057D01*
X197800718Y-121744531D01*
X197791284Y-121725388D01*
X197794398Y-121710551D01*
X197798612Y-121693606D01*
X197810152Y-121659626D01*
X197825814Y-121636270D01*
X197834241Y-121621341D01*
X197849594Y-121598147D01*
X197883517Y-121565104D01*
X197921024Y-121538333D01*
X197941127Y-121532131D01*
X197983076Y-121517568D01*
X197998830Y-121505020D01*
X198010370Y-121498701D01*
X198016598Y-121497601D01*
X198037573Y-121487160D01*
X198058547Y-121475711D01*
X198061295Y-121474337D01*
X198665979Y-121474337D01*
X198672299Y-121478551D01*
X198676512Y-121478551D01*
X198689060Y-121474337D01*
X198678619Y-121470124D01*
X198665979Y-121474337D01*
X198061295Y-121474337D01*
X198066974Y-121471498D01*
X198077415Y-121467376D01*
X198075308Y-121463163D01*
X198072194Y-121463163D01*
X198073202Y-121461057D01*
X198083735Y-121464171D01*
X198092069Y-121464171D01*
X198087948Y-121458950D01*
X198082903Y-121457020D01*
X198086683Y-121454166D01*
X198816931Y-121454166D01*
X198821684Y-121463988D01*
X198829443Y-121470877D01*
X198830117Y-121470216D01*
X198862076Y-121470216D01*
X198864182Y-121474337D01*
X198869403Y-121470216D01*
X198867296Y-121466003D01*
X198909245Y-121466003D01*
X198911352Y-121470124D01*
X198915473Y-121466003D01*
X198921793Y-121466003D01*
X198926006Y-121470124D01*
X198944874Y-121466003D01*
X198965848Y-121466003D01*
X198968268Y-121470108D01*
X198978396Y-121466003D01*
X199139780Y-121466003D01*
X199139871Y-121472231D01*
X199147107Y-121470216D01*
X199147107Y-121463896D01*
X199139780Y-121466003D01*
X198978396Y-121466003D01*
X198976290Y-121461789D01*
X198995157Y-121461789D01*
X199003584Y-121463896D01*
X199011919Y-121459683D01*
X199003584Y-121457576D01*
X198995157Y-121461789D01*
X198976290Y-121461789D01*
X198965848Y-121466003D01*
X198944874Y-121466003D01*
X198938554Y-121461789D01*
X198921793Y-121466003D01*
X198915473Y-121466003D01*
X198913367Y-121461789D01*
X198909245Y-121466003D01*
X198867296Y-121466003D01*
X198862076Y-121470216D01*
X198830117Y-121470216D01*
X198834323Y-121466094D01*
X198836430Y-121459866D01*
X198841651Y-121454645D01*
X198899262Y-121453546D01*
X198955956Y-121451073D01*
X198978946Y-121443563D01*
X198993600Y-121438617D01*
X198999920Y-121438617D01*
X199012468Y-121440723D01*
X199025108Y-121439716D01*
X199027214Y-121436510D01*
X199014575Y-121432389D01*
X198999920Y-121438617D01*
X198993600Y-121438617D01*
X198975832Y-121438617D01*
X198947530Y-121440449D01*
X198939104Y-121438617D01*
X198932784Y-121434495D01*
X198922342Y-121439350D01*
X198913916Y-121440449D01*
X198876181Y-121440449D01*
X198838445Y-121444204D01*
X198819577Y-121447959D01*
X198816931Y-121454166D01*
X198086683Y-121454166D01*
X198094176Y-121448509D01*
X198110937Y-121442189D01*
X198124584Y-121434953D01*
X198127359Y-121431381D01*
X199160754Y-121431381D01*
X199167074Y-121440723D01*
X199177607Y-121442830D01*
X199173394Y-121434495D01*
X199165425Y-121429386D01*
X199160754Y-121431381D01*
X198127359Y-121431381D01*
X198131912Y-121425519D01*
X198117805Y-121408209D01*
X198953209Y-121408209D01*
X198980503Y-121411323D01*
X199007705Y-121407201D01*
X198980503Y-121404087D01*
X198953209Y-121408209D01*
X198117805Y-121408209D01*
X198108922Y-121397309D01*
X198071095Y-121369099D01*
X198035466Y-121342904D01*
X197993609Y-121313595D01*
X197992015Y-121312679D01*
X198668086Y-121312679D01*
X198670192Y-121316892D01*
X198674405Y-121312679D01*
X198672299Y-121308466D01*
X198668086Y-121312679D01*
X197992015Y-121312679D01*
X197948194Y-121287492D01*
X198039130Y-121287492D01*
X198083185Y-121308466D01*
X198085292Y-121306359D01*
X198060104Y-121293720D01*
X198039130Y-121287492D01*
X197948194Y-121287492D01*
X197946440Y-121286484D01*
X197935263Y-121281172D01*
X198016049Y-121281172D01*
X198020262Y-121283278D01*
X198024475Y-121281172D01*
X198016049Y-121281172D01*
X197935263Y-121281172D01*
X197924324Y-121275973D01*
X197905498Y-121272837D01*
X197880403Y-121268624D01*
X197846880Y-121249664D01*
X197787071Y-121212845D01*
X197721034Y-121171720D01*
X197663119Y-121134168D01*
X198085292Y-121134168D01*
X198089505Y-121140488D01*
X198093627Y-121136275D01*
X198089505Y-121129955D01*
X198085292Y-121134168D01*
X197663119Y-121134168D01*
X197640347Y-121119403D01*
X197603614Y-121076832D01*
X197595912Y-121050343D01*
X197598394Y-121030487D01*
X197610867Y-121013284D01*
X197641350Y-120992568D01*
X197690626Y-120965183D01*
X197718927Y-120946132D01*
X197774523Y-120912518D01*
X197825814Y-120893467D01*
X197857029Y-120904016D01*
G37*
G36*
X198749877Y-121512989D02*
G01*
X198720476Y-121510882D01*
X198739344Y-121508776D01*
X198801259Y-121506669D01*
X198850535Y-121506669D01*
X198749877Y-121512989D01*
G37*
G36*
X198951652Y-121506669D02*
G01*
X198909795Y-121508776D01*
X198874166Y-121506669D01*
X198895048Y-121502456D01*
X198944728Y-121500206D01*
X198951652Y-121506669D01*
G37*
G36*
X198974733Y-121500258D02*
G01*
X198964291Y-121502364D01*
X198964291Y-121498151D01*
X198972626Y-121498151D01*
X198974733Y-121500258D01*
G37*
G36*
X198626137Y-121283278D02*
G01*
X198622015Y-121287492D01*
X198617802Y-121283278D01*
X198622015Y-121279065D01*
X198626137Y-121283278D01*
G37*
G36*
X198292837Y-121207624D02*
G01*
X198296740Y-121211801D01*
X198286517Y-121218157D01*
X198278183Y-121219256D01*
X198282304Y-121213944D01*
X198282304Y-121207624D01*
X198278183Y-121207624D01*
X198283403Y-121203503D01*
X198292837Y-121207624D01*
G37*
G36*
X198256659Y-121197458D02*
G01*
X198270306Y-121213211D01*
X198265085Y-121207991D01*
X198258695Y-121202746D01*
X198249331Y-121203686D01*
X198245118Y-121201671D01*
X198245118Y-121195351D01*
X198238713Y-121189076D01*
X198240997Y-121184818D01*
X198256659Y-121197458D01*
G37*
G36*
X198395511Y-121209731D02*
G01*
X198389282Y-121211837D01*
X198382963Y-121207716D01*
X198389282Y-121205609D01*
X198395511Y-121209731D01*
G37*
G36*
X198354661Y-121201396D02*
G01*
X198357775Y-121209731D01*
X198349440Y-121209731D01*
X198345227Y-121195076D01*
X198354661Y-121201396D01*
G37*
G36*
X198288624Y-121177216D02*
G01*
X198292837Y-121184543D01*
X198284502Y-121181429D01*
X198280289Y-121174102D01*
X198288624Y-121177216D01*
G37*
G36*
X198039130Y-120393380D02*
G01*
X198033920Y-120364433D01*
X198039130Y-120326152D01*
X198049571Y-120288233D01*
X198065325Y-120231355D01*
X198089413Y-120176492D01*
X198114391Y-120160013D01*
X198153266Y-120158386D01*
X198215259Y-120178599D01*
X198263384Y-120198645D01*
X198345227Y-120224028D01*
X198470982Y-120252421D01*
X198499375Y-120257733D01*
X198540316Y-120267075D01*
X198661810Y-120279181D01*
X198745795Y-120273095D01*
X198802358Y-120254528D01*
X198815692Y-120241892D01*
X198825439Y-120215510D01*
X198828061Y-120185411D01*
X198823333Y-120157533D01*
X198808056Y-120135338D01*
X198766729Y-120102761D01*
X198717044Y-120073844D01*
X198663964Y-120050096D01*
X198632548Y-120039472D01*
X198585202Y-120023295D01*
X198533996Y-120012086D01*
X198517235Y-120005766D01*
X198521300Y-120003148D01*
X198546636Y-120007873D01*
X198579334Y-120014193D01*
X198600400Y-120019505D01*
X198616245Y-120023810D01*
X198651050Y-120033243D01*
X198694281Y-120045883D01*
X198745037Y-120062860D01*
X198822875Y-120107249D01*
X198848245Y-120122087D01*
X198871418Y-120130513D01*
X198881951Y-120130513D01*
X198892484Y-120136925D01*
X198900910Y-120141138D01*
X198905215Y-120141138D01*
X198917385Y-120151202D01*
X198945240Y-120160097D01*
X198962185Y-120171821D01*
X198968265Y-120178759D01*
X198979037Y-120181255D01*
X198991284Y-120185120D01*
X199008621Y-120200214D01*
X199033809Y-120231721D01*
X199048555Y-120251688D01*
X199063393Y-120275777D01*
X199069713Y-120290523D01*
X199076032Y-120332472D01*
X199073484Y-120374765D01*
X199059271Y-120401806D01*
X199052951Y-120412247D01*
X199043426Y-120426993D01*
X199029779Y-120435420D01*
X199019337Y-120443755D01*
X199008542Y-120462010D01*
X199002485Y-120458501D01*
X198989937Y-120462714D01*
X198977297Y-120471049D01*
X198968962Y-120477369D01*
X198943775Y-120494221D01*
X198917488Y-120502556D01*
X198894316Y-120512082D01*
X198860702Y-120524721D01*
X198796588Y-120531957D01*
X198710094Y-120536622D01*
X198647478Y-120529850D01*
X198601316Y-120521515D01*
X198546636Y-120510983D01*
X198513022Y-120513089D01*
X198482994Y-120532322D01*
X198466244Y-120556297D01*
X198460540Y-120586545D01*
X198450171Y-120636395D01*
X198418621Y-120678396D01*
X198359882Y-120714681D01*
X198324633Y-120726848D01*
X198301814Y-120726259D01*
X198286517Y-120716788D01*
X198275482Y-120690422D01*
X198288624Y-120657986D01*
X198298057Y-120630374D01*
X198288624Y-120601291D01*
X198246923Y-120557404D01*
X198162869Y-120500450D01*
X198074759Y-120444854D01*
X198054544Y-120422337D01*
X198039130Y-120393380D01*
G37*
G36*
X197741642Y-120411973D02*
G01*
X197739535Y-120386785D01*
X197741642Y-120344836D01*
X197753890Y-120239362D01*
X197764631Y-120208274D01*
X197781484Y-120197833D01*
X197808687Y-120183178D01*
X197833874Y-120167424D01*
X197859062Y-120157899D01*
X197874982Y-120153418D01*
X197886356Y-120156891D01*
X197895500Y-120167247D01*
X197906231Y-120190505D01*
X197918093Y-120215002D01*
X197934533Y-120235660D01*
X197953401Y-120256634D01*
X197949545Y-120268858D01*
X197934533Y-120286035D01*
X197877930Y-120357384D01*
X197847038Y-120398872D01*
X197835981Y-120403638D01*
X197829661Y-120405744D01*
X197816014Y-120416186D01*
X197791926Y-120418292D01*
X197777271Y-120420399D01*
X197759411Y-120423605D01*
X197741642Y-120411973D01*
G37*
G36*
X198953300Y-119816814D02*
G01*
X198947072Y-119818920D01*
X198935532Y-119818920D01*
X198933425Y-119827347D01*
X198934433Y-119833667D01*
X198930219Y-119829453D01*
X198924999Y-119826339D01*
X198919778Y-119831560D01*
X198917234Y-119835533D01*
X198896697Y-119831560D01*
X198890377Y-119829453D01*
X198890377Y-119825240D01*
X198903017Y-119827347D01*
X198915565Y-119827347D01*
X198913458Y-119821027D01*
X198907230Y-119818920D01*
X198911352Y-119816814D01*
X198928113Y-119812601D01*
X198938999Y-119811488D01*
X198953300Y-119816814D01*
G37*
G36*
X198865190Y-119832476D02*
G01*
X198852642Y-119831468D01*
X198860976Y-119828263D01*
X198877738Y-119828263D01*
X198865190Y-119832476D01*
G37*
G36*
X198982609Y-119824049D02*
G01*
X198976290Y-119828263D01*
X198972076Y-119824049D01*
X198978396Y-119819836D01*
X198982609Y-119824049D01*
G37*
G36*
X198840002Y-119815623D02*
G01*
X198835881Y-119819836D01*
X198833774Y-119815623D01*
X198837987Y-119811410D01*
X198840002Y-119815623D01*
G37*
G36*
X198911260Y-119807288D02*
G01*
X198905032Y-119808296D01*
X198898712Y-119804174D01*
X198905032Y-119803075D01*
X198911260Y-119807288D01*
G37*
G36*
X199030786Y-119803075D02*
G01*
X199026665Y-119807288D01*
X199024558Y-119803075D01*
X199028680Y-119798862D01*
X199030786Y-119803075D01*
G37*
G36*
X197698568Y-119136128D02*
G01*
X197722408Y-119141788D01*
X197751976Y-119162534D01*
X197772783Y-119190239D01*
X197778004Y-119204894D01*
X197760143Y-119200681D01*
X197709860Y-119192346D01*
X197657470Y-119194452D01*
X197643823Y-119211214D01*
X197641715Y-119224045D01*
X197645929Y-119238599D01*
X197670018Y-119267909D01*
X197708327Y-119293558D01*
X197780110Y-119326710D01*
X197858093Y-119354568D01*
X197927938Y-119372963D01*
X197983442Y-119385511D01*
X198026490Y-119393938D01*
X198054891Y-119394676D01*
X198067340Y-119389725D01*
X198073339Y-119374469D01*
X198076774Y-119318375D01*
X198080580Y-119259974D01*
X198089413Y-119228066D01*
X198105189Y-119202284D01*
X198129072Y-119177600D01*
X198161916Y-119156639D01*
X198168914Y-119167158D01*
X198159480Y-119177875D01*
X198154258Y-119181266D01*
X198157374Y-119187583D01*
X198172212Y-119190789D01*
X198179935Y-119189980D01*
X198191537Y-119197200D01*
X198202843Y-119204137D01*
X198209764Y-119202604D01*
X198224785Y-119203612D01*
X198238798Y-119209015D01*
X198252720Y-119199307D01*
X198258859Y-119194341D01*
X198261238Y-119205718D01*
X198261238Y-119240156D01*
X198266550Y-119324970D01*
X198278091Y-119392564D01*
X198292654Y-119407677D01*
X198451656Y-119411890D01*
X198801076Y-119420316D01*
X198980847Y-119444441D01*
X199060645Y-119466570D01*
X199090962Y-119475088D01*
X199122286Y-119486628D01*
X199135841Y-119489834D01*
X199140054Y-119491940D01*
X199146374Y-119496062D01*
X199158506Y-119502819D01*
X199154526Y-119504855D01*
X199158647Y-119509068D01*
X199162861Y-119506961D01*
X199158986Y-119503087D01*
X199167257Y-119507694D01*
X199200779Y-119533981D01*
X199221662Y-119560359D01*
X199224786Y-119572546D01*
X199221662Y-119578127D01*
X199218125Y-119582144D01*
X199219556Y-119592965D01*
X199221662Y-119611833D01*
X199225875Y-119611833D01*
X199230088Y-119607620D01*
X199238423Y-119597178D01*
X199236317Y-119615955D01*
X199226067Y-119656318D01*
X199213327Y-119672466D01*
X199221662Y-119676679D01*
X199232195Y-119676679D01*
X199217449Y-119691334D01*
X199175592Y-119726780D01*
X199156632Y-119739328D01*
X199131536Y-119751876D01*
X199125217Y-119756089D01*
X199121004Y-119764424D01*
X199104242Y-119772850D01*
X199095908Y-119774957D01*
X199095908Y-119779170D01*
X199091694Y-119779170D01*
X199089162Y-119772790D01*
X199100029Y-119762409D01*
X199118897Y-119748762D01*
X199135658Y-119737313D01*
X199158739Y-119721651D01*
X199173394Y-119714323D01*
X199196475Y-119698661D01*
X199209114Y-119680893D01*
X199200740Y-119678833D01*
X199175592Y-119699669D01*
X199157732Y-119714323D01*
X199144084Y-119722567D01*
X199100666Y-119754768D01*
X199056065Y-119779170D01*
X199040312Y-119786497D01*
X199036099Y-119791718D01*
X199036099Y-119794924D01*
X199030878Y-119793824D01*
X199003675Y-119800144D01*
X198974275Y-119806464D01*
X198978488Y-119802251D01*
X198983709Y-119791718D01*
X198984808Y-119787505D01*
X198988929Y-119791718D01*
X198995249Y-119793824D01*
X198999462Y-119787505D01*
X199000561Y-119784391D01*
X199005690Y-119783291D01*
X199009904Y-119783291D01*
X199011003Y-119778071D01*
X199020437Y-119772850D01*
X199030878Y-119766530D01*
X199001569Y-119777063D01*
X198967955Y-119783291D01*
X198978488Y-119777063D01*
X198986823Y-119768728D01*
X198987922Y-119765614D01*
X198991036Y-119766622D01*
X199002950Y-119764586D01*
X199003171Y-119764241D01*
X199058080Y-119764241D01*
X199060095Y-119769461D01*
X199064309Y-119764241D01*
X199062202Y-119758928D01*
X199058080Y-119764241D01*
X199003171Y-119764241D01*
X199005690Y-119760302D01*
X199006789Y-119757188D01*
X199014117Y-119751876D01*
X199022243Y-119746380D01*
X199076948Y-119746380D01*
X199076948Y-119752608D01*
X199085283Y-119750502D01*
X199086382Y-119745373D01*
X199076948Y-119746380D01*
X199022243Y-119746380D01*
X199024900Y-119744583D01*
X199022543Y-119737313D01*
X199016223Y-119735206D01*
X199007797Y-119739419D01*
X199002576Y-119743633D01*
X199002576Y-119737313D01*
X199014117Y-119730993D01*
X199015443Y-119730239D01*
X199027008Y-119730239D01*
X199028771Y-119739419D01*
X199032984Y-119738412D01*
X199038461Y-119733741D01*
X199089496Y-119733741D01*
X199091603Y-119737954D01*
X199096823Y-119733741D01*
X199095770Y-119731634D01*
X199112577Y-119731634D01*
X199120912Y-119729528D01*
X199129338Y-119723208D01*
X199120912Y-119725314D01*
X199112577Y-119731634D01*
X199095770Y-119731634D01*
X199094717Y-119729528D01*
X199089496Y-119733741D01*
X199038461Y-119733741D01*
X199039213Y-119733100D01*
X199047639Y-119730993D01*
X199043426Y-119726780D01*
X199039304Y-119726780D01*
X199027008Y-119730239D01*
X199015443Y-119730239D01*
X199028771Y-119722658D01*
X199050339Y-119706998D01*
X199053959Y-119710110D01*
X199058172Y-119712217D01*
X199058172Y-119708553D01*
X199139780Y-119708553D01*
X199141886Y-119712766D01*
X199146099Y-119708553D01*
X199143993Y-119704340D01*
X199139780Y-119708553D01*
X199058172Y-119708553D01*
X199058172Y-119701775D01*
X199051852Y-119699669D01*
X199054479Y-119696204D01*
X199150871Y-119696204D01*
X199156724Y-119697562D01*
X199162952Y-119693349D01*
X199158739Y-119691334D01*
X199150871Y-119696204D01*
X199054479Y-119696204D01*
X199058172Y-119691334D01*
X199066507Y-119681900D01*
X199075941Y-119665231D01*
X199087481Y-119640135D01*
X199086127Y-119628777D01*
X199193360Y-119628777D01*
X199194460Y-119637112D01*
X199199098Y-119632991D01*
X199217357Y-119632991D01*
X199222578Y-119639219D01*
X199227890Y-119630884D01*
X199225784Y-119625663D01*
X199223677Y-119624564D01*
X199217357Y-119632991D01*
X199199098Y-119632991D01*
X199199818Y-119632351D01*
X199202794Y-119607711D01*
X199198581Y-119597270D01*
X199194368Y-119609910D01*
X199193360Y-119628777D01*
X199086127Y-119628777D01*
X199085837Y-119626349D01*
X199076948Y-119617054D01*
X199059180Y-119604597D01*
X199038205Y-119597270D01*
X199004683Y-119587836D01*
X198977389Y-119582615D01*
X198967955Y-119580509D01*
X198955407Y-119578402D01*
X198944965Y-119578402D01*
X198938646Y-119570067D01*
X198942859Y-119565854D01*
X198955407Y-119565854D01*
X198981693Y-119570067D01*
X199003675Y-119576387D01*
X199026665Y-119584722D01*
X199055974Y-119596354D01*
X199083268Y-119597362D01*
X199087379Y-119593637D01*
X199099022Y-119594248D01*
X199123110Y-119603681D01*
X199135750Y-119607803D01*
X199129092Y-119598466D01*
X199093801Y-119580509D01*
X199049697Y-119564650D01*
X198982701Y-119550284D01*
X198867296Y-119538652D01*
X198856763Y-119535263D01*
X198845223Y-119531874D01*
X198832675Y-119526195D01*
X198821226Y-119526195D01*
X198806480Y-119527294D01*
X198810693Y-119518227D01*
X198816493Y-119511266D01*
X198823333Y-119511266D01*
X198834358Y-119514913D01*
X198936539Y-119530134D01*
X198993142Y-119542773D01*
X199049746Y-119558527D01*
X199089588Y-119572174D01*
X199109995Y-119579118D01*
X199125217Y-119578402D01*
X199097158Y-119564740D01*
X199016223Y-119540667D01*
X198928272Y-119521219D01*
X198856855Y-119511266D01*
X198839086Y-119510258D01*
X198827546Y-119510258D01*
X198823333Y-119511266D01*
X198816493Y-119511266D01*
X198818020Y-119509434D01*
X198806480Y-119509434D01*
X198789719Y-119505221D01*
X198779835Y-119497880D01*
X198777079Y-119505221D01*
X198771858Y-119511541D01*
X198766638Y-119505221D01*
X198760409Y-119498901D01*
X198751983Y-119505221D01*
X198745068Y-119509114D01*
X198711042Y-119511541D01*
X198667994Y-119511541D01*
X198640792Y-119511541D01*
X198615604Y-119515754D01*
X198598843Y-119521891D01*
X198587008Y-119524181D01*
X198584097Y-119529309D01*
X198578876Y-119532424D01*
X198569442Y-119528210D01*
X198565229Y-119528210D01*
X198566328Y-119517769D01*
X198566770Y-119514380D01*
X198577960Y-119514380D01*
X198584280Y-119515388D01*
X198590508Y-119511174D01*
X198584280Y-119510167D01*
X198577960Y-119514380D01*
X198566770Y-119514380D01*
X198567427Y-119509343D01*
X198563214Y-119513556D01*
X198554788Y-119517769D01*
X198552681Y-119515662D01*
X198559527Y-119510115D01*
X198554788Y-119507236D01*
X198546361Y-119507236D01*
X198531707Y-119515662D01*
X198523372Y-119521891D01*
X198521265Y-119513647D01*
X198514945Y-119504213D01*
X198503405Y-119505221D01*
X198422622Y-119511541D01*
X198355722Y-119508763D01*
X198347151Y-119505221D01*
X198345044Y-119503114D01*
X198334603Y-119507328D01*
X198326176Y-119511358D01*
X198332496Y-119515296D01*
X198336612Y-119517540D01*
X198332496Y-119526653D01*
X198326176Y-119528577D01*
X198311522Y-119532332D01*
X198311522Y-119530225D01*
X198315152Y-119522885D01*
X198309415Y-119517769D01*
X198303095Y-119515662D01*
X198311522Y-119513556D01*
X198319856Y-119509434D01*
X198303095Y-119505313D01*
X198290547Y-119507419D01*
X198290547Y-119570067D01*
X198287454Y-119626121D01*
X198282121Y-119641142D01*
X198262028Y-119655607D01*
X198219198Y-119666238D01*
X198192718Y-119675265D01*
X198200330Y-119685197D01*
X198212400Y-119692150D01*
X198208756Y-119693532D01*
X198198407Y-119691517D01*
X198183770Y-119687023D01*
X198170105Y-119690418D01*
X198147024Y-119694631D01*
X198126050Y-119680984D01*
X198114509Y-119664131D01*
X198108189Y-119651584D01*
X198105075Y-119646363D01*
X198114509Y-119645264D01*
X198120737Y-119628594D01*
X198117239Y-119599641D01*
X198108098Y-119580417D01*
X198103583Y-119576459D01*
X198093443Y-119530317D01*
X198087215Y-119511541D01*
X198051586Y-119509434D01*
X198034825Y-119507328D01*
X198028505Y-119498993D01*
X198030612Y-119498993D01*
X198039038Y-119496886D01*
X198057906Y-119492765D01*
X198057348Y-119492215D01*
X198076865Y-119492215D01*
X198081079Y-119494322D01*
X198942859Y-119494322D01*
X199009904Y-119512182D01*
X199085375Y-119536362D01*
X199113676Y-119542682D01*
X199137856Y-119556329D01*
X199159838Y-119569976D01*
X199179713Y-119582524D01*
X199194460Y-119590950D01*
X199190246Y-119582524D01*
X199188140Y-119575197D01*
X199193360Y-119564755D01*
X199190246Y-119555230D01*
X199187041Y-119555230D01*
X199186033Y-119563656D01*
X199186033Y-119574189D01*
X199169272Y-119559443D01*
X199129172Y-119534439D01*
X199192353Y-119534439D01*
X199198581Y-119549093D01*
X199200688Y-119544972D01*
X199192353Y-119534439D01*
X199129172Y-119534439D01*
X199122954Y-119530562D01*
X199039304Y-119506961D01*
X198962734Y-119491208D01*
X198942859Y-119490200D01*
X198942859Y-119494322D01*
X198081079Y-119494322D01*
X198087307Y-119492215D01*
X198076865Y-119492215D01*
X198057348Y-119492215D01*
X198051586Y-119486536D01*
X198020170Y-119486536D01*
X198001303Y-119490658D01*
X198007622Y-119492765D01*
X198005516Y-119496978D01*
X197994983Y-119495970D01*
X198001303Y-119502290D01*
X198006615Y-119507511D01*
X197997090Y-119505404D01*
X197978222Y-119499084D01*
X197963570Y-119495100D01*
X197909071Y-119492765D01*
X197871335Y-119488643D01*
X197867122Y-119490750D01*
X197887089Y-119496978D01*
X197927938Y-119505313D01*
X197967780Y-119509434D01*
X197979321Y-119510533D01*
X197974009Y-119519876D01*
X197962560Y-119521982D01*
X197937372Y-119517769D01*
X197913284Y-119512548D01*
X197898538Y-119509434D01*
X197892309Y-119505221D01*
X197893317Y-119503206D01*
X197890203Y-119503206D01*
X197880769Y-119501099D01*
X197874449Y-119501099D01*
X197858695Y-119501099D01*
X197846147Y-119494871D01*
X197844041Y-119484430D01*
X197848254Y-119484430D01*
X197860802Y-119486536D01*
X197854429Y-119481774D01*
X198915473Y-119481774D01*
X198917580Y-119485987D01*
X198921793Y-119481774D01*
X198919686Y-119477560D01*
X198915473Y-119481774D01*
X197854429Y-119481774D01*
X197852467Y-119480308D01*
X197842903Y-119474578D01*
X197837721Y-119478293D01*
X197827294Y-119482989D01*
X197806305Y-119476187D01*
X197787438Y-119472065D01*
X197766768Y-119467442D01*
X197741276Y-119451182D01*
X197739261Y-119446969D01*
X197741801Y-119442615D01*
X197739469Y-119440873D01*
X198866182Y-119440873D01*
X198877738Y-119446053D01*
X198895544Y-119450845D01*
X198898712Y-119448160D01*
X198887539Y-119443947D01*
X198905032Y-119443947D01*
X198907138Y-119446053D01*
X198913367Y-119443947D01*
X198905032Y-119443947D01*
X198887539Y-119443947D01*
X198881951Y-119441840D01*
X198866182Y-119440873D01*
X197739469Y-119440873D01*
X197730834Y-119434421D01*
X197718286Y-119428193D01*
X197716180Y-119432314D01*
X197684672Y-119411432D01*
X197670018Y-119403005D01*
X197621841Y-119362339D01*
X197567344Y-119304820D01*
X197552598Y-119284029D01*
X197542157Y-119260948D01*
X197537539Y-119221770D01*
X197545844Y-119187680D01*
X197567344Y-119156442D01*
X197586212Y-119133453D01*
X197644830Y-119133453D01*
X197698568Y-119136128D01*
G37*
G36*
X199079146Y-119787505D02*
G01*
X199062294Y-119795839D01*
X199056930Y-119794185D01*
X199066507Y-119787505D01*
X199077040Y-119785398D01*
X199089588Y-119781185D01*
X199079146Y-119787505D01*
G37*
G36*
X198948574Y-119771113D02*
G01*
X198942767Y-119777888D01*
X198937547Y-119779903D01*
X198938554Y-119775781D01*
X198944874Y-119769461D01*
X198948574Y-119771113D01*
G37*
G36*
X198976381Y-119767355D02*
G01*
X198970153Y-119771568D01*
X198958613Y-119768454D01*
X198961727Y-119761035D01*
X198972825Y-119757396D01*
X198976381Y-119767355D01*
G37*
G36*
X198995157Y-119746380D02*
G01*
X198988929Y-119750502D01*
X198982609Y-119749494D01*
X198988929Y-119745373D01*
X198995157Y-119746380D01*
G37*
G36*
X199186033Y-119701775D02*
G01*
X199181820Y-119699669D01*
X199192353Y-119693349D01*
X199196475Y-119693349D01*
X199186033Y-119701775D01*
G37*
G36*
X199246758Y-119699119D02*
G01*
X199240438Y-119700127D01*
X199246758Y-119693807D01*
X199253078Y-119692799D01*
X199246758Y-119699119D01*
G37*
G36*
X199261413Y-119680252D02*
G01*
X199253078Y-119683366D01*
X199261413Y-119673932D01*
X199269839Y-119670726D01*
X199261413Y-119680252D01*
G37*
G36*
X199248865Y-119649752D02*
G01*
X199242545Y-119661292D01*
X199234118Y-119663399D01*
X199236225Y-119651858D01*
X199244651Y-119643432D01*
X199248865Y-119649752D01*
G37*
G36*
X199271946Y-119654972D02*
G01*
X199268740Y-119662300D01*
X199265626Y-119654972D01*
X199268740Y-119647645D01*
X199271946Y-119654972D01*
G37*
G36*
X198837896Y-119565763D02*
G01*
X198833774Y-119567869D01*
X198829561Y-119562649D01*
X198833774Y-119560542D01*
X198837896Y-119565763D01*
G37*
G36*
X198932234Y-119562649D02*
G01*
X198923900Y-119567869D01*
X198915473Y-119564755D01*
X198923900Y-119559443D01*
X198932234Y-119562649D01*
G37*
G36*
X198888271Y-119559534D02*
G01*
X198898712Y-119565854D01*
X198879844Y-119563748D01*
X198867296Y-119557428D01*
X198888271Y-119559534D01*
G37*
G36*
X198653431Y-119555230D02*
G01*
X198649218Y-119559443D01*
X198645005Y-119555230D01*
X198649218Y-119551017D01*
X198653431Y-119555230D01*
G37*
G36*
X198668086Y-119555230D02*
G01*
X198662865Y-119559443D01*
X198657644Y-119555230D01*
X198662865Y-119551017D01*
X198668086Y-119555230D01*
G37*
G36*
X198851543Y-119554222D02*
G01*
X198852642Y-119559443D01*
X198845314Y-119556329D01*
X198844215Y-119551017D01*
X198851543Y-119554222D01*
G37*
G36*
X198756196Y-119546803D02*
G01*
X198751983Y-119551017D01*
X198716354Y-119557336D01*
X198707928Y-119555230D01*
X198722674Y-119549002D01*
X198745755Y-119543781D01*
X198756196Y-119546803D01*
G37*
G36*
X198802267Y-119557336D02*
G01*
X198798053Y-119555230D01*
X198806480Y-119555230D01*
X198802267Y-119557336D01*
G37*
G36*
X198684847Y-119555230D02*
G01*
X198680725Y-119556329D01*
X198676512Y-119552116D01*
X198680725Y-119551017D01*
X198684847Y-119555230D01*
G37*
G36*
X198357775Y-119548910D02*
G01*
X198343121Y-119555230D01*
X198337909Y-119553777D01*
X198343121Y-119548910D01*
X198351547Y-119546803D01*
X198361988Y-119543781D01*
X198357775Y-119548910D01*
G37*
G36*
X198410257Y-119553123D02*
G01*
X198401830Y-119555230D01*
X198393404Y-119551017D01*
X198401830Y-119548910D01*
X198410257Y-119553123D01*
G37*
G36*
X198370323Y-119542865D02*
G01*
X198372338Y-119538652D01*
X198376551Y-119538652D01*
X198370323Y-119542865D01*
G37*
G36*
X198739344Y-119521891D02*
G01*
X198713148Y-119529218D01*
X198674314Y-119532332D01*
X198659568Y-119532332D01*
X198661674Y-119530683D01*
X198665887Y-119523997D01*
X198667994Y-119523997D01*
X198686862Y-119523997D01*
X198721833Y-119518191D01*
X198739344Y-119521891D01*
G37*
G36*
X198399815Y-119525829D02*
G01*
X198387176Y-119532149D01*
X198391389Y-119525829D01*
X198403937Y-119519509D01*
X198399815Y-119525829D01*
G37*
G36*
X198772866Y-119519876D02*
G01*
X198778631Y-119525951D01*
X198774881Y-119530409D01*
X198766546Y-119525188D01*
X198762333Y-119526195D01*
X198758120Y-119526195D01*
X198761310Y-119519633D01*
X198772866Y-119519876D01*
G37*
G36*
X198431231Y-119519601D02*
G01*
X198427018Y-119523722D01*
X198426010Y-119519601D01*
X198430224Y-119515388D01*
X198431231Y-119519601D01*
G37*
G36*
X198477301Y-119519509D02*
G01*
X198473088Y-119517403D01*
X198481515Y-119517403D01*
X198477301Y-119519509D01*
G37*
G36*
X199158986Y-119503087D02*
G01*
X199158506Y-119502819D01*
X199158647Y-119502748D01*
X199158986Y-119503087D01*
G37*
G36*
X198689243Y-118078507D02*
G01*
X198718644Y-118082720D01*
X198754273Y-118092978D01*
X198797229Y-118103237D01*
X198837071Y-118112670D01*
X198860061Y-118122013D01*
X198890377Y-118136118D01*
X198927783Y-118151308D01*
X198934433Y-118145552D01*
X198939449Y-118141804D01*
X198949087Y-118150131D01*
X198962734Y-118150131D01*
X198967432Y-118147565D01*
X198967955Y-118137583D01*
X198968046Y-118130256D01*
X198984808Y-118146010D01*
X199000947Y-118167749D01*
X199005690Y-118187500D01*
X199001724Y-118211284D01*
X198985082Y-118258117D01*
X198967953Y-118284928D01*
X198938371Y-118311057D01*
X198902803Y-118331551D01*
X198864823Y-118345220D01*
X198832956Y-118360486D01*
X198823333Y-118386711D01*
X198848428Y-118406586D01*
X198871418Y-118425454D01*
X198875631Y-118428568D01*
X198904940Y-118445238D01*
X198940690Y-118480536D01*
X198963467Y-118522540D01*
X198977114Y-118551758D01*
X198993875Y-118590409D01*
X199007339Y-118624848D01*
X199011552Y-118666613D01*
X199005232Y-118725140D01*
X198992169Y-118766872D01*
X198966581Y-118815998D01*
X198934836Y-118859967D01*
X198908970Y-118883776D01*
X198853376Y-118914896D01*
X198810601Y-118931861D01*
X198747770Y-118948622D01*
X198709351Y-118955934D01*
X198641066Y-118959063D01*
X198571263Y-118954932D01*
X198521723Y-118944226D01*
X198468214Y-118925649D01*
X198402380Y-118895499D01*
X198340480Y-118859940D01*
X198271496Y-118806564D01*
X198211793Y-118747369D01*
X198184576Y-118706913D01*
X198138598Y-118594623D01*
X198132278Y-118537470D01*
X198132278Y-118497170D01*
X198154563Y-118453572D01*
X198257208Y-118453572D01*
X198259315Y-118477386D01*
X198266642Y-118493964D01*
X198278183Y-118521991D01*
X198325352Y-118565497D01*
X198391389Y-118606896D01*
X198427018Y-118627687D01*
X198456419Y-118639044D01*
X198496169Y-118654523D01*
X198560488Y-118675142D01*
X198665979Y-118683558D01*
X198710675Y-118680424D01*
X198735222Y-118673116D01*
X198774119Y-118643852D01*
X198782711Y-118615455D01*
X198766638Y-118581342D01*
X198741740Y-118555892D01*
X198689060Y-118516587D01*
X198584280Y-118456045D01*
X198484060Y-118416119D01*
X198447992Y-118408052D01*
X198403937Y-118418310D01*
X198361448Y-118432929D01*
X198320040Y-118430858D01*
X198278552Y-118423319D01*
X198265543Y-118426645D01*
X198257208Y-118453572D01*
X198154563Y-118453572D01*
X198161679Y-118439651D01*
X198165479Y-118432598D01*
X198194285Y-118432598D01*
X198200605Y-118422065D01*
X198206833Y-118406311D01*
X198206833Y-118398984D01*
X198198498Y-118413639D01*
X198194285Y-118432598D01*
X198165479Y-118432598D01*
X198188807Y-118389296D01*
X198201338Y-118375812D01*
X198217125Y-118363258D01*
X198220205Y-118350166D01*
X198226525Y-118341740D01*
X198233944Y-118336427D01*
X198232845Y-118324612D01*
X198226525Y-118314079D01*
X198219124Y-118296251D01*
X198230738Y-118273504D01*
X198247694Y-118261155D01*
X198272595Y-118252347D01*
X198327868Y-118243869D01*
X198375177Y-118248134D01*
X198448476Y-118259370D01*
X198507069Y-118258575D01*
X198571458Y-118254296D01*
X198634838Y-118241447D01*
X198691060Y-118221988D01*
X198714339Y-118207009D01*
X198722674Y-118185577D01*
X198712378Y-118158157D01*
X198674170Y-118130129D01*
X198613768Y-118110197D01*
X198800252Y-118110197D01*
X198810785Y-118120639D01*
X198855811Y-118144600D01*
X198873616Y-118145826D01*
X198876456Y-118142858D01*
X198866380Y-118134377D01*
X198845406Y-118124852D01*
X198821226Y-118116517D01*
X198800252Y-118110197D01*
X198613768Y-118110197D01*
X198586570Y-118101222D01*
X198574022Y-118097100D01*
X198578235Y-118092978D01*
X198592889Y-118092978D01*
X198611757Y-118090872D01*
X198606743Y-118084987D01*
X198580341Y-118078507D01*
X198569319Y-118073185D01*
X198578235Y-118065867D01*
X198584463Y-118063761D01*
X198618986Y-118062481D01*
X198689243Y-118078507D01*
G37*
G36*
X198921243Y-116853751D02*
G01*
X198924357Y-116860071D01*
X198932692Y-116867490D01*
X198928571Y-116874817D01*
X198925457Y-116879030D01*
X198933791Y-116881045D01*
X198941119Y-116887365D01*
X198939012Y-116900005D01*
X198940111Y-116902111D01*
X198943225Y-116902111D01*
X198947438Y-116906324D01*
X198952659Y-116917865D01*
X198958979Y-116933619D01*
X198964200Y-116950380D01*
X198966306Y-116962928D01*
X198970519Y-116971354D01*
X198974641Y-116980880D01*
X198983067Y-117002953D01*
X198989387Y-117017608D01*
X198993600Y-117043803D01*
X198999829Y-117094086D01*
X199004042Y-117120281D01*
X199008163Y-117114053D01*
X199011369Y-117108832D01*
X199018696Y-117111946D01*
X199016590Y-117116068D01*
X199016590Y-117124494D01*
X199016590Y-117178075D01*
X199014483Y-117227260D01*
X199014787Y-117235528D01*
X199004042Y-117258767D01*
X198976748Y-117296594D01*
X198940981Y-117319466D01*
X198881531Y-117336010D01*
X198788070Y-117342664D01*
X198700815Y-117339268D01*
X198630808Y-117330025D01*
X198574205Y-117319492D01*
X198547002Y-117311157D01*
X198470725Y-117280019D01*
X198454678Y-117277543D01*
X198410715Y-117264903D01*
X198311701Y-117232816D01*
X198254554Y-117224344D01*
X198224052Y-117229183D01*
X198211664Y-117242930D01*
X198209398Y-117275436D01*
X198217824Y-117305845D01*
X198232479Y-117335245D01*
X198242920Y-117344679D01*
X198251346Y-117347885D01*
X198247133Y-117349900D01*
X198242920Y-117350907D01*
X198248232Y-117360250D01*
X198257666Y-117361257D01*
X198259681Y-117367485D01*
X198259681Y-117373714D01*
X198260780Y-117376828D01*
X198261788Y-117375729D01*
X198284869Y-117394505D01*
X198368766Y-117463839D01*
X198412537Y-117490083D01*
X198433704Y-117495988D01*
X198451564Y-117499193D01*
X198481973Y-117508627D01*
X198553467Y-117527080D01*
X198630808Y-117554789D01*
X198691625Y-117577870D01*
X198813258Y-117628337D01*
X198825806Y-117632550D01*
X198840552Y-117640976D01*
X198859419Y-117646197D01*
X198872975Y-117647205D01*
X198892850Y-117653524D01*
X198904482Y-117655631D01*
X198907596Y-117661951D01*
X198916023Y-117666072D01*
X198925151Y-117668111D01*
X198934890Y-117680819D01*
X198951652Y-117701793D01*
X198959986Y-117711318D01*
X198966306Y-117714432D01*
X198980961Y-117718646D01*
X198981968Y-117724874D01*
X198974641Y-117730186D01*
X198985174Y-117744841D01*
X199004042Y-117756381D01*
X199001935Y-117762701D01*
X198995615Y-117769021D01*
X199001935Y-117775340D01*
X199017689Y-117794208D01*
X199020803Y-117808863D01*
X199006148Y-117816282D01*
X198997036Y-117821464D01*
X198995615Y-117829929D01*
X198992501Y-117841469D01*
X198966306Y-117850903D01*
X198951652Y-117864550D01*
X198942822Y-117872907D01*
X198926464Y-117876091D01*
X198892850Y-117869771D01*
X198876089Y-117863543D01*
X198883416Y-117870870D01*
X198891843Y-117880304D01*
X198882409Y-117882410D01*
X198867754Y-117886624D01*
X198862552Y-117890208D01*
X198842567Y-117889829D01*
X198818478Y-117886624D01*
X198812158Y-117874076D01*
X198799610Y-117861436D01*
X198779735Y-117854109D01*
X198748228Y-117844583D01*
X198729360Y-117838355D01*
X198716812Y-117815183D01*
X198704173Y-117787980D01*
X198658102Y-117773325D01*
X198588859Y-117748138D01*
X198520679Y-117726901D01*
X198507160Y-117727072D01*
X198506153Y-117730278D01*
X198511282Y-117731285D01*
X198553230Y-117743925D01*
X198594172Y-117760686D01*
X198591058Y-117762793D01*
X198555429Y-117752351D01*
X198473546Y-117724965D01*
X198364092Y-117695766D01*
X198324711Y-117693458D01*
X198313262Y-117706098D01*
X198316376Y-117729179D01*
X198323850Y-117750393D01*
X198320498Y-117760686D01*
X198306942Y-117752351D01*
X198294394Y-117746031D01*
X198280747Y-117747039D01*
X198261879Y-117747039D01*
X198232479Y-117738612D01*
X198212533Y-117724994D01*
X198201063Y-117709303D01*
X198191957Y-117695236D01*
X198186317Y-117693458D01*
X198179081Y-117694557D01*
X198180088Y-117689336D01*
X198185257Y-117656398D01*
X198180088Y-117638870D01*
X198172204Y-117609698D01*
X198182195Y-117569719D01*
X198205330Y-117540050D01*
X198247133Y-117513024D01*
X198268541Y-117501549D01*
X198274427Y-117494064D01*
X198271313Y-117480417D01*
X198236692Y-117437461D01*
X198180035Y-117359741D01*
X198144871Y-117288216D01*
X198127607Y-117221306D01*
X198127255Y-117174842D01*
X198138140Y-117136218D01*
X198159260Y-117105923D01*
X198186317Y-117091064D01*
X198213823Y-117087948D01*
X198269207Y-117091064D01*
X198352005Y-117105810D01*
X198393862Y-117124678D01*
X198428483Y-117140431D01*
X198437917Y-117147758D01*
X198442131Y-117148858D01*
X198465211Y-117151972D01*
X198553356Y-117179090D01*
X198624488Y-117194012D01*
X198706279Y-117202347D01*
X198721025Y-117205552D01*
X198735680Y-117206560D01*
X198817379Y-117198134D01*
X198849303Y-117178814D01*
X198873982Y-117149865D01*
X198888729Y-117135211D01*
X198878287Y-117161406D01*
X198855206Y-117196119D01*
X198839453Y-117207659D01*
X198831026Y-117212880D01*
X198825806Y-117216085D01*
X198823005Y-117213369D01*
X198808037Y-117214986D01*
X198784956Y-117218192D01*
X198739801Y-117219200D01*
X198704173Y-117223413D01*
X198714706Y-117225428D01*
X198720934Y-117227534D01*
X198725147Y-117233854D01*
X198735680Y-117229641D01*
X198739801Y-117232847D01*
X198745114Y-117240174D01*
X198755555Y-117232847D01*
X198777537Y-117225428D01*
X198793291Y-117227534D01*
X198796405Y-117233854D01*
X198801717Y-117239166D01*
X198808037Y-117231748D01*
X198809733Y-117227394D01*
X198819486Y-117225428D01*
X198845295Y-117220362D01*
X198869861Y-117204453D01*
X198892639Y-117175833D01*
X198911718Y-117126784D01*
X198922251Y-117107916D01*
X198916023Y-117134111D01*
X198908695Y-117156185D01*
X198894957Y-117185586D01*
X198873098Y-117220528D01*
X198861434Y-117227534D01*
X198840460Y-117238067D01*
X198832125Y-117246494D01*
X198848886Y-117242280D01*
X198879873Y-117229756D01*
X198908201Y-117195828D01*
X198931965Y-117134111D01*
X198999371Y-117134111D01*
X199003584Y-117142446D01*
X199007705Y-117134111D01*
X199003584Y-117125685D01*
X198999371Y-117134111D01*
X198931965Y-117134111D01*
X198933975Y-117128891D01*
X198941119Y-117057541D01*
X198939012Y-116977674D01*
X198939012Y-116963935D01*
X198948995Y-116963935D01*
X198953209Y-116980788D01*
X198961635Y-116993336D01*
X198960628Y-116985001D01*
X198955315Y-116968240D01*
X198951102Y-116957707D01*
X198948995Y-116963935D01*
X198939012Y-116963935D01*
X198939012Y-116960913D01*
X198947438Y-116954593D01*
X198948926Y-116941997D01*
X198939012Y-116914659D01*
X198934799Y-116902111D01*
X198931685Y-116895791D01*
X198923350Y-116882144D01*
X198917030Y-116857964D01*
X198920144Y-116847431D01*
X198921243Y-116853751D01*
G37*
G36*
X198760318Y-117862810D02*
G01*
X198756196Y-117867023D01*
X198751983Y-117862810D01*
X198756196Y-117858597D01*
X198760318Y-117862810D01*
G37*
G36*
X198657644Y-117787156D02*
G01*
X198649218Y-117787156D01*
X198639969Y-117783013D01*
X198642898Y-117780836D01*
X198649218Y-117780836D01*
X198657644Y-117787156D01*
G37*
G36*
X198903383Y-117097383D02*
G01*
X198897063Y-117114145D01*
X198892850Y-117114145D01*
X198899170Y-117095277D01*
X198905490Y-117084744D01*
X198903383Y-117097383D01*
G37*
G36*
X199011919Y-117085751D02*
G01*
X199007705Y-117094178D01*
X199005690Y-117084744D01*
X199011919Y-117085751D01*
G37*
G36*
X198930128Y-117079523D02*
G01*
X198926006Y-117085751D01*
X198921793Y-117081630D01*
X198926006Y-117075310D01*
X198930128Y-117079523D01*
G37*
G36*
X199011919Y-117068990D02*
G01*
X199007797Y-117073203D01*
X199003584Y-117064777D01*
X199007797Y-117060564D01*
X199011919Y-117068990D01*
G37*
G36*
X198997264Y-117012295D02*
G01*
X199003584Y-117025942D01*
X199007705Y-117034369D01*
X199001477Y-117031163D01*
X198995157Y-117014402D01*
X198995157Y-117007075D01*
X198997264Y-117012295D01*
G37*
G36*
X198982609Y-116932519D02*
G01*
X198978396Y-116934534D01*
X198974183Y-116930413D01*
X198978396Y-116928306D01*
X198982609Y-116932519D01*
G37*
G36*
X198930128Y-116930413D02*
G01*
X198926006Y-116932519D01*
X198921793Y-116926200D01*
X198926006Y-116924093D01*
X198930128Y-116930413D01*
G37*
G36*
X198911260Y-116888373D02*
G01*
X198922892Y-116908339D01*
X198923900Y-116913560D01*
X198912359Y-116902020D01*
X198905032Y-116882053D01*
X198909245Y-116879946D01*
X198911260Y-116888373D01*
G37*
G36*
X198900819Y-116866391D02*
G01*
X198896605Y-116865292D01*
X198896605Y-116854759D01*
X198900819Y-116866391D01*
G37*
G36*
X198886164Y-116824350D02*
G01*
X198886164Y-116831678D01*
X198879844Y-116829571D01*
X198879844Y-116819038D01*
X198886164Y-116824350D01*
G37*
G36*
X198893491Y-116809696D02*
G01*
X198894590Y-116814917D01*
X198887263Y-116812810D01*
X198886164Y-116807589D01*
X198893491Y-116809696D01*
G37*
G36*
X198873616Y-116784417D02*
G01*
X198884057Y-116800170D01*
X198871509Y-116791744D01*
X198858563Y-116775577D01*
X198860976Y-116772876D01*
X198873616Y-116784417D01*
G37*
G36*
X198838995Y-116746681D02*
G01*
X198844215Y-116758222D01*
X198826447Y-116754008D01*
X198817013Y-116743476D01*
X198829561Y-116749795D01*
X198833774Y-116754008D01*
X198837896Y-116749795D01*
X198831667Y-116743476D01*
X198829561Y-116739262D01*
X198838995Y-116746681D01*
G37*
G36*
X198050670Y-115327936D02*
G01*
X198088406Y-115348910D01*
X198112494Y-115366770D01*
X198110388Y-115371991D01*
X198062211Y-115342590D01*
X198045450Y-115334164D01*
X198037023Y-115323722D01*
X198050670Y-115327936D01*
G37*
G36*
X198661857Y-115178825D02*
G01*
X198651325Y-115184046D01*
X198657644Y-115172506D01*
X198668086Y-115167285D01*
X198661857Y-115178825D01*
G37*
G36*
X198157282Y-114275463D02*
G01*
X198155472Y-114287941D01*
X198160396Y-114296437D01*
X198166625Y-114312191D01*
X198166716Y-114316404D01*
X198175051Y-114314297D01*
X198185492Y-114307977D01*
X198199139Y-114294422D01*
X198215901Y-114287003D01*
X198229548Y-114294422D01*
X198231654Y-114305871D01*
X198233761Y-114316404D01*
X198246400Y-114322724D01*
X198254735Y-114325929D01*
X198265268Y-114345896D01*
X198276143Y-114356308D01*
X198284136Y-114356338D01*
X198296775Y-114354231D01*
X198304103Y-114350018D01*
X198312529Y-114343698D01*
X198325077Y-114358444D01*
X198329290Y-114377312D01*
X198330298Y-114381525D01*
X198337267Y-114380048D01*
X198353379Y-114366779D01*
X198368939Y-114356835D01*
X198375361Y-114358444D01*
X198377252Y-114364431D01*
X198372247Y-114370992D01*
X198368033Y-114385738D01*
X198380581Y-114386837D01*
X198383787Y-114394165D01*
X198376460Y-114400393D01*
X198374353Y-114407812D01*
X198378475Y-114436113D01*
X198382665Y-114501063D01*
X198389557Y-114515889D01*
X198393685Y-114527183D01*
X198396060Y-114568737D01*
X198399271Y-114609216D01*
X198404487Y-114617280D01*
X198409799Y-114616273D01*
X198408700Y-114611144D01*
X198410806Y-114604000D01*
X198414928Y-114607022D01*
X198418285Y-114611666D01*
X198433887Y-114605007D01*
X198469365Y-114583546D01*
X198509450Y-114568004D01*
X198547369Y-114557746D01*
X198583163Y-114552223D01*
X198671291Y-114549503D01*
X198759093Y-114553023D01*
X198793107Y-114560036D01*
X198805655Y-114562051D01*
X198797229Y-114555823D01*
X198784681Y-114545290D01*
X198788894Y-114538970D01*
X198809869Y-114541077D01*
X198844490Y-114547396D01*
X198849711Y-114547396D01*
X198857038Y-114546389D01*
X198870685Y-114551610D01*
X198881127Y-114557929D01*
X198907413Y-114571577D01*
X198924520Y-114572187D01*
X198921793Y-114570844D01*
X198916572Y-114567638D01*
X198905032Y-114564524D01*
X198896605Y-114558296D01*
X198905032Y-114557197D01*
X198920832Y-114563940D01*
X198926887Y-114572272D01*
X198935623Y-114572584D01*
X198946156Y-114572584D01*
X198952476Y-114574691D01*
X198956598Y-114578904D01*
X198981785Y-114598962D01*
X199013201Y-114614716D01*
X199010087Y-114606290D01*
X199005874Y-114594657D01*
X199014300Y-114598871D01*
X199023734Y-114606290D01*
X199025840Y-114614716D01*
X199031061Y-114626256D01*
X199050936Y-114646223D01*
X199069804Y-114662984D01*
X199084325Y-114671178D01*
X199125400Y-114716565D01*
X199160176Y-114765778D01*
X199162036Y-114776557D01*
X199155808Y-114772344D01*
X199147382Y-114770146D01*
X199145275Y-114770146D01*
X199145275Y-114763918D01*
X199136940Y-114738639D01*
X199109646Y-114713451D01*
X199103326Y-114707223D01*
X199090778Y-114695591D01*
X199077131Y-114682951D01*
X199067698Y-114675624D01*
X199065591Y-114679746D01*
X199057256Y-114673517D01*
X199043609Y-114662984D01*
X199017414Y-114648330D01*
X198990655Y-114631534D01*
X198988105Y-114633584D01*
X199006973Y-114656665D01*
X199092885Y-114740837D01*
X199136940Y-114793410D01*
X199136455Y-114810972D01*
X199132727Y-114814384D01*
X199128514Y-114812278D01*
X199116974Y-114810171D01*
X199101220Y-114814384D01*
X199084459Y-114826017D01*
X199069804Y-114837557D01*
X199065591Y-114839664D01*
X199076124Y-114850197D01*
X199076124Y-114856425D01*
X199069804Y-114852303D01*
X199057256Y-114841770D01*
X199053043Y-114835450D01*
X199047731Y-114837557D01*
X199046723Y-114845983D01*
X199044617Y-114854410D01*
X199033168Y-114855417D01*
X199022726Y-114855417D01*
X199023734Y-114860821D01*
X199024741Y-114881704D01*
X199018127Y-114890372D01*
X199010087Y-114891504D01*
X199002301Y-114892287D01*
X198997539Y-114899198D01*
X198993011Y-114905212D01*
X198985998Y-114903594D01*
X198972351Y-114902495D01*
X198919961Y-114906891D01*
X198877490Y-114904042D01*
X198862259Y-114898465D01*
X198841243Y-114887425D01*
X198828736Y-114896358D01*
X198830581Y-114911346D01*
X198853924Y-114961571D01*
X198869717Y-114994690D01*
X198876913Y-115020464D01*
X198880119Y-115027792D01*
X198883233Y-115037226D01*
X198885087Y-115046401D01*
X198889553Y-115043545D01*
X198895781Y-115033012D01*
X198899994Y-115020464D01*
X198906405Y-115034506D01*
X198914649Y-115142372D01*
X198912634Y-115170765D01*
X198907413Y-115186519D01*
X198901093Y-115220133D01*
X198892667Y-115239001D01*
X198884332Y-115251640D01*
X198862259Y-115280033D01*
X198843391Y-115307419D01*
X198835056Y-115318960D01*
X198818295Y-115328394D01*
X198809869Y-115344147D01*
X198807762Y-115348360D01*
X198801442Y-115342041D01*
X198803549Y-115335721D01*
X198807762Y-115331508D01*
X198805905Y-115326306D01*
X198799336Y-115331508D01*
X198795214Y-115342041D01*
X198778361Y-115360908D01*
X198763699Y-115372188D01*
X198761600Y-115379868D01*
X198770027Y-115385180D01*
X198766912Y-115397820D01*
X198755372Y-115405147D01*
X198741725Y-115413573D01*
X198728078Y-115421908D01*
X198721758Y-115426121D01*
X198732291Y-115428228D01*
X198740626Y-115424015D01*
X198732291Y-115432533D01*
X198702890Y-115440959D01*
X198665155Y-115453690D01*
X198643173Y-115460101D01*
X198629617Y-115461109D01*
X198615970Y-115467429D01*
X198610658Y-115469535D01*
X198578235Y-115471642D01*
X198543613Y-115476954D01*
X198554055Y-115481167D01*
X198631632Y-115474756D01*
X198661033Y-115470543D01*
X198659934Y-115472649D01*
X198652607Y-115479061D01*
X198644180Y-115487579D01*
X198625313Y-115503424D01*
X198615879Y-115506538D01*
X198593897Y-115515056D01*
X198581349Y-115517163D01*
X198585562Y-115508736D01*
X198589684Y-115502417D01*
X198583456Y-115503516D01*
X198572923Y-115504523D01*
X198560375Y-115500310D01*
X198545720Y-115510843D01*
X198528867Y-115512950D01*
X198520830Y-115508632D01*
X198535187Y-115502417D01*
X198545720Y-115498203D01*
X198568709Y-115489869D01*
X198558268Y-115487762D01*
X198541507Y-115487762D01*
X198508992Y-115490968D01*
X198501665Y-115494082D01*
X198507984Y-115498203D01*
X198513601Y-115500887D01*
X198510000Y-115510843D01*
X198502779Y-115514999D01*
X198479683Y-115517163D01*
X198457275Y-115519168D01*
X198453488Y-115522383D01*
X198448267Y-115519269D01*
X198437826Y-115514049D01*
X198422072Y-115510843D01*
X198407418Y-115505622D01*
X198398991Y-115512950D01*
X198389649Y-115514049D01*
X198340373Y-115510843D01*
X198273081Y-115506268D01*
X198262887Y-115499577D01*
X198256659Y-115495089D01*
X198253545Y-115493990D01*
X198252445Y-115491792D01*
X198249331Y-115488403D01*
X198241912Y-115483824D01*
X198219015Y-115474756D01*
X198198040Y-115470268D01*
X198174959Y-115474481D01*
X198165525Y-115472375D01*
X198163962Y-115467858D01*
X198170746Y-115459735D01*
X198181279Y-115451309D01*
X198162411Y-115451309D01*
X198143544Y-115450301D01*
X198139330Y-115447096D01*
X198121263Y-115443703D01*
X198091062Y-115430334D01*
X198097600Y-115423726D01*
X198076407Y-115411375D01*
X198036434Y-115391371D01*
X198015591Y-115375655D01*
X198003043Y-115366221D01*
X197974741Y-115344147D01*
X197950561Y-115323173D01*
X197916947Y-115287361D01*
X197875090Y-115241107D01*
X197873921Y-115239642D01*
X197942135Y-115239642D01*
X197959995Y-115257502D01*
X198001944Y-115290108D01*
X198030245Y-115311083D01*
X198032260Y-115317403D01*
X198025096Y-115316567D01*
X197992510Y-115296337D01*
X197970083Y-115287455D01*
X197965216Y-115294230D01*
X197989304Y-115315296D01*
X198021819Y-115334164D01*
X198037573Y-115343689D01*
X198072194Y-115364664D01*
X198114143Y-115387745D01*
X198137132Y-115397178D01*
X198181188Y-115411833D01*
X198218340Y-115421204D01*
X198227258Y-115418153D01*
X198216816Y-115405605D01*
X198208390Y-115401392D01*
X198168640Y-115385638D01*
X198125592Y-115363564D01*
X198109838Y-115353032D01*
X198043893Y-115313189D01*
X197967322Y-115256495D01*
X197942135Y-115239642D01*
X197873921Y-115239642D01*
X197848777Y-115208134D01*
X197925923Y-115208134D01*
X197933702Y-115217640D01*
X197988846Y-115261715D01*
X198083185Y-115325737D01*
X198099946Y-115338377D01*
X198112494Y-115344697D01*
X198158656Y-115365671D01*
X198213804Y-115388827D01*
X198282396Y-115410825D01*
X198347113Y-115425362D01*
X198366202Y-115424473D01*
X198369448Y-115420820D01*
X198361988Y-115417145D01*
X198330573Y-115411833D01*
X198234127Y-115382524D01*
X198218717Y-115376204D01*
X198732108Y-115376204D01*
X198735222Y-115380326D01*
X198741450Y-115376204D01*
X198738336Y-115371991D01*
X198732108Y-115376204D01*
X198218717Y-115376204D01*
X198141895Y-115344697D01*
X198112494Y-115327844D01*
X198043611Y-115288104D01*
X197967872Y-115235429D01*
X197942424Y-115216652D01*
X198331672Y-115216652D01*
X198338770Y-115225639D01*
X198370415Y-115236528D01*
X198406044Y-115237627D01*
X198433338Y-115238634D01*
X198445781Y-115242233D01*
X198483255Y-115241840D01*
X198568709Y-115228193D01*
X198637952Y-115201906D01*
X198676511Y-115182061D01*
X198686129Y-115173605D01*
X198691979Y-115165070D01*
X198688236Y-115163072D01*
X198684023Y-115163072D01*
X198675688Y-115163072D01*
X198681310Y-115155509D01*
X198700875Y-115144204D01*
X198728848Y-115123941D01*
X198742732Y-115100057D01*
X198745050Y-115075143D01*
X198738611Y-115024494D01*
X198709749Y-114913183D01*
X198740285Y-114913183D01*
X198753265Y-114938582D01*
X198774429Y-114981586D01*
X198793107Y-115049865D01*
X198799336Y-115079266D01*
X198797229Y-115054078D01*
X198783674Y-114987950D01*
X198765906Y-114944719D01*
X198822417Y-114944719D01*
X198824523Y-114955252D01*
X198830843Y-114951038D01*
X198828736Y-114940505D01*
X198824523Y-114932079D01*
X198822417Y-114944719D01*
X198765906Y-114944719D01*
X198763798Y-114939589D01*
X198751159Y-114919714D01*
X198742732Y-114909181D01*
X198740285Y-114913183D01*
X198709749Y-114913183D01*
X198709210Y-114911105D01*
X198704997Y-114898465D01*
X198696838Y-114882390D01*
X198650500Y-114831146D01*
X198605997Y-114795854D01*
X198560375Y-114776466D01*
X198551638Y-114773443D01*
X198655538Y-114773443D01*
X198703715Y-114795517D01*
X198759310Y-114829131D01*
X198779186Y-114840671D01*
X198779781Y-114836064D01*
X198770851Y-114826017D01*
X198735222Y-114802936D01*
X198689060Y-114781870D01*
X198656545Y-114771337D01*
X198655538Y-114773443D01*
X198551638Y-114773443D01*
X198536286Y-114768131D01*
X198497452Y-114763918D01*
X198469012Y-114766114D01*
X198456052Y-114770879D01*
X198448852Y-114780372D01*
X198445886Y-114799638D01*
X198449000Y-114819697D01*
X198483163Y-114831146D01*
X198512106Y-114839572D01*
X198493330Y-114841679D01*
X198469333Y-114846991D01*
X198464112Y-114860638D01*
X198476569Y-114880605D01*
X198495253Y-114894252D01*
X198486919Y-114896358D01*
X198472264Y-114898465D01*
X198472264Y-114942520D01*
X198464932Y-115009078D01*
X198443779Y-115066443D01*
X198415157Y-115110695D01*
X198366202Y-115167285D01*
X198336740Y-115203054D01*
X198331672Y-115216652D01*
X197942424Y-115216652D01*
X197939570Y-115214546D01*
X197925923Y-115208134D01*
X197848777Y-115208134D01*
X197845781Y-115204379D01*
X197828928Y-115182214D01*
X197783866Y-115114986D01*
X197732483Y-115024586D01*
X197709883Y-114980720D01*
X197703174Y-114974119D01*
X197695325Y-114967086D01*
X197675880Y-114924752D01*
X197660430Y-114877386D01*
X197654905Y-114845892D01*
X197652437Y-114787464D01*
X197657012Y-114757598D01*
X197681192Y-114714550D01*
X197703174Y-114688264D01*
X197724148Y-114669396D01*
X197751714Y-114643189D01*
X197778453Y-114630775D01*
X197805847Y-114629462D01*
X197854429Y-114644944D01*
X197885532Y-114671502D01*
X197902293Y-114695682D01*
X197908613Y-114718763D01*
X197916947Y-114740745D01*
X197919054Y-114744958D01*
X197891851Y-114738639D01*
X197843484Y-114727704D01*
X197822609Y-114730304D01*
X197844682Y-114740837D01*
X197866664Y-114752377D01*
X197860436Y-114755491D01*
X197834241Y-114750271D01*
X197818347Y-114750192D01*
X197810061Y-114755491D01*
X197806113Y-114769108D01*
X197811068Y-114800646D01*
X197839370Y-114866775D01*
X197864557Y-114910921D01*
X197880318Y-114941826D01*
X197916031Y-114990697D01*
X197955173Y-115033246D01*
X197969521Y-115041072D01*
X197977855Y-115049499D01*
X197989821Y-115064988D01*
X198024017Y-115087234D01*
X198060745Y-115113521D01*
X198099580Y-115144021D01*
X198143635Y-115169208D01*
X198197465Y-115190854D01*
X198227441Y-115192289D01*
X198244202Y-115179650D01*
X198248485Y-115161964D01*
X198245301Y-115112513D01*
X198219106Y-115003245D01*
X198190805Y-114911929D01*
X198179264Y-114868881D01*
X198151970Y-114763918D01*
X198124353Y-114612033D01*
X198114191Y-114488799D01*
X198118031Y-114389552D01*
X198133102Y-114310084D01*
X198152574Y-114266845D01*
X198160396Y-114259709D01*
X198157282Y-114275463D01*
G37*
G36*
X198734398Y-115451309D02*
G01*
X198730184Y-115461842D01*
X198719743Y-115459735D01*
X198712416Y-115459735D01*
X198698769Y-115463948D01*
X198687751Y-115461824D01*
X198696662Y-115455522D01*
X198707103Y-115451309D01*
X198730184Y-115444989D01*
X198733390Y-115444989D01*
X198734398Y-115451309D01*
G37*
G36*
X198756196Y-115435006D02*
G01*
X198739344Y-115443340D01*
X198736673Y-115441717D01*
X198747770Y-115432899D01*
X198760318Y-115428686D01*
X198764531Y-115428686D01*
X198756196Y-115435006D01*
G37*
G36*
X198789719Y-115418153D02*
G01*
X198783399Y-115422366D01*
X198777079Y-115420259D01*
X198783399Y-115416046D01*
X198789719Y-115418153D01*
G37*
G36*
X198801259Y-115370983D02*
G01*
X198788620Y-115380417D01*
X198779186Y-115382432D01*
X198772957Y-115378311D01*
X198787612Y-115368877D01*
X198804373Y-115363564D01*
X198801259Y-115370983D01*
G37*
G36*
X198896605Y-114992987D02*
G01*
X198898712Y-115006634D01*
X198894499Y-115012862D01*
X198893491Y-115008649D01*
X198890377Y-114996101D01*
X198890377Y-114981355D01*
X198896605Y-114992987D01*
G37*
G36*
X199121004Y-114823910D02*
G01*
X199133551Y-114825925D01*
X199123019Y-114830138D01*
X199110471Y-114825925D01*
X199114684Y-114821803D01*
X199121004Y-114823910D01*
G37*
G36*
X199154526Y-114732594D02*
G01*
X199148206Y-114733601D01*
X199141886Y-114725175D01*
X199148206Y-114724167D01*
X199154526Y-114732594D01*
G37*
G36*
X199104151Y-114668480D02*
G01*
X199099938Y-114670586D01*
X199095816Y-114664267D01*
X199099938Y-114662160D01*
X199104151Y-114668480D01*
G37*
G36*
X198980503Y-114584491D02*
G01*
X198989937Y-114591818D01*
X198990944Y-114594932D01*
X198978396Y-114590811D01*
X198967955Y-114582384D01*
X198980503Y-114584491D01*
G37*
G36*
X198823241Y-114532009D02*
G01*
X198825348Y-114534116D01*
X198819028Y-114532009D01*
X198813807Y-114527796D01*
X198823241Y-114532009D01*
G37*
G36*
X198789719Y-114525689D02*
G01*
X198783399Y-114523583D01*
X198793932Y-114523583D01*
X198789719Y-114525689D01*
G37*
G36*
X198874074Y-113265946D02*
G01*
X198892942Y-113270159D01*
X198911718Y-113274281D01*
X198926464Y-113276387D01*
X198922251Y-113279593D01*
X198922251Y-113282707D01*
X198930586Y-113282707D01*
X198948446Y-113284814D01*
X198980961Y-113314123D01*
X199010254Y-113350538D01*
X199031244Y-113392799D01*
X199040782Y-113435674D01*
X199035457Y-113465065D01*
X199009580Y-113503828D01*
X198962569Y-113542229D01*
X198886622Y-113580378D01*
X198838445Y-113602451D01*
X198830019Y-113616099D01*
X198840552Y-113635882D01*
X198855115Y-113649529D01*
X198901277Y-113676823D01*
X198964200Y-113720879D01*
X198982271Y-113731796D01*
X198991494Y-113732419D01*
X198997701Y-113732341D01*
X198999829Y-113738647D01*
X199002984Y-113745371D01*
X199014483Y-113748081D01*
X199029138Y-113751287D01*
X199041777Y-113762827D01*
X199083249Y-113793451D01*
X199104609Y-113823919D01*
X199114517Y-113867913D01*
X199102502Y-113901771D01*
X199064767Y-113938591D01*
X199018696Y-113964877D01*
X198996714Y-113974311D01*
X198977847Y-113979623D01*
X198954766Y-113991164D01*
X198940111Y-113997484D01*
X198925365Y-114003804D01*
X198912817Y-114012230D01*
X198907596Y-114000598D01*
X198903383Y-113988050D01*
X198901277Y-113998583D01*
X198892850Y-114011131D01*
X198890835Y-114011406D01*
X198890835Y-114006918D01*
X198888729Y-113998583D01*
X198871967Y-114006918D01*
X198856214Y-114016443D01*
X198840552Y-114021664D01*
X198834232Y-114019008D01*
X198819577Y-114023038D01*
X198796496Y-114032197D01*
X198749327Y-114032197D01*
X198715439Y-114030113D01*
X198710492Y-114027159D01*
X198704173Y-114026152D01*
X198688409Y-114029001D01*
X198622382Y-114026152D01*
X198481881Y-114009757D01*
X198451298Y-114007022D01*
X198437917Y-114010764D01*
X198430571Y-114021032D01*
X198427384Y-114044012D01*
X198424166Y-114066752D01*
X198416851Y-114076344D01*
X198396130Y-114083075D01*
X198366568Y-114078450D01*
X198342943Y-114064572D01*
X198339274Y-114049049D01*
X198337128Y-114038168D01*
X198322513Y-114019008D01*
X198274336Y-113981089D01*
X198244508Y-113967096D01*
X198230189Y-113965793D01*
X198208207Y-113964786D01*
X198176791Y-113960664D01*
X198157502Y-113956901D01*
X198146383Y-113946834D01*
X198128523Y-113931905D01*
X198120680Y-113927912D01*
X198113868Y-113915876D01*
X198104434Y-113898749D01*
X198101320Y-113898749D01*
X198102328Y-113903053D01*
X198100221Y-113907358D01*
X198097174Y-113904539D01*
X198100221Y-113890231D01*
X198106541Y-113813386D01*
X198110754Y-113769147D01*
X198139239Y-113760812D01*
X198173860Y-113760812D01*
X198200239Y-113766033D01*
X198209672Y-113771254D01*
X198220114Y-113771254D01*
X198220755Y-113770613D01*
X198229914Y-113770613D01*
X198234127Y-113776841D01*
X198240355Y-113774734D01*
X198236234Y-113768506D01*
X198229914Y-113770613D01*
X198220755Y-113770613D01*
X198224327Y-113767041D01*
X198230088Y-113761696D01*
X198240172Y-113761911D01*
X198264352Y-113767132D01*
X198287433Y-113773360D01*
X198306393Y-113777574D01*
X198354661Y-113781787D01*
X198388458Y-113790213D01*
X198386260Y-113790213D01*
X198375727Y-113794426D01*
X198386260Y-113794426D01*
X198396155Y-113796803D01*
X198398900Y-113802761D01*
X198398900Y-113806974D01*
X198403113Y-113802761D01*
X198408315Y-113797831D01*
X198415752Y-113799647D01*
X198427384Y-113801754D01*
X198434620Y-113802761D01*
X198463105Y-113811279D01*
X198477180Y-113811279D01*
X198475561Y-113810455D01*
X198472447Y-113803127D01*
X198477668Y-113799922D01*
X198483988Y-113806242D01*
X198482514Y-113811279D01*
X198489300Y-113811279D01*
X198497726Y-113809081D01*
X198497726Y-113813386D01*
X198499833Y-113819797D01*
X198506153Y-113814485D01*
X198516686Y-113817690D01*
X198544071Y-113825201D01*
X198567152Y-113824102D01*
X198592431Y-113823094D01*
X198619726Y-113827308D01*
X198630259Y-113825109D01*
X198639692Y-113824102D01*
X198646012Y-113827216D01*
X198689152Y-113823003D01*
X198764806Y-113813386D01*
X198817379Y-113806974D01*
X198809044Y-113809081D01*
X198768033Y-113819541D01*
X198708386Y-113827949D01*
X198670559Y-113834268D01*
X198666345Y-113836375D01*
X198676878Y-113836375D01*
X198706279Y-113838482D01*
X198724139Y-113838482D01*
X198754548Y-113832162D01*
X198821773Y-113822461D01*
X198880302Y-113806974D01*
X198901277Y-113799647D01*
X198914924Y-113794426D01*
X198921243Y-113790213D01*
X198920144Y-113786000D01*
X198909703Y-113786000D01*
X198879295Y-113794426D01*
X198848886Y-113800655D01*
X198842567Y-113800655D01*
X198858320Y-113793327D01*
X198875912Y-113785267D01*
X199039213Y-113785267D01*
X199047547Y-113794701D01*
X199060187Y-113799922D01*
X199051761Y-113790488D01*
X199039213Y-113785267D01*
X198875912Y-113785267D01*
X198883508Y-113781787D01*
X198892861Y-113772274D01*
X198892850Y-113762827D01*
X198825806Y-113710163D01*
X198731375Y-113652369D01*
X198688837Y-113632738D01*
X198674772Y-113630204D01*
X198668452Y-113628097D01*
X198670559Y-113621777D01*
X198658011Y-113621777D01*
X198654897Y-113628097D01*
X198653797Y-113632310D01*
X198631816Y-113634417D01*
X198616062Y-113632310D01*
X198628610Y-113628097D01*
X198639143Y-113627089D01*
X198639143Y-113621777D01*
X198633922Y-113618663D01*
X198625496Y-113623884D01*
X198616062Y-113619762D01*
X198599301Y-113619762D01*
X198577319Y-113621869D01*
X198569900Y-113623975D01*
X198586753Y-113628097D01*
X198605529Y-113632310D01*
X198584646Y-113636523D01*
X198553139Y-113634417D01*
X198438619Y-113621869D01*
X198491956Y-113621869D01*
X198494063Y-113625990D01*
X198522456Y-113628097D01*
X198549658Y-113628097D01*
X198561199Y-113625990D01*
X198536011Y-113622876D01*
X198501390Y-113620770D01*
X198491956Y-113621869D01*
X198438619Y-113621869D01*
X198425997Y-113620486D01*
X198309965Y-113592285D01*
X198245027Y-113573417D01*
X198226067Y-113579737D01*
X198223961Y-113579737D01*
X198221946Y-113573417D01*
X198211413Y-113571310D01*
X198144750Y-113549022D01*
X198092894Y-113513150D01*
X198069630Y-113478987D01*
X198059005Y-113444732D01*
X198056028Y-113433575D01*
X198046457Y-113423940D01*
X198034835Y-113409694D01*
X198042244Y-113398753D01*
X198056898Y-113379885D01*
X198078185Y-113360396D01*
X198111670Y-113350484D01*
X198135327Y-113352741D01*
X198179081Y-113367246D01*
X198268221Y-113401074D01*
X198338615Y-113418740D01*
X198393862Y-113423940D01*
X198490399Y-113427146D01*
X198551124Y-113423940D01*
X198597194Y-113421101D01*
X198642257Y-113416338D01*
X198649584Y-113417346D01*
X198666345Y-113416338D01*
X198712507Y-113404981D01*
X198754274Y-113399517D01*
X198813258Y-113379885D01*
X198837086Y-113371550D01*
X198995157Y-113371550D01*
X198999371Y-113382083D01*
X199006698Y-113385197D01*
X199001477Y-113375764D01*
X198995157Y-113371550D01*
X198837086Y-113371550D01*
X198837346Y-113371459D01*
X198847787Y-113367337D01*
X198863541Y-113361017D01*
X198878287Y-113351584D01*
X198880302Y-113333815D01*
X198866898Y-113321752D01*
X198832125Y-113308719D01*
X198804831Y-113302399D01*
X198840460Y-113302399D01*
X198879295Y-113304506D01*
X198887629Y-113300109D01*
X198892850Y-113298003D01*
X198897063Y-113302399D01*
X198899170Y-113297178D01*
X198890835Y-113291866D01*
X198882409Y-113296263D01*
X198874074Y-113292782D01*
X198857651Y-113285455D01*
X198900819Y-113285455D01*
X198902925Y-113289668D01*
X198909245Y-113287561D01*
X198900819Y-113285455D01*
X198857651Y-113285455D01*
X198856214Y-113284814D01*
X198849277Y-113283340D01*
X198852001Y-113279593D01*
X198863541Y-113277486D01*
X198869861Y-113276387D01*
X198861434Y-113270159D01*
X198857221Y-113270159D01*
X198844673Y-113261733D01*
X198854107Y-113260725D01*
X198874074Y-113265946D01*
G37*
G36*
X198559459Y-113815401D02*
G01*
X198559459Y-113817507D01*
X198542698Y-113815401D01*
X198542698Y-113813294D01*
X198559459Y-113815401D01*
G37*
G36*
X198462647Y-113800013D02*
G01*
X198458434Y-113804135D01*
X198456327Y-113800013D01*
X198460540Y-113795800D01*
X198462647Y-113800013D01*
G37*
G36*
X198244569Y-113583675D02*
G01*
X198250888Y-113589995D01*
X198261330Y-113592102D01*
X198263436Y-113596223D01*
X198256109Y-113597322D01*
X198241454Y-113592102D01*
X198234127Y-113587888D01*
X198237241Y-113582668D01*
X198244569Y-113583675D01*
G37*
G36*
X198829561Y-113282341D02*
G01*
X198833774Y-113286554D01*
X198828462Y-113290767D01*
X198815914Y-113286554D01*
X198810693Y-113280234D01*
X198819119Y-113280234D01*
X198829561Y-113282341D01*
G37*
G36*
X198888271Y-113262374D02*
G01*
X198881951Y-113260267D01*
X198894499Y-113260267D01*
X198888271Y-113262374D01*
G37*
G36*
X198823974Y-112813028D02*
G01*
X198823974Y-112781521D01*
X198829836Y-112747907D01*
X198835697Y-112729039D01*
X198845223Y-112684984D01*
X198860976Y-112649263D01*
X198873616Y-112628197D01*
X198888474Y-112611572D01*
X198917946Y-112594675D01*
X198952214Y-112583593D01*
X198987372Y-112579929D01*
X199009013Y-112584492D01*
X199052677Y-112604109D01*
X199095792Y-112630026D01*
X199126407Y-112655491D01*
X199181268Y-112725707D01*
X199225417Y-112808815D01*
X199236130Y-112838688D01*
X199240163Y-112880256D01*
X199242270Y-112932738D01*
X199227616Y-112907550D01*
X199201945Y-112862371D01*
X199173210Y-112826767D01*
X199137843Y-112795146D01*
X199085375Y-112758440D01*
X199046723Y-112737465D01*
X199040295Y-112740892D01*
X199031061Y-112756333D01*
X199011186Y-112787840D01*
X198992318Y-112812021D01*
X198974549Y-112825668D01*
X198942126Y-112839315D01*
X198918414Y-112846275D01*
X198886714Y-112844535D01*
X198842052Y-112831992D01*
X198823974Y-112813028D01*
G37*
G36*
X198695013Y-110058335D02*
G01*
X198699503Y-110065748D01*
X198717911Y-110064563D01*
X198732474Y-110066670D01*
X198738794Y-110068776D01*
X198742824Y-110060350D01*
X198748560Y-110054999D01*
X198758486Y-110055221D01*
X198772042Y-110060350D01*
X198775718Y-110073207D01*
X198769935Y-110112923D01*
X198761052Y-110167283D01*
X198767828Y-110194897D01*
X198774148Y-110209552D01*
X198767828Y-110203324D01*
X198765813Y-110203324D01*
X198772042Y-110239044D01*
X198776255Y-110272658D01*
X198772042Y-110298945D01*
X198771034Y-110330452D01*
X198774148Y-110357838D01*
X198778270Y-110383025D01*
X198778270Y-110387239D01*
X198774148Y-110391452D01*
X198779369Y-110398779D01*
X198786513Y-110407205D01*
X198788892Y-110424566D01*
X198784498Y-110428180D01*
X198780528Y-110434992D01*
X198790726Y-110478646D01*
X198793840Y-110504933D01*
X198795947Y-110515466D01*
X198811426Y-110567032D01*
X198846688Y-110703686D01*
X198863457Y-110742940D01*
X198881951Y-110771005D01*
X198894316Y-110801597D01*
X198904849Y-110836310D01*
X198920755Y-110882382D01*
X198913183Y-110914070D01*
X198899018Y-110929900D01*
X198859786Y-110954096D01*
X198817499Y-110972249D01*
X198797870Y-110975070D01*
X198779094Y-110979283D01*
X198740224Y-110991439D01*
X198713984Y-110988904D01*
X198695288Y-110975070D01*
X198667994Y-110970857D01*
X198615879Y-110965636D01*
X198597010Y-110958549D01*
X198592889Y-110951989D01*
X198589561Y-110945035D01*
X198576220Y-110938250D01*
X198555337Y-110923596D01*
X198547002Y-110914070D01*
X198531432Y-110900423D01*
X198517785Y-110874137D01*
X198467501Y-110761571D01*
X198396243Y-110621620D01*
X198336384Y-110535662D01*
X198274419Y-110477896D01*
X198209672Y-110442834D01*
X198153069Y-110434500D01*
X198094359Y-110442834D01*
X198057789Y-110465899D01*
X198037756Y-110499621D01*
X198032904Y-110526874D01*
X198034642Y-110564925D01*
X198042477Y-110603135D01*
X198054517Y-110634351D01*
X198074642Y-110662519D01*
X198104892Y-110692145D01*
X198139366Y-110716623D01*
X198171937Y-110731071D01*
X198214985Y-110747924D01*
X198236967Y-110754244D01*
X198248507Y-110757358D01*
X198251621Y-110769998D01*
X198245393Y-110777325D01*
X198236967Y-110790056D01*
X198220186Y-110808147D01*
X198184576Y-110815244D01*
X198137412Y-110807548D01*
X198075583Y-110780531D01*
X198017322Y-110741406D01*
X197970711Y-110695351D01*
X197922534Y-110629039D01*
X197903575Y-110575458D01*
X197897307Y-110512050D01*
X197903575Y-110459687D01*
X197921504Y-110413550D01*
X197950836Y-110370294D01*
X197988370Y-110333144D01*
X198031528Y-110304074D01*
X198075583Y-110287221D01*
X198092253Y-110283008D01*
X198124298Y-110274430D01*
X198197124Y-110270368D01*
X198271003Y-110274160D01*
X198310331Y-110282825D01*
X198339732Y-110291160D01*
X198369041Y-110303524D01*
X198389008Y-110313874D01*
X198397342Y-110319003D01*
X198438192Y-110349045D01*
X198477636Y-110378281D01*
X198496902Y-110398687D01*
X198502630Y-110402227D01*
X198510824Y-110390261D01*
X198514854Y-110381835D01*
X198522822Y-110329261D01*
X198523830Y-110320927D01*
X198530791Y-110320927D01*
X198534628Y-110328558D01*
X198536744Y-110355548D01*
X198539040Y-110381667D01*
X198542698Y-110386048D01*
X198548515Y-110375090D01*
X198558000Y-110317904D01*
X198569534Y-110317904D01*
X198573747Y-110316805D01*
X198569534Y-110309478D01*
X198569534Y-110317904D01*
X198558000Y-110317904D01*
X198562390Y-110291434D01*
X198566140Y-110273778D01*
X198570175Y-110270368D01*
X198572190Y-110280901D01*
X198574296Y-110289328D01*
X198580616Y-110272475D01*
X198577502Y-110257820D01*
X198572190Y-110252600D01*
X198576403Y-110250493D01*
X198583822Y-110246280D01*
X198581715Y-110236846D01*
X198576403Y-110230526D01*
X198580616Y-110229519D01*
X198584829Y-110227412D01*
X198580616Y-110222100D01*
X198576403Y-110217887D01*
X198580616Y-110215780D01*
X198583822Y-110214773D01*
X198586936Y-110207445D01*
X198588509Y-110203189D01*
X198750652Y-110203189D01*
X198753357Y-110205339D01*
X198759585Y-110196912D01*
X198755464Y-110192699D01*
X198750652Y-110203189D01*
X198588509Y-110203189D01*
X198590050Y-110199019D01*
X198592157Y-110189585D01*
X198593164Y-110182166D01*
X198585837Y-110173831D01*
X198581225Y-110169149D01*
X198580616Y-110154872D01*
X198583607Y-110133405D01*
X198580616Y-110129685D01*
X198576403Y-110138111D01*
X198570266Y-110146537D01*
X198564679Y-110159177D01*
X198566603Y-110173831D01*
X198567519Y-110188486D01*
X198562055Y-110195574D01*
X198556986Y-110194806D01*
X198553413Y-110189439D01*
X198551399Y-110167512D01*
X198557079Y-110116462D01*
X198570083Y-110091857D01*
X198582723Y-110080409D01*
X198586844Y-110087736D01*
X198594027Y-110095598D01*
X198599301Y-110085629D01*
X198612856Y-110065662D01*
X198626320Y-110062457D01*
X198645096Y-110062548D01*
X198657553Y-110061449D01*
X198669002Y-110066670D01*
X198679386Y-110065904D01*
X198687778Y-110059343D01*
X198693498Y-110054363D01*
X198695013Y-110058335D01*
G37*
G36*
X198538118Y-110311584D02*
G01*
X198536011Y-110307371D01*
X198538118Y-110303158D01*
X198538118Y-110311584D01*
G37*
G36*
X198545170Y-110277970D02*
G01*
X198540957Y-110288503D01*
X198536744Y-110277970D01*
X198540957Y-110267437D01*
X198545170Y-110277970D01*
G37*
G36*
X198542331Y-110256996D02*
G01*
X198540225Y-110250676D01*
X198542331Y-110248570D01*
X198542331Y-110256996D01*
G37*
G36*
X198547552Y-110237029D02*
G01*
X198542331Y-110242250D01*
X198540225Y-110234923D01*
X198544438Y-110231809D01*
X198547552Y-110237029D01*
G37*
G36*
X198569534Y-110221276D02*
G01*
X198567427Y-110214956D01*
X198569534Y-110210743D01*
X198569534Y-110221276D01*
G37*
G36*
X198585287Y-110188761D02*
G01*
X198582173Y-110202408D01*
X198577960Y-110202408D01*
X198573747Y-110189768D01*
X198582173Y-110181342D01*
X198585287Y-110188761D01*
G37*
G36*
X198789719Y-110116312D02*
G01*
X198787612Y-110120434D01*
X198783399Y-110114206D01*
X198784771Y-110108373D01*
X198789719Y-110116312D01*
G37*
G36*
X198283312Y-109059901D02*
G01*
X198349440Y-109067228D01*
X198417519Y-109072298D01*
X198494154Y-109088477D01*
X198551948Y-109103407D01*
X198584463Y-109114031D01*
X198615970Y-109127770D01*
X198636945Y-109135189D01*
X198699868Y-109164956D01*
X198706096Y-109164956D01*
X198706096Y-109158636D01*
X198710309Y-109164956D01*
X198718736Y-109178878D01*
X198733482Y-109186297D01*
X198754456Y-109192616D01*
X198769111Y-109199028D01*
X198756563Y-109203241D01*
X198743923Y-109209561D01*
X198760501Y-109220002D01*
X198786421Y-109234748D01*
X198795764Y-109241068D01*
X198806205Y-109245281D01*
X198816834Y-109250574D01*
X198839453Y-109276605D01*
X198870594Y-109316539D01*
X198885157Y-109322859D01*
X198891293Y-109329087D01*
X198900727Y-109343742D01*
X198909978Y-109347955D01*
X198912084Y-109352168D01*
X198912176Y-109361602D01*
X198925640Y-109400436D01*
X198943317Y-109443393D01*
X198948538Y-109454933D01*
X198950644Y-109462352D01*
X198959071Y-109482227D01*
X198959271Y-109494075D01*
X198954857Y-109496882D01*
X198951652Y-109490562D01*
X198948538Y-109475907D01*
X198941210Y-109461253D01*
X198941210Y-109480029D01*
X198941210Y-109538831D01*
X198945423Y-109579772D01*
X198945932Y-109590844D01*
X198934890Y-109644801D01*
X198909795Y-109725493D01*
X198890692Y-109752612D01*
X198855115Y-109788416D01*
X198792701Y-109831844D01*
X198733482Y-109857659D01*
X198651599Y-109880740D01*
X198584555Y-109884953D01*
X198485331Y-109881728D01*
X198433338Y-109874420D01*
X198413463Y-109872405D01*
X198407234Y-109871306D01*
X198371514Y-109867185D01*
X198334786Y-109861964D01*
X198322146Y-109857751D01*
X198303123Y-109854940D01*
X198299065Y-109849416D01*
X198313811Y-109847309D01*
X198326359Y-109847309D01*
X198322146Y-109845203D01*
X198300164Y-109843096D01*
X198286517Y-109840989D01*
X198276076Y-109838883D01*
X198254994Y-109837271D01*
X198202528Y-109817909D01*
X198172212Y-109805269D01*
X198162778Y-109794919D01*
X198161770Y-109791805D01*
X198158565Y-109792813D01*
X198147521Y-109789872D01*
X198097657Y-109763412D01*
X198076682Y-109744452D01*
X198085109Y-109744452D01*
X198093443Y-109744452D01*
X198080895Y-109736118D01*
X198059921Y-109721463D01*
X198041053Y-109713037D01*
X198030520Y-109708915D01*
X198016965Y-109692246D01*
X197999105Y-109679698D01*
X197968696Y-109651488D01*
X197938288Y-109616958D01*
X197932060Y-109606425D01*
X197925121Y-109600993D01*
X197903758Y-109567773D01*
X197881685Y-109518681D01*
X197873350Y-109493585D01*
X197860012Y-109456124D01*
X197854814Y-109424800D01*
X198047281Y-109424800D01*
X198055616Y-109474167D01*
X198068732Y-109495143D01*
X198099672Y-109526557D01*
X198158369Y-109572996D01*
X198229639Y-109614576D01*
X198298790Y-109650205D01*
X198326085Y-109662753D01*
X198344952Y-109662753D01*
X198351582Y-109659870D01*
X198371147Y-109663852D01*
X198442405Y-109671180D01*
X198495894Y-109675393D01*
X198510417Y-109678395D01*
X198550391Y-109669073D01*
X198575579Y-109666966D01*
X198593439Y-109665959D01*
X198604888Y-109654510D01*
X198610672Y-109647736D01*
X198619634Y-109648282D01*
X198637313Y-109648114D01*
X198663689Y-109637840D01*
X198687572Y-109621418D01*
X198701333Y-109604410D01*
X198709591Y-109564429D01*
X198700036Y-109512885D01*
X198665704Y-109443942D01*
X198644016Y-109419266D01*
X198601774Y-109385507D01*
X198554181Y-109355679D01*
X198510549Y-109335498D01*
X198453265Y-109318424D01*
X198303004Y-109285398D01*
X198242279Y-109281185D01*
X198177249Y-109285398D01*
X198125867Y-109302159D01*
X198087032Y-109339895D01*
X198055616Y-109383950D01*
X198049732Y-109398740D01*
X198047281Y-109424800D01*
X197854814Y-109424800D01*
X197850269Y-109397414D01*
X197851901Y-109368335D01*
X197856328Y-109344841D01*
X197954225Y-109344841D01*
X197961552Y-109374241D01*
X197971994Y-109394117D01*
X197977306Y-109375249D01*
X197975199Y-109336414D01*
X197967872Y-109314341D01*
X197958438Y-109323775D01*
X197954225Y-109344841D01*
X197856328Y-109344841D01*
X197864924Y-109299228D01*
X197881023Y-109248961D01*
X197908979Y-109200951D01*
X197964575Y-109140409D01*
X197996168Y-109112474D01*
X198043160Y-109112474D01*
X198054700Y-109114581D01*
X198075675Y-109112474D01*
X198089230Y-109106154D01*
X198102164Y-109097593D01*
X198135392Y-109093606D01*
X198183661Y-109093606D01*
X198217274Y-109093606D01*
X198332679Y-109089210D01*
X198336801Y-109084814D01*
X198242370Y-109076021D01*
X198204968Y-109079000D01*
X198192087Y-109084814D01*
X198183661Y-109093606D01*
X198135392Y-109093606D01*
X198156366Y-109089210D01*
X198164793Y-109087012D01*
X198171021Y-109082707D01*
X198162686Y-109078219D01*
X198133285Y-109084814D01*
X198075675Y-109098735D01*
X198043160Y-109112474D01*
X197996168Y-109112474D01*
X198001587Y-109107682D01*
X198020079Y-109096446D01*
X198080381Y-109075095D01*
X198183661Y-109058802D01*
X198283312Y-109059901D01*
G37*
G36*
X198725055Y-109171550D02*
G01*
X198726154Y-109175764D01*
X198722949Y-109173657D01*
X198718827Y-109163124D01*
X198725055Y-109171550D01*
G37*
G36*
X198695013Y-107951008D02*
G01*
X198699503Y-107958421D01*
X198717911Y-107957236D01*
X198732474Y-107959343D01*
X198738794Y-107961449D01*
X198742824Y-107953023D01*
X198748560Y-107947672D01*
X198758486Y-107947894D01*
X198772042Y-107953023D01*
X198775718Y-107965880D01*
X198769935Y-108005596D01*
X198761052Y-108059956D01*
X198767828Y-108087570D01*
X198774148Y-108102225D01*
X198767828Y-108095996D01*
X198765813Y-108095996D01*
X198772042Y-108131717D01*
X198776255Y-108165331D01*
X198772042Y-108191618D01*
X198771034Y-108223125D01*
X198774148Y-108250511D01*
X198778270Y-108275698D01*
X198778270Y-108279911D01*
X198774148Y-108284125D01*
X198779369Y-108291452D01*
X198786513Y-108299878D01*
X198788892Y-108317238D01*
X198784498Y-108320853D01*
X198780528Y-108327665D01*
X198790726Y-108371319D01*
X198793840Y-108397606D01*
X198795947Y-108408139D01*
X198811426Y-108459705D01*
X198846688Y-108596358D01*
X198863457Y-108635613D01*
X198881951Y-108663678D01*
X198894316Y-108694269D01*
X198904849Y-108728982D01*
X198920755Y-108775055D01*
X198913183Y-108806743D01*
X198899018Y-108822572D01*
X198859786Y-108846768D01*
X198817499Y-108864922D01*
X198797870Y-108867743D01*
X198779094Y-108871956D01*
X198740224Y-108884112D01*
X198713984Y-108881576D01*
X198695288Y-108867743D01*
X198667994Y-108863530D01*
X198615879Y-108858309D01*
X198597010Y-108851222D01*
X198592889Y-108844662D01*
X198589561Y-108837708D01*
X198576220Y-108830923D01*
X198555337Y-108816269D01*
X198547002Y-108806743D01*
X198531432Y-108793096D01*
X198517785Y-108766809D01*
X198467501Y-108654244D01*
X198396243Y-108514293D01*
X198336384Y-108428335D01*
X198274419Y-108370569D01*
X198209672Y-108335507D01*
X198153069Y-108327172D01*
X198094359Y-108335507D01*
X198057789Y-108358572D01*
X198037756Y-108392294D01*
X198032904Y-108419546D01*
X198034642Y-108457598D01*
X198042477Y-108495808D01*
X198054517Y-108527024D01*
X198074642Y-108555192D01*
X198104892Y-108584818D01*
X198139366Y-108609295D01*
X198171937Y-108623744D01*
X198214985Y-108640597D01*
X198236967Y-108646917D01*
X198248507Y-108650031D01*
X198251621Y-108662670D01*
X198245393Y-108669998D01*
X198236967Y-108682729D01*
X198220186Y-108700820D01*
X198184576Y-108707916D01*
X198137412Y-108700221D01*
X198075583Y-108673203D01*
X198017322Y-108634078D01*
X197970711Y-108588024D01*
X197922534Y-108521712D01*
X197903575Y-108468131D01*
X197897307Y-108404722D01*
X197903575Y-108352360D01*
X197921504Y-108306223D01*
X197950836Y-108262967D01*
X197988370Y-108225817D01*
X198031528Y-108196747D01*
X198075583Y-108179894D01*
X198092253Y-108175681D01*
X198124298Y-108167102D01*
X198197124Y-108163041D01*
X198271003Y-108166833D01*
X198310331Y-108175498D01*
X198339732Y-108183832D01*
X198369041Y-108196197D01*
X198389008Y-108206547D01*
X198397342Y-108211676D01*
X198438192Y-108241718D01*
X198477636Y-108270954D01*
X198496902Y-108291360D01*
X198502630Y-108294900D01*
X198510824Y-108282934D01*
X198514854Y-108274507D01*
X198522822Y-108221934D01*
X198523830Y-108213599D01*
X198530791Y-108213599D01*
X198534628Y-108221231D01*
X198536744Y-108248221D01*
X198539040Y-108274340D01*
X198542698Y-108278721D01*
X198548515Y-108267763D01*
X198558000Y-108210577D01*
X198569534Y-108210577D01*
X198573747Y-108209478D01*
X198569534Y-108202151D01*
X198569534Y-108210577D01*
X198558000Y-108210577D01*
X198562390Y-108184107D01*
X198566140Y-108166451D01*
X198570175Y-108163041D01*
X198572190Y-108173574D01*
X198574296Y-108182000D01*
X198580616Y-108165148D01*
X198577502Y-108150493D01*
X198572190Y-108145272D01*
X198576403Y-108143166D01*
X198583822Y-108138953D01*
X198581715Y-108129519D01*
X198576403Y-108123199D01*
X198580616Y-108122192D01*
X198584829Y-108120085D01*
X198580616Y-108114773D01*
X198576403Y-108110559D01*
X198580616Y-108108453D01*
X198583822Y-108107445D01*
X198586936Y-108100118D01*
X198588509Y-108095862D01*
X198750652Y-108095862D01*
X198753357Y-108098011D01*
X198759585Y-108089585D01*
X198755464Y-108085372D01*
X198750652Y-108095862D01*
X198588509Y-108095862D01*
X198590050Y-108091692D01*
X198592157Y-108082258D01*
X198593164Y-108074839D01*
X198585837Y-108066504D01*
X198581225Y-108061821D01*
X198580616Y-108047545D01*
X198583607Y-108026078D01*
X198580616Y-108022357D01*
X198576403Y-108030784D01*
X198570266Y-108039210D01*
X198564679Y-108051850D01*
X198566603Y-108066504D01*
X198567519Y-108081159D01*
X198562055Y-108088247D01*
X198556986Y-108087478D01*
X198553413Y-108082111D01*
X198551399Y-108060184D01*
X198557079Y-108009135D01*
X198570083Y-107984530D01*
X198582723Y-107973081D01*
X198586844Y-107980409D01*
X198594027Y-107988271D01*
X198599301Y-107978302D01*
X198612856Y-107958335D01*
X198626320Y-107955129D01*
X198645096Y-107955221D01*
X198657553Y-107954122D01*
X198669002Y-107959343D01*
X198679386Y-107958577D01*
X198687778Y-107952015D01*
X198693498Y-107947036D01*
X198695013Y-107951008D01*
G37*
G36*
X198538118Y-108204257D02*
G01*
X198536011Y-108200044D01*
X198538118Y-108195831D01*
X198538118Y-108204257D01*
G37*
G36*
X198545170Y-108170643D02*
G01*
X198540957Y-108181176D01*
X198536744Y-108170643D01*
X198540957Y-108160110D01*
X198545170Y-108170643D01*
G37*
G36*
X198542331Y-108149669D02*
G01*
X198540225Y-108143349D01*
X198542331Y-108141242D01*
X198542331Y-108149669D01*
G37*
G36*
X198547552Y-108129702D02*
G01*
X198542331Y-108134923D01*
X198540225Y-108127595D01*
X198544438Y-108124481D01*
X198547552Y-108129702D01*
G37*
G36*
X198569534Y-108113948D02*
G01*
X198567427Y-108107629D01*
X198569534Y-108103415D01*
X198569534Y-108113948D01*
G37*
G36*
X198585287Y-108081433D02*
G01*
X198582173Y-108095081D01*
X198577960Y-108095081D01*
X198573747Y-108082441D01*
X198582173Y-108074015D01*
X198585287Y-108081433D01*
G37*
G36*
X198789719Y-108008985D02*
G01*
X198787612Y-108013107D01*
X198783399Y-108006878D01*
X198784771Y-108001045D01*
X198789719Y-108008985D01*
G37*
G36*
X197865565Y-106783222D02*
G01*
X197874223Y-106789623D01*
X197880677Y-106787435D01*
X197908521Y-106781115D01*
X197938563Y-106778001D01*
X197946151Y-106778617D01*
X197954591Y-106788534D01*
X197962102Y-106810699D01*
X197966407Y-106819125D01*
X197977123Y-106838176D01*
X197985732Y-106880491D01*
X197992069Y-106966213D01*
X198010954Y-107048713D01*
X198042610Y-107128886D01*
X198057356Y-107164698D01*
X198072011Y-107200419D01*
X198089963Y-107229911D01*
X198120554Y-107253084D01*
X198167477Y-107278283D01*
X198196392Y-107284683D01*
X198217283Y-107274981D01*
X198238432Y-107236323D01*
X198282648Y-107149703D01*
X198343877Y-107078895D01*
X198423904Y-107022000D01*
X198488501Y-106994379D01*
X198540774Y-106986279D01*
X198593760Y-106994646D01*
X198663964Y-107024106D01*
X198723040Y-107062941D01*
X198760959Y-107096555D01*
X198786238Y-107135481D01*
X198805417Y-107165130D01*
X198809411Y-107177430D01*
X198816738Y-107197396D01*
X198832583Y-107200511D01*
X198843025Y-107205823D01*
X198849344Y-107221577D01*
X198847503Y-107229652D01*
X198843025Y-107227896D01*
X198836613Y-107217363D01*
X198832492Y-107208937D01*
X198836613Y-107227896D01*
X198845064Y-107245676D01*
X198853466Y-107244749D01*
X198855573Y-107238338D01*
X198851451Y-107236231D01*
X198851451Y-107232018D01*
X198859786Y-107226889D01*
X198868212Y-107242551D01*
X198878745Y-107259404D01*
X198882958Y-107267830D01*
X198880089Y-107277289D01*
X198870319Y-107267830D01*
X198868212Y-107261510D01*
X198853466Y-107248962D01*
X198862900Y-107271036D01*
X198874440Y-107293018D01*
X198878654Y-107307764D01*
X198883966Y-107314084D01*
X198897704Y-107340370D01*
X198908146Y-107366565D01*
X198912267Y-107363451D01*
X198911260Y-107355025D01*
X198906039Y-107345499D01*
X198899719Y-107326723D01*
X198893400Y-107307764D01*
X198888670Y-107291406D01*
X198891293Y-107278363D01*
X198907047Y-107295216D01*
X198916481Y-107316282D01*
X198920694Y-107322510D01*
X198945881Y-107367756D01*
X198973176Y-107427840D01*
X198985482Y-107470919D01*
X198985815Y-107490946D01*
X198984808Y-107497174D01*
X198991127Y-107490946D01*
X198996348Y-107485725D01*
X198998455Y-107492961D01*
X198989937Y-107509905D01*
X198985815Y-107514118D01*
X198992135Y-107512012D01*
X198999554Y-107514118D01*
X199000561Y-107543611D01*
X198998455Y-107577225D01*
X198994241Y-107554052D01*
X198990120Y-107528773D01*
X198982793Y-107515126D01*
X198975374Y-107501387D01*
X198973267Y-107498273D01*
X198969054Y-107488839D01*
X198963148Y-107486618D01*
X198960628Y-107498365D01*
X198973267Y-107568798D01*
X198978579Y-107610839D01*
X198985907Y-107652879D01*
X198985629Y-107674538D01*
X198973267Y-107686584D01*
X198958521Y-107695011D01*
X198972260Y-107709757D01*
X198982077Y-107721910D01*
X198981693Y-107727617D01*
X198958521Y-107730731D01*
X198941760Y-107730731D01*
X198935440Y-107743371D01*
X198932234Y-107768558D01*
X198930219Y-107781198D01*
X198912267Y-107774878D01*
X198893618Y-107766820D01*
X198853466Y-107760132D01*
X198816738Y-107749691D01*
X198785231Y-107729724D01*
X198756837Y-107713970D01*
X198736725Y-107704464D01*
X198742183Y-107697117D01*
X198746396Y-107684569D01*
X198749602Y-107673945D01*
X198752716Y-107656085D01*
X198755830Y-107638224D01*
X198758944Y-107630897D01*
X198755830Y-107610930D01*
X198748503Y-107587758D01*
X198738569Y-107559684D01*
X198746396Y-107570996D01*
X198754822Y-107585651D01*
X198752716Y-107573103D01*
X198733848Y-107524651D01*
X198721209Y-107495159D01*
X198727528Y-107499372D01*
X198737970Y-107518332D01*
X198742183Y-107524560D01*
X198743282Y-107517233D01*
X198739069Y-107504685D01*
X198733848Y-107495159D01*
X198729635Y-107484626D01*
X198723315Y-107461545D01*
X198701158Y-107413918D01*
X198933333Y-107413918D01*
X198942767Y-107444326D01*
X198945973Y-107456966D01*
X198950095Y-107472719D01*
X198954590Y-107478765D01*
X198961635Y-107477940D01*
X198967955Y-107464293D01*
X198961635Y-107452752D01*
X198955315Y-107443319D01*
X198950095Y-107432786D01*
X198944874Y-107423352D01*
X198940661Y-107414925D01*
X198933333Y-107413918D01*
X198701158Y-107413918D01*
X198693914Y-107398347D01*
X198681275Y-107387814D01*
X198672940Y-107379480D01*
X198669826Y-107367939D01*
X198667719Y-107359421D01*
X198651966Y-107336249D01*
X198633006Y-107308863D01*
X198624488Y-107291003D01*
X198620367Y-107284683D01*
X198630900Y-107288896D01*
X198635113Y-107291003D01*
X198628793Y-107280470D01*
X198618260Y-107278363D01*
X198611940Y-107272043D01*
X198604613Y-107258396D01*
X198586753Y-107236323D01*
X198550941Y-107194191D01*
X198512249Y-107165346D01*
X198471073Y-107156272D01*
X198447026Y-107163420D01*
X198416485Y-107189978D01*
X198399724Y-107221577D01*
X198389191Y-107253084D01*
X198397993Y-107278788D01*
X198435261Y-107322510D01*
X198464662Y-107352002D01*
X198466769Y-107381403D01*
X198464604Y-107412810D01*
X198452022Y-107459347D01*
X198425172Y-107524652D01*
X198408059Y-107547732D01*
X198378228Y-107570506D01*
X198366110Y-107575118D01*
X198341126Y-107579459D01*
X198322146Y-107591879D01*
X198289088Y-107615426D01*
X198267741Y-107621372D01*
X198234830Y-107612275D01*
X198209123Y-107583544D01*
X198194788Y-107561107D01*
X198178898Y-107546816D01*
X198146383Y-107522636D01*
X198045999Y-107438556D01*
X197984681Y-107386431D01*
X197916123Y-107337806D01*
X197847063Y-107287431D01*
X197826181Y-107255923D01*
X197815739Y-107222309D01*
X197824166Y-107196023D01*
X197842942Y-107178071D01*
X197851368Y-107163416D01*
X197798062Y-106953398D01*
X197797055Y-106925005D01*
X197799070Y-106880858D01*
X197802434Y-106860520D01*
X197811984Y-106845137D01*
X197835523Y-106806303D01*
X197842026Y-106786336D01*
X197849536Y-106776902D01*
X197857047Y-106775894D01*
X197865565Y-106783222D01*
G37*
G36*
X199012285Y-107655352D02*
G01*
X199014392Y-107673212D01*
X199015491Y-107678524D01*
X199010178Y-107673212D01*
X199005472Y-107662615D01*
X199008072Y-107652238D01*
X199012285Y-107655352D01*
G37*
G36*
X198741542Y-107647017D02*
G01*
X198747770Y-107654344D01*
X198739344Y-107652238D01*
X198733115Y-107645918D01*
X198741542Y-107647017D01*
G37*
D11*
G36*
X194628004Y-126827344D02*
G01*
X194893740Y-127141562D01*
X194893740Y-127629560D01*
X194628004Y-127833258D01*
X194628004Y-126827344D01*
G37*
G36*
X195737233Y-127854751D02*
G01*
X196142431Y-127938893D01*
X196404138Y-128252257D01*
X195671898Y-128099971D01*
X195573712Y-127982490D01*
X195737233Y-127854751D01*
G37*
G36*
X195369769Y-128037201D02*
G01*
X194676608Y-127893098D01*
X194942466Y-127689521D01*
X195303213Y-127764504D01*
X195472107Y-127961363D01*
X195369769Y-128037201D01*
G37*
G36*
X195672508Y-126997093D02*
G01*
X196410000Y-127150477D01*
X196146461Y-127354664D01*
X195738454Y-127269912D01*
X195573712Y-127073785D01*
X195672508Y-126997093D01*
G37*
G36*
X195304068Y-127179542D02*
G01*
X194944909Y-127104926D01*
X194679050Y-126790585D01*
X195370136Y-126934322D01*
X195472107Y-127052658D01*
X195304068Y-127179542D01*
G37*
G36*
X195386133Y-127211538D02*
G01*
X195519002Y-127109689D01*
X195651870Y-127266737D01*
X195651870Y-127819458D01*
X195519002Y-127921308D01*
X195386133Y-127764259D01*
X195386133Y-127211538D01*
G37*
G36*
X196097857Y-125661206D02*
G01*
X196230237Y-125818255D01*
X196097857Y-125920226D01*
X195739064Y-125845610D01*
X195573712Y-125649361D01*
X195672997Y-125572790D01*
X196097857Y-125661206D01*
G37*
G36*
X196410000Y-126520331D02*
G01*
X196277131Y-126622180D01*
X196144263Y-126465132D01*
X196144263Y-125977135D01*
X196277131Y-125875285D01*
X196410000Y-126032333D01*
X196410000Y-126520331D01*
G37*
G36*
X195369891Y-125509776D02*
G01*
X195472107Y-125628234D01*
X195303457Y-125754996D01*
X194894473Y-125669999D01*
X194626050Y-125355170D01*
X195369891Y-125509776D01*
G37*
G36*
X194628126Y-126458659D02*
G01*
X194895816Y-126255327D01*
X195303824Y-126340202D01*
X195472107Y-126536939D01*
X195370136Y-126612899D01*
X194628126Y-126458659D01*
G37*
G36*
X196094316Y-126763474D02*
G01*
X196226695Y-126661503D01*
X196094316Y-126504577D01*
X195735401Y-126429961D01*
X195570048Y-126557333D01*
X195669211Y-126675058D01*
X196094316Y-126763474D01*
G37*
G36*
X196291297Y-124697790D02*
G01*
X196423677Y-124854839D01*
X196291297Y-124956810D01*
X195739064Y-124842016D01*
X195573712Y-124645767D01*
X195672997Y-124569197D01*
X196291297Y-124697790D01*
G37*
G36*
X195369525Y-124506182D02*
G01*
X195472107Y-124624640D01*
X195302725Y-124751280D01*
X195097561Y-124708659D01*
X194964082Y-124551367D01*
X195097561Y-124449640D01*
X195369525Y-124506182D01*
G37*
G36*
X194759651Y-123898750D02*
G01*
X194893740Y-124058729D01*
X194893740Y-125017260D01*
X194759651Y-125118743D01*
X194628004Y-124961939D01*
X194628004Y-124003408D01*
X194759651Y-123898750D01*
G37*
G36*
X195370258Y-122661049D02*
G01*
X195472107Y-122779385D01*
X195304068Y-122906269D01*
X194945153Y-122831653D01*
X194812773Y-122674727D01*
X194945153Y-122572633D01*
X195370258Y-122661049D01*
G37*
G36*
X194759651Y-122710875D02*
G01*
X194893740Y-122868289D01*
X194893740Y-123356287D01*
X194759651Y-123457770D01*
X194628004Y-123300966D01*
X194628004Y-122812968D01*
X194759651Y-122710875D01*
G37*
G36*
X196097857Y-122812358D02*
G01*
X196230237Y-122969406D01*
X196097857Y-123071377D01*
X195739064Y-122996761D01*
X195573712Y-122800512D01*
X195672997Y-122723942D01*
X196097857Y-122812358D01*
G37*
G36*
X195304068Y-123491353D02*
G01*
X195472107Y-123688091D01*
X195370258Y-123764050D01*
X194945153Y-123675634D01*
X194812773Y-123518708D01*
X194945153Y-123416737D01*
X195304068Y-123491353D01*
G37*
G36*
X196410000Y-123671482D02*
G01*
X196277131Y-123773331D01*
X196144263Y-123616283D01*
X196144263Y-123128286D01*
X196277131Y-123026437D01*
X196410000Y-123183485D01*
X196410000Y-123671482D01*
G37*
G36*
X196094316Y-123914626D02*
G01*
X196226695Y-123812654D01*
X196094316Y-123655728D01*
X195735401Y-123581112D01*
X195570048Y-123708485D01*
X195669211Y-123826210D01*
X196094316Y-123914626D01*
G37*
G36*
X196410000Y-122247058D02*
G01*
X196277131Y-122348907D01*
X196144263Y-122191859D01*
X196144263Y-121656601D01*
X196410000Y-121452780D01*
X196410000Y-122247058D01*
G37*
G36*
X194628004Y-121082264D02*
G01*
X194893740Y-121396604D01*
X194893740Y-121931862D01*
X194759651Y-122033345D01*
X194628004Y-121876541D01*
X194628004Y-121082264D01*
G37*
G36*
X195302725Y-122066684D02*
G01*
X195470764Y-122263422D01*
X195368914Y-122339382D01*
X194943810Y-122250966D01*
X194811430Y-122094040D01*
X194943810Y-121992068D01*
X195302725Y-122066684D01*
G37*
G36*
X196097857Y-122490934D02*
G01*
X196230237Y-122388963D01*
X196097857Y-122232037D01*
X195738942Y-122157421D01*
X195573590Y-122284793D01*
X195672752Y-122402518D01*
X196097857Y-122490934D01*
G37*
G36*
X194628004Y-119705222D02*
G01*
X194893740Y-120019441D01*
X194893740Y-120507438D01*
X194628004Y-120711137D01*
X194628004Y-119705222D01*
G37*
G36*
X195737233Y-120732630D02*
G01*
X196142431Y-120816772D01*
X196404138Y-121130135D01*
X195671898Y-120977850D01*
X195573712Y-120860369D01*
X195737233Y-120732630D01*
G37*
G36*
X195369769Y-120915079D02*
G01*
X194676608Y-120770976D01*
X194942466Y-120567400D01*
X195303213Y-120642382D01*
X195472107Y-120839242D01*
X195369769Y-120915079D01*
G37*
G36*
X195672508Y-119874971D02*
G01*
X196410000Y-120028356D01*
X196146461Y-120232543D01*
X195738454Y-120147790D01*
X195573712Y-119951663D01*
X195672508Y-119874971D01*
G37*
G36*
X195304068Y-120057421D02*
G01*
X194944909Y-119982804D01*
X194679050Y-119668464D01*
X195370136Y-119812201D01*
X195472107Y-119930536D01*
X195304068Y-120057421D01*
G37*
G36*
X195386133Y-120089416D02*
G01*
X195519002Y-119987567D01*
X195651870Y-120144615D01*
X195651870Y-120697337D01*
X195519002Y-120799186D01*
X195386133Y-120642138D01*
X195386133Y-120089416D01*
G37*
G36*
X194628004Y-118280798D02*
G01*
X194893740Y-118595017D01*
X194893740Y-119083014D01*
X194628004Y-119286712D01*
X194628004Y-118280798D01*
G37*
G36*
X195737233Y-119308206D02*
G01*
X196142431Y-119392347D01*
X196404138Y-119705711D01*
X195671898Y-119553426D01*
X195573712Y-119435945D01*
X195737233Y-119308206D01*
G37*
G36*
X195369769Y-119490655D02*
G01*
X194676608Y-119346552D01*
X194942466Y-119142975D01*
X195303213Y-119217958D01*
X195472107Y-119414818D01*
X195369769Y-119490655D01*
G37*
G36*
X195672508Y-118450547D02*
G01*
X196410000Y-118603931D01*
X196146461Y-118808118D01*
X195738454Y-118723366D01*
X195573712Y-118527239D01*
X195672508Y-118450547D01*
G37*
G36*
X195304068Y-118632996D02*
G01*
X194944909Y-118558380D01*
X194679050Y-118244040D01*
X195370136Y-118387777D01*
X195472107Y-118506112D01*
X195304068Y-118632996D01*
G37*
G36*
X195088646Y-119001559D02*
G01*
X194956266Y-118842068D01*
X195088646Y-118740219D01*
X195610715Y-118848663D01*
X195745659Y-119006199D01*
X195610715Y-119110003D01*
X195088646Y-119001559D01*
G37*
G36*
X194759651Y-116175913D02*
G01*
X194893740Y-116333450D01*
X194893740Y-116998157D01*
X194759651Y-117099640D01*
X194628004Y-116942836D01*
X194628004Y-116278129D01*
X194759651Y-116175913D01*
G37*
G36*
X196097857Y-116454228D02*
G01*
X196230237Y-116611276D01*
X196097857Y-116713248D01*
X195738942Y-116638631D01*
X195573590Y-116442382D01*
X195672752Y-116365812D01*
X196097857Y-116454228D01*
G37*
G36*
X195302725Y-117132979D02*
G01*
X195470764Y-117329717D01*
X195368914Y-117405676D01*
X194943810Y-117317260D01*
X194811430Y-117160334D01*
X194943810Y-117058363D01*
X195302725Y-117132979D01*
G37*
G36*
X196410000Y-117492626D02*
G01*
X196277131Y-117594476D01*
X196144263Y-117437428D01*
X196144263Y-116770156D01*
X196277131Y-116668307D01*
X196410000Y-116825355D01*
X196410000Y-117492626D01*
G37*
G36*
X195386133Y-116580135D02*
G01*
X195519002Y-116478286D01*
X195651870Y-116635334D01*
X195651870Y-117188056D01*
X195519002Y-117289905D01*
X195386133Y-117132857D01*
X195386133Y-116580135D01*
G37*
G36*
X194628004Y-114724134D02*
G01*
X194893740Y-115038474D01*
X194893740Y-115573733D01*
X194628004Y-115777431D01*
X194628004Y-114724134D01*
G37*
G36*
X196410000Y-115094650D02*
G01*
X196410000Y-116147948D01*
X196144263Y-115833729D01*
X196144263Y-115298471D01*
X196410000Y-115094650D01*
G37*
G36*
X195738454Y-115799169D02*
G01*
X196095659Y-115873419D01*
X196361395Y-116187515D01*
X195672752Y-116044389D01*
X195573712Y-115926663D01*
X195738454Y-115799169D01*
G37*
G36*
X195369769Y-115981374D02*
G01*
X194676608Y-115837271D01*
X194942466Y-115633694D01*
X195303213Y-115708677D01*
X195472107Y-115905536D01*
X195369769Y-115981374D01*
G37*
G36*
X195386133Y-115155711D02*
G01*
X195519002Y-115053862D01*
X195651870Y-115210910D01*
X195651870Y-115763631D01*
X195519002Y-115865481D01*
X195386133Y-115708432D01*
X195386133Y-115155711D01*
G37*
G36*
X195737233Y-114374500D02*
G01*
X196142431Y-114458642D01*
X196404138Y-114772005D01*
X195671898Y-114619720D01*
X195573712Y-114502239D01*
X195737233Y-114374500D01*
G37*
G36*
X195370990Y-114557194D02*
G01*
X194635697Y-114404298D01*
X194903998Y-114201210D01*
X195306144Y-114284863D01*
X195472107Y-114481112D01*
X195370990Y-114557194D01*
G37*
G36*
X195672508Y-113516841D02*
G01*
X196410000Y-113670226D01*
X196146461Y-113874413D01*
X195738454Y-113789661D01*
X195573712Y-113593534D01*
X195672508Y-113516841D01*
G37*
G36*
X195303824Y-113699291D02*
G01*
X194895816Y-113614416D01*
X194628126Y-113299832D01*
X195370136Y-113454071D01*
X195472107Y-113572407D01*
X195303824Y-113699291D01*
G37*
G36*
X194628126Y-114333101D02*
G01*
X194630324Y-113955013D01*
X194992658Y-113694284D01*
X195183046Y-113733851D01*
X195183046Y-113918132D01*
X194628126Y-114333101D01*
G37*
G36*
X194759651Y-111902640D02*
G01*
X194893740Y-112060177D01*
X194893740Y-112724884D01*
X194759651Y-112826367D01*
X194628004Y-112669563D01*
X194628004Y-112004856D01*
X194759651Y-111902640D01*
G37*
G36*
X196097857Y-112180955D02*
G01*
X196230237Y-112338003D01*
X196097857Y-112439975D01*
X195738942Y-112365359D01*
X195573590Y-112169109D01*
X195672752Y-112092539D01*
X196097857Y-112180955D01*
G37*
G36*
X195302725Y-112859706D02*
G01*
X195470764Y-113056444D01*
X195368914Y-113132403D01*
X194943810Y-113043987D01*
X194811430Y-112887061D01*
X194943810Y-112785090D01*
X195302725Y-112859706D01*
G37*
G36*
X196410000Y-113219354D02*
G01*
X196277131Y-113321203D01*
X196144263Y-113164155D01*
X196144263Y-112496883D01*
X196277131Y-112395034D01*
X196410000Y-112552082D01*
X196410000Y-113219354D01*
G37*
G36*
X195386133Y-112306862D02*
G01*
X195519002Y-112205013D01*
X195651870Y-112362061D01*
X195651870Y-112914783D01*
X195519002Y-113016632D01*
X195386133Y-112859584D01*
X195386133Y-112306862D01*
G37*
G36*
X195370258Y-110605222D02*
G01*
X195472107Y-110723558D01*
X195304068Y-110850442D01*
X194945153Y-110775826D01*
X194812773Y-110618900D01*
X194945153Y-110516807D01*
X195370258Y-110605222D01*
G37*
G36*
X194759651Y-110655048D02*
G01*
X194893740Y-110812463D01*
X194893740Y-111300460D01*
X194759651Y-111401943D01*
X194628004Y-111245139D01*
X194628004Y-110757141D01*
X194759651Y-110655048D01*
G37*
G36*
X196097857Y-110756531D02*
G01*
X196230237Y-110913579D01*
X196097857Y-111015550D01*
X195739064Y-110940934D01*
X195573712Y-110744685D01*
X195672997Y-110668115D01*
X196097857Y-110756531D01*
G37*
G36*
X195304068Y-111435526D02*
G01*
X195472107Y-111632264D01*
X195370258Y-111708223D01*
X194945153Y-111619807D01*
X194812773Y-111462881D01*
X194945153Y-111360910D01*
X195304068Y-111435526D01*
G37*
G36*
X196410000Y-111615655D02*
G01*
X196277131Y-111717504D01*
X196144263Y-111560456D01*
X196144263Y-111072459D01*
X196277131Y-110970610D01*
X196410000Y-111127658D01*
X196410000Y-111615655D01*
G37*
G36*
X196094316Y-111858799D02*
G01*
X196226695Y-111756827D01*
X196094316Y-111599901D01*
X195735401Y-111525285D01*
X195570048Y-111652658D01*
X195669211Y-111770383D01*
X196094316Y-111858799D01*
G37*
G36*
X195900875Y-110018185D02*
G01*
X195714396Y-109979472D01*
X195715251Y-109792749D01*
X196221688Y-109400250D01*
X196410000Y-109439451D01*
X196410000Y-109626053D01*
X195900875Y-110018185D01*
G37*
G36*
X195738454Y-110101472D02*
G01*
X196146461Y-110186224D01*
X196410000Y-110499954D01*
X195672508Y-110346569D01*
X195573712Y-110228966D01*
X195738454Y-110101472D01*
G37*
G36*
X195369769Y-110283677D02*
G01*
X194676608Y-110139573D01*
X194942466Y-109935997D01*
X195303213Y-110010980D01*
X195472107Y-110207839D01*
X195369769Y-110283677D01*
G37*
G36*
X195386133Y-109458014D02*
G01*
X195519002Y-109356165D01*
X195651870Y-109513213D01*
X195651870Y-110065934D01*
X195519002Y-110167784D01*
X195386133Y-110010735D01*
X195386133Y-109458014D01*
G37*
G36*
X195370258Y-109180798D02*
G01*
X195472107Y-109299134D01*
X195304068Y-109426018D01*
X194945153Y-109351402D01*
X194812773Y-109194476D01*
X194945153Y-109092382D01*
X195370258Y-109180798D01*
G37*
G36*
X194759651Y-109230624D02*
G01*
X194893740Y-109388038D01*
X194893740Y-109876035D01*
X194628004Y-110079734D01*
X194628004Y-109332717D01*
X194759651Y-109230624D01*
G37*
D12*
X164539200Y-130868095D02*
X164634438Y-130582381D01*
X164634438Y-130582381D02*
X164634438Y-130106190D01*
X164634438Y-130106190D02*
X164539200Y-129915714D01*
X164539200Y-129915714D02*
X164443961Y-129820476D01*
X164443961Y-129820476D02*
X164253485Y-129725238D01*
X164253485Y-129725238D02*
X164063009Y-129725238D01*
X164063009Y-129725238D02*
X163872533Y-129820476D01*
X163872533Y-129820476D02*
X163777295Y-129915714D01*
X163777295Y-129915714D02*
X163682057Y-130106190D01*
X163682057Y-130106190D02*
X163586819Y-130487143D01*
X163586819Y-130487143D02*
X163491580Y-130677619D01*
X163491580Y-130677619D02*
X163396342Y-130772857D01*
X163396342Y-130772857D02*
X163205866Y-130868095D01*
X163205866Y-130868095D02*
X163015390Y-130868095D01*
X163015390Y-130868095D02*
X162824914Y-130772857D01*
X162824914Y-130772857D02*
X162729676Y-130677619D01*
X162729676Y-130677619D02*
X162634438Y-130487143D01*
X162634438Y-130487143D02*
X162634438Y-130010952D01*
X162634438Y-130010952D02*
X162729676Y-129725238D01*
X163586819Y-128868095D02*
X163586819Y-128201428D01*
X164634438Y-127915714D02*
X164634438Y-128868095D01*
X164634438Y-128868095D02*
X162634438Y-128868095D01*
X162634438Y-128868095D02*
X162634438Y-127915714D01*
X164634438Y-125915714D02*
X163682057Y-126582381D01*
X164634438Y-127058571D02*
X162634438Y-127058571D01*
X162634438Y-127058571D02*
X162634438Y-126296666D01*
X162634438Y-126296666D02*
X162729676Y-126106190D01*
X162729676Y-126106190D02*
X162824914Y-126010952D01*
X162824914Y-126010952D02*
X163015390Y-125915714D01*
X163015390Y-125915714D02*
X163301104Y-125915714D01*
X163301104Y-125915714D02*
X163491580Y-126010952D01*
X163491580Y-126010952D02*
X163586819Y-126106190D01*
X163586819Y-126106190D02*
X163682057Y-126296666D01*
X163682057Y-126296666D02*
X163682057Y-127058571D01*
X162634438Y-125344285D02*
X164634438Y-124677619D01*
X164634438Y-124677619D02*
X162634438Y-124010952D01*
X163586819Y-123344285D02*
X163586819Y-122677618D01*
X164634438Y-122391904D02*
X164634438Y-123344285D01*
X164634438Y-123344285D02*
X162634438Y-123344285D01*
X162634438Y-123344285D02*
X162634438Y-122391904D01*
X164634438Y-120391904D02*
X163682057Y-121058571D01*
X164634438Y-121534761D02*
X162634438Y-121534761D01*
X162634438Y-121534761D02*
X162634438Y-120772856D01*
X162634438Y-120772856D02*
X162729676Y-120582380D01*
X162729676Y-120582380D02*
X162824914Y-120487142D01*
X162824914Y-120487142D02*
X163015390Y-120391904D01*
X163015390Y-120391904D02*
X163301104Y-120391904D01*
X163301104Y-120391904D02*
X163491580Y-120487142D01*
X163491580Y-120487142D02*
X163586819Y-120582380D01*
X163586819Y-120582380D02*
X163682057Y-120772856D01*
X163682057Y-120772856D02*
X163682057Y-121534761D01*
X174164438Y-128058571D02*
X174164438Y-126915714D01*
X176164438Y-127487143D02*
X174164438Y-127487143D01*
X175593009Y-126344285D02*
X175593009Y-125391904D01*
X176164438Y-126534761D02*
X174164438Y-125868095D01*
X174164438Y-125868095D02*
X176164438Y-125201428D01*
X174259676Y-123487142D02*
X174164438Y-123677618D01*
X174164438Y-123677618D02*
X174164438Y-123963332D01*
X174164438Y-123963332D02*
X174259676Y-124249047D01*
X174259676Y-124249047D02*
X174450152Y-124439523D01*
X174450152Y-124439523D02*
X174640628Y-124534761D01*
X174640628Y-124534761D02*
X175021580Y-124629999D01*
X175021580Y-124629999D02*
X175307295Y-124629999D01*
X175307295Y-124629999D02*
X175688247Y-124534761D01*
X175688247Y-124534761D02*
X175878723Y-124439523D01*
X175878723Y-124439523D02*
X176069200Y-124249047D01*
X176069200Y-124249047D02*
X176164438Y-123963332D01*
X176164438Y-123963332D02*
X176164438Y-123772856D01*
X176164438Y-123772856D02*
X176069200Y-123487142D01*
X176069200Y-123487142D02*
X175973961Y-123391904D01*
X175973961Y-123391904D02*
X175307295Y-123391904D01*
X175307295Y-123391904D02*
X175307295Y-123772856D01*
D13*
X153369523Y-86224619D02*
X154036190Y-86224619D01*
X154321904Y-87272238D02*
X153369523Y-87272238D01*
X153369523Y-87272238D02*
X153369523Y-85272238D01*
X153369523Y-85272238D02*
X154321904Y-85272238D01*
X155083809Y-87177000D02*
X155369523Y-87272238D01*
X155369523Y-87272238D02*
X155845714Y-87272238D01*
X155845714Y-87272238D02*
X156036190Y-87177000D01*
X156036190Y-87177000D02*
X156131428Y-87081761D01*
X156131428Y-87081761D02*
X156226666Y-86891285D01*
X156226666Y-86891285D02*
X156226666Y-86700809D01*
X156226666Y-86700809D02*
X156131428Y-86510333D01*
X156131428Y-86510333D02*
X156036190Y-86415095D01*
X156036190Y-86415095D02*
X155845714Y-86319857D01*
X155845714Y-86319857D02*
X155464761Y-86224619D01*
X155464761Y-86224619D02*
X155274285Y-86129380D01*
X155274285Y-86129380D02*
X155179047Y-86034142D01*
X155179047Y-86034142D02*
X155083809Y-85843666D01*
X155083809Y-85843666D02*
X155083809Y-85653190D01*
X155083809Y-85653190D02*
X155179047Y-85462714D01*
X155179047Y-85462714D02*
X155274285Y-85367476D01*
X155274285Y-85367476D02*
X155464761Y-85272238D01*
X155464761Y-85272238D02*
X155940952Y-85272238D01*
X155940952Y-85272238D02*
X156226666Y-85367476D01*
X157083809Y-87272238D02*
X157083809Y-85272238D01*
X157083809Y-85272238D02*
X157845714Y-85272238D01*
X157845714Y-85272238D02*
X158036190Y-85367476D01*
X158036190Y-85367476D02*
X158131428Y-85462714D01*
X158131428Y-85462714D02*
X158226666Y-85653190D01*
X158226666Y-85653190D02*
X158226666Y-85938904D01*
X158226666Y-85938904D02*
X158131428Y-86129380D01*
X158131428Y-86129380D02*
X158036190Y-86224619D01*
X158036190Y-86224619D02*
X157845714Y-86319857D01*
X157845714Y-86319857D02*
X157083809Y-86319857D01*
X158893333Y-85272238D02*
X160131428Y-85272238D01*
X160131428Y-85272238D02*
X159464761Y-86034142D01*
X159464761Y-86034142D02*
X159750476Y-86034142D01*
X159750476Y-86034142D02*
X159940952Y-86129380D01*
X159940952Y-86129380D02*
X160036190Y-86224619D01*
X160036190Y-86224619D02*
X160131428Y-86415095D01*
X160131428Y-86415095D02*
X160131428Y-86891285D01*
X160131428Y-86891285D02*
X160036190Y-87081761D01*
X160036190Y-87081761D02*
X159940952Y-87177000D01*
X159940952Y-87177000D02*
X159750476Y-87272238D01*
X159750476Y-87272238D02*
X159179047Y-87272238D01*
X159179047Y-87272238D02*
X158988571Y-87177000D01*
X158988571Y-87177000D02*
X158893333Y-87081761D01*
X160893333Y-85462714D02*
X160988571Y-85367476D01*
X160988571Y-85367476D02*
X161179047Y-85272238D01*
X161179047Y-85272238D02*
X161655238Y-85272238D01*
X161655238Y-85272238D02*
X161845714Y-85367476D01*
X161845714Y-85367476D02*
X161940952Y-85462714D01*
X161940952Y-85462714D02*
X162036190Y-85653190D01*
X162036190Y-85653190D02*
X162036190Y-85843666D01*
X162036190Y-85843666D02*
X161940952Y-86129380D01*
X161940952Y-86129380D02*
X160798095Y-87272238D01*
X160798095Y-87272238D02*
X162036190Y-87272238D01*
X162417143Y-87462714D02*
X163940952Y-87462714D01*
X164417143Y-85272238D02*
X164417143Y-86891285D01*
X164417143Y-86891285D02*
X164512381Y-87081761D01*
X164512381Y-87081761D02*
X164607619Y-87177000D01*
X164607619Y-87177000D02*
X164798095Y-87272238D01*
X164798095Y-87272238D02*
X165179048Y-87272238D01*
X165179048Y-87272238D02*
X165369524Y-87177000D01*
X165369524Y-87177000D02*
X165464762Y-87081761D01*
X165464762Y-87081761D02*
X165560000Y-86891285D01*
X165560000Y-86891285D02*
X165560000Y-85272238D01*
X166321905Y-85272238D02*
X166798095Y-87272238D01*
X166798095Y-87272238D02*
X167179048Y-85843666D01*
X167179048Y-85843666D02*
X167560000Y-87272238D01*
X167560000Y-87272238D02*
X168036191Y-85272238D01*
X169464762Y-86224619D02*
X169750476Y-86319857D01*
X169750476Y-86319857D02*
X169845714Y-86415095D01*
X169845714Y-86415095D02*
X169940952Y-86605571D01*
X169940952Y-86605571D02*
X169940952Y-86891285D01*
X169940952Y-86891285D02*
X169845714Y-87081761D01*
X169845714Y-87081761D02*
X169750476Y-87177000D01*
X169750476Y-87177000D02*
X169560000Y-87272238D01*
X169560000Y-87272238D02*
X168798095Y-87272238D01*
X168798095Y-87272238D02*
X168798095Y-85272238D01*
X168798095Y-85272238D02*
X169464762Y-85272238D01*
X169464762Y-85272238D02*
X169655238Y-85367476D01*
X169655238Y-85367476D02*
X169750476Y-85462714D01*
X169750476Y-85462714D02*
X169845714Y-85653190D01*
X169845714Y-85653190D02*
X169845714Y-85843666D01*
X169845714Y-85843666D02*
X169750476Y-86034142D01*
X169750476Y-86034142D02*
X169655238Y-86129380D01*
X169655238Y-86129380D02*
X169464762Y-86224619D01*
X169464762Y-86224619D02*
X168798095Y-86224619D01*
X171845714Y-87272238D02*
X170702857Y-87272238D01*
X171274285Y-87272238D02*
X171274285Y-85272238D01*
X171274285Y-85272238D02*
X171083809Y-85557952D01*
X171083809Y-85557952D02*
X170893333Y-85748428D01*
X170893333Y-85748428D02*
X170702857Y-85843666D01*
D14*
X195588095Y-84547419D02*
X195588095Y-85356942D01*
X195588095Y-85356942D02*
X195635714Y-85452180D01*
X195635714Y-85452180D02*
X195683333Y-85499800D01*
X195683333Y-85499800D02*
X195778571Y-85547419D01*
X195778571Y-85547419D02*
X195969047Y-85547419D01*
X195969047Y-85547419D02*
X196064285Y-85499800D01*
X196064285Y-85499800D02*
X196111904Y-85452180D01*
X196111904Y-85452180D02*
X196159523Y-85356942D01*
X196159523Y-85356942D02*
X196159523Y-84547419D01*
X196588095Y-85499800D02*
X196730952Y-85547419D01*
X196730952Y-85547419D02*
X196969047Y-85547419D01*
X196969047Y-85547419D02*
X197064285Y-85499800D01*
X197064285Y-85499800D02*
X197111904Y-85452180D01*
X197111904Y-85452180D02*
X197159523Y-85356942D01*
X197159523Y-85356942D02*
X197159523Y-85261704D01*
X197159523Y-85261704D02*
X197111904Y-85166466D01*
X197111904Y-85166466D02*
X197064285Y-85118847D01*
X197064285Y-85118847D02*
X196969047Y-85071228D01*
X196969047Y-85071228D02*
X196778571Y-85023609D01*
X196778571Y-85023609D02*
X196683333Y-84975990D01*
X196683333Y-84975990D02*
X196635714Y-84928371D01*
X196635714Y-84928371D02*
X196588095Y-84833133D01*
X196588095Y-84833133D02*
X196588095Y-84737895D01*
X196588095Y-84737895D02*
X196635714Y-84642657D01*
X196635714Y-84642657D02*
X196683333Y-84595038D01*
X196683333Y-84595038D02*
X196778571Y-84547419D01*
X196778571Y-84547419D02*
X197016666Y-84547419D01*
X197016666Y-84547419D02*
X197159523Y-84595038D01*
X197921428Y-85023609D02*
X198064285Y-85071228D01*
X198064285Y-85071228D02*
X198111904Y-85118847D01*
X198111904Y-85118847D02*
X198159523Y-85214085D01*
X198159523Y-85214085D02*
X198159523Y-85356942D01*
X198159523Y-85356942D02*
X198111904Y-85452180D01*
X198111904Y-85452180D02*
X198064285Y-85499800D01*
X198064285Y-85499800D02*
X197969047Y-85547419D01*
X197969047Y-85547419D02*
X197588095Y-85547419D01*
X197588095Y-85547419D02*
X197588095Y-84547419D01*
X197588095Y-84547419D02*
X197921428Y-84547419D01*
X197921428Y-84547419D02*
X198016666Y-84595038D01*
X198016666Y-84595038D02*
X198064285Y-84642657D01*
X198064285Y-84642657D02*
X198111904Y-84737895D01*
X198111904Y-84737895D02*
X198111904Y-84833133D01*
X198111904Y-84833133D02*
X198064285Y-84928371D01*
X198064285Y-84928371D02*
X198016666Y-84975990D01*
X198016666Y-84975990D02*
X197921428Y-85023609D01*
X197921428Y-85023609D02*
X197588095Y-85023609D01*
X166759523Y-73117419D02*
X166759523Y-73926942D01*
X166759523Y-73926942D02*
X166807142Y-74022180D01*
X166807142Y-74022180D02*
X166854761Y-74069800D01*
X166854761Y-74069800D02*
X166949999Y-74117419D01*
X166949999Y-74117419D02*
X167140475Y-74117419D01*
X167140475Y-74117419D02*
X167235713Y-74069800D01*
X167235713Y-74069800D02*
X167283332Y-74022180D01*
X167283332Y-74022180D02*
X167330951Y-73926942D01*
X167330951Y-73926942D02*
X167330951Y-73117419D01*
X167711904Y-73117419D02*
X167949999Y-74117419D01*
X167949999Y-74117419D02*
X168140475Y-73403133D01*
X168140475Y-73403133D02*
X168330951Y-74117419D01*
X168330951Y-74117419D02*
X168569047Y-73117419D01*
X169283332Y-73593609D02*
X169426189Y-73641228D01*
X169426189Y-73641228D02*
X169473808Y-73688847D01*
X169473808Y-73688847D02*
X169521427Y-73784085D01*
X169521427Y-73784085D02*
X169521427Y-73926942D01*
X169521427Y-73926942D02*
X169473808Y-74022180D01*
X169473808Y-74022180D02*
X169426189Y-74069800D01*
X169426189Y-74069800D02*
X169330951Y-74117419D01*
X169330951Y-74117419D02*
X168949999Y-74117419D01*
X168949999Y-74117419D02*
X168949999Y-73117419D01*
X168949999Y-73117419D02*
X169283332Y-73117419D01*
X169283332Y-73117419D02*
X169378570Y-73165038D01*
X169378570Y-73165038D02*
X169426189Y-73212657D01*
X169426189Y-73212657D02*
X169473808Y-73307895D01*
X169473808Y-73307895D02*
X169473808Y-73403133D01*
X169473808Y-73403133D02*
X169426189Y-73498371D01*
X169426189Y-73498371D02*
X169378570Y-73545990D01*
X169378570Y-73545990D02*
X169283332Y-73593609D01*
X169283332Y-73593609D02*
X168949999Y-73593609D01*
X170664285Y-73831704D02*
X171140475Y-73831704D01*
X170569047Y-74117419D02*
X170902380Y-73117419D01*
X170902380Y-73117419D02*
X171235713Y-74117419D01*
X171569047Y-73450752D02*
X171569047Y-74117419D01*
X171569047Y-73545990D02*
X171616666Y-73498371D01*
X171616666Y-73498371D02*
X171711904Y-73450752D01*
X171711904Y-73450752D02*
X171854761Y-73450752D01*
X171854761Y-73450752D02*
X171949999Y-73498371D01*
X171949999Y-73498371D02*
X171997618Y-73593609D01*
X171997618Y-73593609D02*
X171997618Y-74117419D01*
X172330952Y-73450752D02*
X172711904Y-73450752D01*
X172473809Y-73117419D02*
X172473809Y-73974561D01*
X172473809Y-73974561D02*
X172521428Y-74069800D01*
X172521428Y-74069800D02*
X172616666Y-74117419D01*
X172616666Y-74117419D02*
X172711904Y-74117419D01*
X173426190Y-74069800D02*
X173330952Y-74117419D01*
X173330952Y-74117419D02*
X173140476Y-74117419D01*
X173140476Y-74117419D02*
X173045238Y-74069800D01*
X173045238Y-74069800D02*
X172997619Y-73974561D01*
X172997619Y-73974561D02*
X172997619Y-73593609D01*
X172997619Y-73593609D02*
X173045238Y-73498371D01*
X173045238Y-73498371D02*
X173140476Y-73450752D01*
X173140476Y-73450752D02*
X173330952Y-73450752D01*
X173330952Y-73450752D02*
X173426190Y-73498371D01*
X173426190Y-73498371D02*
X173473809Y-73593609D01*
X173473809Y-73593609D02*
X173473809Y-73688847D01*
X173473809Y-73688847D02*
X172997619Y-73784085D01*
X173902381Y-73450752D02*
X173902381Y-74117419D01*
X173902381Y-73545990D02*
X173950000Y-73498371D01*
X173950000Y-73498371D02*
X174045238Y-73450752D01*
X174045238Y-73450752D02*
X174188095Y-73450752D01*
X174188095Y-73450752D02*
X174283333Y-73498371D01*
X174283333Y-73498371D02*
X174330952Y-73593609D01*
X174330952Y-73593609D02*
X174330952Y-74117419D01*
X174807143Y-73450752D02*
X174807143Y-74117419D01*
X174807143Y-73545990D02*
X174854762Y-73498371D01*
X174854762Y-73498371D02*
X174950000Y-73450752D01*
X174950000Y-73450752D02*
X175092857Y-73450752D01*
X175092857Y-73450752D02*
X175188095Y-73498371D01*
X175188095Y-73498371D02*
X175235714Y-73593609D01*
X175235714Y-73593609D02*
X175235714Y-74117419D01*
X176140476Y-74117419D02*
X176140476Y-73593609D01*
X176140476Y-73593609D02*
X176092857Y-73498371D01*
X176092857Y-73498371D02*
X175997619Y-73450752D01*
X175997619Y-73450752D02*
X175807143Y-73450752D01*
X175807143Y-73450752D02*
X175711905Y-73498371D01*
X176140476Y-74069800D02*
X176045238Y-74117419D01*
X176045238Y-74117419D02*
X175807143Y-74117419D01*
X175807143Y-74117419D02*
X175711905Y-74069800D01*
X175711905Y-74069800D02*
X175664286Y-73974561D01*
X175664286Y-73974561D02*
X175664286Y-73879323D01*
X175664286Y-73879323D02*
X175711905Y-73784085D01*
X175711905Y-73784085D02*
X175807143Y-73736466D01*
X175807143Y-73736466D02*
X176045238Y-73736466D01*
X176045238Y-73736466D02*
X176140476Y-73688847D01*
X129473609Y-90566190D02*
X129473609Y-90232857D01*
X129997419Y-90090000D02*
X129997419Y-90566190D01*
X129997419Y-90566190D02*
X128997419Y-90566190D01*
X128997419Y-90566190D02*
X128997419Y-90090000D01*
X129949800Y-89709047D02*
X129997419Y-89566190D01*
X129997419Y-89566190D02*
X129997419Y-89328095D01*
X129997419Y-89328095D02*
X129949800Y-89232857D01*
X129949800Y-89232857D02*
X129902180Y-89185238D01*
X129902180Y-89185238D02*
X129806942Y-89137619D01*
X129806942Y-89137619D02*
X129711704Y-89137619D01*
X129711704Y-89137619D02*
X129616466Y-89185238D01*
X129616466Y-89185238D02*
X129568847Y-89232857D01*
X129568847Y-89232857D02*
X129521228Y-89328095D01*
X129521228Y-89328095D02*
X129473609Y-89518571D01*
X129473609Y-89518571D02*
X129425990Y-89613809D01*
X129425990Y-89613809D02*
X129378371Y-89661428D01*
X129378371Y-89661428D02*
X129283133Y-89709047D01*
X129283133Y-89709047D02*
X129187895Y-89709047D01*
X129187895Y-89709047D02*
X129092657Y-89661428D01*
X129092657Y-89661428D02*
X129045038Y-89613809D01*
X129045038Y-89613809D02*
X128997419Y-89518571D01*
X128997419Y-89518571D02*
X128997419Y-89280476D01*
X128997419Y-89280476D02*
X129045038Y-89137619D01*
X129997419Y-88709047D02*
X128997419Y-88709047D01*
X128997419Y-88709047D02*
X128997419Y-88328095D01*
X128997419Y-88328095D02*
X129045038Y-88232857D01*
X129045038Y-88232857D02*
X129092657Y-88185238D01*
X129092657Y-88185238D02*
X129187895Y-88137619D01*
X129187895Y-88137619D02*
X129330752Y-88137619D01*
X129330752Y-88137619D02*
X129425990Y-88185238D01*
X129425990Y-88185238D02*
X129473609Y-88232857D01*
X129473609Y-88232857D02*
X129521228Y-88328095D01*
X129521228Y-88328095D02*
X129521228Y-88709047D01*
X128997419Y-87804285D02*
X128997419Y-87185238D01*
X128997419Y-87185238D02*
X129378371Y-87518571D01*
X129378371Y-87518571D02*
X129378371Y-87375714D01*
X129378371Y-87375714D02*
X129425990Y-87280476D01*
X129425990Y-87280476D02*
X129473609Y-87232857D01*
X129473609Y-87232857D02*
X129568847Y-87185238D01*
X129568847Y-87185238D02*
X129806942Y-87185238D01*
X129806942Y-87185238D02*
X129902180Y-87232857D01*
X129902180Y-87232857D02*
X129949800Y-87280476D01*
X129949800Y-87280476D02*
X129997419Y-87375714D01*
X129997419Y-87375714D02*
X129997419Y-87661428D01*
X129997419Y-87661428D02*
X129949800Y-87756666D01*
X129949800Y-87756666D02*
X129902180Y-87804285D01*
X129092657Y-86804285D02*
X129045038Y-86756666D01*
X129045038Y-86756666D02*
X128997419Y-86661428D01*
X128997419Y-86661428D02*
X128997419Y-86423333D01*
X128997419Y-86423333D02*
X129045038Y-86328095D01*
X129045038Y-86328095D02*
X129092657Y-86280476D01*
X129092657Y-86280476D02*
X129187895Y-86232857D01*
X129187895Y-86232857D02*
X129283133Y-86232857D01*
X129283133Y-86232857D02*
X129425990Y-86280476D01*
X129425990Y-86280476D02*
X129997419Y-86851904D01*
X129997419Y-86851904D02*
X129997419Y-86232857D01*
X129711704Y-85089999D02*
X129711704Y-84613809D01*
X129997419Y-85185237D02*
X128997419Y-84851904D01*
X128997419Y-84851904D02*
X129997419Y-84518571D01*
X129330752Y-84185237D02*
X129997419Y-84185237D01*
X129425990Y-84185237D02*
X129378371Y-84137618D01*
X129378371Y-84137618D02*
X129330752Y-84042380D01*
X129330752Y-84042380D02*
X129330752Y-83899523D01*
X129330752Y-83899523D02*
X129378371Y-83804285D01*
X129378371Y-83804285D02*
X129473609Y-83756666D01*
X129473609Y-83756666D02*
X129997419Y-83756666D01*
X129330752Y-83423332D02*
X129330752Y-83042380D01*
X128997419Y-83280475D02*
X129854561Y-83280475D01*
X129854561Y-83280475D02*
X129949800Y-83232856D01*
X129949800Y-83232856D02*
X129997419Y-83137618D01*
X129997419Y-83137618D02*
X129997419Y-83042380D01*
X129949800Y-82328094D02*
X129997419Y-82423332D01*
X129997419Y-82423332D02*
X129997419Y-82613808D01*
X129997419Y-82613808D02*
X129949800Y-82709046D01*
X129949800Y-82709046D02*
X129854561Y-82756665D01*
X129854561Y-82756665D02*
X129473609Y-82756665D01*
X129473609Y-82756665D02*
X129378371Y-82709046D01*
X129378371Y-82709046D02*
X129330752Y-82613808D01*
X129330752Y-82613808D02*
X129330752Y-82423332D01*
X129330752Y-82423332D02*
X129378371Y-82328094D01*
X129378371Y-82328094D02*
X129473609Y-82280475D01*
X129473609Y-82280475D02*
X129568847Y-82280475D01*
X129568847Y-82280475D02*
X129664085Y-82756665D01*
X129330752Y-81851903D02*
X129997419Y-81851903D01*
X129425990Y-81851903D02*
X129378371Y-81804284D01*
X129378371Y-81804284D02*
X129330752Y-81709046D01*
X129330752Y-81709046D02*
X129330752Y-81566189D01*
X129330752Y-81566189D02*
X129378371Y-81470951D01*
X129378371Y-81470951D02*
X129473609Y-81423332D01*
X129473609Y-81423332D02*
X129997419Y-81423332D01*
X129330752Y-80947141D02*
X129997419Y-80947141D01*
X129425990Y-80947141D02*
X129378371Y-80899522D01*
X129378371Y-80899522D02*
X129330752Y-80804284D01*
X129330752Y-80804284D02*
X129330752Y-80661427D01*
X129330752Y-80661427D02*
X129378371Y-80566189D01*
X129378371Y-80566189D02*
X129473609Y-80518570D01*
X129473609Y-80518570D02*
X129997419Y-80518570D01*
X129997419Y-79613808D02*
X129473609Y-79613808D01*
X129473609Y-79613808D02*
X129378371Y-79661427D01*
X129378371Y-79661427D02*
X129330752Y-79756665D01*
X129330752Y-79756665D02*
X129330752Y-79947141D01*
X129330752Y-79947141D02*
X129378371Y-80042379D01*
X129949800Y-79613808D02*
X129997419Y-79709046D01*
X129997419Y-79709046D02*
X129997419Y-79947141D01*
X129997419Y-79947141D02*
X129949800Y-80042379D01*
X129949800Y-80042379D02*
X129854561Y-80089998D01*
X129854561Y-80089998D02*
X129759323Y-80089998D01*
X129759323Y-80089998D02*
X129664085Y-80042379D01*
X129664085Y-80042379D02*
X129616466Y-79947141D01*
X129616466Y-79947141D02*
X129616466Y-79709046D01*
X129616466Y-79709046D02*
X129568847Y-79613808D01*
D15*
X172275290Y-108069297D02*
X172037195Y-108235963D01*
X172275290Y-108355011D02*
X171775290Y-108355011D01*
X171775290Y-108355011D02*
X171775290Y-108164535D01*
X171775290Y-108164535D02*
X171799100Y-108116916D01*
X171799100Y-108116916D02*
X171822909Y-108093106D01*
X171822909Y-108093106D02*
X171870528Y-108069297D01*
X171870528Y-108069297D02*
X171941957Y-108069297D01*
X171941957Y-108069297D02*
X171989576Y-108093106D01*
X171989576Y-108093106D02*
X172013385Y-108116916D01*
X172013385Y-108116916D02*
X172037195Y-108164535D01*
X172037195Y-108164535D02*
X172037195Y-108355011D01*
X171941957Y-107640725D02*
X172275290Y-107640725D01*
X171751481Y-107759773D02*
X172108623Y-107878820D01*
X172108623Y-107878820D02*
X172108623Y-107569297D01*
X159575290Y-108069297D02*
X159337195Y-108235963D01*
X159575290Y-108355011D02*
X159075290Y-108355011D01*
X159075290Y-108355011D02*
X159075290Y-108164535D01*
X159075290Y-108164535D02*
X159099100Y-108116916D01*
X159099100Y-108116916D02*
X159122909Y-108093106D01*
X159122909Y-108093106D02*
X159170528Y-108069297D01*
X159170528Y-108069297D02*
X159241957Y-108069297D01*
X159241957Y-108069297D02*
X159289576Y-108093106D01*
X159289576Y-108093106D02*
X159313385Y-108116916D01*
X159313385Y-108116916D02*
X159337195Y-108164535D01*
X159337195Y-108164535D02*
X159337195Y-108355011D01*
X159575290Y-107593106D02*
X159575290Y-107878820D01*
X159575290Y-107735963D02*
X159075290Y-107735963D01*
X159075290Y-107735963D02*
X159146719Y-107783582D01*
X159146719Y-107783582D02*
X159194338Y-107831201D01*
X159194338Y-107831201D02*
X159218147Y-107878820D01*
X161413334Y-113409601D02*
X161484762Y-113433410D01*
X161484762Y-113433410D02*
X161603810Y-113433410D01*
X161603810Y-113433410D02*
X161651429Y-113409601D01*
X161651429Y-113409601D02*
X161675238Y-113385791D01*
X161675238Y-113385791D02*
X161699048Y-113338172D01*
X161699048Y-113338172D02*
X161699048Y-113290553D01*
X161699048Y-113290553D02*
X161675238Y-113242934D01*
X161675238Y-113242934D02*
X161651429Y-113219124D01*
X161651429Y-113219124D02*
X161603810Y-113195315D01*
X161603810Y-113195315D02*
X161508572Y-113171505D01*
X161508572Y-113171505D02*
X161460953Y-113147696D01*
X161460953Y-113147696D02*
X161437143Y-113123886D01*
X161437143Y-113123886D02*
X161413334Y-113076267D01*
X161413334Y-113076267D02*
X161413334Y-113028648D01*
X161413334Y-113028648D02*
X161437143Y-112981029D01*
X161437143Y-112981029D02*
X161460953Y-112957220D01*
X161460953Y-112957220D02*
X161508572Y-112933410D01*
X161508572Y-112933410D02*
X161627619Y-112933410D01*
X161627619Y-112933410D02*
X161699048Y-112957220D01*
X161913333Y-113171505D02*
X162080000Y-113171505D01*
X162151428Y-113433410D02*
X161913333Y-113433410D01*
X161913333Y-113433410D02*
X161913333Y-112933410D01*
X161913333Y-112933410D02*
X162151428Y-112933410D01*
X162651428Y-113433410D02*
X162484762Y-113195315D01*
X162365714Y-113433410D02*
X162365714Y-112933410D01*
X162365714Y-112933410D02*
X162556190Y-112933410D01*
X162556190Y-112933410D02*
X162603809Y-112957220D01*
X162603809Y-112957220D02*
X162627619Y-112981029D01*
X162627619Y-112981029D02*
X162651428Y-113028648D01*
X162651428Y-113028648D02*
X162651428Y-113100077D01*
X162651428Y-113100077D02*
X162627619Y-113147696D01*
X162627619Y-113147696D02*
X162603809Y-113171505D01*
X162603809Y-113171505D02*
X162556190Y-113195315D01*
X162556190Y-113195315D02*
X162365714Y-113195315D01*
X162794286Y-112933410D02*
X162960952Y-113433410D01*
X162960952Y-113433410D02*
X163127619Y-112933410D01*
X163294285Y-113171505D02*
X163460952Y-113171505D01*
X163532380Y-113433410D02*
X163294285Y-113433410D01*
X163294285Y-113433410D02*
X163294285Y-112933410D01*
X163294285Y-112933410D02*
X163532380Y-112933410D01*
X164032380Y-113433410D02*
X163865714Y-113195315D01*
X163746666Y-113433410D02*
X163746666Y-112933410D01*
X163746666Y-112933410D02*
X163937142Y-112933410D01*
X163937142Y-112933410D02*
X163984761Y-112957220D01*
X163984761Y-112957220D02*
X164008571Y-112981029D01*
X164008571Y-112981029D02*
X164032380Y-113028648D01*
X164032380Y-113028648D02*
X164032380Y-113100077D01*
X164032380Y-113100077D02*
X164008571Y-113147696D01*
X164008571Y-113147696D02*
X163984761Y-113171505D01*
X163984761Y-113171505D02*
X163937142Y-113195315D01*
X163937142Y-113195315D02*
X163746666Y-113195315D01*
X164127619Y-113481029D02*
X164508571Y-113481029D01*
X164865713Y-113433410D02*
X164627618Y-113433410D01*
X164627618Y-113433410D02*
X164627618Y-112933410D01*
X165032380Y-113171505D02*
X165199047Y-113171505D01*
X165270475Y-113433410D02*
X165032380Y-113433410D01*
X165032380Y-113433410D02*
X165032380Y-112933410D01*
X165032380Y-112933410D02*
X165270475Y-112933410D01*
X165484761Y-113433410D02*
X165484761Y-112933410D01*
X165484761Y-112933410D02*
X165603809Y-112933410D01*
X165603809Y-112933410D02*
X165675237Y-112957220D01*
X165675237Y-112957220D02*
X165722856Y-113004839D01*
X165722856Y-113004839D02*
X165746666Y-113052458D01*
X165746666Y-113052458D02*
X165770475Y-113147696D01*
X165770475Y-113147696D02*
X165770475Y-113219124D01*
X165770475Y-113219124D02*
X165746666Y-113314362D01*
X165746666Y-113314362D02*
X165722856Y-113361981D01*
X165722856Y-113361981D02*
X165675237Y-113409601D01*
X165675237Y-113409601D02*
X165603809Y-113433410D01*
X165603809Y-113433410D02*
X165484761Y-113433410D01*
X166246666Y-113433410D02*
X165960952Y-113433410D01*
X166103809Y-113433410D02*
X166103809Y-112933410D01*
X166103809Y-112933410D02*
X166056190Y-113004839D01*
X166056190Y-113004839D02*
X166008571Y-113052458D01*
X166008571Y-113052458D02*
X165960952Y-113076267D01*
X160174761Y-118338059D02*
X160008095Y-118099964D01*
X159889047Y-118338059D02*
X159889047Y-117838059D01*
X159889047Y-117838059D02*
X160079523Y-117838059D01*
X160079523Y-117838059D02*
X160127142Y-117861869D01*
X160127142Y-117861869D02*
X160150952Y-117885678D01*
X160150952Y-117885678D02*
X160174761Y-117933297D01*
X160174761Y-117933297D02*
X160174761Y-118004726D01*
X160174761Y-118004726D02*
X160150952Y-118052345D01*
X160150952Y-118052345D02*
X160127142Y-118076154D01*
X160127142Y-118076154D02*
X160079523Y-118099964D01*
X160079523Y-118099964D02*
X159889047Y-118099964D01*
X165230952Y-117861869D02*
X165183333Y-117838059D01*
X165183333Y-117838059D02*
X165111904Y-117838059D01*
X165111904Y-117838059D02*
X165040476Y-117861869D01*
X165040476Y-117861869D02*
X164992857Y-117909488D01*
X164992857Y-117909488D02*
X164969047Y-117957107D01*
X164969047Y-117957107D02*
X164945238Y-118052345D01*
X164945238Y-118052345D02*
X164945238Y-118123773D01*
X164945238Y-118123773D02*
X164969047Y-118219011D01*
X164969047Y-118219011D02*
X164992857Y-118266630D01*
X164992857Y-118266630D02*
X165040476Y-118314250D01*
X165040476Y-118314250D02*
X165111904Y-118338059D01*
X165111904Y-118338059D02*
X165159523Y-118338059D01*
X165159523Y-118338059D02*
X165230952Y-118314250D01*
X165230952Y-118314250D02*
X165254761Y-118290440D01*
X165254761Y-118290440D02*
X165254761Y-118123773D01*
X165254761Y-118123773D02*
X165159523Y-118123773D01*
X161893334Y-117838059D02*
X162060000Y-118338059D01*
X162060000Y-118338059D02*
X162226667Y-117838059D01*
X162679047Y-118290440D02*
X162655238Y-118314250D01*
X162655238Y-118314250D02*
X162583809Y-118338059D01*
X162583809Y-118338059D02*
X162536190Y-118338059D01*
X162536190Y-118338059D02*
X162464762Y-118314250D01*
X162464762Y-118314250D02*
X162417143Y-118266630D01*
X162417143Y-118266630D02*
X162393333Y-118219011D01*
X162393333Y-118219011D02*
X162369524Y-118123773D01*
X162369524Y-118123773D02*
X162369524Y-118052345D01*
X162369524Y-118052345D02*
X162393333Y-117957107D01*
X162393333Y-117957107D02*
X162417143Y-117909488D01*
X162417143Y-117909488D02*
X162464762Y-117861869D01*
X162464762Y-117861869D02*
X162536190Y-117838059D01*
X162536190Y-117838059D02*
X162583809Y-117838059D01*
X162583809Y-117838059D02*
X162655238Y-117861869D01*
X162655238Y-117861869D02*
X162679047Y-117885678D01*
X163179047Y-118290440D02*
X163155238Y-118314250D01*
X163155238Y-118314250D02*
X163083809Y-118338059D01*
X163083809Y-118338059D02*
X163036190Y-118338059D01*
X163036190Y-118338059D02*
X162964762Y-118314250D01*
X162964762Y-118314250D02*
X162917143Y-118266630D01*
X162917143Y-118266630D02*
X162893333Y-118219011D01*
X162893333Y-118219011D02*
X162869524Y-118123773D01*
X162869524Y-118123773D02*
X162869524Y-118052345D01*
X162869524Y-118052345D02*
X162893333Y-117957107D01*
X162893333Y-117957107D02*
X162917143Y-117909488D01*
X162917143Y-117909488D02*
X162964762Y-117861869D01*
X162964762Y-117861869D02*
X163036190Y-117838059D01*
X163036190Y-117838059D02*
X163083809Y-117838059D01*
X163083809Y-117838059D02*
X163155238Y-117861869D01*
X163155238Y-117861869D02*
X163179047Y-117885678D01*
X167675714Y-118076154D02*
X167747142Y-118099964D01*
X167747142Y-118099964D02*
X167770952Y-118123773D01*
X167770952Y-118123773D02*
X167794761Y-118171392D01*
X167794761Y-118171392D02*
X167794761Y-118242821D01*
X167794761Y-118242821D02*
X167770952Y-118290440D01*
X167770952Y-118290440D02*
X167747142Y-118314250D01*
X167747142Y-118314250D02*
X167699523Y-118338059D01*
X167699523Y-118338059D02*
X167509047Y-118338059D01*
X167509047Y-118338059D02*
X167509047Y-117838059D01*
X167509047Y-117838059D02*
X167675714Y-117838059D01*
X167675714Y-117838059D02*
X167723333Y-117861869D01*
X167723333Y-117861869D02*
X167747142Y-117885678D01*
X167747142Y-117885678D02*
X167770952Y-117933297D01*
X167770952Y-117933297D02*
X167770952Y-117980916D01*
X167770952Y-117980916D02*
X167747142Y-118028535D01*
X167747142Y-118028535D02*
X167723333Y-118052345D01*
X167723333Y-118052345D02*
X167675714Y-118076154D01*
X167675714Y-118076154D02*
X167509047Y-118076154D01*
X142558572Y-120708059D02*
X142320477Y-120708059D01*
X142320477Y-120708059D02*
X142296668Y-120946154D01*
X142296668Y-120946154D02*
X142320477Y-120922345D01*
X142320477Y-120922345D02*
X142368096Y-120898535D01*
X142368096Y-120898535D02*
X142487144Y-120898535D01*
X142487144Y-120898535D02*
X142534763Y-120922345D01*
X142534763Y-120922345D02*
X142558572Y-120946154D01*
X142558572Y-120946154D02*
X142582382Y-120993773D01*
X142582382Y-120993773D02*
X142582382Y-121112821D01*
X142582382Y-121112821D02*
X142558572Y-121160440D01*
X142558572Y-121160440D02*
X142534763Y-121184250D01*
X142534763Y-121184250D02*
X142487144Y-121208059D01*
X142487144Y-121208059D02*
X142368096Y-121208059D01*
X142368096Y-121208059D02*
X142320477Y-121184250D01*
X142320477Y-121184250D02*
X142296668Y-121160440D01*
X142725239Y-120708059D02*
X142891905Y-121208059D01*
X142891905Y-121208059D02*
X143058572Y-120708059D01*
X143106191Y-121255678D02*
X143487143Y-121255678D01*
X143891904Y-121208059D02*
X143725238Y-120969964D01*
X143606190Y-121208059D02*
X143606190Y-120708059D01*
X143606190Y-120708059D02*
X143796666Y-120708059D01*
X143796666Y-120708059D02*
X143844285Y-120731869D01*
X143844285Y-120731869D02*
X143868095Y-120755678D01*
X143868095Y-120755678D02*
X143891904Y-120803297D01*
X143891904Y-120803297D02*
X143891904Y-120874726D01*
X143891904Y-120874726D02*
X143868095Y-120922345D01*
X143868095Y-120922345D02*
X143844285Y-120946154D01*
X143844285Y-120946154D02*
X143796666Y-120969964D01*
X143796666Y-120969964D02*
X143606190Y-120969964D01*
X144296666Y-121184250D02*
X144249047Y-121208059D01*
X144249047Y-121208059D02*
X144153809Y-121208059D01*
X144153809Y-121208059D02*
X144106190Y-121184250D01*
X144106190Y-121184250D02*
X144082381Y-121136630D01*
X144082381Y-121136630D02*
X144082381Y-120946154D01*
X144082381Y-120946154D02*
X144106190Y-120898535D01*
X144106190Y-120898535D02*
X144153809Y-120874726D01*
X144153809Y-120874726D02*
X144249047Y-120874726D01*
X144249047Y-120874726D02*
X144296666Y-120898535D01*
X144296666Y-120898535D02*
X144320476Y-120946154D01*
X144320476Y-120946154D02*
X144320476Y-120993773D01*
X144320476Y-120993773D02*
X144082381Y-121041392D01*
X144749047Y-120874726D02*
X144749047Y-121279488D01*
X144749047Y-121279488D02*
X144725237Y-121327107D01*
X144725237Y-121327107D02*
X144701428Y-121350916D01*
X144701428Y-121350916D02*
X144653809Y-121374726D01*
X144653809Y-121374726D02*
X144582380Y-121374726D01*
X144582380Y-121374726D02*
X144534761Y-121350916D01*
X144749047Y-121184250D02*
X144701428Y-121208059D01*
X144701428Y-121208059D02*
X144606190Y-121208059D01*
X144606190Y-121208059D02*
X144558571Y-121184250D01*
X144558571Y-121184250D02*
X144534761Y-121160440D01*
X144534761Y-121160440D02*
X144510952Y-121112821D01*
X144510952Y-121112821D02*
X144510952Y-120969964D01*
X144510952Y-120969964D02*
X144534761Y-120922345D01*
X144534761Y-120922345D02*
X144558571Y-120898535D01*
X144558571Y-120898535D02*
X144606190Y-120874726D01*
X144606190Y-120874726D02*
X144701428Y-120874726D01*
X144701428Y-120874726D02*
X144749047Y-120898535D01*
X145201428Y-120874726D02*
X145201428Y-121208059D01*
X144987142Y-120874726D02*
X144987142Y-121136630D01*
X144987142Y-121136630D02*
X145010952Y-121184250D01*
X145010952Y-121184250D02*
X145058571Y-121208059D01*
X145058571Y-121208059D02*
X145129999Y-121208059D01*
X145129999Y-121208059D02*
X145177618Y-121184250D01*
X145177618Y-121184250D02*
X145201428Y-121160440D01*
X145510952Y-121208059D02*
X145463333Y-121184250D01*
X145463333Y-121184250D02*
X145439523Y-121136630D01*
X145439523Y-121136630D02*
X145439523Y-120708059D01*
X145915714Y-121208059D02*
X145915714Y-120946154D01*
X145915714Y-120946154D02*
X145891904Y-120898535D01*
X145891904Y-120898535D02*
X145844285Y-120874726D01*
X145844285Y-120874726D02*
X145749047Y-120874726D01*
X145749047Y-120874726D02*
X145701428Y-120898535D01*
X145915714Y-121184250D02*
X145868095Y-121208059D01*
X145868095Y-121208059D02*
X145749047Y-121208059D01*
X145749047Y-121208059D02*
X145701428Y-121184250D01*
X145701428Y-121184250D02*
X145677619Y-121136630D01*
X145677619Y-121136630D02*
X145677619Y-121089011D01*
X145677619Y-121089011D02*
X145701428Y-121041392D01*
X145701428Y-121041392D02*
X145749047Y-121017583D01*
X145749047Y-121017583D02*
X145868095Y-121017583D01*
X145868095Y-121017583D02*
X145915714Y-120993773D01*
X146082381Y-120874726D02*
X146272857Y-120874726D01*
X146153809Y-120708059D02*
X146153809Y-121136630D01*
X146153809Y-121136630D02*
X146177619Y-121184250D01*
X146177619Y-121184250D02*
X146225238Y-121208059D01*
X146225238Y-121208059D02*
X146272857Y-121208059D01*
X146510952Y-121208059D02*
X146463333Y-121184250D01*
X146463333Y-121184250D02*
X146439523Y-121160440D01*
X146439523Y-121160440D02*
X146415714Y-121112821D01*
X146415714Y-121112821D02*
X146415714Y-120969964D01*
X146415714Y-120969964D02*
X146439523Y-120922345D01*
X146439523Y-120922345D02*
X146463333Y-120898535D01*
X146463333Y-120898535D02*
X146510952Y-120874726D01*
X146510952Y-120874726D02*
X146582380Y-120874726D01*
X146582380Y-120874726D02*
X146629999Y-120898535D01*
X146629999Y-120898535D02*
X146653809Y-120922345D01*
X146653809Y-120922345D02*
X146677618Y-120969964D01*
X146677618Y-120969964D02*
X146677618Y-121112821D01*
X146677618Y-121112821D02*
X146653809Y-121160440D01*
X146653809Y-121160440D02*
X146629999Y-121184250D01*
X146629999Y-121184250D02*
X146582380Y-121208059D01*
X146582380Y-121208059D02*
X146510952Y-121208059D01*
X146891904Y-121208059D02*
X146891904Y-120874726D01*
X146891904Y-120969964D02*
X146915714Y-120922345D01*
X146915714Y-120922345D02*
X146939523Y-120898535D01*
X146939523Y-120898535D02*
X146987142Y-120874726D01*
X146987142Y-120874726D02*
X147034761Y-120874726D01*
X147463333Y-121208059D02*
X147177619Y-121208059D01*
X147320476Y-121208059D02*
X147320476Y-120708059D01*
X147320476Y-120708059D02*
X147272857Y-120779488D01*
X147272857Y-120779488D02*
X147225238Y-120827107D01*
X147225238Y-120827107D02*
X147177619Y-120850916D01*
X137420165Y-118375559D02*
X137420165Y-117875559D01*
X137658260Y-118375559D02*
X137658260Y-117875559D01*
X137658260Y-117875559D02*
X137943974Y-118375559D01*
X137943974Y-118375559D02*
X137943974Y-117875559D01*
X138182070Y-118185083D02*
X138563023Y-118185083D01*
X150625547Y-117875559D02*
X150720785Y-117875559D01*
X150720785Y-117875559D02*
X150768404Y-117899369D01*
X150768404Y-117899369D02*
X150816023Y-117946988D01*
X150816023Y-117946988D02*
X150839833Y-118042226D01*
X150839833Y-118042226D02*
X150839833Y-118208892D01*
X150839833Y-118208892D02*
X150816023Y-118304130D01*
X150816023Y-118304130D02*
X150768404Y-118351750D01*
X150768404Y-118351750D02*
X150720785Y-118375559D01*
X150720785Y-118375559D02*
X150625547Y-118375559D01*
X150625547Y-118375559D02*
X150577928Y-118351750D01*
X150577928Y-118351750D02*
X150530309Y-118304130D01*
X150530309Y-118304130D02*
X150506500Y-118208892D01*
X150506500Y-118208892D02*
X150506500Y-118042226D01*
X150506500Y-118042226D02*
X150530309Y-117946988D01*
X150530309Y-117946988D02*
X150577928Y-117899369D01*
X150577928Y-117899369D02*
X150625547Y-117875559D01*
X151054119Y-117875559D02*
X151054119Y-118280321D01*
X151054119Y-118280321D02*
X151077929Y-118327940D01*
X151077929Y-118327940D02*
X151101738Y-118351750D01*
X151101738Y-118351750D02*
X151149357Y-118375559D01*
X151149357Y-118375559D02*
X151244595Y-118375559D01*
X151244595Y-118375559D02*
X151292214Y-118351750D01*
X151292214Y-118351750D02*
X151316024Y-118327940D01*
X151316024Y-118327940D02*
X151339833Y-118280321D01*
X151339833Y-118280321D02*
X151339833Y-117875559D01*
X151506501Y-117875559D02*
X151792215Y-117875559D01*
X151649358Y-118375559D02*
X151649358Y-117875559D01*
X151958881Y-118185083D02*
X152339834Y-118185083D01*
X150625547Y-123540559D02*
X150720785Y-123540559D01*
X150720785Y-123540559D02*
X150768404Y-123564369D01*
X150768404Y-123564369D02*
X150816023Y-123611988D01*
X150816023Y-123611988D02*
X150839833Y-123707226D01*
X150839833Y-123707226D02*
X150839833Y-123873892D01*
X150839833Y-123873892D02*
X150816023Y-123969130D01*
X150816023Y-123969130D02*
X150768404Y-124016750D01*
X150768404Y-124016750D02*
X150720785Y-124040559D01*
X150720785Y-124040559D02*
X150625547Y-124040559D01*
X150625547Y-124040559D02*
X150577928Y-124016750D01*
X150577928Y-124016750D02*
X150530309Y-123969130D01*
X150530309Y-123969130D02*
X150506500Y-123873892D01*
X150506500Y-123873892D02*
X150506500Y-123707226D01*
X150506500Y-123707226D02*
X150530309Y-123611988D01*
X150530309Y-123611988D02*
X150577928Y-123564369D01*
X150577928Y-123564369D02*
X150625547Y-123540559D01*
X151054119Y-123540559D02*
X151054119Y-123945321D01*
X151054119Y-123945321D02*
X151077929Y-123992940D01*
X151077929Y-123992940D02*
X151101738Y-124016750D01*
X151101738Y-124016750D02*
X151149357Y-124040559D01*
X151149357Y-124040559D02*
X151244595Y-124040559D01*
X151244595Y-124040559D02*
X151292214Y-124016750D01*
X151292214Y-124016750D02*
X151316024Y-123992940D01*
X151316024Y-123992940D02*
X151339833Y-123945321D01*
X151339833Y-123945321D02*
X151339833Y-123540559D01*
X151506501Y-123540559D02*
X151792215Y-123540559D01*
X151649358Y-124040559D02*
X151649358Y-123540559D01*
X151958881Y-123850083D02*
X152339834Y-123850083D01*
X152149357Y-124040559D02*
X152149357Y-123659607D01*
X137420165Y-124040559D02*
X137420165Y-123540559D01*
X137658260Y-124040559D02*
X137658260Y-123540559D01*
X137658260Y-123540559D02*
X137943974Y-124040559D01*
X137943974Y-124040559D02*
X137943974Y-123540559D01*
X138182070Y-123850083D02*
X138563023Y-123850083D01*
X138372546Y-124040559D02*
X138372546Y-123659607D01*
X177355290Y-108069297D02*
X177117195Y-108235963D01*
X177355290Y-108355011D02*
X176855290Y-108355011D01*
X176855290Y-108355011D02*
X176855290Y-108164535D01*
X176855290Y-108164535D02*
X176879100Y-108116916D01*
X176879100Y-108116916D02*
X176902909Y-108093106D01*
X176902909Y-108093106D02*
X176950528Y-108069297D01*
X176950528Y-108069297D02*
X177021957Y-108069297D01*
X177021957Y-108069297D02*
X177069576Y-108093106D01*
X177069576Y-108093106D02*
X177093385Y-108116916D01*
X177093385Y-108116916D02*
X177117195Y-108164535D01*
X177117195Y-108164535D02*
X177117195Y-108355011D01*
X176855290Y-107616916D02*
X176855290Y-107855011D01*
X176855290Y-107855011D02*
X177093385Y-107878820D01*
X177093385Y-107878820D02*
X177069576Y-107855011D01*
X177069576Y-107855011D02*
X177045766Y-107807392D01*
X177045766Y-107807392D02*
X177045766Y-107688344D01*
X177045766Y-107688344D02*
X177069576Y-107640725D01*
X177069576Y-107640725D02*
X177093385Y-107616916D01*
X177093385Y-107616916D02*
X177141004Y-107593106D01*
X177141004Y-107593106D02*
X177260052Y-107593106D01*
X177260052Y-107593106D02*
X177307671Y-107616916D01*
X177307671Y-107616916D02*
X177331481Y-107640725D01*
X177331481Y-107640725D02*
X177355290Y-107688344D01*
X177355290Y-107688344D02*
X177355290Y-107807392D01*
X177355290Y-107807392D02*
X177331481Y-107855011D01*
X177331481Y-107855011D02*
X177307671Y-107878820D01*
X174815715Y-112933410D02*
X175101429Y-112933410D01*
X174958572Y-113433410D02*
X174958572Y-112933410D01*
X175244286Y-113290553D02*
X175482381Y-113290553D01*
X175196667Y-113433410D02*
X175363333Y-112933410D01*
X175363333Y-112933410D02*
X175530000Y-113433410D01*
X175958571Y-112957220D02*
X175910952Y-112933410D01*
X175910952Y-112933410D02*
X175839523Y-112933410D01*
X175839523Y-112933410D02*
X175768095Y-112957220D01*
X175768095Y-112957220D02*
X175720476Y-113004839D01*
X175720476Y-113004839D02*
X175696666Y-113052458D01*
X175696666Y-113052458D02*
X175672857Y-113147696D01*
X175672857Y-113147696D02*
X175672857Y-113219124D01*
X175672857Y-113219124D02*
X175696666Y-113314362D01*
X175696666Y-113314362D02*
X175720476Y-113361981D01*
X175720476Y-113361981D02*
X175768095Y-113409601D01*
X175768095Y-113409601D02*
X175839523Y-113433410D01*
X175839523Y-113433410D02*
X175887142Y-113433410D01*
X175887142Y-113433410D02*
X175958571Y-113409601D01*
X175958571Y-113409601D02*
X175982380Y-113385791D01*
X175982380Y-113385791D02*
X175982380Y-113219124D01*
X175982380Y-113219124D02*
X175887142Y-113219124D01*
X176077619Y-113481029D02*
X176458571Y-113481029D01*
X176815713Y-113433410D02*
X176577618Y-113433410D01*
X176577618Y-113433410D02*
X176577618Y-112933410D01*
X176982380Y-113171505D02*
X177149047Y-113171505D01*
X177220475Y-113433410D02*
X176982380Y-113433410D01*
X176982380Y-113433410D02*
X176982380Y-112933410D01*
X176982380Y-112933410D02*
X177220475Y-112933410D01*
X177434761Y-113433410D02*
X177434761Y-112933410D01*
X177434761Y-112933410D02*
X177553809Y-112933410D01*
X177553809Y-112933410D02*
X177625237Y-112957220D01*
X177625237Y-112957220D02*
X177672856Y-113004839D01*
X177672856Y-113004839D02*
X177696666Y-113052458D01*
X177696666Y-113052458D02*
X177720475Y-113147696D01*
X177720475Y-113147696D02*
X177720475Y-113219124D01*
X177720475Y-113219124D02*
X177696666Y-113314362D01*
X177696666Y-113314362D02*
X177672856Y-113361981D01*
X177672856Y-113361981D02*
X177625237Y-113409601D01*
X177625237Y-113409601D02*
X177553809Y-113433410D01*
X177553809Y-113433410D02*
X177434761Y-113433410D01*
X178196666Y-113433410D02*
X177910952Y-113433410D01*
X178053809Y-113433410D02*
X178053809Y-112933410D01*
X178053809Y-112933410D02*
X178006190Y-113004839D01*
X178006190Y-113004839D02*
X177958571Y-113052458D01*
X177958571Y-113052458D02*
X177910952Y-113076267D01*
X177930952Y-117861869D02*
X177883333Y-117838059D01*
X177883333Y-117838059D02*
X177811904Y-117838059D01*
X177811904Y-117838059D02*
X177740476Y-117861869D01*
X177740476Y-117861869D02*
X177692857Y-117909488D01*
X177692857Y-117909488D02*
X177669047Y-117957107D01*
X177669047Y-117957107D02*
X177645238Y-118052345D01*
X177645238Y-118052345D02*
X177645238Y-118123773D01*
X177645238Y-118123773D02*
X177669047Y-118219011D01*
X177669047Y-118219011D02*
X177692857Y-118266630D01*
X177692857Y-118266630D02*
X177740476Y-118314250D01*
X177740476Y-118314250D02*
X177811904Y-118338059D01*
X177811904Y-118338059D02*
X177859523Y-118338059D01*
X177859523Y-118338059D02*
X177930952Y-118314250D01*
X177930952Y-118314250D02*
X177954761Y-118290440D01*
X177954761Y-118290440D02*
X177954761Y-118123773D01*
X177954761Y-118123773D02*
X177859523Y-118123773D01*
X180375714Y-118076154D02*
X180447142Y-118099964D01*
X180447142Y-118099964D02*
X180470952Y-118123773D01*
X180470952Y-118123773D02*
X180494761Y-118171392D01*
X180494761Y-118171392D02*
X180494761Y-118242821D01*
X180494761Y-118242821D02*
X180470952Y-118290440D01*
X180470952Y-118290440D02*
X180447142Y-118314250D01*
X180447142Y-118314250D02*
X180399523Y-118338059D01*
X180399523Y-118338059D02*
X180209047Y-118338059D01*
X180209047Y-118338059D02*
X180209047Y-117838059D01*
X180209047Y-117838059D02*
X180375714Y-117838059D01*
X180375714Y-117838059D02*
X180423333Y-117861869D01*
X180423333Y-117861869D02*
X180447142Y-117885678D01*
X180447142Y-117885678D02*
X180470952Y-117933297D01*
X180470952Y-117933297D02*
X180470952Y-117980916D01*
X180470952Y-117980916D02*
X180447142Y-118028535D01*
X180447142Y-118028535D02*
X180423333Y-118052345D01*
X180423333Y-118052345D02*
X180375714Y-118076154D01*
X180375714Y-118076154D02*
X180209047Y-118076154D01*
X174593334Y-117838059D02*
X174760000Y-118338059D01*
X174760000Y-118338059D02*
X174926667Y-117838059D01*
X175379047Y-118290440D02*
X175355238Y-118314250D01*
X175355238Y-118314250D02*
X175283809Y-118338059D01*
X175283809Y-118338059D02*
X175236190Y-118338059D01*
X175236190Y-118338059D02*
X175164762Y-118314250D01*
X175164762Y-118314250D02*
X175117143Y-118266630D01*
X175117143Y-118266630D02*
X175093333Y-118219011D01*
X175093333Y-118219011D02*
X175069524Y-118123773D01*
X175069524Y-118123773D02*
X175069524Y-118052345D01*
X175069524Y-118052345D02*
X175093333Y-117957107D01*
X175093333Y-117957107D02*
X175117143Y-117909488D01*
X175117143Y-117909488D02*
X175164762Y-117861869D01*
X175164762Y-117861869D02*
X175236190Y-117838059D01*
X175236190Y-117838059D02*
X175283809Y-117838059D01*
X175283809Y-117838059D02*
X175355238Y-117861869D01*
X175355238Y-117861869D02*
X175379047Y-117885678D01*
X175879047Y-118290440D02*
X175855238Y-118314250D01*
X175855238Y-118314250D02*
X175783809Y-118338059D01*
X175783809Y-118338059D02*
X175736190Y-118338059D01*
X175736190Y-118338059D02*
X175664762Y-118314250D01*
X175664762Y-118314250D02*
X175617143Y-118266630D01*
X175617143Y-118266630D02*
X175593333Y-118219011D01*
X175593333Y-118219011D02*
X175569524Y-118123773D01*
X175569524Y-118123773D02*
X175569524Y-118052345D01*
X175569524Y-118052345D02*
X175593333Y-117957107D01*
X175593333Y-117957107D02*
X175617143Y-117909488D01*
X175617143Y-117909488D02*
X175664762Y-117861869D01*
X175664762Y-117861869D02*
X175736190Y-117838059D01*
X175736190Y-117838059D02*
X175783809Y-117838059D01*
X175783809Y-117838059D02*
X175855238Y-117861869D01*
X175855238Y-117861869D02*
X175879047Y-117885678D01*
X172874761Y-118338059D02*
X172708095Y-118099964D01*
X172589047Y-118338059D02*
X172589047Y-117838059D01*
X172589047Y-117838059D02*
X172779523Y-117838059D01*
X172779523Y-117838059D02*
X172827142Y-117861869D01*
X172827142Y-117861869D02*
X172850952Y-117885678D01*
X172850952Y-117885678D02*
X172874761Y-117933297D01*
X172874761Y-117933297D02*
X172874761Y-118004726D01*
X172874761Y-118004726D02*
X172850952Y-118052345D01*
X172850952Y-118052345D02*
X172827142Y-118076154D01*
X172827142Y-118076154D02*
X172779523Y-118099964D01*
X172779523Y-118099964D02*
X172589047Y-118099964D01*
D14*
X151232382Y-108857819D02*
X151280001Y-108810200D01*
X151280001Y-108810200D02*
X151422858Y-108762580D01*
X151422858Y-108762580D02*
X151518096Y-108762580D01*
X151518096Y-108762580D02*
X151660953Y-108810200D01*
X151660953Y-108810200D02*
X151756191Y-108905438D01*
X151756191Y-108905438D02*
X151803810Y-109000676D01*
X151803810Y-109000676D02*
X151851429Y-109191152D01*
X151851429Y-109191152D02*
X151851429Y-109334009D01*
X151851429Y-109334009D02*
X151803810Y-109524485D01*
X151803810Y-109524485D02*
X151756191Y-109619723D01*
X151756191Y-109619723D02*
X151660953Y-109714961D01*
X151660953Y-109714961D02*
X151518096Y-109762580D01*
X151518096Y-109762580D02*
X151422858Y-109762580D01*
X151422858Y-109762580D02*
X151280001Y-109714961D01*
X151280001Y-109714961D02*
X151232382Y-109667342D01*
X150851429Y-109048295D02*
X150375239Y-109048295D01*
X150946667Y-108762580D02*
X150613334Y-109762580D01*
X150613334Y-109762580D02*
X150280001Y-108762580D01*
X149946667Y-108762580D02*
X149946667Y-109762580D01*
X149946667Y-109762580D02*
X149375239Y-108762580D01*
X149375239Y-108762580D02*
X149375239Y-109762580D01*
X149137144Y-108667342D02*
X148375239Y-108667342D01*
X148280000Y-109762580D02*
X147708572Y-109762580D01*
X147994286Y-108762580D02*
X147994286Y-109762580D01*
X147375238Y-108762580D02*
X147375238Y-109429247D01*
X147375238Y-109238771D02*
X147327619Y-109334009D01*
X147327619Y-109334009D02*
X147280000Y-109381628D01*
X147280000Y-109381628D02*
X147184762Y-109429247D01*
X147184762Y-109429247D02*
X147089524Y-109429247D01*
X146327619Y-108762580D02*
X146327619Y-109286390D01*
X146327619Y-109286390D02*
X146375238Y-109381628D01*
X146375238Y-109381628D02*
X146470476Y-109429247D01*
X146470476Y-109429247D02*
X146660952Y-109429247D01*
X146660952Y-109429247D02*
X146756190Y-109381628D01*
X146327619Y-108810200D02*
X146422857Y-108762580D01*
X146422857Y-108762580D02*
X146660952Y-108762580D01*
X146660952Y-108762580D02*
X146756190Y-108810200D01*
X146756190Y-108810200D02*
X146803809Y-108905438D01*
X146803809Y-108905438D02*
X146803809Y-109000676D01*
X146803809Y-109000676D02*
X146756190Y-109095914D01*
X146756190Y-109095914D02*
X146660952Y-109143533D01*
X146660952Y-109143533D02*
X146422857Y-109143533D01*
X146422857Y-109143533D02*
X146327619Y-109191152D01*
X145851428Y-109429247D02*
X145851428Y-108762580D01*
X145851428Y-109334009D02*
X145803809Y-109381628D01*
X145803809Y-109381628D02*
X145708571Y-109429247D01*
X145708571Y-109429247D02*
X145565714Y-109429247D01*
X145565714Y-109429247D02*
X145470476Y-109381628D01*
X145470476Y-109381628D02*
X145422857Y-109286390D01*
X145422857Y-109286390D02*
X145422857Y-108762580D01*
X144994285Y-108810200D02*
X144899047Y-108762580D01*
X144899047Y-108762580D02*
X144708571Y-108762580D01*
X144708571Y-108762580D02*
X144613333Y-108810200D01*
X144613333Y-108810200D02*
X144565714Y-108905438D01*
X144565714Y-108905438D02*
X144565714Y-108953057D01*
X144565714Y-108953057D02*
X144613333Y-109048295D01*
X144613333Y-109048295D02*
X144708571Y-109095914D01*
X144708571Y-109095914D02*
X144851428Y-109095914D01*
X144851428Y-109095914D02*
X144946666Y-109143533D01*
X144946666Y-109143533D02*
X144994285Y-109238771D01*
X144994285Y-109238771D02*
X144994285Y-109286390D01*
X144994285Y-109286390D02*
X144946666Y-109381628D01*
X144946666Y-109381628D02*
X144851428Y-109429247D01*
X144851428Y-109429247D02*
X144708571Y-109429247D01*
X144708571Y-109429247D02*
X144613333Y-109381628D01*
X144137142Y-108762580D02*
X144137142Y-109429247D01*
X144137142Y-109238771D02*
X144089523Y-109334009D01*
X144089523Y-109334009D02*
X144041904Y-109381628D01*
X144041904Y-109381628D02*
X143946666Y-109429247D01*
X143946666Y-109429247D02*
X143851428Y-109429247D01*
X143137142Y-108810200D02*
X143232380Y-108762580D01*
X143232380Y-108762580D02*
X143422856Y-108762580D01*
X143422856Y-108762580D02*
X143518094Y-108810200D01*
X143518094Y-108810200D02*
X143565713Y-108905438D01*
X143565713Y-108905438D02*
X143565713Y-109286390D01*
X143565713Y-109286390D02*
X143518094Y-109381628D01*
X143518094Y-109381628D02*
X143422856Y-109429247D01*
X143422856Y-109429247D02*
X143232380Y-109429247D01*
X143232380Y-109429247D02*
X143137142Y-109381628D01*
X143137142Y-109381628D02*
X143089523Y-109286390D01*
X143089523Y-109286390D02*
X143089523Y-109191152D01*
X143089523Y-109191152D02*
X143565713Y-109095914D01*
X142232380Y-108810200D02*
X142327618Y-108762580D01*
X142327618Y-108762580D02*
X142518094Y-108762580D01*
X142518094Y-108762580D02*
X142613332Y-108810200D01*
X142613332Y-108810200D02*
X142660951Y-108857819D01*
X142660951Y-108857819D02*
X142708570Y-108953057D01*
X142708570Y-108953057D02*
X142708570Y-109238771D01*
X142708570Y-109238771D02*
X142660951Y-109334009D01*
X142660951Y-109334009D02*
X142613332Y-109381628D01*
X142613332Y-109381628D02*
X142518094Y-109429247D01*
X142518094Y-109429247D02*
X142327618Y-109429247D01*
X142327618Y-109429247D02*
X142232380Y-109381628D01*
X141422856Y-108810200D02*
X141518094Y-108762580D01*
X141518094Y-108762580D02*
X141708570Y-108762580D01*
X141708570Y-108762580D02*
X141803808Y-108810200D01*
X141803808Y-108810200D02*
X141851427Y-108905438D01*
X141851427Y-108905438D02*
X141851427Y-109286390D01*
X141851427Y-109286390D02*
X141803808Y-109381628D01*
X141803808Y-109381628D02*
X141708570Y-109429247D01*
X141708570Y-109429247D02*
X141518094Y-109429247D01*
X141518094Y-109429247D02*
X141422856Y-109381628D01*
X141422856Y-109381628D02*
X141375237Y-109286390D01*
X141375237Y-109286390D02*
X141375237Y-109191152D01*
X141375237Y-109191152D02*
X141851427Y-109095914D01*
X140946665Y-108762580D02*
X140946665Y-109429247D01*
X140946665Y-109762580D02*
X140994284Y-109714961D01*
X140994284Y-109714961D02*
X140946665Y-109667342D01*
X140946665Y-109667342D02*
X140899046Y-109714961D01*
X140899046Y-109714961D02*
X140946665Y-109762580D01*
X140946665Y-109762580D02*
X140946665Y-109667342D01*
X140565713Y-109429247D02*
X140327618Y-108762580D01*
X140327618Y-108762580D02*
X140089523Y-109429247D01*
X139327618Y-108810200D02*
X139422856Y-108762580D01*
X139422856Y-108762580D02*
X139613332Y-108762580D01*
X139613332Y-108762580D02*
X139708570Y-108810200D01*
X139708570Y-108810200D02*
X139756189Y-108905438D01*
X139756189Y-108905438D02*
X139756189Y-109286390D01*
X139756189Y-109286390D02*
X139708570Y-109381628D01*
X139708570Y-109381628D02*
X139613332Y-109429247D01*
X139613332Y-109429247D02*
X139422856Y-109429247D01*
X139422856Y-109429247D02*
X139327618Y-109381628D01*
X139327618Y-109381628D02*
X139279999Y-109286390D01*
X139279999Y-109286390D02*
X139279999Y-109191152D01*
X139279999Y-109191152D02*
X139756189Y-109095914D01*
X138851427Y-108762580D02*
X138851427Y-109429247D01*
X138851427Y-109238771D02*
X138803808Y-109334009D01*
X138803808Y-109334009D02*
X138756189Y-109381628D01*
X138756189Y-109381628D02*
X138660951Y-109429247D01*
X138660951Y-109429247D02*
X138565713Y-109429247D01*
X137708570Y-108762580D02*
X138279998Y-108762580D01*
X137994284Y-108762580D02*
X137994284Y-109762580D01*
X137994284Y-109762580D02*
X138089522Y-109619723D01*
X138089522Y-109619723D02*
X138184760Y-109524485D01*
X138184760Y-109524485D02*
X138279998Y-109476866D01*
D15*
X149387453Y-113301940D02*
X149077929Y-113301940D01*
X149077929Y-113301940D02*
X149244596Y-113111464D01*
X149244596Y-113111464D02*
X149173167Y-113111464D01*
X149173167Y-113111464D02*
X149125548Y-113087654D01*
X149125548Y-113087654D02*
X149101739Y-113063845D01*
X149101739Y-113063845D02*
X149077929Y-113016226D01*
X149077929Y-113016226D02*
X149077929Y-112897178D01*
X149077929Y-112897178D02*
X149101739Y-112849559D01*
X149101739Y-112849559D02*
X149125548Y-112825750D01*
X149125548Y-112825750D02*
X149173167Y-112801940D01*
X149173167Y-112801940D02*
X149316024Y-112801940D01*
X149316024Y-112801940D02*
X149363643Y-112825750D01*
X149363643Y-112825750D02*
X149387453Y-112849559D01*
X148863644Y-112849559D02*
X148839834Y-112825750D01*
X148839834Y-112825750D02*
X148863644Y-112801940D01*
X148863644Y-112801940D02*
X148887453Y-112825750D01*
X148887453Y-112825750D02*
X148863644Y-112849559D01*
X148863644Y-112849559D02*
X148863644Y-112801940D01*
X148673168Y-113301940D02*
X148363644Y-113301940D01*
X148363644Y-113301940D02*
X148530311Y-113111464D01*
X148530311Y-113111464D02*
X148458882Y-113111464D01*
X148458882Y-113111464D02*
X148411263Y-113087654D01*
X148411263Y-113087654D02*
X148387454Y-113063845D01*
X148387454Y-113063845D02*
X148363644Y-113016226D01*
X148363644Y-113016226D02*
X148363644Y-112897178D01*
X148363644Y-112897178D02*
X148387454Y-112849559D01*
X148387454Y-112849559D02*
X148411263Y-112825750D01*
X148411263Y-112825750D02*
X148458882Y-112801940D01*
X148458882Y-112801940D02*
X148601739Y-112801940D01*
X148601739Y-112801940D02*
X148649358Y-112825750D01*
X148649358Y-112825750D02*
X148673168Y-112849559D01*
X148220787Y-113301940D02*
X148054121Y-112801940D01*
X148054121Y-112801940D02*
X147887454Y-113301940D01*
X149077929Y-110738130D02*
X149125548Y-110761940D01*
X149125548Y-110761940D02*
X149196977Y-110761940D01*
X149196977Y-110761940D02*
X149268405Y-110738130D01*
X149268405Y-110738130D02*
X149316024Y-110690511D01*
X149316024Y-110690511D02*
X149339834Y-110642892D01*
X149339834Y-110642892D02*
X149363643Y-110547654D01*
X149363643Y-110547654D02*
X149363643Y-110476226D01*
X149363643Y-110476226D02*
X149339834Y-110380988D01*
X149339834Y-110380988D02*
X149316024Y-110333369D01*
X149316024Y-110333369D02*
X149268405Y-110285750D01*
X149268405Y-110285750D02*
X149196977Y-110261940D01*
X149196977Y-110261940D02*
X149149358Y-110261940D01*
X149149358Y-110261940D02*
X149077929Y-110285750D01*
X149077929Y-110285750D02*
X149054120Y-110309559D01*
X149054120Y-110309559D02*
X149054120Y-110476226D01*
X149054120Y-110476226D02*
X149149358Y-110476226D01*
X148839834Y-110261940D02*
X148839834Y-110761940D01*
X148839834Y-110761940D02*
X148554120Y-110261940D01*
X148554120Y-110261940D02*
X148554120Y-110761940D01*
X148316024Y-110261940D02*
X148316024Y-110761940D01*
X148316024Y-110761940D02*
X148196976Y-110761940D01*
X148196976Y-110761940D02*
X148125548Y-110738130D01*
X148125548Y-110738130D02*
X148077929Y-110690511D01*
X148077929Y-110690511D02*
X148054119Y-110642892D01*
X148054119Y-110642892D02*
X148030310Y-110547654D01*
X148030310Y-110547654D02*
X148030310Y-110476226D01*
X148030310Y-110476226D02*
X148054119Y-110380988D01*
X148054119Y-110380988D02*
X148077929Y-110333369D01*
X148077929Y-110333369D02*
X148125548Y-110285750D01*
X148125548Y-110285750D02*
X148196976Y-110261940D01*
X148196976Y-110261940D02*
X148316024Y-110261940D01*
X133823333Y-106499559D02*
X133847142Y-106475750D01*
X133847142Y-106475750D02*
X133918571Y-106451940D01*
X133918571Y-106451940D02*
X133966190Y-106451940D01*
X133966190Y-106451940D02*
X134037618Y-106475750D01*
X134037618Y-106475750D02*
X134085237Y-106523369D01*
X134085237Y-106523369D02*
X134109047Y-106570988D01*
X134109047Y-106570988D02*
X134132856Y-106666226D01*
X134132856Y-106666226D02*
X134132856Y-106737654D01*
X134132856Y-106737654D02*
X134109047Y-106832892D01*
X134109047Y-106832892D02*
X134085237Y-106880511D01*
X134085237Y-106880511D02*
X134037618Y-106928130D01*
X134037618Y-106928130D02*
X133966190Y-106951940D01*
X133966190Y-106951940D02*
X133918571Y-106951940D01*
X133918571Y-106951940D02*
X133847142Y-106928130D01*
X133847142Y-106928130D02*
X133823333Y-106904321D01*
X133632856Y-106594797D02*
X133394761Y-106594797D01*
X133680475Y-106451940D02*
X133513809Y-106951940D01*
X133513809Y-106951940D02*
X133347142Y-106451940D01*
X133180476Y-106451940D02*
X133180476Y-106951940D01*
X133180476Y-106951940D02*
X132894762Y-106451940D01*
X132894762Y-106451940D02*
X132894762Y-106951940D01*
X132656666Y-106451940D02*
X132656666Y-106951940D01*
X132656666Y-106713845D02*
X132370952Y-106713845D01*
X132370952Y-106451940D02*
X132370952Y-106951940D01*
X149054120Y-107769559D02*
X149077929Y-107745750D01*
X149077929Y-107745750D02*
X149149358Y-107721940D01*
X149149358Y-107721940D02*
X149196977Y-107721940D01*
X149196977Y-107721940D02*
X149268405Y-107745750D01*
X149268405Y-107745750D02*
X149316024Y-107793369D01*
X149316024Y-107793369D02*
X149339834Y-107840988D01*
X149339834Y-107840988D02*
X149363643Y-107936226D01*
X149363643Y-107936226D02*
X149363643Y-108007654D01*
X149363643Y-108007654D02*
X149339834Y-108102892D01*
X149339834Y-108102892D02*
X149316024Y-108150511D01*
X149316024Y-108150511D02*
X149268405Y-108198130D01*
X149268405Y-108198130D02*
X149196977Y-108221940D01*
X149196977Y-108221940D02*
X149149358Y-108221940D01*
X149149358Y-108221940D02*
X149077929Y-108198130D01*
X149077929Y-108198130D02*
X149054120Y-108174321D01*
X148863643Y-107864797D02*
X148625548Y-107864797D01*
X148911262Y-107721940D02*
X148744596Y-108221940D01*
X148744596Y-108221940D02*
X148577929Y-107721940D01*
X148411263Y-107721940D02*
X148411263Y-108221940D01*
X148411263Y-108221940D02*
X148125549Y-107721940D01*
X148125549Y-107721940D02*
X148125549Y-108221940D01*
X147220787Y-107721940D02*
X147387453Y-107960035D01*
X147506501Y-107721940D02*
X147506501Y-108221940D01*
X147506501Y-108221940D02*
X147316025Y-108221940D01*
X147316025Y-108221940D02*
X147268406Y-108198130D01*
X147268406Y-108198130D02*
X147244596Y-108174321D01*
X147244596Y-108174321D02*
X147220787Y-108126702D01*
X147220787Y-108126702D02*
X147220787Y-108055273D01*
X147220787Y-108055273D02*
X147244596Y-108007654D01*
X147244596Y-108007654D02*
X147268406Y-107983845D01*
X147268406Y-107983845D02*
X147316025Y-107960035D01*
X147316025Y-107960035D02*
X147506501Y-107960035D01*
X147054120Y-108221940D02*
X146720787Y-107721940D01*
X146720787Y-108221940D02*
X147054120Y-107721940D01*
X149054120Y-105229559D02*
X149077929Y-105205750D01*
X149077929Y-105205750D02*
X149149358Y-105181940D01*
X149149358Y-105181940D02*
X149196977Y-105181940D01*
X149196977Y-105181940D02*
X149268405Y-105205750D01*
X149268405Y-105205750D02*
X149316024Y-105253369D01*
X149316024Y-105253369D02*
X149339834Y-105300988D01*
X149339834Y-105300988D02*
X149363643Y-105396226D01*
X149363643Y-105396226D02*
X149363643Y-105467654D01*
X149363643Y-105467654D02*
X149339834Y-105562892D01*
X149339834Y-105562892D02*
X149316024Y-105610511D01*
X149316024Y-105610511D02*
X149268405Y-105658130D01*
X149268405Y-105658130D02*
X149196977Y-105681940D01*
X149196977Y-105681940D02*
X149149358Y-105681940D01*
X149149358Y-105681940D02*
X149077929Y-105658130D01*
X149077929Y-105658130D02*
X149054120Y-105634321D01*
X148863643Y-105324797D02*
X148625548Y-105324797D01*
X148911262Y-105181940D02*
X148744596Y-105681940D01*
X148744596Y-105681940D02*
X148577929Y-105181940D01*
X148411263Y-105181940D02*
X148411263Y-105681940D01*
X148411263Y-105681940D02*
X148125549Y-105181940D01*
X148125549Y-105181940D02*
X148125549Y-105681940D01*
X147577929Y-105681940D02*
X147292215Y-105681940D01*
X147435072Y-105181940D02*
X147435072Y-105681940D01*
X147173168Y-105681940D02*
X146839835Y-105181940D01*
X146839835Y-105681940D02*
X147173168Y-105181940D01*
X133763809Y-111579559D02*
X133787618Y-111555750D01*
X133787618Y-111555750D02*
X133859047Y-111531940D01*
X133859047Y-111531940D02*
X133906666Y-111531940D01*
X133906666Y-111531940D02*
X133978094Y-111555750D01*
X133978094Y-111555750D02*
X134025713Y-111603369D01*
X134025713Y-111603369D02*
X134049523Y-111650988D01*
X134049523Y-111650988D02*
X134073332Y-111746226D01*
X134073332Y-111746226D02*
X134073332Y-111817654D01*
X134073332Y-111817654D02*
X134049523Y-111912892D01*
X134049523Y-111912892D02*
X134025713Y-111960511D01*
X134025713Y-111960511D02*
X133978094Y-112008130D01*
X133978094Y-112008130D02*
X133906666Y-112031940D01*
X133906666Y-112031940D02*
X133859047Y-112031940D01*
X133859047Y-112031940D02*
X133787618Y-112008130D01*
X133787618Y-112008130D02*
X133763809Y-111984321D01*
X133573332Y-111674797D02*
X133335237Y-111674797D01*
X133620951Y-111531940D02*
X133454285Y-112031940D01*
X133454285Y-112031940D02*
X133287618Y-111531940D01*
X133120952Y-111531940D02*
X133120952Y-112031940D01*
X133120952Y-112031940D02*
X132835238Y-111531940D01*
X132835238Y-111531940D02*
X132835238Y-112031940D01*
X132359047Y-111531940D02*
X132597142Y-111531940D01*
X132597142Y-111531940D02*
X132597142Y-112031940D01*
X164655290Y-108069297D02*
X164417195Y-108235963D01*
X164655290Y-108355011D02*
X164155290Y-108355011D01*
X164155290Y-108355011D02*
X164155290Y-108164535D01*
X164155290Y-108164535D02*
X164179100Y-108116916D01*
X164179100Y-108116916D02*
X164202909Y-108093106D01*
X164202909Y-108093106D02*
X164250528Y-108069297D01*
X164250528Y-108069297D02*
X164321957Y-108069297D01*
X164321957Y-108069297D02*
X164369576Y-108093106D01*
X164369576Y-108093106D02*
X164393385Y-108116916D01*
X164393385Y-108116916D02*
X164417195Y-108164535D01*
X164417195Y-108164535D02*
X164417195Y-108355011D01*
X164202909Y-107878820D02*
X164179100Y-107855011D01*
X164179100Y-107855011D02*
X164155290Y-107807392D01*
X164155290Y-107807392D02*
X164155290Y-107688344D01*
X164155290Y-107688344D02*
X164179100Y-107640725D01*
X164179100Y-107640725D02*
X164202909Y-107616916D01*
X164202909Y-107616916D02*
X164250528Y-107593106D01*
X164250528Y-107593106D02*
X164298147Y-107593106D01*
X164298147Y-107593106D02*
X164369576Y-107616916D01*
X164369576Y-107616916D02*
X164655290Y-107902630D01*
X164655290Y-107902630D02*
X164655290Y-107593106D01*
X132304321Y-116686192D02*
X132328130Y-116710001D01*
X132328130Y-116710001D02*
X132351940Y-116757620D01*
X132351940Y-116757620D02*
X132351940Y-116876668D01*
X132351940Y-116876668D02*
X132328130Y-116924287D01*
X132328130Y-116924287D02*
X132304321Y-116948096D01*
X132304321Y-116948096D02*
X132256702Y-116971906D01*
X132256702Y-116971906D02*
X132209083Y-116971906D01*
X132209083Y-116971906D02*
X132137654Y-116948096D01*
X132137654Y-116948096D02*
X131851940Y-116662382D01*
X131851940Y-116662382D02*
X131851940Y-116971906D01*
X131804321Y-117067144D02*
X131804321Y-117448096D01*
X131851940Y-117567143D02*
X132351940Y-117567143D01*
X132351940Y-117567143D02*
X132351940Y-117757619D01*
X132351940Y-117757619D02*
X132328130Y-117805238D01*
X132328130Y-117805238D02*
X132304321Y-117829048D01*
X132304321Y-117829048D02*
X132256702Y-117852857D01*
X132256702Y-117852857D02*
X132185273Y-117852857D01*
X132185273Y-117852857D02*
X132137654Y-117829048D01*
X132137654Y-117829048D02*
X132113845Y-117805238D01*
X132113845Y-117805238D02*
X132090035Y-117757619D01*
X132090035Y-117757619D02*
X132090035Y-117567143D01*
X131851940Y-118067143D02*
X132351940Y-118067143D01*
X131851940Y-118305238D02*
X132351940Y-118305238D01*
X132351940Y-118305238D02*
X131851940Y-118590952D01*
X131851940Y-118590952D02*
X132351940Y-118590952D01*
X131804321Y-118710001D02*
X131804321Y-119090953D01*
X131899559Y-119495714D02*
X131875750Y-119471905D01*
X131875750Y-119471905D02*
X131851940Y-119400476D01*
X131851940Y-119400476D02*
X131851940Y-119352857D01*
X131851940Y-119352857D02*
X131875750Y-119281429D01*
X131875750Y-119281429D02*
X131923369Y-119233810D01*
X131923369Y-119233810D02*
X131970988Y-119210000D01*
X131970988Y-119210000D02*
X132066226Y-119186191D01*
X132066226Y-119186191D02*
X132137654Y-119186191D01*
X132137654Y-119186191D02*
X132232892Y-119210000D01*
X132232892Y-119210000D02*
X132280511Y-119233810D01*
X132280511Y-119233810D02*
X132328130Y-119281429D01*
X132328130Y-119281429D02*
X132351940Y-119352857D01*
X132351940Y-119352857D02*
X132351940Y-119400476D01*
X132351940Y-119400476D02*
X132328130Y-119471905D01*
X132328130Y-119471905D02*
X132304321Y-119495714D01*
X131851940Y-119781429D02*
X131875750Y-119733810D01*
X131875750Y-119733810D02*
X131899559Y-119710000D01*
X131899559Y-119710000D02*
X131947178Y-119686191D01*
X131947178Y-119686191D02*
X132090035Y-119686191D01*
X132090035Y-119686191D02*
X132137654Y-119710000D01*
X132137654Y-119710000D02*
X132161464Y-119733810D01*
X132161464Y-119733810D02*
X132185273Y-119781429D01*
X132185273Y-119781429D02*
X132185273Y-119852857D01*
X132185273Y-119852857D02*
X132161464Y-119900476D01*
X132161464Y-119900476D02*
X132137654Y-119924286D01*
X132137654Y-119924286D02*
X132090035Y-119948095D01*
X132090035Y-119948095D02*
X131947178Y-119948095D01*
X131947178Y-119948095D02*
X131899559Y-119924286D01*
X131899559Y-119924286D02*
X131875750Y-119900476D01*
X131875750Y-119900476D02*
X131851940Y-119852857D01*
X131851940Y-119852857D02*
X131851940Y-119781429D01*
X132185273Y-120162381D02*
X131851940Y-120162381D01*
X132137654Y-120162381D02*
X132161464Y-120186191D01*
X132161464Y-120186191D02*
X132185273Y-120233810D01*
X132185273Y-120233810D02*
X132185273Y-120305238D01*
X132185273Y-120305238D02*
X132161464Y-120352857D01*
X132161464Y-120352857D02*
X132113845Y-120376667D01*
X132113845Y-120376667D02*
X131851940Y-120376667D01*
X132185273Y-120614762D02*
X131851940Y-120614762D01*
X132137654Y-120614762D02*
X132161464Y-120638572D01*
X132161464Y-120638572D02*
X132185273Y-120686191D01*
X132185273Y-120686191D02*
X132185273Y-120757619D01*
X132185273Y-120757619D02*
X132161464Y-120805238D01*
X132161464Y-120805238D02*
X132113845Y-120829048D01*
X132113845Y-120829048D02*
X131851940Y-120829048D01*
X131875750Y-121257619D02*
X131851940Y-121210000D01*
X131851940Y-121210000D02*
X131851940Y-121114762D01*
X131851940Y-121114762D02*
X131875750Y-121067143D01*
X131875750Y-121067143D02*
X131923369Y-121043334D01*
X131923369Y-121043334D02*
X132113845Y-121043334D01*
X132113845Y-121043334D02*
X132161464Y-121067143D01*
X132161464Y-121067143D02*
X132185273Y-121114762D01*
X132185273Y-121114762D02*
X132185273Y-121210000D01*
X132185273Y-121210000D02*
X132161464Y-121257619D01*
X132161464Y-121257619D02*
X132113845Y-121281429D01*
X132113845Y-121281429D02*
X132066226Y-121281429D01*
X132066226Y-121281429D02*
X132018607Y-121043334D01*
X131875750Y-121710000D02*
X131851940Y-121662381D01*
X131851940Y-121662381D02*
X131851940Y-121567143D01*
X131851940Y-121567143D02*
X131875750Y-121519524D01*
X131875750Y-121519524D02*
X131899559Y-121495714D01*
X131899559Y-121495714D02*
X131947178Y-121471905D01*
X131947178Y-121471905D02*
X132090035Y-121471905D01*
X132090035Y-121471905D02*
X132137654Y-121495714D01*
X132137654Y-121495714D02*
X132161464Y-121519524D01*
X132161464Y-121519524D02*
X132185273Y-121567143D01*
X132185273Y-121567143D02*
X132185273Y-121662381D01*
X132185273Y-121662381D02*
X132161464Y-121710000D01*
X132185273Y-121852857D02*
X132185273Y-122043333D01*
X132351940Y-121924285D02*
X131923369Y-121924285D01*
X131923369Y-121924285D02*
X131875750Y-121948095D01*
X131875750Y-121948095D02*
X131851940Y-121995714D01*
X131851940Y-121995714D02*
X131851940Y-122043333D01*
X131851940Y-122281428D02*
X131875750Y-122233809D01*
X131875750Y-122233809D02*
X131899559Y-122209999D01*
X131899559Y-122209999D02*
X131947178Y-122186190D01*
X131947178Y-122186190D02*
X132090035Y-122186190D01*
X132090035Y-122186190D02*
X132137654Y-122209999D01*
X132137654Y-122209999D02*
X132161464Y-122233809D01*
X132161464Y-122233809D02*
X132185273Y-122281428D01*
X132185273Y-122281428D02*
X132185273Y-122352856D01*
X132185273Y-122352856D02*
X132161464Y-122400475D01*
X132161464Y-122400475D02*
X132137654Y-122424285D01*
X132137654Y-122424285D02*
X132090035Y-122448094D01*
X132090035Y-122448094D02*
X131947178Y-122448094D01*
X131947178Y-122448094D02*
X131899559Y-122424285D01*
X131899559Y-122424285D02*
X131875750Y-122400475D01*
X131875750Y-122400475D02*
X131851940Y-122352856D01*
X131851940Y-122352856D02*
X131851940Y-122281428D01*
X131851940Y-122662380D02*
X132185273Y-122662380D01*
X132090035Y-122662380D02*
X132137654Y-122686190D01*
X132137654Y-122686190D02*
X132161464Y-122709999D01*
X132161464Y-122709999D02*
X132185273Y-122757618D01*
X132185273Y-122757618D02*
X132185273Y-122805237D01*
X131851940Y-123233809D02*
X131851940Y-122948095D01*
X131851940Y-123090952D02*
X132351940Y-123090952D01*
X132351940Y-123090952D02*
X132280511Y-123043333D01*
X132280511Y-123043333D02*
X132232892Y-122995714D01*
X132232892Y-122995714D02*
X132209083Y-122948095D01*
X129311940Y-121559524D02*
X129811940Y-121559524D01*
X129811940Y-121559524D02*
X129811940Y-121750000D01*
X129811940Y-121750000D02*
X129788130Y-121797619D01*
X129788130Y-121797619D02*
X129764321Y-121821429D01*
X129764321Y-121821429D02*
X129716702Y-121845238D01*
X129716702Y-121845238D02*
X129645273Y-121845238D01*
X129645273Y-121845238D02*
X129597654Y-121821429D01*
X129597654Y-121821429D02*
X129573845Y-121797619D01*
X129573845Y-121797619D02*
X129550035Y-121750000D01*
X129550035Y-121750000D02*
X129550035Y-121559524D01*
X129311940Y-122059524D02*
X129811940Y-122059524D01*
X129311940Y-122297619D02*
X129811940Y-122297619D01*
X129811940Y-122297619D02*
X129311940Y-122583333D01*
X129311940Y-122583333D02*
X129811940Y-122583333D01*
X129764321Y-123178572D02*
X129788130Y-123202381D01*
X129788130Y-123202381D02*
X129811940Y-123250000D01*
X129811940Y-123250000D02*
X129811940Y-123369048D01*
X129811940Y-123369048D02*
X129788130Y-123416667D01*
X129788130Y-123416667D02*
X129764321Y-123440476D01*
X129764321Y-123440476D02*
X129716702Y-123464286D01*
X129716702Y-123464286D02*
X129669083Y-123464286D01*
X129669083Y-123464286D02*
X129597654Y-123440476D01*
X129597654Y-123440476D02*
X129311940Y-123154762D01*
X129311940Y-123154762D02*
X129311940Y-123464286D01*
X129311940Y-116479524D02*
X129811940Y-116479524D01*
X129811940Y-116479524D02*
X129811940Y-116670000D01*
X129811940Y-116670000D02*
X129788130Y-116717619D01*
X129788130Y-116717619D02*
X129764321Y-116741429D01*
X129764321Y-116741429D02*
X129716702Y-116765238D01*
X129716702Y-116765238D02*
X129645273Y-116765238D01*
X129645273Y-116765238D02*
X129597654Y-116741429D01*
X129597654Y-116741429D02*
X129573845Y-116717619D01*
X129573845Y-116717619D02*
X129550035Y-116670000D01*
X129550035Y-116670000D02*
X129550035Y-116479524D01*
X129311940Y-116979524D02*
X129811940Y-116979524D01*
X129311940Y-117217619D02*
X129811940Y-117217619D01*
X129811940Y-117217619D02*
X129311940Y-117503333D01*
X129311940Y-117503333D02*
X129811940Y-117503333D01*
X129311940Y-118384286D02*
X129311940Y-118098572D01*
X129311940Y-118241429D02*
X129811940Y-118241429D01*
X129811940Y-118241429D02*
X129740511Y-118193810D01*
X129740511Y-118193810D02*
X129692892Y-118146191D01*
X129692892Y-118146191D02*
X129669083Y-118098572D01*
%TO.C,ESP32_UWB1*%
D14*
X127000000Y-68580000D02*
X199800000Y-68580000D01*
X199800000Y-101600000D01*
X127000000Y-101600000D01*
X127000000Y-68580000D01*
X127000000Y-76200000D02*
X132080000Y-76200000D01*
X132080000Y-93980000D01*
X127000000Y-93980000D01*
X127000000Y-76200000D01*
X165100000Y-68580000D02*
X177800000Y-68580000D01*
X177800000Y-78740000D01*
X165100000Y-78740000D01*
X165100000Y-68580000D01*
X193040000Y-81280000D02*
X200660000Y-81280000D01*
X200660000Y-88900000D01*
X193040000Y-88900000D01*
X193040000Y-81280000D01*
%TO.C,R4*%
X171450000Y-113030000D02*
X173990000Y-113030000D01*
X173990000Y-102870000D01*
X171450000Y-102870000D01*
X171450000Y-113030000D01*
%TO.C,R1*%
X158750000Y-113030000D02*
X161290000Y-113030000D01*
X161290000Y-102870000D01*
X158750000Y-102870000D01*
X158750000Y-113030000D01*
%TO.C,SERVER_LED1*%
X166670000Y-116840000D02*
G75*
G02*
X160990000Y-116840000I-2840000J0D01*
G01*
X160990000Y-116840000D02*
G75*
G02*
X166670000Y-116840000I2840000J0D01*
G01*
%TO.C,5V_Regulator1*%
X136130000Y-114880000D02*
X153630000Y-114880000D01*
X153630000Y-127080000D01*
X136130000Y-127080000D01*
X136130000Y-114880000D01*
%TO.C,R5*%
X176530000Y-113030000D02*
X179070000Y-113030000D01*
X179070000Y-102870000D01*
X176530000Y-102870000D01*
X176530000Y-113030000D01*
%TO.C,TAG_LED1*%
X179370000Y-116840000D02*
G75*
G02*
X173690000Y-116840000I-2840000J0D01*
G01*
X173690000Y-116840000D02*
G75*
G02*
X179370000Y-116840000I2840000J0D01*
G01*
%TO.C,CAN_Transreceiver1*%
X154000000Y-114300000D02*
X127000000Y-114300000D01*
X127000000Y-104140000D01*
X154000000Y-104140000D01*
X154000000Y-114300000D01*
%TO.C,R2*%
X163830000Y-113030000D02*
X166370000Y-113030000D01*
X166370000Y-102870000D01*
X163830000Y-102870000D01*
X163830000Y-113030000D01*
%TO.C,2_PIN_Connector1*%
X134620000Y-114880000D02*
X127000000Y-114880000D01*
X127000000Y-125040000D01*
X134620000Y-125040000D01*
X134620000Y-114880000D01*
%TD*%
M02*
