%TF.GenerationSoftware,KiCad,Pcbnew,9.0.0*%
%TF.CreationDate,2025-03-09T03:25:39-07:00*%
%TF.ProjectId,sensor,73656e73-6f72-42e6-9b69-6361645f7063,v0.2*%
%TF.SameCoordinates,Original*%
%TF.FileFunction,Copper,L1,Top*%
%TF.FilePolarity,Positive*%
%FSLAX46Y46*%
G04 Gerber Fmt 4.6, Leading zero omitted, Abs format (unit mm)*
G04 Created by KiCad (PCBNEW 9.0.0) date 2025-03-09 03:25:39*
%MOMM*%
%LPD*%
G01*
G04 APERTURE LIST*
%TA.AperFunction,ComponentPad*%
%ADD10C,1.800000*%
%TD*%
%TA.AperFunction,ComponentPad*%
%ADD11R,1.800000X1.800000*%
%TD*%
%TA.AperFunction,ComponentPad*%
%ADD12C,2.000000*%
%TD*%
%TA.AperFunction,Conductor*%
%ADD13C,0.300000*%
%TD*%
%TA.AperFunction,Conductor*%
%ADD14C,0.200000*%
%TD*%
G04 APERTURE END LIST*
D10*
%TO.P,ESP32_UWB1,1,3V3*%
%TO.N,Net-(CAN_Transreceiver1-3.3V)*%
X25400000Y-48260000D03*
%TO.P,ESP32_UWB1,2,GND*%
%TO.N,Net-(CAN_Transreceiver1-GND)*%
X27940000Y-48260000D03*
%TO.P,ESP32_UWB1,3,RST*%
%TO.N,unconnected-(ESP32_UWB1-RST-Pad3)*%
X30480000Y-48260000D03*
%TO.P,ESP32_UWB1,4,GND*%
%TO.N,unconnected-(ESP32_UWB1-GND-Pad4)*%
X33020000Y-48260000D03*
%TO.P,ESP32_UWB1,5,IO2*%
%TO.N,Net-(CAN_Transreceiver1-CAN_RX)*%
X35560000Y-48260000D03*
%TO.P,ESP32_UWB1,6,IO12*%
%TO.N,Net-(CAN_Transreceiver1-CAN_TX)*%
X38100000Y-48260000D03*
%TO.P,ESP32_UWB1,7,IO13*%
%TO.N,unconnected-(ESP32_UWB1-IO13-Pad7)*%
X40640000Y-48260000D03*
%TO.P,ESP32_UWB1,8,IO14*%
%TO.N,unconnected-(ESP32_UWB1-IO14-Pad8)*%
X43180000Y-48260000D03*
%TO.P,ESP32_UWB1,9,IO15*%
%TO.N,unconnected-(ESP32_UWB1-IO15-Pad9)*%
X45720000Y-48260000D03*
%TO.P,ESP32_UWB1,10,IO18*%
%TO.N,unconnected-(ESP32_UWB1-IO18-Pad10)*%
X48260000Y-48260000D03*
%TO.P,ESP32_UWB1,11,IO19*%
%TO.N,unconnected-(ESP32_UWB1-IO19-Pad11)*%
X50800000Y-48260000D03*
%TO.P,ESP32_UWB1,12,IO25*%
%TO.N,Net-(ESP32_UWB1-IO25)*%
X53340000Y-48260000D03*
%TO.P,ESP32_UWB1,13,IO26*%
%TO.N,Net-(ESP32_UWB1-IO26)*%
X55880000Y-48260000D03*
%TO.P,ESP32_UWB1,14,IO27*%
%TO.N,unconnected-(ESP32_UWB1-IO27-Pad14)*%
X58420000Y-48260000D03*
%TO.P,ESP32_UWB1,15,IO32*%
%TO.N,Net-(ESP32_UWB1-IO32)*%
X60960000Y-48260000D03*
%TO.P,ESP32_UWB1,16,IO33*%
%TO.N,Net-(ESP32_UWB1-IO33)*%
X63500000Y-48260000D03*
%TO.P,ESP32_UWB1,17,IO34*%
%TO.N,unconnected-(ESP32_UWB1-IO34-Pad17)*%
X66040000Y-48260000D03*
%TO.P,ESP32_UWB1,18,IO35*%
%TO.N,unconnected-(ESP32_UWB1-IO35-Pad18)*%
X68580000Y-48260000D03*
%TO.P,ESP32_UWB1,19,IO36*%
%TO.N,unconnected-(ESP32_UWB1-IO36-Pad19)*%
X71120000Y-48260000D03*
%TO.P,ESP32_UWB1,20,IO39*%
%TO.N,unconnected-(ESP32_UWB1-IO39-Pad20)*%
X73660000Y-48260000D03*
%TO.P,ESP32_UWB1,21,5V0*%
%TO.N,Net-(5V_Regulator1-OUT+)*%
X25400000Y-20320000D03*
%TO.P,ESP32_UWB1,22,GND*%
%TO.N,Net-(5V_Regulator1-OUT-)*%
X27940000Y-20320000D03*
%TO.P,ESP32_UWB1,23,IO3*%
%TO.N,unconnected-(ESP32_UWB1-IO3-Pad23)*%
X30480000Y-20320000D03*
%TO.P,ESP32_UWB1,24,IO1*%
%TO.N,unconnected-(ESP32_UWB1-IO1-Pad24)*%
X33020000Y-20320000D03*
%TO.P,ESP32_UWB1,25,IO0*%
%TO.N,unconnected-(ESP32_UWB1-IO0-Pad25)*%
X35560000Y-20320000D03*
%TO.P,ESP32_UWB1,26,IO4*%
%TO.N,unconnected-(ESP32_UWB1-IO4-Pad26)*%
X38100000Y-20320000D03*
%TO.P,ESP32_UWB1,27,IO5*%
%TO.N,unconnected-(ESP32_UWB1-IO5-Pad27)*%
X40640000Y-20320000D03*
%TO.P,ESP32_UWB1,28,IO16*%
%TO.N,unconnected-(ESP32_UWB1-IO16-Pad28)*%
X43180000Y-20320000D03*
%TO.P,ESP32_UWB1,29,IO17*%
%TO.N,unconnected-(ESP32_UWB1-IO17-Pad29)*%
X45720000Y-20320000D03*
%TO.P,ESP32_UWB1,30,IO21*%
%TO.N,unconnected-(ESP32_UWB1-IO21-Pad30)*%
X48260000Y-20320000D03*
%TO.P,ESP32_UWB1,31,IO22*%
%TO.N,unconnected-(ESP32_UWB1-IO22-Pad31)*%
X50800000Y-20320000D03*
%TO.P,ESP32_UWB1,32,IO23*%
%TO.N,unconnected-(ESP32_UWB1-IO23-Pad32)*%
X53340000Y-20320000D03*
%TD*%
%TO.P,R3,1*%
%TO.N,Net-(TAG_LED1-R)*%
X60960000Y-59690000D03*
%TO.P,R3,2*%
%TO.N,Net-(ESP32_UWB1-IO32)*%
X60960000Y-52070000D03*
%TD*%
%TO.P,R1,1*%
%TO.N,Net-(SERVER_LED1-R)*%
X53340000Y-59690000D03*
%TO.P,R1,2*%
%TO.N,Net-(ESP32_UWB1-IO25)*%
X53340000Y-52070000D03*
%TD*%
%TO.P,R2,1*%
%TO.N,Net-(SERVER_LED1-G)*%
X55880000Y-59690000D03*
%TO.P,R2,2*%
%TO.N,Net-(ESP32_UWB1-IO26)*%
X55880000Y-52070000D03*
%TD*%
%TO.P,SERVER_LED1,1,R*%
%TO.N,Net-(SERVER_LED1-R)*%
X50800000Y-66040000D03*
D11*
%TO.P,SERVER_LED1,2,VCC*%
%TO.N,Net-(CAN_Transreceiver1-3.3V)*%
X53340000Y-66040000D03*
D10*
%TO.P,SERVER_LED1,3,G*%
%TO.N,Net-(SERVER_LED1-G)*%
X55880000Y-66040000D03*
%TO.P,SERVER_LED1,4,B*%
%TO.N,unconnected-(SERVER_LED1-B-Pad4)*%
X58420000Y-66040000D03*
%TD*%
%TO.P,5V_Regulator1,1,IN-*%
%TO.N,Net-(2_PIN_Connector1-Pin_1)*%
X31040000Y-64540000D03*
%TO.P,5V_Regulator1,2,IN+*%
%TO.N,Net-(2_PIN_Connector1-Pin_2)*%
X31040000Y-72820000D03*
%TO.P,5V_Regulator1,3,OUT-*%
%TO.N,Net-(5V_Regulator1-OUT-)*%
X45360000Y-64540000D03*
%TO.P,5V_Regulator1,4,OUT+*%
%TO.N,Net-(5V_Regulator1-OUT+)*%
X45360000Y-72820000D03*
%TD*%
%TO.P,TAG_LED1,1,R*%
%TO.N,Net-(TAG_LED1-R)*%
X60960000Y-66040000D03*
D11*
%TO.P,TAG_LED1,2,VCC*%
%TO.N,Net-(CAN_Transreceiver1-3.3V)*%
X63500000Y-66040000D03*
D10*
%TO.P,TAG_LED1,3,G*%
%TO.N,Net-(TAG_LED1-G)*%
X66040000Y-66040000D03*
%TO.P,TAG_LED1,4,B*%
%TO.N,unconnected-(TAG_LED1-B-Pad4)*%
X68580000Y-66040000D03*
%TD*%
D12*
%TO.P,CAN_Transreceiver1,1,3.3V*%
%TO.N,Net-(CAN_Transreceiver1-3.3V)*%
X44320000Y-59690000D03*
%TO.P,CAN_Transreceiver1,2,GND*%
%TO.N,Net-(CAN_Transreceiver1-GND)*%
X44320000Y-57150000D03*
%TO.P,CAN_Transreceiver1,3,CAN_RX*%
%TO.N,Net-(CAN_Transreceiver1-CAN_RX)*%
X44320000Y-54610000D03*
%TO.P,CAN_Transreceiver1,4,CAN_TX*%
%TO.N,Net-(CAN_Transreceiver1-CAN_TX)*%
X44320000Y-52070000D03*
%TO.P,CAN_Transreceiver1,5,CANL*%
%TO.N,unconnected-(CAN_Transreceiver1-CANL-Pad5)*%
X24020000Y-58420000D03*
%TO.P,CAN_Transreceiver1,6,CANH*%
%TO.N,unconnected-(CAN_Transreceiver1-CANH-Pad6)*%
X24020000Y-53340000D03*
%TO.P,CAN_Transreceiver1,7,R120*%
%TO.N,unconnected-(CAN_Transreceiver1-R120-Pad7)*%
X30620000Y-57150000D03*
%TO.P,CAN_Transreceiver1,8,R120*%
%TO.N,unconnected-(CAN_Transreceiver1-R120-Pad8)*%
X30620000Y-54610000D03*
%TD*%
D10*
%TO.P,R4,1*%
%TO.N,Net-(TAG_LED1-G)*%
X63500000Y-59690000D03*
%TO.P,R4,2*%
%TO.N,Net-(ESP32_UWB1-IO33)*%
X63500000Y-52070000D03*
%TD*%
%TO.P,2_PIN_Connector1,1,Pin_1*%
%TO.N,Net-(2_PIN_Connector1-Pin_1)*%
X24130000Y-66040000D03*
%TO.P,2_PIN_Connector1,2,Pin_2*%
%TO.N,Net-(2_PIN_Connector1-Pin_2)*%
X24130000Y-71120000D03*
%TD*%
D13*
%TO.N,Net-(CAN_Transreceiver1-CAN_RX)*%
X44320000Y-54610000D02*
X41910000Y-54610000D01*
D14*
X35560000Y-48390000D02*
X35560000Y-48260000D01*
D13*
X41910000Y-54610000D02*
X35560000Y-48260000D01*
%TO.N,Net-(CAN_Transreceiver1-CAN_TX)*%
X41910000Y-52070000D02*
X38100000Y-48260000D01*
X44320000Y-52070000D02*
X41910000Y-52070000D01*
D14*
X38100000Y-48390000D02*
X38100000Y-48260000D01*
D13*
%TO.N,Net-(CAN_Transreceiver1-GND)*%
X44320000Y-57150000D02*
X36830000Y-57150000D01*
X36830000Y-57150000D02*
X27940000Y-48260000D01*
%TO.N,Net-(CAN_Transreceiver1-3.3V)*%
X48260000Y-68580000D02*
X48260000Y-63630000D01*
X30480000Y-60960000D02*
X43180000Y-60960000D01*
X43180000Y-60960000D02*
X43180000Y-60830000D01*
X55880000Y-68580000D02*
X53340000Y-66040000D01*
X50800000Y-68580000D02*
X48260000Y-68580000D01*
X53340000Y-66040000D02*
X50800000Y-68580000D01*
X27940000Y-50800000D02*
X27940000Y-58420000D01*
X25400000Y-48260000D02*
X27940000Y-50800000D01*
X60960000Y-68580000D02*
X55880000Y-68580000D01*
X48260000Y-63630000D02*
X44320000Y-59690000D01*
X43180000Y-60830000D02*
X44320000Y-59690000D01*
X27940000Y-58420000D02*
X30480000Y-60960000D01*
X63500000Y-66040000D02*
X60960000Y-68580000D01*
%TO.N,Net-(SERVER_LED1-R)*%
X50800000Y-62230000D02*
X53340000Y-59690000D01*
X50800000Y-66040000D02*
X50800000Y-62230000D01*
%TO.N,Net-(SERVER_LED1-G)*%
X55880000Y-66040000D02*
X55880000Y-59690000D01*
%TO.N,Net-(TAG_LED1-R)*%
X60960000Y-66040000D02*
X60960000Y-59690000D01*
%TO.N,Net-(TAG_LED1-G)*%
X66040000Y-62230000D02*
X66040000Y-66040000D01*
X63500000Y-59690000D02*
X66040000Y-62230000D01*
%TO.N,Net-(ESP32_UWB1-IO32)*%
X60960000Y-52070000D02*
X60960000Y-48260000D01*
%TO.N,Net-(ESP32_UWB1-IO25)*%
X53340000Y-48260000D02*
X53340000Y-52070000D01*
%TO.N,Net-(ESP32_UWB1-IO26)*%
X55880000Y-52070000D02*
X55880000Y-48260000D01*
%TO.N,Net-(ESP32_UWB1-IO33)*%
X63500000Y-48260000D02*
X63500000Y-52070000D01*
%TD*%
M02*
