%TF.GenerationSoftware,KiCad,Pcbnew,9.0.0*%
%TF.CreationDate,2025-03-08T00:24:41-08:00*%
%TF.ProjectId,sensor,73656e73-6f72-42e6-9b69-6361645f7063,v0.2*%
%TF.SameCoordinates,Original*%
%TF.FileFunction,Copper,L1,Top*%
%TF.FilePolarity,Positive*%
%FSLAX46Y46*%
G04 Gerber Fmt 4.6, Leading zero omitted, Abs format (unit mm)*
G04 Created by KiCad (PCBNEW 9.0.0) date 2025-03-08 00:24:41*
%MOMM*%
%LPD*%
G01*
G04 APERTURE LIST*
%TA.AperFunction,ComponentPad*%
%ADD10C,1.800000*%
%TD*%
%TA.AperFunction,ComponentPad*%
%ADD11R,1.800000X1.800000*%
%TD*%
%TA.AperFunction,ComponentPad*%
%ADD12C,2.000000*%
%TD*%
%TA.AperFunction,Conductor*%
%ADD13C,0.500000*%
%TD*%
%TA.AperFunction,Conductor*%
%ADD14C,0.200000*%
%TD*%
%TA.AperFunction,Conductor*%
%ADD15C,0.300000*%
%TD*%
G04 APERTURE END LIST*
D10*
%TO.P,ESP32_UWB1,1,3V3*%
%TO.N,Net-(CAN_Transreceiver1-3.3V)*%
X132080000Y-99060000D03*
%TO.P,ESP32_UWB1,2,GND*%
%TO.N,Net-(CAN_Transreceiver1-GND)*%
X134620000Y-99060000D03*
%TO.P,ESP32_UWB1,3,RST*%
%TO.N,unconnected-(ESP32_UWB1-RST-Pad3)*%
X137160000Y-99060000D03*
%TO.P,ESP32_UWB1,4,GND*%
%TO.N,unconnected-(ESP32_UWB1-GND-Pad4)*%
X139700000Y-99060000D03*
%TO.P,ESP32_UWB1,5,IO2*%
%TO.N,Net-(CAN_Transreceiver1-CAN_RX)*%
X142240000Y-99060000D03*
%TO.P,ESP32_UWB1,6,IO12*%
%TO.N,Net-(CAN_Transreceiver1-CAN_TX)*%
X144780000Y-99060000D03*
%TO.P,ESP32_UWB1,7,IO13*%
%TO.N,unconnected-(ESP32_UWB1-IO13-Pad7)*%
X147320000Y-99060000D03*
%TO.P,ESP32_UWB1,8,IO14*%
%TO.N,unconnected-(ESP32_UWB1-IO14-Pad8)*%
X149860000Y-99060000D03*
%TO.P,ESP32_UWB1,9,IO15*%
%TO.N,unconnected-(ESP32_UWB1-IO15-Pad9)*%
X152400000Y-99060000D03*
%TO.P,ESP32_UWB1,10,IO18*%
%TO.N,unconnected-(ESP32_UWB1-IO18-Pad10)*%
X154940000Y-99060000D03*
%TO.P,ESP32_UWB1,11,IO19*%
%TO.N,unconnected-(ESP32_UWB1-IO19-Pad11)*%
X157480000Y-99060000D03*
%TO.P,ESP32_UWB1,12,IO25*%
%TO.N,Net-(ESP32_UWB1-IO25)*%
X160020000Y-99060000D03*
%TO.P,ESP32_UWB1,13,IO26*%
%TO.N,Net-(ESP32_UWB1-IO26)*%
X162560000Y-99060000D03*
%TO.P,ESP32_UWB1,14,IO27*%
%TO.N,unconnected-(ESP32_UWB1-IO27-Pad14)*%
X165100000Y-99060000D03*
%TO.P,ESP32_UWB1,15,IO32*%
%TO.N,Net-(ESP32_UWB1-IO32)*%
X167640000Y-99060000D03*
%TO.P,ESP32_UWB1,16,IO33*%
%TO.N,Net-(ESP32_UWB1-IO33)*%
X170180000Y-99060000D03*
%TO.P,ESP32_UWB1,17,IO34*%
%TO.N,unconnected-(ESP32_UWB1-IO34-Pad17)*%
X172720000Y-99060000D03*
%TO.P,ESP32_UWB1,18,IO35*%
%TO.N,unconnected-(ESP32_UWB1-IO35-Pad18)*%
X175260000Y-99060000D03*
%TO.P,ESP32_UWB1,19,IO36*%
%TO.N,unconnected-(ESP32_UWB1-IO36-Pad19)*%
X177800000Y-99060000D03*
%TO.P,ESP32_UWB1,20,IO39*%
%TO.N,unconnected-(ESP32_UWB1-IO39-Pad20)*%
X180340000Y-99060000D03*
%TO.P,ESP32_UWB1,21,5V0*%
%TO.N,Net-(5V_Regulator1-OUT+)*%
X132080000Y-71120000D03*
%TO.P,ESP32_UWB1,22,GND*%
%TO.N,Net-(5V_Regulator1-OUT-)*%
X134620000Y-71120000D03*
%TO.P,ESP32_UWB1,23,IO3*%
%TO.N,unconnected-(ESP32_UWB1-IO3-Pad23)*%
X137160000Y-71120000D03*
%TO.P,ESP32_UWB1,24,IO1*%
%TO.N,unconnected-(ESP32_UWB1-IO1-Pad24)*%
X139700000Y-71120000D03*
%TO.P,ESP32_UWB1,25,IO0*%
%TO.N,unconnected-(ESP32_UWB1-IO0-Pad25)*%
X142240000Y-71120000D03*
%TO.P,ESP32_UWB1,26,IO4*%
%TO.N,unconnected-(ESP32_UWB1-IO4-Pad26)*%
X144780000Y-71120000D03*
%TO.P,ESP32_UWB1,27,IO5*%
%TO.N,unconnected-(ESP32_UWB1-IO5-Pad27)*%
X147320000Y-71120000D03*
%TO.P,ESP32_UWB1,28,IO16*%
%TO.N,unconnected-(ESP32_UWB1-IO16-Pad28)*%
X149860000Y-71120000D03*
%TO.P,ESP32_UWB1,29,IO17*%
%TO.N,unconnected-(ESP32_UWB1-IO17-Pad29)*%
X152400000Y-71120000D03*
%TO.P,ESP32_UWB1,30,IO21*%
%TO.N,unconnected-(ESP32_UWB1-IO21-Pad30)*%
X154940000Y-71120000D03*
%TO.P,ESP32_UWB1,31,IO22*%
%TO.N,unconnected-(ESP32_UWB1-IO22-Pad31)*%
X157480000Y-71120000D03*
%TO.P,ESP32_UWB1,32,IO23*%
%TO.N,unconnected-(ESP32_UWB1-IO23-Pad32)*%
X160020000Y-71120000D03*
%TD*%
%TO.P,R3,1*%
%TO.N,Net-(TAG_LED1-R)*%
X167640000Y-110490000D03*
%TO.P,R3,2*%
%TO.N,Net-(ESP32_UWB1-IO32)*%
X167640000Y-102870000D03*
%TD*%
%TO.P,R1,1*%
%TO.N,Net-(SERVER_LED1-R)*%
X160020000Y-110490000D03*
%TO.P,R1,2*%
%TO.N,Net-(ESP32_UWB1-IO25)*%
X160020000Y-102870000D03*
%TD*%
%TO.P,R2,1*%
%TO.N,Net-(SERVER_LED1-G)*%
X162560000Y-110490000D03*
%TO.P,R2,2*%
%TO.N,Net-(ESP32_UWB1-IO26)*%
X162560000Y-102870000D03*
%TD*%
%TO.P,SERVER_LED1,1,R*%
%TO.N,Net-(SERVER_LED1-R)*%
X160020000Y-116840000D03*
D11*
%TO.P,SERVER_LED1,2,VCC*%
%TO.N,Net-(CAN_Transreceiver1-3.3V)*%
X162560000Y-116840000D03*
D10*
%TO.P,SERVER_LED1,3,G*%
%TO.N,Net-(SERVER_LED1-G)*%
X165100000Y-116840000D03*
%TO.P,SERVER_LED1,4,B*%
%TO.N,unconnected-(SERVER_LED1-B-Pad4)*%
X167640000Y-116840000D03*
%TD*%
%TO.P,5V_Regulator1,1,IN-*%
%TO.N,Net-(2_PIN_Connector1-Pin_1)*%
X137720000Y-116840000D03*
%TO.P,5V_Regulator1,2,IN+*%
%TO.N,Net-(2_PIN_Connector1-Pin_2)*%
X137720000Y-125120000D03*
%TO.P,5V_Regulator1,3,OUT-*%
%TO.N,Net-(5V_Regulator1-OUT-)*%
X152040000Y-116840000D03*
%TO.P,5V_Regulator1,4,OUT+*%
%TO.N,Net-(5V_Regulator1-OUT+)*%
X152040000Y-125120000D03*
%TD*%
%TO.P,TAG_LED1,1,R*%
%TO.N,Net-(TAG_LED1-R)*%
X172720000Y-116840000D03*
D11*
%TO.P,TAG_LED1,2,VCC*%
%TO.N,Net-(CAN_Transreceiver1-3.3V)*%
X175260000Y-116840000D03*
D10*
%TO.P,TAG_LED1,3,G*%
%TO.N,Net-(TAG_LED1-G)*%
X177800000Y-116840000D03*
%TO.P,TAG_LED1,4,B*%
%TO.N,unconnected-(TAG_LED1-B-Pad4)*%
X180340000Y-116840000D03*
%TD*%
D12*
%TO.P,CAN_Transreceiver1,1,3.3V*%
%TO.N,Net-(CAN_Transreceiver1-3.3V)*%
X151000000Y-113030000D03*
%TO.P,CAN_Transreceiver1,2,GND*%
%TO.N,Net-(CAN_Transreceiver1-GND)*%
X151000000Y-110490000D03*
%TO.P,CAN_Transreceiver1,3,CAN_RX*%
%TO.N,Net-(CAN_Transreceiver1-CAN_RX)*%
X151000000Y-107950000D03*
%TO.P,CAN_Transreceiver1,4,CAN_TX*%
%TO.N,Net-(CAN_Transreceiver1-CAN_TX)*%
X151000000Y-105410000D03*
%TO.P,CAN_Transreceiver1,5,CANL*%
%TO.N,unconnected-(CAN_Transreceiver1-CANL-Pad5)*%
X130700000Y-111760000D03*
%TO.P,CAN_Transreceiver1,6,CANH*%
%TO.N,unconnected-(CAN_Transreceiver1-CANH-Pad6)*%
X130700000Y-106680000D03*
%TO.P,CAN_Transreceiver1,7,R120*%
%TO.N,unconnected-(CAN_Transreceiver1-R120-Pad7)*%
X137300000Y-110490000D03*
%TO.P,CAN_Transreceiver1,8,R120*%
%TO.N,unconnected-(CAN_Transreceiver1-R120-Pad8)*%
X137300000Y-107950000D03*
%TD*%
D10*
%TO.P,R4,1*%
%TO.N,Net-(TAG_LED1-G)*%
X170180000Y-110490000D03*
%TO.P,R4,2*%
%TO.N,Net-(ESP32_UWB1-IO33)*%
X170180000Y-102870000D03*
%TD*%
%TO.P,2_PIN_Connector1,1,Pin_1*%
%TO.N,Net-(2_PIN_Connector1-Pin_1)*%
X130810000Y-117420000D03*
%TO.P,2_PIN_Connector1,2,Pin_2*%
%TO.N,Net-(2_PIN_Connector1-Pin_2)*%
X130810000Y-122500000D03*
%TD*%
D13*
%TO.N,Net-(5V_Regulator1-OUT-)*%
X149860000Y-129540000D02*
X154940000Y-124460000D01*
X154940000Y-119740000D02*
X152040000Y-116840000D01*
X134620000Y-71120000D02*
X130655896Y-67155896D01*
X154940000Y-124460000D02*
X154940000Y-119740000D01*
X127000000Y-129540000D02*
X149860000Y-129540000D01*
X130655896Y-67155896D02*
X125884104Y-67155896D01*
X125884104Y-67155896D02*
X122473590Y-70566410D01*
X122473590Y-125013590D02*
X127000000Y-129540000D01*
X122473590Y-70566410D02*
X122473590Y-125013590D01*
%TO.N,Net-(5V_Regulator1-OUT+)*%
X150160000Y-127000000D02*
X152040000Y-125120000D01*
X127000000Y-68580000D02*
X124460000Y-71120000D01*
X132080000Y-71120000D02*
X129540000Y-68580000D01*
X124460000Y-71120000D02*
X124460000Y-124460000D01*
X124460000Y-124460000D02*
X127000000Y-127000000D01*
X127000000Y-127000000D02*
X150160000Y-127000000D01*
X129540000Y-68580000D02*
X127000000Y-68580000D01*
D14*
%TO.N,Net-(CAN_Transreceiver1-CAN_RX)*%
X142240000Y-99190000D02*
X142240000Y-99060000D01*
D13*
X151000000Y-107950000D02*
X142240000Y-99190000D01*
%TO.N,Net-(CAN_Transreceiver1-CAN_TX)*%
X151000000Y-105410000D02*
X144780000Y-99190000D01*
D14*
X144780000Y-99190000D02*
X144780000Y-99060000D01*
D13*
%TO.N,Net-(CAN_Transreceiver1-GND)*%
X151000000Y-110490000D02*
X145054499Y-104544499D01*
X140104499Y-104544499D02*
X134620000Y-99060000D01*
X145054499Y-104544499D02*
X140104499Y-104544499D01*
D15*
%TO.N,Net-(CAN_Transreceiver1-3.3V)*%
X175260000Y-116840000D02*
X172720000Y-119380000D01*
X157350000Y-119380000D02*
X151000000Y-113030000D01*
D13*
X139700000Y-106680000D02*
X132080000Y-99060000D01*
D15*
X160020000Y-119380000D02*
X157350000Y-119380000D01*
X162560000Y-116840000D02*
X160020000Y-119380000D01*
X165100000Y-119380000D02*
X162560000Y-116840000D01*
D13*
X151000000Y-113030000D02*
X144650000Y-106680000D01*
X144650000Y-106680000D02*
X139700000Y-106680000D01*
D15*
X172720000Y-119380000D02*
X165100000Y-119380000D01*
%TO.N,Net-(SERVER_LED1-R)*%
X160020000Y-116840000D02*
X160020000Y-110490000D01*
%TO.N,Net-(SERVER_LED1-G)*%
X165100000Y-116840000D02*
X162560000Y-114300000D01*
X162560000Y-114300000D02*
X162560000Y-110490000D01*
%TO.N,Net-(TAG_LED1-R)*%
X172720000Y-115570000D02*
X172720000Y-116840000D01*
X167640000Y-110490000D02*
X172720000Y-115570000D01*
%TO.N,Net-(TAG_LED1-G)*%
X170180000Y-110490000D02*
X171450000Y-110490000D01*
X171450000Y-110490000D02*
X177800000Y-116840000D01*
%TO.N,Net-(ESP32_UWB1-IO32)*%
X167640000Y-102870000D02*
X167640000Y-99060000D01*
%TO.N,Net-(ESP32_UWB1-IO25)*%
X160020000Y-99060000D02*
X160020000Y-102870000D01*
%TO.N,Net-(ESP32_UWB1-IO26)*%
X162560000Y-102870000D02*
X162560000Y-99060000D01*
D13*
%TO.N,Net-(2_PIN_Connector1-Pin_1)*%
X130810000Y-117420000D02*
X137140000Y-117420000D01*
X137140000Y-117420000D02*
X137720000Y-116840000D01*
%TO.N,Net-(2_PIN_Connector1-Pin_2)*%
X130810000Y-122500000D02*
X135100000Y-122500000D01*
X135100000Y-122500000D02*
X137720000Y-125120000D01*
D15*
%TO.N,Net-(ESP32_UWB1-IO33)*%
X170180000Y-99060000D02*
X170180000Y-102870000D01*
%TD*%
M02*
