%TF.GenerationSoftware,KiCad,Pcbnew,9.0.0*%
%TF.CreationDate,2025-03-02T11:52:42-08:00*%
%TF.ProjectId,sensor,73656e73-6f72-42e6-9b69-6361645f7063,v0.2*%
%TF.SameCoordinates,Original*%
%TF.FileFunction,Legend,Top*%
%TF.FilePolarity,Positive*%
%FSLAX46Y46*%
G04 Gerber Fmt 4.6, Leading zero omitted, Abs format (unit mm)*
G04 Created by KiCad (PCBNEW 9.0.0) date 2025-03-02 11:52:42*
%MOMM*%
%LPD*%
G01*
G04 APERTURE LIST*
%ADD10C,0.150000*%
%ADD11C,0.200000*%
%ADD12C,0.300000*%
%ADD13C,0.062500*%
%ADD14C,0.250000*%
%ADD15C,0.100000*%
G04 APERTURE END LIST*
D10*
G36*
X103378447Y-79942145D02*
G01*
X103304563Y-80013464D01*
X103195143Y-79893907D01*
X103243503Y-79349002D01*
X103447201Y-79156050D01*
X103378447Y-79942145D01*
G37*
G36*
X103271591Y-80222170D02*
G01*
X102591863Y-80846210D01*
X102456919Y-80846210D01*
X102469741Y-80707602D01*
X103146783Y-80083196D01*
X103296992Y-80082219D01*
X103271591Y-80222170D01*
G37*
G36*
X102507843Y-79893907D02*
G01*
X102378028Y-80013464D01*
X102311838Y-79942145D01*
X102380593Y-79156050D01*
X102556203Y-79349490D01*
X102507843Y-79893907D01*
G37*
G36*
X102232948Y-80845844D02*
G01*
X102319532Y-80934138D01*
X102423824Y-80845722D01*
X102479877Y-80204218D01*
X102370335Y-80084783D01*
X102294009Y-80158545D01*
X102232948Y-80845844D01*
G37*
G36*
X104750115Y-79942145D02*
G01*
X104676231Y-80013464D01*
X104566810Y-79893663D01*
X104610041Y-79384905D01*
X104816305Y-79193907D01*
X104750115Y-79942145D01*
G37*
G36*
X104783210Y-79158004D02*
G01*
X104579511Y-79345582D01*
X103960966Y-79345582D01*
X103787920Y-79158004D01*
X104783210Y-79158004D01*
G37*
G36*
X103879511Y-79893663D02*
G01*
X103749696Y-80013464D01*
X103683506Y-79942145D01*
X103749696Y-79193785D01*
X103922864Y-79384661D01*
X103879511Y-79893663D01*
G37*
G36*
X104666095Y-80900921D02*
G01*
X104495492Y-80713220D01*
X104538845Y-80204218D01*
X104668660Y-80084783D01*
X104732285Y-80158422D01*
X104666095Y-80900921D01*
G37*
G36*
X104627871Y-80940000D02*
G01*
X103632582Y-80940000D01*
X103838845Y-80752421D01*
X104457390Y-80752421D01*
X104627871Y-80940000D01*
G37*
G36*
X103808314Y-80713342D02*
G01*
X103599487Y-80904340D01*
X103665676Y-80158422D01*
X103742002Y-80084783D01*
X103851545Y-80204340D01*
X103808314Y-80713342D01*
G37*
G36*
X104968712Y-80940000D02*
G01*
X104986542Y-80752421D01*
X105177418Y-80752421D01*
X105159588Y-80940000D01*
X104968712Y-80940000D01*
G37*
G36*
X106647271Y-79158004D02*
G01*
X106443572Y-79345582D01*
X105825027Y-79345582D01*
X105651981Y-79158004D01*
X106647271Y-79158004D01*
G37*
G36*
X106491933Y-80940000D02*
G01*
X105496643Y-80940000D01*
X105702906Y-80752421D01*
X106321451Y-80752421D01*
X106491933Y-80940000D01*
G37*
G36*
X105715607Y-80204218D02*
G01*
X105672376Y-80713220D01*
X105463548Y-80900921D01*
X105529738Y-80158545D01*
X105606064Y-80084783D01*
X105715607Y-80204218D01*
G37*
G36*
X106430872Y-79893663D02*
G01*
X106474103Y-79384905D01*
X106680366Y-79193907D01*
X106614176Y-79942145D01*
X106540293Y-80013464D01*
X106430872Y-79893663D01*
G37*
G36*
X106413042Y-79955212D02*
G01*
X106502191Y-80049002D01*
X106395212Y-80142791D01*
X105730872Y-80142791D01*
X105646852Y-80049002D01*
X105748702Y-79955212D01*
X106413042Y-79955212D01*
G37*
G36*
X84219459Y-82508279D02*
G01*
X84514748Y-82503028D01*
X84729716Y-82506802D01*
X84808817Y-82514141D01*
X84873175Y-82529528D01*
X84905415Y-82543450D01*
X84941807Y-82567020D01*
X84953039Y-82602232D01*
X84941807Y-82633698D01*
X84933381Y-82656046D01*
X84922145Y-82686577D01*
X84911032Y-82717229D01*
X84892836Y-82743729D01*
X84870145Y-82757130D01*
X84828356Y-82764612D01*
X84591807Y-82767421D01*
X84191371Y-82773039D01*
X84025020Y-82779331D01*
X83989870Y-82775847D01*
X83954698Y-82747261D01*
X83945052Y-82719916D01*
X83934672Y-82691950D01*
X83923935Y-82674927D01*
X83929420Y-82647254D01*
X83929420Y-82585704D01*
X83927833Y-82532704D01*
X83935211Y-82522429D01*
X83950669Y-82518660D01*
X83971552Y-82512187D01*
X83987062Y-82513408D01*
X84022761Y-82517684D01*
X84219459Y-82508279D01*
G37*
G36*
X85473890Y-82508279D02*
G01*
X85769180Y-82503028D01*
X85984148Y-82506802D01*
X86063248Y-82514141D01*
X86127606Y-82529528D01*
X86159846Y-82543450D01*
X86196238Y-82567020D01*
X86207470Y-82602232D01*
X86196238Y-82633698D01*
X86187812Y-82656046D01*
X86176577Y-82686577D01*
X86165464Y-82717229D01*
X86147267Y-82743729D01*
X86124576Y-82757130D01*
X86082787Y-82764612D01*
X85846238Y-82767421D01*
X85445802Y-82773039D01*
X85279452Y-82779331D01*
X85244302Y-82775847D01*
X85209129Y-82747261D01*
X85199483Y-82719916D01*
X85189103Y-82691950D01*
X85178366Y-82674927D01*
X85183852Y-82647254D01*
X85183852Y-82585704D01*
X85182264Y-82532704D01*
X85189642Y-82522429D01*
X85205101Y-82518660D01*
X85225983Y-82512187D01*
X85241493Y-82513408D01*
X85277193Y-82517684D01*
X85473890Y-82508279D01*
G37*
G36*
X88795715Y-81564525D02*
G01*
X88818652Y-81581156D01*
X88846273Y-81621800D01*
X88882787Y-81687501D01*
X88908189Y-81725237D01*
X88953007Y-81799364D01*
X88978408Y-81867752D01*
X88964343Y-81909372D01*
X88911364Y-81960076D01*
X88852046Y-82007429D01*
X88802309Y-82066200D01*
X88771535Y-82095631D01*
X88754804Y-82113827D01*
X88747721Y-82133367D01*
X88735143Y-82144480D01*
X88722686Y-82158524D01*
X88721221Y-82172445D01*
X88726838Y-82179528D01*
X88718534Y-82178063D01*
X88704371Y-82173440D01*
X88698872Y-82194794D01*
X88693255Y-82211646D01*
X88690446Y-82219951D01*
X88691789Y-82222759D01*
X88687637Y-82222759D01*
X88670785Y-82235338D01*
X88659672Y-82256343D01*
X88651367Y-82273196D01*
X88621936Y-82301161D01*
X88601053Y-82315083D01*
X88587009Y-82323510D01*
X88578583Y-82340240D01*
X88582754Y-82345566D01*
X88603862Y-82331814D01*
X88609357Y-82326196D01*
X88623440Y-82313840D01*
X88626210Y-82317892D01*
X88614975Y-82337431D01*
X88594092Y-82348545D01*
X88571744Y-82368206D01*
X88553670Y-82410094D01*
X88542435Y-82433907D01*
X88536817Y-82451981D01*
X88536817Y-82460408D01*
X88531200Y-82463217D01*
X88536817Y-82496800D01*
X88543926Y-82509359D01*
X88550861Y-82510722D01*
X88556479Y-82510722D01*
X88548053Y-82533070D01*
X88543778Y-82561036D01*
X88542435Y-82575080D01*
X88532665Y-82600237D01*
X88528513Y-82622585D01*
X88523018Y-82636507D01*
X88496395Y-82709291D01*
X88481130Y-82777679D01*
X88476856Y-82788914D01*
X88462934Y-82837885D01*
X88450355Y-82897969D01*
X88450355Y-82916043D01*
X88451699Y-82946817D01*
X88450355Y-82983210D01*
X88446203Y-83023754D01*
X88442051Y-83069794D01*
X88433747Y-83083838D01*
X88425321Y-83069794D01*
X88422512Y-83053063D01*
X88416894Y-83069794D01*
X88415551Y-83097882D01*
X88422512Y-83100568D01*
X88434968Y-83092142D01*
X88437777Y-83100568D01*
X88437777Y-83113147D01*
X88437777Y-83132686D01*
X88435984Y-83147155D01*
X88444738Y-83160652D01*
X88447547Y-83167613D01*
X88440464Y-83171887D01*
X88439120Y-83195579D01*
X88435302Y-83219612D01*
X88426542Y-83229162D01*
X88420058Y-83238274D01*
X88417016Y-83262745D01*
X88422512Y-83304633D01*
X88428007Y-83299016D01*
X88433503Y-83285094D01*
X88436311Y-83297672D01*
X88433503Y-83324295D01*
X88425076Y-83341025D01*
X88420802Y-83366182D01*
X88427885Y-83391339D01*
X88430694Y-83371800D01*
X88431813Y-83356124D01*
X88438998Y-83352138D01*
X88447424Y-83363374D01*
X88439120Y-83416496D01*
X88441929Y-83449958D01*
X88447547Y-83470963D01*
X88444738Y-83489159D01*
X88434846Y-83507233D01*
X88439120Y-83525429D01*
X88447547Y-83542281D01*
X88450233Y-83553394D01*
X88455729Y-83561821D01*
X88466964Y-83584169D01*
X88472581Y-83593817D01*
X88464155Y-83600778D01*
X88453042Y-83616043D01*
X88444738Y-83634117D01*
X88437899Y-83647916D01*
X88429595Y-83660373D01*
X88408834Y-83686751D01*
X88391230Y-83702063D01*
X88372930Y-83692369D01*
X88359009Y-83683942D01*
X88332630Y-83686751D01*
X88312285Y-83690062D01*
X88303565Y-83697864D01*
X88300370Y-83711124D01*
X88306374Y-83714473D01*
X88314739Y-83716732D01*
X88311870Y-83722899D01*
X88297948Y-83728394D01*
X88281339Y-83718747D01*
X88267540Y-83709221D01*
X88259235Y-83703970D01*
X88248244Y-83698841D01*
X88232001Y-83692366D01*
X88226018Y-83670875D01*
X88225805Y-83670143D01*
X88245924Y-83670143D01*
X88257037Y-83664525D01*
X88263850Y-83653901D01*
X88261189Y-83647672D01*
X88248733Y-83656099D01*
X88245924Y-83670143D01*
X88225805Y-83670143D01*
X88222582Y-83659043D01*
X88211974Y-83651214D01*
X88190299Y-83619829D01*
X88206723Y-83619829D01*
X88209410Y-83629476D01*
X88217836Y-83629476D01*
X88215027Y-83619706D01*
X88206723Y-83619829D01*
X88190299Y-83619829D01*
X88184986Y-83612135D01*
X88166545Y-83561821D01*
X88159462Y-83543625D01*
X88156767Y-83534904D01*
X88163614Y-83515659D01*
X88175675Y-83499429D01*
X88183276Y-83497463D01*
X88187428Y-83493311D01*
X88194511Y-83476580D01*
X88201470Y-83463588D01*
X88201471Y-83449958D01*
X88248733Y-83449958D01*
X88250076Y-83466810D01*
X88254351Y-83469619D01*
X88259846Y-83452766D01*
X88251542Y-83433227D01*
X88248733Y-83449958D01*
X88201471Y-83449958D01*
X88201472Y-83438112D01*
X88217836Y-83438112D01*
X88223454Y-83449225D01*
X88226263Y-83438112D01*
X88220645Y-83426877D01*
X88217836Y-83438112D01*
X88201472Y-83438112D01*
X88201472Y-83436036D01*
X88198358Y-83391024D01*
X88209553Y-83391024D01*
X88215027Y-83404528D01*
X88220645Y-83401720D01*
X88215027Y-83387798D01*
X88209553Y-83391024D01*
X88198358Y-83391024D01*
X88194511Y-83335408D01*
X88194480Y-83334675D01*
X88209532Y-83334675D01*
X88215027Y-83359832D01*
X88220645Y-83351406D01*
X88215027Y-83329057D01*
X88209532Y-83334675D01*
X88194480Y-83334675D01*
X88193655Y-83315136D01*
X88209532Y-83315136D01*
X88215027Y-83320631D01*
X88220645Y-83317822D01*
X88215027Y-83312327D01*
X88209532Y-83315136D01*
X88193655Y-83315136D01*
X88191000Y-83252243D01*
X88203914Y-83252243D01*
X88209410Y-83259204D01*
X88215027Y-83256395D01*
X88209410Y-83249434D01*
X88203914Y-83252243D01*
X88191000Y-83252243D01*
X88189045Y-83205925D01*
X88208528Y-83205925D01*
X88214905Y-83212431D01*
X88223210Y-83215240D01*
X88230170Y-83222201D01*
X88231636Y-83299016D01*
X88234933Y-83374609D01*
X88244947Y-83405261D01*
X88251542Y-83424801D01*
X88251542Y-83407337D01*
X88287934Y-83407337D01*
X88293429Y-83443607D01*
X88297581Y-83407337D01*
X88292086Y-83370945D01*
X88287934Y-83407337D01*
X88251542Y-83407337D01*
X88251542Y-83401109D01*
X88249099Y-83363374D01*
X88251542Y-83352138D01*
X88257037Y-83343712D01*
X88250565Y-83329790D01*
X88249099Y-83318555D01*
X88249099Y-83268241D01*
X88244092Y-83217927D01*
X88239085Y-83192770D01*
X88230809Y-83189242D01*
X88217714Y-83195579D01*
X88208528Y-83205925D01*
X88189045Y-83205925D01*
X88180467Y-83002749D01*
X88180215Y-82996399D01*
X88198297Y-82996399D01*
X88198297Y-83002016D01*
X88203914Y-83018747D01*
X88209532Y-83004825D01*
X88205787Y-82993590D01*
X88413841Y-82993590D01*
X88419459Y-82999207D01*
X88425076Y-82996399D01*
X88419459Y-82990781D01*
X88413841Y-82993590D01*
X88205787Y-82993590D01*
X88203914Y-82987972D01*
X88198297Y-82996399D01*
X88180215Y-82996399D01*
X88176315Y-82897969D01*
X88164591Y-82896503D01*
X88161782Y-82888199D01*
X88160806Y-82850464D01*
X88160806Y-82774993D01*
X88160806Y-82647742D01*
X88157875Y-82619776D01*
X88155066Y-82608541D01*
X88162126Y-82568927D01*
X88155066Y-82541496D01*
X88092906Y-82460408D01*
X88022076Y-82336088D01*
X87937201Y-82158524D01*
X87907404Y-82071939D01*
X87893386Y-82036211D01*
X87886154Y-82029930D01*
X87864905Y-81999155D01*
X87849396Y-81957267D01*
X87839382Y-81929302D01*
X87829490Y-81877644D01*
X87833621Y-81848986D01*
X87843656Y-81834291D01*
X87869180Y-81821713D01*
X87888963Y-81825865D01*
X87911556Y-81831482D01*
X87956863Y-81846870D01*
X87988004Y-81867752D01*
X88007909Y-81878988D01*
X88038835Y-81899459D01*
X88082892Y-81944689D01*
X88118587Y-81994699D01*
X88126856Y-82021503D01*
X88146273Y-82077435D01*
X88163004Y-82098440D01*
X88171430Y-82113827D01*
X88172896Y-82122131D01*
X88186817Y-82150097D01*
X88202083Y-82178063D01*
X88207700Y-82189298D01*
X88213196Y-82203220D01*
X88218813Y-82200411D01*
X88218813Y-82196259D01*
X88221622Y-82197602D01*
X88217470Y-82211646D01*
X88217470Y-82222759D01*
X88224431Y-82217264D01*
X88227004Y-82210538D01*
X88238353Y-82225568D01*
X88246779Y-82247916D01*
X88256427Y-82266113D01*
X88269005Y-82275882D01*
X88306618Y-82245230D01*
X88325926Y-82219340D01*
X88649047Y-82219340D01*
X88654665Y-82224836D01*
X88663091Y-82219340D01*
X88657473Y-82213722D01*
X88649047Y-82219340D01*
X88325926Y-82219340D01*
X88332210Y-82210914D01*
X88425076Y-82210914D01*
X88427885Y-82213722D01*
X88444738Y-82180139D01*
X88453042Y-82152173D01*
X88425076Y-82210914D01*
X88332210Y-82210914D01*
X88344232Y-82194794D01*
X88379159Y-82147288D01*
X88393354Y-82127016D01*
X88458660Y-82127016D01*
X88461468Y-82132634D01*
X88461468Y-82121399D01*
X88458660Y-82127016D01*
X88393354Y-82127016D01*
X88418237Y-82091479D01*
X88454385Y-82028586D01*
X88468400Y-81999099D01*
X88472581Y-81973998D01*
X88478199Y-81940537D01*
X88503478Y-81895840D01*
X88552571Y-81816095D01*
X88607404Y-81728046D01*
X88677160Y-81620462D01*
X88733921Y-81571486D01*
X88769240Y-81561216D01*
X88795715Y-81564525D01*
G37*
G36*
X88172163Y-83396835D02*
G01*
X88169354Y-83399644D01*
X88166545Y-83385722D01*
X88172163Y-83385722D01*
X88172163Y-83396835D01*
G37*
G36*
X88166423Y-83293398D02*
G01*
X88169423Y-83359638D01*
X88160806Y-83368869D01*
X88157997Y-83313060D01*
X88160806Y-83265554D01*
X88166423Y-83293398D01*
G37*
G36*
X88157997Y-83085792D02*
G01*
X88160806Y-83168346D01*
X88160806Y-83234047D01*
X88152379Y-83099836D01*
X88155188Y-83060635D01*
X88157997Y-83085792D01*
G37*
G36*
X88464277Y-82929354D02*
G01*
X88458660Y-82934849D01*
X88453042Y-82929354D01*
X88458660Y-82923736D01*
X88464277Y-82929354D01*
G37*
G36*
X88562219Y-82619043D02*
G01*
X88556723Y-82627348D01*
X88553914Y-82619043D01*
X88559410Y-82610617D01*
X88562219Y-82619043D01*
G37*
G36*
X88567836Y-82572882D02*
G01*
X88556723Y-82577034D01*
X88556723Y-82565921D01*
X88576263Y-82560303D01*
X88567836Y-82572882D01*
G37*
G36*
X88565027Y-82477871D02*
G01*
X88559532Y-82490450D01*
X88553963Y-82495653D01*
X88545488Y-82482023D01*
X88544023Y-82470910D01*
X88551106Y-82476406D01*
X88559532Y-82476406D01*
X88559532Y-82470910D01*
X88565027Y-82477871D01*
G37*
G36*
X88600076Y-82484832D02*
G01*
X88590307Y-82490450D01*
X88594459Y-82479337D01*
X88604228Y-82473719D01*
X88600076Y-82484832D01*
G37*
G36*
X88589940Y-82421329D02*
G01*
X88573087Y-82442212D01*
X88552083Y-82460408D01*
X88559043Y-82453447D01*
X88566036Y-82444927D01*
X88564783Y-82432442D01*
X88567470Y-82426824D01*
X88575896Y-82426824D01*
X88584262Y-82418284D01*
X88589940Y-82421329D01*
G37*
G36*
X89645191Y-82152173D02*
G01*
X89683787Y-82145226D01*
X89734829Y-82152173D01*
X89785387Y-82166095D01*
X89861224Y-82187100D01*
X89934375Y-82219218D01*
X89956347Y-82252522D01*
X89958516Y-82304355D01*
X89931566Y-82387013D01*
X89904838Y-82451179D01*
X89870994Y-82560303D01*
X89833136Y-82727976D01*
X89826053Y-82765833D01*
X89813597Y-82820422D01*
X89797456Y-82982414D01*
X89805571Y-83094393D01*
X89830327Y-83169811D01*
X89847174Y-83187590D01*
X89882351Y-83200586D01*
X89922483Y-83204081D01*
X89959654Y-83197777D01*
X89989246Y-83177409D01*
X90032683Y-83122306D01*
X90071239Y-83056059D01*
X90102903Y-82985286D01*
X90117069Y-82943398D01*
X90138637Y-82880269D01*
X90153583Y-82811995D01*
X90162009Y-82789647D01*
X90165500Y-82795067D01*
X90159200Y-82828848D01*
X90150774Y-82872445D01*
X90143691Y-82900533D01*
X90137951Y-82921660D01*
X90125373Y-82968066D01*
X90108520Y-83025708D01*
X90085885Y-83093383D01*
X90026699Y-83197166D01*
X90006915Y-83230994D01*
X89995680Y-83261891D01*
X89995680Y-83275935D01*
X89987131Y-83289979D01*
X89981514Y-83301214D01*
X89981514Y-83306953D01*
X89968095Y-83323181D01*
X89956235Y-83360321D01*
X89940603Y-83382913D01*
X89931352Y-83391020D01*
X89928025Y-83405383D01*
X89922871Y-83421712D01*
X89902745Y-83444829D01*
X89860736Y-83478412D01*
X89834113Y-83498073D01*
X89801995Y-83517857D01*
X89782334Y-83526284D01*
X89726402Y-83534710D01*
X89670011Y-83531312D01*
X89633956Y-83512362D01*
X89620034Y-83503935D01*
X89600373Y-83491235D01*
X89589138Y-83473039D01*
X89578025Y-83459117D01*
X89553684Y-83444723D01*
X89558363Y-83436646D01*
X89552745Y-83419916D01*
X89541632Y-83403063D01*
X89533206Y-83391950D01*
X89510736Y-83358367D01*
X89499623Y-83323318D01*
X89486922Y-83292421D01*
X89470069Y-83247602D01*
X89460422Y-83162117D01*
X89454202Y-83046792D01*
X89463230Y-82963304D01*
X89474344Y-82901755D01*
X89488387Y-82828848D01*
X89485579Y-82784030D01*
X89459934Y-82743992D01*
X89427968Y-82721659D01*
X89387637Y-82714054D01*
X89321171Y-82700228D01*
X89265170Y-82658162D01*
X89216789Y-82579842D01*
X89200566Y-82532844D01*
X89201352Y-82502419D01*
X89213981Y-82482023D01*
X89249135Y-82467310D01*
X89292383Y-82484832D01*
X89329199Y-82497410D01*
X89367976Y-82484832D01*
X89426492Y-82429231D01*
X89502431Y-82317159D01*
X89576559Y-82199678D01*
X89606582Y-82172725D01*
X89645191Y-82152173D01*
G37*
G36*
X89620401Y-81755523D02*
G01*
X89653984Y-81752714D01*
X89709916Y-81755523D01*
X89850548Y-81771854D01*
X89891999Y-81786175D01*
X89905921Y-81808646D01*
X89925460Y-81844916D01*
X89946465Y-81878499D01*
X89959166Y-81912083D01*
X89965140Y-81933309D01*
X89960509Y-81948475D01*
X89946702Y-81960667D01*
X89915690Y-81974975D01*
X89883028Y-81990791D01*
X89855484Y-82012711D01*
X89827519Y-82037868D01*
X89811220Y-82032727D01*
X89788318Y-82012711D01*
X89693185Y-81937240D01*
X89637868Y-81896051D01*
X89631514Y-81881308D01*
X89628705Y-81872882D01*
X89614783Y-81854685D01*
X89611974Y-81822568D01*
X89609166Y-81803028D01*
X89604891Y-81779214D01*
X89620401Y-81755523D01*
G37*
G36*
X90639504Y-83791653D02*
G01*
X90629734Y-83795928D01*
X90619965Y-83791653D01*
X90629734Y-83787501D01*
X90639504Y-83791653D01*
G37*
G36*
X90604455Y-83781884D02*
G01*
X90608729Y-83793119D01*
X90596029Y-83781884D01*
X90591877Y-83770771D01*
X90604455Y-83781884D01*
G37*
G36*
X90577955Y-83762344D02*
G01*
X90579298Y-83770771D01*
X90570872Y-83762344D01*
X90569528Y-83753918D01*
X90577955Y-83762344D01*
G37*
G36*
X90633886Y-83748300D02*
G01*
X90645122Y-83759535D01*
X90636695Y-83765153D01*
X90621308Y-83756727D01*
X90618499Y-83745491D01*
X90633886Y-83748300D01*
G37*
G36*
X91252790Y-81494459D02*
G01*
X91294441Y-81523126D01*
X91325094Y-81548283D01*
X91325094Y-81626441D01*
X91321526Y-81698091D01*
X91313981Y-81729877D01*
X91286318Y-81769302D01*
X91249378Y-81797044D01*
X91229839Y-81804005D01*
X91235457Y-81780191D01*
X91246570Y-81713147D01*
X91243761Y-81643293D01*
X91221413Y-81625097D01*
X91204304Y-81622287D01*
X91184898Y-81627906D01*
X91145819Y-81660024D01*
X91111620Y-81711102D01*
X91067418Y-81806814D01*
X91030274Y-81910791D01*
X91005746Y-82003918D01*
X90989016Y-82077923D01*
X90977780Y-82135321D01*
X90976796Y-82173188D01*
X90983398Y-82189787D01*
X91003739Y-82197786D01*
X91078531Y-82202365D01*
X91156399Y-82207440D01*
X91198942Y-82219218D01*
X91233318Y-82240253D01*
X91266231Y-82272096D01*
X91294179Y-82315888D01*
X91280153Y-82325219D01*
X91265865Y-82312641D01*
X91261342Y-82305677D01*
X91252920Y-82309832D01*
X91248646Y-82329616D01*
X91249724Y-82339913D01*
X91240097Y-82355383D01*
X91230848Y-82370457D01*
X91232892Y-82379685D01*
X91231549Y-82399713D01*
X91224344Y-82418398D01*
X91237288Y-82436960D01*
X91243909Y-82445145D01*
X91228740Y-82448318D01*
X91182822Y-82448318D01*
X91069738Y-82455401D01*
X90979612Y-82470788D01*
X90959462Y-82490205D01*
X90953845Y-82702208D01*
X90942609Y-83168101D01*
X90910443Y-83407796D01*
X90880938Y-83514193D01*
X90869581Y-83554616D01*
X90854193Y-83596381D01*
X90849919Y-83614455D01*
X90847110Y-83620073D01*
X90841615Y-83628499D01*
X90832604Y-83644676D01*
X90829891Y-83639368D01*
X90824274Y-83644863D01*
X90827083Y-83650481D01*
X90832249Y-83645313D01*
X90826106Y-83656343D01*
X90791057Y-83701039D01*
X90755886Y-83728883D01*
X90739637Y-83733048D01*
X90732194Y-83728883D01*
X90726839Y-83724167D01*
X90712411Y-83726074D01*
X90687254Y-83728883D01*
X90687254Y-83734501D01*
X90692871Y-83740118D01*
X90706793Y-83751231D01*
X90681758Y-83748422D01*
X90627940Y-83734756D01*
X90622043Y-83730104D01*
X90650739Y-83730104D01*
X90661852Y-83737187D01*
X90668813Y-83734378D01*
X90670279Y-83731570D01*
X90659043Y-83723143D01*
X90650739Y-83730104D01*
X90622043Y-83730104D01*
X90606409Y-83717770D01*
X90600792Y-83728883D01*
X90600792Y-83742927D01*
X90581252Y-83723265D01*
X90533991Y-83667456D01*
X90517260Y-83642177D01*
X90500530Y-83608715D01*
X90494912Y-83600289D01*
X90483799Y-83594672D01*
X90472564Y-83572323D01*
X90469755Y-83561210D01*
X90464138Y-83561210D01*
X90464138Y-83555593D01*
X90472644Y-83552216D01*
X90486486Y-83566706D01*
X90504682Y-83591863D01*
X90519947Y-83614211D01*
X90540830Y-83644986D01*
X90550600Y-83664525D01*
X90571482Y-83695300D01*
X90595174Y-83712152D01*
X90597921Y-83700987D01*
X90590983Y-83692613D01*
X90653548Y-83692613D01*
X90659896Y-83699757D01*
X90692749Y-83703726D01*
X90706671Y-83698108D01*
X90770907Y-83698108D01*
X90776402Y-83700917D01*
X90790446Y-83689804D01*
X90770907Y-83698108D01*
X90706671Y-83698108D01*
X90690184Y-83692613D01*
X90715097Y-83692613D01*
X90726332Y-83686995D01*
X90736102Y-83684187D01*
X90750024Y-83691147D01*
X90762725Y-83686995D01*
X90762725Y-83682721D01*
X90751489Y-83681378D01*
X90737445Y-83681378D01*
X90757107Y-83659030D01*
X90795615Y-83597272D01*
X90827083Y-83485739D01*
X90848087Y-83383646D01*
X90849431Y-83357145D01*
X90843935Y-83357145D01*
X90820122Y-83446538D01*
X90787882Y-83547166D01*
X90779455Y-83584902D01*
X90761259Y-83617142D01*
X90743063Y-83646451D01*
X90726332Y-83672951D01*
X90715097Y-83692613D01*
X90690184Y-83692613D01*
X90689818Y-83692491D01*
X90664661Y-83691147D01*
X90653548Y-83692613D01*
X90590983Y-83692613D01*
X90570139Y-83667456D01*
X90550600Y-83643642D01*
X90549789Y-83642299D01*
X90572948Y-83642299D01*
X90578565Y-83650603D01*
X90581252Y-83644986D01*
X90574759Y-83634495D01*
X90572948Y-83642299D01*
X90549789Y-83642299D01*
X90539609Y-83625446D01*
X90537435Y-83622515D01*
X90552676Y-83622515D01*
X90558293Y-83628133D01*
X90563911Y-83625324D01*
X90558293Y-83619706D01*
X90552676Y-83622515D01*
X90537435Y-83622515D01*
X90508451Y-83583436D01*
X90527519Y-83583436D01*
X90530327Y-83594549D01*
X90538754Y-83605785D01*
X90535945Y-83594549D01*
X90527519Y-83583436D01*
X90508451Y-83583436D01*
X90496673Y-83567555D01*
X90490062Y-83555471D01*
X90519092Y-83555471D01*
X90524710Y-83562431D01*
X90530327Y-83559623D01*
X90524710Y-83552662D01*
X90519092Y-83555471D01*
X90490062Y-83555471D01*
X90479371Y-83535931D01*
X90499553Y-83535931D01*
X90502362Y-83547044D01*
X90509200Y-83548510D01*
X90507857Y-83535931D01*
X90499553Y-83535931D01*
X90479371Y-83535931D01*
X90467078Y-83513461D01*
X90477083Y-83513461D01*
X90484043Y-83519078D01*
X90491127Y-83516270D01*
X90484043Y-83510774D01*
X90477083Y-83513461D01*
X90467078Y-83513461D01*
X90464138Y-83508087D01*
X90454368Y-83487083D01*
X90447407Y-83481465D01*
X90443133Y-83481465D01*
X90444598Y-83474504D01*
X90436172Y-83438234D01*
X90427745Y-83399033D01*
X90433363Y-83404651D01*
X90447407Y-83411612D01*
X90453025Y-83413077D01*
X90447407Y-83418572D01*
X90444598Y-83426999D01*
X90453025Y-83432616D01*
X90457177Y-83434082D01*
X90458642Y-83440921D01*
X90458642Y-83446538D01*
X90465603Y-83448004D01*
X90472564Y-83460582D01*
X90480990Y-83474504D01*
X90479981Y-83471695D01*
X90517138Y-83471695D01*
X90518482Y-83477313D01*
X90525565Y-83485617D01*
X90528374Y-83496852D01*
X90533991Y-83491235D01*
X90533991Y-83485739D01*
X90529379Y-83469344D01*
X90517138Y-83471695D01*
X90479981Y-83471695D01*
X90466946Y-83435425D01*
X90458642Y-83390607D01*
X90466946Y-83404651D01*
X90478060Y-83415764D01*
X90482212Y-83417229D01*
X90480868Y-83421381D01*
X90483582Y-83437266D01*
X90489295Y-83440921D01*
X90493447Y-83442386D01*
X90500530Y-83452156D01*
X90510253Y-83466533D01*
X90519947Y-83463391D01*
X90522756Y-83454965D01*
X90517138Y-83443729D01*
X90511521Y-83436769D01*
X90519947Y-83436769D01*
X90528374Y-83452156D01*
X90539487Y-83471695D01*
X90560367Y-83500452D01*
X90556217Y-83505279D01*
X90553408Y-83510896D01*
X90567330Y-83510896D01*
X90570139Y-83502470D01*
X90581252Y-83510896D01*
X90593831Y-83522009D01*
X90616057Y-83534588D01*
X90649518Y-83549975D01*
X90667899Y-83547783D01*
X90680293Y-83535931D01*
X90696901Y-83512240D01*
X90706671Y-83484274D01*
X90719249Y-83439577D01*
X90726210Y-83403185D01*
X90729019Y-83390607D01*
X90731828Y-83373876D01*
X90731828Y-83359954D01*
X90742941Y-83351528D01*
X90748558Y-83357145D01*
X90748558Y-83373876D01*
X90742941Y-83408925D01*
X90734515Y-83438234D01*
X90723401Y-83468886D01*
X90707892Y-83507965D01*
X90706549Y-83544357D01*
X90711514Y-83549839D01*
X90710701Y-83565362D01*
X90698122Y-83597480D01*
X90692627Y-83614333D01*
X90705076Y-83605456D01*
X90718032Y-83579994D01*
X90730874Y-83579994D01*
X90731828Y-83600289D01*
X90750044Y-83562877D01*
X90782142Y-83454965D01*
X90808073Y-83337696D01*
X90810060Y-83323440D01*
X90855048Y-83323440D01*
X90860666Y-83329057D01*
X90866284Y-83326249D01*
X90860666Y-83320631D01*
X90855048Y-83323440D01*
X90810060Y-83323440D01*
X90812000Y-83309518D01*
X90908293Y-83309518D01*
X90911102Y-83317822D01*
X90911102Y-83306709D01*
X90908293Y-83309518D01*
X90812000Y-83309518D01*
X90814154Y-83294058D01*
X90901905Y-83294058D01*
X90905484Y-83298283D01*
X90913911Y-83275935D01*
X90915200Y-83254909D01*
X90908293Y-83270317D01*
X90901905Y-83294058D01*
X90814154Y-83294058D01*
X90821343Y-83242473D01*
X90822686Y-83218782D01*
X90822686Y-83203394D01*
X90821343Y-83197777D01*
X90816481Y-83212478D01*
X90796186Y-83348719D01*
X90779333Y-83424190D01*
X90758328Y-83499661D01*
X90740132Y-83552784D01*
X90730874Y-83579994D01*
X90718032Y-83579994D01*
X90729019Y-83558401D01*
X90750164Y-83499596D01*
X90769319Y-83410268D01*
X90784829Y-83256395D01*
X90789347Y-83242351D01*
X90793866Y-83226964D01*
X90801437Y-83210233D01*
X90801437Y-83194968D01*
X90799972Y-83175307D01*
X90812062Y-83180924D01*
X90823785Y-83190694D01*
X90823785Y-83175307D01*
X90829403Y-83152958D01*
X90839191Y-83139781D01*
X90829403Y-83136106D01*
X90820976Y-83129145D01*
X90829403Y-83122184D01*
X90837829Y-83113879D01*
X90829403Y-83102644D01*
X90824212Y-83093424D01*
X90820976Y-83048056D01*
X90820976Y-82990659D01*
X90820976Y-82954389D01*
X90815359Y-82920806D01*
X90807177Y-82898457D01*
X90804123Y-82882678D01*
X90797715Y-82879040D01*
X90815847Y-82879040D01*
X90821465Y-82887344D01*
X90822808Y-82879040D01*
X90817191Y-82870614D01*
X90815847Y-82879040D01*
X90797715Y-82879040D01*
X90797285Y-82878796D01*
X90793133Y-82871835D01*
X90798750Y-82859256D01*
X90798750Y-82853639D01*
X90812672Y-82855104D01*
X90823907Y-82856570D01*
X90818290Y-82850952D01*
X90812672Y-82839717D01*
X90815481Y-82836908D01*
X90822878Y-82846036D01*
X90826716Y-82839717D01*
X90826716Y-82828482D01*
X90815481Y-82808942D01*
X90807177Y-82797829D01*
X90818168Y-82795020D01*
X90830746Y-82786594D01*
X90829403Y-82771207D01*
X90820976Y-82663496D01*
X90824680Y-82574297D01*
X90829403Y-82562868D01*
X90832212Y-82560059D01*
X90826594Y-82546137D01*
X90821221Y-82534902D01*
X90815969Y-82543328D01*
X90812977Y-82548816D01*
X90800826Y-82543328D01*
X90798262Y-82534902D01*
X90793255Y-82515362D01*
X90796064Y-82515362D01*
X90805851Y-82520203D01*
X90812672Y-82512554D01*
X90815481Y-82504127D01*
X90818290Y-82515362D01*
X90823785Y-82526475D01*
X90829281Y-82504127D01*
X90826472Y-82487397D01*
X90742941Y-82487397D01*
X90668203Y-82483272D01*
X90648175Y-82476161D01*
X90628889Y-82449371D01*
X90614713Y-82392264D01*
X90602678Y-82356958D01*
X90589434Y-82367107D01*
X90580164Y-82383200D01*
X90578321Y-82378342D01*
X90581008Y-82364542D01*
X90587001Y-82345027D01*
X90582473Y-82326807D01*
X90576856Y-82296032D01*
X90595052Y-82268066D01*
X90617522Y-82252679D01*
X90634253Y-82244253D01*
X90641214Y-82240101D01*
X90642679Y-82252679D01*
X90664905Y-82260983D01*
X90703510Y-82256319D01*
X90729141Y-82244131D01*
X90734419Y-82238111D01*
X90795942Y-82224591D01*
X90820976Y-82216287D01*
X90821460Y-82208105D01*
X90843935Y-82208105D01*
X90846744Y-82216409D01*
X90846744Y-82202487D01*
X90843935Y-82208105D01*
X90821460Y-82208105D01*
X90823785Y-82168782D01*
X90826594Y-82146434D01*
X90837707Y-82138007D01*
X90837707Y-82140816D01*
X90840516Y-82152051D01*
X90846011Y-82177208D01*
X90854316Y-82168782D01*
X90854316Y-82126894D01*
X90848820Y-82101737D01*
X90846011Y-82110163D01*
X90840394Y-82107355D01*
X90841737Y-82093311D01*
X90833311Y-82101737D01*
X90826350Y-82108820D01*
X90829159Y-82096120D01*
X90837585Y-82070963D01*
X90842898Y-82051426D01*
X90846011Y-81978761D01*
X90851507Y-81928447D01*
X90848698Y-81922829D01*
X90840394Y-81949452D01*
X90829281Y-82003918D01*
X90823785Y-82057041D01*
X90822320Y-82072428D01*
X90809863Y-82065345D01*
X90807055Y-82050080D01*
X90812672Y-82016496D01*
X90819633Y-81984378D01*
X90823785Y-81964717D01*
X90829403Y-81956413D01*
X90832090Y-81957756D01*
X90832090Y-81953604D01*
X90834898Y-81941025D01*
X90834898Y-81932599D01*
X90834898Y-81911594D01*
X90843203Y-81894863D01*
X90857124Y-81892055D01*
X90857124Y-81897672D01*
X90854316Y-81914403D01*
X90862620Y-81903290D01*
X90870260Y-81890537D01*
X90865307Y-81883628D01*
X90859045Y-81869725D01*
X90868115Y-81841741D01*
X90873611Y-81816584D01*
X90879774Y-81789025D01*
X90901454Y-81755034D01*
X90907072Y-81752348D01*
X90912878Y-81755735D01*
X90923803Y-81741113D01*
X90932107Y-81724382D01*
X90926612Y-81721573D01*
X90954455Y-81679563D01*
X90965690Y-81660024D01*
X91019912Y-81595788D01*
X91096605Y-81523126D01*
X91124326Y-81503464D01*
X91155101Y-81489542D01*
X91207338Y-81483386D01*
X91252790Y-81494459D01*
G37*
G36*
X90578565Y-83689804D02*
G01*
X90578565Y-83695300D01*
X90567330Y-83681378D01*
X90570139Y-83675760D01*
X90578565Y-83689804D01*
G37*
G36*
X90832700Y-83644863D02*
G01*
X90832249Y-83645313D01*
X90832604Y-83644676D01*
X90832700Y-83644863D01*
G37*
G36*
X90453025Y-83522009D02*
G01*
X90455833Y-83536053D01*
X90461451Y-83552784D01*
X90453025Y-83538862D01*
X90441912Y-83516392D01*
X90444117Y-83509241D01*
X90453025Y-83522009D01*
G37*
G36*
X90437882Y-83471573D02*
G01*
X90432264Y-83474382D01*
X90426646Y-83468886D01*
X90432264Y-83466078D01*
X90437882Y-83471573D01*
G37*
G36*
X90509200Y-83418572D02*
G01*
X90507857Y-83426877D01*
X90502362Y-83418572D01*
X90503705Y-83410146D01*
X90509200Y-83418572D01*
G37*
G36*
X90409916Y-83404528D02*
G01*
X90404298Y-83410146D01*
X90398681Y-83401720D01*
X90404298Y-83396102D01*
X90409916Y-83404528D01*
G37*
G36*
X90488318Y-83382302D02*
G01*
X90493169Y-83397100D01*
X90479891Y-83401842D01*
X90474274Y-83393538D01*
X90478426Y-83378150D01*
X90488318Y-83382302D01*
G37*
G36*
X90399902Y-83304023D02*
G01*
X90399902Y-83320753D01*
X90408328Y-83317944D01*
X90411137Y-83309640D01*
X90413946Y-83315136D01*
X90419563Y-83337484D01*
X90421046Y-83351999D01*
X90413946Y-83371067D01*
X90411137Y-83362763D01*
X90411137Y-83347376D01*
X90399902Y-83344567D01*
X90391475Y-83345910D01*
X90397093Y-83340293D01*
X90401245Y-83333332D01*
X90394284Y-83326371D01*
X90388987Y-83322979D01*
X90394284Y-83295596D01*
X90397093Y-83287170D01*
X90402711Y-83287170D01*
X90399902Y-83304023D01*
G37*
G36*
X90468656Y-83351406D02*
G01*
X90477083Y-83359832D01*
X90474880Y-83364765D01*
X90465847Y-83357023D01*
X90463161Y-83350062D01*
X90468656Y-83351406D01*
G37*
G36*
X90757107Y-83331866D02*
G01*
X90752833Y-83342979D01*
X90745872Y-83331866D01*
X90750024Y-83320631D01*
X90757107Y-83331866D01*
G37*
G36*
X90432264Y-83306709D02*
G01*
X90426646Y-83315013D01*
X90425303Y-83306709D01*
X90430799Y-83298283D01*
X90432264Y-83306709D01*
G37*
G36*
X90756985Y-83284361D02*
G01*
X90748558Y-83298283D01*
X90751367Y-83273126D01*
X90759794Y-83256395D01*
X90756985Y-83284361D01*
G37*
G36*
X90398681Y-83247969D02*
G01*
X90398681Y-83270317D01*
X90393063Y-83253586D01*
X90394406Y-83236856D01*
X90398681Y-83247969D01*
G37*
G36*
X90764068Y-83235390D02*
G01*
X90757107Y-83236856D01*
X90761259Y-83227086D01*
X90768342Y-83225621D01*
X90764068Y-83235390D01*
G37*
G36*
X90421151Y-83217316D02*
G01*
X90415533Y-83220003D01*
X90409916Y-83214508D01*
X90415533Y-83211699D01*
X90421151Y-83217316D01*
G37*
G36*
X90755642Y-83211699D02*
G01*
X90748681Y-83217194D01*
X90745872Y-83211699D01*
X90752833Y-83206081D01*
X90755642Y-83211699D01*
G37*
G36*
X90762725Y-83175307D02*
G01*
X90759916Y-83169689D01*
X90762725Y-83164071D01*
X90762725Y-83175307D01*
G37*
G36*
X90810187Y-83115080D02*
G01*
X90809863Y-83130488D01*
X90801763Y-83138175D01*
X90795819Y-83133175D01*
X90802780Y-83122062D01*
X90801437Y-83116444D01*
X90801437Y-83110826D01*
X90810187Y-83115080D01*
G37*
G36*
X90771029Y-83063565D02*
G01*
X90777990Y-83094340D01*
X90773960Y-83108262D01*
X90768342Y-83102644D01*
X90759916Y-83055139D01*
X90762725Y-83043904D01*
X90771029Y-83063565D01*
G37*
G36*
X90795453Y-82982233D02*
G01*
X90804368Y-82987850D01*
X90804368Y-82990659D01*
X90804368Y-83015816D01*
X90812110Y-83062444D01*
X90807177Y-83085792D01*
X90797407Y-83050865D01*
X90793255Y-82999085D01*
X90793255Y-82979424D01*
X90795453Y-82982233D01*
G37*
G36*
X90768342Y-83007634D02*
G01*
X90762725Y-83013129D01*
X90761259Y-83007634D01*
X90766877Y-83002016D01*
X90768342Y-83007634D01*
G37*
G36*
X90768342Y-82983820D02*
G01*
X90762725Y-82990781D01*
X90757107Y-82983820D01*
X90762725Y-82976859D01*
X90768342Y-82983820D01*
G37*
G36*
X90768342Y-82965624D02*
G01*
X90762725Y-82971242D01*
X90757107Y-82965624D01*
X90762725Y-82960006D01*
X90768342Y-82965624D01*
G37*
G36*
X90813161Y-82742020D02*
G01*
X90810352Y-82736402D01*
X90813161Y-82730785D01*
X90813161Y-82742020D01*
G37*
G36*
X90815847Y-82673632D02*
G01*
X90810230Y-82674975D01*
X90804734Y-82669357D01*
X90810230Y-82668014D01*
X90815847Y-82673632D01*
G37*
G36*
X90771151Y-82635774D02*
G01*
X90765533Y-82647009D01*
X90762725Y-82635774D01*
X90768342Y-82624539D01*
X90771151Y-82635774D01*
G37*
G36*
X90801926Y-82621852D02*
G01*
X90810352Y-82638583D01*
X90801926Y-82633087D01*
X90793499Y-82616235D01*
X90801926Y-82621852D01*
G37*
G36*
X90784829Y-82596451D02*
G01*
X90784829Y-82602069D01*
X90779211Y-82593764D01*
X90784829Y-82596451D01*
G37*
G36*
X90771151Y-82557494D02*
G01*
X90773960Y-82568729D01*
X90777990Y-82582651D01*
X90771151Y-82577034D01*
X90762725Y-82557494D01*
X90764662Y-82550545D01*
X90771151Y-82557494D01*
G37*
G36*
X92250163Y-82315572D02*
G01*
X92317303Y-82351743D01*
X92335282Y-82368450D01*
X92352020Y-82389500D01*
X92369476Y-82393607D01*
X92380711Y-82402034D01*
X92387794Y-82411926D01*
X92403548Y-82410460D01*
X92417592Y-82402034D01*
X92441362Y-82392166D01*
X92471692Y-82407651D01*
X92488157Y-82430259D01*
X92499902Y-82463461D01*
X92511206Y-82537158D01*
X92505519Y-82600237D01*
X92490537Y-82697969D01*
X92491598Y-82776092D01*
X92497303Y-82861944D01*
X92514434Y-82946451D01*
X92540380Y-83021414D01*
X92560352Y-83052452D01*
X92588928Y-83063565D01*
X92625488Y-83049837D01*
X92662859Y-82998893D01*
X92701402Y-82882093D01*
X92706898Y-82865362D01*
X92712393Y-82870980D01*
X92712393Y-82890519D01*
X92715202Y-82915676D01*
X92723048Y-82908991D01*
X92731688Y-82873789D01*
X92738784Y-82859092D01*
X92748541Y-82870980D01*
X92751350Y-82879284D01*
X92753057Y-82925315D01*
X92731688Y-83018991D01*
X92726071Y-83058192D01*
X92712393Y-83105697D01*
X92698715Y-83162972D01*
X92686137Y-83216095D01*
X92673681Y-83246748D01*
X92654874Y-83287170D01*
X92634620Y-83337044D01*
X92642295Y-83345910D01*
X92647293Y-83352599D01*
X92636189Y-83365450D01*
X92636189Y-83383646D01*
X92639611Y-83389909D01*
X92652920Y-83390607D01*
X92662690Y-83390729D01*
X92641685Y-83413077D01*
X92612699Y-83434596D01*
X92586364Y-83440921D01*
X92554652Y-83435633D01*
X92492208Y-83413443D01*
X92456460Y-83390604D01*
X92421622Y-83351161D01*
X92394297Y-83303737D01*
X92380291Y-83264822D01*
X92641929Y-83264822D01*
X92645887Y-83268608D01*
X92657194Y-83255174D01*
X92669895Y-83227208D01*
X92681008Y-83194968D01*
X92689434Y-83167002D01*
X92675512Y-83181046D01*
X92643564Y-83241081D01*
X92641929Y-83264822D01*
X92380291Y-83264822D01*
X92376071Y-83253098D01*
X92355716Y-83210608D01*
X92320750Y-83197777D01*
X92294249Y-83231238D01*
X92269092Y-83261891D01*
X92264940Y-83267508D01*
X92242714Y-83306587D01*
X92195649Y-83354253D01*
X92139644Y-83384623D01*
X92100687Y-83402819D01*
X92049152Y-83425167D01*
X92003234Y-83443119D01*
X91947547Y-83448736D01*
X91869511Y-83440310D01*
X91813869Y-83422892D01*
X91748367Y-83388775D01*
X91689741Y-83346449D01*
X91657997Y-83311960D01*
X91616503Y-83237835D01*
X91593883Y-83180802D01*
X91571535Y-83097027D01*
X91561785Y-83045802D01*
X91559135Y-82987972D01*
X91924954Y-82987972D01*
X91929133Y-83047567D01*
X91938876Y-83080296D01*
X91977894Y-83132159D01*
X92015757Y-83143615D01*
X92061242Y-83122184D01*
X92095175Y-83088987D01*
X92147581Y-83018747D01*
X92228304Y-82879040D01*
X92281539Y-82745414D01*
X92292295Y-82697323D01*
X92278618Y-82638583D01*
X92259125Y-82581931D01*
X92261887Y-82526720D01*
X92271939Y-82471402D01*
X92267505Y-82454057D01*
X92231601Y-82442944D01*
X92199849Y-82445753D01*
X92177745Y-82455523D01*
X92140376Y-82470910D01*
X92082369Y-82533803D01*
X92027170Y-82621852D01*
X91999448Y-82669357D01*
X91984305Y-82708558D01*
X91963667Y-82761559D01*
X91936175Y-82847317D01*
X91924954Y-82987972D01*
X91559135Y-82987972D01*
X91557613Y-82954755D01*
X91563122Y-82861685D01*
X91577397Y-82795631D01*
X91602166Y-82724285D01*
X91642365Y-82636507D01*
X91689778Y-82553974D01*
X91760945Y-82461995D01*
X91839872Y-82382391D01*
X91874571Y-82359047D01*
X92259567Y-82359047D01*
X92273611Y-82367473D01*
X92294616Y-82375778D01*
X92304385Y-82375778D01*
X92284846Y-82364665D01*
X92259567Y-82359047D01*
X91874571Y-82359047D01*
X91893813Y-82346102D01*
X92043534Y-82284797D01*
X92119738Y-82276371D01*
X92173471Y-82276371D01*
X92250163Y-82315572D01*
G37*
G36*
X93988073Y-82284187D02*
G01*
X94028467Y-82312346D01*
X94048279Y-82348422D01*
X94052434Y-82385097D01*
X94048279Y-82458942D01*
X94028618Y-82569340D01*
X94003461Y-82625150D01*
X93982456Y-82671311D01*
X93972686Y-82683890D01*
X93971221Y-82689508D01*
X93967069Y-82720282D01*
X93930911Y-82837808D01*
X93911015Y-82932651D01*
X93899902Y-83041706D01*
X93895628Y-83061367D01*
X93894284Y-83080907D01*
X93905519Y-83189839D01*
X93931279Y-83232404D01*
X93969877Y-83265310D01*
X93989417Y-83284972D01*
X93954490Y-83271050D01*
X93908206Y-83240275D01*
X93892819Y-83219270D01*
X93885858Y-83208035D01*
X93881584Y-83201074D01*
X93885206Y-83197340D01*
X93883049Y-83177383D01*
X93878775Y-83146608D01*
X93877431Y-83086402D01*
X93871814Y-83038897D01*
X93869127Y-83052941D01*
X93866318Y-83061245D01*
X93857892Y-83066863D01*
X93863510Y-83080907D01*
X93859235Y-83086402D01*
X93849466Y-83093485D01*
X93859235Y-83107407D01*
X93869127Y-83136716D01*
X93866318Y-83157721D01*
X93857892Y-83161873D01*
X93850809Y-83168956D01*
X93860701Y-83177383D01*
X93866505Y-83179644D01*
X93869127Y-83192648D01*
X93875881Y-83227060D01*
X93897093Y-83259815D01*
X93935253Y-83290186D01*
X94000652Y-83315624D01*
X94025809Y-83329668D01*
X93990882Y-83321364D01*
X93961451Y-83311594D01*
X93922250Y-83293276D01*
X93875660Y-83264131D01*
X93866318Y-83248579D01*
X93852274Y-83220614D01*
X93841039Y-83209501D01*
X93846657Y-83231849D01*
X93863357Y-83273165D01*
X93908593Y-83310935D01*
X93997843Y-83345300D01*
X94092976Y-83354825D01*
X94199466Y-83352016D01*
X94221814Y-83352016D01*
X94230240Y-83363251D01*
X94247035Y-83365235D01*
X94283485Y-83352016D01*
X94300216Y-83346399D01*
X94308642Y-83342247D01*
X94326838Y-83331133D01*
X94359078Y-83322707D01*
X94373122Y-83326859D01*
X94364696Y-83328325D01*
X94356270Y-83332477D01*
X94346378Y-83343590D01*
X94336608Y-83338094D01*
X94330990Y-83333942D01*
X94328304Y-83345055D01*
X94319877Y-83354825D01*
X94303025Y-83352016D01*
X94300216Y-83353482D01*
X94300216Y-83357634D01*
X94294598Y-83363251D01*
X94279211Y-83370212D01*
X94258206Y-83378639D01*
X94235858Y-83385600D01*
X94219127Y-83388408D01*
X94207892Y-83394026D01*
X94195191Y-83399521D01*
X94165760Y-83410757D01*
X94146221Y-83419183D01*
X94111294Y-83424801D01*
X94044249Y-83433105D01*
X94009323Y-83438722D01*
X94017627Y-83444218D01*
X94024588Y-83448492D01*
X94020436Y-83458262D01*
X94014940Y-83455453D01*
X94003705Y-83455453D01*
X93932264Y-83455453D01*
X93866685Y-83452644D01*
X93855660Y-83453050D01*
X93824675Y-83438722D01*
X93823830Y-83438112D01*
X93979769Y-83438112D01*
X93990882Y-83443607D01*
X94002117Y-83438112D01*
X93990882Y-83432494D01*
X93979769Y-83438112D01*
X93823830Y-83438112D01*
X93774239Y-83402330D01*
X93761353Y-83382180D01*
X94178583Y-83382180D01*
X94189696Y-83380837D01*
X94212044Y-83373754D01*
X94226088Y-83368136D01*
X94217784Y-83365327D01*
X94195314Y-83370945D01*
X94178583Y-83382180D01*
X93761353Y-83382180D01*
X93743743Y-83354642D01*
X93721685Y-83275375D01*
X93712812Y-83150760D01*
X93717340Y-83034421D01*
X93729665Y-82941078D01*
X93743709Y-82865607D01*
X93754822Y-82829337D01*
X93796339Y-82727633D01*
X93799640Y-82706238D01*
X93816493Y-82647620D01*
X93859276Y-82515602D01*
X93870573Y-82439405D01*
X93864120Y-82398736D01*
X93845790Y-82382218D01*
X93802449Y-82379197D01*
X93761905Y-82390432D01*
X93722704Y-82409972D01*
X93710125Y-82423893D01*
X93705851Y-82435129D01*
X93703164Y-82429511D01*
X93701821Y-82423893D01*
X93689364Y-82430976D01*
X93688021Y-82443555D01*
X93679717Y-82446242D01*
X93671413Y-82446242D01*
X93667260Y-82447707D01*
X93668726Y-82449050D01*
X93643691Y-82479825D01*
X93551245Y-82591688D01*
X93516253Y-82650049D01*
X93508381Y-82678272D01*
X93504106Y-82702086D01*
X93491528Y-82742630D01*
X93466925Y-82837956D01*
X93429979Y-82941078D01*
X93399204Y-83022166D01*
X93331915Y-83184344D01*
X93326297Y-83201074D01*
X93315062Y-83220736D01*
X93308101Y-83245893D01*
X93306758Y-83263967D01*
X93298332Y-83290467D01*
X93295523Y-83305976D01*
X93287096Y-83310129D01*
X93281601Y-83321364D01*
X93278883Y-83333535D01*
X93261939Y-83346521D01*
X93233974Y-83368869D01*
X93221273Y-83379982D01*
X93217121Y-83388408D01*
X93211503Y-83407948D01*
X93203199Y-83409291D01*
X93196116Y-83399521D01*
X93176577Y-83413565D01*
X93161189Y-83438722D01*
X93152763Y-83435914D01*
X93144337Y-83427487D01*
X93135910Y-83435914D01*
X93110753Y-83456919D01*
X93091214Y-83461071D01*
X93081322Y-83441531D01*
X93074412Y-83429381D01*
X93063126Y-83427487D01*
X93047739Y-83423335D01*
X93035160Y-83388408D01*
X93016964Y-83368869D01*
X93005822Y-83357097D01*
X93001577Y-83335286D01*
X93010003Y-83290467D01*
X93018307Y-83268119D01*
X93008538Y-83277889D01*
X92995959Y-83289124D01*
X92993150Y-83276545D01*
X92987533Y-83257006D01*
X92982753Y-83250069D01*
X92983258Y-83223422D01*
X92987533Y-83191304D01*
X93004263Y-83182878D01*
X93021116Y-83166147D01*
X93030886Y-83139647D01*
X93043586Y-83097637D01*
X93051891Y-83072480D01*
X93082787Y-83055750D01*
X93119057Y-83038897D01*
X93138597Y-82977470D01*
X93172180Y-82885146D01*
X93200496Y-82794239D01*
X93200268Y-82776214D01*
X93195994Y-82774870D01*
X93194651Y-82781709D01*
X93177798Y-82837641D01*
X93155450Y-82892229D01*
X93152641Y-82888077D01*
X93166563Y-82840572D01*
X93203077Y-82731395D01*
X93242010Y-82585457D01*
X93245087Y-82532948D01*
X93228234Y-82517683D01*
X93197459Y-82521835D01*
X93169174Y-82531800D01*
X93155450Y-82527330D01*
X93166563Y-82509256D01*
X93174989Y-82492526D01*
X93173646Y-82474330D01*
X93173646Y-82449173D01*
X93184881Y-82409972D01*
X93203039Y-82383377D01*
X93223960Y-82368084D01*
X93242716Y-82355942D01*
X93245087Y-82348422D01*
X93243621Y-82338775D01*
X93250582Y-82340118D01*
X93294500Y-82347010D01*
X93317871Y-82340118D01*
X93356766Y-82329606D01*
X93410073Y-82342927D01*
X93449631Y-82373774D01*
X93485666Y-82429511D01*
X93500965Y-82458055D01*
X93510945Y-82465903D01*
X93529141Y-82461751D01*
X93586416Y-82415589D01*
X93690043Y-82340047D01*
X93785410Y-82293161D01*
X93874623Y-82270143D01*
X93936575Y-82269673D01*
X93988073Y-82284187D01*
G37*
G36*
X94055362Y-83449225D02*
G01*
X94044127Y-83443607D01*
X94056706Y-83440921D01*
X94055362Y-83449225D01*
G37*
G36*
X94088946Y-83443729D02*
G01*
X94077711Y-83449225D01*
X94072093Y-83443729D01*
X94083328Y-83438112D01*
X94088946Y-83443729D01*
G37*
G36*
X94153304Y-83429685D02*
G01*
X94135108Y-83438112D01*
X94123872Y-83443607D01*
X94128147Y-83435303D01*
X94150495Y-83426877D01*
X94160265Y-83426877D01*
X94153304Y-83429685D01*
G37*
G36*
X94265289Y-83404528D02*
G01*
X94259672Y-83410146D01*
X94256985Y-83404528D01*
X94262480Y-83398911D01*
X94265289Y-83404528D01*
G37*
G36*
X94069284Y-83334675D02*
G01*
X94063667Y-83340170D01*
X94055362Y-83334675D01*
X94060858Y-83329057D01*
X94069284Y-83334675D01*
G37*
G36*
X94270907Y-83334675D02*
G01*
X94262480Y-83340170D01*
X94259672Y-83334675D01*
X94268098Y-83329057D01*
X94270907Y-83334675D01*
G37*
G36*
X94329769Y-83312327D02*
G01*
X94318534Y-83315013D01*
X94291912Y-83330523D01*
X94284951Y-83331866D01*
X94300338Y-83316479D01*
X94326960Y-83306709D01*
X94329769Y-83312327D01*
G37*
G36*
X94042662Y-83298893D02*
G01*
X94056706Y-83307320D01*
X94039853Y-83304511D01*
X94017505Y-83296085D01*
X94017505Y-83290467D01*
X94042662Y-83298893D01*
G37*
G36*
X94347843Y-83301092D02*
G01*
X94349309Y-83295474D01*
X94363353Y-83295474D01*
X94347843Y-83301092D01*
G37*
G36*
X94423436Y-83291322D02*
G01*
X94416475Y-83292787D01*
X94419284Y-83283018D01*
X94426245Y-83281552D01*
X94423436Y-83291322D01*
G37*
G36*
X94403897Y-83281552D02*
G01*
X94394127Y-83281552D01*
X94396936Y-83273126D01*
X94410980Y-83273126D01*
X94403897Y-83281552D01*
G37*
G36*
X94472529Y-83247969D02*
G01*
X94457142Y-83264822D01*
X94436137Y-83278743D01*
X94447372Y-83262013D01*
X94468928Y-83244751D01*
X94472529Y-83247969D01*
G37*
G36*
X94503304Y-83206081D02*
G01*
X94497686Y-83211699D01*
X94503304Y-83217194D01*
X94511730Y-83208890D01*
X94517348Y-83206081D01*
X94507456Y-83218660D01*
X94492069Y-83225621D01*
X94497686Y-83201929D01*
X94511730Y-83189351D01*
X94503304Y-83206081D01*
G37*
G36*
X93024902Y-83108262D02*
G01*
X93019284Y-83113757D01*
X93013667Y-83108262D01*
X93019284Y-83102644D01*
X93024902Y-83108262D01*
G37*
G36*
X93128583Y-82957198D02*
G01*
X93128583Y-82965624D01*
X93120157Y-82976859D01*
X93120157Y-82965624D01*
X93125680Y-82953292D01*
X93128583Y-82957198D01*
G37*
G36*
X96606357Y-82976859D02*
G01*
X96613318Y-82990781D01*
X96597930Y-82982477D01*
X96590969Y-82968433D01*
X96606357Y-82976859D01*
G37*
G36*
X96399117Y-82167561D02*
G01*
X96371151Y-82217875D01*
X96347337Y-82249993D01*
X96340376Y-82247184D01*
X96379577Y-82182948D01*
X96390812Y-82160600D01*
X96404734Y-82149364D01*
X96399117Y-82167561D01*
G37*
G36*
X97159567Y-81642683D02*
G01*
X97216964Y-81674923D01*
X97252013Y-81704232D01*
X97277170Y-81732198D01*
X97312112Y-81768952D01*
X97328665Y-81804605D01*
X97330415Y-81841130D01*
X97309773Y-81905906D01*
X97274361Y-81947376D01*
X97242121Y-81969724D01*
X97211346Y-81978150D01*
X97182037Y-81989263D01*
X97176420Y-81992072D01*
X97184846Y-81955802D01*
X97199426Y-81891313D01*
X97195959Y-81863478D01*
X97181915Y-81892909D01*
X97166528Y-81922219D01*
X97162376Y-81913914D01*
X97169337Y-81878988D01*
X97169441Y-81857797D01*
X97162376Y-81846748D01*
X97144220Y-81841484D01*
X97102170Y-81848091D01*
X97013998Y-81885826D01*
X96955136Y-81919410D01*
X96913929Y-81940424D01*
X96848768Y-81988042D01*
X96792037Y-82040231D01*
X96781601Y-82059361D01*
X96770366Y-82070474D01*
X96749713Y-82086428D01*
X96720052Y-82132023D01*
X96685003Y-82180994D01*
X96644337Y-82232773D01*
X96610753Y-82291514D01*
X96581893Y-82363287D01*
X96579979Y-82403255D01*
X96596831Y-82425603D01*
X96620412Y-82431313D01*
X96686346Y-82427069D01*
X96832037Y-82392142D01*
X96953792Y-82354406D01*
X97011189Y-82339019D01*
X97151140Y-82302627D01*
X97353653Y-82265804D01*
X97517966Y-82252255D01*
X97650295Y-82257374D01*
X97756252Y-82277470D01*
X97813904Y-82303432D01*
X97823419Y-82313862D01*
X97802414Y-82309710D01*
X97785776Y-82307296D01*
X97774448Y-82313862D01*
X97753443Y-82322166D01*
X97747826Y-82322288D01*
X97750635Y-82333401D01*
X97759061Y-82347323D01*
X97777135Y-82365519D01*
X97787027Y-82387868D01*
X97777135Y-82406064D01*
X97761870Y-82408872D01*
X97747826Y-82411681D01*
X97739399Y-82428534D01*
X97735125Y-82439647D01*
X97708503Y-82453691D01*
X97694620Y-82468191D01*
X97694581Y-82478848D01*
X97697390Y-82495701D01*
X97703007Y-82505471D01*
X97711434Y-82516706D01*
X97691772Y-82533436D01*
X97666615Y-82539054D01*
X97660997Y-82540397D01*
X97662966Y-82549690D01*
X97680659Y-82571172D01*
X97693917Y-82591919D01*
X97691772Y-82600481D01*
X97683790Y-82603003D01*
X97675041Y-82596329D01*
X97655380Y-82590711D01*
X97653914Y-82607442D01*
X97644145Y-82611716D01*
X97635840Y-82601946D01*
X97625949Y-82599138D01*
X97588213Y-82604633D01*
X97501614Y-82610220D01*
X97481845Y-82619410D01*
X97466786Y-82624913D01*
X97411381Y-82628080D01*
X97357409Y-82632361D01*
X97346657Y-82639316D01*
X97348000Y-82646399D01*
X97354839Y-82644933D01*
X97364364Y-82647742D01*
X97360334Y-82653237D01*
X97354143Y-82657714D01*
X97363021Y-82678517D01*
X97391637Y-82725820D01*
X97412358Y-82779267D01*
X97426036Y-82829825D01*
X97433401Y-82877550D01*
X97437027Y-82995055D01*
X97432333Y-83112124D01*
X97422983Y-83157477D01*
X97420296Y-83174207D01*
X97428600Y-83162972D01*
X97442644Y-83146242D01*
X97451071Y-83151859D01*
X97448262Y-83179825D01*
X97439836Y-83225987D01*
X97439836Y-83232948D01*
X97441179Y-83242718D01*
X97434218Y-83260914D01*
X97425792Y-83274836D01*
X97407595Y-83309884D01*
X97406780Y-83332692D01*
X97408572Y-83329057D01*
X97412847Y-83322096D01*
X97416999Y-83306709D01*
X97425303Y-83295474D01*
X97426769Y-83306709D01*
X97417778Y-83327777D01*
X97406667Y-83335850D01*
X97406252Y-83347498D01*
X97406252Y-83361542D01*
X97403443Y-83369968D01*
X97397826Y-83375464D01*
X97371081Y-83409047D01*
X97350076Y-83450935D01*
X97361311Y-83446782D01*
X97376821Y-83441165D01*
X97371203Y-83452400D01*
X97361311Y-83464979D01*
X97350076Y-83467787D01*
X97334689Y-83474748D01*
X97308066Y-83501249D01*
X97285718Y-83526406D01*
X97274794Y-83545767D01*
X97214277Y-83600533D01*
X97148660Y-83646902D01*
X97134288Y-83649382D01*
X97139905Y-83641078D01*
X97142836Y-83629842D01*
X97142836Y-83627034D01*
X97151140Y-83627034D01*
X97184846Y-83615921D01*
X97218429Y-83579528D01*
X97226734Y-83571102D01*
X97242243Y-83554371D01*
X97259096Y-83536175D01*
X97268866Y-83523597D01*
X97263370Y-83520788D01*
X97271674Y-83509675D01*
X97285718Y-83491479D01*
X97305258Y-83456552D01*
X97327652Y-83420873D01*
X97324919Y-83417473D01*
X97294145Y-83442630D01*
X97181915Y-83557180D01*
X97111817Y-83615921D01*
X97088402Y-83615273D01*
X97083852Y-83610303D01*
X97086660Y-83604685D01*
X97089469Y-83589298D01*
X97083852Y-83568293D01*
X97068342Y-83545945D01*
X97052955Y-83526406D01*
X97050146Y-83520788D01*
X97036102Y-83534832D01*
X97027798Y-83534832D01*
X97033293Y-83526406D01*
X97047337Y-83509675D01*
X97055764Y-83504057D01*
X97052955Y-83496974D01*
X97041720Y-83495631D01*
X97030484Y-83492822D01*
X97029141Y-83477557D01*
X97029141Y-83463635D01*
X97021936Y-83464979D01*
X96994092Y-83466322D01*
X96982535Y-83457503D01*
X96981025Y-83446782D01*
X96979982Y-83436402D01*
X96970767Y-83430052D01*
X96962748Y-83424015D01*
X96964905Y-83414665D01*
X96966371Y-83396468D01*
X96960509Y-83326615D01*
X96964308Y-83269987D01*
X96971744Y-83249678D01*
X96986464Y-83221657D01*
X96974553Y-83204982D01*
X96954570Y-83207442D01*
X96887602Y-83238565D01*
X96843444Y-83259623D01*
X96809078Y-83269218D01*
X96799309Y-83273492D01*
X96786730Y-83277644D01*
X96774496Y-83280116D01*
X96778304Y-83286071D01*
X96792348Y-83294375D01*
X96809078Y-83299993D01*
X96790356Y-83308541D01*
X96646535Y-83319532D01*
X96608677Y-83316845D01*
X96587672Y-83309884D01*
X96542854Y-83301458D01*
X96517697Y-83290223D01*
X96500844Y-83279110D01*
X96462986Y-83249678D01*
X96426472Y-83224521D01*
X96411085Y-83213408D01*
X96403180Y-83199364D01*
X96896029Y-83199364D01*
X96901646Y-83207791D01*
X96915690Y-83204982D01*
X96926926Y-83199364D01*
X96910073Y-83196556D01*
X96896029Y-83199364D01*
X96403180Y-83199364D01*
X96398506Y-83191060D01*
X96377501Y-83179825D01*
X96371884Y-83177016D01*
X96380310Y-83168590D01*
X96388736Y-83171399D01*
X96394354Y-83177016D01*
X96401289Y-83174540D01*
X96394354Y-83165781D01*
X96730676Y-83165781D01*
X96764260Y-83162972D01*
X96852431Y-83144898D01*
X96866992Y-83138914D01*
X97048803Y-83138914D01*
X97054946Y-83139708D01*
X97068342Y-83127801D01*
X97099117Y-83080296D01*
X97127205Y-83018747D01*
X97141249Y-82975394D01*
X97138440Y-82974050D01*
X97109009Y-83038286D01*
X97064190Y-83112414D01*
X97048803Y-83138914D01*
X96866992Y-83138914D01*
X96916912Y-83118398D01*
X96943412Y-83101545D01*
X96957456Y-83090310D01*
X96952121Y-83087047D01*
X96918255Y-83104354D01*
X96860917Y-83132572D01*
X96769877Y-83157477D01*
X96730676Y-83165781D01*
X96394354Y-83165781D01*
X96380310Y-83160286D01*
X96355153Y-83137815D01*
X96340113Y-83118265D01*
X96329874Y-83115467D01*
X96322791Y-83126702D01*
X96305938Y-83122550D01*
X96296168Y-83107163D01*
X96284933Y-83088967D01*
X96279637Y-83080296D01*
X96329263Y-83080296D01*
X96334759Y-83088600D01*
X96340376Y-83084448D01*
X96334759Y-83076144D01*
X96329263Y-83080296D01*
X96279637Y-83080296D01*
X96273820Y-83070771D01*
X96268203Y-83062344D01*
X96265394Y-83076388D01*
X96271011Y-83087501D01*
X96259654Y-83076388D01*
X96248419Y-83037187D01*
X96231444Y-82986873D01*
X96222896Y-82957564D01*
X96221552Y-82939490D01*
X96213126Y-82921294D01*
X96210317Y-82914211D01*
X96207508Y-82870980D01*
X96200425Y-82824818D01*
X96194808Y-82838740D01*
X96203356Y-82942177D01*
X96208974Y-82981378D01*
X96206165Y-82979912D01*
X96197616Y-82970143D01*
X96186259Y-82958907D01*
X96165132Y-82933750D01*
X96160980Y-82921172D01*
X96149623Y-82891863D01*
X96146814Y-82875132D01*
X96158049Y-82880750D01*
X96166475Y-82886245D01*
X96165010Y-82877941D01*
X96163667Y-82863897D01*
X96169284Y-82847166D01*
X96155240Y-82827627D01*
X96152431Y-82805157D01*
X96158189Y-82794440D01*
X96166475Y-82813583D01*
X96172093Y-82827627D01*
X96183206Y-82858279D01*
X96186015Y-82844357D01*
X96186015Y-82822009D01*
X96181741Y-82778656D01*
X96177588Y-82768886D01*
X96172093Y-82777313D01*
X96168515Y-82784801D01*
X96155240Y-82780000D01*
X96149698Y-82770372D01*
X96146814Y-82739577D01*
X96144140Y-82709700D01*
X96139853Y-82704651D01*
X96144005Y-82697690D01*
X96145663Y-82694375D01*
X96513387Y-82694375D01*
X96513911Y-82744340D01*
X96532107Y-82858279D01*
X96567156Y-82950603D01*
X96593616Y-83002015D01*
X96604891Y-83014839D01*
X96616271Y-83022639D01*
X96618935Y-83017648D01*
X96618935Y-83012030D01*
X96618935Y-83000917D01*
X96629018Y-83008413D01*
X96644092Y-83034501D01*
X96671109Y-83071797D01*
X96702955Y-83090310D01*
X96736173Y-83093401D01*
X96803705Y-83084815D01*
X96954891Y-83045614D01*
X96971744Y-83039996D01*
X96993177Y-83029118D01*
X97061503Y-82967334D01*
X97108558Y-82907996D01*
X97134410Y-82847166D01*
X97145523Y-82815048D01*
X97151140Y-82763269D01*
X97148212Y-82725350D01*
X97141859Y-82708070D01*
X97129202Y-82698470D01*
X97103513Y-82694515D01*
X97076769Y-82698667D01*
X97061503Y-82744218D01*
X97050268Y-82782808D01*
X97047459Y-82757773D01*
X97040376Y-82725778D01*
X97022180Y-82718817D01*
X96995558Y-82735425D01*
X96977362Y-82760338D01*
X96974553Y-82749225D01*
X96971744Y-82729685D01*
X96913004Y-82729685D01*
X96824260Y-82719909D01*
X96747773Y-82691706D01*
X96688771Y-82653543D01*
X96613318Y-82588269D01*
X96565625Y-82548987D01*
X96547494Y-82542229D01*
X96535512Y-82551694D01*
X96520994Y-82593886D01*
X96519528Y-82641392D01*
X96518185Y-82677784D01*
X96513387Y-82694375D01*
X96145663Y-82694375D01*
X96150966Y-82683768D01*
X96155240Y-82662763D01*
X96162201Y-82643224D01*
X96152431Y-82631988D01*
X96150966Y-82619532D01*
X96154655Y-82562817D01*
X96269215Y-82562817D01*
X96270401Y-82588269D01*
X96275270Y-82592597D01*
X96280170Y-82582651D01*
X96287254Y-82540764D01*
X96326332Y-82412170D01*
X96376769Y-82289193D01*
X96399239Y-82249993D01*
X96452226Y-82158148D01*
X96522459Y-82057163D01*
X96550303Y-82019427D01*
X96558852Y-82001231D01*
X96546178Y-82011603D01*
X96487411Y-82085129D01*
X96402048Y-82210914D01*
X96385195Y-82233262D01*
X96376769Y-82249993D01*
X96348803Y-82311542D01*
X96317928Y-82385072D01*
X96288597Y-82476528D01*
X96269215Y-82562817D01*
X96154655Y-82562817D01*
X96155240Y-82553831D01*
X96161341Y-82464109D01*
X96170261Y-82450516D01*
X96176245Y-82442212D01*
X96177711Y-82438060D01*
X96180642Y-82436594D01*
X96185160Y-82432442D01*
X96191266Y-82422550D01*
X96203356Y-82392020D01*
X96203549Y-82391120D01*
X96274759Y-82391120D01*
X96278827Y-82403011D01*
X96295558Y-82389089D01*
X96301175Y-82377854D01*
X96322180Y-82324853D01*
X96351612Y-82267456D01*
X96365655Y-82246451D01*
X96418778Y-82158524D01*
X96494371Y-82056430D01*
X96516842Y-82022847D01*
X96493028Y-82046660D01*
X96449553Y-82102592D01*
X96421587Y-82140327D01*
X96413161Y-82143014D01*
X96414275Y-82133462D01*
X96441249Y-82090013D01*
X96453090Y-82060110D01*
X96444057Y-82053621D01*
X96415969Y-82085739D01*
X96390812Y-82129092D01*
X96378112Y-82150097D01*
X96350146Y-82196259D01*
X96319371Y-82252191D01*
X96306793Y-82282843D01*
X96287254Y-82341584D01*
X96274759Y-82391120D01*
X96203549Y-82391120D01*
X96209340Y-82364054D01*
X96203722Y-82333279D01*
X96206531Y-82320701D01*
X96212553Y-82318616D01*
X96223384Y-82327662D01*
X96234619Y-82341706D01*
X96234619Y-82316549D01*
X96235963Y-82291392D01*
X96240237Y-82285774D01*
X96244761Y-82261684D01*
X96262585Y-82221416D01*
X96271396Y-82230133D01*
X96287864Y-82201877D01*
X96314536Y-82148579D01*
X96335491Y-82120788D01*
X96348070Y-82104057D01*
X96377501Y-82066322D01*
X96405467Y-82034082D01*
X96453217Y-81989263D01*
X96514888Y-81933454D01*
X96563859Y-81894375D01*
X96593412Y-81871905D01*
X96683049Y-81811821D01*
X96803583Y-81743311D01*
X96862070Y-81713178D01*
X96870872Y-81704232D01*
X96880250Y-81693767D01*
X96936695Y-81667840D01*
X96999849Y-81647240D01*
X97041842Y-81639874D01*
X97119746Y-81636583D01*
X97159567Y-81642683D01*
G37*
G36*
X97204141Y-83630942D02*
G01*
X97192906Y-83639368D01*
X97191563Y-83630942D01*
X97202798Y-83622515D01*
X97204141Y-83630942D01*
G37*
G36*
X97073960Y-83586245D02*
G01*
X97071151Y-83594672D01*
X97068464Y-83611402D01*
X97062847Y-83597358D01*
X97068464Y-83580628D01*
X97073960Y-83586245D01*
G37*
G36*
X97286817Y-83566584D02*
G01*
X97278391Y-83572201D01*
X97275582Y-83566584D01*
X97284009Y-83561088D01*
X97286817Y-83566584D01*
G37*
G36*
X97390376Y-83407337D02*
G01*
X97380607Y-83419916D01*
X97376454Y-83421259D01*
X97381950Y-83404528D01*
X97393185Y-83390607D01*
X97390376Y-83407337D01*
G37*
G36*
X96845715Y-83295474D02*
G01*
X96827519Y-83298283D01*
X96819214Y-83292665D01*
X96824832Y-83291322D01*
X96841563Y-83287170D01*
X96861224Y-83287170D01*
X96845715Y-83295474D01*
G37*
G36*
X97460352Y-83197655D02*
G01*
X97457543Y-83200464D01*
X97460352Y-83192037D01*
X97465969Y-83185076D01*
X97460352Y-83197655D01*
G37*
G36*
X96344528Y-83150150D02*
G01*
X96351612Y-83172498D01*
X96341720Y-83168346D01*
X96329141Y-83151493D01*
X96326454Y-83138914D01*
X96331950Y-83130610D01*
X96344528Y-83150150D01*
G37*
G36*
X97471587Y-83158576D02*
G01*
X97468778Y-83152958D01*
X97471587Y-83144532D01*
X97471587Y-83158576D01*
G37*
G36*
X96281636Y-83144532D02*
G01*
X96278827Y-83152958D01*
X96273210Y-83144532D01*
X96276018Y-83136106D01*
X96281636Y-83144532D01*
G37*
G36*
X96259166Y-83097027D02*
G01*
X96264783Y-83113757D01*
X96264783Y-83119375D01*
X96256357Y-83108262D01*
X96245244Y-83085792D01*
X96247409Y-83082230D01*
X96259166Y-83097027D01*
G37*
G36*
X96229002Y-83028883D02*
G01*
X96234619Y-83042805D01*
X96243046Y-83073579D01*
X96243046Y-83077854D01*
X96234619Y-83079197D01*
X96220575Y-83073579D01*
X96223384Y-83059658D01*
X96223384Y-83049888D01*
X96217766Y-83031692D01*
X96220599Y-83017001D01*
X96229002Y-83028883D01*
G37*
G36*
X98971360Y-82156325D02*
G01*
X98996517Y-82175865D01*
X99022503Y-82204247D01*
X99035718Y-82248893D01*
X99032709Y-82280436D01*
X99013370Y-82338775D01*
X98968265Y-82457628D01*
X98944711Y-82551487D01*
X98937777Y-82625150D01*
X98933503Y-82753866D01*
X98937777Y-82834832D01*
X98941563Y-82896259D01*
X98947913Y-82956343D01*
X98946570Y-82966113D01*
X98947913Y-82988461D01*
X98963056Y-83050010D01*
X98970341Y-83105699D01*
X98996517Y-83184344D01*
X99007752Y-83216461D01*
X99013248Y-83230383D01*
X99021674Y-83251388D01*
X99034253Y-83271050D01*
X99057944Y-83273736D01*
X99074028Y-83255865D01*
X99091406Y-83209501D01*
X99099832Y-83173108D01*
X99099832Y-83220614D01*
X99097023Y-83272393D01*
X99102885Y-83283506D01*
X99105694Y-83290467D01*
X99099832Y-83296085D01*
X99106793Y-83298893D01*
X99113876Y-83287780D01*
X99108014Y-83276545D01*
X99112655Y-83265432D01*
X99123279Y-83241618D01*
X99125244Y-83232369D01*
X99130240Y-83236001D01*
X99133049Y-83251388D01*
X99134515Y-83259815D01*
X99142819Y-83248579D01*
X99142819Y-83242962D01*
X99154054Y-83226231D01*
X99155397Y-83238810D01*
X99148436Y-83265432D01*
X99142819Y-83290589D01*
X99137323Y-83315624D01*
X99134515Y-83335286D01*
X99130240Y-83329668D01*
X99126088Y-83329668D01*
X99126088Y-83340781D01*
X99123279Y-83364595D01*
X99084200Y-83407948D01*
X99035647Y-83447005D01*
X98979298Y-83474993D01*
X98922132Y-83487710D01*
X98882944Y-83480610D01*
X98831260Y-83446107D01*
X98828121Y-83442264D01*
X98989434Y-83442264D01*
X99002013Y-83435303D01*
X99007630Y-83426877D01*
X98993586Y-83432494D01*
X98989434Y-83442264D01*
X98828121Y-83442264D01*
X98780059Y-83383425D01*
X98740112Y-83303900D01*
X99116807Y-83303900D01*
X99119616Y-83312327D01*
X99122424Y-83301092D01*
X99116807Y-83303900D01*
X98740112Y-83303900D01*
X98729193Y-83282163D01*
X98699762Y-83217927D01*
X98681566Y-83206692D01*
X98655188Y-83220736D01*
X98636992Y-83240153D01*
X98600600Y-83301702D01*
X98541859Y-83385600D01*
X98527303Y-83409695D01*
X98526472Y-83421992D01*
X98526576Y-83430268D01*
X98518168Y-83433105D01*
X98509203Y-83437312D01*
X98505589Y-83452644D01*
X98501315Y-83472184D01*
X98485928Y-83489036D01*
X98445096Y-83544333D01*
X98404473Y-83572812D01*
X98345813Y-83586022D01*
X98300669Y-83570003D01*
X98251577Y-83519689D01*
X98248093Y-83513583D01*
X98436468Y-83513583D01*
X98449047Y-83502348D01*
X98456008Y-83485617D01*
X98443429Y-83496730D01*
X98436468Y-83513583D01*
X98248093Y-83513583D01*
X98216528Y-83458262D01*
X98203949Y-83428953D01*
X98196866Y-83403796D01*
X98181479Y-83373021D01*
X98173053Y-83353482D01*
X98164626Y-83333820D01*
X98153391Y-83317090D01*
X98168900Y-83310129D01*
X98185631Y-83304511D01*
X98171587Y-83301702D01*
X98154856Y-83290467D01*
X98154490Y-83287780D01*
X98160474Y-83287780D01*
X98171587Y-83284972D01*
X98160474Y-83262623D01*
X98147773Y-83241618D01*
X98140812Y-83220736D01*
X98144354Y-83212309D01*
X98138981Y-83192770D01*
X98126769Y-83161995D01*
X98126769Y-83099103D01*
X98129546Y-83053919D01*
X98133485Y-83047323D01*
X98134829Y-83038897D01*
X98131029Y-83017878D01*
X98134829Y-82929842D01*
X98156688Y-82742508D01*
X98160335Y-82701731D01*
X98155345Y-82683890D01*
X98141655Y-82674095D01*
X98111015Y-82669846D01*
X98080695Y-82665555D01*
X98067906Y-82655802D01*
X98058931Y-82628173D01*
X98065097Y-82588757D01*
X98083601Y-82557258D01*
X98104298Y-82552365D01*
X98118807Y-82549504D01*
X98144354Y-82530017D01*
X98194912Y-82465781D01*
X98213569Y-82426011D01*
X98214829Y-82412170D01*
X98467243Y-82412170D01*
X98470052Y-82420474D01*
X98478356Y-82414979D01*
X98475547Y-82406552D01*
X98467243Y-82412170D01*
X98214829Y-82412170D01*
X98215307Y-82406919D01*
X98216650Y-82377609D01*
X98222145Y-82335722D01*
X98227163Y-82310002D01*
X98240586Y-82295177D01*
X98260491Y-82271364D01*
X98265815Y-82260907D01*
X98281863Y-82251824D01*
X98304699Y-82239246D01*
X98304699Y-82235094D01*
X98298960Y-82236437D01*
X98293220Y-82233628D01*
X98296979Y-82229565D01*
X98316057Y-82233628D01*
X98418517Y-82242055D01*
X98477501Y-82247672D01*
X98488614Y-82285652D01*
X98488614Y-82331814D01*
X98481653Y-82366985D01*
X98474692Y-82379563D01*
X98474692Y-82393485D01*
X98480310Y-82399103D01*
X98487437Y-82406784D01*
X98487149Y-82420230D01*
X98480188Y-82452470D01*
X98471884Y-82483244D01*
X98466266Y-82508524D01*
X98460648Y-82572882D01*
X98449413Y-82617944D01*
X98449413Y-82615013D01*
X98443796Y-82600969D01*
X98443796Y-82615013D01*
X98440626Y-82628207D01*
X98432683Y-82631866D01*
X98427065Y-82631866D01*
X98432683Y-82637484D01*
X98439256Y-82644421D01*
X98436835Y-82654337D01*
X98434026Y-82669846D01*
X98432683Y-82679494D01*
X98421325Y-82717473D01*
X98421325Y-82736240D01*
X98422424Y-82734082D01*
X98432194Y-82729930D01*
X98436468Y-82736891D01*
X98428042Y-82745317D01*
X98421325Y-82743352D01*
X98421325Y-82752400D01*
X98424256Y-82763635D01*
X98418517Y-82763635D01*
X98409968Y-82766444D01*
X98417051Y-82774870D01*
X98412777Y-82788914D01*
X98402763Y-82825429D01*
X98404228Y-82856203D01*
X98405572Y-82889909D01*
X98399954Y-82926301D01*
X98402885Y-82940345D01*
X98404228Y-82952923D01*
X98400076Y-82961350D01*
X98405694Y-83018869D01*
X98418517Y-83119741D01*
X98427065Y-83189839D01*
X98424256Y-83178726D01*
X98410309Y-83124044D01*
X98399099Y-83044515D01*
X98390673Y-82994078D01*
X98387864Y-82988461D01*
X98387864Y-83002505D01*
X98385055Y-83041706D01*
X98385055Y-83065519D01*
X98393482Y-83106064D01*
X98406416Y-83195698D01*
X98427065Y-83273736D01*
X98436835Y-83301702D01*
X98443796Y-83319898D01*
X98449413Y-83328325D01*
X98455031Y-83326859D01*
X98455031Y-83312937D01*
X98443796Y-83272393D01*
X98435491Y-83231849D01*
X98435491Y-83223422D01*
X98445261Y-83244427D01*
X98460648Y-83278011D01*
X98473333Y-83290481D01*
X98485928Y-83290467D01*
X98556147Y-83201074D01*
X98633206Y-83075167D01*
X98659381Y-83018449D01*
X98662759Y-82999696D01*
X98665568Y-82991270D01*
X98673995Y-82994078D01*
X98673995Y-82977348D01*
X98665568Y-82973196D01*
X98659951Y-82971730D01*
X98657142Y-82942421D01*
X98659951Y-82921416D01*
X98665568Y-82938147D01*
X98666912Y-82952191D01*
X98673995Y-82952191D01*
X98678147Y-82945230D01*
X98671186Y-82933995D01*
X98676681Y-82921416D01*
X98676681Y-82899068D01*
X98673872Y-82869759D01*
X98671064Y-82859867D01*
X98665568Y-82882337D01*
X98659951Y-82907372D01*
X98654333Y-82879528D01*
X98657142Y-82837519D01*
X98661624Y-82796608D01*
X98665568Y-82796608D01*
X98665568Y-82832878D01*
X98668377Y-82848265D01*
X98672529Y-82814682D01*
X98675338Y-82768520D01*
X98673872Y-82755942D01*
X98668377Y-82758750D01*
X98665568Y-82796608D01*
X98661624Y-82796608D01*
X98675716Y-82667996D01*
X98713318Y-82513286D01*
X98738475Y-82426702D01*
X98730048Y-82401423D01*
X98730048Y-82398614D01*
X98738475Y-82395928D01*
X98741284Y-82381884D01*
X98771001Y-82293000D01*
X98818831Y-82223859D01*
X98864382Y-82192840D01*
X98910055Y-82178674D01*
X98924931Y-82174704D01*
X98937777Y-82161943D01*
X98956772Y-82146447D01*
X98971360Y-82156325D01*
G37*
G36*
X99156008Y-83292665D02*
G01*
X99153199Y-83284361D01*
X99156008Y-83275935D01*
X99156008Y-83292665D01*
G37*
G36*
X99129385Y-83192159D02*
G01*
X99126577Y-83206081D01*
X99120959Y-83211699D01*
X99115341Y-83204616D01*
X99120959Y-83187885D01*
X99129385Y-83180924D01*
X99129385Y-83192159D01*
G37*
G36*
X98415830Y-82845945D02*
G01*
X98413021Y-82845945D01*
X98415830Y-82823597D01*
X98418639Y-82823597D01*
X98415830Y-82845945D01*
G37*
G36*
X98441964Y-82714054D02*
G01*
X98436346Y-82716863D01*
X98430851Y-82711245D01*
X98436346Y-82708436D01*
X98441964Y-82714054D01*
G37*
G36*
X98726140Y-82416322D02*
G01*
X98724797Y-82426092D01*
X98716371Y-82434518D01*
X98713562Y-82448440D01*
X98708066Y-82451249D01*
X98706601Y-82441479D01*
X98713562Y-82421939D01*
X98719180Y-82412170D01*
X98726140Y-82416322D01*
G37*
G36*
X99752327Y-83198632D02*
G01*
X99794337Y-83198632D01*
X99839155Y-83206448D01*
X99864312Y-83214263D01*
X99923053Y-83226964D01*
X99970680Y-83247969D01*
X99998768Y-83264822D01*
X100020935Y-83284632D01*
X100043464Y-83323928D01*
X100058240Y-83369618D01*
X100063126Y-83416496D01*
X100057041Y-83445351D01*
X100030886Y-83503569D01*
X99996329Y-83561057D01*
X99962376Y-83601877D01*
X99868755Y-83675025D01*
X99757944Y-83733890D01*
X99718114Y-83748173D01*
X99662690Y-83753551D01*
X99592714Y-83756360D01*
X99626297Y-83736821D01*
X99686537Y-83702594D01*
X99734009Y-83664281D01*
X99776170Y-83617124D01*
X99825111Y-83547166D01*
X99853077Y-83495631D01*
X99848509Y-83487061D01*
X99827920Y-83474748D01*
X99785910Y-83448248D01*
X99753670Y-83423091D01*
X99735474Y-83399399D01*
X99717278Y-83356168D01*
X99707997Y-83324552D01*
X99710317Y-83282285D01*
X99727041Y-83222736D01*
X99752327Y-83198632D01*
G37*
G36*
X102890115Y-81971434D02*
G01*
X102951631Y-81995338D01*
X103009305Y-82034448D01*
X103058838Y-82084493D01*
X103097599Y-82142037D01*
X103120069Y-82200778D01*
X103125687Y-82223004D01*
X103137125Y-82265731D01*
X103142540Y-82362833D01*
X103137484Y-82461338D01*
X103125931Y-82513775D01*
X103114818Y-82552976D01*
X103098332Y-82592055D01*
X103084532Y-82618677D01*
X103077693Y-82629790D01*
X103037637Y-82684256D01*
X102998656Y-82736848D01*
X102971448Y-82762536D01*
X102966728Y-82770173D01*
X102982683Y-82781099D01*
X102993918Y-82786472D01*
X103064016Y-82797096D01*
X103075129Y-82798440D01*
X103075129Y-82807721D01*
X103064953Y-82812838D01*
X103028967Y-82815659D01*
X102994141Y-82818720D01*
X102988300Y-82823597D01*
X103002910Y-82831353D01*
X103114452Y-82849853D01*
X103137993Y-82854853D01*
X103142540Y-82860233D01*
X103128496Y-82862920D01*
X103117260Y-82865729D01*
X103139731Y-82874155D01*
X103159270Y-82870003D01*
X103166231Y-82862920D01*
X103169040Y-82868538D01*
X103174658Y-82878429D01*
X103187236Y-82875621D01*
X103195662Y-82868538D01*
X103197006Y-82874155D01*
X103199815Y-82879773D01*
X103206898Y-82874155D01*
X103212515Y-82868538D01*
X103215324Y-82874155D01*
X103216667Y-82878429D01*
X103226437Y-82882581D01*
X103237672Y-82886734D01*
X103250251Y-82889542D01*
X103260143Y-82890886D01*
X103271256Y-82881116D01*
X103277499Y-82874967D01*
X103296535Y-82874155D01*
X103325157Y-82878143D01*
X103330118Y-82874155D01*
X103318883Y-82868538D01*
X103307648Y-82860355D01*
X103290795Y-82852906D01*
X103271256Y-82855471D01*
X103251716Y-82856692D01*
X103242265Y-82849407D01*
X103243290Y-82842648D01*
X103250446Y-82837885D01*
X103279682Y-82835198D01*
X103347748Y-82842773D01*
X103380554Y-82860111D01*
X103395819Y-82876964D01*
X103386050Y-82882459D01*
X103375567Y-82892037D01*
X103388859Y-82899068D01*
X103415481Y-82917142D01*
X103419755Y-82935094D01*
X103419633Y-82960129D01*
X103421099Y-82976737D01*
X103414138Y-82992002D01*
X103415158Y-83005849D01*
X103423907Y-83017037D01*
X103430547Y-83024664D01*
X103425251Y-83026685D01*
X103415367Y-83032670D01*
X103416946Y-83057215D01*
X103414138Y-83076632D01*
X103411329Y-83085059D01*
X103422564Y-83090432D01*
X103429699Y-83098080D01*
X103429403Y-83111315D01*
X103422564Y-83129389D01*
X103405422Y-83134291D01*
X103352466Y-83126580D01*
X103279987Y-83114737D01*
X103243168Y-83123771D01*
X103223628Y-83132198D01*
X103231933Y-83123771D01*
X103231933Y-83121085D01*
X103184305Y-83129389D01*
X103139487Y-83135006D01*
X103104438Y-83129389D01*
X103062428Y-83128046D01*
X103025914Y-83132198D01*
X102992330Y-83137693D01*
X102986713Y-83137693D01*
X102981095Y-83132198D01*
X102971325Y-83139159D01*
X102960090Y-83148684D01*
X102936943Y-83151857D01*
X102932124Y-83145997D01*
X102923041Y-83140704D01*
X102864836Y-83154302D01*
X102829787Y-83158454D01*
X102815743Y-83161263D01*
X102746988Y-83181901D01*
X102564783Y-83228918D01*
X102512444Y-83251277D01*
X102475024Y-83275935D01*
X102434235Y-83292421D01*
X102387951Y-83306465D01*
X102326521Y-83327674D01*
X102284270Y-83317578D01*
X102263165Y-83298690D01*
X102230903Y-83246381D01*
X102206699Y-83189998D01*
X102202937Y-83163827D01*
X102197320Y-83138792D01*
X102186588Y-83104476D01*
X103229246Y-83104476D01*
X103240481Y-83112780D01*
X103246099Y-83107285D01*
X103232112Y-83100870D01*
X103229246Y-83104476D01*
X102186588Y-83104476D01*
X102181112Y-83086966D01*
X102184493Y-83051978D01*
X102202937Y-83027051D01*
X102208555Y-82990659D01*
X102215516Y-82921172D01*
X102224965Y-82896013D01*
X102233712Y-82890519D01*
X102242984Y-82886081D01*
X102252030Y-82868293D01*
X102258286Y-82859378D01*
X103079159Y-82859378D01*
X103080624Y-82864996D01*
X103090394Y-82859378D01*
X103079159Y-82859378D01*
X102258286Y-82859378D01*
X102271570Y-82840450D01*
X102284270Y-82829337D01*
X102302466Y-82808576D01*
X102337515Y-82790380D01*
X102487602Y-82723335D01*
X102674204Y-82628325D01*
X102788814Y-82548512D01*
X102865836Y-82465892D01*
X102912585Y-82379563D01*
X102923698Y-82304092D01*
X102912585Y-82225812D01*
X102881832Y-82177053D01*
X102836870Y-82150341D01*
X102800533Y-82143873D01*
X102749797Y-82146189D01*
X102698851Y-82156636D01*
X102657229Y-82172690D01*
X102619672Y-82199522D01*
X102580170Y-82239856D01*
X102547534Y-82285822D01*
X102528269Y-82329249D01*
X102505799Y-82386646D01*
X102497372Y-82415956D01*
X102493220Y-82431343D01*
X102476367Y-82435495D01*
X102466598Y-82427191D01*
X102449623Y-82415956D01*
X102425501Y-82393582D01*
X102416039Y-82346102D01*
X102426300Y-82283216D01*
X102462323Y-82200778D01*
X102514490Y-82123096D01*
X102575896Y-82060949D01*
X102664312Y-81996713D01*
X102735753Y-81971434D01*
X102820298Y-81963076D01*
X102890115Y-81971434D01*
G37*
G36*
X103358534Y-83146362D02*
G01*
X103347948Y-83152958D01*
X103342452Y-83150150D01*
X103350757Y-83144532D01*
X103358534Y-83146362D01*
G37*
G36*
X103261242Y-82876231D02*
G01*
X103251350Y-82880383D01*
X103233154Y-82876231D01*
X103233154Y-82870614D01*
X103250006Y-82864996D01*
X103261242Y-82876231D01*
G37*
G36*
X103222041Y-82859378D02*
G01*
X103207997Y-82859378D01*
X103216423Y-82856570D01*
X103222041Y-82859378D01*
G37*
G36*
X103193953Y-82825917D02*
G01*
X103186992Y-82830069D01*
X103180031Y-82823108D01*
X103189801Y-82820300D01*
X103193953Y-82825917D01*
G37*
G36*
X103146448Y-82821277D02*
G01*
X103132404Y-82826894D01*
X103118360Y-82821277D01*
X103132404Y-82815659D01*
X103146448Y-82821277D01*
G37*
G36*
X103171605Y-82823108D02*
G01*
X103160369Y-82823108D01*
X103168796Y-82820300D01*
X103171605Y-82823108D01*
G37*
G36*
X103098820Y-82817491D02*
G01*
X103087585Y-82817491D01*
X103093203Y-82814682D01*
X103098820Y-82817491D01*
G37*
G36*
X104345251Y-81902534D02*
G01*
X104437393Y-81919898D01*
X104504416Y-81941364D01*
X104568429Y-81978639D01*
X104649152Y-82052766D01*
X104692788Y-82102116D01*
X104707770Y-82126772D01*
X104736238Y-82207175D01*
X104757962Y-82344881D01*
X104756496Y-82477749D01*
X104746727Y-82565921D01*
X104739967Y-82656692D01*
X104718394Y-82758872D01*
X104698489Y-82835931D01*
X104684323Y-82879284D01*
X104666004Y-82921294D01*
X104656113Y-82949260D01*
X104616423Y-83033157D01*
X104616423Y-83041461D01*
X104624849Y-83041461D01*
X104616423Y-83047079D01*
X104597861Y-83058314D01*
X104587969Y-83077976D01*
X104579542Y-83105942D01*
X104570994Y-83125481D01*
X104565376Y-83108750D01*
X104556950Y-83091898D01*
X104543028Y-83114002D01*
X104523367Y-83148562D01*
X104514940Y-83161018D01*
X104509323Y-83174940D01*
X104502266Y-83189112D01*
X104467557Y-83219270D01*
X104414312Y-83260792D01*
X104405886Y-83280209D01*
X104397581Y-83288391D01*
X104378042Y-83300969D01*
X104372424Y-83313304D01*
X104366807Y-83316113D01*
X104354228Y-83316235D01*
X104302449Y-83334187D01*
X104245174Y-83357756D01*
X104229787Y-83364717D01*
X104219895Y-83367526D01*
X104193394Y-83378761D01*
X104177598Y-83379028D01*
X104173855Y-83373143D01*
X104182281Y-83368869D01*
X104201821Y-83364717D01*
X104221360Y-83354947D01*
X104196325Y-83354947D01*
X104117923Y-83354947D01*
X104063335Y-83360565D01*
X104048572Y-83361243D01*
X103976629Y-83346521D01*
X103869040Y-83313060D01*
X103832882Y-83287589D01*
X103785143Y-83240153D01*
X103727239Y-83156935D01*
X103692819Y-83077976D01*
X103662044Y-82968799D01*
X103656427Y-82879406D01*
X103659639Y-82780556D01*
X103931838Y-82780556D01*
X103944267Y-82833855D01*
X103947076Y-82867438D01*
X103948419Y-82891252D01*
X103963684Y-82906517D01*
X103972716Y-82914229D01*
X103971988Y-82926179D01*
X103972212Y-82949751D01*
X103985910Y-82984919D01*
X104007807Y-83016763D01*
X104030484Y-83035111D01*
X104083792Y-83046121D01*
X104152517Y-83033382D01*
X104244441Y-82987606D01*
X104277342Y-82958689D01*
X104322355Y-82902365D01*
X104362126Y-82838908D01*
X104389033Y-82780732D01*
X104411799Y-82704354D01*
X104455833Y-82504005D01*
X104461451Y-82423039D01*
X104459291Y-82389699D01*
X104711556Y-82389699D01*
X104717418Y-82543572D01*
X104723279Y-82549068D01*
X104735003Y-82423161D01*
X104731031Y-82373291D01*
X104723279Y-82356116D01*
X104711556Y-82344881D01*
X104711556Y-82389699D01*
X104459291Y-82389699D01*
X104455833Y-82336332D01*
X104433485Y-82267822D01*
X104383171Y-82216043D01*
X104324431Y-82174155D01*
X104321362Y-82172934D01*
X104683590Y-82172934D01*
X104686399Y-82200900D01*
X104694825Y-82218974D01*
X104706240Y-82236219D01*
X104711556Y-82280523D01*
X104717418Y-82308489D01*
X104720348Y-82319724D01*
X104726088Y-82328028D01*
X104732072Y-82316915D01*
X104723279Y-82277714D01*
X104704717Y-82200900D01*
X104686399Y-82157547D01*
X104683590Y-82172934D01*
X104321362Y-82172934D01*
X104304711Y-82166309D01*
X104269965Y-82163042D01*
X104204141Y-82174155D01*
X104176174Y-82191643D01*
X104134288Y-82232896D01*
X104072370Y-82311158D01*
X104016929Y-82406186D01*
X103969424Y-82498387D01*
X103952693Y-82534780D01*
X103952693Y-82559937D01*
X103956537Y-82568776D01*
X103951228Y-82594863D01*
X103941458Y-82689874D01*
X103935840Y-82761193D01*
X103931838Y-82780556D01*
X103659639Y-82780556D01*
X103660726Y-82747108D01*
X103670471Y-82677784D01*
X103673157Y-82651284D01*
X103674623Y-82642979D01*
X103680118Y-82595352D01*
X103687079Y-82546381D01*
X103692697Y-82529528D01*
X103696444Y-82504164D01*
X103703810Y-82498754D01*
X103706618Y-82518415D01*
X103706618Y-82535146D01*
X103709427Y-82529528D01*
X103712236Y-82500219D01*
X103715045Y-82482023D01*
X103717854Y-82468101D01*
X103720002Y-82439993D01*
X103745819Y-82370038D01*
X103762672Y-82329616D01*
X103776472Y-82317037D01*
X103780624Y-82315694D01*
X103779281Y-82311420D01*
X103783201Y-82296694D01*
X103818482Y-82230209D01*
X103843761Y-82202243D01*
X103843761Y-82213478D01*
X103843761Y-82224591D01*
X103854874Y-82207861D01*
X103874413Y-82179895D01*
X103885648Y-82154738D01*
X103891144Y-82140694D01*
X103913370Y-82122620D01*
X103930101Y-82098806D01*
X103963636Y-82062658D01*
X104310875Y-82062658D01*
X104336032Y-82069741D01*
X104387812Y-82066933D01*
X104417243Y-82057163D01*
X104404665Y-82044584D01*
X104376577Y-82038967D01*
X104337376Y-82048736D01*
X104310875Y-82062658D01*
X103963636Y-82062658D01*
X103967714Y-82058262D01*
X104013754Y-82017718D01*
X104027798Y-82009413D01*
X104035040Y-82000161D01*
X104079333Y-81971678D01*
X104144790Y-81942247D01*
X104178251Y-81931133D01*
X104228198Y-81913349D01*
X104306479Y-81900359D01*
X104345251Y-81902534D01*
G37*
G36*
X104607630Y-83066741D02*
G01*
X104602013Y-83068206D01*
X104604822Y-83063932D01*
X104618866Y-83058436D01*
X104607630Y-83066741D01*
G37*
G36*
X105699884Y-81971434D02*
G01*
X105761400Y-81995338D01*
X105819075Y-82034448D01*
X105868608Y-82084493D01*
X105907369Y-82142037D01*
X105929839Y-82200778D01*
X105935457Y-82223004D01*
X105946894Y-82265731D01*
X105952309Y-82362833D01*
X105947253Y-82461338D01*
X105935701Y-82513775D01*
X105924588Y-82552976D01*
X105908101Y-82592055D01*
X105894302Y-82618677D01*
X105887463Y-82629790D01*
X105847407Y-82684256D01*
X105808426Y-82736848D01*
X105781217Y-82762536D01*
X105776498Y-82770173D01*
X105792452Y-82781099D01*
X105803688Y-82786472D01*
X105873785Y-82797096D01*
X105884898Y-82798440D01*
X105884898Y-82807721D01*
X105874723Y-82812838D01*
X105838736Y-82815659D01*
X105803911Y-82818720D01*
X105798070Y-82823597D01*
X105812680Y-82831353D01*
X105924221Y-82849853D01*
X105947763Y-82854853D01*
X105952309Y-82860233D01*
X105938265Y-82862920D01*
X105927030Y-82865729D01*
X105949501Y-82874155D01*
X105969040Y-82870003D01*
X105976001Y-82862920D01*
X105978810Y-82868538D01*
X105984427Y-82878429D01*
X105997006Y-82875621D01*
X106005432Y-82868538D01*
X106006775Y-82874155D01*
X106009584Y-82879773D01*
X106016667Y-82874155D01*
X106022285Y-82868538D01*
X106025094Y-82874155D01*
X106026437Y-82878429D01*
X106036207Y-82882581D01*
X106047442Y-82886734D01*
X106060020Y-82889542D01*
X106069912Y-82890886D01*
X106081025Y-82881116D01*
X106087269Y-82874967D01*
X106106304Y-82874155D01*
X106134927Y-82878143D01*
X106139888Y-82874155D01*
X106128653Y-82868538D01*
X106117418Y-82860355D01*
X106100565Y-82852906D01*
X106081025Y-82855471D01*
X106061486Y-82856692D01*
X106052035Y-82849407D01*
X106053060Y-82842648D01*
X106060216Y-82837885D01*
X106089452Y-82835198D01*
X106157518Y-82842773D01*
X106190324Y-82860111D01*
X106205589Y-82876964D01*
X106195819Y-82882459D01*
X106185337Y-82892037D01*
X106198628Y-82899068D01*
X106225251Y-82917142D01*
X106229525Y-82935094D01*
X106229403Y-82960129D01*
X106230868Y-82976737D01*
X106223907Y-82992002D01*
X106224928Y-83005849D01*
X106233677Y-83017037D01*
X106240316Y-83024664D01*
X106235020Y-83026685D01*
X106225137Y-83032670D01*
X106226716Y-83057215D01*
X106223907Y-83076632D01*
X106221099Y-83085059D01*
X106232334Y-83090432D01*
X106239469Y-83098080D01*
X106239173Y-83111315D01*
X106232334Y-83129389D01*
X106215191Y-83134291D01*
X106162236Y-83126580D01*
X106089756Y-83114737D01*
X106052937Y-83123771D01*
X106033398Y-83132198D01*
X106041702Y-83123771D01*
X106041702Y-83121085D01*
X105994075Y-83129389D01*
X105949256Y-83135006D01*
X105914207Y-83129389D01*
X105872198Y-83128046D01*
X105835683Y-83132198D01*
X105802100Y-83137693D01*
X105796482Y-83137693D01*
X105790865Y-83132198D01*
X105781095Y-83139159D01*
X105769860Y-83148684D01*
X105746713Y-83151857D01*
X105741894Y-83145997D01*
X105732811Y-83140704D01*
X105674605Y-83154302D01*
X105639556Y-83158454D01*
X105625512Y-83161263D01*
X105556758Y-83181901D01*
X105374553Y-83228918D01*
X105322214Y-83251277D01*
X105284794Y-83275935D01*
X105244005Y-83292421D01*
X105197721Y-83306465D01*
X105136291Y-83327674D01*
X105094040Y-83317578D01*
X105072934Y-83298690D01*
X105040673Y-83246381D01*
X105016469Y-83189998D01*
X105012707Y-83163827D01*
X105007090Y-83138792D01*
X104996358Y-83104476D01*
X106039016Y-83104476D01*
X106050251Y-83112780D01*
X106055868Y-83107285D01*
X106041881Y-83100870D01*
X106039016Y-83104476D01*
X104996358Y-83104476D01*
X104990882Y-83086966D01*
X104994262Y-83051978D01*
X105012707Y-83027051D01*
X105018325Y-82990659D01*
X105025286Y-82921172D01*
X105034735Y-82896013D01*
X105043482Y-82890519D01*
X105052754Y-82886081D01*
X105061800Y-82868293D01*
X105068056Y-82859378D01*
X105888928Y-82859378D01*
X105890394Y-82864996D01*
X105900163Y-82859378D01*
X105888928Y-82859378D01*
X105068056Y-82859378D01*
X105081339Y-82840450D01*
X105094040Y-82829337D01*
X105112236Y-82808576D01*
X105147285Y-82790380D01*
X105297372Y-82723335D01*
X105483974Y-82628325D01*
X105598584Y-82548512D01*
X105675606Y-82465892D01*
X105722355Y-82379563D01*
X105733468Y-82304092D01*
X105722355Y-82225812D01*
X105691601Y-82177053D01*
X105646639Y-82150341D01*
X105610302Y-82143873D01*
X105559567Y-82146189D01*
X105508620Y-82156636D01*
X105466999Y-82172690D01*
X105429442Y-82199522D01*
X105389940Y-82239856D01*
X105357304Y-82285822D01*
X105338039Y-82329249D01*
X105315568Y-82386646D01*
X105307142Y-82415956D01*
X105302990Y-82431343D01*
X105286137Y-82435495D01*
X105276367Y-82427191D01*
X105259392Y-82415956D01*
X105235271Y-82393582D01*
X105225809Y-82346102D01*
X105236069Y-82283216D01*
X105272093Y-82200778D01*
X105324260Y-82123096D01*
X105385666Y-82060949D01*
X105474082Y-81996713D01*
X105545523Y-81971434D01*
X105630068Y-81963076D01*
X105699884Y-81971434D01*
G37*
G36*
X106168304Y-83146362D02*
G01*
X106157718Y-83152958D01*
X106152222Y-83150150D01*
X106160526Y-83144532D01*
X106168304Y-83146362D01*
G37*
G36*
X106071011Y-82876231D02*
G01*
X106061120Y-82880383D01*
X106042923Y-82876231D01*
X106042923Y-82870614D01*
X106059776Y-82864996D01*
X106071011Y-82876231D01*
G37*
G36*
X106031810Y-82859378D02*
G01*
X106017766Y-82859378D01*
X106026193Y-82856570D01*
X106031810Y-82859378D01*
G37*
G36*
X106003722Y-82825917D02*
G01*
X105996762Y-82830069D01*
X105989801Y-82823108D01*
X105999570Y-82820300D01*
X106003722Y-82825917D01*
G37*
G36*
X105956217Y-82821277D02*
G01*
X105942173Y-82826894D01*
X105928129Y-82821277D01*
X105942173Y-82815659D01*
X105956217Y-82821277D01*
G37*
G36*
X105981374Y-82823108D02*
G01*
X105970139Y-82823108D01*
X105978565Y-82820300D01*
X105981374Y-82823108D01*
G37*
G36*
X105908590Y-82817491D02*
G01*
X105897355Y-82817491D01*
X105902972Y-82814682D01*
X105908590Y-82817491D01*
G37*
G36*
X106633381Y-83444096D02*
G01*
X106629228Y-83449713D01*
X106605415Y-83452522D01*
X106598332Y-83453988D01*
X106605415Y-83446905D01*
X106619544Y-83440629D01*
X106633381Y-83444096D01*
G37*
G36*
X107661887Y-81832093D02*
G01*
X107689004Y-81836579D01*
X107709515Y-81849312D01*
X107761294Y-81880697D01*
X107787916Y-81889368D01*
X107800495Y-81899382D01*
X107801838Y-81909396D01*
X107792069Y-81920753D01*
X107783533Y-81932298D01*
X107786451Y-81940903D01*
X107794877Y-81978028D01*
X107799030Y-82018084D01*
X107798208Y-82028202D01*
X107784986Y-82039455D01*
X107755432Y-82049469D01*
X107744197Y-82055209D01*
X107718796Y-82069497D01*
X107662376Y-82080976D01*
X107548081Y-82089426D01*
X107438081Y-82114606D01*
X107331182Y-82156814D01*
X107283433Y-82176475D01*
X107235806Y-82196015D01*
X107196482Y-82219951D01*
X107165586Y-82260739D01*
X107131986Y-82323303D01*
X107123454Y-82361856D01*
X107136390Y-82389710D01*
X107187934Y-82417909D01*
X107303427Y-82476864D01*
X107397838Y-82558502D01*
X107473698Y-82665205D01*
X107510525Y-82751335D01*
X107521325Y-82821032D01*
X107510169Y-82891681D01*
X107470889Y-82985286D01*
X107419110Y-83064054D01*
X107374291Y-83114612D01*
X107322390Y-83148318D01*
X107282857Y-83173890D01*
X107266458Y-83179214D01*
X107239836Y-83188984D01*
X107235683Y-83210111D01*
X107228600Y-83224033D01*
X107207595Y-83232459D01*
X107196828Y-83230005D01*
X107199169Y-83224033D01*
X107213213Y-83215484D01*
X107224448Y-83209989D01*
X107199169Y-83215484D01*
X107175463Y-83226752D01*
X107176699Y-83237955D01*
X107185247Y-83240764D01*
X107188056Y-83235268D01*
X107193674Y-83235268D01*
X107200512Y-83246381D01*
X107179630Y-83257616D01*
X107157159Y-83271660D01*
X107145924Y-83277278D01*
X107133313Y-83273453D01*
X107145924Y-83260425D01*
X107154351Y-83257616D01*
X107171081Y-83237955D01*
X107141650Y-83250533D01*
X107112341Y-83265921D01*
X107092679Y-83271538D01*
X107084253Y-83278621D01*
X107049204Y-83296939D01*
X107014277Y-83310861D01*
X107018429Y-83316357D01*
X107029665Y-83315013D01*
X107042365Y-83308053D01*
X107067400Y-83299626D01*
X107092679Y-83291200D01*
X107114490Y-83284893D01*
X107131880Y-83288391D01*
X107109410Y-83309396D01*
X107081322Y-83321974D01*
X107073018Y-83327592D01*
X107012690Y-83361175D01*
X106932578Y-83397568D01*
X106875139Y-83413977D01*
X106848436Y-83414420D01*
X106840132Y-83413077D01*
X106848436Y-83421503D01*
X106855397Y-83428464D01*
X106845750Y-83431273D01*
X106823157Y-83419916D01*
X106817540Y-83414420D01*
X106820348Y-83422847D01*
X106817540Y-83432739D01*
X106778217Y-83434082D01*
X106733398Y-83431273D01*
X106764295Y-83425655D01*
X106798000Y-83420160D01*
X106816196Y-83410390D01*
X106834515Y-83400498D01*
X106838667Y-83397690D01*
X106851245Y-83392072D01*
X106854206Y-83384198D01*
X106838545Y-83380837D01*
X106744633Y-83397690D01*
X106688579Y-83404773D01*
X106632526Y-83414542D01*
X106603647Y-83414172D01*
X106587585Y-83397690D01*
X106576350Y-83378028D01*
X106556688Y-83396346D01*
X106540484Y-83409436D01*
X106532875Y-83408925D01*
X106528722Y-83378028D01*
X106528722Y-83372787D01*
X106864677Y-83372787D01*
X106865778Y-83382180D01*
X106883974Y-83390607D01*
X106899361Y-83382180D01*
X106911939Y-83373754D01*
X106925983Y-83366793D01*
X106938562Y-83359832D01*
X106949797Y-83354214D01*
X106951140Y-83344445D01*
X106910596Y-83357023D01*
X106893743Y-83361297D01*
X106872739Y-83366793D01*
X106864677Y-83372787D01*
X106528722Y-83372787D01*
X106528722Y-83355680D01*
X106511870Y-83347254D01*
X106478286Y-83342979D01*
X106461434Y-83340293D01*
X106469860Y-83316357D01*
X106480604Y-83291491D01*
X106489521Y-83237955D01*
X106503443Y-83188984D01*
X106530066Y-83146974D01*
X106551071Y-83109117D01*
X106563746Y-83082300D01*
X106573541Y-83089577D01*
X106590272Y-83095195D01*
X106604438Y-83099469D01*
X106628251Y-83103621D01*
X106652065Y-83107773D01*
X106661835Y-83111926D01*
X106688457Y-83107773D01*
X106719354Y-83098004D01*
X106756785Y-83084759D01*
X106741702Y-83095195D01*
X106722163Y-83106430D01*
X106738893Y-83103621D01*
X106803496Y-83078464D01*
X106842819Y-83061612D01*
X106837201Y-83070038D01*
X106811922Y-83083960D01*
X106803618Y-83089577D01*
X106813387Y-83091043D01*
X106830118Y-83085425D01*
X106842819Y-83078464D01*
X106856863Y-83072847D01*
X106887637Y-83064420D01*
X106971901Y-83025219D01*
X106985945Y-83008367D01*
X106997058Y-82997254D01*
X107012445Y-82993101D01*
X107023803Y-82990293D01*
X107054699Y-82969288D01*
X107091214Y-82944009D01*
X107115027Y-82932651D01*
X107123454Y-82927156D01*
X107117836Y-82941200D01*
X107115027Y-82946817D01*
X107129071Y-82938391D01*
X107131880Y-82924347D01*
X107140307Y-82915921D01*
X107158503Y-82906151D01*
X107187934Y-82882337D01*
X107244110Y-82834588D01*
X107282569Y-82782998D01*
X107294668Y-82728098D01*
X107285137Y-82696035D01*
X107249727Y-82655314D01*
X107207595Y-82632965D01*
X107165586Y-82618921D01*
X107131313Y-82630658D01*
X107073018Y-82680348D01*
X107033695Y-82719549D01*
X106994494Y-82722358D01*
X106952618Y-82719472D01*
X106890568Y-82702697D01*
X106803494Y-82666896D01*
X106772721Y-82644078D01*
X106742357Y-82604305D01*
X106736207Y-82588147D01*
X106730418Y-82554835D01*
X106713859Y-82529528D01*
X106682463Y-82485451D01*
X106674535Y-82456988D01*
X106686664Y-82413107D01*
X106724972Y-82378831D01*
X106754889Y-82359718D01*
X106773942Y-82338531D01*
X106806182Y-82295177D01*
X106918290Y-82161332D01*
X106987789Y-82079575D01*
X107052623Y-81988164D01*
X107119790Y-81896085D01*
X107161800Y-81868241D01*
X107206618Y-81854319D01*
X107241667Y-81865554D01*
X107265603Y-81890589D01*
X107285143Y-81901824D01*
X107565167Y-81830750D01*
X107603025Y-81829406D01*
X107661887Y-81832093D01*
G37*
G36*
X106640341Y-83088722D02*
G01*
X106630572Y-83097027D01*
X106633381Y-83085792D01*
X106641807Y-83077487D01*
X106640341Y-83088722D01*
G37*
D11*
X76604600Y-75477142D02*
X76652219Y-75334285D01*
X76652219Y-75334285D02*
X76652219Y-75096190D01*
X76652219Y-75096190D02*
X76604600Y-75000952D01*
X76604600Y-75000952D02*
X76556980Y-74953333D01*
X76556980Y-74953333D02*
X76461742Y-74905714D01*
X76461742Y-74905714D02*
X76366504Y-74905714D01*
X76366504Y-74905714D02*
X76271266Y-74953333D01*
X76271266Y-74953333D02*
X76223647Y-75000952D01*
X76223647Y-75000952D02*
X76176028Y-75096190D01*
X76176028Y-75096190D02*
X76128409Y-75286666D01*
X76128409Y-75286666D02*
X76080790Y-75381904D01*
X76080790Y-75381904D02*
X76033171Y-75429523D01*
X76033171Y-75429523D02*
X75937933Y-75477142D01*
X75937933Y-75477142D02*
X75842695Y-75477142D01*
X75842695Y-75477142D02*
X75747457Y-75429523D01*
X75747457Y-75429523D02*
X75699838Y-75381904D01*
X75699838Y-75381904D02*
X75652219Y-75286666D01*
X75652219Y-75286666D02*
X75652219Y-75048571D01*
X75652219Y-75048571D02*
X75699838Y-74905714D01*
X76128409Y-74477142D02*
X76128409Y-74143809D01*
X76652219Y-74000952D02*
X76652219Y-74477142D01*
X76652219Y-74477142D02*
X75652219Y-74477142D01*
X75652219Y-74477142D02*
X75652219Y-74000952D01*
X76652219Y-73000952D02*
X76176028Y-73334285D01*
X76652219Y-73572380D02*
X75652219Y-73572380D01*
X75652219Y-73572380D02*
X75652219Y-73191428D01*
X75652219Y-73191428D02*
X75699838Y-73096190D01*
X75699838Y-73096190D02*
X75747457Y-73048571D01*
X75747457Y-73048571D02*
X75842695Y-73000952D01*
X75842695Y-73000952D02*
X75985552Y-73000952D01*
X75985552Y-73000952D02*
X76080790Y-73048571D01*
X76080790Y-73048571D02*
X76128409Y-73096190D01*
X76128409Y-73096190D02*
X76176028Y-73191428D01*
X76176028Y-73191428D02*
X76176028Y-73572380D01*
X75652219Y-72715237D02*
X76652219Y-72381904D01*
X76652219Y-72381904D02*
X75652219Y-72048571D01*
X76128409Y-71715237D02*
X76128409Y-71381904D01*
X76652219Y-71239047D02*
X76652219Y-71715237D01*
X76652219Y-71715237D02*
X75652219Y-71715237D01*
X75652219Y-71715237D02*
X75652219Y-71239047D01*
X76652219Y-70239047D02*
X76176028Y-70572380D01*
X76652219Y-70810475D02*
X75652219Y-70810475D01*
X75652219Y-70810475D02*
X75652219Y-70429523D01*
X75652219Y-70429523D02*
X75699838Y-70334285D01*
X75699838Y-70334285D02*
X75747457Y-70286666D01*
X75747457Y-70286666D02*
X75842695Y-70239047D01*
X75842695Y-70239047D02*
X75985552Y-70239047D01*
X75985552Y-70239047D02*
X76080790Y-70286666D01*
X76080790Y-70286666D02*
X76128409Y-70334285D01*
X76128409Y-70334285D02*
X76176028Y-70429523D01*
X76176028Y-70429523D02*
X76176028Y-70810475D01*
X76652219Y-68572380D02*
X76652219Y-69048570D01*
X76652219Y-69048570D02*
X75652219Y-69048570D01*
X76128409Y-68239046D02*
X76128409Y-67905713D01*
X76652219Y-67762856D02*
X76652219Y-68239046D01*
X76652219Y-68239046D02*
X75652219Y-68239046D01*
X75652219Y-68239046D02*
X75652219Y-67762856D01*
X76652219Y-67334284D02*
X75652219Y-67334284D01*
X75652219Y-67334284D02*
X75652219Y-67096189D01*
X75652219Y-67096189D02*
X75699838Y-66953332D01*
X75699838Y-66953332D02*
X75795076Y-66858094D01*
X75795076Y-66858094D02*
X75890314Y-66810475D01*
X75890314Y-66810475D02*
X76080790Y-66762856D01*
X76080790Y-66762856D02*
X76223647Y-66762856D01*
X76223647Y-66762856D02*
X76414123Y-66810475D01*
X76414123Y-66810475D02*
X76509361Y-66858094D01*
X76509361Y-66858094D02*
X76604600Y-66953332D01*
X76604600Y-66953332D02*
X76652219Y-67096189D01*
X76652219Y-67096189D02*
X76652219Y-67334284D01*
D12*
G36*
X75188983Y-78097006D02*
G01*
X74717655Y-78495610D01*
X73985659Y-78495610D01*
X73680112Y-78097006D01*
X75188983Y-78097006D01*
G37*
G36*
X73647872Y-79760849D02*
G01*
X73521659Y-80368647D01*
X73051614Y-80761207D01*
X73280042Y-79662847D01*
X73456263Y-79515568D01*
X73647872Y-79760849D01*
G37*
G36*
X73374198Y-79209654D02*
G01*
X73590352Y-78169912D01*
X73895717Y-78568700D01*
X73783243Y-79109820D01*
X73487954Y-79363161D01*
X73374198Y-79209654D01*
G37*
G36*
X74934360Y-79663763D02*
G01*
X74704283Y-80770000D01*
X74398002Y-80374692D01*
X74525131Y-79762681D01*
X74819321Y-79515568D01*
X74934360Y-79663763D01*
G37*
G36*
X74660686Y-79111102D02*
G01*
X74772610Y-78572363D01*
X75244121Y-78173576D01*
X75028515Y-79210204D01*
X74851012Y-79363161D01*
X74660686Y-79111102D01*
G37*
G36*
X74612692Y-79234200D02*
G01*
X74765466Y-79433503D01*
X74529894Y-79632805D01*
X73700811Y-79632805D01*
X73548037Y-79433503D01*
X73783610Y-79234200D01*
X74612692Y-79234200D01*
G37*
G36*
X76938189Y-80301786D02*
G01*
X76702617Y-80500355D01*
X76549660Y-80301786D01*
X76661584Y-79763597D01*
X76955958Y-79515568D01*
X77070813Y-79664495D01*
X76938189Y-80301786D01*
G37*
G36*
X75649503Y-80770000D02*
G01*
X75496729Y-80570697D01*
X75732301Y-80371395D01*
X76464297Y-80371395D01*
X76617071Y-80570697D01*
X76381499Y-80770000D01*
X75649503Y-80770000D01*
G37*
G36*
X77165335Y-79209837D02*
G01*
X76987648Y-79363161D01*
X76797505Y-79110186D01*
X76925000Y-78496709D01*
X77397244Y-78094075D01*
X77165335Y-79209837D01*
G37*
G36*
X75742010Y-78097189D02*
G01*
X76047008Y-78498724D01*
X75919696Y-79110736D01*
X75624590Y-79363161D01*
X75510651Y-79210204D01*
X75742010Y-78097189D01*
G37*
G36*
X75284787Y-80296474D02*
G01*
X75437744Y-80495043D01*
X75673133Y-80296474D01*
X75785058Y-79758101D01*
X75593999Y-79510073D01*
X75417411Y-79658817D01*
X75284787Y-80296474D01*
G37*
G36*
X78383313Y-80591946D02*
G01*
X78147741Y-80790516D01*
X77994784Y-80591946D01*
X78166975Y-79763597D01*
X78461349Y-79515568D01*
X78576204Y-79664495D01*
X78383313Y-80591946D01*
G37*
G36*
X78670726Y-79209288D02*
G01*
X78493039Y-79363161D01*
X78303079Y-79109087D01*
X78367010Y-78801341D01*
X78602948Y-78601123D01*
X78755539Y-78801341D01*
X78670726Y-79209288D01*
G37*
G36*
X79581874Y-78294476D02*
G01*
X79341905Y-78495610D01*
X77904109Y-78495610D01*
X77751884Y-78294476D01*
X77987090Y-78097006D01*
X79424887Y-78097006D01*
X79581874Y-78294476D01*
G37*
G36*
X81438425Y-79210387D02*
G01*
X81260921Y-79363161D01*
X81070595Y-79111102D01*
X81182519Y-78572730D01*
X81417908Y-78374160D01*
X81571049Y-78572730D01*
X81438425Y-79210387D01*
G37*
G36*
X81363686Y-78294476D02*
G01*
X81127565Y-78495610D01*
X80395569Y-78495610D01*
X80243344Y-78294476D01*
X80478550Y-78097006D01*
X81210546Y-78097006D01*
X81363686Y-78294476D01*
G37*
G36*
X81211462Y-80301786D02*
G01*
X80975890Y-80500355D01*
X80822933Y-80301786D01*
X80934857Y-79763597D01*
X81229231Y-79515568D01*
X81344086Y-79664495D01*
X81211462Y-80301786D01*
G37*
G36*
X80192969Y-79111102D02*
G01*
X79897863Y-79363161D01*
X79783924Y-79210387D01*
X79916547Y-78572730D01*
X80151937Y-78374160D01*
X80304894Y-78572730D01*
X80192969Y-79111102D01*
G37*
G36*
X79922776Y-80770000D02*
G01*
X79770002Y-80570697D01*
X80005574Y-80371395D01*
X80737570Y-80371395D01*
X80890344Y-80570697D01*
X80654771Y-80770000D01*
X79922776Y-80770000D01*
G37*
G36*
X79558060Y-80296474D02*
G01*
X79711017Y-80495043D01*
X79946406Y-80296474D01*
X80058330Y-79758101D01*
X79867271Y-79510073D01*
X79690684Y-79658817D01*
X79558060Y-80296474D01*
G37*
G36*
X82059412Y-80770000D02*
G01*
X81906638Y-80570697D01*
X82142210Y-80371395D01*
X82945098Y-80371395D01*
X83250829Y-80770000D01*
X82059412Y-80770000D01*
G37*
G36*
X83806603Y-78097006D02*
G01*
X83335093Y-78495610D01*
X82532205Y-78495610D01*
X82379981Y-78294476D01*
X82615187Y-78097006D01*
X83806603Y-78097006D01*
G37*
G36*
X82329972Y-79109087D02*
G01*
X82034866Y-79361146D01*
X81920926Y-79208372D01*
X82053550Y-78570715D01*
X82288939Y-78372145D01*
X82441896Y-78570715D01*
X82329972Y-79109087D01*
G37*
G36*
X81693597Y-80301786D02*
G01*
X81846554Y-80500355D01*
X82081944Y-80301786D01*
X82193868Y-79763414D01*
X82002809Y-79515385D01*
X81826221Y-79664129D01*
X81693597Y-80301786D01*
G37*
G36*
X85872165Y-78097006D02*
G01*
X85400837Y-78495610D01*
X84668842Y-78495610D01*
X84363294Y-78097006D01*
X85872165Y-78097006D01*
G37*
G36*
X84331054Y-79760849D02*
G01*
X84204841Y-80368647D01*
X83734796Y-80761207D01*
X83963224Y-79662847D01*
X84139445Y-79515568D01*
X84331054Y-79760849D01*
G37*
G36*
X84057380Y-79209654D02*
G01*
X84273535Y-78169912D01*
X84578899Y-78568700D01*
X84466425Y-79109820D01*
X84171136Y-79363161D01*
X84057380Y-79209654D01*
G37*
G36*
X85617542Y-79663763D02*
G01*
X85387465Y-80770000D01*
X85081185Y-80374692D01*
X85208313Y-79762681D01*
X85502504Y-79515568D01*
X85617542Y-79663763D01*
G37*
G36*
X85343868Y-79111102D02*
G01*
X85455792Y-78572363D01*
X85927303Y-78173576D01*
X85711698Y-79210204D01*
X85534194Y-79363161D01*
X85343868Y-79111102D01*
G37*
G36*
X85295874Y-79234200D02*
G01*
X85448648Y-79433503D01*
X85213076Y-79632805D01*
X84383993Y-79632805D01*
X84231220Y-79433503D01*
X84466792Y-79234200D01*
X85295874Y-79234200D01*
G37*
G36*
X88008802Y-78097006D02*
G01*
X87537474Y-78495610D01*
X86805478Y-78495610D01*
X86499930Y-78097006D01*
X88008802Y-78097006D01*
G37*
G36*
X86467690Y-79760849D02*
G01*
X86341478Y-80368647D01*
X85871432Y-80761207D01*
X86099860Y-79662847D01*
X86276082Y-79515568D01*
X86467690Y-79760849D01*
G37*
G36*
X86194016Y-79209654D02*
G01*
X86410171Y-78169912D01*
X86715536Y-78568700D01*
X86603062Y-79109820D01*
X86307772Y-79363161D01*
X86194016Y-79209654D01*
G37*
G36*
X87754178Y-79663763D02*
G01*
X87524102Y-80770000D01*
X87217821Y-80374692D01*
X87344949Y-79762681D01*
X87639140Y-79515568D01*
X87754178Y-79663763D01*
G37*
G36*
X87480504Y-79111102D02*
G01*
X87592429Y-78572363D01*
X88063939Y-78173576D01*
X87848334Y-79210204D01*
X87670830Y-79363161D01*
X87480504Y-79111102D01*
G37*
G36*
X86927661Y-78787969D02*
G01*
X87166896Y-78589399D01*
X87319670Y-78787969D01*
X87157005Y-79571072D01*
X86920700Y-79773489D01*
X86764995Y-79571072D01*
X86927661Y-78787969D01*
G37*
G36*
X91166129Y-78294476D02*
G01*
X90929824Y-78495610D01*
X89932763Y-78495610D01*
X89780539Y-78294476D01*
X90015745Y-78097006D01*
X91012805Y-78097006D01*
X91166129Y-78294476D01*
G37*
G36*
X90748657Y-80301786D02*
G01*
X90513084Y-80500355D01*
X90360127Y-80301786D01*
X90472052Y-79763414D01*
X90766425Y-79515385D01*
X90881281Y-79664129D01*
X90748657Y-80301786D01*
G37*
G36*
X89730530Y-79109087D02*
G01*
X89435424Y-79361146D01*
X89321485Y-79208372D01*
X89454109Y-78570715D01*
X89689498Y-78372145D01*
X89842455Y-78570715D01*
X89730530Y-79109087D01*
G37*
G36*
X89191059Y-80770000D02*
G01*
X89038285Y-80570697D01*
X89273857Y-80371395D01*
X90274765Y-80371395D01*
X90427538Y-80570697D01*
X90191966Y-80770000D01*
X89191059Y-80770000D01*
G37*
G36*
X90559796Y-79234200D02*
G01*
X90712570Y-79433503D01*
X90476998Y-79632805D01*
X89647915Y-79632805D01*
X89495141Y-79433503D01*
X89730714Y-79234200D01*
X90559796Y-79234200D01*
G37*
G36*
X93343798Y-78097006D02*
G01*
X92872287Y-78495610D01*
X92069400Y-78495610D01*
X91763852Y-78097006D01*
X93343798Y-78097006D01*
G37*
G36*
X92788023Y-80770000D02*
G01*
X91208078Y-80770000D01*
X91679405Y-80371395D01*
X92482292Y-80371395D01*
X92788023Y-80770000D01*
G37*
G36*
X91731246Y-79762681D02*
G01*
X91619871Y-80298489D01*
X91148726Y-80697093D01*
X91363416Y-79664129D01*
X91540004Y-79515568D01*
X91731246Y-79762681D01*
G37*
G36*
X91457938Y-79209654D02*
G01*
X91674093Y-78169912D01*
X91979457Y-78568700D01*
X91866984Y-79109820D01*
X91571694Y-79363161D01*
X91457938Y-79209654D01*
G37*
G36*
X92696432Y-79234200D02*
G01*
X92849206Y-79433503D01*
X92613634Y-79632805D01*
X91784552Y-79632805D01*
X91631778Y-79433503D01*
X91867350Y-79234200D01*
X92696432Y-79234200D01*
G37*
G36*
X93868248Y-79760849D02*
G01*
X93742036Y-80368647D01*
X93271991Y-80761207D01*
X93500419Y-79662847D01*
X93676640Y-79515568D01*
X93868248Y-79760849D01*
G37*
G36*
X93594208Y-79211486D02*
G01*
X93823552Y-78108546D01*
X94128184Y-78510997D01*
X94002704Y-79114216D01*
X93708330Y-79363161D01*
X93594208Y-79211486D01*
G37*
G36*
X95154737Y-79663763D02*
G01*
X94924660Y-80770000D01*
X94618379Y-80374692D01*
X94745508Y-79762681D01*
X95039698Y-79515568D01*
X95154737Y-79663763D01*
G37*
G36*
X94881062Y-79110736D02*
G01*
X95008374Y-78498724D01*
X95480251Y-78097189D01*
X95248892Y-79210204D01*
X95071389Y-79363161D01*
X94881062Y-79110736D01*
G37*
G36*
X93930347Y-78097189D02*
G01*
X94497479Y-78100486D01*
X94888573Y-78643988D01*
X94829222Y-78929569D01*
X94552800Y-78929569D01*
X93930347Y-78097189D01*
G37*
G36*
X97576038Y-78294476D02*
G01*
X97339733Y-78495610D01*
X96342673Y-78495610D01*
X96190448Y-78294476D01*
X96425654Y-78097006D01*
X97422715Y-78097006D01*
X97576038Y-78294476D01*
G37*
G36*
X97158566Y-80301786D02*
G01*
X96922994Y-80500355D01*
X96770037Y-80301786D01*
X96881961Y-79763414D01*
X97176335Y-79515385D01*
X97291190Y-79664129D01*
X97158566Y-80301786D01*
G37*
G36*
X96140440Y-79109087D02*
G01*
X95845333Y-79361146D01*
X95731394Y-79208372D01*
X95864018Y-78570715D01*
X96099407Y-78372145D01*
X96252364Y-78570715D01*
X96140440Y-79109087D01*
G37*
G36*
X95600968Y-80770000D02*
G01*
X95448194Y-80570697D01*
X95683767Y-80371395D01*
X96684674Y-80371395D01*
X96837448Y-80570697D01*
X96601875Y-80770000D01*
X95600968Y-80770000D01*
G37*
G36*
X96969705Y-79234200D02*
G01*
X97122479Y-79433503D01*
X96886907Y-79632805D01*
X96057825Y-79632805D01*
X95905051Y-79433503D01*
X96140623Y-79234200D01*
X96969705Y-79234200D01*
G37*
G36*
X99522165Y-79210387D02*
G01*
X99344662Y-79363161D01*
X99154335Y-79111102D01*
X99266260Y-78572730D01*
X99501649Y-78374160D01*
X99654789Y-78572730D01*
X99522165Y-79210387D01*
G37*
G36*
X99447427Y-78294476D02*
G01*
X99211305Y-78495610D01*
X98479309Y-78495610D01*
X98327085Y-78294476D01*
X98562291Y-78097006D01*
X99294287Y-78097006D01*
X99447427Y-78294476D01*
G37*
G36*
X99295202Y-80301786D02*
G01*
X99059630Y-80500355D01*
X98906673Y-80301786D01*
X99018597Y-79763597D01*
X99312971Y-79515568D01*
X99427826Y-79664495D01*
X99295202Y-80301786D01*
G37*
G36*
X98276710Y-79111102D02*
G01*
X97981603Y-79363161D01*
X97867664Y-79210387D01*
X98000288Y-78572730D01*
X98235677Y-78374160D01*
X98388634Y-78572730D01*
X98276710Y-79111102D01*
G37*
G36*
X98006516Y-80770000D02*
G01*
X97853742Y-80570697D01*
X98089314Y-80371395D01*
X98821310Y-80371395D01*
X98974084Y-80570697D01*
X98738512Y-80770000D01*
X98006516Y-80770000D01*
G37*
G36*
X97641800Y-80296474D02*
G01*
X97794758Y-80495043D01*
X98030147Y-80296474D01*
X98142071Y-79758101D01*
X97951012Y-79510073D01*
X97774424Y-79658817D01*
X97641800Y-80296474D01*
G37*
G36*
X100402722Y-80006313D02*
G01*
X100460790Y-79726594D01*
X100740876Y-79727876D01*
X101329623Y-80487533D01*
X101270822Y-80770000D01*
X100990919Y-80770000D01*
X100402722Y-80006313D01*
G37*
G36*
X100277791Y-79762681D02*
G01*
X100150663Y-80374692D01*
X99680068Y-80770000D01*
X99910145Y-79663763D01*
X100086549Y-79515568D01*
X100277791Y-79762681D01*
G37*
G36*
X100004484Y-79209654D02*
G01*
X100220639Y-78169912D01*
X100526003Y-78568700D01*
X100413529Y-79109820D01*
X100118240Y-79363161D01*
X100004484Y-79209654D01*
G37*
G36*
X101242978Y-79234200D02*
G01*
X101395752Y-79433503D01*
X101160180Y-79632805D01*
X100331097Y-79632805D01*
X100178323Y-79433503D01*
X100413896Y-79234200D01*
X101242978Y-79234200D01*
G37*
G36*
X101658802Y-79210387D02*
G01*
X101481298Y-79363161D01*
X101290972Y-79111102D01*
X101402896Y-78572730D01*
X101638285Y-78374160D01*
X101791425Y-78572730D01*
X101658802Y-79210387D01*
G37*
G36*
X101584063Y-78294476D02*
G01*
X101347941Y-78495610D01*
X100615946Y-78495610D01*
X100310398Y-78097006D01*
X101430923Y-78097006D01*
X101584063Y-78294476D01*
G37*
D11*
X88352219Y-74072380D02*
X88352219Y-73500952D01*
X89352219Y-73786666D02*
X88352219Y-73786666D01*
X89066504Y-73215237D02*
X89066504Y-72739047D01*
X89352219Y-73310475D02*
X88352219Y-72977142D01*
X88352219Y-72977142D02*
X89352219Y-72643809D01*
X88399838Y-71786666D02*
X88352219Y-71881904D01*
X88352219Y-71881904D02*
X88352219Y-72024761D01*
X88352219Y-72024761D02*
X88399838Y-72167618D01*
X88399838Y-72167618D02*
X88495076Y-72262856D01*
X88495076Y-72262856D02*
X88590314Y-72310475D01*
X88590314Y-72310475D02*
X88780790Y-72358094D01*
X88780790Y-72358094D02*
X88923647Y-72358094D01*
X88923647Y-72358094D02*
X89114123Y-72310475D01*
X89114123Y-72310475D02*
X89209361Y-72262856D01*
X89209361Y-72262856D02*
X89304600Y-72167618D01*
X89304600Y-72167618D02*
X89352219Y-72024761D01*
X89352219Y-72024761D02*
X89352219Y-71929523D01*
X89352219Y-71929523D02*
X89304600Y-71786666D01*
X89304600Y-71786666D02*
X89256980Y-71739047D01*
X89256980Y-71739047D02*
X88923647Y-71739047D01*
X88923647Y-71739047D02*
X88923647Y-71929523D01*
X89352219Y-70072380D02*
X89352219Y-70548570D01*
X89352219Y-70548570D02*
X88352219Y-70548570D01*
X88828409Y-69739046D02*
X88828409Y-69405713D01*
X89352219Y-69262856D02*
X89352219Y-69739046D01*
X89352219Y-69739046D02*
X88352219Y-69739046D01*
X88352219Y-69739046D02*
X88352219Y-69262856D01*
X89352219Y-68834284D02*
X88352219Y-68834284D01*
X88352219Y-68834284D02*
X88352219Y-68596189D01*
X88352219Y-68596189D02*
X88399838Y-68453332D01*
X88399838Y-68453332D02*
X88495076Y-68358094D01*
X88495076Y-68358094D02*
X88590314Y-68310475D01*
X88590314Y-68310475D02*
X88780790Y-68262856D01*
X88780790Y-68262856D02*
X88923647Y-68262856D01*
X88923647Y-68262856D02*
X89114123Y-68310475D01*
X89114123Y-68310475D02*
X89209361Y-68358094D01*
X89209361Y-68358094D02*
X89304600Y-68453332D01*
X89304600Y-68453332D02*
X89352219Y-68596189D01*
X89352219Y-68596189D02*
X89352219Y-68834284D01*
D13*
X38324321Y-70966192D02*
X38348130Y-70990001D01*
X38348130Y-70990001D02*
X38371940Y-71037620D01*
X38371940Y-71037620D02*
X38371940Y-71156668D01*
X38371940Y-71156668D02*
X38348130Y-71204287D01*
X38348130Y-71204287D02*
X38324321Y-71228096D01*
X38324321Y-71228096D02*
X38276702Y-71251906D01*
X38276702Y-71251906D02*
X38229083Y-71251906D01*
X38229083Y-71251906D02*
X38157654Y-71228096D01*
X38157654Y-71228096D02*
X37871940Y-70942382D01*
X37871940Y-70942382D02*
X37871940Y-71251906D01*
X37824321Y-71347144D02*
X37824321Y-71728096D01*
X37871940Y-71847143D02*
X38371940Y-71847143D01*
X38371940Y-71847143D02*
X38371940Y-72037619D01*
X38371940Y-72037619D02*
X38348130Y-72085238D01*
X38348130Y-72085238D02*
X38324321Y-72109048D01*
X38324321Y-72109048D02*
X38276702Y-72132857D01*
X38276702Y-72132857D02*
X38205273Y-72132857D01*
X38205273Y-72132857D02*
X38157654Y-72109048D01*
X38157654Y-72109048D02*
X38133845Y-72085238D01*
X38133845Y-72085238D02*
X38110035Y-72037619D01*
X38110035Y-72037619D02*
X38110035Y-71847143D01*
X37871940Y-72347143D02*
X38371940Y-72347143D01*
X37871940Y-72585238D02*
X38371940Y-72585238D01*
X38371940Y-72585238D02*
X37871940Y-72870952D01*
X37871940Y-72870952D02*
X38371940Y-72870952D01*
X37824321Y-72990001D02*
X37824321Y-73370953D01*
X37919559Y-73775714D02*
X37895750Y-73751905D01*
X37895750Y-73751905D02*
X37871940Y-73680476D01*
X37871940Y-73680476D02*
X37871940Y-73632857D01*
X37871940Y-73632857D02*
X37895750Y-73561429D01*
X37895750Y-73561429D02*
X37943369Y-73513810D01*
X37943369Y-73513810D02*
X37990988Y-73490000D01*
X37990988Y-73490000D02*
X38086226Y-73466191D01*
X38086226Y-73466191D02*
X38157654Y-73466191D01*
X38157654Y-73466191D02*
X38252892Y-73490000D01*
X38252892Y-73490000D02*
X38300511Y-73513810D01*
X38300511Y-73513810D02*
X38348130Y-73561429D01*
X38348130Y-73561429D02*
X38371940Y-73632857D01*
X38371940Y-73632857D02*
X38371940Y-73680476D01*
X38371940Y-73680476D02*
X38348130Y-73751905D01*
X38348130Y-73751905D02*
X38324321Y-73775714D01*
X37871940Y-74061429D02*
X37895750Y-74013810D01*
X37895750Y-74013810D02*
X37919559Y-73990000D01*
X37919559Y-73990000D02*
X37967178Y-73966191D01*
X37967178Y-73966191D02*
X38110035Y-73966191D01*
X38110035Y-73966191D02*
X38157654Y-73990000D01*
X38157654Y-73990000D02*
X38181464Y-74013810D01*
X38181464Y-74013810D02*
X38205273Y-74061429D01*
X38205273Y-74061429D02*
X38205273Y-74132857D01*
X38205273Y-74132857D02*
X38181464Y-74180476D01*
X38181464Y-74180476D02*
X38157654Y-74204286D01*
X38157654Y-74204286D02*
X38110035Y-74228095D01*
X38110035Y-74228095D02*
X37967178Y-74228095D01*
X37967178Y-74228095D02*
X37919559Y-74204286D01*
X37919559Y-74204286D02*
X37895750Y-74180476D01*
X37895750Y-74180476D02*
X37871940Y-74132857D01*
X37871940Y-74132857D02*
X37871940Y-74061429D01*
X38205273Y-74442381D02*
X37871940Y-74442381D01*
X38157654Y-74442381D02*
X38181464Y-74466191D01*
X38181464Y-74466191D02*
X38205273Y-74513810D01*
X38205273Y-74513810D02*
X38205273Y-74585238D01*
X38205273Y-74585238D02*
X38181464Y-74632857D01*
X38181464Y-74632857D02*
X38133845Y-74656667D01*
X38133845Y-74656667D02*
X37871940Y-74656667D01*
X38205273Y-74894762D02*
X37871940Y-74894762D01*
X38157654Y-74894762D02*
X38181464Y-74918572D01*
X38181464Y-74918572D02*
X38205273Y-74966191D01*
X38205273Y-74966191D02*
X38205273Y-75037619D01*
X38205273Y-75037619D02*
X38181464Y-75085238D01*
X38181464Y-75085238D02*
X38133845Y-75109048D01*
X38133845Y-75109048D02*
X37871940Y-75109048D01*
X37895750Y-75537619D02*
X37871940Y-75490000D01*
X37871940Y-75490000D02*
X37871940Y-75394762D01*
X37871940Y-75394762D02*
X37895750Y-75347143D01*
X37895750Y-75347143D02*
X37943369Y-75323334D01*
X37943369Y-75323334D02*
X38133845Y-75323334D01*
X38133845Y-75323334D02*
X38181464Y-75347143D01*
X38181464Y-75347143D02*
X38205273Y-75394762D01*
X38205273Y-75394762D02*
X38205273Y-75490000D01*
X38205273Y-75490000D02*
X38181464Y-75537619D01*
X38181464Y-75537619D02*
X38133845Y-75561429D01*
X38133845Y-75561429D02*
X38086226Y-75561429D01*
X38086226Y-75561429D02*
X38038607Y-75323334D01*
X37895750Y-75990000D02*
X37871940Y-75942381D01*
X37871940Y-75942381D02*
X37871940Y-75847143D01*
X37871940Y-75847143D02*
X37895750Y-75799524D01*
X37895750Y-75799524D02*
X37919559Y-75775714D01*
X37919559Y-75775714D02*
X37967178Y-75751905D01*
X37967178Y-75751905D02*
X38110035Y-75751905D01*
X38110035Y-75751905D02*
X38157654Y-75775714D01*
X38157654Y-75775714D02*
X38181464Y-75799524D01*
X38181464Y-75799524D02*
X38205273Y-75847143D01*
X38205273Y-75847143D02*
X38205273Y-75942381D01*
X38205273Y-75942381D02*
X38181464Y-75990000D01*
X38205273Y-76132857D02*
X38205273Y-76323333D01*
X38371940Y-76204285D02*
X37943369Y-76204285D01*
X37943369Y-76204285D02*
X37895750Y-76228095D01*
X37895750Y-76228095D02*
X37871940Y-76275714D01*
X37871940Y-76275714D02*
X37871940Y-76323333D01*
X37871940Y-76561428D02*
X37895750Y-76513809D01*
X37895750Y-76513809D02*
X37919559Y-76489999D01*
X37919559Y-76489999D02*
X37967178Y-76466190D01*
X37967178Y-76466190D02*
X38110035Y-76466190D01*
X38110035Y-76466190D02*
X38157654Y-76489999D01*
X38157654Y-76489999D02*
X38181464Y-76513809D01*
X38181464Y-76513809D02*
X38205273Y-76561428D01*
X38205273Y-76561428D02*
X38205273Y-76632856D01*
X38205273Y-76632856D02*
X38181464Y-76680475D01*
X38181464Y-76680475D02*
X38157654Y-76704285D01*
X38157654Y-76704285D02*
X38110035Y-76728094D01*
X38110035Y-76728094D02*
X37967178Y-76728094D01*
X37967178Y-76728094D02*
X37919559Y-76704285D01*
X37919559Y-76704285D02*
X37895750Y-76680475D01*
X37895750Y-76680475D02*
X37871940Y-76632856D01*
X37871940Y-76632856D02*
X37871940Y-76561428D01*
X37871940Y-76942380D02*
X38205273Y-76942380D01*
X38110035Y-76942380D02*
X38157654Y-76966190D01*
X38157654Y-76966190D02*
X38181464Y-76989999D01*
X38181464Y-76989999D02*
X38205273Y-77037618D01*
X38205273Y-77037618D02*
X38205273Y-77085237D01*
X37871940Y-77513809D02*
X37871940Y-77228095D01*
X37871940Y-77370952D02*
X38371940Y-77370952D01*
X38371940Y-77370952D02*
X38300511Y-77323333D01*
X38300511Y-77323333D02*
X38252892Y-77275714D01*
X38252892Y-77275714D02*
X38229083Y-77228095D01*
X35331940Y-70759524D02*
X35831940Y-70759524D01*
X35831940Y-70759524D02*
X35831940Y-70950000D01*
X35831940Y-70950000D02*
X35808130Y-70997619D01*
X35808130Y-70997619D02*
X35784321Y-71021429D01*
X35784321Y-71021429D02*
X35736702Y-71045238D01*
X35736702Y-71045238D02*
X35665273Y-71045238D01*
X35665273Y-71045238D02*
X35617654Y-71021429D01*
X35617654Y-71021429D02*
X35593845Y-70997619D01*
X35593845Y-70997619D02*
X35570035Y-70950000D01*
X35570035Y-70950000D02*
X35570035Y-70759524D01*
X35331940Y-71259524D02*
X35831940Y-71259524D01*
X35331940Y-71497619D02*
X35831940Y-71497619D01*
X35831940Y-71497619D02*
X35331940Y-71783333D01*
X35331940Y-71783333D02*
X35831940Y-71783333D01*
X35331940Y-72664286D02*
X35331940Y-72378572D01*
X35331940Y-72521429D02*
X35831940Y-72521429D01*
X35831940Y-72521429D02*
X35760511Y-72473810D01*
X35760511Y-72473810D02*
X35712892Y-72426191D01*
X35712892Y-72426191D02*
X35689083Y-72378572D01*
X35331940Y-75839524D02*
X35831940Y-75839524D01*
X35831940Y-75839524D02*
X35831940Y-76030000D01*
X35831940Y-76030000D02*
X35808130Y-76077619D01*
X35808130Y-76077619D02*
X35784321Y-76101429D01*
X35784321Y-76101429D02*
X35736702Y-76125238D01*
X35736702Y-76125238D02*
X35665273Y-76125238D01*
X35665273Y-76125238D02*
X35617654Y-76101429D01*
X35617654Y-76101429D02*
X35593845Y-76077619D01*
X35593845Y-76077619D02*
X35570035Y-76030000D01*
X35570035Y-76030000D02*
X35570035Y-75839524D01*
X35331940Y-76339524D02*
X35831940Y-76339524D01*
X35331940Y-76577619D02*
X35831940Y-76577619D01*
X35831940Y-76577619D02*
X35331940Y-76863333D01*
X35331940Y-76863333D02*
X35831940Y-76863333D01*
X35784321Y-77458572D02*
X35808130Y-77482381D01*
X35808130Y-77482381D02*
X35831940Y-77530000D01*
X35831940Y-77530000D02*
X35831940Y-77649048D01*
X35831940Y-77649048D02*
X35808130Y-77696667D01*
X35808130Y-77696667D02*
X35784321Y-77720476D01*
X35784321Y-77720476D02*
X35736702Y-77744286D01*
X35736702Y-77744286D02*
X35689083Y-77744286D01*
X35689083Y-77744286D02*
X35617654Y-77720476D01*
X35617654Y-77720476D02*
X35331940Y-77434762D01*
X35331940Y-77434762D02*
X35331940Y-77744286D01*
D14*
X59389523Y-40504619D02*
X60056190Y-40504619D01*
X60341904Y-41552238D02*
X59389523Y-41552238D01*
X59389523Y-41552238D02*
X59389523Y-39552238D01*
X59389523Y-39552238D02*
X60341904Y-39552238D01*
X61103809Y-41457000D02*
X61389523Y-41552238D01*
X61389523Y-41552238D02*
X61865714Y-41552238D01*
X61865714Y-41552238D02*
X62056190Y-41457000D01*
X62056190Y-41457000D02*
X62151428Y-41361761D01*
X62151428Y-41361761D02*
X62246666Y-41171285D01*
X62246666Y-41171285D02*
X62246666Y-40980809D01*
X62246666Y-40980809D02*
X62151428Y-40790333D01*
X62151428Y-40790333D02*
X62056190Y-40695095D01*
X62056190Y-40695095D02*
X61865714Y-40599857D01*
X61865714Y-40599857D02*
X61484761Y-40504619D01*
X61484761Y-40504619D02*
X61294285Y-40409380D01*
X61294285Y-40409380D02*
X61199047Y-40314142D01*
X61199047Y-40314142D02*
X61103809Y-40123666D01*
X61103809Y-40123666D02*
X61103809Y-39933190D01*
X61103809Y-39933190D02*
X61199047Y-39742714D01*
X61199047Y-39742714D02*
X61294285Y-39647476D01*
X61294285Y-39647476D02*
X61484761Y-39552238D01*
X61484761Y-39552238D02*
X61960952Y-39552238D01*
X61960952Y-39552238D02*
X62246666Y-39647476D01*
X63103809Y-41552238D02*
X63103809Y-39552238D01*
X63103809Y-39552238D02*
X63865714Y-39552238D01*
X63865714Y-39552238D02*
X64056190Y-39647476D01*
X64056190Y-39647476D02*
X64151428Y-39742714D01*
X64151428Y-39742714D02*
X64246666Y-39933190D01*
X64246666Y-39933190D02*
X64246666Y-40218904D01*
X64246666Y-40218904D02*
X64151428Y-40409380D01*
X64151428Y-40409380D02*
X64056190Y-40504619D01*
X64056190Y-40504619D02*
X63865714Y-40599857D01*
X63865714Y-40599857D02*
X63103809Y-40599857D01*
X64913333Y-39552238D02*
X66151428Y-39552238D01*
X66151428Y-39552238D02*
X65484761Y-40314142D01*
X65484761Y-40314142D02*
X65770476Y-40314142D01*
X65770476Y-40314142D02*
X65960952Y-40409380D01*
X65960952Y-40409380D02*
X66056190Y-40504619D01*
X66056190Y-40504619D02*
X66151428Y-40695095D01*
X66151428Y-40695095D02*
X66151428Y-41171285D01*
X66151428Y-41171285D02*
X66056190Y-41361761D01*
X66056190Y-41361761D02*
X65960952Y-41457000D01*
X65960952Y-41457000D02*
X65770476Y-41552238D01*
X65770476Y-41552238D02*
X65199047Y-41552238D01*
X65199047Y-41552238D02*
X65008571Y-41457000D01*
X65008571Y-41457000D02*
X64913333Y-41361761D01*
X66913333Y-39742714D02*
X67008571Y-39647476D01*
X67008571Y-39647476D02*
X67199047Y-39552238D01*
X67199047Y-39552238D02*
X67675238Y-39552238D01*
X67675238Y-39552238D02*
X67865714Y-39647476D01*
X67865714Y-39647476D02*
X67960952Y-39742714D01*
X67960952Y-39742714D02*
X68056190Y-39933190D01*
X68056190Y-39933190D02*
X68056190Y-40123666D01*
X68056190Y-40123666D02*
X67960952Y-40409380D01*
X67960952Y-40409380D02*
X66818095Y-41552238D01*
X66818095Y-41552238D02*
X68056190Y-41552238D01*
X68437143Y-41742714D02*
X69960952Y-41742714D01*
X70437143Y-39552238D02*
X70437143Y-41171285D01*
X70437143Y-41171285D02*
X70532381Y-41361761D01*
X70532381Y-41361761D02*
X70627619Y-41457000D01*
X70627619Y-41457000D02*
X70818095Y-41552238D01*
X70818095Y-41552238D02*
X71199048Y-41552238D01*
X71199048Y-41552238D02*
X71389524Y-41457000D01*
X71389524Y-41457000D02*
X71484762Y-41361761D01*
X71484762Y-41361761D02*
X71580000Y-41171285D01*
X71580000Y-41171285D02*
X71580000Y-39552238D01*
X72341905Y-39552238D02*
X72818095Y-41552238D01*
X72818095Y-41552238D02*
X73199048Y-40123666D01*
X73199048Y-40123666D02*
X73580000Y-41552238D01*
X73580000Y-41552238D02*
X74056191Y-39552238D01*
X75484762Y-40504619D02*
X75770476Y-40599857D01*
X75770476Y-40599857D02*
X75865714Y-40695095D01*
X75865714Y-40695095D02*
X75960952Y-40885571D01*
X75960952Y-40885571D02*
X75960952Y-41171285D01*
X75960952Y-41171285D02*
X75865714Y-41361761D01*
X75865714Y-41361761D02*
X75770476Y-41457000D01*
X75770476Y-41457000D02*
X75580000Y-41552238D01*
X75580000Y-41552238D02*
X74818095Y-41552238D01*
X74818095Y-41552238D02*
X74818095Y-39552238D01*
X74818095Y-39552238D02*
X75484762Y-39552238D01*
X75484762Y-39552238D02*
X75675238Y-39647476D01*
X75675238Y-39647476D02*
X75770476Y-39742714D01*
X75770476Y-39742714D02*
X75865714Y-39933190D01*
X75865714Y-39933190D02*
X75865714Y-40123666D01*
X75865714Y-40123666D02*
X75770476Y-40314142D01*
X75770476Y-40314142D02*
X75675238Y-40409380D01*
X75675238Y-40409380D02*
X75484762Y-40504619D01*
X75484762Y-40504619D02*
X74818095Y-40504619D01*
X77865714Y-41552238D02*
X76722857Y-41552238D01*
X77294285Y-41552238D02*
X77294285Y-39552238D01*
X77294285Y-39552238D02*
X77103809Y-39837952D01*
X77103809Y-39837952D02*
X76913333Y-40028428D01*
X76913333Y-40028428D02*
X76722857Y-40123666D01*
D15*
X72779523Y-27397419D02*
X72779523Y-28206942D01*
X72779523Y-28206942D02*
X72827142Y-28302180D01*
X72827142Y-28302180D02*
X72874761Y-28349800D01*
X72874761Y-28349800D02*
X72969999Y-28397419D01*
X72969999Y-28397419D02*
X73160475Y-28397419D01*
X73160475Y-28397419D02*
X73255713Y-28349800D01*
X73255713Y-28349800D02*
X73303332Y-28302180D01*
X73303332Y-28302180D02*
X73350951Y-28206942D01*
X73350951Y-28206942D02*
X73350951Y-27397419D01*
X73731904Y-27397419D02*
X73969999Y-28397419D01*
X73969999Y-28397419D02*
X74160475Y-27683133D01*
X74160475Y-27683133D02*
X74350951Y-28397419D01*
X74350951Y-28397419D02*
X74589047Y-27397419D01*
X75303332Y-27873609D02*
X75446189Y-27921228D01*
X75446189Y-27921228D02*
X75493808Y-27968847D01*
X75493808Y-27968847D02*
X75541427Y-28064085D01*
X75541427Y-28064085D02*
X75541427Y-28206942D01*
X75541427Y-28206942D02*
X75493808Y-28302180D01*
X75493808Y-28302180D02*
X75446189Y-28349800D01*
X75446189Y-28349800D02*
X75350951Y-28397419D01*
X75350951Y-28397419D02*
X74969999Y-28397419D01*
X74969999Y-28397419D02*
X74969999Y-27397419D01*
X74969999Y-27397419D02*
X75303332Y-27397419D01*
X75303332Y-27397419D02*
X75398570Y-27445038D01*
X75398570Y-27445038D02*
X75446189Y-27492657D01*
X75446189Y-27492657D02*
X75493808Y-27587895D01*
X75493808Y-27587895D02*
X75493808Y-27683133D01*
X75493808Y-27683133D02*
X75446189Y-27778371D01*
X75446189Y-27778371D02*
X75398570Y-27825990D01*
X75398570Y-27825990D02*
X75303332Y-27873609D01*
X75303332Y-27873609D02*
X74969999Y-27873609D01*
X76684285Y-28111704D02*
X77160475Y-28111704D01*
X76589047Y-28397419D02*
X76922380Y-27397419D01*
X76922380Y-27397419D02*
X77255713Y-28397419D01*
X77589047Y-27730752D02*
X77589047Y-28397419D01*
X77589047Y-27825990D02*
X77636666Y-27778371D01*
X77636666Y-27778371D02*
X77731904Y-27730752D01*
X77731904Y-27730752D02*
X77874761Y-27730752D01*
X77874761Y-27730752D02*
X77969999Y-27778371D01*
X77969999Y-27778371D02*
X78017618Y-27873609D01*
X78017618Y-27873609D02*
X78017618Y-28397419D01*
X78350952Y-27730752D02*
X78731904Y-27730752D01*
X78493809Y-27397419D02*
X78493809Y-28254561D01*
X78493809Y-28254561D02*
X78541428Y-28349800D01*
X78541428Y-28349800D02*
X78636666Y-28397419D01*
X78636666Y-28397419D02*
X78731904Y-28397419D01*
X79446190Y-28349800D02*
X79350952Y-28397419D01*
X79350952Y-28397419D02*
X79160476Y-28397419D01*
X79160476Y-28397419D02*
X79065238Y-28349800D01*
X79065238Y-28349800D02*
X79017619Y-28254561D01*
X79017619Y-28254561D02*
X79017619Y-27873609D01*
X79017619Y-27873609D02*
X79065238Y-27778371D01*
X79065238Y-27778371D02*
X79160476Y-27730752D01*
X79160476Y-27730752D02*
X79350952Y-27730752D01*
X79350952Y-27730752D02*
X79446190Y-27778371D01*
X79446190Y-27778371D02*
X79493809Y-27873609D01*
X79493809Y-27873609D02*
X79493809Y-27968847D01*
X79493809Y-27968847D02*
X79017619Y-28064085D01*
X79922381Y-27730752D02*
X79922381Y-28397419D01*
X79922381Y-27825990D02*
X79970000Y-27778371D01*
X79970000Y-27778371D02*
X80065238Y-27730752D01*
X80065238Y-27730752D02*
X80208095Y-27730752D01*
X80208095Y-27730752D02*
X80303333Y-27778371D01*
X80303333Y-27778371D02*
X80350952Y-27873609D01*
X80350952Y-27873609D02*
X80350952Y-28397419D01*
X80827143Y-27730752D02*
X80827143Y-28397419D01*
X80827143Y-27825990D02*
X80874762Y-27778371D01*
X80874762Y-27778371D02*
X80970000Y-27730752D01*
X80970000Y-27730752D02*
X81112857Y-27730752D01*
X81112857Y-27730752D02*
X81208095Y-27778371D01*
X81208095Y-27778371D02*
X81255714Y-27873609D01*
X81255714Y-27873609D02*
X81255714Y-28397419D01*
X82160476Y-28397419D02*
X82160476Y-27873609D01*
X82160476Y-27873609D02*
X82112857Y-27778371D01*
X82112857Y-27778371D02*
X82017619Y-27730752D01*
X82017619Y-27730752D02*
X81827143Y-27730752D01*
X81827143Y-27730752D02*
X81731905Y-27778371D01*
X82160476Y-28349800D02*
X82065238Y-28397419D01*
X82065238Y-28397419D02*
X81827143Y-28397419D01*
X81827143Y-28397419D02*
X81731905Y-28349800D01*
X81731905Y-28349800D02*
X81684286Y-28254561D01*
X81684286Y-28254561D02*
X81684286Y-28159323D01*
X81684286Y-28159323D02*
X81731905Y-28064085D01*
X81731905Y-28064085D02*
X81827143Y-28016466D01*
X81827143Y-28016466D02*
X82065238Y-28016466D01*
X82065238Y-28016466D02*
X82160476Y-27968847D01*
X35493609Y-44846190D02*
X35493609Y-44512857D01*
X36017419Y-44370000D02*
X36017419Y-44846190D01*
X36017419Y-44846190D02*
X35017419Y-44846190D01*
X35017419Y-44846190D02*
X35017419Y-44370000D01*
X35969800Y-43989047D02*
X36017419Y-43846190D01*
X36017419Y-43846190D02*
X36017419Y-43608095D01*
X36017419Y-43608095D02*
X35969800Y-43512857D01*
X35969800Y-43512857D02*
X35922180Y-43465238D01*
X35922180Y-43465238D02*
X35826942Y-43417619D01*
X35826942Y-43417619D02*
X35731704Y-43417619D01*
X35731704Y-43417619D02*
X35636466Y-43465238D01*
X35636466Y-43465238D02*
X35588847Y-43512857D01*
X35588847Y-43512857D02*
X35541228Y-43608095D01*
X35541228Y-43608095D02*
X35493609Y-43798571D01*
X35493609Y-43798571D02*
X35445990Y-43893809D01*
X35445990Y-43893809D02*
X35398371Y-43941428D01*
X35398371Y-43941428D02*
X35303133Y-43989047D01*
X35303133Y-43989047D02*
X35207895Y-43989047D01*
X35207895Y-43989047D02*
X35112657Y-43941428D01*
X35112657Y-43941428D02*
X35065038Y-43893809D01*
X35065038Y-43893809D02*
X35017419Y-43798571D01*
X35017419Y-43798571D02*
X35017419Y-43560476D01*
X35017419Y-43560476D02*
X35065038Y-43417619D01*
X36017419Y-42989047D02*
X35017419Y-42989047D01*
X35017419Y-42989047D02*
X35017419Y-42608095D01*
X35017419Y-42608095D02*
X35065038Y-42512857D01*
X35065038Y-42512857D02*
X35112657Y-42465238D01*
X35112657Y-42465238D02*
X35207895Y-42417619D01*
X35207895Y-42417619D02*
X35350752Y-42417619D01*
X35350752Y-42417619D02*
X35445990Y-42465238D01*
X35445990Y-42465238D02*
X35493609Y-42512857D01*
X35493609Y-42512857D02*
X35541228Y-42608095D01*
X35541228Y-42608095D02*
X35541228Y-42989047D01*
X35017419Y-42084285D02*
X35017419Y-41465238D01*
X35017419Y-41465238D02*
X35398371Y-41798571D01*
X35398371Y-41798571D02*
X35398371Y-41655714D01*
X35398371Y-41655714D02*
X35445990Y-41560476D01*
X35445990Y-41560476D02*
X35493609Y-41512857D01*
X35493609Y-41512857D02*
X35588847Y-41465238D01*
X35588847Y-41465238D02*
X35826942Y-41465238D01*
X35826942Y-41465238D02*
X35922180Y-41512857D01*
X35922180Y-41512857D02*
X35969800Y-41560476D01*
X35969800Y-41560476D02*
X36017419Y-41655714D01*
X36017419Y-41655714D02*
X36017419Y-41941428D01*
X36017419Y-41941428D02*
X35969800Y-42036666D01*
X35969800Y-42036666D02*
X35922180Y-42084285D01*
X35112657Y-41084285D02*
X35065038Y-41036666D01*
X35065038Y-41036666D02*
X35017419Y-40941428D01*
X35017419Y-40941428D02*
X35017419Y-40703333D01*
X35017419Y-40703333D02*
X35065038Y-40608095D01*
X35065038Y-40608095D02*
X35112657Y-40560476D01*
X35112657Y-40560476D02*
X35207895Y-40512857D01*
X35207895Y-40512857D02*
X35303133Y-40512857D01*
X35303133Y-40512857D02*
X35445990Y-40560476D01*
X35445990Y-40560476D02*
X36017419Y-41131904D01*
X36017419Y-41131904D02*
X36017419Y-40512857D01*
X35731704Y-39369999D02*
X35731704Y-38893809D01*
X36017419Y-39465237D02*
X35017419Y-39131904D01*
X35017419Y-39131904D02*
X36017419Y-38798571D01*
X35350752Y-38465237D02*
X36017419Y-38465237D01*
X35445990Y-38465237D02*
X35398371Y-38417618D01*
X35398371Y-38417618D02*
X35350752Y-38322380D01*
X35350752Y-38322380D02*
X35350752Y-38179523D01*
X35350752Y-38179523D02*
X35398371Y-38084285D01*
X35398371Y-38084285D02*
X35493609Y-38036666D01*
X35493609Y-38036666D02*
X36017419Y-38036666D01*
X35350752Y-37703332D02*
X35350752Y-37322380D01*
X35017419Y-37560475D02*
X35874561Y-37560475D01*
X35874561Y-37560475D02*
X35969800Y-37512856D01*
X35969800Y-37512856D02*
X36017419Y-37417618D01*
X36017419Y-37417618D02*
X36017419Y-37322380D01*
X35969800Y-36608094D02*
X36017419Y-36703332D01*
X36017419Y-36703332D02*
X36017419Y-36893808D01*
X36017419Y-36893808D02*
X35969800Y-36989046D01*
X35969800Y-36989046D02*
X35874561Y-37036665D01*
X35874561Y-37036665D02*
X35493609Y-37036665D01*
X35493609Y-37036665D02*
X35398371Y-36989046D01*
X35398371Y-36989046D02*
X35350752Y-36893808D01*
X35350752Y-36893808D02*
X35350752Y-36703332D01*
X35350752Y-36703332D02*
X35398371Y-36608094D01*
X35398371Y-36608094D02*
X35493609Y-36560475D01*
X35493609Y-36560475D02*
X35588847Y-36560475D01*
X35588847Y-36560475D02*
X35684085Y-37036665D01*
X35350752Y-36131903D02*
X36017419Y-36131903D01*
X35445990Y-36131903D02*
X35398371Y-36084284D01*
X35398371Y-36084284D02*
X35350752Y-35989046D01*
X35350752Y-35989046D02*
X35350752Y-35846189D01*
X35350752Y-35846189D02*
X35398371Y-35750951D01*
X35398371Y-35750951D02*
X35493609Y-35703332D01*
X35493609Y-35703332D02*
X36017419Y-35703332D01*
X35350752Y-35227141D02*
X36017419Y-35227141D01*
X35445990Y-35227141D02*
X35398371Y-35179522D01*
X35398371Y-35179522D02*
X35350752Y-35084284D01*
X35350752Y-35084284D02*
X35350752Y-34941427D01*
X35350752Y-34941427D02*
X35398371Y-34846189D01*
X35398371Y-34846189D02*
X35493609Y-34798570D01*
X35493609Y-34798570D02*
X36017419Y-34798570D01*
X36017419Y-33893808D02*
X35493609Y-33893808D01*
X35493609Y-33893808D02*
X35398371Y-33941427D01*
X35398371Y-33941427D02*
X35350752Y-34036665D01*
X35350752Y-34036665D02*
X35350752Y-34227141D01*
X35350752Y-34227141D02*
X35398371Y-34322379D01*
X35969800Y-33893808D02*
X36017419Y-33989046D01*
X36017419Y-33989046D02*
X36017419Y-34227141D01*
X36017419Y-34227141D02*
X35969800Y-34322379D01*
X35969800Y-34322379D02*
X35874561Y-34369998D01*
X35874561Y-34369998D02*
X35779323Y-34369998D01*
X35779323Y-34369998D02*
X35684085Y-34322379D01*
X35684085Y-34322379D02*
X35636466Y-34227141D01*
X35636466Y-34227141D02*
X35636466Y-33989046D01*
X35636466Y-33989046D02*
X35588847Y-33893808D01*
D13*
X78295290Y-62349297D02*
X78057195Y-62515963D01*
X78295290Y-62635011D02*
X77795290Y-62635011D01*
X77795290Y-62635011D02*
X77795290Y-62444535D01*
X77795290Y-62444535D02*
X77819100Y-62396916D01*
X77819100Y-62396916D02*
X77842909Y-62373106D01*
X77842909Y-62373106D02*
X77890528Y-62349297D01*
X77890528Y-62349297D02*
X77961957Y-62349297D01*
X77961957Y-62349297D02*
X78009576Y-62373106D01*
X78009576Y-62373106D02*
X78033385Y-62396916D01*
X78033385Y-62396916D02*
X78057195Y-62444535D01*
X78057195Y-62444535D02*
X78057195Y-62635011D01*
X77961957Y-61920725D02*
X78295290Y-61920725D01*
X77771481Y-62039773D02*
X78128623Y-62158820D01*
X78128623Y-62158820D02*
X78128623Y-61849297D01*
X65595290Y-62349297D02*
X65357195Y-62515963D01*
X65595290Y-62635011D02*
X65095290Y-62635011D01*
X65095290Y-62635011D02*
X65095290Y-62444535D01*
X65095290Y-62444535D02*
X65119100Y-62396916D01*
X65119100Y-62396916D02*
X65142909Y-62373106D01*
X65142909Y-62373106D02*
X65190528Y-62349297D01*
X65190528Y-62349297D02*
X65261957Y-62349297D01*
X65261957Y-62349297D02*
X65309576Y-62373106D01*
X65309576Y-62373106D02*
X65333385Y-62396916D01*
X65333385Y-62396916D02*
X65357195Y-62444535D01*
X65357195Y-62444535D02*
X65357195Y-62635011D01*
X65595290Y-61873106D02*
X65595290Y-62158820D01*
X65595290Y-62015963D02*
X65095290Y-62015963D01*
X65095290Y-62015963D02*
X65166719Y-62063582D01*
X65166719Y-62063582D02*
X65214338Y-62111201D01*
X65214338Y-62111201D02*
X65238147Y-62158820D01*
X67433334Y-67689601D02*
X67504762Y-67713410D01*
X67504762Y-67713410D02*
X67623810Y-67713410D01*
X67623810Y-67713410D02*
X67671429Y-67689601D01*
X67671429Y-67689601D02*
X67695238Y-67665791D01*
X67695238Y-67665791D02*
X67719048Y-67618172D01*
X67719048Y-67618172D02*
X67719048Y-67570553D01*
X67719048Y-67570553D02*
X67695238Y-67522934D01*
X67695238Y-67522934D02*
X67671429Y-67499124D01*
X67671429Y-67499124D02*
X67623810Y-67475315D01*
X67623810Y-67475315D02*
X67528572Y-67451505D01*
X67528572Y-67451505D02*
X67480953Y-67427696D01*
X67480953Y-67427696D02*
X67457143Y-67403886D01*
X67457143Y-67403886D02*
X67433334Y-67356267D01*
X67433334Y-67356267D02*
X67433334Y-67308648D01*
X67433334Y-67308648D02*
X67457143Y-67261029D01*
X67457143Y-67261029D02*
X67480953Y-67237220D01*
X67480953Y-67237220D02*
X67528572Y-67213410D01*
X67528572Y-67213410D02*
X67647619Y-67213410D01*
X67647619Y-67213410D02*
X67719048Y-67237220D01*
X67933333Y-67451505D02*
X68100000Y-67451505D01*
X68171428Y-67713410D02*
X67933333Y-67713410D01*
X67933333Y-67713410D02*
X67933333Y-67213410D01*
X67933333Y-67213410D02*
X68171428Y-67213410D01*
X68671428Y-67713410D02*
X68504762Y-67475315D01*
X68385714Y-67713410D02*
X68385714Y-67213410D01*
X68385714Y-67213410D02*
X68576190Y-67213410D01*
X68576190Y-67213410D02*
X68623809Y-67237220D01*
X68623809Y-67237220D02*
X68647619Y-67261029D01*
X68647619Y-67261029D02*
X68671428Y-67308648D01*
X68671428Y-67308648D02*
X68671428Y-67380077D01*
X68671428Y-67380077D02*
X68647619Y-67427696D01*
X68647619Y-67427696D02*
X68623809Y-67451505D01*
X68623809Y-67451505D02*
X68576190Y-67475315D01*
X68576190Y-67475315D02*
X68385714Y-67475315D01*
X68814286Y-67213410D02*
X68980952Y-67713410D01*
X68980952Y-67713410D02*
X69147619Y-67213410D01*
X69314285Y-67451505D02*
X69480952Y-67451505D01*
X69552380Y-67713410D02*
X69314285Y-67713410D01*
X69314285Y-67713410D02*
X69314285Y-67213410D01*
X69314285Y-67213410D02*
X69552380Y-67213410D01*
X70052380Y-67713410D02*
X69885714Y-67475315D01*
X69766666Y-67713410D02*
X69766666Y-67213410D01*
X69766666Y-67213410D02*
X69957142Y-67213410D01*
X69957142Y-67213410D02*
X70004761Y-67237220D01*
X70004761Y-67237220D02*
X70028571Y-67261029D01*
X70028571Y-67261029D02*
X70052380Y-67308648D01*
X70052380Y-67308648D02*
X70052380Y-67380077D01*
X70052380Y-67380077D02*
X70028571Y-67427696D01*
X70028571Y-67427696D02*
X70004761Y-67451505D01*
X70004761Y-67451505D02*
X69957142Y-67475315D01*
X69957142Y-67475315D02*
X69766666Y-67475315D01*
X70147619Y-67761029D02*
X70528571Y-67761029D01*
X70885713Y-67713410D02*
X70647618Y-67713410D01*
X70647618Y-67713410D02*
X70647618Y-67213410D01*
X71052380Y-67451505D02*
X71219047Y-67451505D01*
X71290475Y-67713410D02*
X71052380Y-67713410D01*
X71052380Y-67713410D02*
X71052380Y-67213410D01*
X71052380Y-67213410D02*
X71290475Y-67213410D01*
X71504761Y-67713410D02*
X71504761Y-67213410D01*
X71504761Y-67213410D02*
X71623809Y-67213410D01*
X71623809Y-67213410D02*
X71695237Y-67237220D01*
X71695237Y-67237220D02*
X71742856Y-67284839D01*
X71742856Y-67284839D02*
X71766666Y-67332458D01*
X71766666Y-67332458D02*
X71790475Y-67427696D01*
X71790475Y-67427696D02*
X71790475Y-67499124D01*
X71790475Y-67499124D02*
X71766666Y-67594362D01*
X71766666Y-67594362D02*
X71742856Y-67641981D01*
X71742856Y-67641981D02*
X71695237Y-67689601D01*
X71695237Y-67689601D02*
X71623809Y-67713410D01*
X71623809Y-67713410D02*
X71504761Y-67713410D01*
X72266666Y-67713410D02*
X71980952Y-67713410D01*
X72123809Y-67713410D02*
X72123809Y-67213410D01*
X72123809Y-67213410D02*
X72076190Y-67284839D01*
X72076190Y-67284839D02*
X72028571Y-67332458D01*
X72028571Y-67332458D02*
X71980952Y-67356267D01*
X66194761Y-72618059D02*
X66028095Y-72379964D01*
X65909047Y-72618059D02*
X65909047Y-72118059D01*
X65909047Y-72118059D02*
X66099523Y-72118059D01*
X66099523Y-72118059D02*
X66147142Y-72141869D01*
X66147142Y-72141869D02*
X66170952Y-72165678D01*
X66170952Y-72165678D02*
X66194761Y-72213297D01*
X66194761Y-72213297D02*
X66194761Y-72284726D01*
X66194761Y-72284726D02*
X66170952Y-72332345D01*
X66170952Y-72332345D02*
X66147142Y-72356154D01*
X66147142Y-72356154D02*
X66099523Y-72379964D01*
X66099523Y-72379964D02*
X65909047Y-72379964D01*
X71250952Y-72141869D02*
X71203333Y-72118059D01*
X71203333Y-72118059D02*
X71131904Y-72118059D01*
X71131904Y-72118059D02*
X71060476Y-72141869D01*
X71060476Y-72141869D02*
X71012857Y-72189488D01*
X71012857Y-72189488D02*
X70989047Y-72237107D01*
X70989047Y-72237107D02*
X70965238Y-72332345D01*
X70965238Y-72332345D02*
X70965238Y-72403773D01*
X70965238Y-72403773D02*
X70989047Y-72499011D01*
X70989047Y-72499011D02*
X71012857Y-72546630D01*
X71012857Y-72546630D02*
X71060476Y-72594250D01*
X71060476Y-72594250D02*
X71131904Y-72618059D01*
X71131904Y-72618059D02*
X71179523Y-72618059D01*
X71179523Y-72618059D02*
X71250952Y-72594250D01*
X71250952Y-72594250D02*
X71274761Y-72570440D01*
X71274761Y-72570440D02*
X71274761Y-72403773D01*
X71274761Y-72403773D02*
X71179523Y-72403773D01*
X67913334Y-72118059D02*
X68080000Y-72618059D01*
X68080000Y-72618059D02*
X68246667Y-72118059D01*
X68699047Y-72570440D02*
X68675238Y-72594250D01*
X68675238Y-72594250D02*
X68603809Y-72618059D01*
X68603809Y-72618059D02*
X68556190Y-72618059D01*
X68556190Y-72618059D02*
X68484762Y-72594250D01*
X68484762Y-72594250D02*
X68437143Y-72546630D01*
X68437143Y-72546630D02*
X68413333Y-72499011D01*
X68413333Y-72499011D02*
X68389524Y-72403773D01*
X68389524Y-72403773D02*
X68389524Y-72332345D01*
X68389524Y-72332345D02*
X68413333Y-72237107D01*
X68413333Y-72237107D02*
X68437143Y-72189488D01*
X68437143Y-72189488D02*
X68484762Y-72141869D01*
X68484762Y-72141869D02*
X68556190Y-72118059D01*
X68556190Y-72118059D02*
X68603809Y-72118059D01*
X68603809Y-72118059D02*
X68675238Y-72141869D01*
X68675238Y-72141869D02*
X68699047Y-72165678D01*
X69199047Y-72570440D02*
X69175238Y-72594250D01*
X69175238Y-72594250D02*
X69103809Y-72618059D01*
X69103809Y-72618059D02*
X69056190Y-72618059D01*
X69056190Y-72618059D02*
X68984762Y-72594250D01*
X68984762Y-72594250D02*
X68937143Y-72546630D01*
X68937143Y-72546630D02*
X68913333Y-72499011D01*
X68913333Y-72499011D02*
X68889524Y-72403773D01*
X68889524Y-72403773D02*
X68889524Y-72332345D01*
X68889524Y-72332345D02*
X68913333Y-72237107D01*
X68913333Y-72237107D02*
X68937143Y-72189488D01*
X68937143Y-72189488D02*
X68984762Y-72141869D01*
X68984762Y-72141869D02*
X69056190Y-72118059D01*
X69056190Y-72118059D02*
X69103809Y-72118059D01*
X69103809Y-72118059D02*
X69175238Y-72141869D01*
X69175238Y-72141869D02*
X69199047Y-72165678D01*
X73695714Y-72356154D02*
X73767142Y-72379964D01*
X73767142Y-72379964D02*
X73790952Y-72403773D01*
X73790952Y-72403773D02*
X73814761Y-72451392D01*
X73814761Y-72451392D02*
X73814761Y-72522821D01*
X73814761Y-72522821D02*
X73790952Y-72570440D01*
X73790952Y-72570440D02*
X73767142Y-72594250D01*
X73767142Y-72594250D02*
X73719523Y-72618059D01*
X73719523Y-72618059D02*
X73529047Y-72618059D01*
X73529047Y-72618059D02*
X73529047Y-72118059D01*
X73529047Y-72118059D02*
X73695714Y-72118059D01*
X73695714Y-72118059D02*
X73743333Y-72141869D01*
X73743333Y-72141869D02*
X73767142Y-72165678D01*
X73767142Y-72165678D02*
X73790952Y-72213297D01*
X73790952Y-72213297D02*
X73790952Y-72260916D01*
X73790952Y-72260916D02*
X73767142Y-72308535D01*
X73767142Y-72308535D02*
X73743333Y-72332345D01*
X73743333Y-72332345D02*
X73695714Y-72356154D01*
X73695714Y-72356154D02*
X73529047Y-72356154D01*
X48578572Y-74988059D02*
X48340477Y-74988059D01*
X48340477Y-74988059D02*
X48316668Y-75226154D01*
X48316668Y-75226154D02*
X48340477Y-75202345D01*
X48340477Y-75202345D02*
X48388096Y-75178535D01*
X48388096Y-75178535D02*
X48507144Y-75178535D01*
X48507144Y-75178535D02*
X48554763Y-75202345D01*
X48554763Y-75202345D02*
X48578572Y-75226154D01*
X48578572Y-75226154D02*
X48602382Y-75273773D01*
X48602382Y-75273773D02*
X48602382Y-75392821D01*
X48602382Y-75392821D02*
X48578572Y-75440440D01*
X48578572Y-75440440D02*
X48554763Y-75464250D01*
X48554763Y-75464250D02*
X48507144Y-75488059D01*
X48507144Y-75488059D02*
X48388096Y-75488059D01*
X48388096Y-75488059D02*
X48340477Y-75464250D01*
X48340477Y-75464250D02*
X48316668Y-75440440D01*
X48745239Y-74988059D02*
X48911905Y-75488059D01*
X48911905Y-75488059D02*
X49078572Y-74988059D01*
X49126191Y-75535678D02*
X49507143Y-75535678D01*
X49911904Y-75488059D02*
X49745238Y-75249964D01*
X49626190Y-75488059D02*
X49626190Y-74988059D01*
X49626190Y-74988059D02*
X49816666Y-74988059D01*
X49816666Y-74988059D02*
X49864285Y-75011869D01*
X49864285Y-75011869D02*
X49888095Y-75035678D01*
X49888095Y-75035678D02*
X49911904Y-75083297D01*
X49911904Y-75083297D02*
X49911904Y-75154726D01*
X49911904Y-75154726D02*
X49888095Y-75202345D01*
X49888095Y-75202345D02*
X49864285Y-75226154D01*
X49864285Y-75226154D02*
X49816666Y-75249964D01*
X49816666Y-75249964D02*
X49626190Y-75249964D01*
X50316666Y-75464250D02*
X50269047Y-75488059D01*
X50269047Y-75488059D02*
X50173809Y-75488059D01*
X50173809Y-75488059D02*
X50126190Y-75464250D01*
X50126190Y-75464250D02*
X50102381Y-75416630D01*
X50102381Y-75416630D02*
X50102381Y-75226154D01*
X50102381Y-75226154D02*
X50126190Y-75178535D01*
X50126190Y-75178535D02*
X50173809Y-75154726D01*
X50173809Y-75154726D02*
X50269047Y-75154726D01*
X50269047Y-75154726D02*
X50316666Y-75178535D01*
X50316666Y-75178535D02*
X50340476Y-75226154D01*
X50340476Y-75226154D02*
X50340476Y-75273773D01*
X50340476Y-75273773D02*
X50102381Y-75321392D01*
X50769047Y-75154726D02*
X50769047Y-75559488D01*
X50769047Y-75559488D02*
X50745237Y-75607107D01*
X50745237Y-75607107D02*
X50721428Y-75630916D01*
X50721428Y-75630916D02*
X50673809Y-75654726D01*
X50673809Y-75654726D02*
X50602380Y-75654726D01*
X50602380Y-75654726D02*
X50554761Y-75630916D01*
X50769047Y-75464250D02*
X50721428Y-75488059D01*
X50721428Y-75488059D02*
X50626190Y-75488059D01*
X50626190Y-75488059D02*
X50578571Y-75464250D01*
X50578571Y-75464250D02*
X50554761Y-75440440D01*
X50554761Y-75440440D02*
X50530952Y-75392821D01*
X50530952Y-75392821D02*
X50530952Y-75249964D01*
X50530952Y-75249964D02*
X50554761Y-75202345D01*
X50554761Y-75202345D02*
X50578571Y-75178535D01*
X50578571Y-75178535D02*
X50626190Y-75154726D01*
X50626190Y-75154726D02*
X50721428Y-75154726D01*
X50721428Y-75154726D02*
X50769047Y-75178535D01*
X51221428Y-75154726D02*
X51221428Y-75488059D01*
X51007142Y-75154726D02*
X51007142Y-75416630D01*
X51007142Y-75416630D02*
X51030952Y-75464250D01*
X51030952Y-75464250D02*
X51078571Y-75488059D01*
X51078571Y-75488059D02*
X51149999Y-75488059D01*
X51149999Y-75488059D02*
X51197618Y-75464250D01*
X51197618Y-75464250D02*
X51221428Y-75440440D01*
X51530952Y-75488059D02*
X51483333Y-75464250D01*
X51483333Y-75464250D02*
X51459523Y-75416630D01*
X51459523Y-75416630D02*
X51459523Y-74988059D01*
X51935714Y-75488059D02*
X51935714Y-75226154D01*
X51935714Y-75226154D02*
X51911904Y-75178535D01*
X51911904Y-75178535D02*
X51864285Y-75154726D01*
X51864285Y-75154726D02*
X51769047Y-75154726D01*
X51769047Y-75154726D02*
X51721428Y-75178535D01*
X51935714Y-75464250D02*
X51888095Y-75488059D01*
X51888095Y-75488059D02*
X51769047Y-75488059D01*
X51769047Y-75488059D02*
X51721428Y-75464250D01*
X51721428Y-75464250D02*
X51697619Y-75416630D01*
X51697619Y-75416630D02*
X51697619Y-75369011D01*
X51697619Y-75369011D02*
X51721428Y-75321392D01*
X51721428Y-75321392D02*
X51769047Y-75297583D01*
X51769047Y-75297583D02*
X51888095Y-75297583D01*
X51888095Y-75297583D02*
X51935714Y-75273773D01*
X52102381Y-75154726D02*
X52292857Y-75154726D01*
X52173809Y-74988059D02*
X52173809Y-75416630D01*
X52173809Y-75416630D02*
X52197619Y-75464250D01*
X52197619Y-75464250D02*
X52245238Y-75488059D01*
X52245238Y-75488059D02*
X52292857Y-75488059D01*
X52530952Y-75488059D02*
X52483333Y-75464250D01*
X52483333Y-75464250D02*
X52459523Y-75440440D01*
X52459523Y-75440440D02*
X52435714Y-75392821D01*
X52435714Y-75392821D02*
X52435714Y-75249964D01*
X52435714Y-75249964D02*
X52459523Y-75202345D01*
X52459523Y-75202345D02*
X52483333Y-75178535D01*
X52483333Y-75178535D02*
X52530952Y-75154726D01*
X52530952Y-75154726D02*
X52602380Y-75154726D01*
X52602380Y-75154726D02*
X52649999Y-75178535D01*
X52649999Y-75178535D02*
X52673809Y-75202345D01*
X52673809Y-75202345D02*
X52697618Y-75249964D01*
X52697618Y-75249964D02*
X52697618Y-75392821D01*
X52697618Y-75392821D02*
X52673809Y-75440440D01*
X52673809Y-75440440D02*
X52649999Y-75464250D01*
X52649999Y-75464250D02*
X52602380Y-75488059D01*
X52602380Y-75488059D02*
X52530952Y-75488059D01*
X52911904Y-75488059D02*
X52911904Y-75154726D01*
X52911904Y-75249964D02*
X52935714Y-75202345D01*
X52935714Y-75202345D02*
X52959523Y-75178535D01*
X52959523Y-75178535D02*
X53007142Y-75154726D01*
X53007142Y-75154726D02*
X53054761Y-75154726D01*
X53483333Y-75488059D02*
X53197619Y-75488059D01*
X53340476Y-75488059D02*
X53340476Y-74988059D01*
X53340476Y-74988059D02*
X53292857Y-75059488D01*
X53292857Y-75059488D02*
X53245238Y-75107107D01*
X53245238Y-75107107D02*
X53197619Y-75130916D01*
X43440165Y-72655559D02*
X43440165Y-72155559D01*
X43678260Y-72655559D02*
X43678260Y-72155559D01*
X43678260Y-72155559D02*
X43963974Y-72655559D01*
X43963974Y-72655559D02*
X43963974Y-72155559D01*
X44202070Y-72465083D02*
X44583023Y-72465083D01*
X56645547Y-72155559D02*
X56740785Y-72155559D01*
X56740785Y-72155559D02*
X56788404Y-72179369D01*
X56788404Y-72179369D02*
X56836023Y-72226988D01*
X56836023Y-72226988D02*
X56859833Y-72322226D01*
X56859833Y-72322226D02*
X56859833Y-72488892D01*
X56859833Y-72488892D02*
X56836023Y-72584130D01*
X56836023Y-72584130D02*
X56788404Y-72631750D01*
X56788404Y-72631750D02*
X56740785Y-72655559D01*
X56740785Y-72655559D02*
X56645547Y-72655559D01*
X56645547Y-72655559D02*
X56597928Y-72631750D01*
X56597928Y-72631750D02*
X56550309Y-72584130D01*
X56550309Y-72584130D02*
X56526500Y-72488892D01*
X56526500Y-72488892D02*
X56526500Y-72322226D01*
X56526500Y-72322226D02*
X56550309Y-72226988D01*
X56550309Y-72226988D02*
X56597928Y-72179369D01*
X56597928Y-72179369D02*
X56645547Y-72155559D01*
X57074119Y-72155559D02*
X57074119Y-72560321D01*
X57074119Y-72560321D02*
X57097929Y-72607940D01*
X57097929Y-72607940D02*
X57121738Y-72631750D01*
X57121738Y-72631750D02*
X57169357Y-72655559D01*
X57169357Y-72655559D02*
X57264595Y-72655559D01*
X57264595Y-72655559D02*
X57312214Y-72631750D01*
X57312214Y-72631750D02*
X57336024Y-72607940D01*
X57336024Y-72607940D02*
X57359833Y-72560321D01*
X57359833Y-72560321D02*
X57359833Y-72155559D01*
X57526501Y-72155559D02*
X57812215Y-72155559D01*
X57669358Y-72655559D02*
X57669358Y-72155559D01*
X57978881Y-72465083D02*
X58359834Y-72465083D01*
X56645547Y-77820559D02*
X56740785Y-77820559D01*
X56740785Y-77820559D02*
X56788404Y-77844369D01*
X56788404Y-77844369D02*
X56836023Y-77891988D01*
X56836023Y-77891988D02*
X56859833Y-77987226D01*
X56859833Y-77987226D02*
X56859833Y-78153892D01*
X56859833Y-78153892D02*
X56836023Y-78249130D01*
X56836023Y-78249130D02*
X56788404Y-78296750D01*
X56788404Y-78296750D02*
X56740785Y-78320559D01*
X56740785Y-78320559D02*
X56645547Y-78320559D01*
X56645547Y-78320559D02*
X56597928Y-78296750D01*
X56597928Y-78296750D02*
X56550309Y-78249130D01*
X56550309Y-78249130D02*
X56526500Y-78153892D01*
X56526500Y-78153892D02*
X56526500Y-77987226D01*
X56526500Y-77987226D02*
X56550309Y-77891988D01*
X56550309Y-77891988D02*
X56597928Y-77844369D01*
X56597928Y-77844369D02*
X56645547Y-77820559D01*
X57074119Y-77820559D02*
X57074119Y-78225321D01*
X57074119Y-78225321D02*
X57097929Y-78272940D01*
X57097929Y-78272940D02*
X57121738Y-78296750D01*
X57121738Y-78296750D02*
X57169357Y-78320559D01*
X57169357Y-78320559D02*
X57264595Y-78320559D01*
X57264595Y-78320559D02*
X57312214Y-78296750D01*
X57312214Y-78296750D02*
X57336024Y-78272940D01*
X57336024Y-78272940D02*
X57359833Y-78225321D01*
X57359833Y-78225321D02*
X57359833Y-77820559D01*
X57526501Y-77820559D02*
X57812215Y-77820559D01*
X57669358Y-78320559D02*
X57669358Y-77820559D01*
X57978881Y-78130083D02*
X58359834Y-78130083D01*
X58169357Y-78320559D02*
X58169357Y-77939607D01*
X43440165Y-78320559D02*
X43440165Y-77820559D01*
X43678260Y-78320559D02*
X43678260Y-77820559D01*
X43678260Y-77820559D02*
X43963974Y-78320559D01*
X43963974Y-78320559D02*
X43963974Y-77820559D01*
X44202070Y-78130083D02*
X44583023Y-78130083D01*
X44392546Y-78320559D02*
X44392546Y-77939607D01*
X83375290Y-62349297D02*
X83137195Y-62515963D01*
X83375290Y-62635011D02*
X82875290Y-62635011D01*
X82875290Y-62635011D02*
X82875290Y-62444535D01*
X82875290Y-62444535D02*
X82899100Y-62396916D01*
X82899100Y-62396916D02*
X82922909Y-62373106D01*
X82922909Y-62373106D02*
X82970528Y-62349297D01*
X82970528Y-62349297D02*
X83041957Y-62349297D01*
X83041957Y-62349297D02*
X83089576Y-62373106D01*
X83089576Y-62373106D02*
X83113385Y-62396916D01*
X83113385Y-62396916D02*
X83137195Y-62444535D01*
X83137195Y-62444535D02*
X83137195Y-62635011D01*
X82875290Y-61896916D02*
X82875290Y-62135011D01*
X82875290Y-62135011D02*
X83113385Y-62158820D01*
X83113385Y-62158820D02*
X83089576Y-62135011D01*
X83089576Y-62135011D02*
X83065766Y-62087392D01*
X83065766Y-62087392D02*
X83065766Y-61968344D01*
X83065766Y-61968344D02*
X83089576Y-61920725D01*
X83089576Y-61920725D02*
X83113385Y-61896916D01*
X83113385Y-61896916D02*
X83161004Y-61873106D01*
X83161004Y-61873106D02*
X83280052Y-61873106D01*
X83280052Y-61873106D02*
X83327671Y-61896916D01*
X83327671Y-61896916D02*
X83351481Y-61920725D01*
X83351481Y-61920725D02*
X83375290Y-61968344D01*
X83375290Y-61968344D02*
X83375290Y-62087392D01*
X83375290Y-62087392D02*
X83351481Y-62135011D01*
X83351481Y-62135011D02*
X83327671Y-62158820D01*
X80835715Y-67213410D02*
X81121429Y-67213410D01*
X80978572Y-67713410D02*
X80978572Y-67213410D01*
X81264286Y-67570553D02*
X81502381Y-67570553D01*
X81216667Y-67713410D02*
X81383333Y-67213410D01*
X81383333Y-67213410D02*
X81550000Y-67713410D01*
X81978571Y-67237220D02*
X81930952Y-67213410D01*
X81930952Y-67213410D02*
X81859523Y-67213410D01*
X81859523Y-67213410D02*
X81788095Y-67237220D01*
X81788095Y-67237220D02*
X81740476Y-67284839D01*
X81740476Y-67284839D02*
X81716666Y-67332458D01*
X81716666Y-67332458D02*
X81692857Y-67427696D01*
X81692857Y-67427696D02*
X81692857Y-67499124D01*
X81692857Y-67499124D02*
X81716666Y-67594362D01*
X81716666Y-67594362D02*
X81740476Y-67641981D01*
X81740476Y-67641981D02*
X81788095Y-67689601D01*
X81788095Y-67689601D02*
X81859523Y-67713410D01*
X81859523Y-67713410D02*
X81907142Y-67713410D01*
X81907142Y-67713410D02*
X81978571Y-67689601D01*
X81978571Y-67689601D02*
X82002380Y-67665791D01*
X82002380Y-67665791D02*
X82002380Y-67499124D01*
X82002380Y-67499124D02*
X81907142Y-67499124D01*
X82097619Y-67761029D02*
X82478571Y-67761029D01*
X82835713Y-67713410D02*
X82597618Y-67713410D01*
X82597618Y-67713410D02*
X82597618Y-67213410D01*
X83002380Y-67451505D02*
X83169047Y-67451505D01*
X83240475Y-67713410D02*
X83002380Y-67713410D01*
X83002380Y-67713410D02*
X83002380Y-67213410D01*
X83002380Y-67213410D02*
X83240475Y-67213410D01*
X83454761Y-67713410D02*
X83454761Y-67213410D01*
X83454761Y-67213410D02*
X83573809Y-67213410D01*
X83573809Y-67213410D02*
X83645237Y-67237220D01*
X83645237Y-67237220D02*
X83692856Y-67284839D01*
X83692856Y-67284839D02*
X83716666Y-67332458D01*
X83716666Y-67332458D02*
X83740475Y-67427696D01*
X83740475Y-67427696D02*
X83740475Y-67499124D01*
X83740475Y-67499124D02*
X83716666Y-67594362D01*
X83716666Y-67594362D02*
X83692856Y-67641981D01*
X83692856Y-67641981D02*
X83645237Y-67689601D01*
X83645237Y-67689601D02*
X83573809Y-67713410D01*
X83573809Y-67713410D02*
X83454761Y-67713410D01*
X84216666Y-67713410D02*
X83930952Y-67713410D01*
X84073809Y-67713410D02*
X84073809Y-67213410D01*
X84073809Y-67213410D02*
X84026190Y-67284839D01*
X84026190Y-67284839D02*
X83978571Y-67332458D01*
X83978571Y-67332458D02*
X83930952Y-67356267D01*
X83950952Y-72141869D02*
X83903333Y-72118059D01*
X83903333Y-72118059D02*
X83831904Y-72118059D01*
X83831904Y-72118059D02*
X83760476Y-72141869D01*
X83760476Y-72141869D02*
X83712857Y-72189488D01*
X83712857Y-72189488D02*
X83689047Y-72237107D01*
X83689047Y-72237107D02*
X83665238Y-72332345D01*
X83665238Y-72332345D02*
X83665238Y-72403773D01*
X83665238Y-72403773D02*
X83689047Y-72499011D01*
X83689047Y-72499011D02*
X83712857Y-72546630D01*
X83712857Y-72546630D02*
X83760476Y-72594250D01*
X83760476Y-72594250D02*
X83831904Y-72618059D01*
X83831904Y-72618059D02*
X83879523Y-72618059D01*
X83879523Y-72618059D02*
X83950952Y-72594250D01*
X83950952Y-72594250D02*
X83974761Y-72570440D01*
X83974761Y-72570440D02*
X83974761Y-72403773D01*
X83974761Y-72403773D02*
X83879523Y-72403773D01*
X86395714Y-72356154D02*
X86467142Y-72379964D01*
X86467142Y-72379964D02*
X86490952Y-72403773D01*
X86490952Y-72403773D02*
X86514761Y-72451392D01*
X86514761Y-72451392D02*
X86514761Y-72522821D01*
X86514761Y-72522821D02*
X86490952Y-72570440D01*
X86490952Y-72570440D02*
X86467142Y-72594250D01*
X86467142Y-72594250D02*
X86419523Y-72618059D01*
X86419523Y-72618059D02*
X86229047Y-72618059D01*
X86229047Y-72618059D02*
X86229047Y-72118059D01*
X86229047Y-72118059D02*
X86395714Y-72118059D01*
X86395714Y-72118059D02*
X86443333Y-72141869D01*
X86443333Y-72141869D02*
X86467142Y-72165678D01*
X86467142Y-72165678D02*
X86490952Y-72213297D01*
X86490952Y-72213297D02*
X86490952Y-72260916D01*
X86490952Y-72260916D02*
X86467142Y-72308535D01*
X86467142Y-72308535D02*
X86443333Y-72332345D01*
X86443333Y-72332345D02*
X86395714Y-72356154D01*
X86395714Y-72356154D02*
X86229047Y-72356154D01*
X80613334Y-72118059D02*
X80780000Y-72618059D01*
X80780000Y-72618059D02*
X80946667Y-72118059D01*
X81399047Y-72570440D02*
X81375238Y-72594250D01*
X81375238Y-72594250D02*
X81303809Y-72618059D01*
X81303809Y-72618059D02*
X81256190Y-72618059D01*
X81256190Y-72618059D02*
X81184762Y-72594250D01*
X81184762Y-72594250D02*
X81137143Y-72546630D01*
X81137143Y-72546630D02*
X81113333Y-72499011D01*
X81113333Y-72499011D02*
X81089524Y-72403773D01*
X81089524Y-72403773D02*
X81089524Y-72332345D01*
X81089524Y-72332345D02*
X81113333Y-72237107D01*
X81113333Y-72237107D02*
X81137143Y-72189488D01*
X81137143Y-72189488D02*
X81184762Y-72141869D01*
X81184762Y-72141869D02*
X81256190Y-72118059D01*
X81256190Y-72118059D02*
X81303809Y-72118059D01*
X81303809Y-72118059D02*
X81375238Y-72141869D01*
X81375238Y-72141869D02*
X81399047Y-72165678D01*
X81899047Y-72570440D02*
X81875238Y-72594250D01*
X81875238Y-72594250D02*
X81803809Y-72618059D01*
X81803809Y-72618059D02*
X81756190Y-72618059D01*
X81756190Y-72618059D02*
X81684762Y-72594250D01*
X81684762Y-72594250D02*
X81637143Y-72546630D01*
X81637143Y-72546630D02*
X81613333Y-72499011D01*
X81613333Y-72499011D02*
X81589524Y-72403773D01*
X81589524Y-72403773D02*
X81589524Y-72332345D01*
X81589524Y-72332345D02*
X81613333Y-72237107D01*
X81613333Y-72237107D02*
X81637143Y-72189488D01*
X81637143Y-72189488D02*
X81684762Y-72141869D01*
X81684762Y-72141869D02*
X81756190Y-72118059D01*
X81756190Y-72118059D02*
X81803809Y-72118059D01*
X81803809Y-72118059D02*
X81875238Y-72141869D01*
X81875238Y-72141869D02*
X81899047Y-72165678D01*
X78894761Y-72618059D02*
X78728095Y-72379964D01*
X78609047Y-72618059D02*
X78609047Y-72118059D01*
X78609047Y-72118059D02*
X78799523Y-72118059D01*
X78799523Y-72118059D02*
X78847142Y-72141869D01*
X78847142Y-72141869D02*
X78870952Y-72165678D01*
X78870952Y-72165678D02*
X78894761Y-72213297D01*
X78894761Y-72213297D02*
X78894761Y-72284726D01*
X78894761Y-72284726D02*
X78870952Y-72332345D01*
X78870952Y-72332345D02*
X78847142Y-72356154D01*
X78847142Y-72356154D02*
X78799523Y-72379964D01*
X78799523Y-72379964D02*
X78609047Y-72379964D01*
D15*
X57252382Y-63137819D02*
X57300001Y-63090200D01*
X57300001Y-63090200D02*
X57442858Y-63042580D01*
X57442858Y-63042580D02*
X57538096Y-63042580D01*
X57538096Y-63042580D02*
X57680953Y-63090200D01*
X57680953Y-63090200D02*
X57776191Y-63185438D01*
X57776191Y-63185438D02*
X57823810Y-63280676D01*
X57823810Y-63280676D02*
X57871429Y-63471152D01*
X57871429Y-63471152D02*
X57871429Y-63614009D01*
X57871429Y-63614009D02*
X57823810Y-63804485D01*
X57823810Y-63804485D02*
X57776191Y-63899723D01*
X57776191Y-63899723D02*
X57680953Y-63994961D01*
X57680953Y-63994961D02*
X57538096Y-64042580D01*
X57538096Y-64042580D02*
X57442858Y-64042580D01*
X57442858Y-64042580D02*
X57300001Y-63994961D01*
X57300001Y-63994961D02*
X57252382Y-63947342D01*
X56871429Y-63328295D02*
X56395239Y-63328295D01*
X56966667Y-63042580D02*
X56633334Y-64042580D01*
X56633334Y-64042580D02*
X56300001Y-63042580D01*
X55966667Y-63042580D02*
X55966667Y-64042580D01*
X55966667Y-64042580D02*
X55395239Y-63042580D01*
X55395239Y-63042580D02*
X55395239Y-64042580D01*
X55157144Y-62947342D02*
X54395239Y-62947342D01*
X54300000Y-64042580D02*
X53728572Y-64042580D01*
X54014286Y-63042580D02*
X54014286Y-64042580D01*
X53395238Y-63042580D02*
X53395238Y-63709247D01*
X53395238Y-63518771D02*
X53347619Y-63614009D01*
X53347619Y-63614009D02*
X53300000Y-63661628D01*
X53300000Y-63661628D02*
X53204762Y-63709247D01*
X53204762Y-63709247D02*
X53109524Y-63709247D01*
X52347619Y-63042580D02*
X52347619Y-63566390D01*
X52347619Y-63566390D02*
X52395238Y-63661628D01*
X52395238Y-63661628D02*
X52490476Y-63709247D01*
X52490476Y-63709247D02*
X52680952Y-63709247D01*
X52680952Y-63709247D02*
X52776190Y-63661628D01*
X52347619Y-63090200D02*
X52442857Y-63042580D01*
X52442857Y-63042580D02*
X52680952Y-63042580D01*
X52680952Y-63042580D02*
X52776190Y-63090200D01*
X52776190Y-63090200D02*
X52823809Y-63185438D01*
X52823809Y-63185438D02*
X52823809Y-63280676D01*
X52823809Y-63280676D02*
X52776190Y-63375914D01*
X52776190Y-63375914D02*
X52680952Y-63423533D01*
X52680952Y-63423533D02*
X52442857Y-63423533D01*
X52442857Y-63423533D02*
X52347619Y-63471152D01*
X51871428Y-63709247D02*
X51871428Y-63042580D01*
X51871428Y-63614009D02*
X51823809Y-63661628D01*
X51823809Y-63661628D02*
X51728571Y-63709247D01*
X51728571Y-63709247D02*
X51585714Y-63709247D01*
X51585714Y-63709247D02*
X51490476Y-63661628D01*
X51490476Y-63661628D02*
X51442857Y-63566390D01*
X51442857Y-63566390D02*
X51442857Y-63042580D01*
X51014285Y-63090200D02*
X50919047Y-63042580D01*
X50919047Y-63042580D02*
X50728571Y-63042580D01*
X50728571Y-63042580D02*
X50633333Y-63090200D01*
X50633333Y-63090200D02*
X50585714Y-63185438D01*
X50585714Y-63185438D02*
X50585714Y-63233057D01*
X50585714Y-63233057D02*
X50633333Y-63328295D01*
X50633333Y-63328295D02*
X50728571Y-63375914D01*
X50728571Y-63375914D02*
X50871428Y-63375914D01*
X50871428Y-63375914D02*
X50966666Y-63423533D01*
X50966666Y-63423533D02*
X51014285Y-63518771D01*
X51014285Y-63518771D02*
X51014285Y-63566390D01*
X51014285Y-63566390D02*
X50966666Y-63661628D01*
X50966666Y-63661628D02*
X50871428Y-63709247D01*
X50871428Y-63709247D02*
X50728571Y-63709247D01*
X50728571Y-63709247D02*
X50633333Y-63661628D01*
X50157142Y-63042580D02*
X50157142Y-63709247D01*
X50157142Y-63518771D02*
X50109523Y-63614009D01*
X50109523Y-63614009D02*
X50061904Y-63661628D01*
X50061904Y-63661628D02*
X49966666Y-63709247D01*
X49966666Y-63709247D02*
X49871428Y-63709247D01*
X49157142Y-63090200D02*
X49252380Y-63042580D01*
X49252380Y-63042580D02*
X49442856Y-63042580D01*
X49442856Y-63042580D02*
X49538094Y-63090200D01*
X49538094Y-63090200D02*
X49585713Y-63185438D01*
X49585713Y-63185438D02*
X49585713Y-63566390D01*
X49585713Y-63566390D02*
X49538094Y-63661628D01*
X49538094Y-63661628D02*
X49442856Y-63709247D01*
X49442856Y-63709247D02*
X49252380Y-63709247D01*
X49252380Y-63709247D02*
X49157142Y-63661628D01*
X49157142Y-63661628D02*
X49109523Y-63566390D01*
X49109523Y-63566390D02*
X49109523Y-63471152D01*
X49109523Y-63471152D02*
X49585713Y-63375914D01*
X48252380Y-63090200D02*
X48347618Y-63042580D01*
X48347618Y-63042580D02*
X48538094Y-63042580D01*
X48538094Y-63042580D02*
X48633332Y-63090200D01*
X48633332Y-63090200D02*
X48680951Y-63137819D01*
X48680951Y-63137819D02*
X48728570Y-63233057D01*
X48728570Y-63233057D02*
X48728570Y-63518771D01*
X48728570Y-63518771D02*
X48680951Y-63614009D01*
X48680951Y-63614009D02*
X48633332Y-63661628D01*
X48633332Y-63661628D02*
X48538094Y-63709247D01*
X48538094Y-63709247D02*
X48347618Y-63709247D01*
X48347618Y-63709247D02*
X48252380Y-63661628D01*
X47442856Y-63090200D02*
X47538094Y-63042580D01*
X47538094Y-63042580D02*
X47728570Y-63042580D01*
X47728570Y-63042580D02*
X47823808Y-63090200D01*
X47823808Y-63090200D02*
X47871427Y-63185438D01*
X47871427Y-63185438D02*
X47871427Y-63566390D01*
X47871427Y-63566390D02*
X47823808Y-63661628D01*
X47823808Y-63661628D02*
X47728570Y-63709247D01*
X47728570Y-63709247D02*
X47538094Y-63709247D01*
X47538094Y-63709247D02*
X47442856Y-63661628D01*
X47442856Y-63661628D02*
X47395237Y-63566390D01*
X47395237Y-63566390D02*
X47395237Y-63471152D01*
X47395237Y-63471152D02*
X47871427Y-63375914D01*
X46966665Y-63042580D02*
X46966665Y-63709247D01*
X46966665Y-64042580D02*
X47014284Y-63994961D01*
X47014284Y-63994961D02*
X46966665Y-63947342D01*
X46966665Y-63947342D02*
X46919046Y-63994961D01*
X46919046Y-63994961D02*
X46966665Y-64042580D01*
X46966665Y-64042580D02*
X46966665Y-63947342D01*
X46585713Y-63709247D02*
X46347618Y-63042580D01*
X46347618Y-63042580D02*
X46109523Y-63709247D01*
X45347618Y-63090200D02*
X45442856Y-63042580D01*
X45442856Y-63042580D02*
X45633332Y-63042580D01*
X45633332Y-63042580D02*
X45728570Y-63090200D01*
X45728570Y-63090200D02*
X45776189Y-63185438D01*
X45776189Y-63185438D02*
X45776189Y-63566390D01*
X45776189Y-63566390D02*
X45728570Y-63661628D01*
X45728570Y-63661628D02*
X45633332Y-63709247D01*
X45633332Y-63709247D02*
X45442856Y-63709247D01*
X45442856Y-63709247D02*
X45347618Y-63661628D01*
X45347618Y-63661628D02*
X45299999Y-63566390D01*
X45299999Y-63566390D02*
X45299999Y-63471152D01*
X45299999Y-63471152D02*
X45776189Y-63375914D01*
X44871427Y-63042580D02*
X44871427Y-63709247D01*
X44871427Y-63518771D02*
X44823808Y-63614009D01*
X44823808Y-63614009D02*
X44776189Y-63661628D01*
X44776189Y-63661628D02*
X44680951Y-63709247D01*
X44680951Y-63709247D02*
X44585713Y-63709247D01*
X43728570Y-63042580D02*
X44299998Y-63042580D01*
X44014284Y-63042580D02*
X44014284Y-64042580D01*
X44014284Y-64042580D02*
X44109522Y-63899723D01*
X44109522Y-63899723D02*
X44204760Y-63804485D01*
X44204760Y-63804485D02*
X44299998Y-63756866D01*
D13*
X55407453Y-67581940D02*
X55097929Y-67581940D01*
X55097929Y-67581940D02*
X55264596Y-67391464D01*
X55264596Y-67391464D02*
X55193167Y-67391464D01*
X55193167Y-67391464D02*
X55145548Y-67367654D01*
X55145548Y-67367654D02*
X55121739Y-67343845D01*
X55121739Y-67343845D02*
X55097929Y-67296226D01*
X55097929Y-67296226D02*
X55097929Y-67177178D01*
X55097929Y-67177178D02*
X55121739Y-67129559D01*
X55121739Y-67129559D02*
X55145548Y-67105750D01*
X55145548Y-67105750D02*
X55193167Y-67081940D01*
X55193167Y-67081940D02*
X55336024Y-67081940D01*
X55336024Y-67081940D02*
X55383643Y-67105750D01*
X55383643Y-67105750D02*
X55407453Y-67129559D01*
X54883644Y-67129559D02*
X54859834Y-67105750D01*
X54859834Y-67105750D02*
X54883644Y-67081940D01*
X54883644Y-67081940D02*
X54907453Y-67105750D01*
X54907453Y-67105750D02*
X54883644Y-67129559D01*
X54883644Y-67129559D02*
X54883644Y-67081940D01*
X54693168Y-67581940D02*
X54383644Y-67581940D01*
X54383644Y-67581940D02*
X54550311Y-67391464D01*
X54550311Y-67391464D02*
X54478882Y-67391464D01*
X54478882Y-67391464D02*
X54431263Y-67367654D01*
X54431263Y-67367654D02*
X54407454Y-67343845D01*
X54407454Y-67343845D02*
X54383644Y-67296226D01*
X54383644Y-67296226D02*
X54383644Y-67177178D01*
X54383644Y-67177178D02*
X54407454Y-67129559D01*
X54407454Y-67129559D02*
X54431263Y-67105750D01*
X54431263Y-67105750D02*
X54478882Y-67081940D01*
X54478882Y-67081940D02*
X54621739Y-67081940D01*
X54621739Y-67081940D02*
X54669358Y-67105750D01*
X54669358Y-67105750D02*
X54693168Y-67129559D01*
X54240787Y-67581940D02*
X54074121Y-67081940D01*
X54074121Y-67081940D02*
X53907454Y-67581940D01*
X55097929Y-65018130D02*
X55145548Y-65041940D01*
X55145548Y-65041940D02*
X55216977Y-65041940D01*
X55216977Y-65041940D02*
X55288405Y-65018130D01*
X55288405Y-65018130D02*
X55336024Y-64970511D01*
X55336024Y-64970511D02*
X55359834Y-64922892D01*
X55359834Y-64922892D02*
X55383643Y-64827654D01*
X55383643Y-64827654D02*
X55383643Y-64756226D01*
X55383643Y-64756226D02*
X55359834Y-64660988D01*
X55359834Y-64660988D02*
X55336024Y-64613369D01*
X55336024Y-64613369D02*
X55288405Y-64565750D01*
X55288405Y-64565750D02*
X55216977Y-64541940D01*
X55216977Y-64541940D02*
X55169358Y-64541940D01*
X55169358Y-64541940D02*
X55097929Y-64565750D01*
X55097929Y-64565750D02*
X55074120Y-64589559D01*
X55074120Y-64589559D02*
X55074120Y-64756226D01*
X55074120Y-64756226D02*
X55169358Y-64756226D01*
X54859834Y-64541940D02*
X54859834Y-65041940D01*
X54859834Y-65041940D02*
X54574120Y-64541940D01*
X54574120Y-64541940D02*
X54574120Y-65041940D01*
X54336024Y-64541940D02*
X54336024Y-65041940D01*
X54336024Y-65041940D02*
X54216976Y-65041940D01*
X54216976Y-65041940D02*
X54145548Y-65018130D01*
X54145548Y-65018130D02*
X54097929Y-64970511D01*
X54097929Y-64970511D02*
X54074119Y-64922892D01*
X54074119Y-64922892D02*
X54050310Y-64827654D01*
X54050310Y-64827654D02*
X54050310Y-64756226D01*
X54050310Y-64756226D02*
X54074119Y-64660988D01*
X54074119Y-64660988D02*
X54097929Y-64613369D01*
X54097929Y-64613369D02*
X54145548Y-64565750D01*
X54145548Y-64565750D02*
X54216976Y-64541940D01*
X54216976Y-64541940D02*
X54336024Y-64541940D01*
X39843333Y-60779559D02*
X39867142Y-60755750D01*
X39867142Y-60755750D02*
X39938571Y-60731940D01*
X39938571Y-60731940D02*
X39986190Y-60731940D01*
X39986190Y-60731940D02*
X40057618Y-60755750D01*
X40057618Y-60755750D02*
X40105237Y-60803369D01*
X40105237Y-60803369D02*
X40129047Y-60850988D01*
X40129047Y-60850988D02*
X40152856Y-60946226D01*
X40152856Y-60946226D02*
X40152856Y-61017654D01*
X40152856Y-61017654D02*
X40129047Y-61112892D01*
X40129047Y-61112892D02*
X40105237Y-61160511D01*
X40105237Y-61160511D02*
X40057618Y-61208130D01*
X40057618Y-61208130D02*
X39986190Y-61231940D01*
X39986190Y-61231940D02*
X39938571Y-61231940D01*
X39938571Y-61231940D02*
X39867142Y-61208130D01*
X39867142Y-61208130D02*
X39843333Y-61184321D01*
X39652856Y-60874797D02*
X39414761Y-60874797D01*
X39700475Y-60731940D02*
X39533809Y-61231940D01*
X39533809Y-61231940D02*
X39367142Y-60731940D01*
X39200476Y-60731940D02*
X39200476Y-61231940D01*
X39200476Y-61231940D02*
X38914762Y-60731940D01*
X38914762Y-60731940D02*
X38914762Y-61231940D01*
X38676666Y-60731940D02*
X38676666Y-61231940D01*
X38676666Y-60993845D02*
X38390952Y-60993845D01*
X38390952Y-60731940D02*
X38390952Y-61231940D01*
X55074120Y-62049559D02*
X55097929Y-62025750D01*
X55097929Y-62025750D02*
X55169358Y-62001940D01*
X55169358Y-62001940D02*
X55216977Y-62001940D01*
X55216977Y-62001940D02*
X55288405Y-62025750D01*
X55288405Y-62025750D02*
X55336024Y-62073369D01*
X55336024Y-62073369D02*
X55359834Y-62120988D01*
X55359834Y-62120988D02*
X55383643Y-62216226D01*
X55383643Y-62216226D02*
X55383643Y-62287654D01*
X55383643Y-62287654D02*
X55359834Y-62382892D01*
X55359834Y-62382892D02*
X55336024Y-62430511D01*
X55336024Y-62430511D02*
X55288405Y-62478130D01*
X55288405Y-62478130D02*
X55216977Y-62501940D01*
X55216977Y-62501940D02*
X55169358Y-62501940D01*
X55169358Y-62501940D02*
X55097929Y-62478130D01*
X55097929Y-62478130D02*
X55074120Y-62454321D01*
X54883643Y-62144797D02*
X54645548Y-62144797D01*
X54931262Y-62001940D02*
X54764596Y-62501940D01*
X54764596Y-62501940D02*
X54597929Y-62001940D01*
X54431263Y-62001940D02*
X54431263Y-62501940D01*
X54431263Y-62501940D02*
X54145549Y-62001940D01*
X54145549Y-62001940D02*
X54145549Y-62501940D01*
X53240787Y-62001940D02*
X53407453Y-62240035D01*
X53526501Y-62001940D02*
X53526501Y-62501940D01*
X53526501Y-62501940D02*
X53336025Y-62501940D01*
X53336025Y-62501940D02*
X53288406Y-62478130D01*
X53288406Y-62478130D02*
X53264596Y-62454321D01*
X53264596Y-62454321D02*
X53240787Y-62406702D01*
X53240787Y-62406702D02*
X53240787Y-62335273D01*
X53240787Y-62335273D02*
X53264596Y-62287654D01*
X53264596Y-62287654D02*
X53288406Y-62263845D01*
X53288406Y-62263845D02*
X53336025Y-62240035D01*
X53336025Y-62240035D02*
X53526501Y-62240035D01*
X53074120Y-62501940D02*
X52740787Y-62001940D01*
X52740787Y-62501940D02*
X53074120Y-62001940D01*
X55074120Y-59509559D02*
X55097929Y-59485750D01*
X55097929Y-59485750D02*
X55169358Y-59461940D01*
X55169358Y-59461940D02*
X55216977Y-59461940D01*
X55216977Y-59461940D02*
X55288405Y-59485750D01*
X55288405Y-59485750D02*
X55336024Y-59533369D01*
X55336024Y-59533369D02*
X55359834Y-59580988D01*
X55359834Y-59580988D02*
X55383643Y-59676226D01*
X55383643Y-59676226D02*
X55383643Y-59747654D01*
X55383643Y-59747654D02*
X55359834Y-59842892D01*
X55359834Y-59842892D02*
X55336024Y-59890511D01*
X55336024Y-59890511D02*
X55288405Y-59938130D01*
X55288405Y-59938130D02*
X55216977Y-59961940D01*
X55216977Y-59961940D02*
X55169358Y-59961940D01*
X55169358Y-59961940D02*
X55097929Y-59938130D01*
X55097929Y-59938130D02*
X55074120Y-59914321D01*
X54883643Y-59604797D02*
X54645548Y-59604797D01*
X54931262Y-59461940D02*
X54764596Y-59961940D01*
X54764596Y-59961940D02*
X54597929Y-59461940D01*
X54431263Y-59461940D02*
X54431263Y-59961940D01*
X54431263Y-59961940D02*
X54145549Y-59461940D01*
X54145549Y-59461940D02*
X54145549Y-59961940D01*
X53597929Y-59961940D02*
X53312215Y-59961940D01*
X53455072Y-59461940D02*
X53455072Y-59961940D01*
X53193168Y-59961940D02*
X52859835Y-59461940D01*
X52859835Y-59961940D02*
X53193168Y-59461940D01*
X39783809Y-65859559D02*
X39807618Y-65835750D01*
X39807618Y-65835750D02*
X39879047Y-65811940D01*
X39879047Y-65811940D02*
X39926666Y-65811940D01*
X39926666Y-65811940D02*
X39998094Y-65835750D01*
X39998094Y-65835750D02*
X40045713Y-65883369D01*
X40045713Y-65883369D02*
X40069523Y-65930988D01*
X40069523Y-65930988D02*
X40093332Y-66026226D01*
X40093332Y-66026226D02*
X40093332Y-66097654D01*
X40093332Y-66097654D02*
X40069523Y-66192892D01*
X40069523Y-66192892D02*
X40045713Y-66240511D01*
X40045713Y-66240511D02*
X39998094Y-66288130D01*
X39998094Y-66288130D02*
X39926666Y-66311940D01*
X39926666Y-66311940D02*
X39879047Y-66311940D01*
X39879047Y-66311940D02*
X39807618Y-66288130D01*
X39807618Y-66288130D02*
X39783809Y-66264321D01*
X39593332Y-65954797D02*
X39355237Y-65954797D01*
X39640951Y-65811940D02*
X39474285Y-66311940D01*
X39474285Y-66311940D02*
X39307618Y-65811940D01*
X39140952Y-65811940D02*
X39140952Y-66311940D01*
X39140952Y-66311940D02*
X38855238Y-65811940D01*
X38855238Y-65811940D02*
X38855238Y-66311940D01*
X38379047Y-65811940D02*
X38617142Y-65811940D01*
X38617142Y-65811940D02*
X38617142Y-66311940D01*
X70675290Y-62349297D02*
X70437195Y-62515963D01*
X70675290Y-62635011D02*
X70175290Y-62635011D01*
X70175290Y-62635011D02*
X70175290Y-62444535D01*
X70175290Y-62444535D02*
X70199100Y-62396916D01*
X70199100Y-62396916D02*
X70222909Y-62373106D01*
X70222909Y-62373106D02*
X70270528Y-62349297D01*
X70270528Y-62349297D02*
X70341957Y-62349297D01*
X70341957Y-62349297D02*
X70389576Y-62373106D01*
X70389576Y-62373106D02*
X70413385Y-62396916D01*
X70413385Y-62396916D02*
X70437195Y-62444535D01*
X70437195Y-62444535D02*
X70437195Y-62635011D01*
X70222909Y-62158820D02*
X70199100Y-62135011D01*
X70199100Y-62135011D02*
X70175290Y-62087392D01*
X70175290Y-62087392D02*
X70175290Y-61968344D01*
X70175290Y-61968344D02*
X70199100Y-61920725D01*
X70199100Y-61920725D02*
X70222909Y-61896916D01*
X70222909Y-61896916D02*
X70270528Y-61873106D01*
X70270528Y-61873106D02*
X70318147Y-61873106D01*
X70318147Y-61873106D02*
X70389576Y-61896916D01*
X70389576Y-61896916D02*
X70675290Y-62182630D01*
X70675290Y-62182630D02*
X70675290Y-61873106D01*
%TO.C,2_PIN_Connector1*%
D15*
X40640000Y-69160000D02*
X33020000Y-69160000D01*
X33020000Y-79320000D01*
X40640000Y-79320000D01*
X40640000Y-69160000D01*
%TO.C,ESP32_UWB1*%
X33020000Y-22860000D02*
X105820000Y-22860000D01*
X105820000Y-55880000D01*
X33020000Y-55880000D01*
X33020000Y-22860000D01*
X33020000Y-30480000D02*
X38100000Y-30480000D01*
X38100000Y-48260000D01*
X33020000Y-48260000D01*
X33020000Y-30480000D01*
X71120000Y-22860000D02*
X83820000Y-22860000D01*
X83820000Y-33020000D01*
X71120000Y-33020000D01*
X71120000Y-22860000D01*
%TO.C,R4*%
X77470000Y-67310000D02*
X80010000Y-67310000D01*
X80010000Y-57150000D01*
X77470000Y-57150000D01*
X77470000Y-67310000D01*
%TO.C,R1*%
X64770000Y-67310000D02*
X67310000Y-67310000D01*
X67310000Y-57150000D01*
X64770000Y-57150000D01*
X64770000Y-67310000D01*
%TO.C,SERVER_LED1*%
X72690000Y-71120000D02*
G75*
G02*
X67010000Y-71120000I-2840000J0D01*
G01*
X67010000Y-71120000D02*
G75*
G02*
X72690000Y-71120000I2840000J0D01*
G01*
%TO.C,5V_Regulator1*%
X42150000Y-69160000D02*
X59650000Y-69160000D01*
X59650000Y-81360000D01*
X42150000Y-81360000D01*
X42150000Y-69160000D01*
%TO.C,R5*%
X82550000Y-67310000D02*
X85090000Y-67310000D01*
X85090000Y-57150000D01*
X82550000Y-57150000D01*
X82550000Y-67310000D01*
%TO.C,TAG_LED1*%
X85390000Y-71120000D02*
G75*
G02*
X79710000Y-71120000I-2840000J0D01*
G01*
X79710000Y-71120000D02*
G75*
G02*
X85390000Y-71120000I2840000J0D01*
G01*
%TO.C,CAN_Transreceiver1*%
X60020000Y-68580000D02*
X33020000Y-68580000D01*
X33020000Y-58420000D01*
X60020000Y-58420000D01*
X60020000Y-68580000D01*
%TO.C,R2*%
X69850000Y-67310000D02*
X72390000Y-67310000D01*
X72390000Y-57150000D01*
X69850000Y-57150000D01*
X69850000Y-67310000D01*
%TD*%
M02*
