M48
; DRILL file {KiCad 9.0.0} date 2025-03-09T03:25:38-0700
; FORMAT={-:-/ absolute / metric / decimal}
; #@! TF.CreationDate,2025-03-09T03:25:38-07:00
; #@! TF.GenerationSoftware,Kicad,Pcbnew,9.0.0
; #@! TF.FileFunction,Plated,1,2,PTH
FMAT,2
METRIC
; #@! TA.AperFunction,Plated,PTH,ComponentDrill
T1C0.800
; #@! TA.AperFunction,Plated,PTH,ComponentDrill
T2C1.100
%
G90
G05
T1
X24.13Y-66.04
X24.13Y-71.12
X25.4Y-20.32
X25.4Y-48.26
X27.94Y-20.32
X27.94Y-48.26
X30.48Y-20.32
X30.48Y-48.26
X31.04Y-64.54
X31.04Y-72.82
X33.02Y-20.32
X33.02Y-48.26
X35.56Y-20.32
X35.56Y-48.26
X38.1Y-20.32
X38.1Y-48.26
X40.64Y-20.32
X40.64Y-48.26
X43.18Y-20.32
X43.18Y-48.26
X45.36Y-64.54
X45.36Y-72.82
X45.72Y-20.32
X45.72Y-48.26
X48.26Y-20.32
X48.26Y-48.26
X50.8Y-20.32
X50.8Y-48.26
X50.8Y-66.04
X53.34Y-20.32
X53.34Y-48.26
X53.34Y-52.07
X53.34Y-59.69
X53.34Y-66.04
X55.88Y-48.26
X55.88Y-52.07
X55.88Y-59.69
X55.88Y-66.04
X58.42Y-48.26
X58.42Y-66.04
X60.96Y-48.26
X60.96Y-52.07
X60.96Y-59.69
X60.96Y-66.04
X63.5Y-48.26
X63.5Y-52.07
X63.5Y-59.69
X63.5Y-66.04
X66.04Y-48.26
X66.04Y-66.04
X68.58Y-48.26
X68.58Y-66.04
X71.12Y-48.26
X73.66Y-48.26
T2
X24.02Y-53.34
X24.02Y-58.42
X30.62Y-54.61
X30.62Y-57.15
X44.32Y-52.07
X44.32Y-54.61
X44.32Y-57.15
X44.32Y-59.69
M30
