M48
; DRILL file {KiCad 9.0.0} date 2025-03-02T10:48:21-0800
; FORMAT={-:-/ absolute / metric / decimal}
; #@! TF.CreationDate,2025-03-02T10:48:21-08:00
; #@! TF.GenerationSoftware,Kicad,Pcbnew,9.0.0
; #@! TF.FileFunction,Plated,1,2,PTH
FMAT,2
METRIC
; #@! TA.AperFunction,Plated,PTH,ComponentDrill
T1C0.800
; #@! TA.AperFunction,Plated,PTH,ComponentDrill
T2C1.100
%
G90
G05
T1
X36.83Y-71.7
X36.83Y-76.78
X38.1Y-25.4
X38.1Y-53.34
X40.64Y-25.4
X40.64Y-53.34
X43.18Y-25.4
X43.18Y-53.34
X43.74Y-71.12
X43.74Y-79.4
X45.72Y-25.4
X45.72Y-53.34
X48.26Y-25.4
X48.26Y-53.34
X50.8Y-25.4
X50.8Y-53.34
X53.34Y-25.4
X53.34Y-53.34
X55.88Y-25.4
X55.88Y-53.34
X58.06Y-71.12
X58.06Y-79.4
X58.42Y-25.4
X58.42Y-53.34
X60.96Y-25.4
X60.96Y-53.34
X63.5Y-25.4
X63.5Y-53.34
X66.04Y-25.4
X66.04Y-53.34
X66.04Y-58.42
X66.04Y-66.04
X66.04Y-71.12
X68.58Y-53.34
X68.58Y-71.12
X71.12Y-53.34
X71.12Y-58.42
X71.12Y-66.04
X71.12Y-71.12
X73.66Y-53.34
X73.66Y-71.12
X76.2Y-53.34
X78.74Y-53.34
X78.74Y-58.42
X78.74Y-66.04
X78.74Y-71.12
X81.28Y-53.34
X81.28Y-71.12
X83.82Y-53.34
X83.82Y-58.42
X83.82Y-66.04
X83.82Y-71.12
X86.36Y-53.34
X86.36Y-71.12
T2
X36.72Y-60.96
X36.72Y-66.04
X43.32Y-62.23
X43.32Y-64.77
X57.02Y-59.69
X57.02Y-62.23
X57.02Y-64.77
X57.02Y-67.31
M30
