M48
; DRILL file {KiCad 9.0.0} date 2025-03-06T19:28:17-0800
; FORMAT={-:-/ absolute / metric / decimal}
; #@! TF.CreationDate,2025-03-06T19:28:17-08:00
; #@! TF.GenerationSoftware,Kicad,Pcbnew,9.0.0
; #@! TF.FileFunction,Plated,1,2,PTH
FMAT,2
METRIC
; #@! TA.AperFunction,Plated,PTH,ComponentDrill
T1C0.800
; #@! TA.AperFunction,Plated,PTH,ComponentDrill
T2C1.100
%
G90
G05
T1
X130.81Y-117.42
X130.81Y-122.5
X132.08Y-71.12
X132.08Y-99.06
X134.62Y-71.12
X134.62Y-99.06
X137.16Y-71.12
X137.16Y-99.06
X137.72Y-116.84
X137.72Y-125.12
X139.7Y-71.12
X139.7Y-99.06
X142.24Y-71.12
X142.24Y-99.06
X144.78Y-71.12
X144.78Y-99.06
X147.32Y-71.12
X147.32Y-99.06
X149.86Y-71.12
X149.86Y-99.06
X152.04Y-116.84
X152.04Y-125.12
X152.4Y-71.12
X152.4Y-99.06
X154.94Y-71.12
X154.94Y-99.06
X157.48Y-71.12
X157.48Y-99.06
X160.02Y-71.12
X160.02Y-99.06
X160.02Y-102.87
X160.02Y-110.49
X160.02Y-116.84
X162.56Y-99.06
X162.56Y-102.87
X162.56Y-110.49
X162.56Y-116.84
X165.1Y-99.06
X165.1Y-116.84
X167.64Y-99.06
X167.64Y-102.87
X167.64Y-110.49
X167.64Y-116.84
X170.18Y-99.06
X170.18Y-102.87
X170.18Y-110.49
X172.72Y-99.06
X172.72Y-116.84
X175.26Y-99.06
X175.26Y-116.84
X177.8Y-99.06
X177.8Y-116.84
X180.34Y-99.06
X180.34Y-116.84
T2
X130.7Y-106.68
X130.7Y-111.76
X137.3Y-107.95
X137.3Y-110.49
X151.0Y-105.41
X151.0Y-107.95
X151.0Y-110.49
X151.0Y-113.03
M30
