%TF.GenerationSoftware,KiCad,Pcbnew,9.0.0*%
%TF.CreationDate,2025-03-08T00:24:41-08:00*%
%TF.ProjectId,sensor,73656e73-6f72-42e6-9b69-6361645f7063,v0.2*%
%TF.SameCoordinates,Original*%
%TF.FileFunction,Legend,Top*%
%TF.FilePolarity,Positive*%
%FSLAX46Y46*%
G04 Gerber Fmt 4.6, Leading zero omitted, Abs format (unit mm)*
G04 Created by KiCad (PCBNEW 9.0.0) date 2025-03-08 00:24:41*
%MOMM*%
%LPD*%
G01*
G04 APERTURE LIST*
%ADD10C,0.150000*%
%ADD11C,0.400000*%
%ADD12C,0.500000*%
%ADD13C,0.250000*%
%ADD14C,0.100000*%
%ADD15C,0.062500*%
G04 APERTURE END LIST*
D10*
G36*
X199676209Y-121922679D02*
G01*
X199672271Y-121701212D01*
X199675102Y-121539986D01*
X199680606Y-121480661D01*
X199692146Y-121432392D01*
X199702588Y-121408212D01*
X199720265Y-121380918D01*
X199746674Y-121372494D01*
X199770273Y-121380918D01*
X199787035Y-121387238D01*
X199809932Y-121395664D01*
X199832922Y-121403999D01*
X199852797Y-121417646D01*
X199862847Y-121434664D01*
X199868459Y-121466006D01*
X199870566Y-121643418D01*
X199874779Y-121943745D01*
X199879498Y-122068508D01*
X199876885Y-122094870D01*
X199855446Y-122121250D01*
X199834937Y-122128484D01*
X199813962Y-122136269D01*
X199801195Y-122144322D01*
X199780440Y-122140208D01*
X199734278Y-122140208D01*
X199694528Y-122141399D01*
X199686821Y-122135865D01*
X199683995Y-122124271D01*
X199679140Y-122108609D01*
X199680056Y-122096977D01*
X199683263Y-122070202D01*
X199676209Y-121922679D01*
G37*
G36*
X199676209Y-120981856D02*
G01*
X199672271Y-120760388D01*
X199675102Y-120599162D01*
X199680606Y-120539837D01*
X199692146Y-120491569D01*
X199702588Y-120467389D01*
X199720265Y-120440095D01*
X199746674Y-120431670D01*
X199770273Y-120440095D01*
X199787035Y-120446414D01*
X199809932Y-120454841D01*
X199832922Y-120463175D01*
X199852797Y-120476823D01*
X199862847Y-120493841D01*
X199868459Y-120525183D01*
X199870566Y-120702595D01*
X199874779Y-121002922D01*
X199879498Y-121127684D01*
X199876885Y-121154047D01*
X199855446Y-121180426D01*
X199834937Y-121187661D01*
X199813962Y-121195446D01*
X199801195Y-121203499D01*
X199780440Y-121199384D01*
X199734278Y-121199384D01*
X199694528Y-121200575D01*
X199686821Y-121195042D01*
X199683995Y-121183448D01*
X199679140Y-121167786D01*
X199680056Y-121156153D01*
X199683263Y-121129379D01*
X199676209Y-120981856D01*
G37*
G36*
X199227029Y-118364016D02*
G01*
X199265057Y-118403750D01*
X199300572Y-118448239D01*
X199344650Y-118485541D01*
X199366723Y-118508622D01*
X199380370Y-118521170D01*
X199395025Y-118526482D01*
X199403360Y-118535916D01*
X199413893Y-118545258D01*
X199424334Y-118546358D01*
X199429646Y-118542144D01*
X199428547Y-118548373D01*
X199425080Y-118558995D01*
X199441095Y-118563119D01*
X199453735Y-118567332D01*
X199459963Y-118569439D01*
X199462069Y-118568431D01*
X199462069Y-118571545D01*
X199471503Y-118584185D01*
X199487257Y-118592519D01*
X199499897Y-118598748D01*
X199520871Y-118620821D01*
X199531312Y-118636483D01*
X199537632Y-118647016D01*
X199550180Y-118653336D01*
X199554174Y-118650208D01*
X199543860Y-118634377D01*
X199539647Y-118630255D01*
X199530380Y-118619693D01*
X199533419Y-118617615D01*
X199548073Y-118626042D01*
X199556408Y-118641704D01*
X199571154Y-118658465D01*
X199602570Y-118672021D01*
X199620430Y-118680447D01*
X199633986Y-118684660D01*
X199640306Y-118684660D01*
X199642412Y-118688873D01*
X199667600Y-118684660D01*
X199677019Y-118679328D01*
X199678041Y-118674127D01*
X199678041Y-118669914D01*
X199694802Y-118676234D01*
X199715777Y-118679439D01*
X199726310Y-118680447D01*
X199745177Y-118687774D01*
X199761939Y-118690888D01*
X199772380Y-118695010D01*
X199826968Y-118714977D01*
X199878259Y-118726426D01*
X199886686Y-118729631D01*
X199923414Y-118740073D01*
X199968476Y-118749507D01*
X199982032Y-118749507D01*
X200005113Y-118748499D01*
X200032407Y-118749507D01*
X200062815Y-118752621D01*
X200097345Y-118755735D01*
X200107878Y-118761963D01*
X200097345Y-118768283D01*
X200084797Y-118770389D01*
X200097345Y-118774603D01*
X200118411Y-118775610D01*
X200120426Y-118770389D01*
X200114106Y-118761047D01*
X200120426Y-118758940D01*
X200129860Y-118758940D01*
X200144515Y-118758940D01*
X200155366Y-118760285D01*
X200165489Y-118753720D01*
X200170710Y-118751613D01*
X200173915Y-118756925D01*
X200191684Y-118757933D01*
X200209709Y-118760797D01*
X200216871Y-118767367D01*
X200223706Y-118772229D01*
X200242059Y-118774511D01*
X200273475Y-118770389D01*
X200269262Y-118766268D01*
X200258820Y-118762146D01*
X200268254Y-118760040D01*
X200288221Y-118762146D01*
X200300769Y-118768466D01*
X200319637Y-118771672D01*
X200338504Y-118766359D01*
X200323850Y-118764253D01*
X200312093Y-118763413D01*
X200309104Y-118758025D01*
X200317530Y-118751705D01*
X200357372Y-118757933D01*
X200382468Y-118755826D01*
X200398222Y-118751613D01*
X200411869Y-118753720D01*
X200425424Y-118761139D01*
X200439071Y-118757933D01*
X200451711Y-118751613D01*
X200460046Y-118749598D01*
X200466366Y-118745477D01*
X200483127Y-118737050D01*
X200490362Y-118732837D01*
X200495583Y-118739157D01*
X200507032Y-118747492D01*
X200520587Y-118753720D01*
X200530937Y-118758849D01*
X200540280Y-118765077D01*
X200560063Y-118780648D01*
X200571547Y-118793851D01*
X200564276Y-118807575D01*
X200557957Y-118818017D01*
X200560063Y-118837800D01*
X200562547Y-118853060D01*
X200568398Y-118859599D01*
X200578343Y-118861996D01*
X200580854Y-118857492D01*
X200582549Y-118851219D01*
X200587174Y-118853371D01*
X200591296Y-118863812D01*
X200584060Y-118876269D01*
X200576916Y-118886618D01*
X200572978Y-118892847D01*
X200569131Y-118901090D01*
X200564275Y-118913272D01*
X200548156Y-118917759D01*
X200539282Y-118920337D01*
X200533410Y-118928292D01*
X200504101Y-118948534D01*
X200466366Y-118962364D01*
X200452718Y-118967677D01*
X200446178Y-118969698D01*
X200431744Y-118964562D01*
X200419572Y-118955517D01*
X200418097Y-118949816D01*
X200414983Y-118946702D01*
X200402435Y-118941390D01*
X200392691Y-118936171D01*
X200372027Y-118936169D01*
X200296556Y-118941390D01*
X200047062Y-118951923D01*
X199968476Y-118955037D01*
X199967377Y-118963830D01*
X199961149Y-118965936D01*
X199932848Y-118966669D01*
X199876244Y-118966669D01*
X199780806Y-118966669D01*
X199759832Y-118968867D01*
X199751406Y-118970974D01*
X199721695Y-118965679D01*
X199701122Y-118970974D01*
X199640306Y-119017594D01*
X199547066Y-119070716D01*
X199413893Y-119134372D01*
X199348954Y-119156720D01*
X199322158Y-119167233D01*
X199317447Y-119172657D01*
X199294366Y-119188594D01*
X199262950Y-119200226D01*
X199241976Y-119207737D01*
X199203233Y-119215156D01*
X199181739Y-119212057D01*
X199170718Y-119204531D01*
X199161284Y-119185388D01*
X199164398Y-119170551D01*
X199168612Y-119153606D01*
X199180152Y-119119626D01*
X199195814Y-119096270D01*
X199204241Y-119081341D01*
X199219594Y-119058147D01*
X199253517Y-119025104D01*
X199291024Y-118998333D01*
X199311127Y-118992131D01*
X199353076Y-118977568D01*
X199368830Y-118965020D01*
X199380370Y-118958701D01*
X199386598Y-118957601D01*
X199407573Y-118947160D01*
X199428547Y-118935711D01*
X199431295Y-118934337D01*
X200035979Y-118934337D01*
X200042299Y-118938551D01*
X200046512Y-118938551D01*
X200059060Y-118934337D01*
X200048619Y-118930124D01*
X200035979Y-118934337D01*
X199431295Y-118934337D01*
X199436974Y-118931498D01*
X199447415Y-118927376D01*
X199445308Y-118923163D01*
X199442194Y-118923163D01*
X199443202Y-118921057D01*
X199453735Y-118924171D01*
X199462069Y-118924171D01*
X199457948Y-118918950D01*
X199452903Y-118917020D01*
X199456683Y-118914166D01*
X200186931Y-118914166D01*
X200191684Y-118923988D01*
X200199443Y-118930877D01*
X200200117Y-118930216D01*
X200232076Y-118930216D01*
X200234182Y-118934337D01*
X200239403Y-118930216D01*
X200237296Y-118926003D01*
X200279245Y-118926003D01*
X200281352Y-118930124D01*
X200285473Y-118926003D01*
X200291793Y-118926003D01*
X200296006Y-118930124D01*
X200314874Y-118926003D01*
X200335848Y-118926003D01*
X200338268Y-118930108D01*
X200348396Y-118926003D01*
X200509780Y-118926003D01*
X200509871Y-118932231D01*
X200517107Y-118930216D01*
X200517107Y-118923896D01*
X200509780Y-118926003D01*
X200348396Y-118926003D01*
X200346290Y-118921789D01*
X200365157Y-118921789D01*
X200373584Y-118923896D01*
X200381919Y-118919683D01*
X200373584Y-118917576D01*
X200365157Y-118921789D01*
X200346290Y-118921789D01*
X200335848Y-118926003D01*
X200314874Y-118926003D01*
X200308554Y-118921789D01*
X200291793Y-118926003D01*
X200285473Y-118926003D01*
X200283367Y-118921789D01*
X200279245Y-118926003D01*
X200237296Y-118926003D01*
X200232076Y-118930216D01*
X200200117Y-118930216D01*
X200204323Y-118926094D01*
X200206430Y-118919866D01*
X200211651Y-118914645D01*
X200269262Y-118913546D01*
X200325956Y-118911073D01*
X200348946Y-118903563D01*
X200363600Y-118898617D01*
X200369920Y-118898617D01*
X200382468Y-118900723D01*
X200395108Y-118899716D01*
X200397214Y-118896510D01*
X200384575Y-118892389D01*
X200369920Y-118898617D01*
X200363600Y-118898617D01*
X200345832Y-118898617D01*
X200317530Y-118900449D01*
X200309104Y-118898617D01*
X200302784Y-118894495D01*
X200292342Y-118899350D01*
X200283916Y-118900449D01*
X200246181Y-118900449D01*
X200208445Y-118904204D01*
X200189577Y-118907959D01*
X200186931Y-118914166D01*
X199456683Y-118914166D01*
X199464176Y-118908509D01*
X199480937Y-118902189D01*
X199494584Y-118894953D01*
X199497359Y-118891381D01*
X200530754Y-118891381D01*
X200537074Y-118900723D01*
X200547607Y-118902830D01*
X200543394Y-118894495D01*
X200535425Y-118889386D01*
X200530754Y-118891381D01*
X199497359Y-118891381D01*
X199501912Y-118885519D01*
X199487805Y-118868209D01*
X200323209Y-118868209D01*
X200350503Y-118871323D01*
X200377705Y-118867201D01*
X200350503Y-118864087D01*
X200323209Y-118868209D01*
X199487805Y-118868209D01*
X199478922Y-118857309D01*
X199441095Y-118829099D01*
X199405466Y-118802904D01*
X199363609Y-118773595D01*
X199362015Y-118772679D01*
X200038086Y-118772679D01*
X200040192Y-118776892D01*
X200044405Y-118772679D01*
X200042299Y-118768466D01*
X200038086Y-118772679D01*
X199362015Y-118772679D01*
X199318194Y-118747492D01*
X199409130Y-118747492D01*
X199453185Y-118768466D01*
X199455292Y-118766359D01*
X199430104Y-118753720D01*
X199409130Y-118747492D01*
X199318194Y-118747492D01*
X199316440Y-118746484D01*
X199305263Y-118741172D01*
X199386049Y-118741172D01*
X199390262Y-118743278D01*
X199394475Y-118741172D01*
X199386049Y-118741172D01*
X199305263Y-118741172D01*
X199294324Y-118735973D01*
X199275498Y-118732837D01*
X199250403Y-118728624D01*
X199216880Y-118709664D01*
X199157071Y-118672845D01*
X199091034Y-118631720D01*
X199033119Y-118594168D01*
X199455292Y-118594168D01*
X199459505Y-118600488D01*
X199463627Y-118596275D01*
X199459505Y-118589955D01*
X199455292Y-118594168D01*
X199033119Y-118594168D01*
X199010347Y-118579403D01*
X198973614Y-118536832D01*
X198965912Y-118510343D01*
X198968394Y-118490487D01*
X198980867Y-118473284D01*
X199011350Y-118452568D01*
X199060626Y-118425183D01*
X199088927Y-118406132D01*
X199144523Y-118372518D01*
X199195814Y-118353467D01*
X199227029Y-118364016D01*
G37*
G36*
X200119877Y-118972989D02*
G01*
X200090476Y-118970882D01*
X200109344Y-118968776D01*
X200171259Y-118966669D01*
X200220535Y-118966669D01*
X200119877Y-118972989D01*
G37*
G36*
X200321652Y-118966669D02*
G01*
X200279795Y-118968776D01*
X200244166Y-118966669D01*
X200265048Y-118962456D01*
X200314728Y-118960206D01*
X200321652Y-118966669D01*
G37*
G36*
X200344733Y-118960258D02*
G01*
X200334291Y-118962364D01*
X200334291Y-118958151D01*
X200342626Y-118958151D01*
X200344733Y-118960258D01*
G37*
G36*
X199996137Y-118743278D02*
G01*
X199992015Y-118747492D01*
X199987802Y-118743278D01*
X199992015Y-118739065D01*
X199996137Y-118743278D01*
G37*
G36*
X199662837Y-118667624D02*
G01*
X199666740Y-118671801D01*
X199656517Y-118678157D01*
X199648183Y-118679256D01*
X199652304Y-118673944D01*
X199652304Y-118667624D01*
X199648183Y-118667624D01*
X199653403Y-118663503D01*
X199662837Y-118667624D01*
G37*
G36*
X199626659Y-118657458D02*
G01*
X199640306Y-118673211D01*
X199635085Y-118667991D01*
X199628695Y-118662746D01*
X199619331Y-118663686D01*
X199615118Y-118661671D01*
X199615118Y-118655351D01*
X199608713Y-118649076D01*
X199610997Y-118644818D01*
X199626659Y-118657458D01*
G37*
G36*
X199765511Y-118669731D02*
G01*
X199759282Y-118671837D01*
X199752963Y-118667716D01*
X199759282Y-118665609D01*
X199765511Y-118669731D01*
G37*
G36*
X199724661Y-118661396D02*
G01*
X199727775Y-118669731D01*
X199719440Y-118669731D01*
X199715227Y-118655076D01*
X199724661Y-118661396D01*
G37*
G36*
X199658624Y-118637216D02*
G01*
X199662837Y-118644543D01*
X199654502Y-118641429D01*
X199650289Y-118634102D01*
X199658624Y-118637216D01*
G37*
G36*
X199409130Y-117853380D02*
G01*
X199403920Y-117824433D01*
X199409130Y-117786152D01*
X199419571Y-117748233D01*
X199435325Y-117691355D01*
X199459413Y-117636492D01*
X199484391Y-117620013D01*
X199523266Y-117618386D01*
X199585259Y-117638599D01*
X199633384Y-117658645D01*
X199715227Y-117684028D01*
X199840982Y-117712421D01*
X199869375Y-117717733D01*
X199910316Y-117727075D01*
X200031810Y-117739181D01*
X200115795Y-117733095D01*
X200172358Y-117714528D01*
X200185692Y-117701892D01*
X200195439Y-117675510D01*
X200198061Y-117645411D01*
X200193333Y-117617533D01*
X200178056Y-117595338D01*
X200136729Y-117562761D01*
X200087044Y-117533844D01*
X200033964Y-117510096D01*
X200002548Y-117499472D01*
X199955202Y-117483295D01*
X199903996Y-117472086D01*
X199887235Y-117465766D01*
X199891300Y-117463148D01*
X199916636Y-117467873D01*
X199949334Y-117474193D01*
X199970400Y-117479505D01*
X199986245Y-117483810D01*
X200021050Y-117493243D01*
X200064281Y-117505883D01*
X200115037Y-117522860D01*
X200192875Y-117567249D01*
X200218245Y-117582087D01*
X200241418Y-117590513D01*
X200251951Y-117590513D01*
X200262484Y-117596925D01*
X200270910Y-117601138D01*
X200275215Y-117601138D01*
X200287385Y-117611202D01*
X200315240Y-117620097D01*
X200332185Y-117631821D01*
X200338265Y-117638759D01*
X200349037Y-117641255D01*
X200361284Y-117645120D01*
X200378621Y-117660214D01*
X200403809Y-117691721D01*
X200418555Y-117711688D01*
X200433393Y-117735777D01*
X200439713Y-117750523D01*
X200446032Y-117792472D01*
X200443484Y-117834765D01*
X200429271Y-117861806D01*
X200422951Y-117872247D01*
X200413426Y-117886993D01*
X200399779Y-117895420D01*
X200389337Y-117903755D01*
X200378542Y-117922010D01*
X200372485Y-117918501D01*
X200359937Y-117922714D01*
X200347297Y-117931049D01*
X200338962Y-117937369D01*
X200313775Y-117954221D01*
X200287488Y-117962556D01*
X200264316Y-117972082D01*
X200230702Y-117984721D01*
X200166588Y-117991957D01*
X200080094Y-117996622D01*
X200017478Y-117989850D01*
X199971316Y-117981515D01*
X199916636Y-117970983D01*
X199883022Y-117973089D01*
X199852994Y-117992322D01*
X199836244Y-118016297D01*
X199830540Y-118046545D01*
X199820171Y-118096395D01*
X199788621Y-118138396D01*
X199729882Y-118174681D01*
X199694633Y-118186848D01*
X199671814Y-118186259D01*
X199656517Y-118176788D01*
X199645482Y-118150422D01*
X199658624Y-118117986D01*
X199668057Y-118090374D01*
X199658624Y-118061291D01*
X199616923Y-118017404D01*
X199532869Y-117960450D01*
X199444759Y-117904854D01*
X199424544Y-117882337D01*
X199409130Y-117853380D01*
G37*
G36*
X199111642Y-117871973D02*
G01*
X199109535Y-117846785D01*
X199111642Y-117804836D01*
X199123890Y-117699362D01*
X199134631Y-117668274D01*
X199151484Y-117657833D01*
X199178687Y-117643178D01*
X199203874Y-117627424D01*
X199229062Y-117617899D01*
X199244982Y-117613418D01*
X199256356Y-117616891D01*
X199265500Y-117627247D01*
X199276231Y-117650505D01*
X199288093Y-117675002D01*
X199304533Y-117695660D01*
X199323401Y-117716634D01*
X199319545Y-117728858D01*
X199304533Y-117746035D01*
X199247930Y-117817384D01*
X199217038Y-117858872D01*
X199205981Y-117863638D01*
X199199661Y-117865744D01*
X199186014Y-117876186D01*
X199161926Y-117878292D01*
X199147271Y-117880399D01*
X199129411Y-117883605D01*
X199111642Y-117871973D01*
G37*
G36*
X200323300Y-117276814D02*
G01*
X200317072Y-117278920D01*
X200305532Y-117278920D01*
X200303425Y-117287347D01*
X200304433Y-117293667D01*
X200300219Y-117289453D01*
X200294999Y-117286339D01*
X200289778Y-117291560D01*
X200287234Y-117295533D01*
X200266697Y-117291560D01*
X200260377Y-117289453D01*
X200260377Y-117285240D01*
X200273017Y-117287347D01*
X200285565Y-117287347D01*
X200283458Y-117281027D01*
X200277230Y-117278920D01*
X200281352Y-117276814D01*
X200298113Y-117272601D01*
X200308999Y-117271488D01*
X200323300Y-117276814D01*
G37*
G36*
X200235190Y-117292476D02*
G01*
X200222642Y-117291468D01*
X200230976Y-117288263D01*
X200247738Y-117288263D01*
X200235190Y-117292476D01*
G37*
G36*
X200352609Y-117284049D02*
G01*
X200346290Y-117288263D01*
X200342076Y-117284049D01*
X200348396Y-117279836D01*
X200352609Y-117284049D01*
G37*
G36*
X200210002Y-117275623D02*
G01*
X200205881Y-117279836D01*
X200203774Y-117275623D01*
X200207987Y-117271410D01*
X200210002Y-117275623D01*
G37*
G36*
X200281260Y-117267288D02*
G01*
X200275032Y-117268296D01*
X200268712Y-117264174D01*
X200275032Y-117263075D01*
X200281260Y-117267288D01*
G37*
G36*
X200400786Y-117263075D02*
G01*
X200396665Y-117267288D01*
X200394558Y-117263075D01*
X200398680Y-117258862D01*
X200400786Y-117263075D01*
G37*
G36*
X199068568Y-116596128D02*
G01*
X199092408Y-116601788D01*
X199121976Y-116622534D01*
X199142783Y-116650239D01*
X199148004Y-116664894D01*
X199130143Y-116660681D01*
X199079860Y-116652346D01*
X199027470Y-116654452D01*
X199013823Y-116671214D01*
X199011715Y-116684045D01*
X199015929Y-116698599D01*
X199040018Y-116727909D01*
X199078327Y-116753558D01*
X199150110Y-116786710D01*
X199228093Y-116814568D01*
X199297938Y-116832963D01*
X199353442Y-116845511D01*
X199396490Y-116853938D01*
X199424891Y-116854676D01*
X199437340Y-116849725D01*
X199443339Y-116834469D01*
X199446774Y-116778375D01*
X199450580Y-116719974D01*
X199459413Y-116688066D01*
X199475189Y-116662284D01*
X199499072Y-116637600D01*
X199531916Y-116616639D01*
X199538914Y-116627158D01*
X199529480Y-116637875D01*
X199524258Y-116641266D01*
X199527374Y-116647583D01*
X199542212Y-116650789D01*
X199549935Y-116649980D01*
X199561537Y-116657200D01*
X199572843Y-116664137D01*
X199579764Y-116662604D01*
X199594785Y-116663612D01*
X199608798Y-116669015D01*
X199622720Y-116659307D01*
X199628859Y-116654341D01*
X199631238Y-116665718D01*
X199631238Y-116700156D01*
X199636550Y-116784970D01*
X199648091Y-116852564D01*
X199662654Y-116867677D01*
X199821656Y-116871890D01*
X200171076Y-116880316D01*
X200350847Y-116904441D01*
X200430645Y-116926570D01*
X200460962Y-116935088D01*
X200492286Y-116946628D01*
X200505841Y-116949834D01*
X200510054Y-116951940D01*
X200516374Y-116956062D01*
X200528506Y-116962819D01*
X200524526Y-116964855D01*
X200528647Y-116969068D01*
X200532861Y-116966961D01*
X200528986Y-116963087D01*
X200537257Y-116967694D01*
X200570779Y-116993981D01*
X200591662Y-117020359D01*
X200594786Y-117032546D01*
X200591662Y-117038127D01*
X200588125Y-117042144D01*
X200589556Y-117052965D01*
X200591662Y-117071833D01*
X200595875Y-117071833D01*
X200600088Y-117067620D01*
X200608423Y-117057178D01*
X200606317Y-117075955D01*
X200596067Y-117116318D01*
X200583327Y-117132466D01*
X200591662Y-117136679D01*
X200602195Y-117136679D01*
X200587449Y-117151334D01*
X200545592Y-117186780D01*
X200526632Y-117199328D01*
X200501536Y-117211876D01*
X200495217Y-117216089D01*
X200491004Y-117224424D01*
X200474242Y-117232850D01*
X200465908Y-117234957D01*
X200465908Y-117239170D01*
X200461694Y-117239170D01*
X200459162Y-117232790D01*
X200470029Y-117222409D01*
X200488897Y-117208762D01*
X200505658Y-117197313D01*
X200528739Y-117181651D01*
X200543394Y-117174323D01*
X200566475Y-117158661D01*
X200579114Y-117140893D01*
X200570740Y-117138833D01*
X200545592Y-117159669D01*
X200527732Y-117174323D01*
X200514084Y-117182567D01*
X200470666Y-117214768D01*
X200426065Y-117239170D01*
X200410312Y-117246497D01*
X200406099Y-117251718D01*
X200406099Y-117254924D01*
X200400878Y-117253824D01*
X200373675Y-117260144D01*
X200344275Y-117266464D01*
X200348488Y-117262251D01*
X200353709Y-117251718D01*
X200354808Y-117247505D01*
X200358929Y-117251718D01*
X200365249Y-117253824D01*
X200369462Y-117247505D01*
X200370561Y-117244391D01*
X200375690Y-117243291D01*
X200379904Y-117243291D01*
X200381003Y-117238071D01*
X200390437Y-117232850D01*
X200400878Y-117226530D01*
X200371569Y-117237063D01*
X200337955Y-117243291D01*
X200348488Y-117237063D01*
X200356823Y-117228728D01*
X200357922Y-117225614D01*
X200361036Y-117226622D01*
X200372950Y-117224586D01*
X200373171Y-117224241D01*
X200428080Y-117224241D01*
X200430095Y-117229461D01*
X200434309Y-117224241D01*
X200432202Y-117218928D01*
X200428080Y-117224241D01*
X200373171Y-117224241D01*
X200375690Y-117220302D01*
X200376789Y-117217188D01*
X200384117Y-117211876D01*
X200392243Y-117206380D01*
X200446948Y-117206380D01*
X200446948Y-117212608D01*
X200455283Y-117210502D01*
X200456382Y-117205373D01*
X200446948Y-117206380D01*
X200392243Y-117206380D01*
X200394900Y-117204583D01*
X200392543Y-117197313D01*
X200386223Y-117195206D01*
X200377797Y-117199419D01*
X200372576Y-117203633D01*
X200372576Y-117197313D01*
X200384117Y-117190993D01*
X200385443Y-117190239D01*
X200397008Y-117190239D01*
X200398771Y-117199419D01*
X200402984Y-117198412D01*
X200408461Y-117193741D01*
X200459496Y-117193741D01*
X200461603Y-117197954D01*
X200466823Y-117193741D01*
X200465770Y-117191634D01*
X200482577Y-117191634D01*
X200490912Y-117189528D01*
X200499338Y-117183208D01*
X200490912Y-117185314D01*
X200482577Y-117191634D01*
X200465770Y-117191634D01*
X200464717Y-117189528D01*
X200459496Y-117193741D01*
X200408461Y-117193741D01*
X200409213Y-117193100D01*
X200417639Y-117190993D01*
X200413426Y-117186780D01*
X200409304Y-117186780D01*
X200397008Y-117190239D01*
X200385443Y-117190239D01*
X200398771Y-117182658D01*
X200420339Y-117166998D01*
X200423959Y-117170110D01*
X200428172Y-117172217D01*
X200428172Y-117168553D01*
X200509780Y-117168553D01*
X200511886Y-117172766D01*
X200516099Y-117168553D01*
X200513993Y-117164340D01*
X200509780Y-117168553D01*
X200428172Y-117168553D01*
X200428172Y-117161775D01*
X200421852Y-117159669D01*
X200424479Y-117156204D01*
X200520871Y-117156204D01*
X200526724Y-117157562D01*
X200532952Y-117153349D01*
X200528739Y-117151334D01*
X200520871Y-117156204D01*
X200424479Y-117156204D01*
X200428172Y-117151334D01*
X200436507Y-117141900D01*
X200445941Y-117125231D01*
X200457481Y-117100135D01*
X200456127Y-117088777D01*
X200563360Y-117088777D01*
X200564460Y-117097112D01*
X200569098Y-117092991D01*
X200587357Y-117092991D01*
X200592578Y-117099219D01*
X200597890Y-117090884D01*
X200595784Y-117085663D01*
X200593677Y-117084564D01*
X200587357Y-117092991D01*
X200569098Y-117092991D01*
X200569818Y-117092351D01*
X200572794Y-117067711D01*
X200568581Y-117057270D01*
X200564368Y-117069910D01*
X200563360Y-117088777D01*
X200456127Y-117088777D01*
X200455837Y-117086349D01*
X200446948Y-117077054D01*
X200429180Y-117064597D01*
X200408205Y-117057270D01*
X200374683Y-117047836D01*
X200347389Y-117042615D01*
X200337955Y-117040509D01*
X200325407Y-117038402D01*
X200314965Y-117038402D01*
X200308646Y-117030067D01*
X200312859Y-117025854D01*
X200325407Y-117025854D01*
X200351693Y-117030067D01*
X200373675Y-117036387D01*
X200396665Y-117044722D01*
X200425974Y-117056354D01*
X200453268Y-117057362D01*
X200457379Y-117053637D01*
X200469022Y-117054248D01*
X200493110Y-117063681D01*
X200505750Y-117067803D01*
X200499092Y-117058466D01*
X200463801Y-117040509D01*
X200419697Y-117024650D01*
X200352701Y-117010284D01*
X200237296Y-116998652D01*
X200226763Y-116995263D01*
X200215223Y-116991874D01*
X200202675Y-116986195D01*
X200191226Y-116986195D01*
X200176480Y-116987294D01*
X200180693Y-116978227D01*
X200186493Y-116971266D01*
X200193333Y-116971266D01*
X200204358Y-116974913D01*
X200306539Y-116990134D01*
X200363142Y-117002773D01*
X200419746Y-117018527D01*
X200459588Y-117032174D01*
X200479995Y-117039118D01*
X200495217Y-117038402D01*
X200467158Y-117024740D01*
X200386223Y-117000667D01*
X200298272Y-116981219D01*
X200226855Y-116971266D01*
X200209086Y-116970258D01*
X200197546Y-116970258D01*
X200193333Y-116971266D01*
X200186493Y-116971266D01*
X200188020Y-116969434D01*
X200176480Y-116969434D01*
X200159719Y-116965221D01*
X200149835Y-116957880D01*
X200147079Y-116965221D01*
X200141858Y-116971541D01*
X200136638Y-116965221D01*
X200130409Y-116958901D01*
X200121983Y-116965221D01*
X200115068Y-116969114D01*
X200081042Y-116971541D01*
X200037994Y-116971541D01*
X200010792Y-116971541D01*
X199985604Y-116975754D01*
X199968843Y-116981891D01*
X199957008Y-116984181D01*
X199954097Y-116989309D01*
X199948876Y-116992424D01*
X199939442Y-116988210D01*
X199935229Y-116988210D01*
X199936328Y-116977769D01*
X199936770Y-116974380D01*
X199947960Y-116974380D01*
X199954280Y-116975388D01*
X199960508Y-116971174D01*
X199954280Y-116970167D01*
X199947960Y-116974380D01*
X199936770Y-116974380D01*
X199937427Y-116969343D01*
X199933214Y-116973556D01*
X199924788Y-116977769D01*
X199922681Y-116975662D01*
X199929527Y-116970115D01*
X199924788Y-116967236D01*
X199916361Y-116967236D01*
X199901707Y-116975662D01*
X199893372Y-116981891D01*
X199891265Y-116973647D01*
X199884945Y-116964213D01*
X199873405Y-116965221D01*
X199792622Y-116971541D01*
X199725722Y-116968763D01*
X199717151Y-116965221D01*
X199715044Y-116963114D01*
X199704603Y-116967328D01*
X199696176Y-116971358D01*
X199702496Y-116975296D01*
X199706612Y-116977540D01*
X199702496Y-116986653D01*
X199696176Y-116988577D01*
X199681522Y-116992332D01*
X199681522Y-116990225D01*
X199685152Y-116982885D01*
X199679415Y-116977769D01*
X199673095Y-116975662D01*
X199681522Y-116973556D01*
X199689856Y-116969434D01*
X199673095Y-116965313D01*
X199660547Y-116967419D01*
X199660547Y-117030067D01*
X199657454Y-117086121D01*
X199652121Y-117101142D01*
X199632028Y-117115607D01*
X199589198Y-117126238D01*
X199562718Y-117135265D01*
X199570330Y-117145197D01*
X199582400Y-117152150D01*
X199578756Y-117153532D01*
X199568407Y-117151517D01*
X199553770Y-117147023D01*
X199540105Y-117150418D01*
X199517024Y-117154631D01*
X199496050Y-117140984D01*
X199484509Y-117124131D01*
X199478189Y-117111584D01*
X199475075Y-117106363D01*
X199484509Y-117105264D01*
X199490737Y-117088594D01*
X199487239Y-117059641D01*
X199478098Y-117040417D01*
X199473583Y-117036459D01*
X199463443Y-116990317D01*
X199457215Y-116971541D01*
X199421586Y-116969434D01*
X199404825Y-116967328D01*
X199398505Y-116958993D01*
X199400612Y-116958993D01*
X199409038Y-116956886D01*
X199427906Y-116952765D01*
X199427348Y-116952215D01*
X199446865Y-116952215D01*
X199451079Y-116954322D01*
X200312859Y-116954322D01*
X200379904Y-116972182D01*
X200455375Y-116996362D01*
X200483676Y-117002682D01*
X200507856Y-117016329D01*
X200529838Y-117029976D01*
X200549713Y-117042524D01*
X200564460Y-117050950D01*
X200560246Y-117042524D01*
X200558140Y-117035197D01*
X200563360Y-117024755D01*
X200560246Y-117015230D01*
X200557041Y-117015230D01*
X200556033Y-117023656D01*
X200556033Y-117034189D01*
X200539272Y-117019443D01*
X200499172Y-116994439D01*
X200562353Y-116994439D01*
X200568581Y-117009093D01*
X200570688Y-117004972D01*
X200562353Y-116994439D01*
X200499172Y-116994439D01*
X200492954Y-116990562D01*
X200409304Y-116966961D01*
X200332734Y-116951208D01*
X200312859Y-116950200D01*
X200312859Y-116954322D01*
X199451079Y-116954322D01*
X199457307Y-116952215D01*
X199446865Y-116952215D01*
X199427348Y-116952215D01*
X199421586Y-116946536D01*
X199390170Y-116946536D01*
X199371303Y-116950658D01*
X199377622Y-116952765D01*
X199375516Y-116956978D01*
X199364983Y-116955970D01*
X199371303Y-116962290D01*
X199376615Y-116967511D01*
X199367090Y-116965404D01*
X199348222Y-116959084D01*
X199333570Y-116955100D01*
X199279071Y-116952765D01*
X199241335Y-116948643D01*
X199237122Y-116950750D01*
X199257089Y-116956978D01*
X199297938Y-116965313D01*
X199337780Y-116969434D01*
X199349321Y-116970533D01*
X199344009Y-116979876D01*
X199332560Y-116981982D01*
X199307372Y-116977769D01*
X199283284Y-116972548D01*
X199268538Y-116969434D01*
X199262309Y-116965221D01*
X199263317Y-116963206D01*
X199260203Y-116963206D01*
X199250769Y-116961099D01*
X199244449Y-116961099D01*
X199228695Y-116961099D01*
X199216147Y-116954871D01*
X199214041Y-116944430D01*
X199218254Y-116944430D01*
X199230802Y-116946536D01*
X199224429Y-116941774D01*
X200285473Y-116941774D01*
X200287580Y-116945987D01*
X200291793Y-116941774D01*
X200289686Y-116937560D01*
X200285473Y-116941774D01*
X199224429Y-116941774D01*
X199222467Y-116940308D01*
X199212903Y-116934578D01*
X199207721Y-116938293D01*
X199197294Y-116942989D01*
X199176305Y-116936187D01*
X199157438Y-116932065D01*
X199136768Y-116927442D01*
X199111276Y-116911182D01*
X199109261Y-116906969D01*
X199111801Y-116902615D01*
X199109469Y-116900873D01*
X200236182Y-116900873D01*
X200247738Y-116906053D01*
X200265544Y-116910845D01*
X200268712Y-116908160D01*
X200257539Y-116903947D01*
X200275032Y-116903947D01*
X200277138Y-116906053D01*
X200283367Y-116903947D01*
X200275032Y-116903947D01*
X200257539Y-116903947D01*
X200251951Y-116901840D01*
X200236182Y-116900873D01*
X199109469Y-116900873D01*
X199100834Y-116894421D01*
X199088286Y-116888193D01*
X199086180Y-116892314D01*
X199054672Y-116871432D01*
X199040018Y-116863005D01*
X198991841Y-116822339D01*
X198937344Y-116764820D01*
X198922598Y-116744029D01*
X198912157Y-116720948D01*
X198907539Y-116681770D01*
X198915844Y-116647680D01*
X198937344Y-116616442D01*
X198956212Y-116593453D01*
X199014830Y-116593453D01*
X199068568Y-116596128D01*
G37*
G36*
X200449146Y-117247505D02*
G01*
X200432294Y-117255839D01*
X200426930Y-117254185D01*
X200436507Y-117247505D01*
X200447040Y-117245398D01*
X200459588Y-117241185D01*
X200449146Y-117247505D01*
G37*
G36*
X200318574Y-117231113D02*
G01*
X200312767Y-117237888D01*
X200307547Y-117239903D01*
X200308554Y-117235781D01*
X200314874Y-117229461D01*
X200318574Y-117231113D01*
G37*
G36*
X200346381Y-117227355D02*
G01*
X200340153Y-117231568D01*
X200328613Y-117228454D01*
X200331727Y-117221035D01*
X200342825Y-117217396D01*
X200346381Y-117227355D01*
G37*
G36*
X200365157Y-117206380D02*
G01*
X200358929Y-117210502D01*
X200352609Y-117209494D01*
X200358929Y-117205373D01*
X200365157Y-117206380D01*
G37*
G36*
X200556033Y-117161775D02*
G01*
X200551820Y-117159669D01*
X200562353Y-117153349D01*
X200566475Y-117153349D01*
X200556033Y-117161775D01*
G37*
G36*
X200616758Y-117159119D02*
G01*
X200610438Y-117160127D01*
X200616758Y-117153807D01*
X200623078Y-117152799D01*
X200616758Y-117159119D01*
G37*
G36*
X200631413Y-117140252D02*
G01*
X200623078Y-117143366D01*
X200631413Y-117133932D01*
X200639839Y-117130726D01*
X200631413Y-117140252D01*
G37*
G36*
X200618865Y-117109752D02*
G01*
X200612545Y-117121292D01*
X200604118Y-117123399D01*
X200606225Y-117111858D01*
X200614651Y-117103432D01*
X200618865Y-117109752D01*
G37*
G36*
X200641946Y-117114972D02*
G01*
X200638740Y-117122300D01*
X200635626Y-117114972D01*
X200638740Y-117107645D01*
X200641946Y-117114972D01*
G37*
G36*
X200207896Y-117025763D02*
G01*
X200203774Y-117027869D01*
X200199561Y-117022649D01*
X200203774Y-117020542D01*
X200207896Y-117025763D01*
G37*
G36*
X200302234Y-117022649D02*
G01*
X200293900Y-117027869D01*
X200285473Y-117024755D01*
X200293900Y-117019443D01*
X200302234Y-117022649D01*
G37*
G36*
X200258271Y-117019534D02*
G01*
X200268712Y-117025854D01*
X200249844Y-117023748D01*
X200237296Y-117017428D01*
X200258271Y-117019534D01*
G37*
G36*
X200023431Y-117015230D02*
G01*
X200019218Y-117019443D01*
X200015005Y-117015230D01*
X200019218Y-117011017D01*
X200023431Y-117015230D01*
G37*
G36*
X200038086Y-117015230D02*
G01*
X200032865Y-117019443D01*
X200027644Y-117015230D01*
X200032865Y-117011017D01*
X200038086Y-117015230D01*
G37*
G36*
X200221543Y-117014222D02*
G01*
X200222642Y-117019443D01*
X200215314Y-117016329D01*
X200214215Y-117011017D01*
X200221543Y-117014222D01*
G37*
G36*
X200126196Y-117006803D02*
G01*
X200121983Y-117011017D01*
X200086354Y-117017336D01*
X200077928Y-117015230D01*
X200092674Y-117009002D01*
X200115755Y-117003781D01*
X200126196Y-117006803D01*
G37*
G36*
X200172267Y-117017336D02*
G01*
X200168053Y-117015230D01*
X200176480Y-117015230D01*
X200172267Y-117017336D01*
G37*
G36*
X200054847Y-117015230D02*
G01*
X200050725Y-117016329D01*
X200046512Y-117012116D01*
X200050725Y-117011017D01*
X200054847Y-117015230D01*
G37*
G36*
X199727775Y-117008910D02*
G01*
X199713121Y-117015230D01*
X199707909Y-117013777D01*
X199713121Y-117008910D01*
X199721547Y-117006803D01*
X199731988Y-117003781D01*
X199727775Y-117008910D01*
G37*
G36*
X199780257Y-117013123D02*
G01*
X199771830Y-117015230D01*
X199763404Y-117011017D01*
X199771830Y-117008910D01*
X199780257Y-117013123D01*
G37*
G36*
X199740323Y-117002865D02*
G01*
X199742338Y-116998652D01*
X199746551Y-116998652D01*
X199740323Y-117002865D01*
G37*
G36*
X200109344Y-116981891D02*
G01*
X200083148Y-116989218D01*
X200044314Y-116992332D01*
X200029568Y-116992332D01*
X200031674Y-116990683D01*
X200035887Y-116983997D01*
X200037994Y-116983997D01*
X200056862Y-116983997D01*
X200091833Y-116978191D01*
X200109344Y-116981891D01*
G37*
G36*
X199769815Y-116985829D02*
G01*
X199757176Y-116992149D01*
X199761389Y-116985829D01*
X199773937Y-116979509D01*
X199769815Y-116985829D01*
G37*
G36*
X200142866Y-116979876D02*
G01*
X200148631Y-116985951D01*
X200144881Y-116990409D01*
X200136546Y-116985188D01*
X200132333Y-116986195D01*
X200128120Y-116986195D01*
X200131310Y-116979633D01*
X200142866Y-116979876D01*
G37*
G36*
X199801231Y-116979601D02*
G01*
X199797018Y-116983722D01*
X199796010Y-116979601D01*
X199800224Y-116975388D01*
X199801231Y-116979601D01*
G37*
G36*
X199847301Y-116979509D02*
G01*
X199843088Y-116977403D01*
X199851515Y-116977403D01*
X199847301Y-116979509D01*
G37*
G36*
X200528986Y-116963087D02*
G01*
X200528506Y-116962819D01*
X200528647Y-116962748D01*
X200528986Y-116963087D01*
G37*
G36*
X200059243Y-115538507D02*
G01*
X200088644Y-115542720D01*
X200124273Y-115552978D01*
X200167229Y-115563237D01*
X200207071Y-115572670D01*
X200230061Y-115582013D01*
X200260377Y-115596118D01*
X200297783Y-115611308D01*
X200304433Y-115605552D01*
X200309449Y-115601804D01*
X200319087Y-115610131D01*
X200332734Y-115610131D01*
X200337432Y-115607565D01*
X200337955Y-115597583D01*
X200338046Y-115590256D01*
X200354808Y-115606010D01*
X200370947Y-115627749D01*
X200375690Y-115647500D01*
X200371724Y-115671284D01*
X200355082Y-115718117D01*
X200337953Y-115744928D01*
X200308371Y-115771057D01*
X200272803Y-115791551D01*
X200234823Y-115805220D01*
X200202956Y-115820486D01*
X200193333Y-115846711D01*
X200218428Y-115866586D01*
X200241418Y-115885454D01*
X200245631Y-115888568D01*
X200274940Y-115905238D01*
X200310690Y-115940536D01*
X200333467Y-115982540D01*
X200347114Y-116011758D01*
X200363875Y-116050409D01*
X200377339Y-116084848D01*
X200381552Y-116126613D01*
X200375232Y-116185140D01*
X200362169Y-116226872D01*
X200336581Y-116275998D01*
X200304836Y-116319967D01*
X200278970Y-116343776D01*
X200223376Y-116374896D01*
X200180601Y-116391861D01*
X200117770Y-116408622D01*
X200079351Y-116415934D01*
X200011066Y-116419063D01*
X199941263Y-116414932D01*
X199891723Y-116404226D01*
X199838214Y-116385649D01*
X199772380Y-116355499D01*
X199710480Y-116319940D01*
X199641496Y-116266564D01*
X199581793Y-116207369D01*
X199554576Y-116166913D01*
X199508598Y-116054623D01*
X199502278Y-115997470D01*
X199502278Y-115957170D01*
X199524563Y-115913572D01*
X199627208Y-115913572D01*
X199629315Y-115937386D01*
X199636642Y-115953964D01*
X199648183Y-115981991D01*
X199695352Y-116025497D01*
X199761389Y-116066896D01*
X199797018Y-116087687D01*
X199826419Y-116099044D01*
X199866169Y-116114523D01*
X199930488Y-116135142D01*
X200035979Y-116143558D01*
X200080675Y-116140424D01*
X200105222Y-116133116D01*
X200144119Y-116103852D01*
X200152711Y-116075455D01*
X200136638Y-116041342D01*
X200111740Y-116015892D01*
X200059060Y-115976587D01*
X199954280Y-115916045D01*
X199854060Y-115876119D01*
X199817992Y-115868052D01*
X199773937Y-115878310D01*
X199731448Y-115892929D01*
X199690040Y-115890858D01*
X199648552Y-115883319D01*
X199635543Y-115886645D01*
X199627208Y-115913572D01*
X199524563Y-115913572D01*
X199531679Y-115899651D01*
X199535479Y-115892598D01*
X199564285Y-115892598D01*
X199570605Y-115882065D01*
X199576833Y-115866311D01*
X199576833Y-115858984D01*
X199568498Y-115873639D01*
X199564285Y-115892598D01*
X199535479Y-115892598D01*
X199558807Y-115849296D01*
X199571338Y-115835812D01*
X199587125Y-115823258D01*
X199590205Y-115810166D01*
X199596525Y-115801740D01*
X199603944Y-115796427D01*
X199602845Y-115784612D01*
X199596525Y-115774079D01*
X199589124Y-115756251D01*
X199600738Y-115733504D01*
X199617694Y-115721155D01*
X199642595Y-115712347D01*
X199697868Y-115703869D01*
X199745177Y-115708134D01*
X199818476Y-115719370D01*
X199877069Y-115718575D01*
X199941458Y-115714296D01*
X200004838Y-115701447D01*
X200061060Y-115681988D01*
X200084339Y-115667009D01*
X200092674Y-115645577D01*
X200082378Y-115618157D01*
X200044170Y-115590129D01*
X199983768Y-115570197D01*
X200170252Y-115570197D01*
X200180785Y-115580639D01*
X200225811Y-115604600D01*
X200243616Y-115605826D01*
X200246456Y-115602858D01*
X200236380Y-115594377D01*
X200215406Y-115584852D01*
X200191226Y-115576517D01*
X200170252Y-115570197D01*
X199983768Y-115570197D01*
X199956570Y-115561222D01*
X199944022Y-115557100D01*
X199948235Y-115552978D01*
X199962889Y-115552978D01*
X199981757Y-115550872D01*
X199976743Y-115544987D01*
X199950341Y-115538507D01*
X199939319Y-115533185D01*
X199948235Y-115525867D01*
X199954463Y-115523761D01*
X199988986Y-115522481D01*
X200059243Y-115538507D01*
G37*
G36*
X200291243Y-114313751D02*
G01*
X200294357Y-114320071D01*
X200302692Y-114327490D01*
X200298571Y-114334817D01*
X200295457Y-114339030D01*
X200303791Y-114341045D01*
X200311119Y-114347365D01*
X200309012Y-114360005D01*
X200310111Y-114362111D01*
X200313225Y-114362111D01*
X200317438Y-114366324D01*
X200322659Y-114377865D01*
X200328979Y-114393619D01*
X200334200Y-114410380D01*
X200336306Y-114422928D01*
X200340519Y-114431354D01*
X200344641Y-114440880D01*
X200353067Y-114462953D01*
X200359387Y-114477608D01*
X200363600Y-114503803D01*
X200369829Y-114554086D01*
X200374042Y-114580281D01*
X200378163Y-114574053D01*
X200381369Y-114568832D01*
X200388696Y-114571946D01*
X200386590Y-114576068D01*
X200386590Y-114584494D01*
X200386590Y-114638075D01*
X200384483Y-114687260D01*
X200384787Y-114695528D01*
X200374042Y-114718767D01*
X200346748Y-114756594D01*
X200310981Y-114779466D01*
X200251531Y-114796010D01*
X200158070Y-114802664D01*
X200070815Y-114799268D01*
X200000808Y-114790025D01*
X199944205Y-114779492D01*
X199917002Y-114771157D01*
X199840725Y-114740019D01*
X199824678Y-114737543D01*
X199780715Y-114724903D01*
X199681701Y-114692816D01*
X199624554Y-114684344D01*
X199594052Y-114689183D01*
X199581664Y-114702930D01*
X199579398Y-114735436D01*
X199587824Y-114765845D01*
X199602479Y-114795245D01*
X199612920Y-114804679D01*
X199621346Y-114807885D01*
X199617133Y-114809900D01*
X199612920Y-114810907D01*
X199618232Y-114820250D01*
X199627666Y-114821257D01*
X199629681Y-114827485D01*
X199629681Y-114833714D01*
X199630780Y-114836828D01*
X199631788Y-114835729D01*
X199654869Y-114854505D01*
X199738766Y-114923839D01*
X199782537Y-114950083D01*
X199803704Y-114955988D01*
X199821564Y-114959193D01*
X199851973Y-114968627D01*
X199923467Y-114987080D01*
X200000808Y-115014789D01*
X200061625Y-115037870D01*
X200183258Y-115088337D01*
X200195806Y-115092550D01*
X200210552Y-115100976D01*
X200229419Y-115106197D01*
X200242975Y-115107205D01*
X200262850Y-115113524D01*
X200274482Y-115115631D01*
X200277596Y-115121951D01*
X200286023Y-115126072D01*
X200295151Y-115128111D01*
X200304890Y-115140819D01*
X200321652Y-115161793D01*
X200329986Y-115171318D01*
X200336306Y-115174432D01*
X200350961Y-115178646D01*
X200351968Y-115184874D01*
X200344641Y-115190186D01*
X200355174Y-115204841D01*
X200374042Y-115216381D01*
X200371935Y-115222701D01*
X200365615Y-115229021D01*
X200371935Y-115235340D01*
X200387689Y-115254208D01*
X200390803Y-115268863D01*
X200376148Y-115276282D01*
X200367036Y-115281464D01*
X200365615Y-115289929D01*
X200362501Y-115301469D01*
X200336306Y-115310903D01*
X200321652Y-115324550D01*
X200312822Y-115332907D01*
X200296464Y-115336091D01*
X200262850Y-115329771D01*
X200246089Y-115323543D01*
X200253416Y-115330870D01*
X200261843Y-115340304D01*
X200252409Y-115342410D01*
X200237754Y-115346624D01*
X200232552Y-115350208D01*
X200212567Y-115349829D01*
X200188478Y-115346624D01*
X200182158Y-115334076D01*
X200169610Y-115321436D01*
X200149735Y-115314109D01*
X200118228Y-115304583D01*
X200099360Y-115298355D01*
X200086812Y-115275183D01*
X200074173Y-115247980D01*
X200028102Y-115233325D01*
X199958859Y-115208138D01*
X199890679Y-115186901D01*
X199877160Y-115187072D01*
X199876153Y-115190278D01*
X199881282Y-115191285D01*
X199923230Y-115203925D01*
X199964172Y-115220686D01*
X199961058Y-115222793D01*
X199925429Y-115212351D01*
X199843546Y-115184965D01*
X199734092Y-115155766D01*
X199694711Y-115153458D01*
X199683262Y-115166098D01*
X199686376Y-115189179D01*
X199693850Y-115210393D01*
X199690498Y-115220686D01*
X199676942Y-115212351D01*
X199664394Y-115206031D01*
X199650747Y-115207039D01*
X199631879Y-115207039D01*
X199602479Y-115198612D01*
X199582533Y-115184994D01*
X199571063Y-115169303D01*
X199561957Y-115155236D01*
X199556317Y-115153458D01*
X199549081Y-115154557D01*
X199550088Y-115149336D01*
X199555257Y-115116398D01*
X199550088Y-115098870D01*
X199542204Y-115069698D01*
X199552195Y-115029719D01*
X199575330Y-115000050D01*
X199617133Y-114973024D01*
X199638541Y-114961549D01*
X199644427Y-114954064D01*
X199641313Y-114940417D01*
X199606692Y-114897461D01*
X199550035Y-114819741D01*
X199514871Y-114748216D01*
X199497607Y-114681306D01*
X199497255Y-114634842D01*
X199508140Y-114596218D01*
X199529260Y-114565923D01*
X199556317Y-114551064D01*
X199583823Y-114547948D01*
X199639207Y-114551064D01*
X199722005Y-114565810D01*
X199763862Y-114584678D01*
X199798483Y-114600431D01*
X199807917Y-114607758D01*
X199812131Y-114608858D01*
X199835211Y-114611972D01*
X199923356Y-114639090D01*
X199994488Y-114654012D01*
X200076279Y-114662347D01*
X200091025Y-114665552D01*
X200105680Y-114666560D01*
X200187379Y-114658134D01*
X200219303Y-114638814D01*
X200243982Y-114609865D01*
X200258729Y-114595211D01*
X200248287Y-114621406D01*
X200225206Y-114656119D01*
X200209453Y-114667659D01*
X200201026Y-114672880D01*
X200195806Y-114676085D01*
X200193005Y-114673369D01*
X200178037Y-114674986D01*
X200154956Y-114678192D01*
X200109801Y-114679200D01*
X200074173Y-114683413D01*
X200084706Y-114685428D01*
X200090934Y-114687534D01*
X200095147Y-114693854D01*
X200105680Y-114689641D01*
X200109801Y-114692847D01*
X200115114Y-114700174D01*
X200125555Y-114692847D01*
X200147537Y-114685428D01*
X200163291Y-114687534D01*
X200166405Y-114693854D01*
X200171717Y-114699166D01*
X200178037Y-114691748D01*
X200179733Y-114687394D01*
X200189486Y-114685428D01*
X200215295Y-114680362D01*
X200239861Y-114664453D01*
X200262639Y-114635833D01*
X200281718Y-114586784D01*
X200292251Y-114567916D01*
X200286023Y-114594111D01*
X200278695Y-114616185D01*
X200264957Y-114645586D01*
X200243098Y-114680528D01*
X200231434Y-114687534D01*
X200210460Y-114698067D01*
X200202125Y-114706494D01*
X200218886Y-114702280D01*
X200249873Y-114689756D01*
X200278201Y-114655828D01*
X200301965Y-114594111D01*
X200369371Y-114594111D01*
X200373584Y-114602446D01*
X200377705Y-114594111D01*
X200373584Y-114585685D01*
X200369371Y-114594111D01*
X200301965Y-114594111D01*
X200303975Y-114588891D01*
X200311119Y-114517541D01*
X200309012Y-114437674D01*
X200309012Y-114423935D01*
X200318995Y-114423935D01*
X200323209Y-114440788D01*
X200331635Y-114453336D01*
X200330628Y-114445001D01*
X200325315Y-114428240D01*
X200321102Y-114417707D01*
X200318995Y-114423935D01*
X200309012Y-114423935D01*
X200309012Y-114420913D01*
X200317438Y-114414593D01*
X200318926Y-114401997D01*
X200309012Y-114374659D01*
X200304799Y-114362111D01*
X200301685Y-114355791D01*
X200293350Y-114342144D01*
X200287030Y-114317964D01*
X200290144Y-114307431D01*
X200291243Y-114313751D01*
G37*
G36*
X200130318Y-115322810D02*
G01*
X200126196Y-115327023D01*
X200121983Y-115322810D01*
X200126196Y-115318597D01*
X200130318Y-115322810D01*
G37*
G36*
X200027644Y-115247156D02*
G01*
X200019218Y-115247156D01*
X200009969Y-115243013D01*
X200012898Y-115240836D01*
X200019218Y-115240836D01*
X200027644Y-115247156D01*
G37*
G36*
X200273383Y-114557383D02*
G01*
X200267063Y-114574145D01*
X200262850Y-114574145D01*
X200269170Y-114555277D01*
X200275490Y-114544744D01*
X200273383Y-114557383D01*
G37*
G36*
X200381919Y-114545751D02*
G01*
X200377705Y-114554178D01*
X200375690Y-114544744D01*
X200381919Y-114545751D01*
G37*
G36*
X200300128Y-114539523D02*
G01*
X200296006Y-114545751D01*
X200291793Y-114541630D01*
X200296006Y-114535310D01*
X200300128Y-114539523D01*
G37*
G36*
X200381919Y-114528990D02*
G01*
X200377797Y-114533203D01*
X200373584Y-114524777D01*
X200377797Y-114520564D01*
X200381919Y-114528990D01*
G37*
G36*
X200367264Y-114472295D02*
G01*
X200373584Y-114485942D01*
X200377705Y-114494369D01*
X200371477Y-114491163D01*
X200365157Y-114474402D01*
X200365157Y-114467075D01*
X200367264Y-114472295D01*
G37*
G36*
X200352609Y-114392519D02*
G01*
X200348396Y-114394534D01*
X200344183Y-114390413D01*
X200348396Y-114388306D01*
X200352609Y-114392519D01*
G37*
G36*
X200300128Y-114390413D02*
G01*
X200296006Y-114392519D01*
X200291793Y-114386200D01*
X200296006Y-114384093D01*
X200300128Y-114390413D01*
G37*
G36*
X200281260Y-114348373D02*
G01*
X200292892Y-114368339D01*
X200293900Y-114373560D01*
X200282359Y-114362020D01*
X200275032Y-114342053D01*
X200279245Y-114339946D01*
X200281260Y-114348373D01*
G37*
G36*
X200270819Y-114326391D02*
G01*
X200266605Y-114325292D01*
X200266605Y-114314759D01*
X200270819Y-114326391D01*
G37*
G36*
X200256164Y-114284350D02*
G01*
X200256164Y-114291678D01*
X200249844Y-114289571D01*
X200249844Y-114279038D01*
X200256164Y-114284350D01*
G37*
G36*
X200263491Y-114269696D02*
G01*
X200264590Y-114274917D01*
X200257263Y-114272810D01*
X200256164Y-114267589D01*
X200263491Y-114269696D01*
G37*
G36*
X200243616Y-114244417D02*
G01*
X200254057Y-114260170D01*
X200241509Y-114251744D01*
X200228563Y-114235577D01*
X200230976Y-114232876D01*
X200243616Y-114244417D01*
G37*
G36*
X200208995Y-114206681D02*
G01*
X200214215Y-114218222D01*
X200196447Y-114214008D01*
X200187013Y-114203476D01*
X200199561Y-114209795D01*
X200203774Y-114214008D01*
X200207896Y-114209795D01*
X200201667Y-114203476D01*
X200199561Y-114199262D01*
X200208995Y-114206681D01*
G37*
G36*
X199420670Y-112787936D02*
G01*
X199458406Y-112808910D01*
X199482494Y-112826770D01*
X199480388Y-112831991D01*
X199432211Y-112802590D01*
X199415450Y-112794164D01*
X199407023Y-112783722D01*
X199420670Y-112787936D01*
G37*
G36*
X200031857Y-112638825D02*
G01*
X200021325Y-112644046D01*
X200027644Y-112632506D01*
X200038086Y-112627285D01*
X200031857Y-112638825D01*
G37*
G36*
X199527282Y-111735463D02*
G01*
X199525472Y-111747941D01*
X199530396Y-111756437D01*
X199536625Y-111772191D01*
X199536716Y-111776404D01*
X199545051Y-111774297D01*
X199555492Y-111767977D01*
X199569139Y-111754422D01*
X199585901Y-111747003D01*
X199599548Y-111754422D01*
X199601654Y-111765871D01*
X199603761Y-111776404D01*
X199616400Y-111782724D01*
X199624735Y-111785929D01*
X199635268Y-111805896D01*
X199646143Y-111816308D01*
X199654136Y-111816338D01*
X199666775Y-111814231D01*
X199674103Y-111810018D01*
X199682529Y-111803698D01*
X199695077Y-111818444D01*
X199699290Y-111837312D01*
X199700298Y-111841525D01*
X199707267Y-111840048D01*
X199723379Y-111826779D01*
X199738939Y-111816835D01*
X199745361Y-111818444D01*
X199747252Y-111824431D01*
X199742247Y-111830992D01*
X199738033Y-111845738D01*
X199750581Y-111846837D01*
X199753787Y-111854165D01*
X199746460Y-111860393D01*
X199744353Y-111867812D01*
X199748475Y-111896113D01*
X199752665Y-111961063D01*
X199759557Y-111975889D01*
X199763685Y-111987183D01*
X199766060Y-112028737D01*
X199769271Y-112069216D01*
X199774487Y-112077280D01*
X199779799Y-112076273D01*
X199778700Y-112071144D01*
X199780806Y-112064000D01*
X199784928Y-112067022D01*
X199788285Y-112071666D01*
X199803887Y-112065007D01*
X199839365Y-112043546D01*
X199879450Y-112028004D01*
X199917369Y-112017746D01*
X199953163Y-112012223D01*
X200041291Y-112009503D01*
X200129093Y-112013023D01*
X200163107Y-112020036D01*
X200175655Y-112022051D01*
X200167229Y-112015823D01*
X200154681Y-112005290D01*
X200158894Y-111998970D01*
X200179869Y-112001077D01*
X200214490Y-112007396D01*
X200219711Y-112007396D01*
X200227038Y-112006389D01*
X200240685Y-112011610D01*
X200251127Y-112017929D01*
X200277413Y-112031577D01*
X200294520Y-112032187D01*
X200291793Y-112030844D01*
X200286572Y-112027638D01*
X200275032Y-112024524D01*
X200266605Y-112018296D01*
X200275032Y-112017197D01*
X200290832Y-112023940D01*
X200296887Y-112032272D01*
X200305623Y-112032584D01*
X200316156Y-112032584D01*
X200322476Y-112034691D01*
X200326598Y-112038904D01*
X200351785Y-112058962D01*
X200383201Y-112074716D01*
X200380087Y-112066290D01*
X200375874Y-112054657D01*
X200384300Y-112058871D01*
X200393734Y-112066290D01*
X200395840Y-112074716D01*
X200401061Y-112086256D01*
X200420936Y-112106223D01*
X200439804Y-112122984D01*
X200454325Y-112131178D01*
X200495400Y-112176565D01*
X200530176Y-112225778D01*
X200532036Y-112236557D01*
X200525808Y-112232344D01*
X200517382Y-112230146D01*
X200515275Y-112230146D01*
X200515275Y-112223918D01*
X200506940Y-112198639D01*
X200479646Y-112173451D01*
X200473326Y-112167223D01*
X200460778Y-112155591D01*
X200447131Y-112142951D01*
X200437698Y-112135624D01*
X200435591Y-112139746D01*
X200427256Y-112133517D01*
X200413609Y-112122984D01*
X200387414Y-112108330D01*
X200360655Y-112091534D01*
X200358105Y-112093584D01*
X200376973Y-112116665D01*
X200462885Y-112200837D01*
X200506940Y-112253410D01*
X200506455Y-112270972D01*
X200502727Y-112274384D01*
X200498514Y-112272278D01*
X200486974Y-112270171D01*
X200471220Y-112274384D01*
X200454459Y-112286017D01*
X200439804Y-112297557D01*
X200435591Y-112299664D01*
X200446124Y-112310197D01*
X200446124Y-112316425D01*
X200439804Y-112312303D01*
X200427256Y-112301770D01*
X200423043Y-112295450D01*
X200417731Y-112297557D01*
X200416723Y-112305983D01*
X200414617Y-112314410D01*
X200403168Y-112315417D01*
X200392726Y-112315417D01*
X200393734Y-112320821D01*
X200394741Y-112341704D01*
X200388127Y-112350372D01*
X200380087Y-112351504D01*
X200372301Y-112352287D01*
X200367539Y-112359198D01*
X200363011Y-112365212D01*
X200355998Y-112363594D01*
X200342351Y-112362495D01*
X200289961Y-112366891D01*
X200247490Y-112364042D01*
X200232259Y-112358465D01*
X200211243Y-112347425D01*
X200198736Y-112356358D01*
X200200581Y-112371346D01*
X200223924Y-112421571D01*
X200239717Y-112454690D01*
X200246913Y-112480464D01*
X200250119Y-112487792D01*
X200253233Y-112497226D01*
X200255087Y-112506401D01*
X200259553Y-112503545D01*
X200265781Y-112493012D01*
X200269994Y-112480464D01*
X200276405Y-112494506D01*
X200284649Y-112602372D01*
X200282634Y-112630765D01*
X200277413Y-112646519D01*
X200271093Y-112680133D01*
X200262667Y-112699001D01*
X200254332Y-112711640D01*
X200232259Y-112740033D01*
X200213391Y-112767419D01*
X200205056Y-112778960D01*
X200188295Y-112788394D01*
X200179869Y-112804147D01*
X200177762Y-112808360D01*
X200171442Y-112802041D01*
X200173549Y-112795721D01*
X200177762Y-112791508D01*
X200175905Y-112786306D01*
X200169336Y-112791508D01*
X200165214Y-112802041D01*
X200148361Y-112820908D01*
X200133699Y-112832188D01*
X200131600Y-112839868D01*
X200140027Y-112845180D01*
X200136912Y-112857820D01*
X200125372Y-112865147D01*
X200111725Y-112873573D01*
X200098078Y-112881908D01*
X200091758Y-112886121D01*
X200102291Y-112888228D01*
X200110626Y-112884015D01*
X200102291Y-112892533D01*
X200072890Y-112900959D01*
X200035155Y-112913690D01*
X200013173Y-112920101D01*
X199999617Y-112921109D01*
X199985970Y-112927429D01*
X199980658Y-112929535D01*
X199948235Y-112931642D01*
X199913613Y-112936954D01*
X199924055Y-112941167D01*
X200001632Y-112934756D01*
X200031033Y-112930543D01*
X200029934Y-112932649D01*
X200022607Y-112939061D01*
X200014180Y-112947579D01*
X199995313Y-112963424D01*
X199985879Y-112966538D01*
X199963897Y-112975056D01*
X199951349Y-112977163D01*
X199955562Y-112968736D01*
X199959684Y-112962417D01*
X199953456Y-112963516D01*
X199942923Y-112964523D01*
X199930375Y-112960310D01*
X199915720Y-112970843D01*
X199898867Y-112972950D01*
X199890830Y-112968632D01*
X199905187Y-112962417D01*
X199915720Y-112958203D01*
X199938709Y-112949869D01*
X199928268Y-112947762D01*
X199911507Y-112947762D01*
X199878992Y-112950968D01*
X199871665Y-112954082D01*
X199877984Y-112958203D01*
X199883601Y-112960887D01*
X199880000Y-112970843D01*
X199872779Y-112974999D01*
X199849683Y-112977163D01*
X199827275Y-112979168D01*
X199823488Y-112982383D01*
X199818267Y-112979269D01*
X199807826Y-112974049D01*
X199792072Y-112970843D01*
X199777418Y-112965622D01*
X199768991Y-112972950D01*
X199759649Y-112974049D01*
X199710373Y-112970843D01*
X199643081Y-112966268D01*
X199632887Y-112959577D01*
X199626659Y-112955089D01*
X199623545Y-112953990D01*
X199622445Y-112951792D01*
X199619331Y-112948403D01*
X199611912Y-112943824D01*
X199589015Y-112934756D01*
X199568040Y-112930268D01*
X199544959Y-112934481D01*
X199535525Y-112932375D01*
X199533962Y-112927858D01*
X199540746Y-112919735D01*
X199551279Y-112911309D01*
X199532411Y-112911309D01*
X199513544Y-112910301D01*
X199509330Y-112907096D01*
X199491263Y-112903703D01*
X199461062Y-112890334D01*
X199467600Y-112883726D01*
X199446407Y-112871375D01*
X199406434Y-112851371D01*
X199385591Y-112835655D01*
X199373043Y-112826221D01*
X199344741Y-112804147D01*
X199320561Y-112783173D01*
X199286947Y-112747361D01*
X199245090Y-112701107D01*
X199243921Y-112699642D01*
X199312135Y-112699642D01*
X199329995Y-112717502D01*
X199371944Y-112750108D01*
X199400245Y-112771083D01*
X199402260Y-112777403D01*
X199395096Y-112776567D01*
X199362510Y-112756337D01*
X199340083Y-112747455D01*
X199335216Y-112754230D01*
X199359304Y-112775296D01*
X199391819Y-112794164D01*
X199407573Y-112803689D01*
X199442194Y-112824664D01*
X199484143Y-112847745D01*
X199507132Y-112857178D01*
X199551188Y-112871833D01*
X199588340Y-112881204D01*
X199597258Y-112878153D01*
X199586816Y-112865605D01*
X199578390Y-112861392D01*
X199538640Y-112845638D01*
X199495592Y-112823564D01*
X199479838Y-112813032D01*
X199413893Y-112773189D01*
X199337322Y-112716495D01*
X199312135Y-112699642D01*
X199243921Y-112699642D01*
X199218777Y-112668134D01*
X199295923Y-112668134D01*
X199303702Y-112677640D01*
X199358846Y-112721715D01*
X199453185Y-112785737D01*
X199469946Y-112798377D01*
X199482494Y-112804697D01*
X199528656Y-112825671D01*
X199583804Y-112848827D01*
X199652396Y-112870825D01*
X199717113Y-112885362D01*
X199736202Y-112884473D01*
X199739448Y-112880820D01*
X199731988Y-112877145D01*
X199700573Y-112871833D01*
X199604127Y-112842524D01*
X199588717Y-112836204D01*
X200102108Y-112836204D01*
X200105222Y-112840326D01*
X200111450Y-112836204D01*
X200108336Y-112831991D01*
X200102108Y-112836204D01*
X199588717Y-112836204D01*
X199511895Y-112804697D01*
X199482494Y-112787844D01*
X199413611Y-112748104D01*
X199337872Y-112695429D01*
X199312424Y-112676652D01*
X199701672Y-112676652D01*
X199708770Y-112685639D01*
X199740415Y-112696528D01*
X199776044Y-112697627D01*
X199803338Y-112698634D01*
X199815781Y-112702233D01*
X199853255Y-112701840D01*
X199938709Y-112688193D01*
X200007952Y-112661906D01*
X200046511Y-112642061D01*
X200056129Y-112633605D01*
X200061979Y-112625070D01*
X200058236Y-112623072D01*
X200054023Y-112623072D01*
X200045688Y-112623072D01*
X200051310Y-112615509D01*
X200070875Y-112604204D01*
X200098848Y-112583941D01*
X200112732Y-112560057D01*
X200115050Y-112535143D01*
X200108611Y-112484494D01*
X200079749Y-112373183D01*
X200110285Y-112373183D01*
X200123265Y-112398582D01*
X200144429Y-112441586D01*
X200163107Y-112509865D01*
X200169336Y-112539266D01*
X200167229Y-112514078D01*
X200153674Y-112447950D01*
X200135906Y-112404719D01*
X200192417Y-112404719D01*
X200194523Y-112415252D01*
X200200843Y-112411038D01*
X200198736Y-112400505D01*
X200194523Y-112392079D01*
X200192417Y-112404719D01*
X200135906Y-112404719D01*
X200133798Y-112399589D01*
X200121159Y-112379714D01*
X200112732Y-112369181D01*
X200110285Y-112373183D01*
X200079749Y-112373183D01*
X200079210Y-112371105D01*
X200074997Y-112358465D01*
X200066838Y-112342390D01*
X200020500Y-112291146D01*
X199975997Y-112255854D01*
X199930375Y-112236466D01*
X199921638Y-112233443D01*
X200025538Y-112233443D01*
X200073715Y-112255517D01*
X200129310Y-112289131D01*
X200149186Y-112300671D01*
X200149781Y-112296064D01*
X200140851Y-112286017D01*
X200105222Y-112262936D01*
X200059060Y-112241870D01*
X200026545Y-112231337D01*
X200025538Y-112233443D01*
X199921638Y-112233443D01*
X199906286Y-112228131D01*
X199867452Y-112223918D01*
X199839012Y-112226114D01*
X199826052Y-112230879D01*
X199818852Y-112240372D01*
X199815886Y-112259638D01*
X199819000Y-112279697D01*
X199853163Y-112291146D01*
X199882106Y-112299572D01*
X199863330Y-112301679D01*
X199839333Y-112306991D01*
X199834112Y-112320638D01*
X199846569Y-112340605D01*
X199865253Y-112354252D01*
X199856919Y-112356358D01*
X199842264Y-112358465D01*
X199842264Y-112402520D01*
X199834932Y-112469078D01*
X199813779Y-112526443D01*
X199785157Y-112570695D01*
X199736202Y-112627285D01*
X199706740Y-112663054D01*
X199701672Y-112676652D01*
X199312424Y-112676652D01*
X199309570Y-112674546D01*
X199295923Y-112668134D01*
X199218777Y-112668134D01*
X199215781Y-112664379D01*
X199198928Y-112642214D01*
X199153866Y-112574986D01*
X199102483Y-112484586D01*
X199079883Y-112440720D01*
X199073174Y-112434119D01*
X199065325Y-112427086D01*
X199045880Y-112384752D01*
X199030430Y-112337386D01*
X199024905Y-112305892D01*
X199022437Y-112247464D01*
X199027012Y-112217598D01*
X199051192Y-112174550D01*
X199073174Y-112148264D01*
X199094148Y-112129396D01*
X199121714Y-112103189D01*
X199148453Y-112090775D01*
X199175847Y-112089462D01*
X199224429Y-112104944D01*
X199255532Y-112131502D01*
X199272293Y-112155682D01*
X199278613Y-112178763D01*
X199286947Y-112200745D01*
X199289054Y-112204958D01*
X199261851Y-112198639D01*
X199213484Y-112187704D01*
X199192609Y-112190304D01*
X199214682Y-112200837D01*
X199236664Y-112212377D01*
X199230436Y-112215491D01*
X199204241Y-112210271D01*
X199188347Y-112210192D01*
X199180061Y-112215491D01*
X199176113Y-112229108D01*
X199181068Y-112260646D01*
X199209370Y-112326775D01*
X199234557Y-112370921D01*
X199250318Y-112401826D01*
X199286031Y-112450697D01*
X199325173Y-112493246D01*
X199339521Y-112501072D01*
X199347855Y-112509499D01*
X199359821Y-112524988D01*
X199394017Y-112547234D01*
X199430745Y-112573521D01*
X199469580Y-112604021D01*
X199513635Y-112629208D01*
X199567465Y-112650854D01*
X199597441Y-112652289D01*
X199614202Y-112639650D01*
X199618485Y-112621964D01*
X199615301Y-112572513D01*
X199589106Y-112463245D01*
X199560805Y-112371929D01*
X199549264Y-112328881D01*
X199521970Y-112223918D01*
X199494353Y-112072033D01*
X199484191Y-111948799D01*
X199488031Y-111849552D01*
X199503102Y-111770084D01*
X199522574Y-111726845D01*
X199530396Y-111719709D01*
X199527282Y-111735463D01*
G37*
G36*
X200104398Y-112911309D02*
G01*
X200100184Y-112921842D01*
X200089743Y-112919735D01*
X200082416Y-112919735D01*
X200068769Y-112923948D01*
X200057751Y-112921824D01*
X200066662Y-112915522D01*
X200077103Y-112911309D01*
X200100184Y-112904989D01*
X200103390Y-112904989D01*
X200104398Y-112911309D01*
G37*
G36*
X200126196Y-112895006D02*
G01*
X200109344Y-112903340D01*
X200106673Y-112901717D01*
X200117770Y-112892899D01*
X200130318Y-112888686D01*
X200134531Y-112888686D01*
X200126196Y-112895006D01*
G37*
G36*
X200159719Y-112878153D02*
G01*
X200153399Y-112882366D01*
X200147079Y-112880259D01*
X200153399Y-112876046D01*
X200159719Y-112878153D01*
G37*
G36*
X200171259Y-112830983D02*
G01*
X200158620Y-112840417D01*
X200149186Y-112842432D01*
X200142957Y-112838311D01*
X200157612Y-112828877D01*
X200174373Y-112823564D01*
X200171259Y-112830983D01*
G37*
G36*
X200266605Y-112452987D02*
G01*
X200268712Y-112466634D01*
X200264499Y-112472862D01*
X200263491Y-112468649D01*
X200260377Y-112456101D01*
X200260377Y-112441355D01*
X200266605Y-112452987D01*
G37*
G36*
X200491004Y-112283910D02*
G01*
X200503551Y-112285925D01*
X200493019Y-112290138D01*
X200480471Y-112285925D01*
X200484684Y-112281803D01*
X200491004Y-112283910D01*
G37*
G36*
X200524526Y-112192594D02*
G01*
X200518206Y-112193601D01*
X200511886Y-112185175D01*
X200518206Y-112184167D01*
X200524526Y-112192594D01*
G37*
G36*
X200474151Y-112128480D02*
G01*
X200469938Y-112130586D01*
X200465816Y-112124267D01*
X200469938Y-112122160D01*
X200474151Y-112128480D01*
G37*
G36*
X200350503Y-112044491D02*
G01*
X200359937Y-112051818D01*
X200360944Y-112054932D01*
X200348396Y-112050811D01*
X200337955Y-112042384D01*
X200350503Y-112044491D01*
G37*
G36*
X200193241Y-111992009D02*
G01*
X200195348Y-111994116D01*
X200189028Y-111992009D01*
X200183807Y-111987796D01*
X200193241Y-111992009D01*
G37*
G36*
X200159719Y-111985689D02*
G01*
X200153399Y-111983583D01*
X200163932Y-111983583D01*
X200159719Y-111985689D01*
G37*
G36*
X200244074Y-110725946D02*
G01*
X200262942Y-110730159D01*
X200281718Y-110734281D01*
X200296464Y-110736387D01*
X200292251Y-110739593D01*
X200292251Y-110742707D01*
X200300586Y-110742707D01*
X200318446Y-110744814D01*
X200350961Y-110774123D01*
X200380254Y-110810538D01*
X200401244Y-110852799D01*
X200410782Y-110895674D01*
X200405457Y-110925065D01*
X200379580Y-110963828D01*
X200332569Y-111002229D01*
X200256622Y-111040378D01*
X200208445Y-111062451D01*
X200200019Y-111076099D01*
X200210552Y-111095882D01*
X200225115Y-111109529D01*
X200271277Y-111136823D01*
X200334200Y-111180879D01*
X200352271Y-111191796D01*
X200361494Y-111192419D01*
X200367701Y-111192341D01*
X200369829Y-111198647D01*
X200372984Y-111205371D01*
X200384483Y-111208081D01*
X200399138Y-111211287D01*
X200411777Y-111222827D01*
X200453249Y-111253451D01*
X200474609Y-111283919D01*
X200484517Y-111327913D01*
X200472502Y-111361771D01*
X200434767Y-111398591D01*
X200388696Y-111424877D01*
X200366714Y-111434311D01*
X200347847Y-111439623D01*
X200324766Y-111451164D01*
X200310111Y-111457484D01*
X200295365Y-111463804D01*
X200282817Y-111472230D01*
X200277596Y-111460598D01*
X200273383Y-111448050D01*
X200271277Y-111458583D01*
X200262850Y-111471131D01*
X200260835Y-111471406D01*
X200260835Y-111466918D01*
X200258729Y-111458583D01*
X200241967Y-111466918D01*
X200226214Y-111476443D01*
X200210552Y-111481664D01*
X200204232Y-111479008D01*
X200189577Y-111483038D01*
X200166496Y-111492197D01*
X200119327Y-111492197D01*
X200085439Y-111490113D01*
X200080492Y-111487159D01*
X200074173Y-111486152D01*
X200058409Y-111489001D01*
X199992382Y-111486152D01*
X199851881Y-111469757D01*
X199821298Y-111467022D01*
X199807917Y-111470764D01*
X199800571Y-111481032D01*
X199797384Y-111504012D01*
X199794166Y-111526752D01*
X199786851Y-111536344D01*
X199766130Y-111543075D01*
X199736568Y-111538450D01*
X199712943Y-111524572D01*
X199709274Y-111509049D01*
X199707128Y-111498168D01*
X199692513Y-111479008D01*
X199644336Y-111441089D01*
X199614508Y-111427096D01*
X199600189Y-111425793D01*
X199578207Y-111424786D01*
X199546791Y-111420664D01*
X199527502Y-111416901D01*
X199516383Y-111406834D01*
X199498523Y-111391905D01*
X199490680Y-111387912D01*
X199483868Y-111375876D01*
X199474434Y-111358749D01*
X199471320Y-111358749D01*
X199472328Y-111363053D01*
X199470221Y-111367358D01*
X199467174Y-111364539D01*
X199470221Y-111350231D01*
X199476541Y-111273386D01*
X199480754Y-111229147D01*
X199509239Y-111220812D01*
X199543860Y-111220812D01*
X199570239Y-111226033D01*
X199579672Y-111231254D01*
X199590114Y-111231254D01*
X199590755Y-111230613D01*
X199599914Y-111230613D01*
X199604127Y-111236841D01*
X199610355Y-111234734D01*
X199606234Y-111228506D01*
X199599914Y-111230613D01*
X199590755Y-111230613D01*
X199594327Y-111227041D01*
X199600088Y-111221696D01*
X199610172Y-111221911D01*
X199634352Y-111227132D01*
X199657433Y-111233360D01*
X199676393Y-111237574D01*
X199724661Y-111241787D01*
X199758458Y-111250213D01*
X199756260Y-111250213D01*
X199745727Y-111254426D01*
X199756260Y-111254426D01*
X199766155Y-111256803D01*
X199768900Y-111262761D01*
X199768900Y-111266974D01*
X199773113Y-111262761D01*
X199778315Y-111257831D01*
X199785752Y-111259647D01*
X199797384Y-111261754D01*
X199804620Y-111262761D01*
X199833105Y-111271279D01*
X199847180Y-111271279D01*
X199845561Y-111270455D01*
X199842447Y-111263127D01*
X199847668Y-111259922D01*
X199853988Y-111266242D01*
X199852514Y-111271279D01*
X199859300Y-111271279D01*
X199867726Y-111269081D01*
X199867726Y-111273386D01*
X199869833Y-111279797D01*
X199876153Y-111274485D01*
X199886686Y-111277690D01*
X199914071Y-111285201D01*
X199937152Y-111284102D01*
X199962431Y-111283094D01*
X199989726Y-111287308D01*
X200000259Y-111285109D01*
X200009692Y-111284102D01*
X200016012Y-111287216D01*
X200059152Y-111283003D01*
X200134806Y-111273386D01*
X200187379Y-111266974D01*
X200179044Y-111269081D01*
X200138033Y-111279541D01*
X200078386Y-111287949D01*
X200040559Y-111294268D01*
X200036345Y-111296375D01*
X200046878Y-111296375D01*
X200076279Y-111298482D01*
X200094139Y-111298482D01*
X200124548Y-111292162D01*
X200191773Y-111282461D01*
X200250302Y-111266974D01*
X200271277Y-111259647D01*
X200284924Y-111254426D01*
X200291243Y-111250213D01*
X200290144Y-111246000D01*
X200279703Y-111246000D01*
X200249295Y-111254426D01*
X200218886Y-111260655D01*
X200212567Y-111260655D01*
X200228320Y-111253327D01*
X200245912Y-111245267D01*
X200409213Y-111245267D01*
X200417547Y-111254701D01*
X200430187Y-111259922D01*
X200421761Y-111250488D01*
X200409213Y-111245267D01*
X200245912Y-111245267D01*
X200253508Y-111241787D01*
X200262861Y-111232274D01*
X200262850Y-111222827D01*
X200195806Y-111170163D01*
X200101375Y-111112369D01*
X200058837Y-111092738D01*
X200044772Y-111090204D01*
X200038452Y-111088097D01*
X200040559Y-111081777D01*
X200028011Y-111081777D01*
X200024897Y-111088097D01*
X200023797Y-111092310D01*
X200001816Y-111094417D01*
X199986062Y-111092310D01*
X199998610Y-111088097D01*
X200009143Y-111087089D01*
X200009143Y-111081777D01*
X200003922Y-111078663D01*
X199995496Y-111083884D01*
X199986062Y-111079762D01*
X199969301Y-111079762D01*
X199947319Y-111081869D01*
X199939900Y-111083975D01*
X199956753Y-111088097D01*
X199975529Y-111092310D01*
X199954646Y-111096523D01*
X199923139Y-111094417D01*
X199808619Y-111081869D01*
X199861956Y-111081869D01*
X199864063Y-111085990D01*
X199892456Y-111088097D01*
X199919658Y-111088097D01*
X199931199Y-111085990D01*
X199906011Y-111082876D01*
X199871390Y-111080770D01*
X199861956Y-111081869D01*
X199808619Y-111081869D01*
X199795997Y-111080486D01*
X199679965Y-111052285D01*
X199615027Y-111033417D01*
X199596067Y-111039737D01*
X199593961Y-111039737D01*
X199591946Y-111033417D01*
X199581413Y-111031310D01*
X199514750Y-111009022D01*
X199462894Y-110973150D01*
X199439630Y-110938987D01*
X199429005Y-110904732D01*
X199426028Y-110893575D01*
X199416457Y-110883940D01*
X199404835Y-110869694D01*
X199412244Y-110858753D01*
X199426898Y-110839885D01*
X199448185Y-110820396D01*
X199481670Y-110810484D01*
X199505327Y-110812741D01*
X199549081Y-110827246D01*
X199638221Y-110861074D01*
X199708615Y-110878740D01*
X199763862Y-110883940D01*
X199860399Y-110887146D01*
X199921124Y-110883940D01*
X199967194Y-110881101D01*
X200012257Y-110876338D01*
X200019584Y-110877346D01*
X200036345Y-110876338D01*
X200082507Y-110864981D01*
X200124274Y-110859517D01*
X200183258Y-110839885D01*
X200207086Y-110831550D01*
X200365157Y-110831550D01*
X200369371Y-110842083D01*
X200376698Y-110845197D01*
X200371477Y-110835764D01*
X200365157Y-110831550D01*
X200207086Y-110831550D01*
X200207346Y-110831459D01*
X200217787Y-110827337D01*
X200233541Y-110821017D01*
X200248287Y-110811584D01*
X200250302Y-110793815D01*
X200236898Y-110781752D01*
X200202125Y-110768719D01*
X200174831Y-110762399D01*
X200210460Y-110762399D01*
X200249295Y-110764506D01*
X200257629Y-110760109D01*
X200262850Y-110758003D01*
X200267063Y-110762399D01*
X200269170Y-110757178D01*
X200260835Y-110751866D01*
X200252409Y-110756263D01*
X200244074Y-110752782D01*
X200227651Y-110745455D01*
X200270819Y-110745455D01*
X200272925Y-110749668D01*
X200279245Y-110747561D01*
X200270819Y-110745455D01*
X200227651Y-110745455D01*
X200226214Y-110744814D01*
X200219277Y-110743340D01*
X200222001Y-110739593D01*
X200233541Y-110737486D01*
X200239861Y-110736387D01*
X200231434Y-110730159D01*
X200227221Y-110730159D01*
X200214673Y-110721733D01*
X200224107Y-110720725D01*
X200244074Y-110725946D01*
G37*
G36*
X199929459Y-111275401D02*
G01*
X199929459Y-111277507D01*
X199912698Y-111275401D01*
X199912698Y-111273294D01*
X199929459Y-111275401D01*
G37*
G36*
X199832647Y-111260013D02*
G01*
X199828434Y-111264135D01*
X199826327Y-111260013D01*
X199830540Y-111255800D01*
X199832647Y-111260013D01*
G37*
G36*
X199614569Y-111043675D02*
G01*
X199620888Y-111049995D01*
X199631330Y-111052102D01*
X199633436Y-111056223D01*
X199626109Y-111057322D01*
X199611454Y-111052102D01*
X199604127Y-111047888D01*
X199607241Y-111042668D01*
X199614569Y-111043675D01*
G37*
G36*
X200199561Y-110742341D02*
G01*
X200203774Y-110746554D01*
X200198462Y-110750767D01*
X200185914Y-110746554D01*
X200180693Y-110740234D01*
X200189119Y-110740234D01*
X200199561Y-110742341D01*
G37*
G36*
X200258271Y-110722374D02*
G01*
X200251951Y-110720267D01*
X200264499Y-110720267D01*
X200258271Y-110722374D01*
G37*
G36*
X200193974Y-110273028D02*
G01*
X200193974Y-110241521D01*
X200199836Y-110207907D01*
X200205697Y-110189039D01*
X200215223Y-110144984D01*
X200230976Y-110109263D01*
X200243616Y-110088197D01*
X200258474Y-110071572D01*
X200287946Y-110054675D01*
X200322214Y-110043593D01*
X200357372Y-110039929D01*
X200379013Y-110044492D01*
X200422677Y-110064109D01*
X200465792Y-110090026D01*
X200496407Y-110115491D01*
X200551268Y-110185707D01*
X200595417Y-110268815D01*
X200606130Y-110298688D01*
X200610163Y-110340256D01*
X200612270Y-110392738D01*
X200597616Y-110367550D01*
X200571945Y-110322371D01*
X200543210Y-110286767D01*
X200507843Y-110255146D01*
X200455375Y-110218440D01*
X200416723Y-110197465D01*
X200410295Y-110200892D01*
X200401061Y-110216333D01*
X200381186Y-110247840D01*
X200362318Y-110272021D01*
X200344549Y-110285668D01*
X200312126Y-110299315D01*
X200288414Y-110306275D01*
X200256714Y-110304535D01*
X200212052Y-110291992D01*
X200193974Y-110273028D01*
G37*
G36*
X200065013Y-107518335D02*
G01*
X200069503Y-107525748D01*
X200087911Y-107524563D01*
X200102474Y-107526670D01*
X200108794Y-107528776D01*
X200112824Y-107520350D01*
X200118560Y-107514999D01*
X200128486Y-107515221D01*
X200142042Y-107520350D01*
X200145718Y-107533207D01*
X200139935Y-107572923D01*
X200131052Y-107627283D01*
X200137828Y-107654897D01*
X200144148Y-107669552D01*
X200137828Y-107663324D01*
X200135813Y-107663324D01*
X200142042Y-107699044D01*
X200146255Y-107732658D01*
X200142042Y-107758945D01*
X200141034Y-107790452D01*
X200144148Y-107817838D01*
X200148270Y-107843025D01*
X200148270Y-107847239D01*
X200144148Y-107851452D01*
X200149369Y-107858779D01*
X200156513Y-107867205D01*
X200158892Y-107884566D01*
X200154498Y-107888180D01*
X200150528Y-107894992D01*
X200160726Y-107938646D01*
X200163840Y-107964933D01*
X200165947Y-107975466D01*
X200181426Y-108027032D01*
X200216688Y-108163686D01*
X200233457Y-108202940D01*
X200251951Y-108231005D01*
X200264316Y-108261597D01*
X200274849Y-108296310D01*
X200290755Y-108342382D01*
X200283183Y-108374070D01*
X200269018Y-108389900D01*
X200229786Y-108414096D01*
X200187499Y-108432249D01*
X200167870Y-108435070D01*
X200149094Y-108439283D01*
X200110224Y-108451439D01*
X200083984Y-108448904D01*
X200065288Y-108435070D01*
X200037994Y-108430857D01*
X199985879Y-108425636D01*
X199967010Y-108418549D01*
X199962889Y-108411989D01*
X199959561Y-108405035D01*
X199946220Y-108398250D01*
X199925337Y-108383596D01*
X199917002Y-108374070D01*
X199901432Y-108360423D01*
X199887785Y-108334137D01*
X199837501Y-108221571D01*
X199766243Y-108081620D01*
X199706384Y-107995662D01*
X199644419Y-107937896D01*
X199579672Y-107902834D01*
X199523069Y-107894500D01*
X199464359Y-107902834D01*
X199427789Y-107925899D01*
X199407756Y-107959621D01*
X199402904Y-107986874D01*
X199404642Y-108024925D01*
X199412477Y-108063135D01*
X199424517Y-108094351D01*
X199444642Y-108122519D01*
X199474892Y-108152145D01*
X199509366Y-108176623D01*
X199541937Y-108191071D01*
X199584985Y-108207924D01*
X199606967Y-108214244D01*
X199618507Y-108217358D01*
X199621621Y-108229998D01*
X199615393Y-108237325D01*
X199606967Y-108250056D01*
X199590186Y-108268147D01*
X199554576Y-108275244D01*
X199507412Y-108267548D01*
X199445583Y-108240531D01*
X199387322Y-108201406D01*
X199340711Y-108155351D01*
X199292534Y-108089039D01*
X199273575Y-108035458D01*
X199267307Y-107972050D01*
X199273575Y-107919687D01*
X199291504Y-107873550D01*
X199320836Y-107830294D01*
X199358370Y-107793144D01*
X199401528Y-107764074D01*
X199445583Y-107747221D01*
X199462253Y-107743008D01*
X199494298Y-107734430D01*
X199567124Y-107730368D01*
X199641003Y-107734160D01*
X199680331Y-107742825D01*
X199709732Y-107751160D01*
X199739041Y-107763524D01*
X199759008Y-107773874D01*
X199767342Y-107779003D01*
X199808192Y-107809045D01*
X199847636Y-107838281D01*
X199866902Y-107858687D01*
X199872630Y-107862227D01*
X199880824Y-107850261D01*
X199884854Y-107841835D01*
X199892822Y-107789261D01*
X199893830Y-107780927D01*
X199900791Y-107780927D01*
X199904628Y-107788558D01*
X199906744Y-107815548D01*
X199909040Y-107841667D01*
X199912698Y-107846048D01*
X199918515Y-107835090D01*
X199928000Y-107777904D01*
X199939534Y-107777904D01*
X199943747Y-107776805D01*
X199939534Y-107769478D01*
X199939534Y-107777904D01*
X199928000Y-107777904D01*
X199932390Y-107751434D01*
X199936140Y-107733778D01*
X199940175Y-107730368D01*
X199942190Y-107740901D01*
X199944296Y-107749328D01*
X199950616Y-107732475D01*
X199947502Y-107717820D01*
X199942190Y-107712600D01*
X199946403Y-107710493D01*
X199953822Y-107706280D01*
X199951715Y-107696846D01*
X199946403Y-107690526D01*
X199950616Y-107689519D01*
X199954829Y-107687412D01*
X199950616Y-107682100D01*
X199946403Y-107677887D01*
X199950616Y-107675780D01*
X199953822Y-107674773D01*
X199956936Y-107667445D01*
X199958509Y-107663189D01*
X200120652Y-107663189D01*
X200123357Y-107665339D01*
X200129585Y-107656912D01*
X200125464Y-107652699D01*
X200120652Y-107663189D01*
X199958509Y-107663189D01*
X199960050Y-107659019D01*
X199962157Y-107649585D01*
X199963164Y-107642166D01*
X199955837Y-107633831D01*
X199951225Y-107629149D01*
X199950616Y-107614872D01*
X199953607Y-107593405D01*
X199950616Y-107589685D01*
X199946403Y-107598111D01*
X199940266Y-107606537D01*
X199934679Y-107619177D01*
X199936603Y-107633831D01*
X199937519Y-107648486D01*
X199932055Y-107655574D01*
X199926986Y-107654806D01*
X199923413Y-107649439D01*
X199921399Y-107627512D01*
X199927079Y-107576462D01*
X199940083Y-107551857D01*
X199952723Y-107540409D01*
X199956844Y-107547736D01*
X199964027Y-107555598D01*
X199969301Y-107545629D01*
X199982856Y-107525662D01*
X199996320Y-107522457D01*
X200015096Y-107522548D01*
X200027553Y-107521449D01*
X200039002Y-107526670D01*
X200049386Y-107525904D01*
X200057778Y-107519343D01*
X200063498Y-107514363D01*
X200065013Y-107518335D01*
G37*
G36*
X199908118Y-107771584D02*
G01*
X199906011Y-107767371D01*
X199908118Y-107763158D01*
X199908118Y-107771584D01*
G37*
G36*
X199915170Y-107737970D02*
G01*
X199910957Y-107748503D01*
X199906744Y-107737970D01*
X199910957Y-107727437D01*
X199915170Y-107737970D01*
G37*
G36*
X199912331Y-107716996D02*
G01*
X199910225Y-107710676D01*
X199912331Y-107708570D01*
X199912331Y-107716996D01*
G37*
G36*
X199917552Y-107697029D02*
G01*
X199912331Y-107702250D01*
X199910225Y-107694923D01*
X199914438Y-107691809D01*
X199917552Y-107697029D01*
G37*
G36*
X199939534Y-107681276D02*
G01*
X199937427Y-107674956D01*
X199939534Y-107670743D01*
X199939534Y-107681276D01*
G37*
G36*
X199955287Y-107648761D02*
G01*
X199952173Y-107662408D01*
X199947960Y-107662408D01*
X199943747Y-107649768D01*
X199952173Y-107641342D01*
X199955287Y-107648761D01*
G37*
G36*
X200159719Y-107576312D02*
G01*
X200157612Y-107580434D01*
X200153399Y-107574206D01*
X200154771Y-107568373D01*
X200159719Y-107576312D01*
G37*
G36*
X199653312Y-106519901D02*
G01*
X199719440Y-106527228D01*
X199787519Y-106532298D01*
X199864154Y-106548477D01*
X199921948Y-106563407D01*
X199954463Y-106574031D01*
X199985970Y-106587770D01*
X200006945Y-106595189D01*
X200069868Y-106624956D01*
X200076096Y-106624956D01*
X200076096Y-106618636D01*
X200080309Y-106624956D01*
X200088736Y-106638878D01*
X200103482Y-106646297D01*
X200124456Y-106652616D01*
X200139111Y-106659028D01*
X200126563Y-106663241D01*
X200113923Y-106669561D01*
X200130501Y-106680002D01*
X200156421Y-106694748D01*
X200165764Y-106701068D01*
X200176205Y-106705281D01*
X200186834Y-106710574D01*
X200209453Y-106736605D01*
X200240594Y-106776539D01*
X200255157Y-106782859D01*
X200261293Y-106789087D01*
X200270727Y-106803742D01*
X200279978Y-106807955D01*
X200282084Y-106812168D01*
X200282176Y-106821602D01*
X200295640Y-106860436D01*
X200313317Y-106903393D01*
X200318538Y-106914933D01*
X200320644Y-106922352D01*
X200329071Y-106942227D01*
X200329271Y-106954075D01*
X200324857Y-106956882D01*
X200321652Y-106950562D01*
X200318538Y-106935907D01*
X200311210Y-106921253D01*
X200311210Y-106940029D01*
X200311210Y-106998831D01*
X200315423Y-107039772D01*
X200315932Y-107050844D01*
X200304890Y-107104801D01*
X200279795Y-107185493D01*
X200260692Y-107212612D01*
X200225115Y-107248416D01*
X200162701Y-107291844D01*
X200103482Y-107317659D01*
X200021599Y-107340740D01*
X199954555Y-107344953D01*
X199855331Y-107341728D01*
X199803338Y-107334420D01*
X199783463Y-107332405D01*
X199777234Y-107331306D01*
X199741514Y-107327185D01*
X199704786Y-107321964D01*
X199692146Y-107317751D01*
X199673123Y-107314940D01*
X199669065Y-107309416D01*
X199683811Y-107307309D01*
X199696359Y-107307309D01*
X199692146Y-107305203D01*
X199670164Y-107303096D01*
X199656517Y-107300989D01*
X199646076Y-107298883D01*
X199624994Y-107297271D01*
X199572528Y-107277909D01*
X199542212Y-107265269D01*
X199532778Y-107254919D01*
X199531770Y-107251805D01*
X199528565Y-107252813D01*
X199517521Y-107249872D01*
X199467657Y-107223412D01*
X199446682Y-107204452D01*
X199455109Y-107204452D01*
X199463443Y-107204452D01*
X199450895Y-107196118D01*
X199429921Y-107181463D01*
X199411053Y-107173037D01*
X199400520Y-107168915D01*
X199386965Y-107152246D01*
X199369105Y-107139698D01*
X199338696Y-107111488D01*
X199308288Y-107076958D01*
X199302060Y-107066425D01*
X199295121Y-107060993D01*
X199273758Y-107027773D01*
X199251685Y-106978681D01*
X199243350Y-106953585D01*
X199230012Y-106916124D01*
X199224814Y-106884800D01*
X199417281Y-106884800D01*
X199425616Y-106934167D01*
X199438732Y-106955143D01*
X199469672Y-106986557D01*
X199528369Y-107032996D01*
X199599639Y-107074576D01*
X199668790Y-107110205D01*
X199696085Y-107122753D01*
X199714952Y-107122753D01*
X199721582Y-107119870D01*
X199741147Y-107123852D01*
X199812405Y-107131180D01*
X199865894Y-107135393D01*
X199880417Y-107138395D01*
X199920391Y-107129073D01*
X199945579Y-107126966D01*
X199963439Y-107125959D01*
X199974888Y-107114510D01*
X199980672Y-107107736D01*
X199989634Y-107108282D01*
X200007313Y-107108114D01*
X200033689Y-107097840D01*
X200057572Y-107081418D01*
X200071333Y-107064410D01*
X200079591Y-107024429D01*
X200070036Y-106972885D01*
X200035704Y-106903942D01*
X200014016Y-106879266D01*
X199971774Y-106845507D01*
X199924181Y-106815679D01*
X199880549Y-106795498D01*
X199823265Y-106778424D01*
X199673004Y-106745398D01*
X199612279Y-106741185D01*
X199547249Y-106745398D01*
X199495867Y-106762159D01*
X199457032Y-106799895D01*
X199425616Y-106843950D01*
X199419732Y-106858740D01*
X199417281Y-106884800D01*
X199224814Y-106884800D01*
X199220269Y-106857414D01*
X199221901Y-106828335D01*
X199226328Y-106804841D01*
X199324225Y-106804841D01*
X199331552Y-106834241D01*
X199341994Y-106854117D01*
X199347306Y-106835249D01*
X199345199Y-106796414D01*
X199337872Y-106774341D01*
X199328438Y-106783775D01*
X199324225Y-106804841D01*
X199226328Y-106804841D01*
X199234924Y-106759228D01*
X199251023Y-106708961D01*
X199278979Y-106660951D01*
X199334575Y-106600409D01*
X199366168Y-106572474D01*
X199413160Y-106572474D01*
X199424700Y-106574581D01*
X199445675Y-106572474D01*
X199459230Y-106566154D01*
X199472164Y-106557593D01*
X199505392Y-106553606D01*
X199553661Y-106553606D01*
X199587274Y-106553606D01*
X199702679Y-106549210D01*
X199706801Y-106544814D01*
X199612370Y-106536021D01*
X199574968Y-106539000D01*
X199562087Y-106544814D01*
X199553661Y-106553606D01*
X199505392Y-106553606D01*
X199526366Y-106549210D01*
X199534793Y-106547012D01*
X199541021Y-106542707D01*
X199532686Y-106538219D01*
X199503285Y-106544814D01*
X199445675Y-106558735D01*
X199413160Y-106572474D01*
X199366168Y-106572474D01*
X199371587Y-106567682D01*
X199390079Y-106556446D01*
X199450381Y-106535095D01*
X199553661Y-106518802D01*
X199653312Y-106519901D01*
G37*
G36*
X200095055Y-106631550D02*
G01*
X200096154Y-106635764D01*
X200092949Y-106633657D01*
X200088827Y-106623124D01*
X200095055Y-106631550D01*
G37*
G36*
X200065013Y-105411008D02*
G01*
X200069503Y-105418421D01*
X200087911Y-105417236D01*
X200102474Y-105419343D01*
X200108794Y-105421449D01*
X200112824Y-105413023D01*
X200118560Y-105407672D01*
X200128486Y-105407894D01*
X200142042Y-105413023D01*
X200145718Y-105425880D01*
X200139935Y-105465596D01*
X200131052Y-105519956D01*
X200137828Y-105547570D01*
X200144148Y-105562225D01*
X200137828Y-105555996D01*
X200135813Y-105555996D01*
X200142042Y-105591717D01*
X200146255Y-105625331D01*
X200142042Y-105651618D01*
X200141034Y-105683125D01*
X200144148Y-105710511D01*
X200148270Y-105735698D01*
X200148270Y-105739911D01*
X200144148Y-105744125D01*
X200149369Y-105751452D01*
X200156513Y-105759878D01*
X200158892Y-105777238D01*
X200154498Y-105780853D01*
X200150528Y-105787665D01*
X200160726Y-105831319D01*
X200163840Y-105857606D01*
X200165947Y-105868139D01*
X200181426Y-105919705D01*
X200216688Y-106056358D01*
X200233457Y-106095613D01*
X200251951Y-106123678D01*
X200264316Y-106154269D01*
X200274849Y-106188982D01*
X200290755Y-106235055D01*
X200283183Y-106266743D01*
X200269018Y-106282572D01*
X200229786Y-106306768D01*
X200187499Y-106324922D01*
X200167870Y-106327743D01*
X200149094Y-106331956D01*
X200110224Y-106344112D01*
X200083984Y-106341576D01*
X200065288Y-106327743D01*
X200037994Y-106323530D01*
X199985879Y-106318309D01*
X199967010Y-106311222D01*
X199962889Y-106304662D01*
X199959561Y-106297708D01*
X199946220Y-106290923D01*
X199925337Y-106276269D01*
X199917002Y-106266743D01*
X199901432Y-106253096D01*
X199887785Y-106226809D01*
X199837501Y-106114244D01*
X199766243Y-105974293D01*
X199706384Y-105888335D01*
X199644419Y-105830569D01*
X199579672Y-105795507D01*
X199523069Y-105787172D01*
X199464359Y-105795507D01*
X199427789Y-105818572D01*
X199407756Y-105852294D01*
X199402904Y-105879546D01*
X199404642Y-105917598D01*
X199412477Y-105955808D01*
X199424517Y-105987024D01*
X199444642Y-106015192D01*
X199474892Y-106044818D01*
X199509366Y-106069295D01*
X199541937Y-106083744D01*
X199584985Y-106100597D01*
X199606967Y-106106917D01*
X199618507Y-106110031D01*
X199621621Y-106122670D01*
X199615393Y-106129998D01*
X199606967Y-106142729D01*
X199590186Y-106160820D01*
X199554576Y-106167916D01*
X199507412Y-106160221D01*
X199445583Y-106133203D01*
X199387322Y-106094078D01*
X199340711Y-106048024D01*
X199292534Y-105981712D01*
X199273575Y-105928131D01*
X199267307Y-105864722D01*
X199273575Y-105812360D01*
X199291504Y-105766223D01*
X199320836Y-105722967D01*
X199358370Y-105685817D01*
X199401528Y-105656747D01*
X199445583Y-105639894D01*
X199462253Y-105635681D01*
X199494298Y-105627102D01*
X199567124Y-105623041D01*
X199641003Y-105626833D01*
X199680331Y-105635498D01*
X199709732Y-105643832D01*
X199739041Y-105656197D01*
X199759008Y-105666547D01*
X199767342Y-105671676D01*
X199808192Y-105701718D01*
X199847636Y-105730954D01*
X199866902Y-105751360D01*
X199872630Y-105754900D01*
X199880824Y-105742934D01*
X199884854Y-105734507D01*
X199892822Y-105681934D01*
X199893830Y-105673599D01*
X199900791Y-105673599D01*
X199904628Y-105681231D01*
X199906744Y-105708221D01*
X199909040Y-105734340D01*
X199912698Y-105738721D01*
X199918515Y-105727763D01*
X199928000Y-105670577D01*
X199939534Y-105670577D01*
X199943747Y-105669478D01*
X199939534Y-105662151D01*
X199939534Y-105670577D01*
X199928000Y-105670577D01*
X199932390Y-105644107D01*
X199936140Y-105626451D01*
X199940175Y-105623041D01*
X199942190Y-105633574D01*
X199944296Y-105642000D01*
X199950616Y-105625148D01*
X199947502Y-105610493D01*
X199942190Y-105605272D01*
X199946403Y-105603166D01*
X199953822Y-105598953D01*
X199951715Y-105589519D01*
X199946403Y-105583199D01*
X199950616Y-105582192D01*
X199954829Y-105580085D01*
X199950616Y-105574773D01*
X199946403Y-105570559D01*
X199950616Y-105568453D01*
X199953822Y-105567445D01*
X199956936Y-105560118D01*
X199958509Y-105555862D01*
X200120652Y-105555862D01*
X200123357Y-105558011D01*
X200129585Y-105549585D01*
X200125464Y-105545372D01*
X200120652Y-105555862D01*
X199958509Y-105555862D01*
X199960050Y-105551692D01*
X199962157Y-105542258D01*
X199963164Y-105534839D01*
X199955837Y-105526504D01*
X199951225Y-105521821D01*
X199950616Y-105507545D01*
X199953607Y-105486078D01*
X199950616Y-105482357D01*
X199946403Y-105490784D01*
X199940266Y-105499210D01*
X199934679Y-105511850D01*
X199936603Y-105526504D01*
X199937519Y-105541159D01*
X199932055Y-105548247D01*
X199926986Y-105547478D01*
X199923413Y-105542111D01*
X199921399Y-105520184D01*
X199927079Y-105469135D01*
X199940083Y-105444530D01*
X199952723Y-105433081D01*
X199956844Y-105440409D01*
X199964027Y-105448271D01*
X199969301Y-105438302D01*
X199982856Y-105418335D01*
X199996320Y-105415129D01*
X200015096Y-105415221D01*
X200027553Y-105414122D01*
X200039002Y-105419343D01*
X200049386Y-105418577D01*
X200057778Y-105412015D01*
X200063498Y-105407036D01*
X200065013Y-105411008D01*
G37*
G36*
X199908118Y-105664257D02*
G01*
X199906011Y-105660044D01*
X199908118Y-105655831D01*
X199908118Y-105664257D01*
G37*
G36*
X199915170Y-105630643D02*
G01*
X199910957Y-105641176D01*
X199906744Y-105630643D01*
X199910957Y-105620110D01*
X199915170Y-105630643D01*
G37*
G36*
X199912331Y-105609669D02*
G01*
X199910225Y-105603349D01*
X199912331Y-105601242D01*
X199912331Y-105609669D01*
G37*
G36*
X199917552Y-105589702D02*
G01*
X199912331Y-105594923D01*
X199910225Y-105587595D01*
X199914438Y-105584481D01*
X199917552Y-105589702D01*
G37*
G36*
X199939534Y-105573948D02*
G01*
X199937427Y-105567629D01*
X199939534Y-105563415D01*
X199939534Y-105573948D01*
G37*
G36*
X199955287Y-105541433D02*
G01*
X199952173Y-105555081D01*
X199947960Y-105555081D01*
X199943747Y-105542441D01*
X199952173Y-105534015D01*
X199955287Y-105541433D01*
G37*
G36*
X200159719Y-105468985D02*
G01*
X200157612Y-105473107D01*
X200153399Y-105466878D01*
X200154771Y-105461045D01*
X200159719Y-105468985D01*
G37*
G36*
X199235565Y-104243222D02*
G01*
X199244223Y-104249623D01*
X199250677Y-104247435D01*
X199278521Y-104241115D01*
X199308563Y-104238001D01*
X199316151Y-104238617D01*
X199324591Y-104248534D01*
X199332102Y-104270699D01*
X199336407Y-104279125D01*
X199347123Y-104298176D01*
X199355732Y-104340491D01*
X199362069Y-104426213D01*
X199380954Y-104508713D01*
X199412610Y-104588886D01*
X199427356Y-104624698D01*
X199442011Y-104660419D01*
X199459963Y-104689911D01*
X199490554Y-104713084D01*
X199537477Y-104738283D01*
X199566392Y-104744683D01*
X199587283Y-104734981D01*
X199608432Y-104696323D01*
X199652648Y-104609703D01*
X199713877Y-104538895D01*
X199793904Y-104482000D01*
X199858501Y-104454379D01*
X199910774Y-104446279D01*
X199963760Y-104454646D01*
X200033964Y-104484106D01*
X200093040Y-104522941D01*
X200130959Y-104556555D01*
X200156238Y-104595481D01*
X200175417Y-104625130D01*
X200179411Y-104637430D01*
X200186738Y-104657396D01*
X200202583Y-104660511D01*
X200213025Y-104665823D01*
X200219344Y-104681577D01*
X200217503Y-104689652D01*
X200213025Y-104687896D01*
X200206613Y-104677363D01*
X200202492Y-104668937D01*
X200206613Y-104687896D01*
X200215064Y-104705676D01*
X200223466Y-104704749D01*
X200225573Y-104698338D01*
X200221451Y-104696231D01*
X200221451Y-104692018D01*
X200229786Y-104686889D01*
X200238212Y-104702551D01*
X200248745Y-104719404D01*
X200252958Y-104727830D01*
X200250089Y-104737289D01*
X200240319Y-104727830D01*
X200238212Y-104721510D01*
X200223466Y-104708962D01*
X200232900Y-104731036D01*
X200244440Y-104753018D01*
X200248654Y-104767764D01*
X200253966Y-104774084D01*
X200267704Y-104800370D01*
X200278146Y-104826565D01*
X200282267Y-104823451D01*
X200281260Y-104815025D01*
X200276039Y-104805499D01*
X200269719Y-104786723D01*
X200263400Y-104767764D01*
X200258670Y-104751406D01*
X200261293Y-104738363D01*
X200277047Y-104755216D01*
X200286481Y-104776282D01*
X200290694Y-104782510D01*
X200315881Y-104827756D01*
X200343176Y-104887840D01*
X200355482Y-104930919D01*
X200355815Y-104950946D01*
X200354808Y-104957174D01*
X200361127Y-104950946D01*
X200366348Y-104945725D01*
X200368455Y-104952961D01*
X200359937Y-104969905D01*
X200355815Y-104974118D01*
X200362135Y-104972012D01*
X200369554Y-104974118D01*
X200370561Y-105003611D01*
X200368455Y-105037225D01*
X200364241Y-105014052D01*
X200360120Y-104988773D01*
X200352793Y-104975126D01*
X200345374Y-104961387D01*
X200343267Y-104958273D01*
X200339054Y-104948839D01*
X200333148Y-104946618D01*
X200330628Y-104958365D01*
X200343267Y-105028798D01*
X200348579Y-105070839D01*
X200355907Y-105112879D01*
X200355629Y-105134538D01*
X200343267Y-105146584D01*
X200328521Y-105155011D01*
X200342260Y-105169757D01*
X200352077Y-105181910D01*
X200351693Y-105187617D01*
X200328521Y-105190731D01*
X200311760Y-105190731D01*
X200305440Y-105203371D01*
X200302234Y-105228558D01*
X200300219Y-105241198D01*
X200282267Y-105234878D01*
X200263618Y-105226820D01*
X200223466Y-105220132D01*
X200186738Y-105209691D01*
X200155231Y-105189724D01*
X200126837Y-105173970D01*
X200106725Y-105164464D01*
X200112183Y-105157117D01*
X200116396Y-105144569D01*
X200119602Y-105133945D01*
X200122716Y-105116085D01*
X200125830Y-105098224D01*
X200128944Y-105090897D01*
X200125830Y-105070930D01*
X200118503Y-105047758D01*
X200108569Y-105019684D01*
X200116396Y-105030996D01*
X200124822Y-105045651D01*
X200122716Y-105033103D01*
X200103848Y-104984651D01*
X200091209Y-104955159D01*
X200097528Y-104959372D01*
X200107970Y-104978332D01*
X200112183Y-104984560D01*
X200113282Y-104977233D01*
X200109069Y-104964685D01*
X200103848Y-104955159D01*
X200099635Y-104944626D01*
X200093315Y-104921545D01*
X200071158Y-104873918D01*
X200303333Y-104873918D01*
X200312767Y-104904326D01*
X200315973Y-104916966D01*
X200320095Y-104932719D01*
X200324590Y-104938765D01*
X200331635Y-104937940D01*
X200337955Y-104924293D01*
X200331635Y-104912752D01*
X200325315Y-104903319D01*
X200320095Y-104892786D01*
X200314874Y-104883352D01*
X200310661Y-104874925D01*
X200303333Y-104873918D01*
X200071158Y-104873918D01*
X200063914Y-104858347D01*
X200051275Y-104847814D01*
X200042940Y-104839480D01*
X200039826Y-104827939D01*
X200037719Y-104819421D01*
X200021966Y-104796249D01*
X200003006Y-104768863D01*
X199994488Y-104751003D01*
X199990367Y-104744683D01*
X200000900Y-104748896D01*
X200005113Y-104751003D01*
X199998793Y-104740470D01*
X199988260Y-104738363D01*
X199981940Y-104732043D01*
X199974613Y-104718396D01*
X199956753Y-104696323D01*
X199920941Y-104654191D01*
X199882249Y-104625346D01*
X199841073Y-104616272D01*
X199817026Y-104623420D01*
X199786485Y-104649978D01*
X199769724Y-104681577D01*
X199759191Y-104713084D01*
X199767993Y-104738788D01*
X199805261Y-104782510D01*
X199834662Y-104812002D01*
X199836769Y-104841403D01*
X199834604Y-104872810D01*
X199822022Y-104919347D01*
X199795172Y-104984652D01*
X199778059Y-105007732D01*
X199748228Y-105030506D01*
X199736110Y-105035118D01*
X199711126Y-105039459D01*
X199692146Y-105051879D01*
X199659088Y-105075426D01*
X199637741Y-105081372D01*
X199604830Y-105072275D01*
X199579123Y-105043544D01*
X199564788Y-105021107D01*
X199548898Y-105006816D01*
X199516383Y-104982636D01*
X199415999Y-104898556D01*
X199354681Y-104846431D01*
X199286123Y-104797806D01*
X199217063Y-104747431D01*
X199196181Y-104715923D01*
X199185739Y-104682309D01*
X199194166Y-104656023D01*
X199212942Y-104638071D01*
X199221368Y-104623416D01*
X199168062Y-104413398D01*
X199167055Y-104385005D01*
X199169070Y-104340858D01*
X199172434Y-104320520D01*
X199181984Y-104305137D01*
X199205523Y-104266303D01*
X199212026Y-104246336D01*
X199219536Y-104236902D01*
X199227047Y-104235894D01*
X199235565Y-104243222D01*
G37*
G36*
X200382285Y-105115352D02*
G01*
X200384392Y-105133212D01*
X200385491Y-105138524D01*
X200380178Y-105133212D01*
X200375472Y-105122615D01*
X200378072Y-105112238D01*
X200382285Y-105115352D01*
G37*
G36*
X200111542Y-105107017D02*
G01*
X200117770Y-105114344D01*
X200109344Y-105112238D01*
X200103115Y-105105918D01*
X200111542Y-105107017D01*
G37*
D11*
X164739200Y-130868095D02*
X164834438Y-130582381D01*
X164834438Y-130582381D02*
X164834438Y-130106190D01*
X164834438Y-130106190D02*
X164739200Y-129915714D01*
X164739200Y-129915714D02*
X164643961Y-129820476D01*
X164643961Y-129820476D02*
X164453485Y-129725238D01*
X164453485Y-129725238D02*
X164263009Y-129725238D01*
X164263009Y-129725238D02*
X164072533Y-129820476D01*
X164072533Y-129820476D02*
X163977295Y-129915714D01*
X163977295Y-129915714D02*
X163882057Y-130106190D01*
X163882057Y-130106190D02*
X163786819Y-130487143D01*
X163786819Y-130487143D02*
X163691580Y-130677619D01*
X163691580Y-130677619D02*
X163596342Y-130772857D01*
X163596342Y-130772857D02*
X163405866Y-130868095D01*
X163405866Y-130868095D02*
X163215390Y-130868095D01*
X163215390Y-130868095D02*
X163024914Y-130772857D01*
X163024914Y-130772857D02*
X162929676Y-130677619D01*
X162929676Y-130677619D02*
X162834438Y-130487143D01*
X162834438Y-130487143D02*
X162834438Y-130010952D01*
X162834438Y-130010952D02*
X162929676Y-129725238D01*
X163786819Y-128868095D02*
X163786819Y-128201428D01*
X164834438Y-127915714D02*
X164834438Y-128868095D01*
X164834438Y-128868095D02*
X162834438Y-128868095D01*
X162834438Y-128868095D02*
X162834438Y-127915714D01*
X164834438Y-125915714D02*
X163882057Y-126582381D01*
X164834438Y-127058571D02*
X162834438Y-127058571D01*
X162834438Y-127058571D02*
X162834438Y-126296666D01*
X162834438Y-126296666D02*
X162929676Y-126106190D01*
X162929676Y-126106190D02*
X163024914Y-126010952D01*
X163024914Y-126010952D02*
X163215390Y-125915714D01*
X163215390Y-125915714D02*
X163501104Y-125915714D01*
X163501104Y-125915714D02*
X163691580Y-126010952D01*
X163691580Y-126010952D02*
X163786819Y-126106190D01*
X163786819Y-126106190D02*
X163882057Y-126296666D01*
X163882057Y-126296666D02*
X163882057Y-127058571D01*
X162834438Y-125344285D02*
X164834438Y-124677619D01*
X164834438Y-124677619D02*
X162834438Y-124010952D01*
X163786819Y-123344285D02*
X163786819Y-122677618D01*
X164834438Y-122391904D02*
X164834438Y-123344285D01*
X164834438Y-123344285D02*
X162834438Y-123344285D01*
X162834438Y-123344285D02*
X162834438Y-122391904D01*
X164834438Y-120391904D02*
X163882057Y-121058571D01*
X164834438Y-121534761D02*
X162834438Y-121534761D01*
X162834438Y-121534761D02*
X162834438Y-120772856D01*
X162834438Y-120772856D02*
X162929676Y-120582380D01*
X162929676Y-120582380D02*
X163024914Y-120487142D01*
X163024914Y-120487142D02*
X163215390Y-120391904D01*
X163215390Y-120391904D02*
X163501104Y-120391904D01*
X163501104Y-120391904D02*
X163691580Y-120487142D01*
X163691580Y-120487142D02*
X163786819Y-120582380D01*
X163786819Y-120582380D02*
X163882057Y-120772856D01*
X163882057Y-120772856D02*
X163882057Y-121534761D01*
D12*
G36*
X195998004Y-124287344D02*
G01*
X196263740Y-124601562D01*
X196263740Y-125089560D01*
X195998004Y-125293258D01*
X195998004Y-124287344D01*
G37*
G36*
X197107233Y-125314751D02*
G01*
X197512431Y-125398893D01*
X197774138Y-125712257D01*
X197041898Y-125559971D01*
X196943712Y-125442490D01*
X197107233Y-125314751D01*
G37*
G36*
X196739769Y-125497201D02*
G01*
X196046608Y-125353098D01*
X196312466Y-125149521D01*
X196673213Y-125224504D01*
X196842107Y-125421363D01*
X196739769Y-125497201D01*
G37*
G36*
X197042508Y-124457093D02*
G01*
X197780000Y-124610477D01*
X197516461Y-124814664D01*
X197108454Y-124729912D01*
X196943712Y-124533785D01*
X197042508Y-124457093D01*
G37*
G36*
X196674068Y-124639542D02*
G01*
X196314909Y-124564926D01*
X196049050Y-124250585D01*
X196740136Y-124394322D01*
X196842107Y-124512658D01*
X196674068Y-124639542D01*
G37*
G36*
X196756133Y-124671538D02*
G01*
X196889002Y-124569689D01*
X197021870Y-124726737D01*
X197021870Y-125279458D01*
X196889002Y-125381308D01*
X196756133Y-125224259D01*
X196756133Y-124671538D01*
G37*
G36*
X197467857Y-123121206D02*
G01*
X197600237Y-123278255D01*
X197467857Y-123380226D01*
X197109064Y-123305610D01*
X196943712Y-123109361D01*
X197042997Y-123032790D01*
X197467857Y-123121206D01*
G37*
G36*
X197780000Y-123980331D02*
G01*
X197647131Y-124082180D01*
X197514263Y-123925132D01*
X197514263Y-123437135D01*
X197647131Y-123335285D01*
X197780000Y-123492333D01*
X197780000Y-123980331D01*
G37*
G36*
X196739891Y-122969776D02*
G01*
X196842107Y-123088234D01*
X196673457Y-123214996D01*
X196264473Y-123129999D01*
X195996050Y-122815170D01*
X196739891Y-122969776D01*
G37*
G36*
X195998126Y-123918659D02*
G01*
X196265816Y-123715327D01*
X196673824Y-123800202D01*
X196842107Y-123996939D01*
X196740136Y-124072899D01*
X195998126Y-123918659D01*
G37*
G36*
X197464316Y-124223474D02*
G01*
X197596695Y-124121503D01*
X197464316Y-123964577D01*
X197105401Y-123889961D01*
X196940048Y-124017333D01*
X197039211Y-124135058D01*
X197464316Y-124223474D01*
G37*
G36*
X197661297Y-122157790D02*
G01*
X197793677Y-122314839D01*
X197661297Y-122416810D01*
X197109064Y-122302016D01*
X196943712Y-122105767D01*
X197042997Y-122029197D01*
X197661297Y-122157790D01*
G37*
G36*
X196739525Y-121966182D02*
G01*
X196842107Y-122084640D01*
X196672725Y-122211280D01*
X196467561Y-122168659D01*
X196334082Y-122011367D01*
X196467561Y-121909640D01*
X196739525Y-121966182D01*
G37*
G36*
X196129651Y-121358750D02*
G01*
X196263740Y-121518729D01*
X196263740Y-122477260D01*
X196129651Y-122578743D01*
X195998004Y-122421939D01*
X195998004Y-121463408D01*
X196129651Y-121358750D01*
G37*
G36*
X196740258Y-120121049D02*
G01*
X196842107Y-120239385D01*
X196674068Y-120366269D01*
X196315153Y-120291653D01*
X196182773Y-120134727D01*
X196315153Y-120032633D01*
X196740258Y-120121049D01*
G37*
G36*
X196129651Y-120170875D02*
G01*
X196263740Y-120328289D01*
X196263740Y-120816287D01*
X196129651Y-120917770D01*
X195998004Y-120760966D01*
X195998004Y-120272968D01*
X196129651Y-120170875D01*
G37*
G36*
X197467857Y-120272358D02*
G01*
X197600237Y-120429406D01*
X197467857Y-120531377D01*
X197109064Y-120456761D01*
X196943712Y-120260512D01*
X197042997Y-120183942D01*
X197467857Y-120272358D01*
G37*
G36*
X196674068Y-120951353D02*
G01*
X196842107Y-121148091D01*
X196740258Y-121224050D01*
X196315153Y-121135634D01*
X196182773Y-120978708D01*
X196315153Y-120876737D01*
X196674068Y-120951353D01*
G37*
G36*
X197780000Y-121131482D02*
G01*
X197647131Y-121233331D01*
X197514263Y-121076283D01*
X197514263Y-120588286D01*
X197647131Y-120486437D01*
X197780000Y-120643485D01*
X197780000Y-121131482D01*
G37*
G36*
X197464316Y-121374626D02*
G01*
X197596695Y-121272654D01*
X197464316Y-121115728D01*
X197105401Y-121041112D01*
X196940048Y-121168485D01*
X197039211Y-121286210D01*
X197464316Y-121374626D01*
G37*
G36*
X197780000Y-119707058D02*
G01*
X197647131Y-119808907D01*
X197514263Y-119651859D01*
X197514263Y-119116601D01*
X197780000Y-118912780D01*
X197780000Y-119707058D01*
G37*
G36*
X195998004Y-118542264D02*
G01*
X196263740Y-118856604D01*
X196263740Y-119391862D01*
X196129651Y-119493345D01*
X195998004Y-119336541D01*
X195998004Y-118542264D01*
G37*
G36*
X196672725Y-119526684D02*
G01*
X196840764Y-119723422D01*
X196738914Y-119799382D01*
X196313810Y-119710966D01*
X196181430Y-119554040D01*
X196313810Y-119452068D01*
X196672725Y-119526684D01*
G37*
G36*
X197467857Y-119950934D02*
G01*
X197600237Y-119848963D01*
X197467857Y-119692037D01*
X197108942Y-119617421D01*
X196943590Y-119744793D01*
X197042752Y-119862518D01*
X197467857Y-119950934D01*
G37*
G36*
X195998004Y-117165222D02*
G01*
X196263740Y-117479441D01*
X196263740Y-117967438D01*
X195998004Y-118171137D01*
X195998004Y-117165222D01*
G37*
G36*
X197107233Y-118192630D02*
G01*
X197512431Y-118276772D01*
X197774138Y-118590135D01*
X197041898Y-118437850D01*
X196943712Y-118320369D01*
X197107233Y-118192630D01*
G37*
G36*
X196739769Y-118375079D02*
G01*
X196046608Y-118230976D01*
X196312466Y-118027400D01*
X196673213Y-118102382D01*
X196842107Y-118299242D01*
X196739769Y-118375079D01*
G37*
G36*
X197042508Y-117334971D02*
G01*
X197780000Y-117488356D01*
X197516461Y-117692543D01*
X197108454Y-117607790D01*
X196943712Y-117411663D01*
X197042508Y-117334971D01*
G37*
G36*
X196674068Y-117517421D02*
G01*
X196314909Y-117442804D01*
X196049050Y-117128464D01*
X196740136Y-117272201D01*
X196842107Y-117390536D01*
X196674068Y-117517421D01*
G37*
G36*
X196756133Y-117549416D02*
G01*
X196889002Y-117447567D01*
X197021870Y-117604615D01*
X197021870Y-118157337D01*
X196889002Y-118259186D01*
X196756133Y-118102138D01*
X196756133Y-117549416D01*
G37*
G36*
X195998004Y-115740798D02*
G01*
X196263740Y-116055017D01*
X196263740Y-116543014D01*
X195998004Y-116746712D01*
X195998004Y-115740798D01*
G37*
G36*
X197107233Y-116768206D02*
G01*
X197512431Y-116852347D01*
X197774138Y-117165711D01*
X197041898Y-117013426D01*
X196943712Y-116895945D01*
X197107233Y-116768206D01*
G37*
G36*
X196739769Y-116950655D02*
G01*
X196046608Y-116806552D01*
X196312466Y-116602975D01*
X196673213Y-116677958D01*
X196842107Y-116874818D01*
X196739769Y-116950655D01*
G37*
G36*
X197042508Y-115910547D02*
G01*
X197780000Y-116063931D01*
X197516461Y-116268118D01*
X197108454Y-116183366D01*
X196943712Y-115987239D01*
X197042508Y-115910547D01*
G37*
G36*
X196674068Y-116092996D02*
G01*
X196314909Y-116018380D01*
X196049050Y-115704040D01*
X196740136Y-115847777D01*
X196842107Y-115966112D01*
X196674068Y-116092996D01*
G37*
G36*
X196458646Y-116461559D02*
G01*
X196326266Y-116302068D01*
X196458646Y-116200219D01*
X196980715Y-116308663D01*
X197115659Y-116466199D01*
X196980715Y-116570003D01*
X196458646Y-116461559D01*
G37*
G36*
X196129651Y-113635913D02*
G01*
X196263740Y-113793450D01*
X196263740Y-114458157D01*
X196129651Y-114559640D01*
X195998004Y-114402836D01*
X195998004Y-113738129D01*
X196129651Y-113635913D01*
G37*
G36*
X197467857Y-113914228D02*
G01*
X197600237Y-114071276D01*
X197467857Y-114173248D01*
X197108942Y-114098631D01*
X196943590Y-113902382D01*
X197042752Y-113825812D01*
X197467857Y-113914228D01*
G37*
G36*
X196672725Y-114592979D02*
G01*
X196840764Y-114789717D01*
X196738914Y-114865676D01*
X196313810Y-114777260D01*
X196181430Y-114620334D01*
X196313810Y-114518363D01*
X196672725Y-114592979D01*
G37*
G36*
X197780000Y-114952626D02*
G01*
X197647131Y-115054476D01*
X197514263Y-114897428D01*
X197514263Y-114230156D01*
X197647131Y-114128307D01*
X197780000Y-114285355D01*
X197780000Y-114952626D01*
G37*
G36*
X196756133Y-114040135D02*
G01*
X196889002Y-113938286D01*
X197021870Y-114095334D01*
X197021870Y-114648056D01*
X196889002Y-114749905D01*
X196756133Y-114592857D01*
X196756133Y-114040135D01*
G37*
G36*
X195998004Y-112184134D02*
G01*
X196263740Y-112498474D01*
X196263740Y-113033733D01*
X195998004Y-113237431D01*
X195998004Y-112184134D01*
G37*
G36*
X197780000Y-112554650D02*
G01*
X197780000Y-113607948D01*
X197514263Y-113293729D01*
X197514263Y-112758471D01*
X197780000Y-112554650D01*
G37*
G36*
X197108454Y-113259169D02*
G01*
X197465659Y-113333419D01*
X197731395Y-113647515D01*
X197042752Y-113504389D01*
X196943712Y-113386663D01*
X197108454Y-113259169D01*
G37*
G36*
X196739769Y-113441374D02*
G01*
X196046608Y-113297271D01*
X196312466Y-113093694D01*
X196673213Y-113168677D01*
X196842107Y-113365536D01*
X196739769Y-113441374D01*
G37*
G36*
X196756133Y-112615711D02*
G01*
X196889002Y-112513862D01*
X197021870Y-112670910D01*
X197021870Y-113223631D01*
X196889002Y-113325481D01*
X196756133Y-113168432D01*
X196756133Y-112615711D01*
G37*
G36*
X197107233Y-111834500D02*
G01*
X197512431Y-111918642D01*
X197774138Y-112232005D01*
X197041898Y-112079720D01*
X196943712Y-111962239D01*
X197107233Y-111834500D01*
G37*
G36*
X196740990Y-112017194D02*
G01*
X196005697Y-111864298D01*
X196273998Y-111661210D01*
X196676144Y-111744863D01*
X196842107Y-111941112D01*
X196740990Y-112017194D01*
G37*
G36*
X197042508Y-110976841D02*
G01*
X197780000Y-111130226D01*
X197516461Y-111334413D01*
X197108454Y-111249661D01*
X196943712Y-111053534D01*
X197042508Y-110976841D01*
G37*
G36*
X196673824Y-111159291D02*
G01*
X196265816Y-111074416D01*
X195998126Y-110759832D01*
X196740136Y-110914071D01*
X196842107Y-111032407D01*
X196673824Y-111159291D01*
G37*
G36*
X195998126Y-111793101D02*
G01*
X196000324Y-111415013D01*
X196362658Y-111154284D01*
X196553046Y-111193851D01*
X196553046Y-111378132D01*
X195998126Y-111793101D01*
G37*
G36*
X196129651Y-109362640D02*
G01*
X196263740Y-109520177D01*
X196263740Y-110184884D01*
X196129651Y-110286367D01*
X195998004Y-110129563D01*
X195998004Y-109464856D01*
X196129651Y-109362640D01*
G37*
G36*
X197467857Y-109640955D02*
G01*
X197600237Y-109798003D01*
X197467857Y-109899975D01*
X197108942Y-109825359D01*
X196943590Y-109629109D01*
X197042752Y-109552539D01*
X197467857Y-109640955D01*
G37*
G36*
X196672725Y-110319706D02*
G01*
X196840764Y-110516444D01*
X196738914Y-110592403D01*
X196313810Y-110503987D01*
X196181430Y-110347061D01*
X196313810Y-110245090D01*
X196672725Y-110319706D01*
G37*
G36*
X197780000Y-110679354D02*
G01*
X197647131Y-110781203D01*
X197514263Y-110624155D01*
X197514263Y-109956883D01*
X197647131Y-109855034D01*
X197780000Y-110012082D01*
X197780000Y-110679354D01*
G37*
G36*
X196756133Y-109766862D02*
G01*
X196889002Y-109665013D01*
X197021870Y-109822061D01*
X197021870Y-110374783D01*
X196889002Y-110476632D01*
X196756133Y-110319584D01*
X196756133Y-109766862D01*
G37*
G36*
X196740258Y-108065222D02*
G01*
X196842107Y-108183558D01*
X196674068Y-108310442D01*
X196315153Y-108235826D01*
X196182773Y-108078900D01*
X196315153Y-107976807D01*
X196740258Y-108065222D01*
G37*
G36*
X196129651Y-108115048D02*
G01*
X196263740Y-108272463D01*
X196263740Y-108760460D01*
X196129651Y-108861943D01*
X195998004Y-108705139D01*
X195998004Y-108217141D01*
X196129651Y-108115048D01*
G37*
G36*
X197467857Y-108216531D02*
G01*
X197600237Y-108373579D01*
X197467857Y-108475550D01*
X197109064Y-108400934D01*
X196943712Y-108204685D01*
X197042997Y-108128115D01*
X197467857Y-108216531D01*
G37*
G36*
X196674068Y-108895526D02*
G01*
X196842107Y-109092264D01*
X196740258Y-109168223D01*
X196315153Y-109079807D01*
X196182773Y-108922881D01*
X196315153Y-108820910D01*
X196674068Y-108895526D01*
G37*
G36*
X197780000Y-109075655D02*
G01*
X197647131Y-109177504D01*
X197514263Y-109020456D01*
X197514263Y-108532459D01*
X197647131Y-108430610D01*
X197780000Y-108587658D01*
X197780000Y-109075655D01*
G37*
G36*
X197464316Y-109318799D02*
G01*
X197596695Y-109216827D01*
X197464316Y-109059901D01*
X197105401Y-108985285D01*
X196940048Y-109112658D01*
X197039211Y-109230383D01*
X197464316Y-109318799D01*
G37*
G36*
X197270875Y-107478185D02*
G01*
X197084396Y-107439472D01*
X197085251Y-107252749D01*
X197591688Y-106860250D01*
X197780000Y-106899451D01*
X197780000Y-107086053D01*
X197270875Y-107478185D01*
G37*
G36*
X197108454Y-107561472D02*
G01*
X197516461Y-107646224D01*
X197780000Y-107959954D01*
X197042508Y-107806569D01*
X196943712Y-107688966D01*
X197108454Y-107561472D01*
G37*
G36*
X196739769Y-107743677D02*
G01*
X196046608Y-107599573D01*
X196312466Y-107395997D01*
X196673213Y-107470980D01*
X196842107Y-107667839D01*
X196739769Y-107743677D01*
G37*
G36*
X196756133Y-106918014D02*
G01*
X196889002Y-106816165D01*
X197021870Y-106973213D01*
X197021870Y-107525934D01*
X196889002Y-107627784D01*
X196756133Y-107470735D01*
X196756133Y-106918014D01*
G37*
G36*
X196740258Y-106640798D02*
G01*
X196842107Y-106759134D01*
X196674068Y-106886018D01*
X196315153Y-106811402D01*
X196182773Y-106654476D01*
X196315153Y-106552382D01*
X196740258Y-106640798D01*
G37*
G36*
X196129651Y-106690624D02*
G01*
X196263740Y-106848038D01*
X196263740Y-107336035D01*
X195998004Y-107539734D01*
X195998004Y-106792717D01*
X196129651Y-106690624D01*
G37*
D11*
X175334438Y-126888571D02*
X175334438Y-125745714D01*
X177334438Y-126317143D02*
X175334438Y-126317143D01*
X176763009Y-125174285D02*
X176763009Y-124221904D01*
X177334438Y-125364761D02*
X175334438Y-124698095D01*
X175334438Y-124698095D02*
X177334438Y-124031428D01*
X175429676Y-122317142D02*
X175334438Y-122507618D01*
X175334438Y-122507618D02*
X175334438Y-122793332D01*
X175334438Y-122793332D02*
X175429676Y-123079047D01*
X175429676Y-123079047D02*
X175620152Y-123269523D01*
X175620152Y-123269523D02*
X175810628Y-123364761D01*
X175810628Y-123364761D02*
X176191580Y-123459999D01*
X176191580Y-123459999D02*
X176477295Y-123459999D01*
X176477295Y-123459999D02*
X176858247Y-123364761D01*
X176858247Y-123364761D02*
X177048723Y-123269523D01*
X177048723Y-123269523D02*
X177239200Y-123079047D01*
X177239200Y-123079047D02*
X177334438Y-122793332D01*
X177334438Y-122793332D02*
X177334438Y-122602856D01*
X177334438Y-122602856D02*
X177239200Y-122317142D01*
X177239200Y-122317142D02*
X177143961Y-122221904D01*
X177143961Y-122221904D02*
X176477295Y-122221904D01*
X176477295Y-122221904D02*
X176477295Y-122602856D01*
D10*
G36*
X197449363Y-105834067D02*
G01*
X197484961Y-105868445D01*
X197425244Y-105928223D01*
X197153340Y-105928223D01*
X197058025Y-105834067D01*
X197449363Y-105834067D01*
G37*
G36*
X197588276Y-105876077D02*
G01*
X197903349Y-106187853D01*
X197903349Y-106255325D01*
X197835450Y-106255325D01*
X197520132Y-105943549D01*
X197520132Y-105868445D01*
X197588276Y-105876077D01*
G37*
G36*
X197425366Y-106271873D02*
G01*
X197484961Y-106331712D01*
X197449485Y-106367311D01*
X197059063Y-106367311D01*
X197154134Y-106271873D01*
X197425366Y-106271873D01*
G37*
G36*
X197900296Y-106367311D02*
G01*
X197947069Y-106320233D01*
X197900296Y-106271873D01*
X197581803Y-106271873D01*
X197522391Y-106331651D01*
X197559028Y-106367311D01*
X197900296Y-106367311D01*
G37*
G36*
X197449790Y-105148233D02*
G01*
X197484961Y-105182611D01*
X197425610Y-105242389D01*
X197171109Y-105242389D01*
X197075610Y-105148233D01*
X197449790Y-105148233D01*
G37*
G36*
X197059002Y-105166063D02*
G01*
X197152791Y-105260219D01*
X197152791Y-105569552D01*
X197059002Y-105663708D01*
X197059002Y-105166063D01*
G37*
G36*
X197425122Y-105586039D02*
G01*
X197484961Y-105645878D01*
X197449302Y-105681477D01*
X197075122Y-105681477D01*
X197170621Y-105586039D01*
X197425122Y-105586039D01*
G37*
G36*
X197930460Y-105148233D02*
G01*
X197834900Y-105242389D01*
X197580033Y-105242389D01*
X197520132Y-105182611D01*
X197557074Y-105148233D01*
X197930460Y-105148233D01*
G37*
G36*
X197950000Y-105166063D02*
G01*
X197950000Y-105663708D01*
X197856210Y-105569552D01*
X197856210Y-105260219D01*
X197950000Y-105166063D01*
G37*
G36*
X197836182Y-105586039D02*
G01*
X197932170Y-105681477D01*
X197559211Y-105681477D01*
X197520132Y-105645817D01*
X197580277Y-105586039D01*
X197836182Y-105586039D01*
G37*
G36*
X197950000Y-104995643D02*
G01*
X197856210Y-104995643D01*
X197856210Y-104900205D01*
X197950000Y-104900205D01*
X197950000Y-104995643D01*
G37*
G36*
X197059002Y-104234032D02*
G01*
X197152791Y-104328188D01*
X197152791Y-104637522D01*
X197059002Y-104731677D01*
X197059002Y-104234032D01*
G37*
G36*
X197950000Y-104234032D02*
G01*
X197950000Y-104731677D01*
X197856210Y-104637522D01*
X197856210Y-104328188D01*
X197950000Y-104234032D01*
G37*
G36*
X197581926Y-104654008D02*
G01*
X197835389Y-104654008D01*
X197930460Y-104749446D01*
X197559150Y-104749446D01*
X197522391Y-104713848D01*
X197581926Y-104654008D01*
G37*
G36*
X197426892Y-104310358D02*
G01*
X197172391Y-104310358D01*
X197076892Y-104216203D01*
X197451072Y-104216203D01*
X197486732Y-104250580D01*
X197426892Y-104310358D01*
G37*
G36*
X197457606Y-104316770D02*
G01*
X197504501Y-104268349D01*
X197551395Y-104316770D01*
X197551395Y-104648940D01*
X197504501Y-104696018D01*
X197457606Y-104648940D01*
X197457606Y-104316770D01*
G37*
D13*
X153369523Y-86224619D02*
X154036190Y-86224619D01*
X154321904Y-87272238D02*
X153369523Y-87272238D01*
X153369523Y-87272238D02*
X153369523Y-85272238D01*
X153369523Y-85272238D02*
X154321904Y-85272238D01*
X155083809Y-87177000D02*
X155369523Y-87272238D01*
X155369523Y-87272238D02*
X155845714Y-87272238D01*
X155845714Y-87272238D02*
X156036190Y-87177000D01*
X156036190Y-87177000D02*
X156131428Y-87081761D01*
X156131428Y-87081761D02*
X156226666Y-86891285D01*
X156226666Y-86891285D02*
X156226666Y-86700809D01*
X156226666Y-86700809D02*
X156131428Y-86510333D01*
X156131428Y-86510333D02*
X156036190Y-86415095D01*
X156036190Y-86415095D02*
X155845714Y-86319857D01*
X155845714Y-86319857D02*
X155464761Y-86224619D01*
X155464761Y-86224619D02*
X155274285Y-86129380D01*
X155274285Y-86129380D02*
X155179047Y-86034142D01*
X155179047Y-86034142D02*
X155083809Y-85843666D01*
X155083809Y-85843666D02*
X155083809Y-85653190D01*
X155083809Y-85653190D02*
X155179047Y-85462714D01*
X155179047Y-85462714D02*
X155274285Y-85367476D01*
X155274285Y-85367476D02*
X155464761Y-85272238D01*
X155464761Y-85272238D02*
X155940952Y-85272238D01*
X155940952Y-85272238D02*
X156226666Y-85367476D01*
X157083809Y-87272238D02*
X157083809Y-85272238D01*
X157083809Y-85272238D02*
X157845714Y-85272238D01*
X157845714Y-85272238D02*
X158036190Y-85367476D01*
X158036190Y-85367476D02*
X158131428Y-85462714D01*
X158131428Y-85462714D02*
X158226666Y-85653190D01*
X158226666Y-85653190D02*
X158226666Y-85938904D01*
X158226666Y-85938904D02*
X158131428Y-86129380D01*
X158131428Y-86129380D02*
X158036190Y-86224619D01*
X158036190Y-86224619D02*
X157845714Y-86319857D01*
X157845714Y-86319857D02*
X157083809Y-86319857D01*
X158893333Y-85272238D02*
X160131428Y-85272238D01*
X160131428Y-85272238D02*
X159464761Y-86034142D01*
X159464761Y-86034142D02*
X159750476Y-86034142D01*
X159750476Y-86034142D02*
X159940952Y-86129380D01*
X159940952Y-86129380D02*
X160036190Y-86224619D01*
X160036190Y-86224619D02*
X160131428Y-86415095D01*
X160131428Y-86415095D02*
X160131428Y-86891285D01*
X160131428Y-86891285D02*
X160036190Y-87081761D01*
X160036190Y-87081761D02*
X159940952Y-87177000D01*
X159940952Y-87177000D02*
X159750476Y-87272238D01*
X159750476Y-87272238D02*
X159179047Y-87272238D01*
X159179047Y-87272238D02*
X158988571Y-87177000D01*
X158988571Y-87177000D02*
X158893333Y-87081761D01*
X160893333Y-85462714D02*
X160988571Y-85367476D01*
X160988571Y-85367476D02*
X161179047Y-85272238D01*
X161179047Y-85272238D02*
X161655238Y-85272238D01*
X161655238Y-85272238D02*
X161845714Y-85367476D01*
X161845714Y-85367476D02*
X161940952Y-85462714D01*
X161940952Y-85462714D02*
X162036190Y-85653190D01*
X162036190Y-85653190D02*
X162036190Y-85843666D01*
X162036190Y-85843666D02*
X161940952Y-86129380D01*
X161940952Y-86129380D02*
X160798095Y-87272238D01*
X160798095Y-87272238D02*
X162036190Y-87272238D01*
X162417143Y-87462714D02*
X163940952Y-87462714D01*
X164417143Y-85272238D02*
X164417143Y-86891285D01*
X164417143Y-86891285D02*
X164512381Y-87081761D01*
X164512381Y-87081761D02*
X164607619Y-87177000D01*
X164607619Y-87177000D02*
X164798095Y-87272238D01*
X164798095Y-87272238D02*
X165179048Y-87272238D01*
X165179048Y-87272238D02*
X165369524Y-87177000D01*
X165369524Y-87177000D02*
X165464762Y-87081761D01*
X165464762Y-87081761D02*
X165560000Y-86891285D01*
X165560000Y-86891285D02*
X165560000Y-85272238D01*
X166321905Y-85272238D02*
X166798095Y-87272238D01*
X166798095Y-87272238D02*
X167179048Y-85843666D01*
X167179048Y-85843666D02*
X167560000Y-87272238D01*
X167560000Y-87272238D02*
X168036191Y-85272238D01*
X169464762Y-86224619D02*
X169750476Y-86319857D01*
X169750476Y-86319857D02*
X169845714Y-86415095D01*
X169845714Y-86415095D02*
X169940952Y-86605571D01*
X169940952Y-86605571D02*
X169940952Y-86891285D01*
X169940952Y-86891285D02*
X169845714Y-87081761D01*
X169845714Y-87081761D02*
X169750476Y-87177000D01*
X169750476Y-87177000D02*
X169560000Y-87272238D01*
X169560000Y-87272238D02*
X168798095Y-87272238D01*
X168798095Y-87272238D02*
X168798095Y-85272238D01*
X168798095Y-85272238D02*
X169464762Y-85272238D01*
X169464762Y-85272238D02*
X169655238Y-85367476D01*
X169655238Y-85367476D02*
X169750476Y-85462714D01*
X169750476Y-85462714D02*
X169845714Y-85653190D01*
X169845714Y-85653190D02*
X169845714Y-85843666D01*
X169845714Y-85843666D02*
X169750476Y-86034142D01*
X169750476Y-86034142D02*
X169655238Y-86129380D01*
X169655238Y-86129380D02*
X169464762Y-86224619D01*
X169464762Y-86224619D02*
X168798095Y-86224619D01*
X171845714Y-87272238D02*
X170702857Y-87272238D01*
X171274285Y-87272238D02*
X171274285Y-85272238D01*
X171274285Y-85272238D02*
X171083809Y-85557952D01*
X171083809Y-85557952D02*
X170893333Y-85748428D01*
X170893333Y-85748428D02*
X170702857Y-85843666D01*
D14*
X195588095Y-84547419D02*
X195588095Y-85356942D01*
X195588095Y-85356942D02*
X195635714Y-85452180D01*
X195635714Y-85452180D02*
X195683333Y-85499800D01*
X195683333Y-85499800D02*
X195778571Y-85547419D01*
X195778571Y-85547419D02*
X195969047Y-85547419D01*
X195969047Y-85547419D02*
X196064285Y-85499800D01*
X196064285Y-85499800D02*
X196111904Y-85452180D01*
X196111904Y-85452180D02*
X196159523Y-85356942D01*
X196159523Y-85356942D02*
X196159523Y-84547419D01*
X196588095Y-85499800D02*
X196730952Y-85547419D01*
X196730952Y-85547419D02*
X196969047Y-85547419D01*
X196969047Y-85547419D02*
X197064285Y-85499800D01*
X197064285Y-85499800D02*
X197111904Y-85452180D01*
X197111904Y-85452180D02*
X197159523Y-85356942D01*
X197159523Y-85356942D02*
X197159523Y-85261704D01*
X197159523Y-85261704D02*
X197111904Y-85166466D01*
X197111904Y-85166466D02*
X197064285Y-85118847D01*
X197064285Y-85118847D02*
X196969047Y-85071228D01*
X196969047Y-85071228D02*
X196778571Y-85023609D01*
X196778571Y-85023609D02*
X196683333Y-84975990D01*
X196683333Y-84975990D02*
X196635714Y-84928371D01*
X196635714Y-84928371D02*
X196588095Y-84833133D01*
X196588095Y-84833133D02*
X196588095Y-84737895D01*
X196588095Y-84737895D02*
X196635714Y-84642657D01*
X196635714Y-84642657D02*
X196683333Y-84595038D01*
X196683333Y-84595038D02*
X196778571Y-84547419D01*
X196778571Y-84547419D02*
X197016666Y-84547419D01*
X197016666Y-84547419D02*
X197159523Y-84595038D01*
X197921428Y-85023609D02*
X198064285Y-85071228D01*
X198064285Y-85071228D02*
X198111904Y-85118847D01*
X198111904Y-85118847D02*
X198159523Y-85214085D01*
X198159523Y-85214085D02*
X198159523Y-85356942D01*
X198159523Y-85356942D02*
X198111904Y-85452180D01*
X198111904Y-85452180D02*
X198064285Y-85499800D01*
X198064285Y-85499800D02*
X197969047Y-85547419D01*
X197969047Y-85547419D02*
X197588095Y-85547419D01*
X197588095Y-85547419D02*
X197588095Y-84547419D01*
X197588095Y-84547419D02*
X197921428Y-84547419D01*
X197921428Y-84547419D02*
X198016666Y-84595038D01*
X198016666Y-84595038D02*
X198064285Y-84642657D01*
X198064285Y-84642657D02*
X198111904Y-84737895D01*
X198111904Y-84737895D02*
X198111904Y-84833133D01*
X198111904Y-84833133D02*
X198064285Y-84928371D01*
X198064285Y-84928371D02*
X198016666Y-84975990D01*
X198016666Y-84975990D02*
X197921428Y-85023609D01*
X197921428Y-85023609D02*
X197588095Y-85023609D01*
X166759523Y-73117419D02*
X166759523Y-73926942D01*
X166759523Y-73926942D02*
X166807142Y-74022180D01*
X166807142Y-74022180D02*
X166854761Y-74069800D01*
X166854761Y-74069800D02*
X166949999Y-74117419D01*
X166949999Y-74117419D02*
X167140475Y-74117419D01*
X167140475Y-74117419D02*
X167235713Y-74069800D01*
X167235713Y-74069800D02*
X167283332Y-74022180D01*
X167283332Y-74022180D02*
X167330951Y-73926942D01*
X167330951Y-73926942D02*
X167330951Y-73117419D01*
X167711904Y-73117419D02*
X167949999Y-74117419D01*
X167949999Y-74117419D02*
X168140475Y-73403133D01*
X168140475Y-73403133D02*
X168330951Y-74117419D01*
X168330951Y-74117419D02*
X168569047Y-73117419D01*
X169283332Y-73593609D02*
X169426189Y-73641228D01*
X169426189Y-73641228D02*
X169473808Y-73688847D01*
X169473808Y-73688847D02*
X169521427Y-73784085D01*
X169521427Y-73784085D02*
X169521427Y-73926942D01*
X169521427Y-73926942D02*
X169473808Y-74022180D01*
X169473808Y-74022180D02*
X169426189Y-74069800D01*
X169426189Y-74069800D02*
X169330951Y-74117419D01*
X169330951Y-74117419D02*
X168949999Y-74117419D01*
X168949999Y-74117419D02*
X168949999Y-73117419D01*
X168949999Y-73117419D02*
X169283332Y-73117419D01*
X169283332Y-73117419D02*
X169378570Y-73165038D01*
X169378570Y-73165038D02*
X169426189Y-73212657D01*
X169426189Y-73212657D02*
X169473808Y-73307895D01*
X169473808Y-73307895D02*
X169473808Y-73403133D01*
X169473808Y-73403133D02*
X169426189Y-73498371D01*
X169426189Y-73498371D02*
X169378570Y-73545990D01*
X169378570Y-73545990D02*
X169283332Y-73593609D01*
X169283332Y-73593609D02*
X168949999Y-73593609D01*
X170664285Y-73831704D02*
X171140475Y-73831704D01*
X170569047Y-74117419D02*
X170902380Y-73117419D01*
X170902380Y-73117419D02*
X171235713Y-74117419D01*
X171569047Y-73450752D02*
X171569047Y-74117419D01*
X171569047Y-73545990D02*
X171616666Y-73498371D01*
X171616666Y-73498371D02*
X171711904Y-73450752D01*
X171711904Y-73450752D02*
X171854761Y-73450752D01*
X171854761Y-73450752D02*
X171949999Y-73498371D01*
X171949999Y-73498371D02*
X171997618Y-73593609D01*
X171997618Y-73593609D02*
X171997618Y-74117419D01*
X172330952Y-73450752D02*
X172711904Y-73450752D01*
X172473809Y-73117419D02*
X172473809Y-73974561D01*
X172473809Y-73974561D02*
X172521428Y-74069800D01*
X172521428Y-74069800D02*
X172616666Y-74117419D01*
X172616666Y-74117419D02*
X172711904Y-74117419D01*
X173426190Y-74069800D02*
X173330952Y-74117419D01*
X173330952Y-74117419D02*
X173140476Y-74117419D01*
X173140476Y-74117419D02*
X173045238Y-74069800D01*
X173045238Y-74069800D02*
X172997619Y-73974561D01*
X172997619Y-73974561D02*
X172997619Y-73593609D01*
X172997619Y-73593609D02*
X173045238Y-73498371D01*
X173045238Y-73498371D02*
X173140476Y-73450752D01*
X173140476Y-73450752D02*
X173330952Y-73450752D01*
X173330952Y-73450752D02*
X173426190Y-73498371D01*
X173426190Y-73498371D02*
X173473809Y-73593609D01*
X173473809Y-73593609D02*
X173473809Y-73688847D01*
X173473809Y-73688847D02*
X172997619Y-73784085D01*
X173902381Y-73450752D02*
X173902381Y-74117419D01*
X173902381Y-73545990D02*
X173950000Y-73498371D01*
X173950000Y-73498371D02*
X174045238Y-73450752D01*
X174045238Y-73450752D02*
X174188095Y-73450752D01*
X174188095Y-73450752D02*
X174283333Y-73498371D01*
X174283333Y-73498371D02*
X174330952Y-73593609D01*
X174330952Y-73593609D02*
X174330952Y-74117419D01*
X174807143Y-73450752D02*
X174807143Y-74117419D01*
X174807143Y-73545990D02*
X174854762Y-73498371D01*
X174854762Y-73498371D02*
X174950000Y-73450752D01*
X174950000Y-73450752D02*
X175092857Y-73450752D01*
X175092857Y-73450752D02*
X175188095Y-73498371D01*
X175188095Y-73498371D02*
X175235714Y-73593609D01*
X175235714Y-73593609D02*
X175235714Y-74117419D01*
X176140476Y-74117419D02*
X176140476Y-73593609D01*
X176140476Y-73593609D02*
X176092857Y-73498371D01*
X176092857Y-73498371D02*
X175997619Y-73450752D01*
X175997619Y-73450752D02*
X175807143Y-73450752D01*
X175807143Y-73450752D02*
X175711905Y-73498371D01*
X176140476Y-74069800D02*
X176045238Y-74117419D01*
X176045238Y-74117419D02*
X175807143Y-74117419D01*
X175807143Y-74117419D02*
X175711905Y-74069800D01*
X175711905Y-74069800D02*
X175664286Y-73974561D01*
X175664286Y-73974561D02*
X175664286Y-73879323D01*
X175664286Y-73879323D02*
X175711905Y-73784085D01*
X175711905Y-73784085D02*
X175807143Y-73736466D01*
X175807143Y-73736466D02*
X176045238Y-73736466D01*
X176045238Y-73736466D02*
X176140476Y-73688847D01*
X129473609Y-90566190D02*
X129473609Y-90232857D01*
X129997419Y-90090000D02*
X129997419Y-90566190D01*
X129997419Y-90566190D02*
X128997419Y-90566190D01*
X128997419Y-90566190D02*
X128997419Y-90090000D01*
X129949800Y-89709047D02*
X129997419Y-89566190D01*
X129997419Y-89566190D02*
X129997419Y-89328095D01*
X129997419Y-89328095D02*
X129949800Y-89232857D01*
X129949800Y-89232857D02*
X129902180Y-89185238D01*
X129902180Y-89185238D02*
X129806942Y-89137619D01*
X129806942Y-89137619D02*
X129711704Y-89137619D01*
X129711704Y-89137619D02*
X129616466Y-89185238D01*
X129616466Y-89185238D02*
X129568847Y-89232857D01*
X129568847Y-89232857D02*
X129521228Y-89328095D01*
X129521228Y-89328095D02*
X129473609Y-89518571D01*
X129473609Y-89518571D02*
X129425990Y-89613809D01*
X129425990Y-89613809D02*
X129378371Y-89661428D01*
X129378371Y-89661428D02*
X129283133Y-89709047D01*
X129283133Y-89709047D02*
X129187895Y-89709047D01*
X129187895Y-89709047D02*
X129092657Y-89661428D01*
X129092657Y-89661428D02*
X129045038Y-89613809D01*
X129045038Y-89613809D02*
X128997419Y-89518571D01*
X128997419Y-89518571D02*
X128997419Y-89280476D01*
X128997419Y-89280476D02*
X129045038Y-89137619D01*
X129997419Y-88709047D02*
X128997419Y-88709047D01*
X128997419Y-88709047D02*
X128997419Y-88328095D01*
X128997419Y-88328095D02*
X129045038Y-88232857D01*
X129045038Y-88232857D02*
X129092657Y-88185238D01*
X129092657Y-88185238D02*
X129187895Y-88137619D01*
X129187895Y-88137619D02*
X129330752Y-88137619D01*
X129330752Y-88137619D02*
X129425990Y-88185238D01*
X129425990Y-88185238D02*
X129473609Y-88232857D01*
X129473609Y-88232857D02*
X129521228Y-88328095D01*
X129521228Y-88328095D02*
X129521228Y-88709047D01*
X128997419Y-87804285D02*
X128997419Y-87185238D01*
X128997419Y-87185238D02*
X129378371Y-87518571D01*
X129378371Y-87518571D02*
X129378371Y-87375714D01*
X129378371Y-87375714D02*
X129425990Y-87280476D01*
X129425990Y-87280476D02*
X129473609Y-87232857D01*
X129473609Y-87232857D02*
X129568847Y-87185238D01*
X129568847Y-87185238D02*
X129806942Y-87185238D01*
X129806942Y-87185238D02*
X129902180Y-87232857D01*
X129902180Y-87232857D02*
X129949800Y-87280476D01*
X129949800Y-87280476D02*
X129997419Y-87375714D01*
X129997419Y-87375714D02*
X129997419Y-87661428D01*
X129997419Y-87661428D02*
X129949800Y-87756666D01*
X129949800Y-87756666D02*
X129902180Y-87804285D01*
X129092657Y-86804285D02*
X129045038Y-86756666D01*
X129045038Y-86756666D02*
X128997419Y-86661428D01*
X128997419Y-86661428D02*
X128997419Y-86423333D01*
X128997419Y-86423333D02*
X129045038Y-86328095D01*
X129045038Y-86328095D02*
X129092657Y-86280476D01*
X129092657Y-86280476D02*
X129187895Y-86232857D01*
X129187895Y-86232857D02*
X129283133Y-86232857D01*
X129283133Y-86232857D02*
X129425990Y-86280476D01*
X129425990Y-86280476D02*
X129997419Y-86851904D01*
X129997419Y-86851904D02*
X129997419Y-86232857D01*
X129711704Y-85089999D02*
X129711704Y-84613809D01*
X129997419Y-85185237D02*
X128997419Y-84851904D01*
X128997419Y-84851904D02*
X129997419Y-84518571D01*
X129330752Y-84185237D02*
X129997419Y-84185237D01*
X129425990Y-84185237D02*
X129378371Y-84137618D01*
X129378371Y-84137618D02*
X129330752Y-84042380D01*
X129330752Y-84042380D02*
X129330752Y-83899523D01*
X129330752Y-83899523D02*
X129378371Y-83804285D01*
X129378371Y-83804285D02*
X129473609Y-83756666D01*
X129473609Y-83756666D02*
X129997419Y-83756666D01*
X129330752Y-83423332D02*
X129330752Y-83042380D01*
X128997419Y-83280475D02*
X129854561Y-83280475D01*
X129854561Y-83280475D02*
X129949800Y-83232856D01*
X129949800Y-83232856D02*
X129997419Y-83137618D01*
X129997419Y-83137618D02*
X129997419Y-83042380D01*
X129949800Y-82328094D02*
X129997419Y-82423332D01*
X129997419Y-82423332D02*
X129997419Y-82613808D01*
X129997419Y-82613808D02*
X129949800Y-82709046D01*
X129949800Y-82709046D02*
X129854561Y-82756665D01*
X129854561Y-82756665D02*
X129473609Y-82756665D01*
X129473609Y-82756665D02*
X129378371Y-82709046D01*
X129378371Y-82709046D02*
X129330752Y-82613808D01*
X129330752Y-82613808D02*
X129330752Y-82423332D01*
X129330752Y-82423332D02*
X129378371Y-82328094D01*
X129378371Y-82328094D02*
X129473609Y-82280475D01*
X129473609Y-82280475D02*
X129568847Y-82280475D01*
X129568847Y-82280475D02*
X129664085Y-82756665D01*
X129330752Y-81851903D02*
X129997419Y-81851903D01*
X129425990Y-81851903D02*
X129378371Y-81804284D01*
X129378371Y-81804284D02*
X129330752Y-81709046D01*
X129330752Y-81709046D02*
X129330752Y-81566189D01*
X129330752Y-81566189D02*
X129378371Y-81470951D01*
X129378371Y-81470951D02*
X129473609Y-81423332D01*
X129473609Y-81423332D02*
X129997419Y-81423332D01*
X129330752Y-80947141D02*
X129997419Y-80947141D01*
X129425990Y-80947141D02*
X129378371Y-80899522D01*
X129378371Y-80899522D02*
X129330752Y-80804284D01*
X129330752Y-80804284D02*
X129330752Y-80661427D01*
X129330752Y-80661427D02*
X129378371Y-80566189D01*
X129378371Y-80566189D02*
X129473609Y-80518570D01*
X129473609Y-80518570D02*
X129997419Y-80518570D01*
X129997419Y-79613808D02*
X129473609Y-79613808D01*
X129473609Y-79613808D02*
X129378371Y-79661427D01*
X129378371Y-79661427D02*
X129330752Y-79756665D01*
X129330752Y-79756665D02*
X129330752Y-79947141D01*
X129330752Y-79947141D02*
X129378371Y-80042379D01*
X129949800Y-79613808D02*
X129997419Y-79709046D01*
X129997419Y-79709046D02*
X129997419Y-79947141D01*
X129997419Y-79947141D02*
X129949800Y-80042379D01*
X129949800Y-80042379D02*
X129854561Y-80089998D01*
X129854561Y-80089998D02*
X129759323Y-80089998D01*
X129759323Y-80089998D02*
X129664085Y-80042379D01*
X129664085Y-80042379D02*
X129616466Y-79947141D01*
X129616466Y-79947141D02*
X129616466Y-79709046D01*
X129616466Y-79709046D02*
X129568847Y-79613808D01*
D15*
X167195290Y-106799297D02*
X166957195Y-106965963D01*
X167195290Y-107085011D02*
X166695290Y-107085011D01*
X166695290Y-107085011D02*
X166695290Y-106894535D01*
X166695290Y-106894535D02*
X166719100Y-106846916D01*
X166719100Y-106846916D02*
X166742909Y-106823106D01*
X166742909Y-106823106D02*
X166790528Y-106799297D01*
X166790528Y-106799297D02*
X166861957Y-106799297D01*
X166861957Y-106799297D02*
X166909576Y-106823106D01*
X166909576Y-106823106D02*
X166933385Y-106846916D01*
X166933385Y-106846916D02*
X166957195Y-106894535D01*
X166957195Y-106894535D02*
X166957195Y-107085011D01*
X166695290Y-106632630D02*
X166695290Y-106323106D01*
X166695290Y-106323106D02*
X166885766Y-106489773D01*
X166885766Y-106489773D02*
X166885766Y-106418344D01*
X166885766Y-106418344D02*
X166909576Y-106370725D01*
X166909576Y-106370725D02*
X166933385Y-106346916D01*
X166933385Y-106346916D02*
X166981004Y-106323106D01*
X166981004Y-106323106D02*
X167100052Y-106323106D01*
X167100052Y-106323106D02*
X167147671Y-106346916D01*
X167147671Y-106346916D02*
X167171481Y-106370725D01*
X167171481Y-106370725D02*
X167195290Y-106418344D01*
X167195290Y-106418344D02*
X167195290Y-106561201D01*
X167195290Y-106561201D02*
X167171481Y-106608820D01*
X167171481Y-106608820D02*
X167147671Y-106632630D01*
X167868059Y-107310951D02*
X167868059Y-107596665D01*
X167868059Y-107453808D02*
X167368059Y-107453808D01*
X167368059Y-107453808D02*
X167439488Y-107501427D01*
X167439488Y-107501427D02*
X167487107Y-107549046D01*
X167487107Y-107549046D02*
X167510916Y-107596665D01*
X167368059Y-107001428D02*
X167368059Y-106953809D01*
X167368059Y-106953809D02*
X167391869Y-106906190D01*
X167391869Y-106906190D02*
X167415678Y-106882380D01*
X167415678Y-106882380D02*
X167463297Y-106858571D01*
X167463297Y-106858571D02*
X167558535Y-106834761D01*
X167558535Y-106834761D02*
X167677583Y-106834761D01*
X167677583Y-106834761D02*
X167772821Y-106858571D01*
X167772821Y-106858571D02*
X167820440Y-106882380D01*
X167820440Y-106882380D02*
X167844250Y-106906190D01*
X167844250Y-106906190D02*
X167868059Y-106953809D01*
X167868059Y-106953809D02*
X167868059Y-107001428D01*
X167868059Y-107001428D02*
X167844250Y-107049047D01*
X167844250Y-107049047D02*
X167820440Y-107072856D01*
X167820440Y-107072856D02*
X167772821Y-107096666D01*
X167772821Y-107096666D02*
X167677583Y-107120475D01*
X167677583Y-107120475D02*
X167558535Y-107120475D01*
X167558535Y-107120475D02*
X167463297Y-107096666D01*
X167463297Y-107096666D02*
X167415678Y-107072856D01*
X167415678Y-107072856D02*
X167391869Y-107049047D01*
X167391869Y-107049047D02*
X167368059Y-107001428D01*
X167868059Y-106620476D02*
X167368059Y-106620476D01*
X167868059Y-106334762D02*
X167582345Y-106549047D01*
X167368059Y-106334762D02*
X167653773Y-106620476D01*
X167868059Y-106144285D02*
X167868059Y-106025238D01*
X167868059Y-106025238D02*
X167772821Y-106025238D01*
X167772821Y-106025238D02*
X167749011Y-106072857D01*
X167749011Y-106072857D02*
X167701392Y-106120476D01*
X167701392Y-106120476D02*
X167629964Y-106144285D01*
X167629964Y-106144285D02*
X167510916Y-106144285D01*
X167510916Y-106144285D02*
X167439488Y-106120476D01*
X167439488Y-106120476D02*
X167391869Y-106072857D01*
X167391869Y-106072857D02*
X167368059Y-106001428D01*
X167368059Y-106001428D02*
X167368059Y-105906190D01*
X167368059Y-105906190D02*
X167391869Y-105834762D01*
X167391869Y-105834762D02*
X167439488Y-105787143D01*
X167439488Y-105787143D02*
X167510916Y-105763333D01*
X167510916Y-105763333D02*
X167629964Y-105763333D01*
X167629964Y-105763333D02*
X167701392Y-105787143D01*
X167701392Y-105787143D02*
X167749011Y-105834762D01*
X167749011Y-105834762D02*
X167772821Y-105882381D01*
X167772821Y-105882381D02*
X167868059Y-105882381D01*
X167868059Y-105882381D02*
X167868059Y-105763333D01*
X159575290Y-106799297D02*
X159337195Y-106965963D01*
X159575290Y-107085011D02*
X159075290Y-107085011D01*
X159075290Y-107085011D02*
X159075290Y-106894535D01*
X159075290Y-106894535D02*
X159099100Y-106846916D01*
X159099100Y-106846916D02*
X159122909Y-106823106D01*
X159122909Y-106823106D02*
X159170528Y-106799297D01*
X159170528Y-106799297D02*
X159241957Y-106799297D01*
X159241957Y-106799297D02*
X159289576Y-106823106D01*
X159289576Y-106823106D02*
X159313385Y-106846916D01*
X159313385Y-106846916D02*
X159337195Y-106894535D01*
X159337195Y-106894535D02*
X159337195Y-107085011D01*
X159575290Y-106323106D02*
X159575290Y-106608820D01*
X159575290Y-106465963D02*
X159075290Y-106465963D01*
X159075290Y-106465963D02*
X159146719Y-106513582D01*
X159146719Y-106513582D02*
X159194338Y-106561201D01*
X159194338Y-106561201D02*
X159218147Y-106608820D01*
X160248059Y-107310951D02*
X160248059Y-107596665D01*
X160248059Y-107453808D02*
X159748059Y-107453808D01*
X159748059Y-107453808D02*
X159819488Y-107501427D01*
X159819488Y-107501427D02*
X159867107Y-107549046D01*
X159867107Y-107549046D02*
X159890916Y-107596665D01*
X159748059Y-107001428D02*
X159748059Y-106953809D01*
X159748059Y-106953809D02*
X159771869Y-106906190D01*
X159771869Y-106906190D02*
X159795678Y-106882380D01*
X159795678Y-106882380D02*
X159843297Y-106858571D01*
X159843297Y-106858571D02*
X159938535Y-106834761D01*
X159938535Y-106834761D02*
X160057583Y-106834761D01*
X160057583Y-106834761D02*
X160152821Y-106858571D01*
X160152821Y-106858571D02*
X160200440Y-106882380D01*
X160200440Y-106882380D02*
X160224250Y-106906190D01*
X160224250Y-106906190D02*
X160248059Y-106953809D01*
X160248059Y-106953809D02*
X160248059Y-107001428D01*
X160248059Y-107001428D02*
X160224250Y-107049047D01*
X160224250Y-107049047D02*
X160200440Y-107072856D01*
X160200440Y-107072856D02*
X160152821Y-107096666D01*
X160152821Y-107096666D02*
X160057583Y-107120475D01*
X160057583Y-107120475D02*
X159938535Y-107120475D01*
X159938535Y-107120475D02*
X159843297Y-107096666D01*
X159843297Y-107096666D02*
X159795678Y-107072856D01*
X159795678Y-107072856D02*
X159771869Y-107049047D01*
X159771869Y-107049047D02*
X159748059Y-107001428D01*
X160248059Y-106620476D02*
X159748059Y-106620476D01*
X160248059Y-106334762D02*
X159962345Y-106549047D01*
X159748059Y-106334762D02*
X160033773Y-106620476D01*
X160248059Y-106144285D02*
X160248059Y-106025238D01*
X160248059Y-106025238D02*
X160152821Y-106025238D01*
X160152821Y-106025238D02*
X160129011Y-106072857D01*
X160129011Y-106072857D02*
X160081392Y-106120476D01*
X160081392Y-106120476D02*
X160009964Y-106144285D01*
X160009964Y-106144285D02*
X159890916Y-106144285D01*
X159890916Y-106144285D02*
X159819488Y-106120476D01*
X159819488Y-106120476D02*
X159771869Y-106072857D01*
X159771869Y-106072857D02*
X159748059Y-106001428D01*
X159748059Y-106001428D02*
X159748059Y-105906190D01*
X159748059Y-105906190D02*
X159771869Y-105834762D01*
X159771869Y-105834762D02*
X159819488Y-105787143D01*
X159819488Y-105787143D02*
X159890916Y-105763333D01*
X159890916Y-105763333D02*
X160009964Y-105763333D01*
X160009964Y-105763333D02*
X160081392Y-105787143D01*
X160081392Y-105787143D02*
X160129011Y-105834762D01*
X160129011Y-105834762D02*
X160152821Y-105882381D01*
X160152821Y-105882381D02*
X160248059Y-105882381D01*
X160248059Y-105882381D02*
X160248059Y-105763333D01*
X162115290Y-106799297D02*
X161877195Y-106965963D01*
X162115290Y-107085011D02*
X161615290Y-107085011D01*
X161615290Y-107085011D02*
X161615290Y-106894535D01*
X161615290Y-106894535D02*
X161639100Y-106846916D01*
X161639100Y-106846916D02*
X161662909Y-106823106D01*
X161662909Y-106823106D02*
X161710528Y-106799297D01*
X161710528Y-106799297D02*
X161781957Y-106799297D01*
X161781957Y-106799297D02*
X161829576Y-106823106D01*
X161829576Y-106823106D02*
X161853385Y-106846916D01*
X161853385Y-106846916D02*
X161877195Y-106894535D01*
X161877195Y-106894535D02*
X161877195Y-107085011D01*
X161662909Y-106608820D02*
X161639100Y-106585011D01*
X161639100Y-106585011D02*
X161615290Y-106537392D01*
X161615290Y-106537392D02*
X161615290Y-106418344D01*
X161615290Y-106418344D02*
X161639100Y-106370725D01*
X161639100Y-106370725D02*
X161662909Y-106346916D01*
X161662909Y-106346916D02*
X161710528Y-106323106D01*
X161710528Y-106323106D02*
X161758147Y-106323106D01*
X161758147Y-106323106D02*
X161829576Y-106346916D01*
X161829576Y-106346916D02*
X162115290Y-106632630D01*
X162115290Y-106632630D02*
X162115290Y-106323106D01*
X162788059Y-107310951D02*
X162788059Y-107596665D01*
X162788059Y-107453808D02*
X162288059Y-107453808D01*
X162288059Y-107453808D02*
X162359488Y-107501427D01*
X162359488Y-107501427D02*
X162407107Y-107549046D01*
X162407107Y-107549046D02*
X162430916Y-107596665D01*
X162288059Y-107001428D02*
X162288059Y-106953809D01*
X162288059Y-106953809D02*
X162311869Y-106906190D01*
X162311869Y-106906190D02*
X162335678Y-106882380D01*
X162335678Y-106882380D02*
X162383297Y-106858571D01*
X162383297Y-106858571D02*
X162478535Y-106834761D01*
X162478535Y-106834761D02*
X162597583Y-106834761D01*
X162597583Y-106834761D02*
X162692821Y-106858571D01*
X162692821Y-106858571D02*
X162740440Y-106882380D01*
X162740440Y-106882380D02*
X162764250Y-106906190D01*
X162764250Y-106906190D02*
X162788059Y-106953809D01*
X162788059Y-106953809D02*
X162788059Y-107001428D01*
X162788059Y-107001428D02*
X162764250Y-107049047D01*
X162764250Y-107049047D02*
X162740440Y-107072856D01*
X162740440Y-107072856D02*
X162692821Y-107096666D01*
X162692821Y-107096666D02*
X162597583Y-107120475D01*
X162597583Y-107120475D02*
X162478535Y-107120475D01*
X162478535Y-107120475D02*
X162383297Y-107096666D01*
X162383297Y-107096666D02*
X162335678Y-107072856D01*
X162335678Y-107072856D02*
X162311869Y-107049047D01*
X162311869Y-107049047D02*
X162288059Y-107001428D01*
X162788059Y-106620476D02*
X162288059Y-106620476D01*
X162788059Y-106334762D02*
X162502345Y-106549047D01*
X162288059Y-106334762D02*
X162573773Y-106620476D01*
X162788059Y-106144285D02*
X162788059Y-106025238D01*
X162788059Y-106025238D02*
X162692821Y-106025238D01*
X162692821Y-106025238D02*
X162669011Y-106072857D01*
X162669011Y-106072857D02*
X162621392Y-106120476D01*
X162621392Y-106120476D02*
X162549964Y-106144285D01*
X162549964Y-106144285D02*
X162430916Y-106144285D01*
X162430916Y-106144285D02*
X162359488Y-106120476D01*
X162359488Y-106120476D02*
X162311869Y-106072857D01*
X162311869Y-106072857D02*
X162288059Y-106001428D01*
X162288059Y-106001428D02*
X162288059Y-105906190D01*
X162288059Y-105906190D02*
X162311869Y-105834762D01*
X162311869Y-105834762D02*
X162359488Y-105787143D01*
X162359488Y-105787143D02*
X162430916Y-105763333D01*
X162430916Y-105763333D02*
X162549964Y-105763333D01*
X162549964Y-105763333D02*
X162621392Y-105787143D01*
X162621392Y-105787143D02*
X162669011Y-105834762D01*
X162669011Y-105834762D02*
X162692821Y-105882381D01*
X162692821Y-105882381D02*
X162788059Y-105882381D01*
X162788059Y-105882381D02*
X162788059Y-105763333D01*
X161413334Y-113409601D02*
X161484762Y-113433410D01*
X161484762Y-113433410D02*
X161603810Y-113433410D01*
X161603810Y-113433410D02*
X161651429Y-113409601D01*
X161651429Y-113409601D02*
X161675238Y-113385791D01*
X161675238Y-113385791D02*
X161699048Y-113338172D01*
X161699048Y-113338172D02*
X161699048Y-113290553D01*
X161699048Y-113290553D02*
X161675238Y-113242934D01*
X161675238Y-113242934D02*
X161651429Y-113219124D01*
X161651429Y-113219124D02*
X161603810Y-113195315D01*
X161603810Y-113195315D02*
X161508572Y-113171505D01*
X161508572Y-113171505D02*
X161460953Y-113147696D01*
X161460953Y-113147696D02*
X161437143Y-113123886D01*
X161437143Y-113123886D02*
X161413334Y-113076267D01*
X161413334Y-113076267D02*
X161413334Y-113028648D01*
X161413334Y-113028648D02*
X161437143Y-112981029D01*
X161437143Y-112981029D02*
X161460953Y-112957220D01*
X161460953Y-112957220D02*
X161508572Y-112933410D01*
X161508572Y-112933410D02*
X161627619Y-112933410D01*
X161627619Y-112933410D02*
X161699048Y-112957220D01*
X161913333Y-113171505D02*
X162080000Y-113171505D01*
X162151428Y-113433410D02*
X161913333Y-113433410D01*
X161913333Y-113433410D02*
X161913333Y-112933410D01*
X161913333Y-112933410D02*
X162151428Y-112933410D01*
X162651428Y-113433410D02*
X162484762Y-113195315D01*
X162365714Y-113433410D02*
X162365714Y-112933410D01*
X162365714Y-112933410D02*
X162556190Y-112933410D01*
X162556190Y-112933410D02*
X162603809Y-112957220D01*
X162603809Y-112957220D02*
X162627619Y-112981029D01*
X162627619Y-112981029D02*
X162651428Y-113028648D01*
X162651428Y-113028648D02*
X162651428Y-113100077D01*
X162651428Y-113100077D02*
X162627619Y-113147696D01*
X162627619Y-113147696D02*
X162603809Y-113171505D01*
X162603809Y-113171505D02*
X162556190Y-113195315D01*
X162556190Y-113195315D02*
X162365714Y-113195315D01*
X162794286Y-112933410D02*
X162960952Y-113433410D01*
X162960952Y-113433410D02*
X163127619Y-112933410D01*
X163294285Y-113171505D02*
X163460952Y-113171505D01*
X163532380Y-113433410D02*
X163294285Y-113433410D01*
X163294285Y-113433410D02*
X163294285Y-112933410D01*
X163294285Y-112933410D02*
X163532380Y-112933410D01*
X164032380Y-113433410D02*
X163865714Y-113195315D01*
X163746666Y-113433410D02*
X163746666Y-112933410D01*
X163746666Y-112933410D02*
X163937142Y-112933410D01*
X163937142Y-112933410D02*
X163984761Y-112957220D01*
X163984761Y-112957220D02*
X164008571Y-112981029D01*
X164008571Y-112981029D02*
X164032380Y-113028648D01*
X164032380Y-113028648D02*
X164032380Y-113100077D01*
X164032380Y-113100077D02*
X164008571Y-113147696D01*
X164008571Y-113147696D02*
X163984761Y-113171505D01*
X163984761Y-113171505D02*
X163937142Y-113195315D01*
X163937142Y-113195315D02*
X163746666Y-113195315D01*
X164127619Y-113481029D02*
X164508571Y-113481029D01*
X164865713Y-113433410D02*
X164627618Y-113433410D01*
X164627618Y-113433410D02*
X164627618Y-112933410D01*
X165032380Y-113171505D02*
X165199047Y-113171505D01*
X165270475Y-113433410D02*
X165032380Y-113433410D01*
X165032380Y-113433410D02*
X165032380Y-112933410D01*
X165032380Y-112933410D02*
X165270475Y-112933410D01*
X165484761Y-113433410D02*
X165484761Y-112933410D01*
X165484761Y-112933410D02*
X165603809Y-112933410D01*
X165603809Y-112933410D02*
X165675237Y-112957220D01*
X165675237Y-112957220D02*
X165722856Y-113004839D01*
X165722856Y-113004839D02*
X165746666Y-113052458D01*
X165746666Y-113052458D02*
X165770475Y-113147696D01*
X165770475Y-113147696D02*
X165770475Y-113219124D01*
X165770475Y-113219124D02*
X165746666Y-113314362D01*
X165746666Y-113314362D02*
X165722856Y-113361981D01*
X165722856Y-113361981D02*
X165675237Y-113409601D01*
X165675237Y-113409601D02*
X165603809Y-113433410D01*
X165603809Y-113433410D02*
X165484761Y-113433410D01*
X166246666Y-113433410D02*
X165960952Y-113433410D01*
X166103809Y-113433410D02*
X166103809Y-112933410D01*
X166103809Y-112933410D02*
X166056190Y-113004839D01*
X166056190Y-113004839D02*
X166008571Y-113052458D01*
X166008571Y-113052458D02*
X165960952Y-113076267D01*
X160174761Y-118338059D02*
X160008095Y-118099964D01*
X159889047Y-118338059D02*
X159889047Y-117838059D01*
X159889047Y-117838059D02*
X160079523Y-117838059D01*
X160079523Y-117838059D02*
X160127142Y-117861869D01*
X160127142Y-117861869D02*
X160150952Y-117885678D01*
X160150952Y-117885678D02*
X160174761Y-117933297D01*
X160174761Y-117933297D02*
X160174761Y-118004726D01*
X160174761Y-118004726D02*
X160150952Y-118052345D01*
X160150952Y-118052345D02*
X160127142Y-118076154D01*
X160127142Y-118076154D02*
X160079523Y-118099964D01*
X160079523Y-118099964D02*
X159889047Y-118099964D01*
X165230952Y-117861869D02*
X165183333Y-117838059D01*
X165183333Y-117838059D02*
X165111904Y-117838059D01*
X165111904Y-117838059D02*
X165040476Y-117861869D01*
X165040476Y-117861869D02*
X164992857Y-117909488D01*
X164992857Y-117909488D02*
X164969047Y-117957107D01*
X164969047Y-117957107D02*
X164945238Y-118052345D01*
X164945238Y-118052345D02*
X164945238Y-118123773D01*
X164945238Y-118123773D02*
X164969047Y-118219011D01*
X164969047Y-118219011D02*
X164992857Y-118266630D01*
X164992857Y-118266630D02*
X165040476Y-118314250D01*
X165040476Y-118314250D02*
X165111904Y-118338059D01*
X165111904Y-118338059D02*
X165159523Y-118338059D01*
X165159523Y-118338059D02*
X165230952Y-118314250D01*
X165230952Y-118314250D02*
X165254761Y-118290440D01*
X165254761Y-118290440D02*
X165254761Y-118123773D01*
X165254761Y-118123773D02*
X165159523Y-118123773D01*
X161893334Y-117838059D02*
X162060000Y-118338059D01*
X162060000Y-118338059D02*
X162226667Y-117838059D01*
X162679047Y-118290440D02*
X162655238Y-118314250D01*
X162655238Y-118314250D02*
X162583809Y-118338059D01*
X162583809Y-118338059D02*
X162536190Y-118338059D01*
X162536190Y-118338059D02*
X162464762Y-118314250D01*
X162464762Y-118314250D02*
X162417143Y-118266630D01*
X162417143Y-118266630D02*
X162393333Y-118219011D01*
X162393333Y-118219011D02*
X162369524Y-118123773D01*
X162369524Y-118123773D02*
X162369524Y-118052345D01*
X162369524Y-118052345D02*
X162393333Y-117957107D01*
X162393333Y-117957107D02*
X162417143Y-117909488D01*
X162417143Y-117909488D02*
X162464762Y-117861869D01*
X162464762Y-117861869D02*
X162536190Y-117838059D01*
X162536190Y-117838059D02*
X162583809Y-117838059D01*
X162583809Y-117838059D02*
X162655238Y-117861869D01*
X162655238Y-117861869D02*
X162679047Y-117885678D01*
X163179047Y-118290440D02*
X163155238Y-118314250D01*
X163155238Y-118314250D02*
X163083809Y-118338059D01*
X163083809Y-118338059D02*
X163036190Y-118338059D01*
X163036190Y-118338059D02*
X162964762Y-118314250D01*
X162964762Y-118314250D02*
X162917143Y-118266630D01*
X162917143Y-118266630D02*
X162893333Y-118219011D01*
X162893333Y-118219011D02*
X162869524Y-118123773D01*
X162869524Y-118123773D02*
X162869524Y-118052345D01*
X162869524Y-118052345D02*
X162893333Y-117957107D01*
X162893333Y-117957107D02*
X162917143Y-117909488D01*
X162917143Y-117909488D02*
X162964762Y-117861869D01*
X162964762Y-117861869D02*
X163036190Y-117838059D01*
X163036190Y-117838059D02*
X163083809Y-117838059D01*
X163083809Y-117838059D02*
X163155238Y-117861869D01*
X163155238Y-117861869D02*
X163179047Y-117885678D01*
X167675714Y-118076154D02*
X167747142Y-118099964D01*
X167747142Y-118099964D02*
X167770952Y-118123773D01*
X167770952Y-118123773D02*
X167794761Y-118171392D01*
X167794761Y-118171392D02*
X167794761Y-118242821D01*
X167794761Y-118242821D02*
X167770952Y-118290440D01*
X167770952Y-118290440D02*
X167747142Y-118314250D01*
X167747142Y-118314250D02*
X167699523Y-118338059D01*
X167699523Y-118338059D02*
X167509047Y-118338059D01*
X167509047Y-118338059D02*
X167509047Y-117838059D01*
X167509047Y-117838059D02*
X167675714Y-117838059D01*
X167675714Y-117838059D02*
X167723333Y-117861869D01*
X167723333Y-117861869D02*
X167747142Y-117885678D01*
X167747142Y-117885678D02*
X167770952Y-117933297D01*
X167770952Y-117933297D02*
X167770952Y-117980916D01*
X167770952Y-117980916D02*
X167747142Y-118028535D01*
X167747142Y-118028535D02*
X167723333Y-118052345D01*
X167723333Y-118052345D02*
X167675714Y-118076154D01*
X167675714Y-118076154D02*
X167509047Y-118076154D01*
X142558572Y-120708059D02*
X142320477Y-120708059D01*
X142320477Y-120708059D02*
X142296668Y-120946154D01*
X142296668Y-120946154D02*
X142320477Y-120922345D01*
X142320477Y-120922345D02*
X142368096Y-120898535D01*
X142368096Y-120898535D02*
X142487144Y-120898535D01*
X142487144Y-120898535D02*
X142534763Y-120922345D01*
X142534763Y-120922345D02*
X142558572Y-120946154D01*
X142558572Y-120946154D02*
X142582382Y-120993773D01*
X142582382Y-120993773D02*
X142582382Y-121112821D01*
X142582382Y-121112821D02*
X142558572Y-121160440D01*
X142558572Y-121160440D02*
X142534763Y-121184250D01*
X142534763Y-121184250D02*
X142487144Y-121208059D01*
X142487144Y-121208059D02*
X142368096Y-121208059D01*
X142368096Y-121208059D02*
X142320477Y-121184250D01*
X142320477Y-121184250D02*
X142296668Y-121160440D01*
X142725239Y-120708059D02*
X142891905Y-121208059D01*
X142891905Y-121208059D02*
X143058572Y-120708059D01*
X143106191Y-121255678D02*
X143487143Y-121255678D01*
X143891904Y-121208059D02*
X143725238Y-120969964D01*
X143606190Y-121208059D02*
X143606190Y-120708059D01*
X143606190Y-120708059D02*
X143796666Y-120708059D01*
X143796666Y-120708059D02*
X143844285Y-120731869D01*
X143844285Y-120731869D02*
X143868095Y-120755678D01*
X143868095Y-120755678D02*
X143891904Y-120803297D01*
X143891904Y-120803297D02*
X143891904Y-120874726D01*
X143891904Y-120874726D02*
X143868095Y-120922345D01*
X143868095Y-120922345D02*
X143844285Y-120946154D01*
X143844285Y-120946154D02*
X143796666Y-120969964D01*
X143796666Y-120969964D02*
X143606190Y-120969964D01*
X144296666Y-121184250D02*
X144249047Y-121208059D01*
X144249047Y-121208059D02*
X144153809Y-121208059D01*
X144153809Y-121208059D02*
X144106190Y-121184250D01*
X144106190Y-121184250D02*
X144082381Y-121136630D01*
X144082381Y-121136630D02*
X144082381Y-120946154D01*
X144082381Y-120946154D02*
X144106190Y-120898535D01*
X144106190Y-120898535D02*
X144153809Y-120874726D01*
X144153809Y-120874726D02*
X144249047Y-120874726D01*
X144249047Y-120874726D02*
X144296666Y-120898535D01*
X144296666Y-120898535D02*
X144320476Y-120946154D01*
X144320476Y-120946154D02*
X144320476Y-120993773D01*
X144320476Y-120993773D02*
X144082381Y-121041392D01*
X144749047Y-120874726D02*
X144749047Y-121279488D01*
X144749047Y-121279488D02*
X144725237Y-121327107D01*
X144725237Y-121327107D02*
X144701428Y-121350916D01*
X144701428Y-121350916D02*
X144653809Y-121374726D01*
X144653809Y-121374726D02*
X144582380Y-121374726D01*
X144582380Y-121374726D02*
X144534761Y-121350916D01*
X144749047Y-121184250D02*
X144701428Y-121208059D01*
X144701428Y-121208059D02*
X144606190Y-121208059D01*
X144606190Y-121208059D02*
X144558571Y-121184250D01*
X144558571Y-121184250D02*
X144534761Y-121160440D01*
X144534761Y-121160440D02*
X144510952Y-121112821D01*
X144510952Y-121112821D02*
X144510952Y-120969964D01*
X144510952Y-120969964D02*
X144534761Y-120922345D01*
X144534761Y-120922345D02*
X144558571Y-120898535D01*
X144558571Y-120898535D02*
X144606190Y-120874726D01*
X144606190Y-120874726D02*
X144701428Y-120874726D01*
X144701428Y-120874726D02*
X144749047Y-120898535D01*
X145201428Y-120874726D02*
X145201428Y-121208059D01*
X144987142Y-120874726D02*
X144987142Y-121136630D01*
X144987142Y-121136630D02*
X145010952Y-121184250D01*
X145010952Y-121184250D02*
X145058571Y-121208059D01*
X145058571Y-121208059D02*
X145129999Y-121208059D01*
X145129999Y-121208059D02*
X145177618Y-121184250D01*
X145177618Y-121184250D02*
X145201428Y-121160440D01*
X145510952Y-121208059D02*
X145463333Y-121184250D01*
X145463333Y-121184250D02*
X145439523Y-121136630D01*
X145439523Y-121136630D02*
X145439523Y-120708059D01*
X145915714Y-121208059D02*
X145915714Y-120946154D01*
X145915714Y-120946154D02*
X145891904Y-120898535D01*
X145891904Y-120898535D02*
X145844285Y-120874726D01*
X145844285Y-120874726D02*
X145749047Y-120874726D01*
X145749047Y-120874726D02*
X145701428Y-120898535D01*
X145915714Y-121184250D02*
X145868095Y-121208059D01*
X145868095Y-121208059D02*
X145749047Y-121208059D01*
X145749047Y-121208059D02*
X145701428Y-121184250D01*
X145701428Y-121184250D02*
X145677619Y-121136630D01*
X145677619Y-121136630D02*
X145677619Y-121089011D01*
X145677619Y-121089011D02*
X145701428Y-121041392D01*
X145701428Y-121041392D02*
X145749047Y-121017583D01*
X145749047Y-121017583D02*
X145868095Y-121017583D01*
X145868095Y-121017583D02*
X145915714Y-120993773D01*
X146082381Y-120874726D02*
X146272857Y-120874726D01*
X146153809Y-120708059D02*
X146153809Y-121136630D01*
X146153809Y-121136630D02*
X146177619Y-121184250D01*
X146177619Y-121184250D02*
X146225238Y-121208059D01*
X146225238Y-121208059D02*
X146272857Y-121208059D01*
X146510952Y-121208059D02*
X146463333Y-121184250D01*
X146463333Y-121184250D02*
X146439523Y-121160440D01*
X146439523Y-121160440D02*
X146415714Y-121112821D01*
X146415714Y-121112821D02*
X146415714Y-120969964D01*
X146415714Y-120969964D02*
X146439523Y-120922345D01*
X146439523Y-120922345D02*
X146463333Y-120898535D01*
X146463333Y-120898535D02*
X146510952Y-120874726D01*
X146510952Y-120874726D02*
X146582380Y-120874726D01*
X146582380Y-120874726D02*
X146629999Y-120898535D01*
X146629999Y-120898535D02*
X146653809Y-120922345D01*
X146653809Y-120922345D02*
X146677618Y-120969964D01*
X146677618Y-120969964D02*
X146677618Y-121112821D01*
X146677618Y-121112821D02*
X146653809Y-121160440D01*
X146653809Y-121160440D02*
X146629999Y-121184250D01*
X146629999Y-121184250D02*
X146582380Y-121208059D01*
X146582380Y-121208059D02*
X146510952Y-121208059D01*
X146891904Y-121208059D02*
X146891904Y-120874726D01*
X146891904Y-120969964D02*
X146915714Y-120922345D01*
X146915714Y-120922345D02*
X146939523Y-120898535D01*
X146939523Y-120898535D02*
X146987142Y-120874726D01*
X146987142Y-120874726D02*
X147034761Y-120874726D01*
X147463333Y-121208059D02*
X147177619Y-121208059D01*
X147320476Y-121208059D02*
X147320476Y-120708059D01*
X147320476Y-120708059D02*
X147272857Y-120779488D01*
X147272857Y-120779488D02*
X147225238Y-120827107D01*
X147225238Y-120827107D02*
X147177619Y-120850916D01*
X137420165Y-118375559D02*
X137420165Y-117875559D01*
X137658260Y-118375559D02*
X137658260Y-117875559D01*
X137658260Y-117875559D02*
X137943974Y-118375559D01*
X137943974Y-118375559D02*
X137943974Y-117875559D01*
X138182070Y-118185083D02*
X138563023Y-118185083D01*
X150625547Y-117875559D02*
X150720785Y-117875559D01*
X150720785Y-117875559D02*
X150768404Y-117899369D01*
X150768404Y-117899369D02*
X150816023Y-117946988D01*
X150816023Y-117946988D02*
X150839833Y-118042226D01*
X150839833Y-118042226D02*
X150839833Y-118208892D01*
X150839833Y-118208892D02*
X150816023Y-118304130D01*
X150816023Y-118304130D02*
X150768404Y-118351750D01*
X150768404Y-118351750D02*
X150720785Y-118375559D01*
X150720785Y-118375559D02*
X150625547Y-118375559D01*
X150625547Y-118375559D02*
X150577928Y-118351750D01*
X150577928Y-118351750D02*
X150530309Y-118304130D01*
X150530309Y-118304130D02*
X150506500Y-118208892D01*
X150506500Y-118208892D02*
X150506500Y-118042226D01*
X150506500Y-118042226D02*
X150530309Y-117946988D01*
X150530309Y-117946988D02*
X150577928Y-117899369D01*
X150577928Y-117899369D02*
X150625547Y-117875559D01*
X151054119Y-117875559D02*
X151054119Y-118280321D01*
X151054119Y-118280321D02*
X151077929Y-118327940D01*
X151077929Y-118327940D02*
X151101738Y-118351750D01*
X151101738Y-118351750D02*
X151149357Y-118375559D01*
X151149357Y-118375559D02*
X151244595Y-118375559D01*
X151244595Y-118375559D02*
X151292214Y-118351750D01*
X151292214Y-118351750D02*
X151316024Y-118327940D01*
X151316024Y-118327940D02*
X151339833Y-118280321D01*
X151339833Y-118280321D02*
X151339833Y-117875559D01*
X151506501Y-117875559D02*
X151792215Y-117875559D01*
X151649358Y-118375559D02*
X151649358Y-117875559D01*
X151958881Y-118185083D02*
X152339834Y-118185083D01*
X150625547Y-123540559D02*
X150720785Y-123540559D01*
X150720785Y-123540559D02*
X150768404Y-123564369D01*
X150768404Y-123564369D02*
X150816023Y-123611988D01*
X150816023Y-123611988D02*
X150839833Y-123707226D01*
X150839833Y-123707226D02*
X150839833Y-123873892D01*
X150839833Y-123873892D02*
X150816023Y-123969130D01*
X150816023Y-123969130D02*
X150768404Y-124016750D01*
X150768404Y-124016750D02*
X150720785Y-124040559D01*
X150720785Y-124040559D02*
X150625547Y-124040559D01*
X150625547Y-124040559D02*
X150577928Y-124016750D01*
X150577928Y-124016750D02*
X150530309Y-123969130D01*
X150530309Y-123969130D02*
X150506500Y-123873892D01*
X150506500Y-123873892D02*
X150506500Y-123707226D01*
X150506500Y-123707226D02*
X150530309Y-123611988D01*
X150530309Y-123611988D02*
X150577928Y-123564369D01*
X150577928Y-123564369D02*
X150625547Y-123540559D01*
X151054119Y-123540559D02*
X151054119Y-123945321D01*
X151054119Y-123945321D02*
X151077929Y-123992940D01*
X151077929Y-123992940D02*
X151101738Y-124016750D01*
X151101738Y-124016750D02*
X151149357Y-124040559D01*
X151149357Y-124040559D02*
X151244595Y-124040559D01*
X151244595Y-124040559D02*
X151292214Y-124016750D01*
X151292214Y-124016750D02*
X151316024Y-123992940D01*
X151316024Y-123992940D02*
X151339833Y-123945321D01*
X151339833Y-123945321D02*
X151339833Y-123540559D01*
X151506501Y-123540559D02*
X151792215Y-123540559D01*
X151649358Y-124040559D02*
X151649358Y-123540559D01*
X151958881Y-123850083D02*
X152339834Y-123850083D01*
X152149357Y-124040559D02*
X152149357Y-123659607D01*
X137420165Y-124040559D02*
X137420165Y-123540559D01*
X137658260Y-124040559D02*
X137658260Y-123540559D01*
X137658260Y-123540559D02*
X137943974Y-124040559D01*
X137943974Y-124040559D02*
X137943974Y-123540559D01*
X138182070Y-123850083D02*
X138563023Y-123850083D01*
X138372546Y-124040559D02*
X138372546Y-123659607D01*
X174815715Y-112933410D02*
X175101429Y-112933410D01*
X174958572Y-113433410D02*
X174958572Y-112933410D01*
X175244286Y-113290553D02*
X175482381Y-113290553D01*
X175196667Y-113433410D02*
X175363333Y-112933410D01*
X175363333Y-112933410D02*
X175530000Y-113433410D01*
X175958571Y-112957220D02*
X175910952Y-112933410D01*
X175910952Y-112933410D02*
X175839523Y-112933410D01*
X175839523Y-112933410D02*
X175768095Y-112957220D01*
X175768095Y-112957220D02*
X175720476Y-113004839D01*
X175720476Y-113004839D02*
X175696666Y-113052458D01*
X175696666Y-113052458D02*
X175672857Y-113147696D01*
X175672857Y-113147696D02*
X175672857Y-113219124D01*
X175672857Y-113219124D02*
X175696666Y-113314362D01*
X175696666Y-113314362D02*
X175720476Y-113361981D01*
X175720476Y-113361981D02*
X175768095Y-113409601D01*
X175768095Y-113409601D02*
X175839523Y-113433410D01*
X175839523Y-113433410D02*
X175887142Y-113433410D01*
X175887142Y-113433410D02*
X175958571Y-113409601D01*
X175958571Y-113409601D02*
X175982380Y-113385791D01*
X175982380Y-113385791D02*
X175982380Y-113219124D01*
X175982380Y-113219124D02*
X175887142Y-113219124D01*
X176077619Y-113481029D02*
X176458571Y-113481029D01*
X176815713Y-113433410D02*
X176577618Y-113433410D01*
X176577618Y-113433410D02*
X176577618Y-112933410D01*
X176982380Y-113171505D02*
X177149047Y-113171505D01*
X177220475Y-113433410D02*
X176982380Y-113433410D01*
X176982380Y-113433410D02*
X176982380Y-112933410D01*
X176982380Y-112933410D02*
X177220475Y-112933410D01*
X177434761Y-113433410D02*
X177434761Y-112933410D01*
X177434761Y-112933410D02*
X177553809Y-112933410D01*
X177553809Y-112933410D02*
X177625237Y-112957220D01*
X177625237Y-112957220D02*
X177672856Y-113004839D01*
X177672856Y-113004839D02*
X177696666Y-113052458D01*
X177696666Y-113052458D02*
X177720475Y-113147696D01*
X177720475Y-113147696D02*
X177720475Y-113219124D01*
X177720475Y-113219124D02*
X177696666Y-113314362D01*
X177696666Y-113314362D02*
X177672856Y-113361981D01*
X177672856Y-113361981D02*
X177625237Y-113409601D01*
X177625237Y-113409601D02*
X177553809Y-113433410D01*
X177553809Y-113433410D02*
X177434761Y-113433410D01*
X178196666Y-113433410D02*
X177910952Y-113433410D01*
X178053809Y-113433410D02*
X178053809Y-112933410D01*
X178053809Y-112933410D02*
X178006190Y-113004839D01*
X178006190Y-113004839D02*
X177958571Y-113052458D01*
X177958571Y-113052458D02*
X177910952Y-113076267D01*
X177930952Y-117861869D02*
X177883333Y-117838059D01*
X177883333Y-117838059D02*
X177811904Y-117838059D01*
X177811904Y-117838059D02*
X177740476Y-117861869D01*
X177740476Y-117861869D02*
X177692857Y-117909488D01*
X177692857Y-117909488D02*
X177669047Y-117957107D01*
X177669047Y-117957107D02*
X177645238Y-118052345D01*
X177645238Y-118052345D02*
X177645238Y-118123773D01*
X177645238Y-118123773D02*
X177669047Y-118219011D01*
X177669047Y-118219011D02*
X177692857Y-118266630D01*
X177692857Y-118266630D02*
X177740476Y-118314250D01*
X177740476Y-118314250D02*
X177811904Y-118338059D01*
X177811904Y-118338059D02*
X177859523Y-118338059D01*
X177859523Y-118338059D02*
X177930952Y-118314250D01*
X177930952Y-118314250D02*
X177954761Y-118290440D01*
X177954761Y-118290440D02*
X177954761Y-118123773D01*
X177954761Y-118123773D02*
X177859523Y-118123773D01*
X180375714Y-118076154D02*
X180447142Y-118099964D01*
X180447142Y-118099964D02*
X180470952Y-118123773D01*
X180470952Y-118123773D02*
X180494761Y-118171392D01*
X180494761Y-118171392D02*
X180494761Y-118242821D01*
X180494761Y-118242821D02*
X180470952Y-118290440D01*
X180470952Y-118290440D02*
X180447142Y-118314250D01*
X180447142Y-118314250D02*
X180399523Y-118338059D01*
X180399523Y-118338059D02*
X180209047Y-118338059D01*
X180209047Y-118338059D02*
X180209047Y-117838059D01*
X180209047Y-117838059D02*
X180375714Y-117838059D01*
X180375714Y-117838059D02*
X180423333Y-117861869D01*
X180423333Y-117861869D02*
X180447142Y-117885678D01*
X180447142Y-117885678D02*
X180470952Y-117933297D01*
X180470952Y-117933297D02*
X180470952Y-117980916D01*
X180470952Y-117980916D02*
X180447142Y-118028535D01*
X180447142Y-118028535D02*
X180423333Y-118052345D01*
X180423333Y-118052345D02*
X180375714Y-118076154D01*
X180375714Y-118076154D02*
X180209047Y-118076154D01*
X174593334Y-117838059D02*
X174760000Y-118338059D01*
X174760000Y-118338059D02*
X174926667Y-117838059D01*
X175379047Y-118290440D02*
X175355238Y-118314250D01*
X175355238Y-118314250D02*
X175283809Y-118338059D01*
X175283809Y-118338059D02*
X175236190Y-118338059D01*
X175236190Y-118338059D02*
X175164762Y-118314250D01*
X175164762Y-118314250D02*
X175117143Y-118266630D01*
X175117143Y-118266630D02*
X175093333Y-118219011D01*
X175093333Y-118219011D02*
X175069524Y-118123773D01*
X175069524Y-118123773D02*
X175069524Y-118052345D01*
X175069524Y-118052345D02*
X175093333Y-117957107D01*
X175093333Y-117957107D02*
X175117143Y-117909488D01*
X175117143Y-117909488D02*
X175164762Y-117861869D01*
X175164762Y-117861869D02*
X175236190Y-117838059D01*
X175236190Y-117838059D02*
X175283809Y-117838059D01*
X175283809Y-117838059D02*
X175355238Y-117861869D01*
X175355238Y-117861869D02*
X175379047Y-117885678D01*
X175879047Y-118290440D02*
X175855238Y-118314250D01*
X175855238Y-118314250D02*
X175783809Y-118338059D01*
X175783809Y-118338059D02*
X175736190Y-118338059D01*
X175736190Y-118338059D02*
X175664762Y-118314250D01*
X175664762Y-118314250D02*
X175617143Y-118266630D01*
X175617143Y-118266630D02*
X175593333Y-118219011D01*
X175593333Y-118219011D02*
X175569524Y-118123773D01*
X175569524Y-118123773D02*
X175569524Y-118052345D01*
X175569524Y-118052345D02*
X175593333Y-117957107D01*
X175593333Y-117957107D02*
X175617143Y-117909488D01*
X175617143Y-117909488D02*
X175664762Y-117861869D01*
X175664762Y-117861869D02*
X175736190Y-117838059D01*
X175736190Y-117838059D02*
X175783809Y-117838059D01*
X175783809Y-117838059D02*
X175855238Y-117861869D01*
X175855238Y-117861869D02*
X175879047Y-117885678D01*
X172874761Y-118338059D02*
X172708095Y-118099964D01*
X172589047Y-118338059D02*
X172589047Y-117838059D01*
X172589047Y-117838059D02*
X172779523Y-117838059D01*
X172779523Y-117838059D02*
X172827142Y-117861869D01*
X172827142Y-117861869D02*
X172850952Y-117885678D01*
X172850952Y-117885678D02*
X172874761Y-117933297D01*
X172874761Y-117933297D02*
X172874761Y-118004726D01*
X172874761Y-118004726D02*
X172850952Y-118052345D01*
X172850952Y-118052345D02*
X172827142Y-118076154D01*
X172827142Y-118076154D02*
X172779523Y-118099964D01*
X172779523Y-118099964D02*
X172589047Y-118099964D01*
D14*
X151232382Y-108857819D02*
X151280001Y-108810200D01*
X151280001Y-108810200D02*
X151422858Y-108762580D01*
X151422858Y-108762580D02*
X151518096Y-108762580D01*
X151518096Y-108762580D02*
X151660953Y-108810200D01*
X151660953Y-108810200D02*
X151756191Y-108905438D01*
X151756191Y-108905438D02*
X151803810Y-109000676D01*
X151803810Y-109000676D02*
X151851429Y-109191152D01*
X151851429Y-109191152D02*
X151851429Y-109334009D01*
X151851429Y-109334009D02*
X151803810Y-109524485D01*
X151803810Y-109524485D02*
X151756191Y-109619723D01*
X151756191Y-109619723D02*
X151660953Y-109714961D01*
X151660953Y-109714961D02*
X151518096Y-109762580D01*
X151518096Y-109762580D02*
X151422858Y-109762580D01*
X151422858Y-109762580D02*
X151280001Y-109714961D01*
X151280001Y-109714961D02*
X151232382Y-109667342D01*
X150851429Y-109048295D02*
X150375239Y-109048295D01*
X150946667Y-108762580D02*
X150613334Y-109762580D01*
X150613334Y-109762580D02*
X150280001Y-108762580D01*
X149946667Y-108762580D02*
X149946667Y-109762580D01*
X149946667Y-109762580D02*
X149375239Y-108762580D01*
X149375239Y-108762580D02*
X149375239Y-109762580D01*
X149137144Y-108667342D02*
X148375239Y-108667342D01*
X148280000Y-109762580D02*
X147708572Y-109762580D01*
X147994286Y-108762580D02*
X147994286Y-109762580D01*
X147375238Y-108762580D02*
X147375238Y-109429247D01*
X147375238Y-109238771D02*
X147327619Y-109334009D01*
X147327619Y-109334009D02*
X147280000Y-109381628D01*
X147280000Y-109381628D02*
X147184762Y-109429247D01*
X147184762Y-109429247D02*
X147089524Y-109429247D01*
X146327619Y-108762580D02*
X146327619Y-109286390D01*
X146327619Y-109286390D02*
X146375238Y-109381628D01*
X146375238Y-109381628D02*
X146470476Y-109429247D01*
X146470476Y-109429247D02*
X146660952Y-109429247D01*
X146660952Y-109429247D02*
X146756190Y-109381628D01*
X146327619Y-108810200D02*
X146422857Y-108762580D01*
X146422857Y-108762580D02*
X146660952Y-108762580D01*
X146660952Y-108762580D02*
X146756190Y-108810200D01*
X146756190Y-108810200D02*
X146803809Y-108905438D01*
X146803809Y-108905438D02*
X146803809Y-109000676D01*
X146803809Y-109000676D02*
X146756190Y-109095914D01*
X146756190Y-109095914D02*
X146660952Y-109143533D01*
X146660952Y-109143533D02*
X146422857Y-109143533D01*
X146422857Y-109143533D02*
X146327619Y-109191152D01*
X145851428Y-109429247D02*
X145851428Y-108762580D01*
X145851428Y-109334009D02*
X145803809Y-109381628D01*
X145803809Y-109381628D02*
X145708571Y-109429247D01*
X145708571Y-109429247D02*
X145565714Y-109429247D01*
X145565714Y-109429247D02*
X145470476Y-109381628D01*
X145470476Y-109381628D02*
X145422857Y-109286390D01*
X145422857Y-109286390D02*
X145422857Y-108762580D01*
X144994285Y-108810200D02*
X144899047Y-108762580D01*
X144899047Y-108762580D02*
X144708571Y-108762580D01*
X144708571Y-108762580D02*
X144613333Y-108810200D01*
X144613333Y-108810200D02*
X144565714Y-108905438D01*
X144565714Y-108905438D02*
X144565714Y-108953057D01*
X144565714Y-108953057D02*
X144613333Y-109048295D01*
X144613333Y-109048295D02*
X144708571Y-109095914D01*
X144708571Y-109095914D02*
X144851428Y-109095914D01*
X144851428Y-109095914D02*
X144946666Y-109143533D01*
X144946666Y-109143533D02*
X144994285Y-109238771D01*
X144994285Y-109238771D02*
X144994285Y-109286390D01*
X144994285Y-109286390D02*
X144946666Y-109381628D01*
X144946666Y-109381628D02*
X144851428Y-109429247D01*
X144851428Y-109429247D02*
X144708571Y-109429247D01*
X144708571Y-109429247D02*
X144613333Y-109381628D01*
X144137142Y-108762580D02*
X144137142Y-109429247D01*
X144137142Y-109238771D02*
X144089523Y-109334009D01*
X144089523Y-109334009D02*
X144041904Y-109381628D01*
X144041904Y-109381628D02*
X143946666Y-109429247D01*
X143946666Y-109429247D02*
X143851428Y-109429247D01*
X143137142Y-108810200D02*
X143232380Y-108762580D01*
X143232380Y-108762580D02*
X143422856Y-108762580D01*
X143422856Y-108762580D02*
X143518094Y-108810200D01*
X143518094Y-108810200D02*
X143565713Y-108905438D01*
X143565713Y-108905438D02*
X143565713Y-109286390D01*
X143565713Y-109286390D02*
X143518094Y-109381628D01*
X143518094Y-109381628D02*
X143422856Y-109429247D01*
X143422856Y-109429247D02*
X143232380Y-109429247D01*
X143232380Y-109429247D02*
X143137142Y-109381628D01*
X143137142Y-109381628D02*
X143089523Y-109286390D01*
X143089523Y-109286390D02*
X143089523Y-109191152D01*
X143089523Y-109191152D02*
X143565713Y-109095914D01*
X142232380Y-108810200D02*
X142327618Y-108762580D01*
X142327618Y-108762580D02*
X142518094Y-108762580D01*
X142518094Y-108762580D02*
X142613332Y-108810200D01*
X142613332Y-108810200D02*
X142660951Y-108857819D01*
X142660951Y-108857819D02*
X142708570Y-108953057D01*
X142708570Y-108953057D02*
X142708570Y-109238771D01*
X142708570Y-109238771D02*
X142660951Y-109334009D01*
X142660951Y-109334009D02*
X142613332Y-109381628D01*
X142613332Y-109381628D02*
X142518094Y-109429247D01*
X142518094Y-109429247D02*
X142327618Y-109429247D01*
X142327618Y-109429247D02*
X142232380Y-109381628D01*
X141422856Y-108810200D02*
X141518094Y-108762580D01*
X141518094Y-108762580D02*
X141708570Y-108762580D01*
X141708570Y-108762580D02*
X141803808Y-108810200D01*
X141803808Y-108810200D02*
X141851427Y-108905438D01*
X141851427Y-108905438D02*
X141851427Y-109286390D01*
X141851427Y-109286390D02*
X141803808Y-109381628D01*
X141803808Y-109381628D02*
X141708570Y-109429247D01*
X141708570Y-109429247D02*
X141518094Y-109429247D01*
X141518094Y-109429247D02*
X141422856Y-109381628D01*
X141422856Y-109381628D02*
X141375237Y-109286390D01*
X141375237Y-109286390D02*
X141375237Y-109191152D01*
X141375237Y-109191152D02*
X141851427Y-109095914D01*
X140946665Y-108762580D02*
X140946665Y-109429247D01*
X140946665Y-109762580D02*
X140994284Y-109714961D01*
X140994284Y-109714961D02*
X140946665Y-109667342D01*
X140946665Y-109667342D02*
X140899046Y-109714961D01*
X140899046Y-109714961D02*
X140946665Y-109762580D01*
X140946665Y-109762580D02*
X140946665Y-109667342D01*
X140565713Y-109429247D02*
X140327618Y-108762580D01*
X140327618Y-108762580D02*
X140089523Y-109429247D01*
X139327618Y-108810200D02*
X139422856Y-108762580D01*
X139422856Y-108762580D02*
X139613332Y-108762580D01*
X139613332Y-108762580D02*
X139708570Y-108810200D01*
X139708570Y-108810200D02*
X139756189Y-108905438D01*
X139756189Y-108905438D02*
X139756189Y-109286390D01*
X139756189Y-109286390D02*
X139708570Y-109381628D01*
X139708570Y-109381628D02*
X139613332Y-109429247D01*
X139613332Y-109429247D02*
X139422856Y-109429247D01*
X139422856Y-109429247D02*
X139327618Y-109381628D01*
X139327618Y-109381628D02*
X139279999Y-109286390D01*
X139279999Y-109286390D02*
X139279999Y-109191152D01*
X139279999Y-109191152D02*
X139756189Y-109095914D01*
X138851427Y-108762580D02*
X138851427Y-109429247D01*
X138851427Y-109238771D02*
X138803808Y-109334009D01*
X138803808Y-109334009D02*
X138756189Y-109381628D01*
X138756189Y-109381628D02*
X138660951Y-109429247D01*
X138660951Y-109429247D02*
X138565713Y-109429247D01*
X137708570Y-108762580D02*
X138279998Y-108762580D01*
X137994284Y-108762580D02*
X137994284Y-109762580D01*
X137994284Y-109762580D02*
X138089522Y-109619723D01*
X138089522Y-109619723D02*
X138184760Y-109524485D01*
X138184760Y-109524485D02*
X138279998Y-109476866D01*
D15*
X149387453Y-113301940D02*
X149077929Y-113301940D01*
X149077929Y-113301940D02*
X149244596Y-113111464D01*
X149244596Y-113111464D02*
X149173167Y-113111464D01*
X149173167Y-113111464D02*
X149125548Y-113087654D01*
X149125548Y-113087654D02*
X149101739Y-113063845D01*
X149101739Y-113063845D02*
X149077929Y-113016226D01*
X149077929Y-113016226D02*
X149077929Y-112897178D01*
X149077929Y-112897178D02*
X149101739Y-112849559D01*
X149101739Y-112849559D02*
X149125548Y-112825750D01*
X149125548Y-112825750D02*
X149173167Y-112801940D01*
X149173167Y-112801940D02*
X149316024Y-112801940D01*
X149316024Y-112801940D02*
X149363643Y-112825750D01*
X149363643Y-112825750D02*
X149387453Y-112849559D01*
X148863644Y-112849559D02*
X148839834Y-112825750D01*
X148839834Y-112825750D02*
X148863644Y-112801940D01*
X148863644Y-112801940D02*
X148887453Y-112825750D01*
X148887453Y-112825750D02*
X148863644Y-112849559D01*
X148863644Y-112849559D02*
X148863644Y-112801940D01*
X148673168Y-113301940D02*
X148363644Y-113301940D01*
X148363644Y-113301940D02*
X148530311Y-113111464D01*
X148530311Y-113111464D02*
X148458882Y-113111464D01*
X148458882Y-113111464D02*
X148411263Y-113087654D01*
X148411263Y-113087654D02*
X148387454Y-113063845D01*
X148387454Y-113063845D02*
X148363644Y-113016226D01*
X148363644Y-113016226D02*
X148363644Y-112897178D01*
X148363644Y-112897178D02*
X148387454Y-112849559D01*
X148387454Y-112849559D02*
X148411263Y-112825750D01*
X148411263Y-112825750D02*
X148458882Y-112801940D01*
X148458882Y-112801940D02*
X148601739Y-112801940D01*
X148601739Y-112801940D02*
X148649358Y-112825750D01*
X148649358Y-112825750D02*
X148673168Y-112849559D01*
X148220787Y-113301940D02*
X148054121Y-112801940D01*
X148054121Y-112801940D02*
X147887454Y-113301940D01*
X149077929Y-110738130D02*
X149125548Y-110761940D01*
X149125548Y-110761940D02*
X149196977Y-110761940D01*
X149196977Y-110761940D02*
X149268405Y-110738130D01*
X149268405Y-110738130D02*
X149316024Y-110690511D01*
X149316024Y-110690511D02*
X149339834Y-110642892D01*
X149339834Y-110642892D02*
X149363643Y-110547654D01*
X149363643Y-110547654D02*
X149363643Y-110476226D01*
X149363643Y-110476226D02*
X149339834Y-110380988D01*
X149339834Y-110380988D02*
X149316024Y-110333369D01*
X149316024Y-110333369D02*
X149268405Y-110285750D01*
X149268405Y-110285750D02*
X149196977Y-110261940D01*
X149196977Y-110261940D02*
X149149358Y-110261940D01*
X149149358Y-110261940D02*
X149077929Y-110285750D01*
X149077929Y-110285750D02*
X149054120Y-110309559D01*
X149054120Y-110309559D02*
X149054120Y-110476226D01*
X149054120Y-110476226D02*
X149149358Y-110476226D01*
X148839834Y-110261940D02*
X148839834Y-110761940D01*
X148839834Y-110761940D02*
X148554120Y-110261940D01*
X148554120Y-110261940D02*
X148554120Y-110761940D01*
X148316024Y-110261940D02*
X148316024Y-110761940D01*
X148316024Y-110761940D02*
X148196976Y-110761940D01*
X148196976Y-110761940D02*
X148125548Y-110738130D01*
X148125548Y-110738130D02*
X148077929Y-110690511D01*
X148077929Y-110690511D02*
X148054119Y-110642892D01*
X148054119Y-110642892D02*
X148030310Y-110547654D01*
X148030310Y-110547654D02*
X148030310Y-110476226D01*
X148030310Y-110476226D02*
X148054119Y-110380988D01*
X148054119Y-110380988D02*
X148077929Y-110333369D01*
X148077929Y-110333369D02*
X148125548Y-110285750D01*
X148125548Y-110285750D02*
X148196976Y-110261940D01*
X148196976Y-110261940D02*
X148316024Y-110261940D01*
X133823333Y-106499559D02*
X133847142Y-106475750D01*
X133847142Y-106475750D02*
X133918571Y-106451940D01*
X133918571Y-106451940D02*
X133966190Y-106451940D01*
X133966190Y-106451940D02*
X134037618Y-106475750D01*
X134037618Y-106475750D02*
X134085237Y-106523369D01*
X134085237Y-106523369D02*
X134109047Y-106570988D01*
X134109047Y-106570988D02*
X134132856Y-106666226D01*
X134132856Y-106666226D02*
X134132856Y-106737654D01*
X134132856Y-106737654D02*
X134109047Y-106832892D01*
X134109047Y-106832892D02*
X134085237Y-106880511D01*
X134085237Y-106880511D02*
X134037618Y-106928130D01*
X134037618Y-106928130D02*
X133966190Y-106951940D01*
X133966190Y-106951940D02*
X133918571Y-106951940D01*
X133918571Y-106951940D02*
X133847142Y-106928130D01*
X133847142Y-106928130D02*
X133823333Y-106904321D01*
X133632856Y-106594797D02*
X133394761Y-106594797D01*
X133680475Y-106451940D02*
X133513809Y-106951940D01*
X133513809Y-106951940D02*
X133347142Y-106451940D01*
X133180476Y-106451940D02*
X133180476Y-106951940D01*
X133180476Y-106951940D02*
X132894762Y-106451940D01*
X132894762Y-106451940D02*
X132894762Y-106951940D01*
X132656666Y-106451940D02*
X132656666Y-106951940D01*
X132656666Y-106713845D02*
X132370952Y-106713845D01*
X132370952Y-106451940D02*
X132370952Y-106951940D01*
X149054120Y-107769559D02*
X149077929Y-107745750D01*
X149077929Y-107745750D02*
X149149358Y-107721940D01*
X149149358Y-107721940D02*
X149196977Y-107721940D01*
X149196977Y-107721940D02*
X149268405Y-107745750D01*
X149268405Y-107745750D02*
X149316024Y-107793369D01*
X149316024Y-107793369D02*
X149339834Y-107840988D01*
X149339834Y-107840988D02*
X149363643Y-107936226D01*
X149363643Y-107936226D02*
X149363643Y-108007654D01*
X149363643Y-108007654D02*
X149339834Y-108102892D01*
X149339834Y-108102892D02*
X149316024Y-108150511D01*
X149316024Y-108150511D02*
X149268405Y-108198130D01*
X149268405Y-108198130D02*
X149196977Y-108221940D01*
X149196977Y-108221940D02*
X149149358Y-108221940D01*
X149149358Y-108221940D02*
X149077929Y-108198130D01*
X149077929Y-108198130D02*
X149054120Y-108174321D01*
X148863643Y-107864797D02*
X148625548Y-107864797D01*
X148911262Y-107721940D02*
X148744596Y-108221940D01*
X148744596Y-108221940D02*
X148577929Y-107721940D01*
X148411263Y-107721940D02*
X148411263Y-108221940D01*
X148411263Y-108221940D02*
X148125549Y-107721940D01*
X148125549Y-107721940D02*
X148125549Y-108221940D01*
X147220787Y-107721940D02*
X147387453Y-107960035D01*
X147506501Y-107721940D02*
X147506501Y-108221940D01*
X147506501Y-108221940D02*
X147316025Y-108221940D01*
X147316025Y-108221940D02*
X147268406Y-108198130D01*
X147268406Y-108198130D02*
X147244596Y-108174321D01*
X147244596Y-108174321D02*
X147220787Y-108126702D01*
X147220787Y-108126702D02*
X147220787Y-108055273D01*
X147220787Y-108055273D02*
X147244596Y-108007654D01*
X147244596Y-108007654D02*
X147268406Y-107983845D01*
X147268406Y-107983845D02*
X147316025Y-107960035D01*
X147316025Y-107960035D02*
X147506501Y-107960035D01*
X147054120Y-108221940D02*
X146720787Y-107721940D01*
X146720787Y-108221940D02*
X147054120Y-107721940D01*
X149054120Y-105229559D02*
X149077929Y-105205750D01*
X149077929Y-105205750D02*
X149149358Y-105181940D01*
X149149358Y-105181940D02*
X149196977Y-105181940D01*
X149196977Y-105181940D02*
X149268405Y-105205750D01*
X149268405Y-105205750D02*
X149316024Y-105253369D01*
X149316024Y-105253369D02*
X149339834Y-105300988D01*
X149339834Y-105300988D02*
X149363643Y-105396226D01*
X149363643Y-105396226D02*
X149363643Y-105467654D01*
X149363643Y-105467654D02*
X149339834Y-105562892D01*
X149339834Y-105562892D02*
X149316024Y-105610511D01*
X149316024Y-105610511D02*
X149268405Y-105658130D01*
X149268405Y-105658130D02*
X149196977Y-105681940D01*
X149196977Y-105681940D02*
X149149358Y-105681940D01*
X149149358Y-105681940D02*
X149077929Y-105658130D01*
X149077929Y-105658130D02*
X149054120Y-105634321D01*
X148863643Y-105324797D02*
X148625548Y-105324797D01*
X148911262Y-105181940D02*
X148744596Y-105681940D01*
X148744596Y-105681940D02*
X148577929Y-105181940D01*
X148411263Y-105181940D02*
X148411263Y-105681940D01*
X148411263Y-105681940D02*
X148125549Y-105181940D01*
X148125549Y-105181940D02*
X148125549Y-105681940D01*
X147577929Y-105681940D02*
X147292215Y-105681940D01*
X147435072Y-105181940D02*
X147435072Y-105681940D01*
X147173168Y-105681940D02*
X146839835Y-105181940D01*
X146839835Y-105681940D02*
X147173168Y-105181940D01*
X133763809Y-111579559D02*
X133787618Y-111555750D01*
X133787618Y-111555750D02*
X133859047Y-111531940D01*
X133859047Y-111531940D02*
X133906666Y-111531940D01*
X133906666Y-111531940D02*
X133978094Y-111555750D01*
X133978094Y-111555750D02*
X134025713Y-111603369D01*
X134025713Y-111603369D02*
X134049523Y-111650988D01*
X134049523Y-111650988D02*
X134073332Y-111746226D01*
X134073332Y-111746226D02*
X134073332Y-111817654D01*
X134073332Y-111817654D02*
X134049523Y-111912892D01*
X134049523Y-111912892D02*
X134025713Y-111960511D01*
X134025713Y-111960511D02*
X133978094Y-112008130D01*
X133978094Y-112008130D02*
X133906666Y-112031940D01*
X133906666Y-112031940D02*
X133859047Y-112031940D01*
X133859047Y-112031940D02*
X133787618Y-112008130D01*
X133787618Y-112008130D02*
X133763809Y-111984321D01*
X133573332Y-111674797D02*
X133335237Y-111674797D01*
X133620951Y-111531940D02*
X133454285Y-112031940D01*
X133454285Y-112031940D02*
X133287618Y-111531940D01*
X133120952Y-111531940D02*
X133120952Y-112031940D01*
X133120952Y-112031940D02*
X132835238Y-111531940D01*
X132835238Y-111531940D02*
X132835238Y-112031940D01*
X132359047Y-111531940D02*
X132597142Y-111531940D01*
X132597142Y-111531940D02*
X132597142Y-112031940D01*
X169735290Y-106799297D02*
X169497195Y-106965963D01*
X169735290Y-107085011D02*
X169235290Y-107085011D01*
X169235290Y-107085011D02*
X169235290Y-106894535D01*
X169235290Y-106894535D02*
X169259100Y-106846916D01*
X169259100Y-106846916D02*
X169282909Y-106823106D01*
X169282909Y-106823106D02*
X169330528Y-106799297D01*
X169330528Y-106799297D02*
X169401957Y-106799297D01*
X169401957Y-106799297D02*
X169449576Y-106823106D01*
X169449576Y-106823106D02*
X169473385Y-106846916D01*
X169473385Y-106846916D02*
X169497195Y-106894535D01*
X169497195Y-106894535D02*
X169497195Y-107085011D01*
X169401957Y-106370725D02*
X169735290Y-106370725D01*
X169211481Y-106489773D02*
X169568623Y-106608820D01*
X169568623Y-106608820D02*
X169568623Y-106299297D01*
X170408059Y-107310951D02*
X170408059Y-107596665D01*
X170408059Y-107453808D02*
X169908059Y-107453808D01*
X169908059Y-107453808D02*
X169979488Y-107501427D01*
X169979488Y-107501427D02*
X170027107Y-107549046D01*
X170027107Y-107549046D02*
X170050916Y-107596665D01*
X169908059Y-107001428D02*
X169908059Y-106953809D01*
X169908059Y-106953809D02*
X169931869Y-106906190D01*
X169931869Y-106906190D02*
X169955678Y-106882380D01*
X169955678Y-106882380D02*
X170003297Y-106858571D01*
X170003297Y-106858571D02*
X170098535Y-106834761D01*
X170098535Y-106834761D02*
X170217583Y-106834761D01*
X170217583Y-106834761D02*
X170312821Y-106858571D01*
X170312821Y-106858571D02*
X170360440Y-106882380D01*
X170360440Y-106882380D02*
X170384250Y-106906190D01*
X170384250Y-106906190D02*
X170408059Y-106953809D01*
X170408059Y-106953809D02*
X170408059Y-107001428D01*
X170408059Y-107001428D02*
X170384250Y-107049047D01*
X170384250Y-107049047D02*
X170360440Y-107072856D01*
X170360440Y-107072856D02*
X170312821Y-107096666D01*
X170312821Y-107096666D02*
X170217583Y-107120475D01*
X170217583Y-107120475D02*
X170098535Y-107120475D01*
X170098535Y-107120475D02*
X170003297Y-107096666D01*
X170003297Y-107096666D02*
X169955678Y-107072856D01*
X169955678Y-107072856D02*
X169931869Y-107049047D01*
X169931869Y-107049047D02*
X169908059Y-107001428D01*
X170408059Y-106620476D02*
X169908059Y-106620476D01*
X170408059Y-106334762D02*
X170122345Y-106549047D01*
X169908059Y-106334762D02*
X170193773Y-106620476D01*
X170408059Y-106144285D02*
X170408059Y-106025238D01*
X170408059Y-106025238D02*
X170312821Y-106025238D01*
X170312821Y-106025238D02*
X170289011Y-106072857D01*
X170289011Y-106072857D02*
X170241392Y-106120476D01*
X170241392Y-106120476D02*
X170169964Y-106144285D01*
X170169964Y-106144285D02*
X170050916Y-106144285D01*
X170050916Y-106144285D02*
X169979488Y-106120476D01*
X169979488Y-106120476D02*
X169931869Y-106072857D01*
X169931869Y-106072857D02*
X169908059Y-106001428D01*
X169908059Y-106001428D02*
X169908059Y-105906190D01*
X169908059Y-105906190D02*
X169931869Y-105834762D01*
X169931869Y-105834762D02*
X169979488Y-105787143D01*
X169979488Y-105787143D02*
X170050916Y-105763333D01*
X170050916Y-105763333D02*
X170169964Y-105763333D01*
X170169964Y-105763333D02*
X170241392Y-105787143D01*
X170241392Y-105787143D02*
X170289011Y-105834762D01*
X170289011Y-105834762D02*
X170312821Y-105882381D01*
X170312821Y-105882381D02*
X170408059Y-105882381D01*
X170408059Y-105882381D02*
X170408059Y-105763333D01*
X132304321Y-116686192D02*
X132328130Y-116710001D01*
X132328130Y-116710001D02*
X132351940Y-116757620D01*
X132351940Y-116757620D02*
X132351940Y-116876668D01*
X132351940Y-116876668D02*
X132328130Y-116924287D01*
X132328130Y-116924287D02*
X132304321Y-116948096D01*
X132304321Y-116948096D02*
X132256702Y-116971906D01*
X132256702Y-116971906D02*
X132209083Y-116971906D01*
X132209083Y-116971906D02*
X132137654Y-116948096D01*
X132137654Y-116948096D02*
X131851940Y-116662382D01*
X131851940Y-116662382D02*
X131851940Y-116971906D01*
X131804321Y-117067144D02*
X131804321Y-117448096D01*
X131851940Y-117567143D02*
X132351940Y-117567143D01*
X132351940Y-117567143D02*
X132351940Y-117757619D01*
X132351940Y-117757619D02*
X132328130Y-117805238D01*
X132328130Y-117805238D02*
X132304321Y-117829048D01*
X132304321Y-117829048D02*
X132256702Y-117852857D01*
X132256702Y-117852857D02*
X132185273Y-117852857D01*
X132185273Y-117852857D02*
X132137654Y-117829048D01*
X132137654Y-117829048D02*
X132113845Y-117805238D01*
X132113845Y-117805238D02*
X132090035Y-117757619D01*
X132090035Y-117757619D02*
X132090035Y-117567143D01*
X131851940Y-118067143D02*
X132351940Y-118067143D01*
X131851940Y-118305238D02*
X132351940Y-118305238D01*
X132351940Y-118305238D02*
X131851940Y-118590952D01*
X131851940Y-118590952D02*
X132351940Y-118590952D01*
X131804321Y-118710001D02*
X131804321Y-119090953D01*
X131899559Y-119495714D02*
X131875750Y-119471905D01*
X131875750Y-119471905D02*
X131851940Y-119400476D01*
X131851940Y-119400476D02*
X131851940Y-119352857D01*
X131851940Y-119352857D02*
X131875750Y-119281429D01*
X131875750Y-119281429D02*
X131923369Y-119233810D01*
X131923369Y-119233810D02*
X131970988Y-119210000D01*
X131970988Y-119210000D02*
X132066226Y-119186191D01*
X132066226Y-119186191D02*
X132137654Y-119186191D01*
X132137654Y-119186191D02*
X132232892Y-119210000D01*
X132232892Y-119210000D02*
X132280511Y-119233810D01*
X132280511Y-119233810D02*
X132328130Y-119281429D01*
X132328130Y-119281429D02*
X132351940Y-119352857D01*
X132351940Y-119352857D02*
X132351940Y-119400476D01*
X132351940Y-119400476D02*
X132328130Y-119471905D01*
X132328130Y-119471905D02*
X132304321Y-119495714D01*
X131851940Y-119781429D02*
X131875750Y-119733810D01*
X131875750Y-119733810D02*
X131899559Y-119710000D01*
X131899559Y-119710000D02*
X131947178Y-119686191D01*
X131947178Y-119686191D02*
X132090035Y-119686191D01*
X132090035Y-119686191D02*
X132137654Y-119710000D01*
X132137654Y-119710000D02*
X132161464Y-119733810D01*
X132161464Y-119733810D02*
X132185273Y-119781429D01*
X132185273Y-119781429D02*
X132185273Y-119852857D01*
X132185273Y-119852857D02*
X132161464Y-119900476D01*
X132161464Y-119900476D02*
X132137654Y-119924286D01*
X132137654Y-119924286D02*
X132090035Y-119948095D01*
X132090035Y-119948095D02*
X131947178Y-119948095D01*
X131947178Y-119948095D02*
X131899559Y-119924286D01*
X131899559Y-119924286D02*
X131875750Y-119900476D01*
X131875750Y-119900476D02*
X131851940Y-119852857D01*
X131851940Y-119852857D02*
X131851940Y-119781429D01*
X132185273Y-120162381D02*
X131851940Y-120162381D01*
X132137654Y-120162381D02*
X132161464Y-120186191D01*
X132161464Y-120186191D02*
X132185273Y-120233810D01*
X132185273Y-120233810D02*
X132185273Y-120305238D01*
X132185273Y-120305238D02*
X132161464Y-120352857D01*
X132161464Y-120352857D02*
X132113845Y-120376667D01*
X132113845Y-120376667D02*
X131851940Y-120376667D01*
X132185273Y-120614762D02*
X131851940Y-120614762D01*
X132137654Y-120614762D02*
X132161464Y-120638572D01*
X132161464Y-120638572D02*
X132185273Y-120686191D01*
X132185273Y-120686191D02*
X132185273Y-120757619D01*
X132185273Y-120757619D02*
X132161464Y-120805238D01*
X132161464Y-120805238D02*
X132113845Y-120829048D01*
X132113845Y-120829048D02*
X131851940Y-120829048D01*
X131875750Y-121257619D02*
X131851940Y-121210000D01*
X131851940Y-121210000D02*
X131851940Y-121114762D01*
X131851940Y-121114762D02*
X131875750Y-121067143D01*
X131875750Y-121067143D02*
X131923369Y-121043334D01*
X131923369Y-121043334D02*
X132113845Y-121043334D01*
X132113845Y-121043334D02*
X132161464Y-121067143D01*
X132161464Y-121067143D02*
X132185273Y-121114762D01*
X132185273Y-121114762D02*
X132185273Y-121210000D01*
X132185273Y-121210000D02*
X132161464Y-121257619D01*
X132161464Y-121257619D02*
X132113845Y-121281429D01*
X132113845Y-121281429D02*
X132066226Y-121281429D01*
X132066226Y-121281429D02*
X132018607Y-121043334D01*
X131875750Y-121710000D02*
X131851940Y-121662381D01*
X131851940Y-121662381D02*
X131851940Y-121567143D01*
X131851940Y-121567143D02*
X131875750Y-121519524D01*
X131875750Y-121519524D02*
X131899559Y-121495714D01*
X131899559Y-121495714D02*
X131947178Y-121471905D01*
X131947178Y-121471905D02*
X132090035Y-121471905D01*
X132090035Y-121471905D02*
X132137654Y-121495714D01*
X132137654Y-121495714D02*
X132161464Y-121519524D01*
X132161464Y-121519524D02*
X132185273Y-121567143D01*
X132185273Y-121567143D02*
X132185273Y-121662381D01*
X132185273Y-121662381D02*
X132161464Y-121710000D01*
X132185273Y-121852857D02*
X132185273Y-122043333D01*
X132351940Y-121924285D02*
X131923369Y-121924285D01*
X131923369Y-121924285D02*
X131875750Y-121948095D01*
X131875750Y-121948095D02*
X131851940Y-121995714D01*
X131851940Y-121995714D02*
X131851940Y-122043333D01*
X131851940Y-122281428D02*
X131875750Y-122233809D01*
X131875750Y-122233809D02*
X131899559Y-122209999D01*
X131899559Y-122209999D02*
X131947178Y-122186190D01*
X131947178Y-122186190D02*
X132090035Y-122186190D01*
X132090035Y-122186190D02*
X132137654Y-122209999D01*
X132137654Y-122209999D02*
X132161464Y-122233809D01*
X132161464Y-122233809D02*
X132185273Y-122281428D01*
X132185273Y-122281428D02*
X132185273Y-122352856D01*
X132185273Y-122352856D02*
X132161464Y-122400475D01*
X132161464Y-122400475D02*
X132137654Y-122424285D01*
X132137654Y-122424285D02*
X132090035Y-122448094D01*
X132090035Y-122448094D02*
X131947178Y-122448094D01*
X131947178Y-122448094D02*
X131899559Y-122424285D01*
X131899559Y-122424285D02*
X131875750Y-122400475D01*
X131875750Y-122400475D02*
X131851940Y-122352856D01*
X131851940Y-122352856D02*
X131851940Y-122281428D01*
X131851940Y-122662380D02*
X132185273Y-122662380D01*
X132090035Y-122662380D02*
X132137654Y-122686190D01*
X132137654Y-122686190D02*
X132161464Y-122709999D01*
X132161464Y-122709999D02*
X132185273Y-122757618D01*
X132185273Y-122757618D02*
X132185273Y-122805237D01*
X131851940Y-123233809D02*
X131851940Y-122948095D01*
X131851940Y-123090952D02*
X132351940Y-123090952D01*
X132351940Y-123090952D02*
X132280511Y-123043333D01*
X132280511Y-123043333D02*
X132232892Y-122995714D01*
X132232892Y-122995714D02*
X132209083Y-122948095D01*
X129811940Y-121952381D02*
X129311940Y-122119047D01*
X129311940Y-122119047D02*
X129811940Y-122285714D01*
X129311940Y-122452380D02*
X129811940Y-122452380D01*
X129311940Y-122690475D02*
X129811940Y-122690475D01*
X129811940Y-122690475D02*
X129311940Y-122976189D01*
X129311940Y-122976189D02*
X129811940Y-122976189D01*
X129788130Y-117039047D02*
X129811940Y-116991428D01*
X129811940Y-116991428D02*
X129811940Y-116919999D01*
X129811940Y-116919999D02*
X129788130Y-116848571D01*
X129788130Y-116848571D02*
X129740511Y-116800952D01*
X129740511Y-116800952D02*
X129692892Y-116777142D01*
X129692892Y-116777142D02*
X129597654Y-116753333D01*
X129597654Y-116753333D02*
X129526226Y-116753333D01*
X129526226Y-116753333D02*
X129430988Y-116777142D01*
X129430988Y-116777142D02*
X129383369Y-116800952D01*
X129383369Y-116800952D02*
X129335750Y-116848571D01*
X129335750Y-116848571D02*
X129311940Y-116919999D01*
X129311940Y-116919999D02*
X129311940Y-116967618D01*
X129311940Y-116967618D02*
X129335750Y-117039047D01*
X129335750Y-117039047D02*
X129359559Y-117062856D01*
X129359559Y-117062856D02*
X129526226Y-117062856D01*
X129526226Y-117062856D02*
X129526226Y-116967618D01*
X129311940Y-117277142D02*
X129811940Y-117277142D01*
X129811940Y-117277142D02*
X129311940Y-117562856D01*
X129311940Y-117562856D02*
X129811940Y-117562856D01*
X129311940Y-117800952D02*
X129811940Y-117800952D01*
X129811940Y-117800952D02*
X129811940Y-117920000D01*
X129811940Y-117920000D02*
X129788130Y-117991428D01*
X129788130Y-117991428D02*
X129740511Y-118039047D01*
X129740511Y-118039047D02*
X129692892Y-118062857D01*
X129692892Y-118062857D02*
X129597654Y-118086666D01*
X129597654Y-118086666D02*
X129526226Y-118086666D01*
X129526226Y-118086666D02*
X129430988Y-118062857D01*
X129430988Y-118062857D02*
X129383369Y-118039047D01*
X129383369Y-118039047D02*
X129335750Y-117991428D01*
X129335750Y-117991428D02*
X129311940Y-117920000D01*
X129311940Y-117920000D02*
X129311940Y-117800952D01*
%TO.C,ESP32_UWB1*%
D14*
X127000000Y-68580000D02*
X199800000Y-68580000D01*
X199800000Y-101600000D01*
X127000000Y-101600000D01*
X127000000Y-68580000D01*
X127000000Y-76200000D02*
X132080000Y-76200000D01*
X132080000Y-93980000D01*
X127000000Y-93980000D01*
X127000000Y-76200000D01*
X165100000Y-68580000D02*
X177800000Y-68580000D01*
X177800000Y-78740000D01*
X165100000Y-78740000D01*
X165100000Y-68580000D01*
X193040000Y-81280000D02*
X200660000Y-81280000D01*
X200660000Y-88900000D01*
X193040000Y-88900000D01*
X193040000Y-81280000D01*
%TO.C,R3*%
X166370000Y-111760000D02*
X168910000Y-111760000D01*
X168910000Y-101600000D01*
X166370000Y-101600000D01*
X166370000Y-111760000D01*
%TO.C,R1*%
X158750000Y-111760000D02*
X161290000Y-111760000D01*
X161290000Y-101600000D01*
X158750000Y-101600000D01*
X158750000Y-111760000D01*
%TO.C,R2*%
X161290000Y-111760000D02*
X163830000Y-111760000D01*
X163830000Y-101600000D01*
X161290000Y-101600000D01*
X161290000Y-111760000D01*
%TO.C,SERVER_LED1*%
X166670000Y-116840000D02*
G75*
G02*
X160990000Y-116840000I-2840000J0D01*
G01*
X160990000Y-116840000D02*
G75*
G02*
X166670000Y-116840000I2840000J0D01*
G01*
%TO.C,5V_Regulator1*%
X136130000Y-114880000D02*
X153630000Y-114880000D01*
X153630000Y-127080000D01*
X136130000Y-127080000D01*
X136130000Y-114880000D01*
%TO.C,TAG_LED1*%
X179370000Y-116840000D02*
G75*
G02*
X173690000Y-116840000I-2840000J0D01*
G01*
X173690000Y-116840000D02*
G75*
G02*
X179370000Y-116840000I2840000J0D01*
G01*
%TO.C,CAN_Transreceiver1*%
X154000000Y-114300000D02*
X127000000Y-114300000D01*
X127000000Y-104140000D01*
X154000000Y-104140000D01*
X154000000Y-114300000D01*
%TO.C,R4*%
X168910000Y-111760000D02*
X171450000Y-111760000D01*
X171450000Y-101600000D01*
X168910000Y-101600000D01*
X168910000Y-111760000D01*
%TO.C,2_PIN_Connector1*%
X134620000Y-114880000D02*
X127000000Y-114880000D01*
X127000000Y-125040000D01*
X134620000Y-125040000D01*
X134620000Y-114880000D01*
%TD*%
M02*
