%TF.GenerationSoftware,KiCad,Pcbnew,9.0.0*%
%TF.CreationDate,2025-03-26T13:51:14-07:00*%
%TF.ProjectId,tag_v2,7461675f-7632-42e6-9b69-6361645f7063,v0.4*%
%TF.SameCoordinates,Original*%
%TF.FileFunction,Legend,Bot*%
%TF.FilePolarity,Positive*%
%FSLAX46Y46*%
G04 Gerber Fmt 4.6, Leading zero omitted, Abs format (unit mm)*
G04 Created by KiCad (PCBNEW 9.0.0) date 2025-03-26 13:51:14*
%MOMM*%
%LPD*%
G01*
G04 APERTURE LIST*
%ADD10C,0.100000*%
G04 APERTURE END LIST*
D10*
X169172855Y-117382580D02*
X168696665Y-117382580D01*
X168696665Y-117382580D02*
X168649046Y-116906390D01*
X168649046Y-116906390D02*
X168696665Y-116954009D01*
X168696665Y-116954009D02*
X168791903Y-117001628D01*
X168791903Y-117001628D02*
X169029998Y-117001628D01*
X169029998Y-117001628D02*
X169125236Y-116954009D01*
X169125236Y-116954009D02*
X169172855Y-116906390D01*
X169172855Y-116906390D02*
X169220474Y-116811152D01*
X169220474Y-116811152D02*
X169220474Y-116573057D01*
X169220474Y-116573057D02*
X169172855Y-116477819D01*
X169172855Y-116477819D02*
X169125236Y-116430200D01*
X169125236Y-116430200D02*
X169029998Y-116382580D01*
X169029998Y-116382580D02*
X168791903Y-116382580D01*
X168791903Y-116382580D02*
X168696665Y-116430200D01*
X168696665Y-116430200D02*
X168649046Y-116477819D01*
X169506189Y-117382580D02*
X169839522Y-116382580D01*
X169839522Y-116382580D02*
X170172855Y-117382580D01*
X170268094Y-116287342D02*
X171029998Y-116287342D01*
X171268094Y-116382580D02*
X171268094Y-117382580D01*
X171268094Y-117382580D02*
X171506189Y-117382580D01*
X171506189Y-117382580D02*
X171649046Y-117334961D01*
X171649046Y-117334961D02*
X171744284Y-117239723D01*
X171744284Y-117239723D02*
X171791903Y-117144485D01*
X171791903Y-117144485D02*
X171839522Y-116954009D01*
X171839522Y-116954009D02*
X171839522Y-116811152D01*
X171839522Y-116811152D02*
X171791903Y-116620676D01*
X171791903Y-116620676D02*
X171744284Y-116525438D01*
X171744284Y-116525438D02*
X171649046Y-116430200D01*
X171649046Y-116430200D02*
X171506189Y-116382580D01*
X171506189Y-116382580D02*
X171268094Y-116382580D01*
X172839522Y-116477819D02*
X172791903Y-116430200D01*
X172791903Y-116430200D02*
X172649046Y-116382580D01*
X172649046Y-116382580D02*
X172553808Y-116382580D01*
X172553808Y-116382580D02*
X172410951Y-116430200D01*
X172410951Y-116430200D02*
X172315713Y-116525438D01*
X172315713Y-116525438D02*
X172268094Y-116620676D01*
X172268094Y-116620676D02*
X172220475Y-116811152D01*
X172220475Y-116811152D02*
X172220475Y-116954009D01*
X172220475Y-116954009D02*
X172268094Y-117144485D01*
X172268094Y-117144485D02*
X172315713Y-117239723D01*
X172315713Y-117239723D02*
X172410951Y-117334961D01*
X172410951Y-117334961D02*
X172553808Y-117382580D01*
X172553808Y-117382580D02*
X172649046Y-117382580D01*
X172649046Y-117382580D02*
X172791903Y-117334961D01*
X172791903Y-117334961D02*
X172839522Y-117287342D01*
X173029999Y-116287342D02*
X173791903Y-116287342D01*
X174029999Y-116382580D02*
X174029999Y-117382580D01*
X174029999Y-117382580D02*
X174268094Y-117382580D01*
X174268094Y-117382580D02*
X174410951Y-117334961D01*
X174410951Y-117334961D02*
X174506189Y-117239723D01*
X174506189Y-117239723D02*
X174553808Y-117144485D01*
X174553808Y-117144485D02*
X174601427Y-116954009D01*
X174601427Y-116954009D02*
X174601427Y-116811152D01*
X174601427Y-116811152D02*
X174553808Y-116620676D01*
X174553808Y-116620676D02*
X174506189Y-116525438D01*
X174506189Y-116525438D02*
X174410951Y-116430200D01*
X174410951Y-116430200D02*
X174268094Y-116382580D01*
X174268094Y-116382580D02*
X174029999Y-116382580D01*
X175601427Y-116477819D02*
X175553808Y-116430200D01*
X175553808Y-116430200D02*
X175410951Y-116382580D01*
X175410951Y-116382580D02*
X175315713Y-116382580D01*
X175315713Y-116382580D02*
X175172856Y-116430200D01*
X175172856Y-116430200D02*
X175077618Y-116525438D01*
X175077618Y-116525438D02*
X175029999Y-116620676D01*
X175029999Y-116620676D02*
X174982380Y-116811152D01*
X174982380Y-116811152D02*
X174982380Y-116954009D01*
X174982380Y-116954009D02*
X175029999Y-117144485D01*
X175029999Y-117144485D02*
X175077618Y-117239723D01*
X175077618Y-117239723D02*
X175172856Y-117334961D01*
X175172856Y-117334961D02*
X175315713Y-117382580D01*
X175315713Y-117382580D02*
X175410951Y-117382580D01*
X175410951Y-117382580D02*
X175553808Y-117334961D01*
X175553808Y-117334961D02*
X175601427Y-117287342D01*
X175791904Y-116287342D02*
X176553808Y-116287342D01*
X177363332Y-116477819D02*
X177315713Y-116430200D01*
X177315713Y-116430200D02*
X177172856Y-116382580D01*
X177172856Y-116382580D02*
X177077618Y-116382580D01*
X177077618Y-116382580D02*
X176934761Y-116430200D01*
X176934761Y-116430200D02*
X176839523Y-116525438D01*
X176839523Y-116525438D02*
X176791904Y-116620676D01*
X176791904Y-116620676D02*
X176744285Y-116811152D01*
X176744285Y-116811152D02*
X176744285Y-116954009D01*
X176744285Y-116954009D02*
X176791904Y-117144485D01*
X176791904Y-117144485D02*
X176839523Y-117239723D01*
X176839523Y-117239723D02*
X176934761Y-117334961D01*
X176934761Y-117334961D02*
X177077618Y-117382580D01*
X177077618Y-117382580D02*
X177172856Y-117382580D01*
X177172856Y-117382580D02*
X177315713Y-117334961D01*
X177315713Y-117334961D02*
X177363332Y-117287342D01*
X177934761Y-116382580D02*
X177839523Y-116430200D01*
X177839523Y-116430200D02*
X177791904Y-116477819D01*
X177791904Y-116477819D02*
X177744285Y-116573057D01*
X177744285Y-116573057D02*
X177744285Y-116858771D01*
X177744285Y-116858771D02*
X177791904Y-116954009D01*
X177791904Y-116954009D02*
X177839523Y-117001628D01*
X177839523Y-117001628D02*
X177934761Y-117049247D01*
X177934761Y-117049247D02*
X178077618Y-117049247D01*
X178077618Y-117049247D02*
X178172856Y-117001628D01*
X178172856Y-117001628D02*
X178220475Y-116954009D01*
X178220475Y-116954009D02*
X178268094Y-116858771D01*
X178268094Y-116858771D02*
X178268094Y-116573057D01*
X178268094Y-116573057D02*
X178220475Y-116477819D01*
X178220475Y-116477819D02*
X178172856Y-116430200D01*
X178172856Y-116430200D02*
X178077618Y-116382580D01*
X178077618Y-116382580D02*
X177934761Y-116382580D01*
X178696666Y-117049247D02*
X178696666Y-116382580D01*
X178696666Y-116954009D02*
X178744285Y-117001628D01*
X178744285Y-117001628D02*
X178839523Y-117049247D01*
X178839523Y-117049247D02*
X178982380Y-117049247D01*
X178982380Y-117049247D02*
X179077618Y-117001628D01*
X179077618Y-117001628D02*
X179125237Y-116906390D01*
X179125237Y-116906390D02*
X179125237Y-116382580D01*
X179506190Y-117049247D02*
X179744285Y-116382580D01*
X179744285Y-116382580D02*
X179982380Y-117049247D01*
X180744285Y-116430200D02*
X180649047Y-116382580D01*
X180649047Y-116382580D02*
X180458571Y-116382580D01*
X180458571Y-116382580D02*
X180363333Y-116430200D01*
X180363333Y-116430200D02*
X180315714Y-116525438D01*
X180315714Y-116525438D02*
X180315714Y-116906390D01*
X180315714Y-116906390D02*
X180363333Y-117001628D01*
X180363333Y-117001628D02*
X180458571Y-117049247D01*
X180458571Y-117049247D02*
X180649047Y-117049247D01*
X180649047Y-117049247D02*
X180744285Y-117001628D01*
X180744285Y-117001628D02*
X180791904Y-116906390D01*
X180791904Y-116906390D02*
X180791904Y-116811152D01*
X180791904Y-116811152D02*
X180315714Y-116715914D01*
X181220476Y-116382580D02*
X181220476Y-117049247D01*
X181220476Y-116858771D02*
X181268095Y-116954009D01*
X181268095Y-116954009D02*
X181315714Y-117001628D01*
X181315714Y-117001628D02*
X181410952Y-117049247D01*
X181410952Y-117049247D02*
X181506190Y-117049247D01*
X181696667Y-117049247D02*
X182077619Y-117049247D01*
X181839524Y-117382580D02*
X181839524Y-116525438D01*
X181839524Y-116525438D02*
X181887143Y-116430200D01*
X181887143Y-116430200D02*
X181982381Y-116382580D01*
X181982381Y-116382580D02*
X182077619Y-116382580D01*
X182791905Y-116430200D02*
X182696667Y-116382580D01*
X182696667Y-116382580D02*
X182506191Y-116382580D01*
X182506191Y-116382580D02*
X182410953Y-116430200D01*
X182410953Y-116430200D02*
X182363334Y-116525438D01*
X182363334Y-116525438D02*
X182363334Y-116906390D01*
X182363334Y-116906390D02*
X182410953Y-117001628D01*
X182410953Y-117001628D02*
X182506191Y-117049247D01*
X182506191Y-117049247D02*
X182696667Y-117049247D01*
X182696667Y-117049247D02*
X182791905Y-117001628D01*
X182791905Y-117001628D02*
X182839524Y-116906390D01*
X182839524Y-116906390D02*
X182839524Y-116811152D01*
X182839524Y-116811152D02*
X182363334Y-116715914D01*
X183268096Y-116382580D02*
X183268096Y-117049247D01*
X183268096Y-116858771D02*
X183315715Y-116954009D01*
X183315715Y-116954009D02*
X183363334Y-117001628D01*
X183363334Y-117001628D02*
X183458572Y-117049247D01*
X183458572Y-117049247D02*
X183553810Y-117049247D01*
X184410953Y-116382580D02*
X183839525Y-116382580D01*
X184125239Y-116382580D02*
X184125239Y-117382580D01*
X184125239Y-117382580D02*
X184030001Y-117239723D01*
X184030001Y-117239723D02*
X183934763Y-117144485D01*
X183934763Y-117144485D02*
X183839525Y-117096866D01*
X178270000Y-115407104D02*
X178422381Y-115407104D01*
X178422381Y-115407104D02*
X178498571Y-115369009D01*
X178498571Y-115369009D02*
X178574762Y-115292819D01*
X178574762Y-115292819D02*
X178612857Y-115140438D01*
X178612857Y-115140438D02*
X178612857Y-114873771D01*
X178612857Y-114873771D02*
X178574762Y-114721390D01*
X178574762Y-114721390D02*
X178498571Y-114645200D01*
X178498571Y-114645200D02*
X178422381Y-114607104D01*
X178422381Y-114607104D02*
X178270000Y-114607104D01*
X178270000Y-114607104D02*
X178193809Y-114645200D01*
X178193809Y-114645200D02*
X178117619Y-114721390D01*
X178117619Y-114721390D02*
X178079523Y-114873771D01*
X178079523Y-114873771D02*
X178079523Y-115140438D01*
X178079523Y-115140438D02*
X178117619Y-115292819D01*
X178117619Y-115292819D02*
X178193809Y-115369009D01*
X178193809Y-115369009D02*
X178270000Y-115407104D01*
X178955714Y-115407104D02*
X178955714Y-114759485D01*
X178955714Y-114759485D02*
X178993809Y-114683295D01*
X178993809Y-114683295D02*
X179031904Y-114645200D01*
X179031904Y-114645200D02*
X179108095Y-114607104D01*
X179108095Y-114607104D02*
X179260476Y-114607104D01*
X179260476Y-114607104D02*
X179336666Y-114645200D01*
X179336666Y-114645200D02*
X179374761Y-114683295D01*
X179374761Y-114683295D02*
X179412857Y-114759485D01*
X179412857Y-114759485D02*
X179412857Y-115407104D01*
X179679523Y-115407104D02*
X180136666Y-115407104D01*
X179908094Y-114607104D02*
X179908094Y-115407104D01*
X175920476Y-115369009D02*
X175844286Y-115407104D01*
X175844286Y-115407104D02*
X175730000Y-115407104D01*
X175730000Y-115407104D02*
X175615714Y-115369009D01*
X175615714Y-115369009D02*
X175539524Y-115292819D01*
X175539524Y-115292819D02*
X175501429Y-115216628D01*
X175501429Y-115216628D02*
X175463333Y-115064247D01*
X175463333Y-115064247D02*
X175463333Y-114949961D01*
X175463333Y-114949961D02*
X175501429Y-114797580D01*
X175501429Y-114797580D02*
X175539524Y-114721390D01*
X175539524Y-114721390D02*
X175615714Y-114645200D01*
X175615714Y-114645200D02*
X175730000Y-114607104D01*
X175730000Y-114607104D02*
X175806191Y-114607104D01*
X175806191Y-114607104D02*
X175920476Y-114645200D01*
X175920476Y-114645200D02*
X175958572Y-114683295D01*
X175958572Y-114683295D02*
X175958572Y-114949961D01*
X175958572Y-114949961D02*
X175806191Y-114949961D01*
X176301429Y-114607104D02*
X176301429Y-115407104D01*
X176301429Y-115407104D02*
X176758572Y-114607104D01*
X176758572Y-114607104D02*
X176758572Y-115407104D01*
X177139524Y-114607104D02*
X177139524Y-115407104D01*
X177139524Y-115407104D02*
X177330000Y-115407104D01*
X177330000Y-115407104D02*
X177444286Y-115369009D01*
X177444286Y-115369009D02*
X177520476Y-115292819D01*
X177520476Y-115292819D02*
X177558571Y-115216628D01*
X177558571Y-115216628D02*
X177596667Y-115064247D01*
X177596667Y-115064247D02*
X177596667Y-114949961D01*
X177596667Y-114949961D02*
X177558571Y-114797580D01*
X177558571Y-114797580D02*
X177520476Y-114721390D01*
X177520476Y-114721390D02*
X177444286Y-114645200D01*
X177444286Y-114645200D02*
X177330000Y-114607104D01*
X177330000Y-114607104D02*
X177139524Y-114607104D01*
X173570953Y-114607104D02*
X173570953Y-115407104D01*
X173951905Y-114607104D02*
X173951905Y-115407104D01*
X173951905Y-115407104D02*
X174409048Y-114607104D01*
X174409048Y-114607104D02*
X174409048Y-115407104D01*
X173823609Y-89396665D02*
X173871228Y-89539522D01*
X173871228Y-89539522D02*
X173918847Y-89587141D01*
X173918847Y-89587141D02*
X174014085Y-89634760D01*
X174014085Y-89634760D02*
X174156942Y-89634760D01*
X174156942Y-89634760D02*
X174252180Y-89587141D01*
X174252180Y-89587141D02*
X174299800Y-89539522D01*
X174299800Y-89539522D02*
X174347419Y-89444284D01*
X174347419Y-89444284D02*
X174347419Y-89063332D01*
X174347419Y-89063332D02*
X173347419Y-89063332D01*
X173347419Y-89063332D02*
X173347419Y-89396665D01*
X173347419Y-89396665D02*
X173395038Y-89491903D01*
X173395038Y-89491903D02*
X173442657Y-89539522D01*
X173442657Y-89539522D02*
X173537895Y-89587141D01*
X173537895Y-89587141D02*
X173633133Y-89587141D01*
X173633133Y-89587141D02*
X173728371Y-89539522D01*
X173728371Y-89539522D02*
X173775990Y-89491903D01*
X173775990Y-89491903D02*
X173823609Y-89396665D01*
X173823609Y-89396665D02*
X173823609Y-89063332D01*
X174347419Y-90491903D02*
X173823609Y-90491903D01*
X173823609Y-90491903D02*
X173728371Y-90444284D01*
X173728371Y-90444284D02*
X173680752Y-90349046D01*
X173680752Y-90349046D02*
X173680752Y-90158570D01*
X173680752Y-90158570D02*
X173728371Y-90063332D01*
X174299800Y-90491903D02*
X174347419Y-90396665D01*
X174347419Y-90396665D02*
X174347419Y-90158570D01*
X174347419Y-90158570D02*
X174299800Y-90063332D01*
X174299800Y-90063332D02*
X174204561Y-90015713D01*
X174204561Y-90015713D02*
X174109323Y-90015713D01*
X174109323Y-90015713D02*
X174014085Y-90063332D01*
X174014085Y-90063332D02*
X173966466Y-90158570D01*
X173966466Y-90158570D02*
X173966466Y-90396665D01*
X173966466Y-90396665D02*
X173918847Y-90491903D01*
X173680752Y-90825237D02*
X173680752Y-91206189D01*
X173347419Y-90968094D02*
X174204561Y-90968094D01*
X174204561Y-90968094D02*
X174299800Y-91015713D01*
X174299800Y-91015713D02*
X174347419Y-91110951D01*
X174347419Y-91110951D02*
X174347419Y-91206189D01*
X173680752Y-91396666D02*
X173680752Y-91777618D01*
X173347419Y-91539523D02*
X174204561Y-91539523D01*
X174204561Y-91539523D02*
X174299800Y-91587142D01*
X174299800Y-91587142D02*
X174347419Y-91682380D01*
X174347419Y-91682380D02*
X174347419Y-91777618D01*
X174299800Y-92491904D02*
X174347419Y-92396666D01*
X174347419Y-92396666D02*
X174347419Y-92206190D01*
X174347419Y-92206190D02*
X174299800Y-92110952D01*
X174299800Y-92110952D02*
X174204561Y-92063333D01*
X174204561Y-92063333D02*
X173823609Y-92063333D01*
X173823609Y-92063333D02*
X173728371Y-92110952D01*
X173728371Y-92110952D02*
X173680752Y-92206190D01*
X173680752Y-92206190D02*
X173680752Y-92396666D01*
X173680752Y-92396666D02*
X173728371Y-92491904D01*
X173728371Y-92491904D02*
X173823609Y-92539523D01*
X173823609Y-92539523D02*
X173918847Y-92539523D01*
X173918847Y-92539523D02*
X174014085Y-92063333D01*
X174347419Y-92968095D02*
X173680752Y-92968095D01*
X173871228Y-92968095D02*
X173775990Y-93015714D01*
X173775990Y-93015714D02*
X173728371Y-93063333D01*
X173728371Y-93063333D02*
X173680752Y-93158571D01*
X173680752Y-93158571D02*
X173680752Y-93253809D01*
X173680752Y-93491905D02*
X174347419Y-93730000D01*
X173680752Y-93968095D02*
X174347419Y-93730000D01*
X174347419Y-93730000D02*
X174585514Y-93634762D01*
X174585514Y-93634762D02*
X174633133Y-93587143D01*
X174633133Y-93587143D02*
X174680752Y-93491905D01*
X174442657Y-94110953D02*
X174442657Y-94872857D01*
X174252180Y-95682381D02*
X174299800Y-95634762D01*
X174299800Y-95634762D02*
X174347419Y-95491905D01*
X174347419Y-95491905D02*
X174347419Y-95396667D01*
X174347419Y-95396667D02*
X174299800Y-95253810D01*
X174299800Y-95253810D02*
X174204561Y-95158572D01*
X174204561Y-95158572D02*
X174109323Y-95110953D01*
X174109323Y-95110953D02*
X173918847Y-95063334D01*
X173918847Y-95063334D02*
X173775990Y-95063334D01*
X173775990Y-95063334D02*
X173585514Y-95110953D01*
X173585514Y-95110953D02*
X173490276Y-95158572D01*
X173490276Y-95158572D02*
X173395038Y-95253810D01*
X173395038Y-95253810D02*
X173347419Y-95396667D01*
X173347419Y-95396667D02*
X173347419Y-95491905D01*
X173347419Y-95491905D02*
X173395038Y-95634762D01*
X173395038Y-95634762D02*
X173442657Y-95682381D01*
X174347419Y-96110953D02*
X173347419Y-96110953D01*
X174347419Y-96539524D02*
X173823609Y-96539524D01*
X173823609Y-96539524D02*
X173728371Y-96491905D01*
X173728371Y-96491905D02*
X173680752Y-96396667D01*
X173680752Y-96396667D02*
X173680752Y-96253810D01*
X173680752Y-96253810D02*
X173728371Y-96158572D01*
X173728371Y-96158572D02*
X173775990Y-96110953D01*
X174347419Y-97444286D02*
X173823609Y-97444286D01*
X173823609Y-97444286D02*
X173728371Y-97396667D01*
X173728371Y-97396667D02*
X173680752Y-97301429D01*
X173680752Y-97301429D02*
X173680752Y-97110953D01*
X173680752Y-97110953D02*
X173728371Y-97015715D01*
X174299800Y-97444286D02*
X174347419Y-97349048D01*
X174347419Y-97349048D02*
X174347419Y-97110953D01*
X174347419Y-97110953D02*
X174299800Y-97015715D01*
X174299800Y-97015715D02*
X174204561Y-96968096D01*
X174204561Y-96968096D02*
X174109323Y-96968096D01*
X174109323Y-96968096D02*
X174014085Y-97015715D01*
X174014085Y-97015715D02*
X173966466Y-97110953D01*
X173966466Y-97110953D02*
X173966466Y-97349048D01*
X173966466Y-97349048D02*
X173918847Y-97444286D01*
X174347419Y-97920477D02*
X173680752Y-97920477D01*
X173871228Y-97920477D02*
X173775990Y-97968096D01*
X173775990Y-97968096D02*
X173728371Y-98015715D01*
X173728371Y-98015715D02*
X173680752Y-98110953D01*
X173680752Y-98110953D02*
X173680752Y-98206191D01*
X173680752Y-98968096D02*
X174490276Y-98968096D01*
X174490276Y-98968096D02*
X174585514Y-98920477D01*
X174585514Y-98920477D02*
X174633133Y-98872858D01*
X174633133Y-98872858D02*
X174680752Y-98777620D01*
X174680752Y-98777620D02*
X174680752Y-98634763D01*
X174680752Y-98634763D02*
X174633133Y-98539525D01*
X174299800Y-98968096D02*
X174347419Y-98872858D01*
X174347419Y-98872858D02*
X174347419Y-98682382D01*
X174347419Y-98682382D02*
X174299800Y-98587144D01*
X174299800Y-98587144D02*
X174252180Y-98539525D01*
X174252180Y-98539525D02*
X174156942Y-98491906D01*
X174156942Y-98491906D02*
X173871228Y-98491906D01*
X173871228Y-98491906D02*
X173775990Y-98539525D01*
X173775990Y-98539525D02*
X173728371Y-98587144D01*
X173728371Y-98587144D02*
X173680752Y-98682382D01*
X173680752Y-98682382D02*
X173680752Y-98872858D01*
X173680752Y-98872858D02*
X173728371Y-98968096D01*
X174299800Y-99825239D02*
X174347419Y-99730001D01*
X174347419Y-99730001D02*
X174347419Y-99539525D01*
X174347419Y-99539525D02*
X174299800Y-99444287D01*
X174299800Y-99444287D02*
X174204561Y-99396668D01*
X174204561Y-99396668D02*
X173823609Y-99396668D01*
X173823609Y-99396668D02*
X173728371Y-99444287D01*
X173728371Y-99444287D02*
X173680752Y-99539525D01*
X173680752Y-99539525D02*
X173680752Y-99730001D01*
X173680752Y-99730001D02*
X173728371Y-99825239D01*
X173728371Y-99825239D02*
X173823609Y-99872858D01*
X173823609Y-99872858D02*
X173918847Y-99872858D01*
X173918847Y-99872858D02*
X174014085Y-99396668D01*
X174347419Y-100301430D02*
X173680752Y-100301430D01*
X173871228Y-100301430D02*
X173775990Y-100349049D01*
X173775990Y-100349049D02*
X173728371Y-100396668D01*
X173728371Y-100396668D02*
X173680752Y-100491906D01*
X173680752Y-100491906D02*
X173680752Y-100587144D01*
X174347419Y-101444287D02*
X174347419Y-100872859D01*
X174347419Y-101158573D02*
X173347419Y-101158573D01*
X173347419Y-101158573D02*
X173490276Y-101063335D01*
X173490276Y-101063335D02*
X173585514Y-100968097D01*
X173585514Y-100968097D02*
X173633133Y-100872859D01*
X171462847Y-104971904D02*
X171500942Y-105086190D01*
X171500942Y-105086190D02*
X171539038Y-105124285D01*
X171539038Y-105124285D02*
X171615228Y-105162381D01*
X171615228Y-105162381D02*
X171729514Y-105162381D01*
X171729514Y-105162381D02*
X171805704Y-105124285D01*
X171805704Y-105124285D02*
X171843800Y-105086190D01*
X171843800Y-105086190D02*
X171881895Y-105010000D01*
X171881895Y-105010000D02*
X171881895Y-104705238D01*
X171881895Y-104705238D02*
X171081895Y-104705238D01*
X171081895Y-104705238D02*
X171081895Y-104971904D01*
X171081895Y-104971904D02*
X171119990Y-105048095D01*
X171119990Y-105048095D02*
X171158085Y-105086190D01*
X171158085Y-105086190D02*
X171234276Y-105124285D01*
X171234276Y-105124285D02*
X171310466Y-105124285D01*
X171310466Y-105124285D02*
X171386657Y-105086190D01*
X171386657Y-105086190D02*
X171424752Y-105048095D01*
X171424752Y-105048095D02*
X171462847Y-104971904D01*
X171462847Y-104971904D02*
X171462847Y-104705238D01*
X171577133Y-105505238D02*
X171577133Y-106114762D01*
X171881895Y-105810000D02*
X171272371Y-105810000D01*
X176208847Y-104971904D02*
X176246942Y-105086190D01*
X176246942Y-105086190D02*
X176285038Y-105124285D01*
X176285038Y-105124285D02*
X176361228Y-105162381D01*
X176361228Y-105162381D02*
X176475514Y-105162381D01*
X176475514Y-105162381D02*
X176551704Y-105124285D01*
X176551704Y-105124285D02*
X176589800Y-105086190D01*
X176589800Y-105086190D02*
X176627895Y-105010000D01*
X176627895Y-105010000D02*
X176627895Y-104705238D01*
X176627895Y-104705238D02*
X175827895Y-104705238D01*
X175827895Y-104705238D02*
X175827895Y-104971904D01*
X175827895Y-104971904D02*
X175865990Y-105048095D01*
X175865990Y-105048095D02*
X175904085Y-105086190D01*
X175904085Y-105086190D02*
X175980276Y-105124285D01*
X175980276Y-105124285D02*
X176056466Y-105124285D01*
X176056466Y-105124285D02*
X176132657Y-105086190D01*
X176132657Y-105086190D02*
X176170752Y-105048095D01*
X176170752Y-105048095D02*
X176208847Y-104971904D01*
X176208847Y-104971904D02*
X176208847Y-104705238D01*
X176323133Y-105505238D02*
X176323133Y-106114762D01*
X166965133Y-84224211D02*
X166965133Y-84833735D01*
X167269895Y-84528973D02*
X166660371Y-84528973D01*
X166469895Y-100738646D02*
X166469895Y-100891027D01*
X166469895Y-100891027D02*
X166507990Y-100967217D01*
X166507990Y-100967217D02*
X166584180Y-101043408D01*
X166584180Y-101043408D02*
X166736561Y-101081503D01*
X166736561Y-101081503D02*
X167003228Y-101081503D01*
X167003228Y-101081503D02*
X167155609Y-101043408D01*
X167155609Y-101043408D02*
X167231800Y-100967217D01*
X167231800Y-100967217D02*
X167269895Y-100891027D01*
X167269895Y-100891027D02*
X167269895Y-100738646D01*
X167269895Y-100738646D02*
X167231800Y-100662455D01*
X167231800Y-100662455D02*
X167155609Y-100586265D01*
X167155609Y-100586265D02*
X167003228Y-100548169D01*
X167003228Y-100548169D02*
X166736561Y-100548169D01*
X166736561Y-100548169D02*
X166584180Y-100586265D01*
X166584180Y-100586265D02*
X166507990Y-100662455D01*
X166507990Y-100662455D02*
X166469895Y-100738646D01*
X166469895Y-101424360D02*
X167117514Y-101424360D01*
X167117514Y-101424360D02*
X167193704Y-101462455D01*
X167193704Y-101462455D02*
X167231800Y-101500550D01*
X167231800Y-101500550D02*
X167269895Y-101576741D01*
X167269895Y-101576741D02*
X167269895Y-101729122D01*
X167269895Y-101729122D02*
X167231800Y-101805312D01*
X167231800Y-101805312D02*
X167193704Y-101843407D01*
X167193704Y-101843407D02*
X167117514Y-101881503D01*
X167117514Y-101881503D02*
X166469895Y-101881503D01*
X166469895Y-102148169D02*
X166469895Y-102605312D01*
X167269895Y-102376740D02*
X166469895Y-102376740D01*
X166965133Y-102871979D02*
X166965133Y-103481503D01*
X167269895Y-103176741D02*
X166660371Y-103176741D01*
X180935133Y-84224211D02*
X180935133Y-84833735D01*
X180439895Y-100738646D02*
X180439895Y-100891027D01*
X180439895Y-100891027D02*
X180477990Y-100967217D01*
X180477990Y-100967217D02*
X180554180Y-101043408D01*
X180554180Y-101043408D02*
X180706561Y-101081503D01*
X180706561Y-101081503D02*
X180973228Y-101081503D01*
X180973228Y-101081503D02*
X181125609Y-101043408D01*
X181125609Y-101043408D02*
X181201800Y-100967217D01*
X181201800Y-100967217D02*
X181239895Y-100891027D01*
X181239895Y-100891027D02*
X181239895Y-100738646D01*
X181239895Y-100738646D02*
X181201800Y-100662455D01*
X181201800Y-100662455D02*
X181125609Y-100586265D01*
X181125609Y-100586265D02*
X180973228Y-100548169D01*
X180973228Y-100548169D02*
X180706561Y-100548169D01*
X180706561Y-100548169D02*
X180554180Y-100586265D01*
X180554180Y-100586265D02*
X180477990Y-100662455D01*
X180477990Y-100662455D02*
X180439895Y-100738646D01*
X180439895Y-101424360D02*
X181087514Y-101424360D01*
X181087514Y-101424360D02*
X181163704Y-101462455D01*
X181163704Y-101462455D02*
X181201800Y-101500550D01*
X181201800Y-101500550D02*
X181239895Y-101576741D01*
X181239895Y-101576741D02*
X181239895Y-101729122D01*
X181239895Y-101729122D02*
X181201800Y-101805312D01*
X181201800Y-101805312D02*
X181163704Y-101843407D01*
X181163704Y-101843407D02*
X181087514Y-101881503D01*
X181087514Y-101881503D02*
X180439895Y-101881503D01*
X180439895Y-102148169D02*
X180439895Y-102605312D01*
X181239895Y-102376740D02*
X180439895Y-102376740D01*
X180935133Y-102871979D02*
X180935133Y-103481503D01*
%TO.C,5V_DC_DC_Converter1*%
X170630000Y-122640000D02*
X182430000Y-122640000D01*
X182430000Y-111040000D01*
X170630000Y-111040000D01*
X170630000Y-122640000D01*
%TO.C,Battery_Charger1*%
X165190000Y-81280000D02*
X182590000Y-81280000D01*
X182590000Y-109180000D01*
X165190000Y-109180000D01*
X165190000Y-81280000D01*
X169370000Y-79940000D02*
X178410000Y-79940000D01*
X178410000Y-86800000D01*
X169370000Y-86800000D01*
X169370000Y-79940000D01*
%TD*%
M02*
