%TF.GenerationSoftware,KiCad,Pcbnew,9.0.0*%
%TF.CreationDate,2025-03-19T00:36:04-07:00*%
%TF.ProjectId,tag_v2,7461675f-7632-42e6-9b69-6361645f7063,v0.4*%
%TF.SameCoordinates,Original*%
%TF.FileFunction,Legend,Top*%
%TF.FilePolarity,Positive*%
%FSLAX46Y46*%
G04 Gerber Fmt 4.6, Leading zero omitted, Abs format (unit mm)*
G04 Created by KiCad (PCBNEW 9.0.0) date 2025-03-19 00:36:04*
%MOMM*%
%LPD*%
G01*
G04 APERTURE LIST*
%ADD10C,0.100000*%
%ADD11C,0.325000*%
%ADD12C,0.250000*%
%ADD13C,0.062500*%
%ADD14C,0.125000*%
%ADD15C,0.187500*%
G04 APERTURE END LIST*
D10*
G36*
X167834779Y-119273724D02*
G01*
X167797837Y-119309384D01*
X167743127Y-119249605D01*
X167767307Y-118977153D01*
X167869156Y-118880677D01*
X167834779Y-119273724D01*
G37*
G36*
X167781351Y-119413737D02*
G01*
X167441487Y-119725757D01*
X167374015Y-119725757D01*
X167380426Y-119656453D01*
X167718947Y-119344250D01*
X167794051Y-119343761D01*
X167781351Y-119413737D01*
G37*
G36*
X167399477Y-119249605D02*
G01*
X167334569Y-119309384D01*
X167301474Y-119273724D01*
X167335852Y-118880677D01*
X167423657Y-118977397D01*
X167399477Y-119249605D01*
G37*
G36*
X167262029Y-119725574D02*
G01*
X167305321Y-119769721D01*
X167357467Y-119725513D01*
X167385494Y-119404761D01*
X167330723Y-119345043D01*
X167292560Y-119381924D01*
X167262029Y-119725574D01*
G37*
G36*
X168520613Y-119273724D02*
G01*
X168483671Y-119309384D01*
X168428960Y-119249483D01*
X168450576Y-118995104D01*
X168553708Y-118899605D01*
X168520613Y-119273724D01*
G37*
G36*
X168537160Y-118881654D02*
G01*
X168435311Y-118975443D01*
X168126038Y-118975443D01*
X168039515Y-118881654D01*
X168537160Y-118881654D01*
G37*
G36*
X168085311Y-119249483D02*
G01*
X168020403Y-119309384D01*
X167987308Y-119273724D01*
X168020403Y-118899544D01*
X168106987Y-118994982D01*
X168085311Y-119249483D01*
G37*
G36*
X168478603Y-119753112D02*
G01*
X168393301Y-119659262D01*
X168414978Y-119404761D01*
X168479885Y-119345043D01*
X168511698Y-119381863D01*
X168478603Y-119753112D01*
G37*
G36*
X168459491Y-119772652D02*
G01*
X167961846Y-119772652D01*
X168064978Y-119678862D01*
X168374250Y-119678862D01*
X168459491Y-119772652D01*
G37*
G36*
X168049712Y-119659323D02*
G01*
X167945299Y-119754822D01*
X167978393Y-119381863D01*
X168016556Y-119345043D01*
X168071328Y-119404822D01*
X168049712Y-119659323D01*
G37*
G36*
X168629911Y-119772652D02*
G01*
X168638826Y-119678862D01*
X168734264Y-119678862D01*
X168725349Y-119772652D01*
X168629911Y-119772652D01*
G37*
G36*
X168919339Y-119273724D02*
G01*
X168952434Y-118896308D01*
X169039018Y-118994921D01*
X169017341Y-119249483D01*
X168952434Y-119309384D01*
X168919339Y-119273724D01*
G37*
G36*
X169443728Y-119381924D02*
G01*
X169410634Y-119757997D01*
X169325332Y-119659323D01*
X169347008Y-119404822D01*
X169411916Y-119345043D01*
X169443728Y-119381924D01*
G37*
G36*
X169360991Y-119249483D02*
G01*
X169382607Y-118995104D01*
X169485738Y-118896308D01*
X169452643Y-119273724D01*
X169415702Y-119309384D01*
X169360991Y-119249483D01*
G37*
G36*
X169352076Y-119280258D02*
G01*
X169396651Y-119327153D01*
X169343161Y-119374047D01*
X169010991Y-119374047D01*
X168968981Y-119327153D01*
X169019906Y-119280258D01*
X169352076Y-119280258D01*
G37*
D11*
G36*
X156945001Y-118351155D02*
G01*
X156709337Y-118550457D01*
X156343339Y-118550457D01*
X156190566Y-118351155D01*
X156945001Y-118351155D01*
G37*
G36*
X156174446Y-119183076D02*
G01*
X156111339Y-119486975D01*
X155876317Y-119683255D01*
X155990531Y-119134075D01*
X156078641Y-119060436D01*
X156174446Y-119183076D01*
G37*
G36*
X156037609Y-118907479D02*
G01*
X156145686Y-118387608D01*
X156298368Y-118587002D01*
X156242131Y-118857562D01*
X156094487Y-118984232D01*
X156037609Y-118907479D01*
G37*
G36*
X156817690Y-119134533D02*
G01*
X156702651Y-119687652D01*
X156549511Y-119489998D01*
X156613075Y-119183992D01*
X156760170Y-119060436D01*
X156817690Y-119134533D01*
G37*
G36*
X156680853Y-118858203D02*
G01*
X156736815Y-118588833D01*
X156972570Y-118389440D01*
X156864767Y-118907754D01*
X156776016Y-118984232D01*
X156680853Y-118858203D01*
G37*
G36*
X156656856Y-118919752D02*
G01*
X156733243Y-119019403D01*
X156615457Y-119119054D01*
X156200915Y-119119054D01*
X156124528Y-119019403D01*
X156242315Y-118919752D01*
X156656856Y-118919752D01*
G37*
G36*
X157819604Y-119453545D02*
G01*
X157701818Y-119552829D01*
X157625340Y-119453545D01*
X157681302Y-119184450D01*
X157828489Y-119060436D01*
X157885916Y-119134899D01*
X157819604Y-119453545D01*
G37*
G36*
X157175261Y-119687652D02*
G01*
X157098874Y-119588000D01*
X157216660Y-119488349D01*
X157582658Y-119488349D01*
X157659045Y-119588000D01*
X157541259Y-119687652D01*
X157175261Y-119687652D01*
G37*
G36*
X157933177Y-118907570D02*
G01*
X157844334Y-118984232D01*
X157749262Y-118857745D01*
X157813010Y-118551006D01*
X158049132Y-118349689D01*
X157933177Y-118907570D01*
G37*
G36*
X157221515Y-118351246D02*
G01*
X157374014Y-118552014D01*
X157310358Y-118858020D01*
X157162805Y-118984232D01*
X157105835Y-118907754D01*
X157221515Y-118351246D01*
G37*
G36*
X156992903Y-119450889D02*
G01*
X157069382Y-119550173D01*
X157187076Y-119450889D01*
X157243039Y-119181702D01*
X157147509Y-119057688D01*
X157059215Y-119132060D01*
X156992903Y-119450889D01*
G37*
G36*
X158542166Y-119598625D02*
G01*
X158424380Y-119697910D01*
X158347902Y-119598625D01*
X158433997Y-119184450D01*
X158581184Y-119060436D01*
X158638612Y-119134899D01*
X158542166Y-119598625D01*
G37*
G36*
X158685873Y-118907296D02*
G01*
X158597029Y-118984232D01*
X158502049Y-118857195D01*
X158534015Y-118703322D01*
X158651984Y-118603213D01*
X158728279Y-118703322D01*
X158685873Y-118907296D01*
G37*
G36*
X159141447Y-118449890D02*
G01*
X159021462Y-118550457D01*
X158302564Y-118550457D01*
X158226452Y-118449890D01*
X158344055Y-118351155D01*
X159062953Y-118351155D01*
X159141447Y-118449890D01*
G37*
G36*
X160069722Y-118907845D02*
G01*
X159980970Y-118984232D01*
X159885807Y-118858203D01*
X159941769Y-118589017D01*
X160059464Y-118489732D01*
X160136034Y-118589017D01*
X160069722Y-118907845D01*
G37*
G36*
X160032353Y-118449890D02*
G01*
X159914292Y-118550457D01*
X159548294Y-118550457D01*
X159472182Y-118449890D01*
X159589785Y-118351155D01*
X159955783Y-118351155D01*
X160032353Y-118449890D01*
G37*
G36*
X159956241Y-119453545D02*
G01*
X159838455Y-119552829D01*
X159761976Y-119453545D01*
X159817938Y-119184450D01*
X159965125Y-119060436D01*
X160022553Y-119134899D01*
X159956241Y-119453545D01*
G37*
G36*
X159446994Y-118858203D02*
G01*
X159299441Y-118984232D01*
X159242472Y-118907845D01*
X159308783Y-118589017D01*
X159426478Y-118489732D01*
X159502957Y-118589017D01*
X159446994Y-118858203D01*
G37*
G36*
X159311898Y-119687652D02*
G01*
X159235511Y-119588000D01*
X159353297Y-119488349D01*
X159719295Y-119488349D01*
X159795682Y-119588000D01*
X159677895Y-119687652D01*
X159311898Y-119687652D01*
G37*
G36*
X159129540Y-119450889D02*
G01*
X159206018Y-119550173D01*
X159323713Y-119450889D01*
X159379675Y-119181702D01*
X159284145Y-119057688D01*
X159195852Y-119132060D01*
X159129540Y-119450889D01*
G37*
G36*
X160380216Y-119687652D02*
G01*
X160303829Y-119588000D01*
X160421615Y-119488349D01*
X160823059Y-119488349D01*
X160975924Y-119687652D01*
X160380216Y-119687652D01*
G37*
G36*
X161253811Y-118351155D02*
G01*
X161018056Y-118550457D01*
X160616612Y-118550457D01*
X160540500Y-118449890D01*
X160658103Y-118351155D01*
X161253811Y-118351155D01*
G37*
G36*
X160515496Y-118857195D02*
G01*
X160367943Y-118983225D01*
X160310973Y-118906838D01*
X160377285Y-118588009D01*
X160494979Y-118488724D01*
X160571458Y-118588009D01*
X160515496Y-118857195D01*
G37*
G36*
X160197308Y-119453545D02*
G01*
X160273787Y-119552829D01*
X160391482Y-119453545D01*
X160447444Y-119184359D01*
X160351914Y-119060344D01*
X160263620Y-119134716D01*
X160197308Y-119453545D01*
G37*
G36*
X162286592Y-118351155D02*
G01*
X162050928Y-118550457D01*
X161684931Y-118550457D01*
X161532157Y-118351155D01*
X162286592Y-118351155D01*
G37*
G36*
X161516037Y-119183076D02*
G01*
X161452930Y-119486975D01*
X161217908Y-119683255D01*
X161332122Y-119134075D01*
X161420232Y-119060436D01*
X161516037Y-119183076D01*
G37*
G36*
X161379200Y-118907479D02*
G01*
X161487277Y-118387608D01*
X161639959Y-118587002D01*
X161583722Y-118857562D01*
X161436078Y-118984232D01*
X161379200Y-118907479D01*
G37*
G36*
X162159281Y-119134533D02*
G01*
X162044242Y-119687652D01*
X161891102Y-119489998D01*
X161954666Y-119183992D01*
X162101762Y-119060436D01*
X162159281Y-119134533D01*
G37*
G36*
X162022444Y-118858203D02*
G01*
X162078406Y-118588833D01*
X162314161Y-118389440D01*
X162206359Y-118907754D01*
X162117607Y-118984232D01*
X162022444Y-118858203D01*
G37*
G36*
X161998447Y-118919752D02*
G01*
X162074834Y-119019403D01*
X161957048Y-119119054D01*
X161542506Y-119119054D01*
X161466120Y-119019403D01*
X161583906Y-118919752D01*
X161998447Y-118919752D01*
G37*
G36*
X163354911Y-118351155D02*
G01*
X163119247Y-118550457D01*
X162753249Y-118550457D01*
X162600475Y-118351155D01*
X163354911Y-118351155D01*
G37*
G36*
X162584355Y-119183076D02*
G01*
X162521249Y-119486975D01*
X162286226Y-119683255D01*
X162400440Y-119134075D01*
X162488551Y-119060436D01*
X162584355Y-119183076D01*
G37*
G36*
X162447518Y-118907479D02*
G01*
X162555595Y-118387608D01*
X162708278Y-118587002D01*
X162652041Y-118857562D01*
X162504396Y-118984232D01*
X162447518Y-118907479D01*
G37*
G36*
X163227599Y-119134533D02*
G01*
X163112561Y-119687652D01*
X162959420Y-119489998D01*
X163022984Y-119183992D01*
X163170080Y-119060436D01*
X163227599Y-119134533D01*
G37*
G36*
X163090762Y-118858203D02*
G01*
X163146724Y-118588833D01*
X163382479Y-118389440D01*
X163274677Y-118907754D01*
X163185925Y-118984232D01*
X163090762Y-118858203D01*
G37*
G36*
X162814340Y-118696636D02*
G01*
X162933958Y-118597351D01*
X163010345Y-118696636D01*
X162929012Y-119088188D01*
X162810860Y-119189396D01*
X162733007Y-119088188D01*
X162814340Y-118696636D01*
G37*
G36*
X164379082Y-119598625D02*
G01*
X164261296Y-119697910D01*
X164184817Y-119598625D01*
X164270913Y-119184450D01*
X164418100Y-119060436D01*
X164475527Y-119134899D01*
X164379082Y-119598625D01*
G37*
G36*
X164522788Y-118907296D02*
G01*
X164433945Y-118984232D01*
X164338965Y-118857195D01*
X164370930Y-118703322D01*
X164488900Y-118603213D01*
X164565195Y-118703322D01*
X164522788Y-118907296D01*
G37*
G36*
X164978362Y-118449890D02*
G01*
X164858378Y-118550457D01*
X164139480Y-118550457D01*
X164063367Y-118449890D01*
X164180970Y-118351155D01*
X164899869Y-118351155D01*
X164978362Y-118449890D01*
G37*
G36*
X165986871Y-118351155D02*
G01*
X165751208Y-118550457D01*
X165385210Y-118550457D01*
X165232436Y-118351155D01*
X165986871Y-118351155D01*
G37*
G36*
X165216316Y-119183076D02*
G01*
X165153210Y-119486975D01*
X164918187Y-119683255D01*
X165032401Y-119134075D01*
X165120512Y-119060436D01*
X165216316Y-119183076D01*
G37*
G36*
X165079479Y-118907479D02*
G01*
X165187556Y-118387608D01*
X165340238Y-118587002D01*
X165284002Y-118857562D01*
X165136357Y-118984232D01*
X165079479Y-118907479D01*
G37*
G36*
X165859560Y-119134533D02*
G01*
X165744521Y-119687652D01*
X165591381Y-119489998D01*
X165654945Y-119183992D01*
X165802041Y-119060436D01*
X165859560Y-119134533D01*
G37*
G36*
X165722723Y-118858203D02*
G01*
X165778685Y-118588833D01*
X166014440Y-118389440D01*
X165906638Y-118907754D01*
X165817886Y-118984232D01*
X165722723Y-118858203D01*
G37*
G36*
X165698726Y-118919752D02*
G01*
X165775113Y-119019403D01*
X165657327Y-119119054D01*
X165242786Y-119119054D01*
X165166399Y-119019403D01*
X165284185Y-118919752D01*
X165698726Y-118919752D01*
G37*
G36*
X167090727Y-118351155D02*
G01*
X166854972Y-118550457D01*
X166453528Y-118550457D01*
X166377416Y-118449890D01*
X166495019Y-118351155D01*
X167090727Y-118351155D01*
G37*
G36*
X166849293Y-118991010D02*
G01*
X166731690Y-119089745D01*
X166511322Y-119089745D01*
X166434660Y-118991010D01*
X166552813Y-118890443D01*
X166773181Y-118890443D01*
X166849293Y-118991010D01*
G37*
G36*
X166357907Y-118830817D02*
G01*
X166210720Y-118954923D01*
X166153384Y-118880459D01*
X166214109Y-118588376D01*
X166331895Y-118489091D01*
X166408282Y-118588376D01*
X166357907Y-118830817D01*
G37*
G36*
X166228489Y-119453453D02*
G01*
X166110703Y-119552829D01*
X166034316Y-119453453D01*
X166106581Y-119105682D01*
X166194875Y-119031127D01*
X166290404Y-119155324D01*
X166228489Y-119453453D01*
G37*
G36*
X166861932Y-119451347D02*
G01*
X166744238Y-119550173D01*
X166667668Y-119451347D01*
X166729400Y-119154683D01*
X166876404Y-119031127D01*
X166933923Y-119105315D01*
X166861932Y-119451347D01*
G37*
G36*
X166583129Y-119687652D02*
G01*
X166700915Y-119588000D01*
X166624528Y-119488349D01*
X166258531Y-119488349D01*
X166140744Y-119588000D01*
X166217131Y-119687652D01*
X166583129Y-119687652D01*
G37*
D10*
G36*
X157630435Y-120827552D02*
G01*
X157778080Y-120824927D01*
X157885564Y-120826814D01*
X157925114Y-120830483D01*
X157957293Y-120838177D01*
X157973413Y-120845138D01*
X157991609Y-120856923D01*
X157997225Y-120874529D01*
X157991609Y-120890262D01*
X157987396Y-120901436D01*
X157981778Y-120916701D01*
X157976222Y-120932027D01*
X157967124Y-120945277D01*
X157955778Y-120951978D01*
X157934884Y-120955719D01*
X157816609Y-120957123D01*
X157616391Y-120959932D01*
X157533216Y-120963078D01*
X157515641Y-120961336D01*
X157498055Y-120947043D01*
X157493232Y-120933371D01*
X157488042Y-120919388D01*
X157482673Y-120910876D01*
X157485416Y-120897040D01*
X157485416Y-120866265D01*
X157484622Y-120839765D01*
X157488311Y-120834627D01*
X157496040Y-120832743D01*
X157506482Y-120829506D01*
X157514237Y-120830117D01*
X157532086Y-120832255D01*
X157630435Y-120827552D01*
G37*
G36*
X158257651Y-120827552D02*
G01*
X158405296Y-120824927D01*
X158512780Y-120826814D01*
X158552330Y-120830483D01*
X158584509Y-120838177D01*
X158600629Y-120845138D01*
X158618825Y-120856923D01*
X158624441Y-120874529D01*
X158618825Y-120890262D01*
X158614612Y-120901436D01*
X158608994Y-120916701D01*
X158603438Y-120932027D01*
X158594339Y-120945277D01*
X158582994Y-120951978D01*
X158562099Y-120955719D01*
X158443825Y-120957123D01*
X158243607Y-120959932D01*
X158160432Y-120963078D01*
X158142857Y-120961336D01*
X158125270Y-120947043D01*
X158120447Y-120933371D01*
X158115257Y-120919388D01*
X158109889Y-120910876D01*
X158112632Y-120897040D01*
X158112632Y-120866265D01*
X158111838Y-120839765D01*
X158115527Y-120834627D01*
X158123256Y-120832743D01*
X158133697Y-120829506D01*
X158141452Y-120830117D01*
X158159302Y-120832255D01*
X158257651Y-120827552D01*
G37*
G36*
X159918563Y-120355675D02*
G01*
X159930032Y-120363991D01*
X159943842Y-120384313D01*
X159962099Y-120417163D01*
X159974800Y-120436031D01*
X159997209Y-120473095D01*
X160009910Y-120507289D01*
X160002877Y-120528099D01*
X159976388Y-120553451D01*
X159946729Y-120577127D01*
X159921860Y-120606513D01*
X159906473Y-120621228D01*
X159898108Y-120630326D01*
X159894566Y-120640096D01*
X159888277Y-120645653D01*
X159882049Y-120652675D01*
X159881316Y-120659635D01*
X159884125Y-120663177D01*
X159879973Y-120662444D01*
X159872891Y-120660133D01*
X159870142Y-120670810D01*
X159867333Y-120679236D01*
X159865929Y-120683388D01*
X159866600Y-120684792D01*
X159864524Y-120684792D01*
X159856098Y-120691082D01*
X159850542Y-120701584D01*
X159846389Y-120710011D01*
X159831674Y-120723993D01*
X159821232Y-120730954D01*
X159814210Y-120735168D01*
X159809997Y-120743533D01*
X159812083Y-120746196D01*
X159822637Y-120739320D01*
X159825384Y-120736511D01*
X159832426Y-120730333D01*
X159833811Y-120732359D01*
X159828193Y-120742128D01*
X159817752Y-120747685D01*
X159806578Y-120757516D01*
X159797541Y-120778460D01*
X159791923Y-120790366D01*
X159789114Y-120799403D01*
X159789114Y-120803617D01*
X159786306Y-120805021D01*
X159789114Y-120821813D01*
X159792669Y-120828092D01*
X159796136Y-120828774D01*
X159798945Y-120828774D01*
X159794732Y-120839948D01*
X159792595Y-120853931D01*
X159791923Y-120860953D01*
X159787038Y-120873531D01*
X159784962Y-120884705D01*
X159782215Y-120891666D01*
X159768903Y-120928058D01*
X159761271Y-120962252D01*
X159759134Y-120967870D01*
X159752173Y-120992355D01*
X159745883Y-121022397D01*
X159745883Y-121031434D01*
X159746555Y-121046821D01*
X159745883Y-121065018D01*
X159743807Y-121085290D01*
X159741731Y-121108310D01*
X159737579Y-121115332D01*
X159733366Y-121108310D01*
X159731962Y-121099944D01*
X159729153Y-121108310D01*
X159728481Y-121122354D01*
X159731962Y-121123697D01*
X159738190Y-121119484D01*
X159739594Y-121123697D01*
X159739594Y-121129986D01*
X159739594Y-121139756D01*
X159738698Y-121146990D01*
X159743075Y-121153739D01*
X159744479Y-121157219D01*
X159740938Y-121159356D01*
X159740266Y-121171202D01*
X159738357Y-121183219D01*
X159733977Y-121187994D01*
X159730735Y-121192550D01*
X159729214Y-121204785D01*
X159731962Y-121225729D01*
X159734709Y-121222921D01*
X159737457Y-121215960D01*
X159738861Y-121222249D01*
X159737457Y-121235560D01*
X159733244Y-121243925D01*
X159731107Y-121256504D01*
X159734648Y-121269082D01*
X159736053Y-121259313D01*
X159736612Y-121251475D01*
X159740205Y-121249482D01*
X159744418Y-121255100D01*
X159740266Y-121281661D01*
X159741670Y-121298392D01*
X159744479Y-121308894D01*
X159743075Y-121317992D01*
X159738129Y-121327029D01*
X159740266Y-121336127D01*
X159744479Y-121344553D01*
X159745822Y-121350110D01*
X159748570Y-121354323D01*
X159754188Y-121365497D01*
X159756996Y-121370321D01*
X159752783Y-121373802D01*
X159747227Y-121381434D01*
X159743075Y-121390471D01*
X159739655Y-121397371D01*
X159735503Y-121403599D01*
X159725123Y-121416788D01*
X159716321Y-121424444D01*
X159707171Y-121419597D01*
X159700210Y-121415384D01*
X159687021Y-121416788D01*
X159676848Y-121418444D01*
X159672488Y-121422345D01*
X159670891Y-121428975D01*
X159673893Y-121430649D01*
X159678075Y-121431779D01*
X159676641Y-121434862D01*
X159669680Y-121437610D01*
X159661375Y-121432786D01*
X159654476Y-121428023D01*
X159650323Y-121425398D01*
X159644828Y-121422833D01*
X159636706Y-121419596D01*
X159633715Y-121408850D01*
X159633609Y-121408484D01*
X159643668Y-121408484D01*
X159649224Y-121405675D01*
X159652631Y-121400363D01*
X159651300Y-121397249D01*
X159645072Y-121401462D01*
X159643668Y-121408484D01*
X159633609Y-121408484D01*
X159631997Y-121402934D01*
X159626693Y-121399020D01*
X159615856Y-121383327D01*
X159624067Y-121383327D01*
X159625411Y-121388151D01*
X159629624Y-121388151D01*
X159628219Y-121383266D01*
X159624067Y-121383327D01*
X159615856Y-121383327D01*
X159613199Y-121379480D01*
X159603978Y-121354323D01*
X159600437Y-121345225D01*
X159599089Y-121340865D01*
X159602513Y-121331242D01*
X159608543Y-121323127D01*
X159612344Y-121322144D01*
X159614420Y-121320068D01*
X159617961Y-121311703D01*
X159621441Y-121305207D01*
X159621442Y-121298392D01*
X159645072Y-121298392D01*
X159645744Y-121306818D01*
X159647881Y-121308222D01*
X159650629Y-121299796D01*
X159646477Y-121290026D01*
X159645072Y-121298392D01*
X159621442Y-121298392D01*
X159621442Y-121292469D01*
X159629624Y-121292469D01*
X159632433Y-121298025D01*
X159633837Y-121292469D01*
X159631028Y-121286851D01*
X159629624Y-121292469D01*
X159621442Y-121292469D01*
X159621442Y-121291431D01*
X159619885Y-121268925D01*
X159625482Y-121268925D01*
X159628219Y-121275677D01*
X159631028Y-121274273D01*
X159628219Y-121267312D01*
X159625482Y-121268925D01*
X159619885Y-121268925D01*
X159617961Y-121241117D01*
X159617946Y-121240750D01*
X159625472Y-121240750D01*
X159628219Y-121253329D01*
X159631028Y-121249116D01*
X159628219Y-121237941D01*
X159625472Y-121240750D01*
X159617946Y-121240750D01*
X159617533Y-121230981D01*
X159625472Y-121230981D01*
X159628219Y-121233728D01*
X159631028Y-121232324D01*
X159628219Y-121229576D01*
X159625472Y-121230981D01*
X159617533Y-121230981D01*
X159616205Y-121199534D01*
X159622663Y-121199534D01*
X159625411Y-121203015D01*
X159628219Y-121201610D01*
X159625411Y-121198130D01*
X159622663Y-121199534D01*
X159616205Y-121199534D01*
X159615227Y-121176375D01*
X159624970Y-121176375D01*
X159628158Y-121179628D01*
X159632311Y-121181033D01*
X159635791Y-121184513D01*
X159636524Y-121222921D01*
X159638172Y-121260717D01*
X159643179Y-121276043D01*
X159646477Y-121285813D01*
X159646477Y-121277081D01*
X159664673Y-121277081D01*
X159667420Y-121295216D01*
X159669496Y-121277081D01*
X159666749Y-121258885D01*
X159664673Y-121277081D01*
X159646477Y-121277081D01*
X159646477Y-121273967D01*
X159645255Y-121255100D01*
X159646477Y-121249482D01*
X159649224Y-121245269D01*
X159645988Y-121238308D01*
X159645255Y-121232690D01*
X159645255Y-121207533D01*
X159642752Y-121182376D01*
X159640248Y-121169798D01*
X159636110Y-121168034D01*
X159629563Y-121171202D01*
X159624970Y-121176375D01*
X159615227Y-121176375D01*
X159610939Y-121074787D01*
X159610813Y-121071612D01*
X159619854Y-121071612D01*
X159619854Y-121074421D01*
X159622663Y-121082786D01*
X159625472Y-121075825D01*
X159623599Y-121070208D01*
X159727626Y-121070208D01*
X159730435Y-121073016D01*
X159733244Y-121071612D01*
X159730435Y-121068803D01*
X159727626Y-121070208D01*
X159623599Y-121070208D01*
X159622663Y-121067399D01*
X159619854Y-121071612D01*
X159610813Y-121071612D01*
X159608863Y-121022397D01*
X159603001Y-121021664D01*
X159601597Y-121017512D01*
X159601109Y-120998645D01*
X159601109Y-120960909D01*
X159601109Y-120897284D01*
X159599643Y-120883301D01*
X159598239Y-120877683D01*
X159601769Y-120857876D01*
X159598239Y-120844161D01*
X159567159Y-120803617D01*
X159531744Y-120741457D01*
X159489306Y-120652675D01*
X159474408Y-120609382D01*
X159467399Y-120591518D01*
X159463783Y-120588378D01*
X159453158Y-120572990D01*
X159445404Y-120552046D01*
X159440397Y-120538064D01*
X159435451Y-120512235D01*
X159437516Y-120497906D01*
X159442534Y-120490558D01*
X159455296Y-120484269D01*
X159465187Y-120486345D01*
X159476484Y-120489154D01*
X159499137Y-120496848D01*
X159514708Y-120507289D01*
X159524660Y-120512907D01*
X159540123Y-120523142D01*
X159562152Y-120545757D01*
X159579999Y-120570762D01*
X159584134Y-120584164D01*
X159593842Y-120612130D01*
X159602208Y-120622633D01*
X159606421Y-120630326D01*
X159607154Y-120634478D01*
X159614114Y-120648461D01*
X159621747Y-120662444D01*
X159624556Y-120668062D01*
X159627304Y-120675023D01*
X159630112Y-120673618D01*
X159630112Y-120671542D01*
X159631517Y-120672214D01*
X159629441Y-120679236D01*
X159629441Y-120684792D01*
X159632921Y-120682045D01*
X159634208Y-120678682D01*
X159639882Y-120686197D01*
X159644095Y-120697371D01*
X159648919Y-120706469D01*
X159655208Y-120711354D01*
X159674015Y-120696028D01*
X159683669Y-120683083D01*
X159845229Y-120683083D01*
X159848038Y-120685831D01*
X159852251Y-120683083D01*
X159849442Y-120680274D01*
X159845229Y-120683083D01*
X159683669Y-120683083D01*
X159686811Y-120678870D01*
X159733244Y-120678870D01*
X159734648Y-120680274D01*
X159743075Y-120663482D01*
X159747227Y-120649499D01*
X159733244Y-120678870D01*
X159686811Y-120678870D01*
X159692822Y-120670810D01*
X159710285Y-120647057D01*
X159717382Y-120636921D01*
X159750036Y-120636921D01*
X159751440Y-120639730D01*
X159751440Y-120634112D01*
X159750036Y-120636921D01*
X159717382Y-120636921D01*
X159729824Y-120619152D01*
X159747898Y-120587706D01*
X159754906Y-120572962D01*
X159756996Y-120560412D01*
X159759805Y-120543681D01*
X159772445Y-120521333D01*
X159796991Y-120481460D01*
X159824408Y-120437436D01*
X159859286Y-120383644D01*
X159887666Y-120359156D01*
X159905326Y-120354021D01*
X159918563Y-120355675D01*
G37*
G36*
X159606787Y-121271830D02*
G01*
X159605383Y-121273235D01*
X159603978Y-121266274D01*
X159606787Y-121266274D01*
X159606787Y-121271830D01*
G37*
G36*
X159603917Y-121220112D02*
G01*
X159605417Y-121253232D01*
X159601109Y-121257847D01*
X159599704Y-121229943D01*
X159601109Y-121206190D01*
X159603917Y-121220112D01*
G37*
G36*
X159599704Y-121116309D02*
G01*
X159601109Y-121157586D01*
X159601109Y-121190436D01*
X159596895Y-121123331D01*
X159598300Y-121103730D01*
X159599704Y-121116309D01*
G37*
G36*
X159752844Y-121038090D02*
G01*
X159750036Y-121040837D01*
X159747227Y-121038090D01*
X159750036Y-121035281D01*
X159752844Y-121038090D01*
G37*
G36*
X159801815Y-120882934D02*
G01*
X159799067Y-120887087D01*
X159797663Y-120882934D01*
X159800411Y-120878721D01*
X159801815Y-120882934D01*
G37*
G36*
X159804624Y-120859854D02*
G01*
X159799067Y-120861930D01*
X159799067Y-120856373D01*
X159808837Y-120853564D01*
X159804624Y-120859854D01*
G37*
G36*
X159803219Y-120812348D02*
G01*
X159800472Y-120818638D01*
X159797687Y-120821239D01*
X159793450Y-120814424D01*
X159792717Y-120808868D01*
X159796259Y-120811616D01*
X159800472Y-120811616D01*
X159800472Y-120808868D01*
X159803219Y-120812348D01*
G37*
G36*
X159820744Y-120815829D02*
G01*
X159815859Y-120818638D01*
X159817935Y-120813081D01*
X159822820Y-120810272D01*
X159820744Y-120815829D01*
G37*
G36*
X159815676Y-120784077D02*
G01*
X159807249Y-120794519D01*
X159796747Y-120803617D01*
X159800227Y-120800136D01*
X159803724Y-120795876D01*
X159803097Y-120789634D01*
X159804441Y-120786825D01*
X159808654Y-120786825D01*
X159812837Y-120782555D01*
X159815676Y-120784077D01*
G37*
G36*
X160343301Y-120649499D02*
G01*
X160362599Y-120646026D01*
X160388120Y-120649499D01*
X160413399Y-120656460D01*
X160451318Y-120666963D01*
X160487893Y-120683022D01*
X160498879Y-120699674D01*
X160499964Y-120725590D01*
X160486489Y-120766919D01*
X160473125Y-120799002D01*
X160456203Y-120853564D01*
X160437274Y-120937401D01*
X160433732Y-120956329D01*
X160427504Y-120983624D01*
X160419434Y-121064620D01*
X160423491Y-121120609D01*
X160435869Y-121158318D01*
X160444293Y-121167208D01*
X160461881Y-121173706D01*
X160481947Y-121175453D01*
X160500533Y-121172301D01*
X160515329Y-121162117D01*
X160537047Y-121134566D01*
X160556325Y-121101442D01*
X160572157Y-121066056D01*
X160579240Y-121045112D01*
X160590024Y-121013547D01*
X160597497Y-120979410D01*
X160601710Y-120968236D01*
X160603456Y-120970946D01*
X160600306Y-120987837D01*
X160596093Y-121009635D01*
X160592551Y-121023679D01*
X160589681Y-121034243D01*
X160583392Y-121057446D01*
X160574966Y-121086267D01*
X160563648Y-121120104D01*
X160534055Y-121171996D01*
X160524163Y-121188910D01*
X160518546Y-121204358D01*
X160518546Y-121211380D01*
X160514271Y-121218402D01*
X160511463Y-121224020D01*
X160511463Y-121226889D01*
X160504753Y-121235003D01*
X160498823Y-121253573D01*
X160491007Y-121264869D01*
X160486382Y-121268923D01*
X160484718Y-121276104D01*
X160482141Y-121284269D01*
X160472078Y-121295827D01*
X160451074Y-121312619D01*
X160437762Y-121322449D01*
X160421703Y-121332341D01*
X160411873Y-121336555D01*
X160383907Y-121340768D01*
X160355711Y-121339069D01*
X160337684Y-121329594D01*
X160330723Y-121325380D01*
X160320892Y-121319030D01*
X160315275Y-121309932D01*
X160309718Y-121302971D01*
X160297548Y-121295774D01*
X160299887Y-121291736D01*
X160297078Y-121283371D01*
X160291522Y-121274944D01*
X160287309Y-121269388D01*
X160276074Y-121252596D01*
X160270517Y-121235072D01*
X160264167Y-121219623D01*
X160255740Y-121197214D01*
X160250917Y-121154471D01*
X160247807Y-121096809D01*
X160252321Y-121055065D01*
X160257878Y-121024290D01*
X160264899Y-120987837D01*
X160263495Y-120965428D01*
X160250673Y-120945409D01*
X160234690Y-120934242D01*
X160214524Y-120930440D01*
X160181291Y-120923527D01*
X160153291Y-120902494D01*
X160129100Y-120863334D01*
X160120989Y-120839835D01*
X160121382Y-120824622D01*
X160127696Y-120814424D01*
X160145273Y-120807068D01*
X160166897Y-120815829D01*
X160185305Y-120822118D01*
X160204694Y-120815829D01*
X160233952Y-120788028D01*
X160271921Y-120731992D01*
X160308985Y-120673252D01*
X160323997Y-120659775D01*
X160343301Y-120649499D01*
G37*
G36*
X160330906Y-120451174D02*
G01*
X160347698Y-120449770D01*
X160375664Y-120451174D01*
X160445980Y-120459340D01*
X160466705Y-120466500D01*
X160473666Y-120477736D01*
X160483436Y-120495871D01*
X160493938Y-120512662D01*
X160500289Y-120529454D01*
X160503276Y-120540067D01*
X160500960Y-120547650D01*
X160494057Y-120553746D01*
X160478551Y-120560900D01*
X160462220Y-120568808D01*
X160448448Y-120579768D01*
X160434465Y-120592347D01*
X160426316Y-120589776D01*
X160414865Y-120579768D01*
X160367298Y-120542033D01*
X160339640Y-120521438D01*
X160336463Y-120514067D01*
X160335058Y-120509854D01*
X160328097Y-120500755D01*
X160326693Y-120484697D01*
X160325289Y-120474927D01*
X160323151Y-120463020D01*
X160330906Y-120451174D01*
G37*
G36*
X160840458Y-121469239D02*
G01*
X160835573Y-121471377D01*
X160830688Y-121469239D01*
X160835573Y-121467163D01*
X160840458Y-121469239D01*
G37*
G36*
X160822933Y-121464355D02*
G01*
X160825070Y-121469972D01*
X160818720Y-121464355D01*
X160816644Y-121458798D01*
X160822933Y-121464355D01*
G37*
G36*
X160809683Y-121454585D02*
G01*
X160810355Y-121458798D01*
X160806142Y-121454585D01*
X160805470Y-121450372D01*
X160809683Y-121454585D01*
G37*
G36*
X160837649Y-121447563D02*
G01*
X160843267Y-121453180D01*
X160839053Y-121455989D01*
X160831360Y-121451776D01*
X160829955Y-121446158D01*
X160837649Y-121447563D01*
G37*
G36*
X161147101Y-120320642D02*
G01*
X161167926Y-120334976D01*
X161183253Y-120347554D01*
X161183253Y-120386633D01*
X161181469Y-120422458D01*
X161177696Y-120438351D01*
X161163865Y-120458064D01*
X161145395Y-120471935D01*
X161135625Y-120475415D01*
X161138434Y-120463508D01*
X161143991Y-120429986D01*
X161142586Y-120395059D01*
X161131412Y-120385961D01*
X161122858Y-120384556D01*
X161113155Y-120387366D01*
X161093615Y-120403425D01*
X161076516Y-120428964D01*
X161054415Y-120476820D01*
X161035843Y-120528808D01*
X161023579Y-120575372D01*
X161015214Y-120612374D01*
X161009596Y-120641073D01*
X161009104Y-120660007D01*
X161012405Y-120668306D01*
X161022575Y-120672306D01*
X161059971Y-120674595D01*
X161098905Y-120677133D01*
X161120177Y-120683022D01*
X161137365Y-120693539D01*
X161153821Y-120709461D01*
X161167795Y-120731357D01*
X161160782Y-120736022D01*
X161153638Y-120729733D01*
X161151377Y-120726251D01*
X161147166Y-120728329D01*
X161145029Y-120738221D01*
X161145568Y-120743369D01*
X161140754Y-120751104D01*
X161136130Y-120758641D01*
X161137152Y-120763255D01*
X161136480Y-120773269D01*
X161132878Y-120782612D01*
X161139350Y-120791893D01*
X161142660Y-120795985D01*
X161135076Y-120797572D01*
X161112117Y-120797572D01*
X161055575Y-120801113D01*
X161010512Y-120808807D01*
X161000437Y-120818515D01*
X160997628Y-120924517D01*
X160992010Y-121157463D01*
X160975927Y-121277311D01*
X160961175Y-121330509D01*
X160955496Y-121350721D01*
X160947802Y-121371603D01*
X160945665Y-121380640D01*
X160944261Y-121383449D01*
X160941513Y-121387662D01*
X160937008Y-121395750D01*
X160935651Y-121393097D01*
X160932843Y-121395844D01*
X160934247Y-121398653D01*
X160936830Y-121396069D01*
X160933759Y-121401584D01*
X160916234Y-121423932D01*
X160898649Y-121437854D01*
X160890524Y-121439937D01*
X160886803Y-121437854D01*
X160884125Y-121435496D01*
X160876911Y-121436450D01*
X160864333Y-121437854D01*
X160864333Y-121440663D01*
X160867141Y-121443472D01*
X160874102Y-121449028D01*
X160861585Y-121447624D01*
X160834676Y-121440791D01*
X160831727Y-121438465D01*
X160846075Y-121438465D01*
X160851632Y-121442006D01*
X160855112Y-121440602D01*
X160855845Y-121439198D01*
X160850227Y-121434984D01*
X160846075Y-121438465D01*
X160831727Y-121438465D01*
X160823910Y-121432298D01*
X160821102Y-121437854D01*
X160821102Y-121444876D01*
X160811332Y-121435045D01*
X160787701Y-121407141D01*
X160779336Y-121394501D01*
X160770971Y-121377770D01*
X160768162Y-121373557D01*
X160762605Y-121370749D01*
X160756988Y-121359574D01*
X160755583Y-121354018D01*
X160752775Y-121354018D01*
X160752775Y-121351209D01*
X160757028Y-121349521D01*
X160763949Y-121356766D01*
X160773047Y-121369344D01*
X160780679Y-121380518D01*
X160791121Y-121395906D01*
X160796006Y-121405675D01*
X160806447Y-121421063D01*
X160818293Y-121429489D01*
X160819666Y-121423906D01*
X160816197Y-121419719D01*
X160847480Y-121419719D01*
X160850654Y-121423291D01*
X160867080Y-121425276D01*
X160874041Y-121422467D01*
X160906159Y-121422467D01*
X160908907Y-121423871D01*
X160915929Y-121418315D01*
X160906159Y-121422467D01*
X160874041Y-121422467D01*
X160865798Y-121419719D01*
X160878254Y-121419719D01*
X160883872Y-121416910D01*
X160888757Y-121415506D01*
X160895718Y-121418986D01*
X160902068Y-121416910D01*
X160902068Y-121414773D01*
X160896450Y-121414102D01*
X160889428Y-121414102D01*
X160899259Y-121402928D01*
X160918513Y-121372049D01*
X160934247Y-121316282D01*
X160944749Y-121265236D01*
X160945421Y-121251985D01*
X160942673Y-121251985D01*
X160930767Y-121296682D01*
X160914647Y-121346996D01*
X160910433Y-121365864D01*
X160901335Y-121381984D01*
X160892237Y-121396638D01*
X160883872Y-121409888D01*
X160878254Y-121419719D01*
X160865798Y-121419719D01*
X160865615Y-121419658D01*
X160853036Y-121418986D01*
X160847480Y-121419719D01*
X160816197Y-121419719D01*
X160805775Y-121407141D01*
X160796006Y-121395234D01*
X160795600Y-121394562D01*
X160807180Y-121394562D01*
X160809988Y-121398714D01*
X160811332Y-121395906D01*
X160808085Y-121390660D01*
X160807180Y-121394562D01*
X160795600Y-121394562D01*
X160790510Y-121386136D01*
X160789423Y-121384670D01*
X160797044Y-121384670D01*
X160799852Y-121387479D01*
X160802661Y-121386075D01*
X160799852Y-121383266D01*
X160797044Y-121384670D01*
X160789423Y-121384670D01*
X160774931Y-121365131D01*
X160784465Y-121365131D01*
X160785869Y-121370687D01*
X160790083Y-121376305D01*
X160788678Y-121370687D01*
X160784465Y-121365131D01*
X160774931Y-121365131D01*
X160769042Y-121357190D01*
X160765736Y-121351148D01*
X160780252Y-121351148D01*
X160783061Y-121354628D01*
X160785869Y-121353224D01*
X160783061Y-121349744D01*
X160780252Y-121351148D01*
X160765736Y-121351148D01*
X160760391Y-121341378D01*
X160770482Y-121341378D01*
X160771887Y-121346935D01*
X160775306Y-121347668D01*
X160774634Y-121341378D01*
X160770482Y-121341378D01*
X160760391Y-121341378D01*
X160754245Y-121330143D01*
X160759247Y-121330143D01*
X160762727Y-121332952D01*
X160766269Y-121331548D01*
X160762727Y-121328800D01*
X160759247Y-121330143D01*
X160754245Y-121330143D01*
X160752775Y-121327456D01*
X160747890Y-121316954D01*
X160744409Y-121314145D01*
X160742272Y-121314145D01*
X160743005Y-121310665D01*
X160738792Y-121292530D01*
X160734578Y-121272929D01*
X160737387Y-121275738D01*
X160744409Y-121279219D01*
X160747218Y-121279951D01*
X160744409Y-121282699D01*
X160743005Y-121286912D01*
X160747218Y-121289721D01*
X160749294Y-121290454D01*
X160750027Y-121293873D01*
X160750027Y-121296682D01*
X160753507Y-121297415D01*
X160756988Y-121303704D01*
X160761201Y-121310665D01*
X160760696Y-121309260D01*
X160779275Y-121309260D01*
X160779947Y-121312069D01*
X160783488Y-121316221D01*
X160784893Y-121321839D01*
X160787701Y-121319030D01*
X160787701Y-121316282D01*
X160785395Y-121308085D01*
X160779275Y-121309260D01*
X160760696Y-121309260D01*
X160754179Y-121291125D01*
X160750027Y-121268716D01*
X160754179Y-121275738D01*
X160759736Y-121281295D01*
X160761812Y-121282027D01*
X160761140Y-121284103D01*
X160762497Y-121292046D01*
X160765353Y-121293873D01*
X160767429Y-121294606D01*
X160770971Y-121299491D01*
X160775832Y-121306679D01*
X160780679Y-121305108D01*
X160782084Y-121300895D01*
X160779275Y-121295277D01*
X160776466Y-121291797D01*
X160780679Y-121291797D01*
X160784893Y-121299491D01*
X160790449Y-121309260D01*
X160800889Y-121323639D01*
X160798814Y-121326052D01*
X160797410Y-121328861D01*
X160804371Y-121328861D01*
X160805775Y-121324648D01*
X160811332Y-121328861D01*
X160817621Y-121334417D01*
X160828734Y-121340707D01*
X160845465Y-121348400D01*
X160854655Y-121347304D01*
X160860852Y-121341378D01*
X160869156Y-121329533D01*
X160874041Y-121315550D01*
X160880330Y-121293201D01*
X160883811Y-121275005D01*
X160885215Y-121268716D01*
X160886620Y-121260351D01*
X160886620Y-121253390D01*
X160892176Y-121249177D01*
X160894985Y-121251985D01*
X160894985Y-121260351D01*
X160892176Y-121277875D01*
X160887963Y-121292530D01*
X160882406Y-121307856D01*
X160874652Y-121327395D01*
X160873980Y-121345591D01*
X160876463Y-121348332D01*
X160876056Y-121356094D01*
X160869767Y-121372153D01*
X160867019Y-121380579D01*
X160873244Y-121376141D01*
X160879722Y-121363410D01*
X160886143Y-121363410D01*
X160886620Y-121373557D01*
X160895728Y-121354851D01*
X160911777Y-121300895D01*
X160924742Y-121242261D01*
X160925735Y-121235133D01*
X160948230Y-121235133D01*
X160951039Y-121237941D01*
X160953848Y-121236537D01*
X160951039Y-121233728D01*
X160948230Y-121235133D01*
X160925735Y-121235133D01*
X160926705Y-121228172D01*
X160974852Y-121228172D01*
X160976257Y-121232324D01*
X160976257Y-121226767D01*
X160974852Y-121228172D01*
X160926705Y-121228172D01*
X160927782Y-121220442D01*
X160971658Y-121220442D01*
X160973448Y-121222554D01*
X160977661Y-121211380D01*
X160978306Y-121200867D01*
X160974852Y-121208571D01*
X160971658Y-121220442D01*
X160927782Y-121220442D01*
X160931377Y-121194649D01*
X160932049Y-121182804D01*
X160932049Y-121175110D01*
X160931377Y-121172301D01*
X160928946Y-121179652D01*
X160918799Y-121247772D01*
X160910372Y-121285508D01*
X160899870Y-121323243D01*
X160890772Y-121349805D01*
X160886143Y-121363410D01*
X160879722Y-121363410D01*
X160885215Y-121352613D01*
X160895788Y-121323211D01*
X160905365Y-121278547D01*
X160913120Y-121201610D01*
X160915379Y-121194588D01*
X160917639Y-121186895D01*
X160921424Y-121178529D01*
X160921424Y-121170897D01*
X160920692Y-121161066D01*
X160926737Y-121163875D01*
X160932598Y-121168760D01*
X160932598Y-121161066D01*
X160935407Y-121149892D01*
X160940301Y-121143303D01*
X160935407Y-121141466D01*
X160931194Y-121137985D01*
X160935407Y-121134505D01*
X160939620Y-121130352D01*
X160935407Y-121124735D01*
X160932812Y-121120125D01*
X160931194Y-121097441D01*
X160931194Y-121068742D01*
X160931194Y-121050607D01*
X160928385Y-121033816D01*
X160924294Y-121022641D01*
X160922767Y-121014752D01*
X160919563Y-121012933D01*
X160928629Y-121012933D01*
X160931438Y-121017085D01*
X160932110Y-121012933D01*
X160929301Y-121008720D01*
X160928629Y-121012933D01*
X160919563Y-121012933D01*
X160919348Y-121012811D01*
X160917272Y-121009330D01*
X160920081Y-121003041D01*
X160920081Y-121000232D01*
X160927042Y-121000965D01*
X160932659Y-121001698D01*
X160929851Y-120998889D01*
X160927042Y-120993271D01*
X160928446Y-120991867D01*
X160932145Y-120996431D01*
X160934064Y-120993271D01*
X160934064Y-120987654D01*
X160928446Y-120977884D01*
X160924294Y-120972327D01*
X160929790Y-120970923D01*
X160936079Y-120966710D01*
X160935407Y-120959016D01*
X160931194Y-120905161D01*
X160933046Y-120860561D01*
X160935407Y-120854847D01*
X160936812Y-120853442D01*
X160934003Y-120846481D01*
X160931316Y-120840864D01*
X160928690Y-120845077D01*
X160927194Y-120847821D01*
X160921119Y-120845077D01*
X160919837Y-120840864D01*
X160917333Y-120831094D01*
X160918738Y-120831094D01*
X160923631Y-120833514D01*
X160927042Y-120829690D01*
X160928446Y-120825476D01*
X160929851Y-120831094D01*
X160932598Y-120836650D01*
X160935346Y-120825476D01*
X160933942Y-120817111D01*
X160892176Y-120817111D01*
X160854807Y-120815049D01*
X160844793Y-120811493D01*
X160835150Y-120798098D01*
X160828062Y-120769545D01*
X160822045Y-120751892D01*
X160815423Y-120756966D01*
X160810788Y-120765013D01*
X160809866Y-120762584D01*
X160811210Y-120755684D01*
X160814206Y-120745926D01*
X160811942Y-120736816D01*
X160809134Y-120721429D01*
X160818232Y-120707446D01*
X160829467Y-120699752D01*
X160837832Y-120695539D01*
X160841313Y-120693463D01*
X160842045Y-120699752D01*
X160853158Y-120703904D01*
X160872461Y-120701572D01*
X160885276Y-120695478D01*
X160887915Y-120692468D01*
X160918677Y-120685708D01*
X160931194Y-120681556D01*
X160931436Y-120677465D01*
X160942673Y-120677465D01*
X160944078Y-120681617D01*
X160944078Y-120674656D01*
X160942673Y-120677465D01*
X160931436Y-120677465D01*
X160932598Y-120657804D01*
X160934003Y-120646630D01*
X160939559Y-120642416D01*
X160939559Y-120643821D01*
X160940964Y-120649438D01*
X160943711Y-120662017D01*
X160947864Y-120657804D01*
X160947864Y-120636860D01*
X160945116Y-120624281D01*
X160943711Y-120628494D01*
X160940903Y-120627090D01*
X160941574Y-120620068D01*
X160937361Y-120624281D01*
X160933881Y-120627823D01*
X160935285Y-120621473D01*
X160939498Y-120608894D01*
X160942155Y-120599126D01*
X160943711Y-120562793D01*
X160946459Y-120537636D01*
X160945055Y-120534827D01*
X160940903Y-120548139D01*
X160935346Y-120575372D01*
X160932598Y-120601933D01*
X160931866Y-120609627D01*
X160925637Y-120606085D01*
X160924233Y-120598453D01*
X160927042Y-120581661D01*
X160930522Y-120565602D01*
X160932598Y-120555771D01*
X160935407Y-120551619D01*
X160936751Y-120552291D01*
X160936751Y-120550215D01*
X160938155Y-120543925D01*
X160938155Y-120539712D01*
X160938155Y-120529210D01*
X160942307Y-120520844D01*
X160949268Y-120519440D01*
X160949268Y-120522249D01*
X160947864Y-120530614D01*
X160952016Y-120525058D01*
X160955836Y-120518681D01*
X160953359Y-120515227D01*
X160950228Y-120508275D01*
X160954763Y-120494283D01*
X160957511Y-120481705D01*
X160960593Y-120467925D01*
X160971433Y-120450930D01*
X160974242Y-120449587D01*
X160977145Y-120451280D01*
X160982607Y-120443969D01*
X160986759Y-120435604D01*
X160984012Y-120434199D01*
X160997933Y-120413194D01*
X161003551Y-120403425D01*
X161030662Y-120371307D01*
X161069008Y-120334976D01*
X161082869Y-120325145D01*
X161098256Y-120318184D01*
X161124375Y-120315106D01*
X161147101Y-120320642D01*
G37*
G36*
X160809988Y-121418315D02*
G01*
X160809988Y-121421063D01*
X160804371Y-121414102D01*
X160805775Y-121411293D01*
X160809988Y-121418315D01*
G37*
G36*
X160937056Y-121395844D02*
G01*
X160936830Y-121396069D01*
X160937008Y-121395750D01*
X160937056Y-121395844D01*
G37*
G36*
X160747218Y-121334417D02*
G01*
X160748622Y-121341439D01*
X160751431Y-121349805D01*
X160747218Y-121342844D01*
X160741662Y-121331609D01*
X160742764Y-121328033D01*
X160747218Y-121334417D01*
G37*
G36*
X160739647Y-121309199D02*
G01*
X160736838Y-121310604D01*
X160734029Y-121307856D01*
X160736838Y-121306452D01*
X160739647Y-121309199D01*
G37*
G36*
X160775306Y-121282699D02*
G01*
X160774634Y-121286851D01*
X160771887Y-121282699D01*
X160772558Y-121278486D01*
X160775306Y-121282699D01*
G37*
G36*
X160725664Y-121275677D02*
G01*
X160722855Y-121278486D01*
X160720046Y-121274273D01*
X160722855Y-121271464D01*
X160725664Y-121275677D01*
G37*
G36*
X160764865Y-121264564D02*
G01*
X160767290Y-121271963D01*
X160760651Y-121274334D01*
X160757843Y-121270182D01*
X160759919Y-121262488D01*
X160764865Y-121264564D01*
G37*
G36*
X160720657Y-121225424D02*
G01*
X160720657Y-121233789D01*
X160724870Y-121232385D01*
X160726274Y-121228233D01*
X160727679Y-121230981D01*
X160730487Y-121242155D01*
X160731229Y-121249412D01*
X160727679Y-121258946D01*
X160726274Y-121254794D01*
X160726274Y-121247101D01*
X160720657Y-121245696D01*
X160716443Y-121246368D01*
X160719252Y-121243559D01*
X160721328Y-121240079D01*
X160717848Y-121236598D01*
X160715199Y-121234902D01*
X160717848Y-121221211D01*
X160719252Y-121216998D01*
X160722061Y-121216998D01*
X160720657Y-121225424D01*
G37*
G36*
X160755034Y-121249116D02*
G01*
X160759247Y-121253329D01*
X160758146Y-121255795D01*
X160753629Y-121251924D01*
X160752286Y-121248444D01*
X160755034Y-121249116D01*
G37*
G36*
X160899259Y-121239346D02*
G01*
X160897122Y-121244902D01*
X160893642Y-121239346D01*
X160895718Y-121233728D01*
X160899259Y-121239346D01*
G37*
G36*
X160736838Y-121226767D02*
G01*
X160734029Y-121230919D01*
X160733357Y-121226767D01*
X160736105Y-121222554D01*
X160736838Y-121226767D01*
G37*
G36*
X160899198Y-121215593D02*
G01*
X160894985Y-121222554D01*
X160896389Y-121209976D01*
X160900603Y-121201610D01*
X160899198Y-121215593D01*
G37*
G36*
X160720046Y-121197397D02*
G01*
X160720046Y-121208571D01*
X160717237Y-121200206D01*
X160717909Y-121191841D01*
X160720046Y-121197397D01*
G37*
G36*
X160902740Y-121191108D02*
G01*
X160899259Y-121191841D01*
X160901335Y-121186956D01*
X160904877Y-121186223D01*
X160902740Y-121191108D01*
G37*
G36*
X160731281Y-121182071D02*
G01*
X160728472Y-121183414D01*
X160725664Y-121180667D01*
X160728472Y-121179262D01*
X160731281Y-121182071D01*
G37*
G36*
X160898527Y-121179262D02*
G01*
X160895046Y-121182010D01*
X160893642Y-121179262D01*
X160897122Y-121176453D01*
X160898527Y-121179262D01*
G37*
G36*
X160902068Y-121161066D02*
G01*
X160900664Y-121158257D01*
X160902068Y-121155448D01*
X160902068Y-121161066D01*
G37*
G36*
X160925799Y-121130953D02*
G01*
X160925637Y-121138657D01*
X160921587Y-121142500D01*
X160918615Y-121140000D01*
X160922096Y-121134444D01*
X160921424Y-121131635D01*
X160921424Y-121128826D01*
X160925799Y-121130953D01*
G37*
G36*
X160906220Y-121105195D02*
G01*
X160909701Y-121120583D01*
X160907686Y-121127544D01*
X160904877Y-121124735D01*
X160900664Y-121100982D01*
X160902068Y-121095365D01*
X160906220Y-121105195D01*
G37*
G36*
X160918432Y-121064529D02*
G01*
X160922890Y-121067338D01*
X160922890Y-121068742D01*
X160922890Y-121081321D01*
X160926761Y-121104635D01*
X160924294Y-121116309D01*
X160919409Y-121098845D01*
X160917333Y-121072955D01*
X160917333Y-121063125D01*
X160918432Y-121064529D01*
G37*
G36*
X160904877Y-121077230D02*
G01*
X160902068Y-121079977D01*
X160901335Y-121077230D01*
X160904144Y-121074421D01*
X160904877Y-121077230D01*
G37*
G36*
X160904877Y-121065323D02*
G01*
X160902068Y-121068803D01*
X160899259Y-121065323D01*
X160902068Y-121061842D01*
X160904877Y-121065323D01*
G37*
G36*
X160904877Y-121056225D02*
G01*
X160902068Y-121059034D01*
X160899259Y-121056225D01*
X160902068Y-121053416D01*
X160904877Y-121056225D01*
G37*
G36*
X160927286Y-120944423D02*
G01*
X160925882Y-120941614D01*
X160927286Y-120938805D01*
X160927286Y-120944423D01*
G37*
G36*
X160928629Y-120910229D02*
G01*
X160925821Y-120910900D01*
X160923073Y-120908091D01*
X160925821Y-120907420D01*
X160928629Y-120910229D01*
G37*
G36*
X160906281Y-120891300D02*
G01*
X160903472Y-120896917D01*
X160902068Y-120891300D01*
X160904877Y-120885682D01*
X160906281Y-120891300D01*
G37*
G36*
X160921669Y-120884339D02*
G01*
X160925882Y-120892704D01*
X160921669Y-120889956D01*
X160917455Y-120881530D01*
X160921669Y-120884339D01*
G37*
G36*
X160913120Y-120871638D02*
G01*
X160913120Y-120874447D01*
X160910311Y-120870295D01*
X160913120Y-120871638D01*
G37*
G36*
X160906281Y-120852160D02*
G01*
X160907686Y-120857777D01*
X160909701Y-120864738D01*
X160906281Y-120861930D01*
X160902068Y-120852160D01*
X160903037Y-120848685D01*
X160906281Y-120852160D01*
G37*
G36*
X161645787Y-120731199D02*
G01*
X161679357Y-120749284D01*
X161688347Y-120757638D01*
X161696716Y-120768163D01*
X161705444Y-120770216D01*
X161711061Y-120774430D01*
X161714603Y-120779376D01*
X161722480Y-120778643D01*
X161729502Y-120774430D01*
X161741387Y-120769496D01*
X161756552Y-120777238D01*
X161764784Y-120788542D01*
X161770657Y-120805143D01*
X161776309Y-120841992D01*
X161773465Y-120873531D01*
X161765974Y-120922397D01*
X161766505Y-120961459D01*
X161769357Y-121004385D01*
X161777923Y-121046638D01*
X161790896Y-121084120D01*
X161800882Y-121099639D01*
X161815170Y-121105195D01*
X161833450Y-121098331D01*
X161852135Y-121072859D01*
X161871407Y-121014459D01*
X161874155Y-121006094D01*
X161876902Y-121008903D01*
X161876902Y-121018672D01*
X161878307Y-121031251D01*
X161882230Y-121027908D01*
X161886550Y-121010307D01*
X161890098Y-121002959D01*
X161894976Y-121008903D01*
X161896381Y-121013055D01*
X161897234Y-121036070D01*
X161886550Y-121082908D01*
X161883741Y-121102509D01*
X161876902Y-121126261D01*
X161870063Y-121154899D01*
X161863774Y-121181460D01*
X161857546Y-121196787D01*
X161848143Y-121216998D01*
X161838016Y-121241935D01*
X161841853Y-121246368D01*
X161844352Y-121249712D01*
X161838800Y-121256138D01*
X161838800Y-121265236D01*
X161840511Y-121268367D01*
X161847166Y-121268716D01*
X161852051Y-121268777D01*
X161841548Y-121279951D01*
X161827055Y-121290711D01*
X161813888Y-121293873D01*
X161798032Y-121291229D01*
X161766810Y-121280134D01*
X161748936Y-121268715D01*
X161731517Y-121248993D01*
X161717854Y-121225281D01*
X161710851Y-121205824D01*
X161841670Y-121205824D01*
X161843649Y-121207717D01*
X161849303Y-121201000D01*
X161855653Y-121187017D01*
X161861210Y-121170897D01*
X161865423Y-121156914D01*
X161858462Y-121163936D01*
X161842488Y-121193953D01*
X161841670Y-121205824D01*
X161710851Y-121205824D01*
X161708741Y-121199962D01*
X161698564Y-121178717D01*
X161681081Y-121172301D01*
X161667830Y-121189032D01*
X161655252Y-121204358D01*
X161653176Y-121207167D01*
X161642063Y-121226706D01*
X161618530Y-121250539D01*
X161590528Y-121265724D01*
X161571049Y-121274822D01*
X161545282Y-121285996D01*
X161522323Y-121294972D01*
X161494479Y-121297781D01*
X161455461Y-121293568D01*
X161427640Y-121284859D01*
X161394889Y-121267800D01*
X161365576Y-121246637D01*
X161349704Y-121229393D01*
X161328957Y-121192330D01*
X161317647Y-121163814D01*
X161306473Y-121121926D01*
X161301598Y-121096314D01*
X161300273Y-121067399D01*
X161483183Y-121067399D01*
X161485272Y-121097196D01*
X161490144Y-121113561D01*
X161509653Y-121139492D01*
X161528584Y-121145220D01*
X161551327Y-121134505D01*
X161568293Y-121117906D01*
X161594496Y-121082786D01*
X161634858Y-121012933D01*
X161661475Y-120946120D01*
X161666853Y-120922074D01*
X161660015Y-120892704D01*
X161650268Y-120864378D01*
X161651649Y-120836773D01*
X161656675Y-120809114D01*
X161654458Y-120800441D01*
X161636506Y-120794885D01*
X161620630Y-120796289D01*
X161609578Y-120801174D01*
X161590894Y-120808868D01*
X161561890Y-120840314D01*
X161534291Y-120884339D01*
X161520430Y-120908091D01*
X161512858Y-120927692D01*
X161502539Y-120954192D01*
X161488793Y-120997071D01*
X161483183Y-121067399D01*
X161300273Y-121067399D01*
X161299512Y-121050790D01*
X161302267Y-121004255D01*
X161309404Y-120971228D01*
X161321789Y-120935555D01*
X161341888Y-120891666D01*
X161365595Y-120850400D01*
X161401178Y-120804410D01*
X161440642Y-120764608D01*
X161457992Y-120752936D01*
X161650489Y-120752936D01*
X161657511Y-120757149D01*
X161668014Y-120761302D01*
X161672898Y-120761302D01*
X161663129Y-120755745D01*
X161650489Y-120752936D01*
X161457992Y-120752936D01*
X161467612Y-120746464D01*
X161542473Y-120715811D01*
X161580575Y-120711598D01*
X161607441Y-120711598D01*
X161645787Y-120731199D01*
G37*
G36*
X162514742Y-120715506D02*
G01*
X162534939Y-120729586D01*
X162544845Y-120747624D01*
X162546923Y-120765961D01*
X162544845Y-120802884D01*
X162535015Y-120858083D01*
X162522436Y-120885988D01*
X162511934Y-120909068D01*
X162507049Y-120915358D01*
X162506316Y-120918167D01*
X162504240Y-120933554D01*
X162486161Y-120992317D01*
X162476213Y-121039738D01*
X162470657Y-121094266D01*
X162468520Y-121104096D01*
X162467848Y-121113866D01*
X162473465Y-121168332D01*
X162486345Y-121189615D01*
X162505644Y-121206068D01*
X162515414Y-121215899D01*
X162497951Y-121208938D01*
X162474809Y-121193550D01*
X162467115Y-121183048D01*
X162463635Y-121177430D01*
X162461498Y-121173950D01*
X162463309Y-121172083D01*
X162462230Y-121162104D01*
X162460093Y-121146717D01*
X162459421Y-121116614D01*
X162456613Y-121092861D01*
X162455269Y-121099883D01*
X162453865Y-121104035D01*
X162449652Y-121106844D01*
X162452461Y-121113866D01*
X162450323Y-121116614D01*
X162445439Y-121120155D01*
X162450323Y-121127116D01*
X162455269Y-121141771D01*
X162453865Y-121152273D01*
X162449652Y-121154349D01*
X162446110Y-121157891D01*
X162451056Y-121162104D01*
X162453958Y-121163235D01*
X162455269Y-121169737D01*
X162458646Y-121186943D01*
X162469252Y-121203320D01*
X162488332Y-121218506D01*
X162521032Y-121231225D01*
X162533610Y-121238247D01*
X162516147Y-121234095D01*
X162501431Y-121229210D01*
X162481831Y-121220051D01*
X162458536Y-121205478D01*
X162453865Y-121197702D01*
X162446843Y-121183720D01*
X162441225Y-121178163D01*
X162444034Y-121189337D01*
X162452384Y-121209995D01*
X162475002Y-121228880D01*
X162519627Y-121246063D01*
X162567194Y-121250825D01*
X162620439Y-121249421D01*
X162631613Y-121249421D01*
X162635826Y-121255038D01*
X162644223Y-121256030D01*
X162662448Y-121249421D01*
X162670814Y-121246612D01*
X162675027Y-121244536D01*
X162684125Y-121238979D01*
X162700245Y-121234766D01*
X162707267Y-121236842D01*
X162703054Y-121237575D01*
X162698841Y-121239651D01*
X162693895Y-121245208D01*
X162689010Y-121242460D01*
X162686201Y-121240384D01*
X162684858Y-121245940D01*
X162680644Y-121250825D01*
X162672218Y-121249421D01*
X162670814Y-121250154D01*
X162670814Y-121252230D01*
X162668005Y-121255038D01*
X162660311Y-121258519D01*
X162649809Y-121262732D01*
X162638635Y-121266213D01*
X162630269Y-121267617D01*
X162624652Y-121270426D01*
X162618301Y-121273173D01*
X162603586Y-121278791D01*
X162593816Y-121283004D01*
X162576353Y-121285813D01*
X162542830Y-121289965D01*
X162525367Y-121292774D01*
X162529519Y-121295522D01*
X162533000Y-121297659D01*
X162530924Y-121302544D01*
X162528176Y-121301139D01*
X162522558Y-121301139D01*
X162486838Y-121301139D01*
X162454048Y-121299735D01*
X162448536Y-121299938D01*
X162433043Y-121292774D01*
X162432620Y-121292469D01*
X162510590Y-121292469D01*
X162516147Y-121295216D01*
X162521764Y-121292469D01*
X162516147Y-121289660D01*
X162510590Y-121292469D01*
X162432620Y-121292469D01*
X162407825Y-121274578D01*
X162401382Y-121264503D01*
X162609997Y-121264503D01*
X162615554Y-121263831D01*
X162626728Y-121260290D01*
X162633750Y-121257481D01*
X162629598Y-121256076D01*
X162618363Y-121258885D01*
X162609997Y-121264503D01*
X162401382Y-121264503D01*
X162392577Y-121250734D01*
X162381548Y-121211100D01*
X162377112Y-121148793D01*
X162379376Y-121090623D01*
X162385538Y-121043952D01*
X162392560Y-121006216D01*
X162398117Y-120988081D01*
X162418875Y-120937229D01*
X162420526Y-120926532D01*
X162428952Y-120897223D01*
X162450344Y-120831214D01*
X162455992Y-120793115D01*
X162452766Y-120772781D01*
X162443601Y-120764522D01*
X162421930Y-120763011D01*
X162401658Y-120768629D01*
X162382058Y-120778399D01*
X162375768Y-120785359D01*
X162373631Y-120790977D01*
X162372288Y-120788168D01*
X162371616Y-120785359D01*
X162365388Y-120788901D01*
X162364716Y-120795190D01*
X162360564Y-120796534D01*
X162356412Y-120796534D01*
X162354336Y-120797266D01*
X162355069Y-120797938D01*
X162342551Y-120813325D01*
X162296328Y-120869257D01*
X162278832Y-120898437D01*
X162274896Y-120912549D01*
X162272759Y-120924456D01*
X162266470Y-120944728D01*
X162254168Y-120992391D01*
X162235695Y-121043952D01*
X162220308Y-121084496D01*
X162186663Y-121165585D01*
X162183854Y-121173950D01*
X162178237Y-121183781D01*
X162174756Y-121196359D01*
X162174085Y-121205396D01*
X162169872Y-121218646D01*
X162168467Y-121226401D01*
X162164254Y-121228477D01*
X162161506Y-121234095D01*
X162160147Y-121240180D01*
X162151675Y-121246673D01*
X162137693Y-121257847D01*
X162131342Y-121263404D01*
X162129266Y-121267617D01*
X162126457Y-121277387D01*
X162122305Y-121278058D01*
X162118764Y-121273173D01*
X162108994Y-121280195D01*
X162101300Y-121292774D01*
X162097087Y-121291370D01*
X162092874Y-121287156D01*
X162088661Y-121291370D01*
X162076082Y-121301872D01*
X162066313Y-121303948D01*
X162061367Y-121294178D01*
X162057912Y-121288103D01*
X162052269Y-121287156D01*
X162044575Y-121285080D01*
X162038286Y-121267617D01*
X162029188Y-121257847D01*
X162023617Y-121251961D01*
X162021494Y-121241056D01*
X162025707Y-121218646D01*
X162029859Y-121207472D01*
X162024975Y-121212357D01*
X162018685Y-121217975D01*
X162017281Y-121211685D01*
X162014472Y-121201916D01*
X162012082Y-121198447D01*
X162012335Y-121185124D01*
X162014472Y-121169065D01*
X162022837Y-121164852D01*
X162031264Y-121156486D01*
X162036149Y-121143236D01*
X162042499Y-121122231D01*
X162046651Y-121109653D01*
X162062099Y-121101288D01*
X162080234Y-121092861D01*
X162090004Y-121062148D01*
X162106796Y-121015986D01*
X162120954Y-120970532D01*
X162120840Y-120961520D01*
X162118703Y-120960848D01*
X162118031Y-120964267D01*
X162109605Y-120992233D01*
X162098431Y-121019527D01*
X162097026Y-121017451D01*
X162103987Y-120993699D01*
X162122244Y-120939110D01*
X162141711Y-120866141D01*
X162143249Y-120839887D01*
X162134823Y-120832254D01*
X162119435Y-120834330D01*
X162105293Y-120839313D01*
X162098431Y-120837078D01*
X162103987Y-120828041D01*
X162108200Y-120819676D01*
X162107529Y-120810578D01*
X162107529Y-120797999D01*
X162113146Y-120778399D01*
X162122225Y-120765101D01*
X162132686Y-120757455D01*
X162142064Y-120751384D01*
X162143249Y-120747624D01*
X162142516Y-120742800D01*
X162145997Y-120743472D01*
X162167956Y-120746918D01*
X162179641Y-120743472D01*
X162199089Y-120738216D01*
X162225742Y-120744876D01*
X162245521Y-120760300D01*
X162263539Y-120788168D01*
X162271188Y-120802440D01*
X162276178Y-120806364D01*
X162285276Y-120804288D01*
X162313914Y-120781207D01*
X162365727Y-120743436D01*
X162413411Y-120719993D01*
X162458017Y-120708484D01*
X162488993Y-120708249D01*
X162514742Y-120715506D01*
G37*
G36*
X162548387Y-121298025D02*
G01*
X162542769Y-121295216D01*
X162549059Y-121293873D01*
X162548387Y-121298025D01*
G37*
G36*
X162565179Y-121295277D02*
G01*
X162559561Y-121298025D01*
X162556752Y-121295277D01*
X162562370Y-121292469D01*
X162565179Y-121295277D01*
G37*
G36*
X162597358Y-121288255D02*
G01*
X162588260Y-121292469D01*
X162582642Y-121295216D01*
X162584779Y-121291064D01*
X162595953Y-121286851D01*
X162600838Y-121286851D01*
X162597358Y-121288255D01*
G37*
G36*
X162653350Y-121275677D02*
G01*
X162650542Y-121278486D01*
X162649198Y-121275677D01*
X162651946Y-121272868D01*
X162653350Y-121275677D01*
G37*
G36*
X162555348Y-121240750D02*
G01*
X162552539Y-121243498D01*
X162548387Y-121240750D01*
X162551135Y-121237941D01*
X162555348Y-121240750D01*
G37*
G36*
X162656159Y-121240750D02*
G01*
X162651946Y-121243498D01*
X162650542Y-121240750D01*
X162654755Y-121237941D01*
X162656159Y-121240750D01*
G37*
G36*
X162685590Y-121229576D02*
G01*
X162679973Y-121230919D01*
X162666662Y-121238674D01*
X162663181Y-121239346D01*
X162670875Y-121231652D01*
X162684186Y-121226767D01*
X162685590Y-121229576D01*
G37*
G36*
X162542037Y-121222859D02*
G01*
X162549059Y-121227073D01*
X162540632Y-121225668D01*
X162529458Y-121221455D01*
X162529458Y-121218646D01*
X162542037Y-121222859D01*
G37*
G36*
X162694627Y-121223959D02*
G01*
X162695360Y-121221150D01*
X162702382Y-121221150D01*
X162694627Y-121223959D01*
G37*
G36*
X162732424Y-121219074D02*
G01*
X162728943Y-121219806D01*
X162730348Y-121214922D01*
X162733828Y-121214189D01*
X162732424Y-121219074D01*
G37*
G36*
X162722654Y-121214189D02*
G01*
X162717769Y-121214189D01*
X162719174Y-121209976D01*
X162726196Y-121209976D01*
X162722654Y-121214189D01*
G37*
G36*
X162756970Y-121197397D02*
G01*
X162749277Y-121205824D01*
X162738774Y-121212784D01*
X162744392Y-121204419D01*
X162755170Y-121195788D01*
X162756970Y-121197397D01*
G37*
G36*
X162772358Y-121176453D02*
G01*
X162769549Y-121179262D01*
X162772358Y-121182010D01*
X162776571Y-121177858D01*
X162779380Y-121176453D01*
X162774434Y-121182743D01*
X162766740Y-121186223D01*
X162769549Y-121174377D01*
X162776571Y-121168088D01*
X162772358Y-121176453D01*
G37*
G36*
X162033157Y-121127544D02*
G01*
X162030348Y-121130291D01*
X162027539Y-121127544D01*
X162030348Y-121124735D01*
X162033157Y-121127544D01*
G37*
G36*
X162084997Y-121052012D02*
G01*
X162084997Y-121056225D01*
X162080784Y-121061842D01*
X162080784Y-121056225D01*
X162083546Y-121050059D01*
X162084997Y-121052012D01*
G37*
G36*
X163823884Y-121061842D02*
G01*
X163827365Y-121068803D01*
X163819671Y-121064651D01*
X163816190Y-121057629D01*
X163823884Y-121061842D01*
G37*
G36*
X163720264Y-120657193D02*
G01*
X163706281Y-120682350D01*
X163694374Y-120698409D01*
X163690894Y-120697005D01*
X163710494Y-120664887D01*
X163716112Y-120653713D01*
X163723073Y-120648095D01*
X163720264Y-120657193D01*
G37*
G36*
X164100489Y-120394754D02*
G01*
X164129188Y-120410874D01*
X164146712Y-120425529D01*
X164159291Y-120439512D01*
X164176762Y-120457889D01*
X164185038Y-120475715D01*
X164185913Y-120493978D01*
X164175592Y-120526366D01*
X164157886Y-120547101D01*
X164141766Y-120558275D01*
X164126379Y-120562488D01*
X164111724Y-120568044D01*
X164108916Y-120569449D01*
X164113129Y-120551314D01*
X164120419Y-120519069D01*
X164118685Y-120505152D01*
X164111663Y-120519867D01*
X164103970Y-120534522D01*
X164101894Y-120530370D01*
X164105374Y-120512907D01*
X164105426Y-120502311D01*
X164101894Y-120496787D01*
X164092816Y-120494155D01*
X164071791Y-120497458D01*
X164027705Y-120516326D01*
X163998274Y-120533118D01*
X163977670Y-120543625D01*
X163945090Y-120567434D01*
X163916724Y-120593528D01*
X163911506Y-120603093D01*
X163905889Y-120608650D01*
X163895562Y-120616627D01*
X163880732Y-120639424D01*
X163863207Y-120663910D01*
X163842874Y-120689799D01*
X163826082Y-120719170D01*
X163811652Y-120755056D01*
X163810695Y-120775040D01*
X163819121Y-120786214D01*
X163830912Y-120789069D01*
X163863879Y-120786947D01*
X163936724Y-120769484D01*
X163997602Y-120750616D01*
X164026300Y-120742922D01*
X164096276Y-120724726D01*
X164197532Y-120706315D01*
X164279689Y-120699540D01*
X164345853Y-120702100D01*
X164398832Y-120712148D01*
X164427658Y-120725129D01*
X164432415Y-120730344D01*
X164421913Y-120728268D01*
X164413594Y-120727061D01*
X164407930Y-120730344D01*
X164397427Y-120734496D01*
X164394619Y-120734557D01*
X164396023Y-120740113D01*
X164400236Y-120747074D01*
X164409273Y-120756172D01*
X164414219Y-120767347D01*
X164409273Y-120776445D01*
X164401641Y-120777849D01*
X164394619Y-120779253D01*
X164390405Y-120787680D01*
X164388268Y-120793236D01*
X164374957Y-120800258D01*
X164368016Y-120807508D01*
X164367996Y-120812837D01*
X164369401Y-120821263D01*
X164372209Y-120826148D01*
X164376423Y-120831766D01*
X164366592Y-120840131D01*
X164354013Y-120842940D01*
X164351204Y-120843611D01*
X164352189Y-120848258D01*
X164361035Y-120858999D01*
X164367664Y-120869372D01*
X164366592Y-120873653D01*
X164362601Y-120874914D01*
X164358226Y-120871577D01*
X164348396Y-120868768D01*
X164347663Y-120877134D01*
X164342778Y-120879271D01*
X164338626Y-120874386D01*
X164333680Y-120872982D01*
X164314812Y-120875729D01*
X164271513Y-120878523D01*
X164261628Y-120883118D01*
X164254099Y-120885869D01*
X164226396Y-120887453D01*
X164199410Y-120889593D01*
X164194034Y-120893071D01*
X164194706Y-120896612D01*
X164198125Y-120895879D01*
X164202888Y-120897284D01*
X164200873Y-120900031D01*
X164197777Y-120902270D01*
X164202216Y-120912671D01*
X164216524Y-120936323D01*
X164226885Y-120963046D01*
X164233724Y-120988325D01*
X164237406Y-121012188D01*
X164239219Y-121070940D01*
X164236872Y-121129475D01*
X164232197Y-121152151D01*
X164230854Y-121160516D01*
X164235006Y-121154899D01*
X164242028Y-121146534D01*
X164246241Y-121149342D01*
X164244837Y-121163325D01*
X164240624Y-121186406D01*
X164240624Y-121189887D01*
X164241295Y-121194772D01*
X164237815Y-121203870D01*
X164233602Y-121210831D01*
X164224503Y-121228355D01*
X164224096Y-121239759D01*
X164224992Y-121237941D01*
X164227129Y-121234461D01*
X164229205Y-121226767D01*
X164233357Y-121221150D01*
X164234090Y-121226767D01*
X164229595Y-121237301D01*
X164224039Y-121241338D01*
X164223832Y-121247162D01*
X164223832Y-121254184D01*
X164222427Y-121258397D01*
X164219619Y-121261145D01*
X164206246Y-121277936D01*
X164195744Y-121298880D01*
X164201361Y-121296804D01*
X164209116Y-121293995D01*
X164206307Y-121299613D01*
X164201361Y-121305902D01*
X164195744Y-121307306D01*
X164188050Y-121310787D01*
X164174739Y-121324037D01*
X164163565Y-121336616D01*
X164158103Y-121346296D01*
X164127844Y-121373679D01*
X164095036Y-121396864D01*
X164087850Y-121398104D01*
X164090658Y-121393952D01*
X164092124Y-121388334D01*
X164092124Y-121386930D01*
X164096276Y-121386930D01*
X164113129Y-121381373D01*
X164129920Y-121363177D01*
X164134073Y-121358964D01*
X164141827Y-121350598D01*
X164150254Y-121341500D01*
X164155139Y-121335211D01*
X164152391Y-121333807D01*
X164156543Y-121328250D01*
X164163565Y-121319152D01*
X164173335Y-121301689D01*
X164184532Y-121283849D01*
X164183165Y-121282149D01*
X164167778Y-121294728D01*
X164111663Y-121352003D01*
X164076614Y-121381373D01*
X164064907Y-121381049D01*
X164062632Y-121378564D01*
X164064036Y-121375755D01*
X164065440Y-121368062D01*
X164062632Y-121357559D01*
X164054877Y-121346385D01*
X164047183Y-121336616D01*
X164045779Y-121333807D01*
X164038757Y-121340829D01*
X164034605Y-121340829D01*
X164037352Y-121336616D01*
X164044374Y-121328250D01*
X164048588Y-121325441D01*
X164047183Y-121321900D01*
X164041566Y-121321228D01*
X164035948Y-121319824D01*
X164035276Y-121312191D01*
X164035276Y-121305230D01*
X164031674Y-121305902D01*
X164017752Y-121306574D01*
X164011973Y-121302164D01*
X164011218Y-121296804D01*
X164010697Y-121291614D01*
X164006089Y-121288439D01*
X164002080Y-121285420D01*
X164003158Y-121280745D01*
X164003891Y-121271647D01*
X164000960Y-121236720D01*
X164002860Y-121208406D01*
X164006578Y-121198252D01*
X164013938Y-121184241D01*
X164007982Y-121175904D01*
X163997991Y-121177134D01*
X163964507Y-121192695D01*
X163942428Y-121203224D01*
X163925245Y-121208022D01*
X163920360Y-121210159D01*
X163914071Y-121212235D01*
X163907954Y-121213471D01*
X163909858Y-121216448D01*
X163916880Y-121220600D01*
X163925245Y-121223409D01*
X163915884Y-121227683D01*
X163843973Y-121233179D01*
X163825044Y-121231835D01*
X163814542Y-121228355D01*
X163792133Y-121224142D01*
X163779554Y-121218524D01*
X163771128Y-121212968D01*
X163752199Y-121198252D01*
X163733942Y-121185673D01*
X163726248Y-121180117D01*
X163722296Y-121173095D01*
X163968720Y-121173095D01*
X163971529Y-121177308D01*
X163978551Y-121175904D01*
X163984169Y-121173095D01*
X163975742Y-121171691D01*
X163968720Y-121173095D01*
X163722296Y-121173095D01*
X163719959Y-121168943D01*
X163709456Y-121163325D01*
X163706648Y-121161921D01*
X163710861Y-121157708D01*
X163715074Y-121159112D01*
X163717883Y-121161921D01*
X163721350Y-121160683D01*
X163717883Y-121156303D01*
X163886044Y-121156303D01*
X163902836Y-121154899D01*
X163946921Y-121145862D01*
X163954201Y-121142870D01*
X164045107Y-121142870D01*
X164048179Y-121143267D01*
X164054877Y-121137313D01*
X164070264Y-121113561D01*
X164084308Y-121082786D01*
X164091330Y-121061110D01*
X164089926Y-121060438D01*
X164075210Y-121092556D01*
X164052801Y-121129620D01*
X164045107Y-121142870D01*
X163954201Y-121142870D01*
X163979162Y-121132612D01*
X163992412Y-121124185D01*
X163999434Y-121118568D01*
X163996766Y-121116936D01*
X163979833Y-121125590D01*
X163951164Y-121139699D01*
X163905644Y-121152151D01*
X163886044Y-121156303D01*
X163717883Y-121156303D01*
X163710861Y-121153556D01*
X163698282Y-121142320D01*
X163690762Y-121132545D01*
X163685643Y-121131146D01*
X163682101Y-121136764D01*
X163673675Y-121134688D01*
X163668790Y-121126994D01*
X163663172Y-121117896D01*
X163660525Y-121113561D01*
X163685337Y-121113561D01*
X163688085Y-121117713D01*
X163690894Y-121115637D01*
X163688085Y-121111485D01*
X163685337Y-121113561D01*
X163660525Y-121113561D01*
X163657616Y-121108798D01*
X163654807Y-121104585D01*
X163653403Y-121111607D01*
X163656211Y-121117163D01*
X163650533Y-121111607D01*
X163644915Y-121092006D01*
X163636428Y-121066849D01*
X163632154Y-121052195D01*
X163631482Y-121043158D01*
X163627269Y-121034060D01*
X163625864Y-121030518D01*
X163624460Y-121008903D01*
X163620918Y-120985822D01*
X163618110Y-120992783D01*
X163622384Y-121044501D01*
X163625193Y-121064102D01*
X163623788Y-121063369D01*
X163619514Y-121058484D01*
X163613835Y-121052866D01*
X163603272Y-121040288D01*
X163601196Y-121033999D01*
X163595517Y-121019344D01*
X163594113Y-121010979D01*
X163599730Y-121013788D01*
X163603943Y-121016535D01*
X163603211Y-121012383D01*
X163602539Y-121005361D01*
X163605348Y-120996996D01*
X163598326Y-120987226D01*
X163596921Y-120975991D01*
X163599800Y-120970633D01*
X163603943Y-120980204D01*
X163606752Y-120987226D01*
X163612309Y-121002552D01*
X163613713Y-120995591D01*
X163613713Y-120984417D01*
X163611576Y-120962741D01*
X163609500Y-120957856D01*
X163606752Y-120962069D01*
X163604963Y-120965813D01*
X163598326Y-120963413D01*
X163595555Y-120958599D01*
X163594113Y-120943201D01*
X163592776Y-120928263D01*
X163590632Y-120925738D01*
X163592708Y-120922258D01*
X163593537Y-120920600D01*
X163777399Y-120920600D01*
X163777661Y-120945583D01*
X163786759Y-121002552D01*
X163804284Y-121048714D01*
X163817514Y-121074420D01*
X163823151Y-121080832D01*
X163828841Y-121084732D01*
X163830173Y-121082237D01*
X163830173Y-121079428D01*
X163830173Y-121073871D01*
X163835215Y-121077619D01*
X163842752Y-121090663D01*
X163856260Y-121109311D01*
X163872183Y-121118568D01*
X163888792Y-121120113D01*
X163922558Y-121115820D01*
X163998151Y-121096220D01*
X164006578Y-121093411D01*
X164017294Y-121087972D01*
X164051457Y-121057080D01*
X164074985Y-121027411D01*
X164087911Y-120996996D01*
X164093467Y-120980937D01*
X164096276Y-120955047D01*
X164094812Y-120936088D01*
X164091635Y-120927448D01*
X164085307Y-120922648D01*
X164072462Y-120920670D01*
X164059090Y-120922746D01*
X164051457Y-120945522D01*
X164045840Y-120964817D01*
X164044435Y-120952299D01*
X164040894Y-120936302D01*
X164031796Y-120932821D01*
X164018485Y-120941125D01*
X164009387Y-120953582D01*
X164007982Y-120948025D01*
X164006578Y-120938255D01*
X163977208Y-120938255D01*
X163932836Y-120933367D01*
X163894592Y-120919266D01*
X163865091Y-120900184D01*
X163827365Y-120867547D01*
X163803518Y-120847906D01*
X163794453Y-120844527D01*
X163788462Y-120849260D01*
X163781203Y-120870356D01*
X163780470Y-120894109D01*
X163779798Y-120912305D01*
X163777399Y-120920600D01*
X163593537Y-120920600D01*
X163596189Y-120915297D01*
X163598326Y-120904794D01*
X163601806Y-120895025D01*
X163596921Y-120889407D01*
X163596189Y-120883179D01*
X163598034Y-120854821D01*
X163655313Y-120854821D01*
X163655906Y-120867547D01*
X163658341Y-120869711D01*
X163660791Y-120864738D01*
X163664333Y-120843795D01*
X163683872Y-120779498D01*
X163709090Y-120718009D01*
X163720325Y-120698409D01*
X163746819Y-120652487D01*
X163781935Y-120601994D01*
X163795857Y-120583126D01*
X163800132Y-120574028D01*
X163793795Y-120579214D01*
X163764411Y-120615977D01*
X163721730Y-120678870D01*
X163713303Y-120690044D01*
X163709090Y-120698409D01*
X163695107Y-120729184D01*
X163679670Y-120765949D01*
X163665004Y-120811677D01*
X163655313Y-120854821D01*
X163598034Y-120854821D01*
X163598326Y-120850328D01*
X163601376Y-120805467D01*
X163605836Y-120798671D01*
X163608828Y-120794519D01*
X163609561Y-120792443D01*
X163611027Y-120791710D01*
X163613286Y-120789634D01*
X163616339Y-120784688D01*
X163622384Y-120769423D01*
X163622480Y-120768973D01*
X163658085Y-120768973D01*
X163660119Y-120774918D01*
X163668485Y-120767957D01*
X163671293Y-120762340D01*
X163681796Y-120735839D01*
X163696512Y-120707141D01*
X163703533Y-120696638D01*
X163730095Y-120652675D01*
X163767891Y-120601628D01*
X163779127Y-120584836D01*
X163767220Y-120596743D01*
X163745482Y-120624709D01*
X163731499Y-120643576D01*
X163727286Y-120644920D01*
X163727843Y-120640144D01*
X163741330Y-120618419D01*
X163747251Y-120603468D01*
X163742734Y-120600223D01*
X163728690Y-120616282D01*
X163716112Y-120637959D01*
X163709762Y-120648461D01*
X163695779Y-120671542D01*
X163680391Y-120699508D01*
X163674102Y-120714834D01*
X163664333Y-120744205D01*
X163658085Y-120768973D01*
X163622480Y-120768973D01*
X163625376Y-120755440D01*
X163622567Y-120740052D01*
X163623971Y-120733763D01*
X163626982Y-120732721D01*
X163632398Y-120737244D01*
X163638015Y-120744266D01*
X163638015Y-120731687D01*
X163638687Y-120719109D01*
X163640824Y-120716300D01*
X163643086Y-120704255D01*
X163651998Y-120684121D01*
X163656404Y-120688479D01*
X163664638Y-120674351D01*
X163677974Y-120647702D01*
X163688451Y-120633807D01*
X163694741Y-120625441D01*
X163709456Y-120606574D01*
X163723439Y-120590454D01*
X163747314Y-120568044D01*
X163778150Y-120540140D01*
X163802635Y-120520600D01*
X163817412Y-120509365D01*
X163862230Y-120479323D01*
X163922497Y-120445068D01*
X163951741Y-120430002D01*
X163956142Y-120425529D01*
X163960831Y-120420296D01*
X163989053Y-120407333D01*
X164020630Y-120397033D01*
X164041627Y-120393350D01*
X164080579Y-120391704D01*
X164100489Y-120394754D01*
G37*
G36*
X164122776Y-121388884D02*
G01*
X164117159Y-121393097D01*
X164116487Y-121388884D01*
X164122105Y-121384670D01*
X164122776Y-121388884D01*
G37*
G36*
X164057686Y-121366535D02*
G01*
X164056281Y-121370749D01*
X164054938Y-121379114D01*
X164052129Y-121372092D01*
X164054938Y-121363727D01*
X164057686Y-121366535D01*
G37*
G36*
X164164114Y-121356705D02*
G01*
X164159901Y-121359513D01*
X164158497Y-121356705D01*
X164162710Y-121353957D01*
X164164114Y-121356705D01*
G37*
G36*
X164215894Y-121277081D02*
G01*
X164211009Y-121283371D01*
X164208933Y-121284042D01*
X164211681Y-121275677D01*
X164217298Y-121268716D01*
X164215894Y-121277081D01*
G37*
G36*
X163943563Y-121221150D02*
G01*
X163934465Y-121222554D01*
X163930313Y-121219745D01*
X163933122Y-121219074D01*
X163941487Y-121216998D01*
X163951318Y-121216998D01*
X163943563Y-121221150D01*
G37*
G36*
X164250882Y-121172240D02*
G01*
X164249477Y-121173645D01*
X164250882Y-121169431D01*
X164253690Y-121165951D01*
X164250882Y-121172240D01*
G37*
G36*
X163692970Y-121148488D02*
G01*
X163696512Y-121159662D01*
X163691566Y-121157586D01*
X163685276Y-121149159D01*
X163683933Y-121142870D01*
X163686681Y-121138718D01*
X163692970Y-121148488D01*
G37*
G36*
X164256499Y-121152701D02*
G01*
X164255095Y-121149892D01*
X164256499Y-121145679D01*
X164256499Y-121152701D01*
G37*
G36*
X163661524Y-121145679D02*
G01*
X163660119Y-121149892D01*
X163657311Y-121145679D01*
X163658715Y-121141466D01*
X163661524Y-121145679D01*
G37*
G36*
X163650289Y-121121926D02*
G01*
X163653097Y-121130291D01*
X163653097Y-121133100D01*
X163648884Y-121127544D01*
X163643328Y-121116309D01*
X163644410Y-121114528D01*
X163650289Y-121121926D01*
G37*
G36*
X163635207Y-121087854D02*
G01*
X163638015Y-121094815D01*
X163642229Y-121110202D01*
X163642229Y-121112340D01*
X163638015Y-121113011D01*
X163630993Y-121110202D01*
X163632398Y-121103242D01*
X163632398Y-121098357D01*
X163629589Y-121089259D01*
X163631005Y-121081913D01*
X163635207Y-121087854D01*
G37*
G36*
X165006386Y-120651575D02*
G01*
X165018964Y-120661345D01*
X165031957Y-120675536D01*
X165038565Y-120697859D01*
X165037060Y-120713631D01*
X165027391Y-120742800D01*
X165004838Y-120802227D01*
X164993061Y-120849156D01*
X164989594Y-120885988D01*
X164987457Y-120950346D01*
X164989594Y-120990829D01*
X164991487Y-121021542D01*
X164994662Y-121051584D01*
X164993991Y-121056469D01*
X164994662Y-121067643D01*
X165002234Y-121098418D01*
X165005876Y-121126262D01*
X165018964Y-121165585D01*
X165024582Y-121181643D01*
X165027330Y-121188604D01*
X165031543Y-121199107D01*
X165037832Y-121208938D01*
X165049678Y-121210281D01*
X165057720Y-121201345D01*
X165066409Y-121178163D01*
X165070622Y-121159967D01*
X165070622Y-121183720D01*
X165069217Y-121209609D01*
X165072148Y-121215166D01*
X165073553Y-121218646D01*
X165070622Y-121221455D01*
X165074102Y-121222859D01*
X165077644Y-121217303D01*
X165074713Y-121211685D01*
X165077033Y-121206129D01*
X165082345Y-121194222D01*
X165083328Y-121189597D01*
X165085826Y-121191413D01*
X165087230Y-121199107D01*
X165087963Y-121203320D01*
X165092115Y-121197702D01*
X165092115Y-121194894D01*
X165097733Y-121186528D01*
X165098404Y-121192818D01*
X165094924Y-121206129D01*
X165092115Y-121218707D01*
X165089367Y-121231225D01*
X165087963Y-121241056D01*
X165085826Y-121238247D01*
X165083750Y-121238247D01*
X165083750Y-121243803D01*
X165082345Y-121255710D01*
X165062806Y-121277387D01*
X165038529Y-121296915D01*
X165010355Y-121310909D01*
X164981772Y-121317268D01*
X164962178Y-121313718D01*
X164936336Y-121296466D01*
X164934767Y-121294545D01*
X165015423Y-121294545D01*
X165021712Y-121291064D01*
X165024521Y-121286851D01*
X165017499Y-121289660D01*
X165015423Y-121294545D01*
X164934767Y-121294545D01*
X164910735Y-121265125D01*
X164890762Y-121225363D01*
X165079109Y-121225363D01*
X165080514Y-121229576D01*
X165081918Y-121223959D01*
X165079109Y-121225363D01*
X164890762Y-121225363D01*
X164885302Y-121214494D01*
X164870587Y-121182376D01*
X164861489Y-121176759D01*
X164848300Y-121183781D01*
X164839202Y-121193489D01*
X164821006Y-121224264D01*
X164791635Y-121266213D01*
X164784357Y-121278260D01*
X164783942Y-121284409D01*
X164783994Y-121288547D01*
X164779790Y-121289965D01*
X164775307Y-121292069D01*
X164773500Y-121299735D01*
X164771363Y-121309505D01*
X164763670Y-121317931D01*
X164743254Y-121345579D01*
X164722942Y-121359819D01*
X164693612Y-121366424D01*
X164671040Y-121358414D01*
X164646494Y-121333257D01*
X164644752Y-121330204D01*
X164738940Y-121330204D01*
X164745229Y-121324587D01*
X164748710Y-121316221D01*
X164742420Y-121321778D01*
X164738940Y-121330204D01*
X164644752Y-121330204D01*
X164628970Y-121302544D01*
X164622680Y-121287889D01*
X164619139Y-121275311D01*
X164611445Y-121259923D01*
X164607232Y-121250154D01*
X164603019Y-121240323D01*
X164597401Y-121231958D01*
X164605156Y-121228477D01*
X164613521Y-121225668D01*
X164606499Y-121224264D01*
X164598134Y-121218646D01*
X164597951Y-121217303D01*
X164600943Y-121217303D01*
X164606499Y-121215899D01*
X164600943Y-121204724D01*
X164594592Y-121194222D01*
X164591112Y-121183781D01*
X164592883Y-121179567D01*
X164590196Y-121169798D01*
X164584090Y-121154410D01*
X164584090Y-121122964D01*
X164585479Y-121100372D01*
X164587448Y-121097074D01*
X164588120Y-121092861D01*
X164586220Y-121082352D01*
X164588120Y-121038334D01*
X164599050Y-120944667D01*
X164600873Y-120924278D01*
X164598378Y-120915358D01*
X164591533Y-120910460D01*
X164576213Y-120908336D01*
X164561053Y-120906190D01*
X164554659Y-120901314D01*
X164550171Y-120887499D01*
X164553254Y-120867791D01*
X164562506Y-120852042D01*
X164572855Y-120849595D01*
X164580109Y-120848165D01*
X164592883Y-120838421D01*
X164618162Y-120806303D01*
X164627490Y-120786418D01*
X164628120Y-120779498D01*
X164754327Y-120779498D01*
X164755732Y-120783650D01*
X164759884Y-120780902D01*
X164758479Y-120776689D01*
X164754327Y-120779498D01*
X164628120Y-120779498D01*
X164628359Y-120776872D01*
X164629031Y-120762217D01*
X164631778Y-120741274D01*
X164634287Y-120728414D01*
X164640999Y-120721001D01*
X164650951Y-120709095D01*
X164653613Y-120703866D01*
X164661637Y-120699325D01*
X164673055Y-120693036D01*
X164673055Y-120690960D01*
X164670186Y-120691631D01*
X164667316Y-120690227D01*
X164669195Y-120688195D01*
X164678734Y-120690227D01*
X164729964Y-120694440D01*
X164759456Y-120697249D01*
X164765013Y-120716239D01*
X164765013Y-120739320D01*
X164761532Y-120756905D01*
X164758052Y-120763194D01*
X164758052Y-120770155D01*
X164760861Y-120772964D01*
X164764424Y-120776805D01*
X164764280Y-120783528D01*
X164760800Y-120799648D01*
X164756648Y-120815035D01*
X164753839Y-120827675D01*
X164751030Y-120859854D01*
X164745412Y-120882385D01*
X164745412Y-120880919D01*
X164742604Y-120873897D01*
X164742604Y-120880919D01*
X164741019Y-120887516D01*
X164737047Y-120889346D01*
X164734238Y-120889346D01*
X164737047Y-120892155D01*
X164740334Y-120895623D01*
X164739123Y-120900581D01*
X164737719Y-120908336D01*
X164737047Y-120913160D01*
X164731368Y-120932149D01*
X164731368Y-120941534D01*
X164731918Y-120940454D01*
X164736803Y-120938378D01*
X164738940Y-120941858D01*
X164734727Y-120946071D01*
X164731368Y-120945088D01*
X164731368Y-120949613D01*
X164732834Y-120955230D01*
X164729964Y-120955230D01*
X164725690Y-120956635D01*
X164729231Y-120960848D01*
X164727094Y-120967870D01*
X164722087Y-120986127D01*
X164722820Y-121001514D01*
X164723492Y-121018367D01*
X164720683Y-121036563D01*
X164722148Y-121043585D01*
X164722820Y-121049874D01*
X164720744Y-121054088D01*
X164723553Y-121082847D01*
X164729964Y-121133283D01*
X164734238Y-121168332D01*
X164732834Y-121162776D01*
X164725860Y-121135435D01*
X164720255Y-121095670D01*
X164716042Y-121070452D01*
X164714638Y-121067643D01*
X164714638Y-121074665D01*
X164713233Y-121094266D01*
X164713233Y-121106172D01*
X164717447Y-121126445D01*
X164723914Y-121171262D01*
X164734238Y-121210281D01*
X164739123Y-121224264D01*
X164742604Y-121233362D01*
X164745412Y-121237575D01*
X164748221Y-121236842D01*
X164748221Y-121229881D01*
X164742604Y-121209609D01*
X164738451Y-121189337D01*
X164738451Y-121185124D01*
X164743336Y-121195626D01*
X164751030Y-121212418D01*
X164757372Y-121218653D01*
X164763670Y-121218646D01*
X164798779Y-121173950D01*
X164837309Y-121110996D01*
X164850396Y-121082637D01*
X164852085Y-121073261D01*
X164853490Y-121069048D01*
X164857703Y-121070452D01*
X164857703Y-121062087D01*
X164853490Y-121060011D01*
X164850681Y-121059278D01*
X164849277Y-121044623D01*
X164850681Y-121034121D01*
X164853490Y-121042486D01*
X164854162Y-121049508D01*
X164857703Y-121049508D01*
X164859779Y-121046028D01*
X164856299Y-121040410D01*
X164859046Y-121034121D01*
X164859046Y-121022947D01*
X164857642Y-121008292D01*
X164856238Y-121003346D01*
X164853490Y-121014581D01*
X164850681Y-121027099D01*
X164847872Y-121013177D01*
X164849277Y-120992172D01*
X164851518Y-120971717D01*
X164853490Y-120971717D01*
X164853490Y-120989852D01*
X164854894Y-120997545D01*
X164856970Y-120980754D01*
X164858375Y-120957673D01*
X164857642Y-120951384D01*
X164854894Y-120952788D01*
X164853490Y-120971717D01*
X164851518Y-120971717D01*
X164858564Y-120907411D01*
X164877365Y-120830056D01*
X164889943Y-120786764D01*
X164885730Y-120774124D01*
X164885730Y-120772720D01*
X164889943Y-120771377D01*
X164891348Y-120764355D01*
X164906206Y-120719913D01*
X164930121Y-120685342D01*
X164952897Y-120669833D01*
X164975733Y-120662750D01*
X164983171Y-120660765D01*
X164989594Y-120654384D01*
X164999092Y-120646636D01*
X165006386Y-120651575D01*
G37*
G36*
X165098710Y-121219745D02*
G01*
X165097305Y-121215593D01*
X165098710Y-121211380D01*
X165098710Y-121219745D01*
G37*
G36*
X165085398Y-121169492D02*
G01*
X165083994Y-121176453D01*
X165081185Y-121179262D01*
X165078376Y-121175721D01*
X165081185Y-121167355D01*
X165085398Y-121163875D01*
X165085398Y-121169492D01*
G37*
G36*
X164728621Y-120996385D02*
G01*
X164727216Y-120996385D01*
X164728621Y-120985211D01*
X164730025Y-120985211D01*
X164728621Y-120996385D01*
G37*
G36*
X164741688Y-120930440D02*
G01*
X164738879Y-120931844D01*
X164736131Y-120929035D01*
X164738879Y-120927631D01*
X164741688Y-120930440D01*
G37*
G36*
X164883776Y-120781574D02*
G01*
X164883104Y-120786459D01*
X164878891Y-120790672D01*
X164877487Y-120797633D01*
X164874739Y-120799037D01*
X164874006Y-120794152D01*
X164877487Y-120784382D01*
X164880296Y-120779498D01*
X164883776Y-120781574D01*
G37*
G36*
X165396869Y-121172729D02*
G01*
X165417874Y-121172729D01*
X165440283Y-121176637D01*
X165452862Y-121180544D01*
X165482232Y-121186895D01*
X165506046Y-121197397D01*
X165520090Y-121205824D01*
X165531173Y-121215729D01*
X165542438Y-121235377D01*
X165549826Y-121258222D01*
X165552269Y-121281661D01*
X165549226Y-121296088D01*
X165536149Y-121325197D01*
X165518870Y-121353941D01*
X165501894Y-121374351D01*
X165455083Y-121410925D01*
X165399678Y-121440358D01*
X165379763Y-121447499D01*
X165352051Y-121450188D01*
X165317063Y-121451593D01*
X165333854Y-121441823D01*
X165363974Y-121424710D01*
X165387710Y-121405553D01*
X165408791Y-121381975D01*
X165433261Y-121346996D01*
X165447244Y-121321228D01*
X165444960Y-121316943D01*
X165434666Y-121310787D01*
X165413661Y-121297537D01*
X165397541Y-121284958D01*
X165388443Y-121273112D01*
X165379345Y-121251497D01*
X165374704Y-121235689D01*
X165375864Y-121214555D01*
X165384226Y-121184781D01*
X165396869Y-121172729D01*
G37*
G36*
X166965763Y-120559130D02*
G01*
X166996521Y-120571082D01*
X167025358Y-120590637D01*
X167050125Y-120615659D01*
X167069505Y-120644431D01*
X167080740Y-120673802D01*
X167083549Y-120684915D01*
X167089268Y-120706278D01*
X167091976Y-120754829D01*
X167089448Y-120804082D01*
X167083671Y-120830300D01*
X167078115Y-120849901D01*
X167069872Y-120869440D01*
X167062972Y-120882751D01*
X167059552Y-120888308D01*
X167039524Y-120915541D01*
X167020034Y-120941837D01*
X167006430Y-120954681D01*
X167004070Y-120958499D01*
X167012047Y-120963962D01*
X167017665Y-120966649D01*
X167052714Y-120971961D01*
X167058270Y-120972633D01*
X167058270Y-120977273D01*
X167053182Y-120979832D01*
X167035189Y-120981242D01*
X167017776Y-120982773D01*
X167014856Y-120985211D01*
X167022161Y-120989089D01*
X167077932Y-120998339D01*
X167089702Y-121000839D01*
X167091976Y-121003529D01*
X167084954Y-121004873D01*
X167079336Y-121006277D01*
X167090571Y-121010490D01*
X167100341Y-121008414D01*
X167103821Y-121004873D01*
X167105226Y-121007682D01*
X167108035Y-121012627D01*
X167114324Y-121011223D01*
X167118537Y-121007682D01*
X167119209Y-121010490D01*
X167120613Y-121013299D01*
X167124155Y-121010490D01*
X167126963Y-121007682D01*
X167128368Y-121010490D01*
X167129039Y-121012627D01*
X167133924Y-121014703D01*
X167139542Y-121016780D01*
X167145831Y-121018184D01*
X167150777Y-121018856D01*
X167156334Y-121013971D01*
X167159455Y-121010896D01*
X167168973Y-121010490D01*
X167183284Y-121012484D01*
X167185765Y-121010490D01*
X167180147Y-121007682D01*
X167174530Y-121003590D01*
X167166103Y-120999866D01*
X167156334Y-121001148D01*
X167146564Y-121001759D01*
X167141838Y-120998116D01*
X167142351Y-120994737D01*
X167145929Y-120992355D01*
X167160547Y-120991012D01*
X167194580Y-120994799D01*
X167210983Y-121003468D01*
X167218615Y-121011895D01*
X167213731Y-121014642D01*
X167208489Y-121019431D01*
X167215135Y-121022947D01*
X167228446Y-121031984D01*
X167230583Y-121040960D01*
X167230522Y-121053477D01*
X167231255Y-121061781D01*
X167227775Y-121069414D01*
X167228285Y-121076337D01*
X167232659Y-121081931D01*
X167235979Y-121085745D01*
X167233331Y-121086755D01*
X167228389Y-121089748D01*
X167229179Y-121102020D01*
X167227775Y-121111729D01*
X167226370Y-121115942D01*
X167231988Y-121118629D01*
X167235555Y-121122453D01*
X167235407Y-121129070D01*
X167231988Y-121138107D01*
X167223417Y-121140558D01*
X167196939Y-121136703D01*
X167160699Y-121130781D01*
X167142290Y-121135298D01*
X167132520Y-121139512D01*
X167136672Y-121135298D01*
X167136672Y-121133955D01*
X167112858Y-121138107D01*
X167090449Y-121140916D01*
X167072925Y-121138107D01*
X167051920Y-121137436D01*
X167033663Y-121139512D01*
X167016871Y-121142259D01*
X167014062Y-121142259D01*
X167011253Y-121139512D01*
X167006368Y-121142992D01*
X167000751Y-121147755D01*
X166989177Y-121149341D01*
X166986768Y-121146411D01*
X166982226Y-121143765D01*
X166953124Y-121150564D01*
X166935599Y-121152640D01*
X166928577Y-121154044D01*
X166894200Y-121164363D01*
X166803097Y-121187872D01*
X166776928Y-121199051D01*
X166758218Y-121211380D01*
X166737823Y-121219623D01*
X166714681Y-121226645D01*
X166683966Y-121237250D01*
X166662841Y-121232202D01*
X166652288Y-121222758D01*
X166636157Y-121196603D01*
X166624055Y-121168412D01*
X166622174Y-121155326D01*
X166619366Y-121142809D01*
X166614000Y-121125651D01*
X167135329Y-121125651D01*
X167140946Y-121129803D01*
X167143755Y-121127055D01*
X167136762Y-121123848D01*
X167135329Y-121125651D01*
X166614000Y-121125651D01*
X166611262Y-121116896D01*
X166612952Y-121099402D01*
X166622174Y-121086938D01*
X166624983Y-121068742D01*
X166628464Y-121033999D01*
X166633188Y-121021419D01*
X166637562Y-121018672D01*
X166642198Y-121016453D01*
X166646721Y-121007559D01*
X166649849Y-121003102D01*
X167060285Y-121003102D01*
X167061018Y-121005911D01*
X167065903Y-121003102D01*
X167060285Y-121003102D01*
X166649849Y-121003102D01*
X166656491Y-120993638D01*
X166662841Y-120988081D01*
X166671939Y-120977701D01*
X166689463Y-120968603D01*
X166764507Y-120935080D01*
X166857808Y-120887575D01*
X166915113Y-120847669D01*
X166953624Y-120806359D01*
X166976998Y-120763194D01*
X166982555Y-120725459D01*
X166976998Y-120686319D01*
X166961622Y-120661939D01*
X166939141Y-120648583D01*
X166920972Y-120645349D01*
X166895604Y-120646507D01*
X166870131Y-120651731D01*
X166849320Y-120659758D01*
X166830542Y-120673174D01*
X166810791Y-120693341D01*
X166794473Y-120716324D01*
X166784840Y-120738037D01*
X166773605Y-120766736D01*
X166769392Y-120781391D01*
X166767316Y-120789084D01*
X166758889Y-120791160D01*
X166754005Y-120787008D01*
X166745517Y-120781391D01*
X166733456Y-120770204D01*
X166728725Y-120746464D01*
X166733856Y-120715021D01*
X166751867Y-120673802D01*
X166777951Y-120634961D01*
X166808654Y-120603887D01*
X166852862Y-120571769D01*
X166888582Y-120559130D01*
X166930855Y-120554951D01*
X166965763Y-120559130D01*
G37*
G36*
X167199973Y-121146594D02*
G01*
X167194680Y-121149892D01*
X167191932Y-121148488D01*
X167196084Y-121145679D01*
X167199973Y-121146594D01*
G37*
G36*
X167151327Y-121011528D02*
G01*
X167146381Y-121013604D01*
X167137283Y-121011528D01*
X167137283Y-121008720D01*
X167145709Y-121005911D01*
X167151327Y-121011528D01*
G37*
G36*
X167131726Y-121003102D02*
G01*
X167124704Y-121003102D01*
X167128917Y-121001698D01*
X167131726Y-121003102D01*
G37*
G36*
X167117682Y-120986371D02*
G01*
X167114202Y-120988447D01*
X167110721Y-120984967D01*
X167115606Y-120983563D01*
X167117682Y-120986371D01*
G37*
G36*
X167093930Y-120984051D02*
G01*
X167086908Y-120986860D01*
X167079886Y-120984051D01*
X167086908Y-120981242D01*
X167093930Y-120984051D01*
G37*
G36*
X167106508Y-120984967D02*
G01*
X167100890Y-120984967D01*
X167105104Y-120983563D01*
X167106508Y-120984967D01*
G37*
G36*
X167070116Y-120982158D02*
G01*
X167064498Y-120982158D01*
X167067307Y-120980754D01*
X167070116Y-120982158D01*
G37*
G36*
X167693331Y-120524680D02*
G01*
X167739402Y-120533362D01*
X167772914Y-120544095D01*
X167804920Y-120562732D01*
X167845282Y-120599796D01*
X167867100Y-120624471D01*
X167874591Y-120636799D01*
X167888825Y-120677000D01*
X167899687Y-120745853D01*
X167898954Y-120812287D01*
X167894069Y-120856373D01*
X167890689Y-120901759D01*
X167879903Y-120952849D01*
X167869950Y-120991378D01*
X167862867Y-121013055D01*
X167853708Y-121034060D01*
X167848762Y-121048043D01*
X167828917Y-121089991D01*
X167828917Y-121094143D01*
X167833130Y-121094143D01*
X167828917Y-121096952D01*
X167819636Y-121102570D01*
X167814690Y-121112401D01*
X167810477Y-121126384D01*
X167806203Y-121136153D01*
X167803394Y-121127788D01*
X167799181Y-121119362D01*
X167792220Y-121130414D01*
X167782389Y-121147694D01*
X167778176Y-121153922D01*
X167775367Y-121160883D01*
X167771839Y-121167969D01*
X167754484Y-121183048D01*
X167727862Y-121203809D01*
X167723649Y-121213517D01*
X167719496Y-121217608D01*
X167709727Y-121223897D01*
X167706918Y-121230065D01*
X167704109Y-121231469D01*
X167697820Y-121231530D01*
X167671930Y-121240506D01*
X167643293Y-121252291D01*
X167635599Y-121255771D01*
X167630653Y-121257176D01*
X167617403Y-121262793D01*
X167609505Y-121262927D01*
X167607633Y-121259984D01*
X167611846Y-121257847D01*
X167621616Y-121255771D01*
X167631386Y-121250886D01*
X167618868Y-121250886D01*
X167579667Y-121250886D01*
X167552373Y-121253695D01*
X167544992Y-121254034D01*
X167509020Y-121246673D01*
X167455226Y-121229943D01*
X167437147Y-121217207D01*
X167413277Y-121193489D01*
X167384325Y-121151880D01*
X167367115Y-121112401D01*
X167351728Y-121057812D01*
X167348919Y-121013116D01*
X167350525Y-120963691D01*
X167486625Y-120963691D01*
X167492839Y-120990340D01*
X167494244Y-121007132D01*
X167494915Y-121019039D01*
X167502548Y-121026671D01*
X167507064Y-121030527D01*
X167506700Y-121036502D01*
X167506812Y-121048288D01*
X167513661Y-121065872D01*
X167524609Y-121081794D01*
X167535948Y-121090968D01*
X167562602Y-121096473D01*
X167596964Y-121090104D01*
X167642926Y-121067216D01*
X167659377Y-121052757D01*
X167681883Y-121024595D01*
X167701769Y-120992867D01*
X167715222Y-120963779D01*
X167726605Y-120925590D01*
X167748622Y-120825415D01*
X167751431Y-120784932D01*
X167750351Y-120768262D01*
X167876484Y-120768262D01*
X167879415Y-120845199D01*
X167882345Y-120847947D01*
X167888207Y-120784993D01*
X167886221Y-120760058D01*
X167882345Y-120751471D01*
X167876484Y-120745853D01*
X167876484Y-120768262D01*
X167750351Y-120768262D01*
X167748622Y-120741579D01*
X167737448Y-120707324D01*
X167712291Y-120681434D01*
X167682921Y-120660490D01*
X167681388Y-120659880D01*
X167862501Y-120659880D01*
X167863905Y-120673863D01*
X167868118Y-120682900D01*
X167873826Y-120691522D01*
X167876484Y-120713674D01*
X167879415Y-120727657D01*
X167880880Y-120733275D01*
X167883750Y-120737427D01*
X167886742Y-120731870D01*
X167882345Y-120712270D01*
X167873064Y-120673863D01*
X167863905Y-120652186D01*
X167862501Y-120659880D01*
X167681388Y-120659880D01*
X167673061Y-120656567D01*
X167655688Y-120654934D01*
X167622776Y-120660490D01*
X167608793Y-120669234D01*
X167587850Y-120689861D01*
X167556891Y-120728992D01*
X167529170Y-120776506D01*
X167505418Y-120822606D01*
X167497052Y-120840803D01*
X167497052Y-120853381D01*
X167498974Y-120857801D01*
X167496320Y-120870844D01*
X167491435Y-120918350D01*
X167488626Y-120954009D01*
X167486625Y-120963691D01*
X167350525Y-120963691D01*
X167351069Y-120946967D01*
X167355941Y-120912305D01*
X167357284Y-120899055D01*
X167358017Y-120894902D01*
X167360765Y-120871089D01*
X167364245Y-120846603D01*
X167367054Y-120838177D01*
X167368928Y-120825495D01*
X167372611Y-120822790D01*
X167374015Y-120832620D01*
X167374015Y-120840986D01*
X167375419Y-120838177D01*
X167376824Y-120823522D01*
X167378228Y-120814424D01*
X167379633Y-120807463D01*
X167380707Y-120793409D01*
X167393615Y-120758432D01*
X167402042Y-120738221D01*
X167408942Y-120731931D01*
X167411018Y-120731260D01*
X167410346Y-120729123D01*
X167412306Y-120721760D01*
X167429947Y-120688517D01*
X167442586Y-120674534D01*
X167442586Y-120680152D01*
X167442586Y-120685708D01*
X167448143Y-120677343D01*
X167457912Y-120663360D01*
X167463530Y-120650782D01*
X167466278Y-120643760D01*
X167477391Y-120634723D01*
X167485756Y-120622816D01*
X167502524Y-120604742D01*
X167676143Y-120604742D01*
X167688722Y-120608283D01*
X167714612Y-120606879D01*
X167729327Y-120601994D01*
X167723038Y-120595705D01*
X167708994Y-120592896D01*
X167689394Y-120597781D01*
X167676143Y-120604742D01*
X167502524Y-120604742D01*
X167504563Y-120602544D01*
X167527583Y-120582272D01*
X167534605Y-120578119D01*
X167538226Y-120573493D01*
X167560372Y-120559252D01*
X167593101Y-120544536D01*
X167609831Y-120538979D01*
X167634805Y-120530087D01*
X167673945Y-120523592D01*
X167693331Y-120524680D01*
G37*
G36*
X167824521Y-121106783D02*
G01*
X167821712Y-121107516D01*
X167823117Y-121105379D01*
X167830139Y-121102631D01*
X167824521Y-121106783D01*
G37*
G36*
X168370648Y-120559130D02*
G01*
X168401406Y-120571082D01*
X168430243Y-120590637D01*
X168455010Y-120615659D01*
X168474390Y-120644431D01*
X168485625Y-120673802D01*
X168488434Y-120684915D01*
X168494153Y-120706278D01*
X168496860Y-120754829D01*
X168494332Y-120804082D01*
X168488556Y-120830300D01*
X168483000Y-120849901D01*
X168474756Y-120869440D01*
X168467857Y-120882751D01*
X168464437Y-120888308D01*
X168444409Y-120915541D01*
X168424919Y-120941837D01*
X168411314Y-120954681D01*
X168408955Y-120958499D01*
X168416932Y-120963962D01*
X168422550Y-120966649D01*
X168457598Y-120971961D01*
X168463155Y-120972633D01*
X168463155Y-120977273D01*
X168458067Y-120979832D01*
X168440074Y-120981242D01*
X168422661Y-120982773D01*
X168419741Y-120985211D01*
X168427046Y-120989089D01*
X168482816Y-120998339D01*
X168494587Y-121000839D01*
X168496860Y-121003529D01*
X168489838Y-121004873D01*
X168484221Y-121006277D01*
X168495456Y-121010490D01*
X168505226Y-121008414D01*
X168508706Y-121004873D01*
X168510111Y-121007682D01*
X168512919Y-121012627D01*
X168519209Y-121011223D01*
X168523422Y-121007682D01*
X168524093Y-121010490D01*
X168525498Y-121013299D01*
X168529039Y-121010490D01*
X168531848Y-121007682D01*
X168533253Y-121010490D01*
X168533924Y-121012627D01*
X168538809Y-121014703D01*
X168544427Y-121016780D01*
X168550716Y-121018184D01*
X168555662Y-121018856D01*
X168561218Y-121013971D01*
X168564340Y-121010896D01*
X168573858Y-121010490D01*
X168588169Y-121012484D01*
X168590650Y-121010490D01*
X168585032Y-121007682D01*
X168579415Y-121003590D01*
X168570988Y-120999866D01*
X168561218Y-121001148D01*
X168551449Y-121001759D01*
X168546723Y-120998116D01*
X168547236Y-120994737D01*
X168550814Y-120992355D01*
X168565432Y-120991012D01*
X168599465Y-120994799D01*
X168615868Y-121003468D01*
X168623500Y-121011895D01*
X168618615Y-121014642D01*
X168613374Y-121019431D01*
X168620020Y-121022947D01*
X168633331Y-121031984D01*
X168635468Y-121040960D01*
X168635407Y-121053477D01*
X168636140Y-121061781D01*
X168632659Y-121069414D01*
X168633170Y-121076337D01*
X168637544Y-121081931D01*
X168640864Y-121085745D01*
X168638216Y-121086755D01*
X168633274Y-121089748D01*
X168634064Y-121102020D01*
X168632659Y-121111729D01*
X168631255Y-121115942D01*
X168636873Y-121118629D01*
X168640440Y-121122453D01*
X168640292Y-121129070D01*
X168636873Y-121138107D01*
X168628301Y-121140558D01*
X168601824Y-121136703D01*
X168565584Y-121130781D01*
X168547174Y-121135298D01*
X168537405Y-121139512D01*
X168541557Y-121135298D01*
X168541557Y-121133955D01*
X168517743Y-121138107D01*
X168495334Y-121140916D01*
X168477809Y-121138107D01*
X168456805Y-121137436D01*
X168438547Y-121139512D01*
X168421756Y-121142259D01*
X168418947Y-121142259D01*
X168416138Y-121139512D01*
X168411253Y-121142992D01*
X168405636Y-121147755D01*
X168394062Y-121149341D01*
X168391653Y-121146411D01*
X168387111Y-121143765D01*
X168358008Y-121150564D01*
X168340484Y-121152640D01*
X168333462Y-121154044D01*
X168299085Y-121164363D01*
X168207982Y-121187872D01*
X168181813Y-121199051D01*
X168163103Y-121211380D01*
X168142708Y-121219623D01*
X168119566Y-121226645D01*
X168088851Y-121237250D01*
X168067726Y-121232202D01*
X168057173Y-121222758D01*
X168041042Y-121196603D01*
X168028940Y-121168412D01*
X168027059Y-121155326D01*
X168024251Y-121142809D01*
X168018885Y-121125651D01*
X168540214Y-121125651D01*
X168545831Y-121129803D01*
X168548640Y-121127055D01*
X168541646Y-121123848D01*
X168540214Y-121125651D01*
X168018885Y-121125651D01*
X168016147Y-121116896D01*
X168017837Y-121099402D01*
X168027059Y-121086938D01*
X168029868Y-121068742D01*
X168033349Y-121033999D01*
X168038073Y-121021419D01*
X168042447Y-121018672D01*
X168047083Y-121016453D01*
X168051606Y-121007559D01*
X168054734Y-121003102D01*
X168465170Y-121003102D01*
X168465903Y-121005911D01*
X168470787Y-121003102D01*
X168465170Y-121003102D01*
X168054734Y-121003102D01*
X168061375Y-120993638D01*
X168067726Y-120988081D01*
X168076824Y-120977701D01*
X168094348Y-120968603D01*
X168169392Y-120935080D01*
X168262693Y-120887575D01*
X168319998Y-120847669D01*
X168358509Y-120806359D01*
X168381883Y-120763194D01*
X168387440Y-120725459D01*
X168381883Y-120686319D01*
X168366506Y-120661939D01*
X168344025Y-120648583D01*
X168325857Y-120645349D01*
X168300489Y-120646507D01*
X168275016Y-120651731D01*
X168254205Y-120659758D01*
X168235427Y-120673174D01*
X168215676Y-120693341D01*
X168199358Y-120716324D01*
X168189725Y-120738037D01*
X168178490Y-120766736D01*
X168174277Y-120781391D01*
X168172201Y-120789084D01*
X168163774Y-120791160D01*
X168158889Y-120787008D01*
X168150402Y-120781391D01*
X168138341Y-120770204D01*
X168133610Y-120746464D01*
X168138740Y-120715021D01*
X168156752Y-120673802D01*
X168182836Y-120634961D01*
X168213539Y-120603887D01*
X168257747Y-120571769D01*
X168293467Y-120559130D01*
X168335740Y-120554951D01*
X168370648Y-120559130D01*
G37*
G36*
X168604858Y-121146594D02*
G01*
X168599565Y-121149892D01*
X168596817Y-121148488D01*
X168600969Y-121145679D01*
X168604858Y-121146594D01*
G37*
G36*
X168556211Y-121011528D02*
G01*
X168551266Y-121013604D01*
X168542167Y-121011528D01*
X168542167Y-121008720D01*
X168550594Y-121005911D01*
X168556211Y-121011528D01*
G37*
G36*
X168536611Y-121003102D02*
G01*
X168529589Y-121003102D01*
X168533802Y-121001698D01*
X168536611Y-121003102D01*
G37*
G36*
X168522567Y-120986371D02*
G01*
X168519087Y-120988447D01*
X168515606Y-120984967D01*
X168520491Y-120983563D01*
X168522567Y-120986371D01*
G37*
G36*
X168498814Y-120984051D02*
G01*
X168491792Y-120986860D01*
X168484770Y-120984051D01*
X168491792Y-120981242D01*
X168498814Y-120984051D01*
G37*
G36*
X168511393Y-120984967D02*
G01*
X168505775Y-120984967D01*
X168509988Y-120983563D01*
X168511393Y-120984967D01*
G37*
G36*
X168475001Y-120982158D02*
G01*
X168469383Y-120982158D01*
X168472192Y-120980754D01*
X168475001Y-120982158D01*
G37*
G36*
X168837396Y-121295461D02*
G01*
X168835320Y-121298269D01*
X168823413Y-121299674D01*
X168819872Y-121300407D01*
X168823413Y-121296865D01*
X168830478Y-121293727D01*
X168837396Y-121295461D01*
G37*
G36*
X169351649Y-120489459D02*
G01*
X169365208Y-120491702D01*
X169375463Y-120498069D01*
X169401353Y-120513761D01*
X169414664Y-120518097D01*
X169420953Y-120523104D01*
X169421625Y-120528111D01*
X169416740Y-120533789D01*
X169412472Y-120539562D01*
X169413931Y-120543864D01*
X169418144Y-120562427D01*
X169420221Y-120582455D01*
X169419810Y-120587514D01*
X169413199Y-120593140D01*
X169398422Y-120598147D01*
X169392804Y-120601017D01*
X169380104Y-120608161D01*
X169351894Y-120613901D01*
X169294746Y-120618126D01*
X169239746Y-120630716D01*
X169186297Y-120651820D01*
X169162422Y-120661650D01*
X169138609Y-120671420D01*
X169118947Y-120683388D01*
X169103499Y-120703782D01*
X169086699Y-120735064D01*
X169082433Y-120754341D01*
X169088901Y-120768268D01*
X169114673Y-120782367D01*
X169172419Y-120811845D01*
X169219625Y-120852664D01*
X169257555Y-120906015D01*
X169275968Y-120949080D01*
X169281368Y-120983929D01*
X169275790Y-121019253D01*
X169256150Y-121066056D01*
X169230261Y-121105440D01*
X169207851Y-121130719D01*
X169181901Y-121147572D01*
X169162134Y-121160358D01*
X169153935Y-121163020D01*
X169140624Y-121167905D01*
X169138547Y-121178468D01*
X169135006Y-121185429D01*
X169124503Y-121189642D01*
X169119120Y-121188415D01*
X169120290Y-121185429D01*
X169127312Y-121181155D01*
X169132930Y-121178407D01*
X169120290Y-121181155D01*
X169108437Y-121186789D01*
X169109055Y-121192390D01*
X169113329Y-121193795D01*
X169114734Y-121191047D01*
X169117543Y-121191047D01*
X169120962Y-121196603D01*
X169110521Y-121202221D01*
X169099285Y-121209243D01*
X169093668Y-121212052D01*
X169087362Y-121210139D01*
X169093668Y-121203625D01*
X169097881Y-121202221D01*
X169106246Y-121192390D01*
X169091531Y-121198679D01*
X169076876Y-121206373D01*
X169067045Y-121209182D01*
X169062832Y-121212723D01*
X169045308Y-121221882D01*
X169027844Y-121228843D01*
X169029920Y-121231591D01*
X169035538Y-121230919D01*
X169041888Y-121227439D01*
X169054406Y-121223226D01*
X169067045Y-121219013D01*
X169077951Y-121215859D01*
X169086646Y-121217608D01*
X169075411Y-121228111D01*
X169061367Y-121234400D01*
X169057215Y-121237209D01*
X169027051Y-121254000D01*
X168986995Y-121272197D01*
X168958275Y-121280401D01*
X168944924Y-121280623D01*
X168940772Y-121279951D01*
X168944924Y-121284164D01*
X168948404Y-121287645D01*
X168943581Y-121289049D01*
X168932284Y-121283371D01*
X168929476Y-121280623D01*
X168930880Y-121284836D01*
X168929476Y-121289782D01*
X168909814Y-121290454D01*
X168887405Y-121289049D01*
X168902853Y-121286240D01*
X168919706Y-121283493D01*
X168928804Y-121278608D01*
X168937963Y-121273662D01*
X168940039Y-121272258D01*
X168946328Y-121269449D01*
X168947809Y-121265512D01*
X168939978Y-121263831D01*
X168893022Y-121272258D01*
X168864995Y-121275799D01*
X168836969Y-121280684D01*
X168822529Y-121280499D01*
X168814498Y-121272258D01*
X168808881Y-121262427D01*
X168799050Y-121271586D01*
X168790948Y-121278131D01*
X168787143Y-121277875D01*
X168785067Y-121262427D01*
X168785067Y-121259806D01*
X168953044Y-121259806D01*
X168953595Y-121264503D01*
X168962693Y-121268716D01*
X168970386Y-121264503D01*
X168976675Y-121260290D01*
X168983697Y-121256809D01*
X168989987Y-121253329D01*
X168995604Y-121250520D01*
X168996276Y-121245635D01*
X168976004Y-121251924D01*
X168967577Y-121254061D01*
X168957075Y-121256809D01*
X168953044Y-121259806D01*
X168785067Y-121259806D01*
X168785067Y-121251253D01*
X168776641Y-121247040D01*
X168759849Y-121244902D01*
X168751423Y-121243559D01*
X168755636Y-121231591D01*
X168761008Y-121219158D01*
X168765466Y-121192390D01*
X168772427Y-121167905D01*
X168785739Y-121146900D01*
X168796241Y-121127971D01*
X168802579Y-121114563D01*
X168807476Y-121118201D01*
X168815842Y-121121010D01*
X168822925Y-121123147D01*
X168834831Y-121125223D01*
X168846738Y-121127299D01*
X168851623Y-121129376D01*
X168864934Y-121127299D01*
X168880383Y-121122415D01*
X168899098Y-121115792D01*
X168891557Y-121121010D01*
X168881787Y-121126628D01*
X168890152Y-121125223D01*
X168922454Y-121112645D01*
X168942115Y-121104219D01*
X168939306Y-121108432D01*
X168926667Y-121115393D01*
X168922515Y-121118201D01*
X168927399Y-121118934D01*
X168935765Y-121116125D01*
X168942115Y-121112645D01*
X168949137Y-121109836D01*
X168964524Y-121105623D01*
X169006656Y-121086022D01*
X169013678Y-121077596D01*
X169019235Y-121072040D01*
X169026928Y-121069963D01*
X169032607Y-121068559D01*
X169048055Y-121058057D01*
X169066313Y-121045417D01*
X169078219Y-121039738D01*
X169082433Y-121036991D01*
X169079624Y-121044013D01*
X169078219Y-121046821D01*
X169085241Y-121042608D01*
X169086646Y-121035586D01*
X169090859Y-121031373D01*
X169099957Y-121026488D01*
X169114673Y-121014581D01*
X169142761Y-120990707D01*
X169161990Y-120964912D01*
X169168040Y-120937462D01*
X169163274Y-120921430D01*
X169145569Y-120901070D01*
X169124503Y-120889895D01*
X169103499Y-120882873D01*
X169086362Y-120888742D01*
X169057215Y-120913587D01*
X169037553Y-120933187D01*
X169017953Y-120934592D01*
X168997015Y-120933149D01*
X168965990Y-120924761D01*
X168922453Y-120906861D01*
X168907066Y-120895452D01*
X168891884Y-120875565D01*
X168888809Y-120867486D01*
X168885915Y-120850830D01*
X168877635Y-120838177D01*
X168861937Y-120816138D01*
X168857973Y-120801907D01*
X168864038Y-120779966D01*
X168883192Y-120762828D01*
X168898150Y-120753272D01*
X168907677Y-120742678D01*
X168923797Y-120721001D01*
X168979851Y-120654079D01*
X169014600Y-120613200D01*
X169047017Y-120567495D01*
X169080601Y-120521455D01*
X169101606Y-120507533D01*
X169124015Y-120500572D01*
X169141539Y-120506190D01*
X169153507Y-120518707D01*
X169163277Y-120524325D01*
X169303289Y-120488788D01*
X169322218Y-120488116D01*
X169351649Y-120489459D01*
G37*
G36*
X168840876Y-121117774D02*
G01*
X168835992Y-121121926D01*
X168837396Y-121116309D01*
X168841609Y-121112156D01*
X168840876Y-121117774D01*
G37*
D12*
X136859523Y-98924619D02*
X137526190Y-98924619D01*
X137811904Y-99972238D02*
X136859523Y-99972238D01*
X136859523Y-99972238D02*
X136859523Y-97972238D01*
X136859523Y-97972238D02*
X137811904Y-97972238D01*
X138573809Y-99877000D02*
X138859523Y-99972238D01*
X138859523Y-99972238D02*
X139335714Y-99972238D01*
X139335714Y-99972238D02*
X139526190Y-99877000D01*
X139526190Y-99877000D02*
X139621428Y-99781761D01*
X139621428Y-99781761D02*
X139716666Y-99591285D01*
X139716666Y-99591285D02*
X139716666Y-99400809D01*
X139716666Y-99400809D02*
X139621428Y-99210333D01*
X139621428Y-99210333D02*
X139526190Y-99115095D01*
X139526190Y-99115095D02*
X139335714Y-99019857D01*
X139335714Y-99019857D02*
X138954761Y-98924619D01*
X138954761Y-98924619D02*
X138764285Y-98829380D01*
X138764285Y-98829380D02*
X138669047Y-98734142D01*
X138669047Y-98734142D02*
X138573809Y-98543666D01*
X138573809Y-98543666D02*
X138573809Y-98353190D01*
X138573809Y-98353190D02*
X138669047Y-98162714D01*
X138669047Y-98162714D02*
X138764285Y-98067476D01*
X138764285Y-98067476D02*
X138954761Y-97972238D01*
X138954761Y-97972238D02*
X139430952Y-97972238D01*
X139430952Y-97972238D02*
X139716666Y-98067476D01*
X140573809Y-99972238D02*
X140573809Y-97972238D01*
X140573809Y-97972238D02*
X141335714Y-97972238D01*
X141335714Y-97972238D02*
X141526190Y-98067476D01*
X141526190Y-98067476D02*
X141621428Y-98162714D01*
X141621428Y-98162714D02*
X141716666Y-98353190D01*
X141716666Y-98353190D02*
X141716666Y-98638904D01*
X141716666Y-98638904D02*
X141621428Y-98829380D01*
X141621428Y-98829380D02*
X141526190Y-98924619D01*
X141526190Y-98924619D02*
X141335714Y-99019857D01*
X141335714Y-99019857D02*
X140573809Y-99019857D01*
X142383333Y-97972238D02*
X143621428Y-97972238D01*
X143621428Y-97972238D02*
X142954761Y-98734142D01*
X142954761Y-98734142D02*
X143240476Y-98734142D01*
X143240476Y-98734142D02*
X143430952Y-98829380D01*
X143430952Y-98829380D02*
X143526190Y-98924619D01*
X143526190Y-98924619D02*
X143621428Y-99115095D01*
X143621428Y-99115095D02*
X143621428Y-99591285D01*
X143621428Y-99591285D02*
X143526190Y-99781761D01*
X143526190Y-99781761D02*
X143430952Y-99877000D01*
X143430952Y-99877000D02*
X143240476Y-99972238D01*
X143240476Y-99972238D02*
X142669047Y-99972238D01*
X142669047Y-99972238D02*
X142478571Y-99877000D01*
X142478571Y-99877000D02*
X142383333Y-99781761D01*
X144383333Y-98162714D02*
X144478571Y-98067476D01*
X144478571Y-98067476D02*
X144669047Y-97972238D01*
X144669047Y-97972238D02*
X145145238Y-97972238D01*
X145145238Y-97972238D02*
X145335714Y-98067476D01*
X145335714Y-98067476D02*
X145430952Y-98162714D01*
X145430952Y-98162714D02*
X145526190Y-98353190D01*
X145526190Y-98353190D02*
X145526190Y-98543666D01*
X145526190Y-98543666D02*
X145430952Y-98829380D01*
X145430952Y-98829380D02*
X144288095Y-99972238D01*
X144288095Y-99972238D02*
X145526190Y-99972238D01*
X145907143Y-100162714D02*
X147430952Y-100162714D01*
X147907143Y-97972238D02*
X147907143Y-99591285D01*
X147907143Y-99591285D02*
X148002381Y-99781761D01*
X148002381Y-99781761D02*
X148097619Y-99877000D01*
X148097619Y-99877000D02*
X148288095Y-99972238D01*
X148288095Y-99972238D02*
X148669048Y-99972238D01*
X148669048Y-99972238D02*
X148859524Y-99877000D01*
X148859524Y-99877000D02*
X148954762Y-99781761D01*
X148954762Y-99781761D02*
X149050000Y-99591285D01*
X149050000Y-99591285D02*
X149050000Y-97972238D01*
X149811905Y-97972238D02*
X150288095Y-99972238D01*
X150288095Y-99972238D02*
X150669048Y-98543666D01*
X150669048Y-98543666D02*
X151050000Y-99972238D01*
X151050000Y-99972238D02*
X151526191Y-97972238D01*
X152954762Y-98924619D02*
X153240476Y-99019857D01*
X153240476Y-99019857D02*
X153335714Y-99115095D01*
X153335714Y-99115095D02*
X153430952Y-99305571D01*
X153430952Y-99305571D02*
X153430952Y-99591285D01*
X153430952Y-99591285D02*
X153335714Y-99781761D01*
X153335714Y-99781761D02*
X153240476Y-99877000D01*
X153240476Y-99877000D02*
X153050000Y-99972238D01*
X153050000Y-99972238D02*
X152288095Y-99972238D01*
X152288095Y-99972238D02*
X152288095Y-97972238D01*
X152288095Y-97972238D02*
X152954762Y-97972238D01*
X152954762Y-97972238D02*
X153145238Y-98067476D01*
X153145238Y-98067476D02*
X153240476Y-98162714D01*
X153240476Y-98162714D02*
X153335714Y-98353190D01*
X153335714Y-98353190D02*
X153335714Y-98543666D01*
X153335714Y-98543666D02*
X153240476Y-98734142D01*
X153240476Y-98734142D02*
X153145238Y-98829380D01*
X153145238Y-98829380D02*
X152954762Y-98924619D01*
X152954762Y-98924619D02*
X152288095Y-98924619D01*
X155335714Y-99972238D02*
X154192857Y-99972238D01*
X154764285Y-99972238D02*
X154764285Y-97972238D01*
X154764285Y-97972238D02*
X154573809Y-98257952D01*
X154573809Y-98257952D02*
X154383333Y-98448428D01*
X154383333Y-98448428D02*
X154192857Y-98543666D01*
D10*
X112963609Y-103266190D02*
X112963609Y-102932857D01*
X113487419Y-102790000D02*
X113487419Y-103266190D01*
X113487419Y-103266190D02*
X112487419Y-103266190D01*
X112487419Y-103266190D02*
X112487419Y-102790000D01*
X113439800Y-102409047D02*
X113487419Y-102266190D01*
X113487419Y-102266190D02*
X113487419Y-102028095D01*
X113487419Y-102028095D02*
X113439800Y-101932857D01*
X113439800Y-101932857D02*
X113392180Y-101885238D01*
X113392180Y-101885238D02*
X113296942Y-101837619D01*
X113296942Y-101837619D02*
X113201704Y-101837619D01*
X113201704Y-101837619D02*
X113106466Y-101885238D01*
X113106466Y-101885238D02*
X113058847Y-101932857D01*
X113058847Y-101932857D02*
X113011228Y-102028095D01*
X113011228Y-102028095D02*
X112963609Y-102218571D01*
X112963609Y-102218571D02*
X112915990Y-102313809D01*
X112915990Y-102313809D02*
X112868371Y-102361428D01*
X112868371Y-102361428D02*
X112773133Y-102409047D01*
X112773133Y-102409047D02*
X112677895Y-102409047D01*
X112677895Y-102409047D02*
X112582657Y-102361428D01*
X112582657Y-102361428D02*
X112535038Y-102313809D01*
X112535038Y-102313809D02*
X112487419Y-102218571D01*
X112487419Y-102218571D02*
X112487419Y-101980476D01*
X112487419Y-101980476D02*
X112535038Y-101837619D01*
X113487419Y-101409047D02*
X112487419Y-101409047D01*
X112487419Y-101409047D02*
X112487419Y-101028095D01*
X112487419Y-101028095D02*
X112535038Y-100932857D01*
X112535038Y-100932857D02*
X112582657Y-100885238D01*
X112582657Y-100885238D02*
X112677895Y-100837619D01*
X112677895Y-100837619D02*
X112820752Y-100837619D01*
X112820752Y-100837619D02*
X112915990Y-100885238D01*
X112915990Y-100885238D02*
X112963609Y-100932857D01*
X112963609Y-100932857D02*
X113011228Y-101028095D01*
X113011228Y-101028095D02*
X113011228Y-101409047D01*
X112487419Y-100504285D02*
X112487419Y-99885238D01*
X112487419Y-99885238D02*
X112868371Y-100218571D01*
X112868371Y-100218571D02*
X112868371Y-100075714D01*
X112868371Y-100075714D02*
X112915990Y-99980476D01*
X112915990Y-99980476D02*
X112963609Y-99932857D01*
X112963609Y-99932857D02*
X113058847Y-99885238D01*
X113058847Y-99885238D02*
X113296942Y-99885238D01*
X113296942Y-99885238D02*
X113392180Y-99932857D01*
X113392180Y-99932857D02*
X113439800Y-99980476D01*
X113439800Y-99980476D02*
X113487419Y-100075714D01*
X113487419Y-100075714D02*
X113487419Y-100361428D01*
X113487419Y-100361428D02*
X113439800Y-100456666D01*
X113439800Y-100456666D02*
X113392180Y-100504285D01*
X112582657Y-99504285D02*
X112535038Y-99456666D01*
X112535038Y-99456666D02*
X112487419Y-99361428D01*
X112487419Y-99361428D02*
X112487419Y-99123333D01*
X112487419Y-99123333D02*
X112535038Y-99028095D01*
X112535038Y-99028095D02*
X112582657Y-98980476D01*
X112582657Y-98980476D02*
X112677895Y-98932857D01*
X112677895Y-98932857D02*
X112773133Y-98932857D01*
X112773133Y-98932857D02*
X112915990Y-98980476D01*
X112915990Y-98980476D02*
X113487419Y-99551904D01*
X113487419Y-99551904D02*
X113487419Y-98932857D01*
X113201704Y-97789999D02*
X113201704Y-97313809D01*
X113487419Y-97885237D02*
X112487419Y-97551904D01*
X112487419Y-97551904D02*
X113487419Y-97218571D01*
X112820752Y-96885237D02*
X113487419Y-96885237D01*
X112915990Y-96885237D02*
X112868371Y-96837618D01*
X112868371Y-96837618D02*
X112820752Y-96742380D01*
X112820752Y-96742380D02*
X112820752Y-96599523D01*
X112820752Y-96599523D02*
X112868371Y-96504285D01*
X112868371Y-96504285D02*
X112963609Y-96456666D01*
X112963609Y-96456666D02*
X113487419Y-96456666D01*
X112820752Y-96123332D02*
X112820752Y-95742380D01*
X112487419Y-95980475D02*
X113344561Y-95980475D01*
X113344561Y-95980475D02*
X113439800Y-95932856D01*
X113439800Y-95932856D02*
X113487419Y-95837618D01*
X113487419Y-95837618D02*
X113487419Y-95742380D01*
X113439800Y-95028094D02*
X113487419Y-95123332D01*
X113487419Y-95123332D02*
X113487419Y-95313808D01*
X113487419Y-95313808D02*
X113439800Y-95409046D01*
X113439800Y-95409046D02*
X113344561Y-95456665D01*
X113344561Y-95456665D02*
X112963609Y-95456665D01*
X112963609Y-95456665D02*
X112868371Y-95409046D01*
X112868371Y-95409046D02*
X112820752Y-95313808D01*
X112820752Y-95313808D02*
X112820752Y-95123332D01*
X112820752Y-95123332D02*
X112868371Y-95028094D01*
X112868371Y-95028094D02*
X112963609Y-94980475D01*
X112963609Y-94980475D02*
X113058847Y-94980475D01*
X113058847Y-94980475D02*
X113154085Y-95456665D01*
X112820752Y-94551903D02*
X113487419Y-94551903D01*
X112915990Y-94551903D02*
X112868371Y-94504284D01*
X112868371Y-94504284D02*
X112820752Y-94409046D01*
X112820752Y-94409046D02*
X112820752Y-94266189D01*
X112820752Y-94266189D02*
X112868371Y-94170951D01*
X112868371Y-94170951D02*
X112963609Y-94123332D01*
X112963609Y-94123332D02*
X113487419Y-94123332D01*
X112820752Y-93647141D02*
X113487419Y-93647141D01*
X112915990Y-93647141D02*
X112868371Y-93599522D01*
X112868371Y-93599522D02*
X112820752Y-93504284D01*
X112820752Y-93504284D02*
X112820752Y-93361427D01*
X112820752Y-93361427D02*
X112868371Y-93266189D01*
X112868371Y-93266189D02*
X112963609Y-93218570D01*
X112963609Y-93218570D02*
X113487419Y-93218570D01*
X113487419Y-92313808D02*
X112963609Y-92313808D01*
X112963609Y-92313808D02*
X112868371Y-92361427D01*
X112868371Y-92361427D02*
X112820752Y-92456665D01*
X112820752Y-92456665D02*
X112820752Y-92647141D01*
X112820752Y-92647141D02*
X112868371Y-92742379D01*
X113439800Y-92313808D02*
X113487419Y-92409046D01*
X113487419Y-92409046D02*
X113487419Y-92647141D01*
X113487419Y-92647141D02*
X113439800Y-92742379D01*
X113439800Y-92742379D02*
X113344561Y-92789998D01*
X113344561Y-92789998D02*
X113249323Y-92789998D01*
X113249323Y-92789998D02*
X113154085Y-92742379D01*
X113154085Y-92742379D02*
X113106466Y-92647141D01*
X113106466Y-92647141D02*
X113106466Y-92409046D01*
X113106466Y-92409046D02*
X113058847Y-92313808D01*
X150249523Y-85817419D02*
X150249523Y-86626942D01*
X150249523Y-86626942D02*
X150297142Y-86722180D01*
X150297142Y-86722180D02*
X150344761Y-86769800D01*
X150344761Y-86769800D02*
X150439999Y-86817419D01*
X150439999Y-86817419D02*
X150630475Y-86817419D01*
X150630475Y-86817419D02*
X150725713Y-86769800D01*
X150725713Y-86769800D02*
X150773332Y-86722180D01*
X150773332Y-86722180D02*
X150820951Y-86626942D01*
X150820951Y-86626942D02*
X150820951Y-85817419D01*
X151201904Y-85817419D02*
X151439999Y-86817419D01*
X151439999Y-86817419D02*
X151630475Y-86103133D01*
X151630475Y-86103133D02*
X151820951Y-86817419D01*
X151820951Y-86817419D02*
X152059047Y-85817419D01*
X152773332Y-86293609D02*
X152916189Y-86341228D01*
X152916189Y-86341228D02*
X152963808Y-86388847D01*
X152963808Y-86388847D02*
X153011427Y-86484085D01*
X153011427Y-86484085D02*
X153011427Y-86626942D01*
X153011427Y-86626942D02*
X152963808Y-86722180D01*
X152963808Y-86722180D02*
X152916189Y-86769800D01*
X152916189Y-86769800D02*
X152820951Y-86817419D01*
X152820951Y-86817419D02*
X152439999Y-86817419D01*
X152439999Y-86817419D02*
X152439999Y-85817419D01*
X152439999Y-85817419D02*
X152773332Y-85817419D01*
X152773332Y-85817419D02*
X152868570Y-85865038D01*
X152868570Y-85865038D02*
X152916189Y-85912657D01*
X152916189Y-85912657D02*
X152963808Y-86007895D01*
X152963808Y-86007895D02*
X152963808Y-86103133D01*
X152963808Y-86103133D02*
X152916189Y-86198371D01*
X152916189Y-86198371D02*
X152868570Y-86245990D01*
X152868570Y-86245990D02*
X152773332Y-86293609D01*
X152773332Y-86293609D02*
X152439999Y-86293609D01*
X154154285Y-86531704D02*
X154630475Y-86531704D01*
X154059047Y-86817419D02*
X154392380Y-85817419D01*
X154392380Y-85817419D02*
X154725713Y-86817419D01*
X155059047Y-86150752D02*
X155059047Y-86817419D01*
X155059047Y-86245990D02*
X155106666Y-86198371D01*
X155106666Y-86198371D02*
X155201904Y-86150752D01*
X155201904Y-86150752D02*
X155344761Y-86150752D01*
X155344761Y-86150752D02*
X155439999Y-86198371D01*
X155439999Y-86198371D02*
X155487618Y-86293609D01*
X155487618Y-86293609D02*
X155487618Y-86817419D01*
X155820952Y-86150752D02*
X156201904Y-86150752D01*
X155963809Y-85817419D02*
X155963809Y-86674561D01*
X155963809Y-86674561D02*
X156011428Y-86769800D01*
X156011428Y-86769800D02*
X156106666Y-86817419D01*
X156106666Y-86817419D02*
X156201904Y-86817419D01*
X156916190Y-86769800D02*
X156820952Y-86817419D01*
X156820952Y-86817419D02*
X156630476Y-86817419D01*
X156630476Y-86817419D02*
X156535238Y-86769800D01*
X156535238Y-86769800D02*
X156487619Y-86674561D01*
X156487619Y-86674561D02*
X156487619Y-86293609D01*
X156487619Y-86293609D02*
X156535238Y-86198371D01*
X156535238Y-86198371D02*
X156630476Y-86150752D01*
X156630476Y-86150752D02*
X156820952Y-86150752D01*
X156820952Y-86150752D02*
X156916190Y-86198371D01*
X156916190Y-86198371D02*
X156963809Y-86293609D01*
X156963809Y-86293609D02*
X156963809Y-86388847D01*
X156963809Y-86388847D02*
X156487619Y-86484085D01*
X157392381Y-86150752D02*
X157392381Y-86817419D01*
X157392381Y-86245990D02*
X157440000Y-86198371D01*
X157440000Y-86198371D02*
X157535238Y-86150752D01*
X157535238Y-86150752D02*
X157678095Y-86150752D01*
X157678095Y-86150752D02*
X157773333Y-86198371D01*
X157773333Y-86198371D02*
X157820952Y-86293609D01*
X157820952Y-86293609D02*
X157820952Y-86817419D01*
X158297143Y-86150752D02*
X158297143Y-86817419D01*
X158297143Y-86245990D02*
X158344762Y-86198371D01*
X158344762Y-86198371D02*
X158440000Y-86150752D01*
X158440000Y-86150752D02*
X158582857Y-86150752D01*
X158582857Y-86150752D02*
X158678095Y-86198371D01*
X158678095Y-86198371D02*
X158725714Y-86293609D01*
X158725714Y-86293609D02*
X158725714Y-86817419D01*
X159630476Y-86817419D02*
X159630476Y-86293609D01*
X159630476Y-86293609D02*
X159582857Y-86198371D01*
X159582857Y-86198371D02*
X159487619Y-86150752D01*
X159487619Y-86150752D02*
X159297143Y-86150752D01*
X159297143Y-86150752D02*
X159201905Y-86198371D01*
X159630476Y-86769800D02*
X159535238Y-86817419D01*
X159535238Y-86817419D02*
X159297143Y-86817419D01*
X159297143Y-86817419D02*
X159201905Y-86769800D01*
X159201905Y-86769800D02*
X159154286Y-86674561D01*
X159154286Y-86674561D02*
X159154286Y-86579323D01*
X159154286Y-86579323D02*
X159201905Y-86484085D01*
X159201905Y-86484085D02*
X159297143Y-86436466D01*
X159297143Y-86436466D02*
X159535238Y-86436466D01*
X159535238Y-86436466D02*
X159630476Y-86388847D01*
X179078095Y-97247419D02*
X179078095Y-98056942D01*
X179078095Y-98056942D02*
X179125714Y-98152180D01*
X179125714Y-98152180D02*
X179173333Y-98199800D01*
X179173333Y-98199800D02*
X179268571Y-98247419D01*
X179268571Y-98247419D02*
X179459047Y-98247419D01*
X179459047Y-98247419D02*
X179554285Y-98199800D01*
X179554285Y-98199800D02*
X179601904Y-98152180D01*
X179601904Y-98152180D02*
X179649523Y-98056942D01*
X179649523Y-98056942D02*
X179649523Y-97247419D01*
X180078095Y-98199800D02*
X180220952Y-98247419D01*
X180220952Y-98247419D02*
X180459047Y-98247419D01*
X180459047Y-98247419D02*
X180554285Y-98199800D01*
X180554285Y-98199800D02*
X180601904Y-98152180D01*
X180601904Y-98152180D02*
X180649523Y-98056942D01*
X180649523Y-98056942D02*
X180649523Y-97961704D01*
X180649523Y-97961704D02*
X180601904Y-97866466D01*
X180601904Y-97866466D02*
X180554285Y-97818847D01*
X180554285Y-97818847D02*
X180459047Y-97771228D01*
X180459047Y-97771228D02*
X180268571Y-97723609D01*
X180268571Y-97723609D02*
X180173333Y-97675990D01*
X180173333Y-97675990D02*
X180125714Y-97628371D01*
X180125714Y-97628371D02*
X180078095Y-97533133D01*
X180078095Y-97533133D02*
X180078095Y-97437895D01*
X180078095Y-97437895D02*
X180125714Y-97342657D01*
X180125714Y-97342657D02*
X180173333Y-97295038D01*
X180173333Y-97295038D02*
X180268571Y-97247419D01*
X180268571Y-97247419D02*
X180506666Y-97247419D01*
X180506666Y-97247419D02*
X180649523Y-97295038D01*
X181411428Y-97723609D02*
X181554285Y-97771228D01*
X181554285Y-97771228D02*
X181601904Y-97818847D01*
X181601904Y-97818847D02*
X181649523Y-97914085D01*
X181649523Y-97914085D02*
X181649523Y-98056942D01*
X181649523Y-98056942D02*
X181601904Y-98152180D01*
X181601904Y-98152180D02*
X181554285Y-98199800D01*
X181554285Y-98199800D02*
X181459047Y-98247419D01*
X181459047Y-98247419D02*
X181078095Y-98247419D01*
X181078095Y-98247419D02*
X181078095Y-97247419D01*
X181078095Y-97247419D02*
X181411428Y-97247419D01*
X181411428Y-97247419D02*
X181506666Y-97295038D01*
X181506666Y-97295038D02*
X181554285Y-97342657D01*
X181554285Y-97342657D02*
X181601904Y-97437895D01*
X181601904Y-97437895D02*
X181601904Y-97533133D01*
X181601904Y-97533133D02*
X181554285Y-97628371D01*
X181554285Y-97628371D02*
X181506666Y-97675990D01*
X181506666Y-97675990D02*
X181411428Y-97723609D01*
X181411428Y-97723609D02*
X181078095Y-97723609D01*
D13*
X125285290Y-119499297D02*
X125047195Y-119665963D01*
X125285290Y-119785011D02*
X124785290Y-119785011D01*
X124785290Y-119785011D02*
X124785290Y-119594535D01*
X124785290Y-119594535D02*
X124809100Y-119546916D01*
X124809100Y-119546916D02*
X124832909Y-119523106D01*
X124832909Y-119523106D02*
X124880528Y-119499297D01*
X124880528Y-119499297D02*
X124951957Y-119499297D01*
X124951957Y-119499297D02*
X124999576Y-119523106D01*
X124999576Y-119523106D02*
X125023385Y-119546916D01*
X125023385Y-119546916D02*
X125047195Y-119594535D01*
X125047195Y-119594535D02*
X125047195Y-119785011D01*
X125285290Y-119023106D02*
X125285290Y-119308820D01*
X125285290Y-119165963D02*
X124785290Y-119165963D01*
X124785290Y-119165963D02*
X124856719Y-119213582D01*
X124856719Y-119213582D02*
X124904338Y-119261201D01*
X124904338Y-119261201D02*
X124928147Y-119308820D01*
X125505678Y-120415713D02*
X125481869Y-120391904D01*
X125481869Y-120391904D02*
X125458059Y-120344285D01*
X125458059Y-120344285D02*
X125458059Y-120225237D01*
X125458059Y-120225237D02*
X125481869Y-120177618D01*
X125481869Y-120177618D02*
X125505678Y-120153809D01*
X125505678Y-120153809D02*
X125553297Y-120129999D01*
X125553297Y-120129999D02*
X125600916Y-120129999D01*
X125600916Y-120129999D02*
X125672345Y-120153809D01*
X125672345Y-120153809D02*
X125958059Y-120439523D01*
X125958059Y-120439523D02*
X125958059Y-120129999D01*
X125910440Y-119915714D02*
X125934250Y-119891904D01*
X125934250Y-119891904D02*
X125958059Y-119915714D01*
X125958059Y-119915714D02*
X125934250Y-119939523D01*
X125934250Y-119939523D02*
X125910440Y-119915714D01*
X125910440Y-119915714D02*
X125958059Y-119915714D01*
X125505678Y-119701428D02*
X125481869Y-119677619D01*
X125481869Y-119677619D02*
X125458059Y-119630000D01*
X125458059Y-119630000D02*
X125458059Y-119510952D01*
X125458059Y-119510952D02*
X125481869Y-119463333D01*
X125481869Y-119463333D02*
X125505678Y-119439524D01*
X125505678Y-119439524D02*
X125553297Y-119415714D01*
X125553297Y-119415714D02*
X125600916Y-119415714D01*
X125600916Y-119415714D02*
X125672345Y-119439524D01*
X125672345Y-119439524D02*
X125958059Y-119725238D01*
X125958059Y-119725238D02*
X125958059Y-119415714D01*
X125958059Y-119201429D02*
X125458059Y-119201429D01*
X125958059Y-118915715D02*
X125672345Y-119130000D01*
X125458059Y-118915715D02*
X125743773Y-119201429D01*
X125958059Y-118725238D02*
X125958059Y-118606191D01*
X125958059Y-118606191D02*
X125862821Y-118606191D01*
X125862821Y-118606191D02*
X125839011Y-118653810D01*
X125839011Y-118653810D02*
X125791392Y-118701429D01*
X125791392Y-118701429D02*
X125719964Y-118725238D01*
X125719964Y-118725238D02*
X125600916Y-118725238D01*
X125600916Y-118725238D02*
X125529488Y-118701429D01*
X125529488Y-118701429D02*
X125481869Y-118653810D01*
X125481869Y-118653810D02*
X125458059Y-118582381D01*
X125458059Y-118582381D02*
X125458059Y-118487143D01*
X125458059Y-118487143D02*
X125481869Y-118415715D01*
X125481869Y-118415715D02*
X125529488Y-118368096D01*
X125529488Y-118368096D02*
X125600916Y-118344286D01*
X125600916Y-118344286D02*
X125719964Y-118344286D01*
X125719964Y-118344286D02*
X125791392Y-118368096D01*
X125791392Y-118368096D02*
X125839011Y-118415715D01*
X125839011Y-118415715D02*
X125862821Y-118463334D01*
X125862821Y-118463334D02*
X125958059Y-118463334D01*
X125958059Y-118463334D02*
X125958059Y-118344286D01*
X127825290Y-119499297D02*
X127587195Y-119665963D01*
X127825290Y-119785011D02*
X127325290Y-119785011D01*
X127325290Y-119785011D02*
X127325290Y-119594535D01*
X127325290Y-119594535D02*
X127349100Y-119546916D01*
X127349100Y-119546916D02*
X127372909Y-119523106D01*
X127372909Y-119523106D02*
X127420528Y-119499297D01*
X127420528Y-119499297D02*
X127491957Y-119499297D01*
X127491957Y-119499297D02*
X127539576Y-119523106D01*
X127539576Y-119523106D02*
X127563385Y-119546916D01*
X127563385Y-119546916D02*
X127587195Y-119594535D01*
X127587195Y-119594535D02*
X127587195Y-119785011D01*
X127372909Y-119308820D02*
X127349100Y-119285011D01*
X127349100Y-119285011D02*
X127325290Y-119237392D01*
X127325290Y-119237392D02*
X127325290Y-119118344D01*
X127325290Y-119118344D02*
X127349100Y-119070725D01*
X127349100Y-119070725D02*
X127372909Y-119046916D01*
X127372909Y-119046916D02*
X127420528Y-119023106D01*
X127420528Y-119023106D02*
X127468147Y-119023106D01*
X127468147Y-119023106D02*
X127539576Y-119046916D01*
X127539576Y-119046916D02*
X127825290Y-119332630D01*
X127825290Y-119332630D02*
X127825290Y-119023106D01*
X128164726Y-120177618D02*
X128498059Y-120177618D01*
X127974250Y-120296666D02*
X128331392Y-120415713D01*
X128331392Y-120415713D02*
X128331392Y-120106190D01*
X128450440Y-119915714D02*
X128474250Y-119891904D01*
X128474250Y-119891904D02*
X128498059Y-119915714D01*
X128498059Y-119915714D02*
X128474250Y-119939523D01*
X128474250Y-119939523D02*
X128450440Y-119915714D01*
X128450440Y-119915714D02*
X128498059Y-119915714D01*
X127998059Y-119725238D02*
X127998059Y-119391905D01*
X127998059Y-119391905D02*
X128498059Y-119606190D01*
X128498059Y-119201429D02*
X127998059Y-119201429D01*
X128498059Y-118915715D02*
X128212345Y-119130000D01*
X127998059Y-118915715D02*
X128283773Y-119201429D01*
X128498059Y-118725238D02*
X128498059Y-118606191D01*
X128498059Y-118606191D02*
X128402821Y-118606191D01*
X128402821Y-118606191D02*
X128379011Y-118653810D01*
X128379011Y-118653810D02*
X128331392Y-118701429D01*
X128331392Y-118701429D02*
X128259964Y-118725238D01*
X128259964Y-118725238D02*
X128140916Y-118725238D01*
X128140916Y-118725238D02*
X128069488Y-118701429D01*
X128069488Y-118701429D02*
X128021869Y-118653810D01*
X128021869Y-118653810D02*
X127998059Y-118582381D01*
X127998059Y-118582381D02*
X127998059Y-118487143D01*
X127998059Y-118487143D02*
X128021869Y-118415715D01*
X128021869Y-118415715D02*
X128069488Y-118368096D01*
X128069488Y-118368096D02*
X128140916Y-118344286D01*
X128140916Y-118344286D02*
X128259964Y-118344286D01*
X128259964Y-118344286D02*
X128331392Y-118368096D01*
X128331392Y-118368096D02*
X128379011Y-118415715D01*
X128379011Y-118415715D02*
X128402821Y-118463334D01*
X128402821Y-118463334D02*
X128498059Y-118463334D01*
X128498059Y-118463334D02*
X128498059Y-118344286D01*
X132905290Y-119499297D02*
X132667195Y-119665963D01*
X132905290Y-119785011D02*
X132405290Y-119785011D01*
X132405290Y-119785011D02*
X132405290Y-119594535D01*
X132405290Y-119594535D02*
X132429100Y-119546916D01*
X132429100Y-119546916D02*
X132452909Y-119523106D01*
X132452909Y-119523106D02*
X132500528Y-119499297D01*
X132500528Y-119499297D02*
X132571957Y-119499297D01*
X132571957Y-119499297D02*
X132619576Y-119523106D01*
X132619576Y-119523106D02*
X132643385Y-119546916D01*
X132643385Y-119546916D02*
X132667195Y-119594535D01*
X132667195Y-119594535D02*
X132667195Y-119785011D01*
X132571957Y-119070725D02*
X132905290Y-119070725D01*
X132381481Y-119189773D02*
X132738623Y-119308820D01*
X132738623Y-119308820D02*
X132738623Y-118999297D01*
X133244726Y-120177618D02*
X133578059Y-120177618D01*
X133054250Y-120296666D02*
X133411392Y-120415713D01*
X133411392Y-120415713D02*
X133411392Y-120106190D01*
X133530440Y-119915714D02*
X133554250Y-119891904D01*
X133554250Y-119891904D02*
X133578059Y-119915714D01*
X133578059Y-119915714D02*
X133554250Y-119939523D01*
X133554250Y-119939523D02*
X133530440Y-119915714D01*
X133530440Y-119915714D02*
X133578059Y-119915714D01*
X133078059Y-119725238D02*
X133078059Y-119391905D01*
X133078059Y-119391905D02*
X133578059Y-119606190D01*
X133578059Y-119201429D02*
X133078059Y-119201429D01*
X133578059Y-118915715D02*
X133292345Y-119130000D01*
X133078059Y-118915715D02*
X133363773Y-119201429D01*
X133578059Y-118725238D02*
X133578059Y-118606191D01*
X133578059Y-118606191D02*
X133482821Y-118606191D01*
X133482821Y-118606191D02*
X133459011Y-118653810D01*
X133459011Y-118653810D02*
X133411392Y-118701429D01*
X133411392Y-118701429D02*
X133339964Y-118725238D01*
X133339964Y-118725238D02*
X133220916Y-118725238D01*
X133220916Y-118725238D02*
X133149488Y-118701429D01*
X133149488Y-118701429D02*
X133101869Y-118653810D01*
X133101869Y-118653810D02*
X133078059Y-118582381D01*
X133078059Y-118582381D02*
X133078059Y-118487143D01*
X133078059Y-118487143D02*
X133101869Y-118415715D01*
X133101869Y-118415715D02*
X133149488Y-118368096D01*
X133149488Y-118368096D02*
X133220916Y-118344286D01*
X133220916Y-118344286D02*
X133339964Y-118344286D01*
X133339964Y-118344286D02*
X133411392Y-118368096D01*
X133411392Y-118368096D02*
X133459011Y-118415715D01*
X133459011Y-118415715D02*
X133482821Y-118463334D01*
X133482821Y-118463334D02*
X133578059Y-118463334D01*
X133578059Y-118463334D02*
X133578059Y-118344286D01*
X130365290Y-119499297D02*
X130127195Y-119665963D01*
X130365290Y-119785011D02*
X129865290Y-119785011D01*
X129865290Y-119785011D02*
X129865290Y-119594535D01*
X129865290Y-119594535D02*
X129889100Y-119546916D01*
X129889100Y-119546916D02*
X129912909Y-119523106D01*
X129912909Y-119523106D02*
X129960528Y-119499297D01*
X129960528Y-119499297D02*
X130031957Y-119499297D01*
X130031957Y-119499297D02*
X130079576Y-119523106D01*
X130079576Y-119523106D02*
X130103385Y-119546916D01*
X130103385Y-119546916D02*
X130127195Y-119594535D01*
X130127195Y-119594535D02*
X130127195Y-119785011D01*
X129865290Y-119332630D02*
X129865290Y-119023106D01*
X129865290Y-119023106D02*
X130055766Y-119189773D01*
X130055766Y-119189773D02*
X130055766Y-119118344D01*
X130055766Y-119118344D02*
X130079576Y-119070725D01*
X130079576Y-119070725D02*
X130103385Y-119046916D01*
X130103385Y-119046916D02*
X130151004Y-119023106D01*
X130151004Y-119023106D02*
X130270052Y-119023106D01*
X130270052Y-119023106D02*
X130317671Y-119046916D01*
X130317671Y-119046916D02*
X130341481Y-119070725D01*
X130341481Y-119070725D02*
X130365290Y-119118344D01*
X130365290Y-119118344D02*
X130365290Y-119261201D01*
X130365290Y-119261201D02*
X130341481Y-119308820D01*
X130341481Y-119308820D02*
X130317671Y-119332630D01*
X130585678Y-120415713D02*
X130561869Y-120391904D01*
X130561869Y-120391904D02*
X130538059Y-120344285D01*
X130538059Y-120344285D02*
X130538059Y-120225237D01*
X130538059Y-120225237D02*
X130561869Y-120177618D01*
X130561869Y-120177618D02*
X130585678Y-120153809D01*
X130585678Y-120153809D02*
X130633297Y-120129999D01*
X130633297Y-120129999D02*
X130680916Y-120129999D01*
X130680916Y-120129999D02*
X130752345Y-120153809D01*
X130752345Y-120153809D02*
X131038059Y-120439523D01*
X131038059Y-120439523D02*
X131038059Y-120129999D01*
X130990440Y-119915714D02*
X131014250Y-119891904D01*
X131014250Y-119891904D02*
X131038059Y-119915714D01*
X131038059Y-119915714D02*
X131014250Y-119939523D01*
X131014250Y-119939523D02*
X130990440Y-119915714D01*
X130990440Y-119915714D02*
X131038059Y-119915714D01*
X130585678Y-119701428D02*
X130561869Y-119677619D01*
X130561869Y-119677619D02*
X130538059Y-119630000D01*
X130538059Y-119630000D02*
X130538059Y-119510952D01*
X130538059Y-119510952D02*
X130561869Y-119463333D01*
X130561869Y-119463333D02*
X130585678Y-119439524D01*
X130585678Y-119439524D02*
X130633297Y-119415714D01*
X130633297Y-119415714D02*
X130680916Y-119415714D01*
X130680916Y-119415714D02*
X130752345Y-119439524D01*
X130752345Y-119439524D02*
X131038059Y-119725238D01*
X131038059Y-119725238D02*
X131038059Y-119415714D01*
X131038059Y-119201429D02*
X130538059Y-119201429D01*
X131038059Y-118915715D02*
X130752345Y-119130000D01*
X130538059Y-118915715D02*
X130823773Y-119201429D01*
X131038059Y-118725238D02*
X131038059Y-118606191D01*
X131038059Y-118606191D02*
X130942821Y-118606191D01*
X130942821Y-118606191D02*
X130919011Y-118653810D01*
X130919011Y-118653810D02*
X130871392Y-118701429D01*
X130871392Y-118701429D02*
X130799964Y-118725238D01*
X130799964Y-118725238D02*
X130680916Y-118725238D01*
X130680916Y-118725238D02*
X130609488Y-118701429D01*
X130609488Y-118701429D02*
X130561869Y-118653810D01*
X130561869Y-118653810D02*
X130538059Y-118582381D01*
X130538059Y-118582381D02*
X130538059Y-118487143D01*
X130538059Y-118487143D02*
X130561869Y-118415715D01*
X130561869Y-118415715D02*
X130609488Y-118368096D01*
X130609488Y-118368096D02*
X130680916Y-118344286D01*
X130680916Y-118344286D02*
X130799964Y-118344286D01*
X130799964Y-118344286D02*
X130871392Y-118368096D01*
X130871392Y-118368096D02*
X130919011Y-118415715D01*
X130919011Y-118415715D02*
X130942821Y-118463334D01*
X130942821Y-118463334D02*
X131038059Y-118463334D01*
X131038059Y-118463334D02*
X131038059Y-118344286D01*
X150685290Y-119499297D02*
X150447195Y-119665963D01*
X150685290Y-119785011D02*
X150185290Y-119785011D01*
X150185290Y-119785011D02*
X150185290Y-119594535D01*
X150185290Y-119594535D02*
X150209100Y-119546916D01*
X150209100Y-119546916D02*
X150232909Y-119523106D01*
X150232909Y-119523106D02*
X150280528Y-119499297D01*
X150280528Y-119499297D02*
X150351957Y-119499297D01*
X150351957Y-119499297D02*
X150399576Y-119523106D01*
X150399576Y-119523106D02*
X150423385Y-119546916D01*
X150423385Y-119546916D02*
X150447195Y-119594535D01*
X150447195Y-119594535D02*
X150447195Y-119785011D01*
X150185290Y-119070725D02*
X150185290Y-119165963D01*
X150185290Y-119165963D02*
X150209100Y-119213582D01*
X150209100Y-119213582D02*
X150232909Y-119237392D01*
X150232909Y-119237392D02*
X150304338Y-119285011D01*
X150304338Y-119285011D02*
X150399576Y-119308820D01*
X150399576Y-119308820D02*
X150590052Y-119308820D01*
X150590052Y-119308820D02*
X150637671Y-119285011D01*
X150637671Y-119285011D02*
X150661481Y-119261201D01*
X150661481Y-119261201D02*
X150685290Y-119213582D01*
X150685290Y-119213582D02*
X150685290Y-119118344D01*
X150685290Y-119118344D02*
X150661481Y-119070725D01*
X150661481Y-119070725D02*
X150637671Y-119046916D01*
X150637671Y-119046916D02*
X150590052Y-119023106D01*
X150590052Y-119023106D02*
X150471004Y-119023106D01*
X150471004Y-119023106D02*
X150423385Y-119046916D01*
X150423385Y-119046916D02*
X150399576Y-119070725D01*
X150399576Y-119070725D02*
X150375766Y-119118344D01*
X150375766Y-119118344D02*
X150375766Y-119213582D01*
X150375766Y-119213582D02*
X150399576Y-119261201D01*
X150399576Y-119261201D02*
X150423385Y-119285011D01*
X150423385Y-119285011D02*
X150471004Y-119308820D01*
X151358059Y-120249046D02*
X151358059Y-120534760D01*
X151358059Y-120391903D02*
X150858059Y-120391903D01*
X150858059Y-120391903D02*
X150929488Y-120439522D01*
X150929488Y-120439522D02*
X150977107Y-120487141D01*
X150977107Y-120487141D02*
X151000916Y-120534760D01*
X150858059Y-119939523D02*
X150858059Y-119891904D01*
X150858059Y-119891904D02*
X150881869Y-119844285D01*
X150881869Y-119844285D02*
X150905678Y-119820475D01*
X150905678Y-119820475D02*
X150953297Y-119796666D01*
X150953297Y-119796666D02*
X151048535Y-119772856D01*
X151048535Y-119772856D02*
X151167583Y-119772856D01*
X151167583Y-119772856D02*
X151262821Y-119796666D01*
X151262821Y-119796666D02*
X151310440Y-119820475D01*
X151310440Y-119820475D02*
X151334250Y-119844285D01*
X151334250Y-119844285D02*
X151358059Y-119891904D01*
X151358059Y-119891904D02*
X151358059Y-119939523D01*
X151358059Y-119939523D02*
X151334250Y-119987142D01*
X151334250Y-119987142D02*
X151310440Y-120010951D01*
X151310440Y-120010951D02*
X151262821Y-120034761D01*
X151262821Y-120034761D02*
X151167583Y-120058570D01*
X151167583Y-120058570D02*
X151048535Y-120058570D01*
X151048535Y-120058570D02*
X150953297Y-120034761D01*
X150953297Y-120034761D02*
X150905678Y-120010951D01*
X150905678Y-120010951D02*
X150881869Y-119987142D01*
X150881869Y-119987142D02*
X150858059Y-119939523D01*
X150858059Y-119463333D02*
X150858059Y-119415714D01*
X150858059Y-119415714D02*
X150881869Y-119368095D01*
X150881869Y-119368095D02*
X150905678Y-119344285D01*
X150905678Y-119344285D02*
X150953297Y-119320476D01*
X150953297Y-119320476D02*
X151048535Y-119296666D01*
X151048535Y-119296666D02*
X151167583Y-119296666D01*
X151167583Y-119296666D02*
X151262821Y-119320476D01*
X151262821Y-119320476D02*
X151310440Y-119344285D01*
X151310440Y-119344285D02*
X151334250Y-119368095D01*
X151334250Y-119368095D02*
X151358059Y-119415714D01*
X151358059Y-119415714D02*
X151358059Y-119463333D01*
X151358059Y-119463333D02*
X151334250Y-119510952D01*
X151334250Y-119510952D02*
X151310440Y-119534761D01*
X151310440Y-119534761D02*
X151262821Y-119558571D01*
X151262821Y-119558571D02*
X151167583Y-119582380D01*
X151167583Y-119582380D02*
X151048535Y-119582380D01*
X151048535Y-119582380D02*
X150953297Y-119558571D01*
X150953297Y-119558571D02*
X150905678Y-119534761D01*
X150905678Y-119534761D02*
X150881869Y-119510952D01*
X150881869Y-119510952D02*
X150858059Y-119463333D01*
X151358059Y-119082381D02*
X150858059Y-119082381D01*
X151358059Y-118796667D02*
X151072345Y-119010952D01*
X150858059Y-118796667D02*
X151143773Y-119082381D01*
X151358059Y-118606190D02*
X151358059Y-118487143D01*
X151358059Y-118487143D02*
X151262821Y-118487143D01*
X151262821Y-118487143D02*
X151239011Y-118534762D01*
X151239011Y-118534762D02*
X151191392Y-118582381D01*
X151191392Y-118582381D02*
X151119964Y-118606190D01*
X151119964Y-118606190D02*
X151000916Y-118606190D01*
X151000916Y-118606190D02*
X150929488Y-118582381D01*
X150929488Y-118582381D02*
X150881869Y-118534762D01*
X150881869Y-118534762D02*
X150858059Y-118463333D01*
X150858059Y-118463333D02*
X150858059Y-118368095D01*
X150858059Y-118368095D02*
X150881869Y-118296667D01*
X150881869Y-118296667D02*
X150929488Y-118249048D01*
X150929488Y-118249048D02*
X151000916Y-118225238D01*
X151000916Y-118225238D02*
X151119964Y-118225238D01*
X151119964Y-118225238D02*
X151191392Y-118249048D01*
X151191392Y-118249048D02*
X151239011Y-118296667D01*
X151239011Y-118296667D02*
X151262821Y-118344286D01*
X151262821Y-118344286D02*
X151358059Y-118344286D01*
X151358059Y-118344286D02*
X151358059Y-118225238D01*
D10*
X171787143Y-121484895D02*
X171939524Y-121484895D01*
X171939524Y-121484895D02*
X172015714Y-121522990D01*
X172015714Y-121522990D02*
X172091905Y-121599180D01*
X172091905Y-121599180D02*
X172130000Y-121751561D01*
X172130000Y-121751561D02*
X172130000Y-122018228D01*
X172130000Y-122018228D02*
X172091905Y-122170609D01*
X172091905Y-122170609D02*
X172015714Y-122246800D01*
X172015714Y-122246800D02*
X171939524Y-122284895D01*
X171939524Y-122284895D02*
X171787143Y-122284895D01*
X171787143Y-122284895D02*
X171710952Y-122246800D01*
X171710952Y-122246800D02*
X171634762Y-122170609D01*
X171634762Y-122170609D02*
X171596666Y-122018228D01*
X171596666Y-122018228D02*
X171596666Y-121751561D01*
X171596666Y-121751561D02*
X171634762Y-121599180D01*
X171634762Y-121599180D02*
X171710952Y-121522990D01*
X171710952Y-121522990D02*
X171787143Y-121484895D01*
X172472857Y-122284895D02*
X172472857Y-121484895D01*
X172472857Y-121484895D02*
X172930000Y-122284895D01*
X172930000Y-122284895D02*
X172930000Y-121484895D01*
X173120476Y-122361085D02*
X173729999Y-122361085D01*
X174072857Y-121484895D02*
X174225238Y-121484895D01*
X174225238Y-121484895D02*
X174301428Y-121522990D01*
X174301428Y-121522990D02*
X174377619Y-121599180D01*
X174377619Y-121599180D02*
X174415714Y-121751561D01*
X174415714Y-121751561D02*
X174415714Y-122018228D01*
X174415714Y-122018228D02*
X174377619Y-122170609D01*
X174377619Y-122170609D02*
X174301428Y-122246800D01*
X174301428Y-122246800D02*
X174225238Y-122284895D01*
X174225238Y-122284895D02*
X174072857Y-122284895D01*
X174072857Y-122284895D02*
X173996666Y-122246800D01*
X173996666Y-122246800D02*
X173920476Y-122170609D01*
X173920476Y-122170609D02*
X173882380Y-122018228D01*
X173882380Y-122018228D02*
X173882380Y-121751561D01*
X173882380Y-121751561D02*
X173920476Y-121599180D01*
X173920476Y-121599180D02*
X173996666Y-121522990D01*
X173996666Y-121522990D02*
X174072857Y-121484895D01*
X175025237Y-121865847D02*
X174758571Y-121865847D01*
X174758571Y-122284895D02*
X174758571Y-121484895D01*
X174758571Y-121484895D02*
X175139523Y-121484895D01*
X175710951Y-121865847D02*
X175444285Y-121865847D01*
X175444285Y-122284895D02*
X175444285Y-121484895D01*
X175444285Y-121484895D02*
X175825237Y-121484895D01*
X175939523Y-122361085D02*
X176549046Y-122361085D01*
X176701427Y-122246800D02*
X176815713Y-122284895D01*
X176815713Y-122284895D02*
X177006189Y-122284895D01*
X177006189Y-122284895D02*
X177082380Y-122246800D01*
X177082380Y-122246800D02*
X177120475Y-122208704D01*
X177120475Y-122208704D02*
X177158570Y-122132514D01*
X177158570Y-122132514D02*
X177158570Y-122056323D01*
X177158570Y-122056323D02*
X177120475Y-121980133D01*
X177120475Y-121980133D02*
X177082380Y-121942038D01*
X177082380Y-121942038D02*
X177006189Y-121903942D01*
X177006189Y-121903942D02*
X176853808Y-121865847D01*
X176853808Y-121865847D02*
X176777618Y-121827752D01*
X176777618Y-121827752D02*
X176739523Y-121789657D01*
X176739523Y-121789657D02*
X176701427Y-121713466D01*
X176701427Y-121713466D02*
X176701427Y-121637276D01*
X176701427Y-121637276D02*
X176739523Y-121561085D01*
X176739523Y-121561085D02*
X176777618Y-121522990D01*
X176777618Y-121522990D02*
X176853808Y-121484895D01*
X176853808Y-121484895D02*
X177044285Y-121484895D01*
X177044285Y-121484895D02*
X177158570Y-121522990D01*
X177425237Y-121484895D02*
X177615713Y-122284895D01*
X177615713Y-122284895D02*
X177768094Y-121713466D01*
X177768094Y-121713466D02*
X177920475Y-122284895D01*
X177920475Y-122284895D02*
X178110952Y-121484895D01*
X178415714Y-122284895D02*
X178415714Y-121484895D01*
X178682380Y-121484895D02*
X179139523Y-121484895D01*
X178910951Y-122284895D02*
X178910951Y-121484895D01*
X179863333Y-122208704D02*
X179825237Y-122246800D01*
X179825237Y-122246800D02*
X179710952Y-122284895D01*
X179710952Y-122284895D02*
X179634761Y-122284895D01*
X179634761Y-122284895D02*
X179520475Y-122246800D01*
X179520475Y-122246800D02*
X179444285Y-122170609D01*
X179444285Y-122170609D02*
X179406190Y-122094419D01*
X179406190Y-122094419D02*
X179368094Y-121942038D01*
X179368094Y-121942038D02*
X179368094Y-121827752D01*
X179368094Y-121827752D02*
X179406190Y-121675371D01*
X179406190Y-121675371D02*
X179444285Y-121599180D01*
X179444285Y-121599180D02*
X179520475Y-121522990D01*
X179520475Y-121522990D02*
X179634761Y-121484895D01*
X179634761Y-121484895D02*
X179710952Y-121484895D01*
X179710952Y-121484895D02*
X179825237Y-121522990D01*
X179825237Y-121522990D02*
X179863333Y-121561085D01*
X180206190Y-122284895D02*
X180206190Y-121484895D01*
X180206190Y-121865847D02*
X180663333Y-121865847D01*
X180663333Y-122284895D02*
X180663333Y-121484895D01*
X181463332Y-122284895D02*
X181006189Y-122284895D01*
X181234761Y-122284895D02*
X181234761Y-121484895D01*
X181234761Y-121484895D02*
X181158570Y-121599180D01*
X181158570Y-121599180D02*
X181082380Y-121675371D01*
X181082380Y-121675371D02*
X181006189Y-121713466D01*
D14*
X174191797Y-126379279D02*
X174382273Y-126379279D01*
X174382273Y-126379279D02*
X174477511Y-126426898D01*
X174477511Y-126426898D02*
X174572749Y-126522136D01*
X174572749Y-126522136D02*
X174620368Y-126712612D01*
X174620368Y-126712612D02*
X174620368Y-127045945D01*
X174620368Y-127045945D02*
X174572749Y-127236421D01*
X174572749Y-127236421D02*
X174477511Y-127331660D01*
X174477511Y-127331660D02*
X174382273Y-127379279D01*
X174382273Y-127379279D02*
X174191797Y-127379279D01*
X174191797Y-127379279D02*
X174096559Y-127331660D01*
X174096559Y-127331660D02*
X174001321Y-127236421D01*
X174001321Y-127236421D02*
X173953702Y-127045945D01*
X173953702Y-127045945D02*
X173953702Y-126712612D01*
X173953702Y-126712612D02*
X174001321Y-126522136D01*
X174001321Y-126522136D02*
X174096559Y-126426898D01*
X174096559Y-126426898D02*
X174191797Y-126379279D01*
X175382273Y-126855469D02*
X175048940Y-126855469D01*
X175048940Y-127379279D02*
X175048940Y-126379279D01*
X175048940Y-126379279D02*
X175525130Y-126379279D01*
X176239416Y-126855469D02*
X175906083Y-126855469D01*
X175906083Y-127379279D02*
X175906083Y-126379279D01*
X175906083Y-126379279D02*
X176382273Y-126379279D01*
X177715607Y-126379279D02*
X177906083Y-126379279D01*
X177906083Y-126379279D02*
X178001321Y-126426898D01*
X178001321Y-126426898D02*
X178096559Y-126522136D01*
X178096559Y-126522136D02*
X178144178Y-126712612D01*
X178144178Y-126712612D02*
X178144178Y-127045945D01*
X178144178Y-127045945D02*
X178096559Y-127236421D01*
X178096559Y-127236421D02*
X178001321Y-127331660D01*
X178001321Y-127331660D02*
X177906083Y-127379279D01*
X177906083Y-127379279D02*
X177715607Y-127379279D01*
X177715607Y-127379279D02*
X177620369Y-127331660D01*
X177620369Y-127331660D02*
X177525131Y-127236421D01*
X177525131Y-127236421D02*
X177477512Y-127045945D01*
X177477512Y-127045945D02*
X177477512Y-126712612D01*
X177477512Y-126712612D02*
X177525131Y-126522136D01*
X177525131Y-126522136D02*
X177620369Y-126426898D01*
X177620369Y-126426898D02*
X177715607Y-126379279D01*
X178572750Y-127379279D02*
X178572750Y-126379279D01*
X178572750Y-126379279D02*
X179144178Y-127379279D01*
X179144178Y-127379279D02*
X179144178Y-126379279D01*
D13*
X178129524Y-124688059D02*
X178129524Y-124188059D01*
X178129524Y-124188059D02*
X178320000Y-124188059D01*
X178320000Y-124188059D02*
X178367619Y-124211869D01*
X178367619Y-124211869D02*
X178391429Y-124235678D01*
X178391429Y-124235678D02*
X178415238Y-124283297D01*
X178415238Y-124283297D02*
X178415238Y-124354726D01*
X178415238Y-124354726D02*
X178391429Y-124402345D01*
X178391429Y-124402345D02*
X178367619Y-124426154D01*
X178367619Y-124426154D02*
X178320000Y-124449964D01*
X178320000Y-124449964D02*
X178129524Y-124449964D01*
X178629524Y-124688059D02*
X178629524Y-124188059D01*
X178867619Y-124688059D02*
X178867619Y-124188059D01*
X178867619Y-124188059D02*
X179153333Y-124688059D01*
X179153333Y-124688059D02*
X179153333Y-124188059D01*
X179272382Y-124735678D02*
X179653334Y-124735678D01*
X179724762Y-124188059D02*
X180034286Y-124188059D01*
X180034286Y-124188059D02*
X179867619Y-124378535D01*
X179867619Y-124378535D02*
X179939048Y-124378535D01*
X179939048Y-124378535D02*
X179986667Y-124402345D01*
X179986667Y-124402345D02*
X180010476Y-124426154D01*
X180010476Y-124426154D02*
X180034286Y-124473773D01*
X180034286Y-124473773D02*
X180034286Y-124592821D01*
X180034286Y-124592821D02*
X180010476Y-124640440D01*
X180010476Y-124640440D02*
X179986667Y-124664250D01*
X179986667Y-124664250D02*
X179939048Y-124688059D01*
X179939048Y-124688059D02*
X179796191Y-124688059D01*
X179796191Y-124688059D02*
X179748572Y-124664250D01*
X179748572Y-124664250D02*
X179724762Y-124640440D01*
X175589524Y-124688059D02*
X175589524Y-124188059D01*
X175589524Y-124188059D02*
X175780000Y-124188059D01*
X175780000Y-124188059D02*
X175827619Y-124211869D01*
X175827619Y-124211869D02*
X175851429Y-124235678D01*
X175851429Y-124235678D02*
X175875238Y-124283297D01*
X175875238Y-124283297D02*
X175875238Y-124354726D01*
X175875238Y-124354726D02*
X175851429Y-124402345D01*
X175851429Y-124402345D02*
X175827619Y-124426154D01*
X175827619Y-124426154D02*
X175780000Y-124449964D01*
X175780000Y-124449964D02*
X175589524Y-124449964D01*
X176089524Y-124688059D02*
X176089524Y-124188059D01*
X176327619Y-124688059D02*
X176327619Y-124188059D01*
X176327619Y-124188059D02*
X176613333Y-124688059D01*
X176613333Y-124688059D02*
X176613333Y-124188059D01*
X176732382Y-124735678D02*
X177113334Y-124735678D01*
X177208572Y-124235678D02*
X177232381Y-124211869D01*
X177232381Y-124211869D02*
X177280000Y-124188059D01*
X177280000Y-124188059D02*
X177399048Y-124188059D01*
X177399048Y-124188059D02*
X177446667Y-124211869D01*
X177446667Y-124211869D02*
X177470476Y-124235678D01*
X177470476Y-124235678D02*
X177494286Y-124283297D01*
X177494286Y-124283297D02*
X177494286Y-124330916D01*
X177494286Y-124330916D02*
X177470476Y-124402345D01*
X177470476Y-124402345D02*
X177184762Y-124688059D01*
X177184762Y-124688059D02*
X177494286Y-124688059D01*
X173049524Y-124688059D02*
X173049524Y-124188059D01*
X173049524Y-124188059D02*
X173240000Y-124188059D01*
X173240000Y-124188059D02*
X173287619Y-124211869D01*
X173287619Y-124211869D02*
X173311429Y-124235678D01*
X173311429Y-124235678D02*
X173335238Y-124283297D01*
X173335238Y-124283297D02*
X173335238Y-124354726D01*
X173335238Y-124354726D02*
X173311429Y-124402345D01*
X173311429Y-124402345D02*
X173287619Y-124426154D01*
X173287619Y-124426154D02*
X173240000Y-124449964D01*
X173240000Y-124449964D02*
X173049524Y-124449964D01*
X173549524Y-124688059D02*
X173549524Y-124188059D01*
X173787619Y-124688059D02*
X173787619Y-124188059D01*
X173787619Y-124188059D02*
X174073333Y-124688059D01*
X174073333Y-124688059D02*
X174073333Y-124188059D01*
X174192382Y-124735678D02*
X174573334Y-124735678D01*
X174954286Y-124688059D02*
X174668572Y-124688059D01*
X174811429Y-124688059D02*
X174811429Y-124188059D01*
X174811429Y-124188059D02*
X174763810Y-124259488D01*
X174763810Y-124259488D02*
X174716191Y-124307107D01*
X174716191Y-124307107D02*
X174668572Y-124330916D01*
X115014762Y-120378059D02*
X114848096Y-120139964D01*
X114729048Y-120378059D02*
X114729048Y-119878059D01*
X114729048Y-119878059D02*
X114919524Y-119878059D01*
X114919524Y-119878059D02*
X114967143Y-119901869D01*
X114967143Y-119901869D02*
X114990953Y-119925678D01*
X114990953Y-119925678D02*
X115014762Y-119973297D01*
X115014762Y-119973297D02*
X115014762Y-120044726D01*
X115014762Y-120044726D02*
X114990953Y-120092345D01*
X114990953Y-120092345D02*
X114967143Y-120116154D01*
X114967143Y-120116154D02*
X114919524Y-120139964D01*
X114919524Y-120139964D02*
X114729048Y-120139964D01*
X115490953Y-119901869D02*
X115443334Y-119878059D01*
X115443334Y-119878059D02*
X115371905Y-119878059D01*
X115371905Y-119878059D02*
X115300477Y-119901869D01*
X115300477Y-119901869D02*
X115252858Y-119949488D01*
X115252858Y-119949488D02*
X115229048Y-119997107D01*
X115229048Y-119997107D02*
X115205239Y-120092345D01*
X115205239Y-120092345D02*
X115205239Y-120163773D01*
X115205239Y-120163773D02*
X115229048Y-120259011D01*
X115229048Y-120259011D02*
X115252858Y-120306630D01*
X115252858Y-120306630D02*
X115300477Y-120354250D01*
X115300477Y-120354250D02*
X115371905Y-120378059D01*
X115371905Y-120378059D02*
X115419524Y-120378059D01*
X115419524Y-120378059D02*
X115490953Y-120354250D01*
X115490953Y-120354250D02*
X115514762Y-120330440D01*
X115514762Y-120330440D02*
X115514762Y-120163773D01*
X115514762Y-120163773D02*
X115419524Y-120163773D01*
X115895715Y-120116154D02*
X115967143Y-120139964D01*
X115967143Y-120139964D02*
X115990953Y-120163773D01*
X115990953Y-120163773D02*
X116014762Y-120211392D01*
X116014762Y-120211392D02*
X116014762Y-120282821D01*
X116014762Y-120282821D02*
X115990953Y-120330440D01*
X115990953Y-120330440D02*
X115967143Y-120354250D01*
X115967143Y-120354250D02*
X115919524Y-120378059D01*
X115919524Y-120378059D02*
X115729048Y-120378059D01*
X115729048Y-120378059D02*
X115729048Y-119878059D01*
X115729048Y-119878059D02*
X115895715Y-119878059D01*
X115895715Y-119878059D02*
X115943334Y-119901869D01*
X115943334Y-119901869D02*
X115967143Y-119925678D01*
X115967143Y-119925678D02*
X115990953Y-119973297D01*
X115990953Y-119973297D02*
X115990953Y-120020916D01*
X115990953Y-120020916D02*
X115967143Y-120068535D01*
X115967143Y-120068535D02*
X115943334Y-120092345D01*
X115943334Y-120092345D02*
X115895715Y-120116154D01*
X115895715Y-120116154D02*
X115729048Y-120116154D01*
X116110001Y-120425678D02*
X116490953Y-120425678D01*
X116848095Y-120378059D02*
X116610000Y-120378059D01*
X116610000Y-120378059D02*
X116610000Y-119878059D01*
X117014762Y-120116154D02*
X117181429Y-120116154D01*
X117252857Y-120378059D02*
X117014762Y-120378059D01*
X117014762Y-120378059D02*
X117014762Y-119878059D01*
X117014762Y-119878059D02*
X117252857Y-119878059D01*
X117467143Y-120378059D02*
X117467143Y-119878059D01*
X117467143Y-119878059D02*
X117586191Y-119878059D01*
X117586191Y-119878059D02*
X117657619Y-119901869D01*
X117657619Y-119901869D02*
X117705238Y-119949488D01*
X117705238Y-119949488D02*
X117729048Y-119997107D01*
X117729048Y-119997107D02*
X117752857Y-120092345D01*
X117752857Y-120092345D02*
X117752857Y-120163773D01*
X117752857Y-120163773D02*
X117729048Y-120259011D01*
X117729048Y-120259011D02*
X117705238Y-120306630D01*
X117705238Y-120306630D02*
X117657619Y-120354250D01*
X117657619Y-120354250D02*
X117586191Y-120378059D01*
X117586191Y-120378059D02*
X117467143Y-120378059D01*
X117848096Y-120425678D02*
X118229048Y-120425678D01*
X118324286Y-120354250D02*
X118395714Y-120378059D01*
X118395714Y-120378059D02*
X118514762Y-120378059D01*
X118514762Y-120378059D02*
X118562381Y-120354250D01*
X118562381Y-120354250D02*
X118586190Y-120330440D01*
X118586190Y-120330440D02*
X118610000Y-120282821D01*
X118610000Y-120282821D02*
X118610000Y-120235202D01*
X118610000Y-120235202D02*
X118586190Y-120187583D01*
X118586190Y-120187583D02*
X118562381Y-120163773D01*
X118562381Y-120163773D02*
X118514762Y-120139964D01*
X118514762Y-120139964D02*
X118419524Y-120116154D01*
X118419524Y-120116154D02*
X118371905Y-120092345D01*
X118371905Y-120092345D02*
X118348095Y-120068535D01*
X118348095Y-120068535D02*
X118324286Y-120020916D01*
X118324286Y-120020916D02*
X118324286Y-119973297D01*
X118324286Y-119973297D02*
X118348095Y-119925678D01*
X118348095Y-119925678D02*
X118371905Y-119901869D01*
X118371905Y-119901869D02*
X118419524Y-119878059D01*
X118419524Y-119878059D02*
X118538571Y-119878059D01*
X118538571Y-119878059D02*
X118610000Y-119901869D01*
X119157618Y-120425678D02*
X119109999Y-120401869D01*
X119109999Y-120401869D02*
X119062380Y-120354250D01*
X119062380Y-120354250D02*
X118990952Y-120282821D01*
X118990952Y-120282821D02*
X118943333Y-120259011D01*
X118943333Y-120259011D02*
X118895714Y-120259011D01*
X118919523Y-120378059D02*
X118871904Y-120354250D01*
X118871904Y-120354250D02*
X118824285Y-120306630D01*
X118824285Y-120306630D02*
X118800476Y-120211392D01*
X118800476Y-120211392D02*
X118800476Y-120044726D01*
X118800476Y-120044726D02*
X118824285Y-119949488D01*
X118824285Y-119949488D02*
X118871904Y-119901869D01*
X118871904Y-119901869D02*
X118919523Y-119878059D01*
X118919523Y-119878059D02*
X119014761Y-119878059D01*
X119014761Y-119878059D02*
X119062380Y-119901869D01*
X119062380Y-119901869D02*
X119109999Y-119949488D01*
X119109999Y-119949488D02*
X119133809Y-120044726D01*
X119133809Y-120044726D02*
X119133809Y-120211392D01*
X119133809Y-120211392D02*
X119109999Y-120306630D01*
X119109999Y-120306630D02*
X119062380Y-120354250D01*
X119062380Y-120354250D02*
X119014761Y-120378059D01*
X119014761Y-120378059D02*
X118919523Y-120378059D01*
X119348095Y-119878059D02*
X119348095Y-120282821D01*
X119348095Y-120282821D02*
X119371905Y-120330440D01*
X119371905Y-120330440D02*
X119395714Y-120354250D01*
X119395714Y-120354250D02*
X119443333Y-120378059D01*
X119443333Y-120378059D02*
X119538571Y-120378059D01*
X119538571Y-120378059D02*
X119586190Y-120354250D01*
X119586190Y-120354250D02*
X119610000Y-120330440D01*
X119610000Y-120330440D02*
X119633809Y-120282821D01*
X119633809Y-120282821D02*
X119633809Y-119878059D01*
X119848096Y-120235202D02*
X120086191Y-120235202D01*
X119800477Y-120378059D02*
X119967143Y-119878059D01*
X119967143Y-119878059D02*
X120133810Y-120378059D01*
X120586190Y-120378059D02*
X120419524Y-120139964D01*
X120300476Y-120378059D02*
X120300476Y-119878059D01*
X120300476Y-119878059D02*
X120490952Y-119878059D01*
X120490952Y-119878059D02*
X120538571Y-119901869D01*
X120538571Y-119901869D02*
X120562381Y-119925678D01*
X120562381Y-119925678D02*
X120586190Y-119973297D01*
X120586190Y-119973297D02*
X120586190Y-120044726D01*
X120586190Y-120044726D02*
X120562381Y-120092345D01*
X120562381Y-120092345D02*
X120538571Y-120116154D01*
X120538571Y-120116154D02*
X120490952Y-120139964D01*
X120490952Y-120139964D02*
X120300476Y-120139964D01*
X120800476Y-120116154D02*
X120967143Y-120116154D01*
X121038571Y-120378059D02*
X120800476Y-120378059D01*
X120800476Y-120378059D02*
X120800476Y-119878059D01*
X120800476Y-119878059D02*
X121038571Y-119878059D01*
X121514762Y-120378059D02*
X121229048Y-120378059D01*
X121371905Y-120378059D02*
X121371905Y-119878059D01*
X121371905Y-119878059D02*
X121324286Y-119949488D01*
X121324286Y-119949488D02*
X121276667Y-119997107D01*
X121276667Y-119997107D02*
X121229048Y-120020916D01*
D15*
X112050964Y-124399999D02*
X112122392Y-124185713D01*
X112122392Y-124185713D02*
X112193821Y-124114284D01*
X112193821Y-124114284D02*
X112336678Y-124042856D01*
X112336678Y-124042856D02*
X112550964Y-124042856D01*
X112550964Y-124042856D02*
X112693821Y-124114284D01*
X112693821Y-124114284D02*
X112765250Y-124185713D01*
X112765250Y-124185713D02*
X112836678Y-124328570D01*
X112836678Y-124328570D02*
X112836678Y-124899999D01*
X112836678Y-124899999D02*
X111336678Y-124899999D01*
X111336678Y-124899999D02*
X111336678Y-124399999D01*
X111336678Y-124399999D02*
X111408107Y-124257142D01*
X111408107Y-124257142D02*
X111479535Y-124185713D01*
X111479535Y-124185713D02*
X111622392Y-124114284D01*
X111622392Y-124114284D02*
X111765250Y-124114284D01*
X111765250Y-124114284D02*
X111908107Y-124185713D01*
X111908107Y-124185713D02*
X111979535Y-124257142D01*
X111979535Y-124257142D02*
X112050964Y-124399999D01*
X112050964Y-124399999D02*
X112050964Y-124899999D01*
X112408107Y-123471427D02*
X112408107Y-122757142D01*
X112836678Y-123614284D02*
X111336678Y-123114284D01*
X111336678Y-123114284D02*
X112836678Y-122614284D01*
X111336678Y-122328570D02*
X111336678Y-121471428D01*
X112836678Y-121899999D02*
X111336678Y-121899999D01*
X111336678Y-121185713D02*
X111336678Y-120328571D01*
X112836678Y-120757142D02*
X111336678Y-120757142D01*
X112050964Y-119828571D02*
X112050964Y-119328571D01*
X112836678Y-119114285D02*
X112836678Y-119828571D01*
X112836678Y-119828571D02*
X111336678Y-119828571D01*
X111336678Y-119828571D02*
X111336678Y-119114285D01*
X112836678Y-117614285D02*
X112122392Y-118114285D01*
X112836678Y-118471428D02*
X111336678Y-118471428D01*
X111336678Y-118471428D02*
X111336678Y-117899999D01*
X111336678Y-117899999D02*
X111408107Y-117757142D01*
X111408107Y-117757142D02*
X111479535Y-117685713D01*
X111479535Y-117685713D02*
X111622392Y-117614285D01*
X111622392Y-117614285D02*
X111836678Y-117614285D01*
X111836678Y-117614285D02*
X111979535Y-117685713D01*
X111979535Y-117685713D02*
X112050964Y-117757142D01*
X112050964Y-117757142D02*
X112122392Y-117899999D01*
X112122392Y-117899999D02*
X112122392Y-118471428D01*
X112122392Y-116685713D02*
X112836678Y-116685713D01*
X111336678Y-117185713D02*
X112122392Y-116685713D01*
X112122392Y-116685713D02*
X111336678Y-116185713D01*
D13*
X120780952Y-115614369D02*
X120733333Y-115590559D01*
X120733333Y-115590559D02*
X120661904Y-115590559D01*
X120661904Y-115590559D02*
X120590476Y-115614369D01*
X120590476Y-115614369D02*
X120542857Y-115661988D01*
X120542857Y-115661988D02*
X120519047Y-115709607D01*
X120519047Y-115709607D02*
X120495238Y-115804845D01*
X120495238Y-115804845D02*
X120495238Y-115876273D01*
X120495238Y-115876273D02*
X120519047Y-115971511D01*
X120519047Y-115971511D02*
X120542857Y-116019130D01*
X120542857Y-116019130D02*
X120590476Y-116066750D01*
X120590476Y-116066750D02*
X120661904Y-116090559D01*
X120661904Y-116090559D02*
X120709523Y-116090559D01*
X120709523Y-116090559D02*
X120780952Y-116066750D01*
X120780952Y-116066750D02*
X120804761Y-116042940D01*
X120804761Y-116042940D02*
X120804761Y-115876273D01*
X120804761Y-115876273D02*
X120709523Y-115876273D01*
X115724761Y-116090559D02*
X115558095Y-115852464D01*
X115439047Y-116090559D02*
X115439047Y-115590559D01*
X115439047Y-115590559D02*
X115629523Y-115590559D01*
X115629523Y-115590559D02*
X115677142Y-115614369D01*
X115677142Y-115614369D02*
X115700952Y-115638178D01*
X115700952Y-115638178D02*
X115724761Y-115685797D01*
X115724761Y-115685797D02*
X115724761Y-115757226D01*
X115724761Y-115757226D02*
X115700952Y-115804845D01*
X115700952Y-115804845D02*
X115677142Y-115828654D01*
X115677142Y-115828654D02*
X115629523Y-115852464D01*
X115629523Y-115852464D02*
X115439047Y-115852464D01*
X120685714Y-125403654D02*
X120757142Y-125427464D01*
X120757142Y-125427464D02*
X120780952Y-125451273D01*
X120780952Y-125451273D02*
X120804761Y-125498892D01*
X120804761Y-125498892D02*
X120804761Y-125570321D01*
X120804761Y-125570321D02*
X120780952Y-125617940D01*
X120780952Y-125617940D02*
X120757142Y-125641750D01*
X120757142Y-125641750D02*
X120709523Y-125665559D01*
X120709523Y-125665559D02*
X120519047Y-125665559D01*
X120519047Y-125665559D02*
X120519047Y-125165559D01*
X120519047Y-125165559D02*
X120685714Y-125165559D01*
X120685714Y-125165559D02*
X120733333Y-125189369D01*
X120733333Y-125189369D02*
X120757142Y-125213178D01*
X120757142Y-125213178D02*
X120780952Y-125260797D01*
X120780952Y-125260797D02*
X120780952Y-125308416D01*
X120780952Y-125308416D02*
X120757142Y-125356035D01*
X120757142Y-125356035D02*
X120733333Y-125379845D01*
X120733333Y-125379845D02*
X120685714Y-125403654D01*
X120685714Y-125403654D02*
X120519047Y-125403654D01*
X114903334Y-125165559D02*
X115070000Y-125665559D01*
X115070000Y-125665559D02*
X115236667Y-125165559D01*
X115689047Y-125617940D02*
X115665238Y-125641750D01*
X115665238Y-125641750D02*
X115593809Y-125665559D01*
X115593809Y-125665559D02*
X115546190Y-125665559D01*
X115546190Y-125665559D02*
X115474762Y-125641750D01*
X115474762Y-125641750D02*
X115427143Y-125594130D01*
X115427143Y-125594130D02*
X115403333Y-125546511D01*
X115403333Y-125546511D02*
X115379524Y-125451273D01*
X115379524Y-125451273D02*
X115379524Y-125379845D01*
X115379524Y-125379845D02*
X115403333Y-125284607D01*
X115403333Y-125284607D02*
X115427143Y-125236988D01*
X115427143Y-125236988D02*
X115474762Y-125189369D01*
X115474762Y-125189369D02*
X115546190Y-125165559D01*
X115546190Y-125165559D02*
X115593809Y-125165559D01*
X115593809Y-125165559D02*
X115665238Y-125189369D01*
X115665238Y-125189369D02*
X115689047Y-125213178D01*
X116189047Y-125617940D02*
X116165238Y-125641750D01*
X116165238Y-125641750D02*
X116093809Y-125665559D01*
X116093809Y-125665559D02*
X116046190Y-125665559D01*
X116046190Y-125665559D02*
X115974762Y-125641750D01*
X115974762Y-125641750D02*
X115927143Y-125594130D01*
X115927143Y-125594130D02*
X115903333Y-125546511D01*
X115903333Y-125546511D02*
X115879524Y-125451273D01*
X115879524Y-125451273D02*
X115879524Y-125379845D01*
X115879524Y-125379845D02*
X115903333Y-125284607D01*
X115903333Y-125284607D02*
X115927143Y-125236988D01*
X115927143Y-125236988D02*
X115974762Y-125189369D01*
X115974762Y-125189369D02*
X116046190Y-125165559D01*
X116046190Y-125165559D02*
X116093809Y-125165559D01*
X116093809Y-125165559D02*
X116165238Y-125189369D01*
X116165238Y-125189369D02*
X116189047Y-125213178D01*
X153225290Y-119499297D02*
X152987195Y-119665963D01*
X153225290Y-119785011D02*
X152725290Y-119785011D01*
X152725290Y-119785011D02*
X152725290Y-119594535D01*
X152725290Y-119594535D02*
X152749100Y-119546916D01*
X152749100Y-119546916D02*
X152772909Y-119523106D01*
X152772909Y-119523106D02*
X152820528Y-119499297D01*
X152820528Y-119499297D02*
X152891957Y-119499297D01*
X152891957Y-119499297D02*
X152939576Y-119523106D01*
X152939576Y-119523106D02*
X152963385Y-119546916D01*
X152963385Y-119546916D02*
X152987195Y-119594535D01*
X152987195Y-119594535D02*
X152987195Y-119785011D01*
X152725290Y-119046916D02*
X152725290Y-119285011D01*
X152725290Y-119285011D02*
X152963385Y-119308820D01*
X152963385Y-119308820D02*
X152939576Y-119285011D01*
X152939576Y-119285011D02*
X152915766Y-119237392D01*
X152915766Y-119237392D02*
X152915766Y-119118344D01*
X152915766Y-119118344D02*
X152939576Y-119070725D01*
X152939576Y-119070725D02*
X152963385Y-119046916D01*
X152963385Y-119046916D02*
X153011004Y-119023106D01*
X153011004Y-119023106D02*
X153130052Y-119023106D01*
X153130052Y-119023106D02*
X153177671Y-119046916D01*
X153177671Y-119046916D02*
X153201481Y-119070725D01*
X153201481Y-119070725D02*
X153225290Y-119118344D01*
X153225290Y-119118344D02*
X153225290Y-119237392D01*
X153225290Y-119237392D02*
X153201481Y-119285011D01*
X153201481Y-119285011D02*
X153177671Y-119308820D01*
X153445678Y-120534760D02*
X153421869Y-120510951D01*
X153421869Y-120510951D02*
X153398059Y-120463332D01*
X153398059Y-120463332D02*
X153398059Y-120344284D01*
X153398059Y-120344284D02*
X153421869Y-120296665D01*
X153421869Y-120296665D02*
X153445678Y-120272856D01*
X153445678Y-120272856D02*
X153493297Y-120249046D01*
X153493297Y-120249046D02*
X153540916Y-120249046D01*
X153540916Y-120249046D02*
X153612345Y-120272856D01*
X153612345Y-120272856D02*
X153898059Y-120558570D01*
X153898059Y-120558570D02*
X153898059Y-120249046D01*
X153445678Y-120058570D02*
X153421869Y-120034761D01*
X153421869Y-120034761D02*
X153398059Y-119987142D01*
X153398059Y-119987142D02*
X153398059Y-119868094D01*
X153398059Y-119868094D02*
X153421869Y-119820475D01*
X153421869Y-119820475D02*
X153445678Y-119796666D01*
X153445678Y-119796666D02*
X153493297Y-119772856D01*
X153493297Y-119772856D02*
X153540916Y-119772856D01*
X153540916Y-119772856D02*
X153612345Y-119796666D01*
X153612345Y-119796666D02*
X153898059Y-120082380D01*
X153898059Y-120082380D02*
X153898059Y-119772856D01*
X153398059Y-119463333D02*
X153398059Y-119415714D01*
X153398059Y-119415714D02*
X153421869Y-119368095D01*
X153421869Y-119368095D02*
X153445678Y-119344285D01*
X153445678Y-119344285D02*
X153493297Y-119320476D01*
X153493297Y-119320476D02*
X153588535Y-119296666D01*
X153588535Y-119296666D02*
X153707583Y-119296666D01*
X153707583Y-119296666D02*
X153802821Y-119320476D01*
X153802821Y-119320476D02*
X153850440Y-119344285D01*
X153850440Y-119344285D02*
X153874250Y-119368095D01*
X153874250Y-119368095D02*
X153898059Y-119415714D01*
X153898059Y-119415714D02*
X153898059Y-119463333D01*
X153898059Y-119463333D02*
X153874250Y-119510952D01*
X153874250Y-119510952D02*
X153850440Y-119534761D01*
X153850440Y-119534761D02*
X153802821Y-119558571D01*
X153802821Y-119558571D02*
X153707583Y-119582380D01*
X153707583Y-119582380D02*
X153588535Y-119582380D01*
X153588535Y-119582380D02*
X153493297Y-119558571D01*
X153493297Y-119558571D02*
X153445678Y-119534761D01*
X153445678Y-119534761D02*
X153421869Y-119510952D01*
X153421869Y-119510952D02*
X153398059Y-119463333D01*
X153898059Y-119082381D02*
X153398059Y-119082381D01*
X153898059Y-118796667D02*
X153612345Y-119010952D01*
X153398059Y-118796667D02*
X153683773Y-119082381D01*
X153898059Y-118606190D02*
X153898059Y-118487143D01*
X153898059Y-118487143D02*
X153802821Y-118487143D01*
X153802821Y-118487143D02*
X153779011Y-118534762D01*
X153779011Y-118534762D02*
X153731392Y-118582381D01*
X153731392Y-118582381D02*
X153659964Y-118606190D01*
X153659964Y-118606190D02*
X153540916Y-118606190D01*
X153540916Y-118606190D02*
X153469488Y-118582381D01*
X153469488Y-118582381D02*
X153421869Y-118534762D01*
X153421869Y-118534762D02*
X153398059Y-118463333D01*
X153398059Y-118463333D02*
X153398059Y-118368095D01*
X153398059Y-118368095D02*
X153421869Y-118296667D01*
X153421869Y-118296667D02*
X153469488Y-118249048D01*
X153469488Y-118249048D02*
X153540916Y-118225238D01*
X153540916Y-118225238D02*
X153659964Y-118225238D01*
X153659964Y-118225238D02*
X153731392Y-118249048D01*
X153731392Y-118249048D02*
X153779011Y-118296667D01*
X153779011Y-118296667D02*
X153802821Y-118344286D01*
X153802821Y-118344286D02*
X153898059Y-118344286D01*
X153898059Y-118344286D02*
X153898059Y-118225238D01*
X140414762Y-120378059D02*
X140248096Y-120139964D01*
X140129048Y-120378059D02*
X140129048Y-119878059D01*
X140129048Y-119878059D02*
X140319524Y-119878059D01*
X140319524Y-119878059D02*
X140367143Y-119901869D01*
X140367143Y-119901869D02*
X140390953Y-119925678D01*
X140390953Y-119925678D02*
X140414762Y-119973297D01*
X140414762Y-119973297D02*
X140414762Y-120044726D01*
X140414762Y-120044726D02*
X140390953Y-120092345D01*
X140390953Y-120092345D02*
X140367143Y-120116154D01*
X140367143Y-120116154D02*
X140319524Y-120139964D01*
X140319524Y-120139964D02*
X140129048Y-120139964D01*
X140890953Y-119901869D02*
X140843334Y-119878059D01*
X140843334Y-119878059D02*
X140771905Y-119878059D01*
X140771905Y-119878059D02*
X140700477Y-119901869D01*
X140700477Y-119901869D02*
X140652858Y-119949488D01*
X140652858Y-119949488D02*
X140629048Y-119997107D01*
X140629048Y-119997107D02*
X140605239Y-120092345D01*
X140605239Y-120092345D02*
X140605239Y-120163773D01*
X140605239Y-120163773D02*
X140629048Y-120259011D01*
X140629048Y-120259011D02*
X140652858Y-120306630D01*
X140652858Y-120306630D02*
X140700477Y-120354250D01*
X140700477Y-120354250D02*
X140771905Y-120378059D01*
X140771905Y-120378059D02*
X140819524Y-120378059D01*
X140819524Y-120378059D02*
X140890953Y-120354250D01*
X140890953Y-120354250D02*
X140914762Y-120330440D01*
X140914762Y-120330440D02*
X140914762Y-120163773D01*
X140914762Y-120163773D02*
X140819524Y-120163773D01*
X141295715Y-120116154D02*
X141367143Y-120139964D01*
X141367143Y-120139964D02*
X141390953Y-120163773D01*
X141390953Y-120163773D02*
X141414762Y-120211392D01*
X141414762Y-120211392D02*
X141414762Y-120282821D01*
X141414762Y-120282821D02*
X141390953Y-120330440D01*
X141390953Y-120330440D02*
X141367143Y-120354250D01*
X141367143Y-120354250D02*
X141319524Y-120378059D01*
X141319524Y-120378059D02*
X141129048Y-120378059D01*
X141129048Y-120378059D02*
X141129048Y-119878059D01*
X141129048Y-119878059D02*
X141295715Y-119878059D01*
X141295715Y-119878059D02*
X141343334Y-119901869D01*
X141343334Y-119901869D02*
X141367143Y-119925678D01*
X141367143Y-119925678D02*
X141390953Y-119973297D01*
X141390953Y-119973297D02*
X141390953Y-120020916D01*
X141390953Y-120020916D02*
X141367143Y-120068535D01*
X141367143Y-120068535D02*
X141343334Y-120092345D01*
X141343334Y-120092345D02*
X141295715Y-120116154D01*
X141295715Y-120116154D02*
X141129048Y-120116154D01*
X141510001Y-120425678D02*
X141890953Y-120425678D01*
X142248095Y-120378059D02*
X142010000Y-120378059D01*
X142010000Y-120378059D02*
X142010000Y-119878059D01*
X142414762Y-120116154D02*
X142581429Y-120116154D01*
X142652857Y-120378059D02*
X142414762Y-120378059D01*
X142414762Y-120378059D02*
X142414762Y-119878059D01*
X142414762Y-119878059D02*
X142652857Y-119878059D01*
X142867143Y-120378059D02*
X142867143Y-119878059D01*
X142867143Y-119878059D02*
X142986191Y-119878059D01*
X142986191Y-119878059D02*
X143057619Y-119901869D01*
X143057619Y-119901869D02*
X143105238Y-119949488D01*
X143105238Y-119949488D02*
X143129048Y-119997107D01*
X143129048Y-119997107D02*
X143152857Y-120092345D01*
X143152857Y-120092345D02*
X143152857Y-120163773D01*
X143152857Y-120163773D02*
X143129048Y-120259011D01*
X143129048Y-120259011D02*
X143105238Y-120306630D01*
X143105238Y-120306630D02*
X143057619Y-120354250D01*
X143057619Y-120354250D02*
X142986191Y-120378059D01*
X142986191Y-120378059D02*
X142867143Y-120378059D01*
X143248096Y-120425678D02*
X143629048Y-120425678D01*
X143724286Y-120354250D02*
X143795714Y-120378059D01*
X143795714Y-120378059D02*
X143914762Y-120378059D01*
X143914762Y-120378059D02*
X143962381Y-120354250D01*
X143962381Y-120354250D02*
X143986190Y-120330440D01*
X143986190Y-120330440D02*
X144010000Y-120282821D01*
X144010000Y-120282821D02*
X144010000Y-120235202D01*
X144010000Y-120235202D02*
X143986190Y-120187583D01*
X143986190Y-120187583D02*
X143962381Y-120163773D01*
X143962381Y-120163773D02*
X143914762Y-120139964D01*
X143914762Y-120139964D02*
X143819524Y-120116154D01*
X143819524Y-120116154D02*
X143771905Y-120092345D01*
X143771905Y-120092345D02*
X143748095Y-120068535D01*
X143748095Y-120068535D02*
X143724286Y-120020916D01*
X143724286Y-120020916D02*
X143724286Y-119973297D01*
X143724286Y-119973297D02*
X143748095Y-119925678D01*
X143748095Y-119925678D02*
X143771905Y-119901869D01*
X143771905Y-119901869D02*
X143819524Y-119878059D01*
X143819524Y-119878059D02*
X143938571Y-119878059D01*
X143938571Y-119878059D02*
X144010000Y-119901869D01*
X144557618Y-120425678D02*
X144509999Y-120401869D01*
X144509999Y-120401869D02*
X144462380Y-120354250D01*
X144462380Y-120354250D02*
X144390952Y-120282821D01*
X144390952Y-120282821D02*
X144343333Y-120259011D01*
X144343333Y-120259011D02*
X144295714Y-120259011D01*
X144319523Y-120378059D02*
X144271904Y-120354250D01*
X144271904Y-120354250D02*
X144224285Y-120306630D01*
X144224285Y-120306630D02*
X144200476Y-120211392D01*
X144200476Y-120211392D02*
X144200476Y-120044726D01*
X144200476Y-120044726D02*
X144224285Y-119949488D01*
X144224285Y-119949488D02*
X144271904Y-119901869D01*
X144271904Y-119901869D02*
X144319523Y-119878059D01*
X144319523Y-119878059D02*
X144414761Y-119878059D01*
X144414761Y-119878059D02*
X144462380Y-119901869D01*
X144462380Y-119901869D02*
X144509999Y-119949488D01*
X144509999Y-119949488D02*
X144533809Y-120044726D01*
X144533809Y-120044726D02*
X144533809Y-120211392D01*
X144533809Y-120211392D02*
X144509999Y-120306630D01*
X144509999Y-120306630D02*
X144462380Y-120354250D01*
X144462380Y-120354250D02*
X144414761Y-120378059D01*
X144414761Y-120378059D02*
X144319523Y-120378059D01*
X144748095Y-119878059D02*
X144748095Y-120282821D01*
X144748095Y-120282821D02*
X144771905Y-120330440D01*
X144771905Y-120330440D02*
X144795714Y-120354250D01*
X144795714Y-120354250D02*
X144843333Y-120378059D01*
X144843333Y-120378059D02*
X144938571Y-120378059D01*
X144938571Y-120378059D02*
X144986190Y-120354250D01*
X144986190Y-120354250D02*
X145010000Y-120330440D01*
X145010000Y-120330440D02*
X145033809Y-120282821D01*
X145033809Y-120282821D02*
X145033809Y-119878059D01*
X145248096Y-120235202D02*
X145486191Y-120235202D01*
X145200477Y-120378059D02*
X145367143Y-119878059D01*
X145367143Y-119878059D02*
X145533810Y-120378059D01*
X145986190Y-120378059D02*
X145819524Y-120139964D01*
X145700476Y-120378059D02*
X145700476Y-119878059D01*
X145700476Y-119878059D02*
X145890952Y-119878059D01*
X145890952Y-119878059D02*
X145938571Y-119901869D01*
X145938571Y-119901869D02*
X145962381Y-119925678D01*
X145962381Y-119925678D02*
X145986190Y-119973297D01*
X145986190Y-119973297D02*
X145986190Y-120044726D01*
X145986190Y-120044726D02*
X145962381Y-120092345D01*
X145962381Y-120092345D02*
X145938571Y-120116154D01*
X145938571Y-120116154D02*
X145890952Y-120139964D01*
X145890952Y-120139964D02*
X145700476Y-120139964D01*
X146200476Y-120116154D02*
X146367143Y-120116154D01*
X146438571Y-120378059D02*
X146200476Y-120378059D01*
X146200476Y-120378059D02*
X146200476Y-119878059D01*
X146200476Y-119878059D02*
X146438571Y-119878059D01*
X146629048Y-119925678D02*
X146652857Y-119901869D01*
X146652857Y-119901869D02*
X146700476Y-119878059D01*
X146700476Y-119878059D02*
X146819524Y-119878059D01*
X146819524Y-119878059D02*
X146867143Y-119901869D01*
X146867143Y-119901869D02*
X146890952Y-119925678D01*
X146890952Y-119925678D02*
X146914762Y-119973297D01*
X146914762Y-119973297D02*
X146914762Y-120020916D01*
X146914762Y-120020916D02*
X146890952Y-120092345D01*
X146890952Y-120092345D02*
X146605238Y-120378059D01*
X146605238Y-120378059D02*
X146914762Y-120378059D01*
D15*
X138165250Y-124792856D02*
X138236678Y-124578571D01*
X138236678Y-124578571D02*
X138236678Y-124221428D01*
X138236678Y-124221428D02*
X138165250Y-124078571D01*
X138165250Y-124078571D02*
X138093821Y-124007142D01*
X138093821Y-124007142D02*
X137950964Y-123935713D01*
X137950964Y-123935713D02*
X137808107Y-123935713D01*
X137808107Y-123935713D02*
X137665250Y-124007142D01*
X137665250Y-124007142D02*
X137593821Y-124078571D01*
X137593821Y-124078571D02*
X137522392Y-124221428D01*
X137522392Y-124221428D02*
X137450964Y-124507142D01*
X137450964Y-124507142D02*
X137379535Y-124649999D01*
X137379535Y-124649999D02*
X137308107Y-124721428D01*
X137308107Y-124721428D02*
X137165250Y-124792856D01*
X137165250Y-124792856D02*
X137022392Y-124792856D01*
X137022392Y-124792856D02*
X136879535Y-124721428D01*
X136879535Y-124721428D02*
X136808107Y-124649999D01*
X136808107Y-124649999D02*
X136736678Y-124507142D01*
X136736678Y-124507142D02*
X136736678Y-124149999D01*
X136736678Y-124149999D02*
X136808107Y-123935713D01*
X137450964Y-123292857D02*
X137450964Y-122792857D01*
X138236678Y-122578571D02*
X138236678Y-123292857D01*
X138236678Y-123292857D02*
X136736678Y-123292857D01*
X136736678Y-123292857D02*
X136736678Y-122578571D01*
X138236678Y-121935714D02*
X136736678Y-121935714D01*
X136736678Y-121935714D02*
X138236678Y-121078571D01*
X138236678Y-121078571D02*
X136736678Y-121078571D01*
X138165250Y-120435713D02*
X138236678Y-120221428D01*
X138236678Y-120221428D02*
X138236678Y-119864285D01*
X138236678Y-119864285D02*
X138165250Y-119721428D01*
X138165250Y-119721428D02*
X138093821Y-119649999D01*
X138093821Y-119649999D02*
X137950964Y-119578570D01*
X137950964Y-119578570D02*
X137808107Y-119578570D01*
X137808107Y-119578570D02*
X137665250Y-119649999D01*
X137665250Y-119649999D02*
X137593821Y-119721428D01*
X137593821Y-119721428D02*
X137522392Y-119864285D01*
X137522392Y-119864285D02*
X137450964Y-120149999D01*
X137450964Y-120149999D02*
X137379535Y-120292856D01*
X137379535Y-120292856D02*
X137308107Y-120364285D01*
X137308107Y-120364285D02*
X137165250Y-120435713D01*
X137165250Y-120435713D02*
X137022392Y-120435713D01*
X137022392Y-120435713D02*
X136879535Y-120364285D01*
X136879535Y-120364285D02*
X136808107Y-120292856D01*
X136808107Y-120292856D02*
X136736678Y-120149999D01*
X136736678Y-120149999D02*
X136736678Y-119792856D01*
X136736678Y-119792856D02*
X136808107Y-119578570D01*
X136736678Y-118649999D02*
X136736678Y-118364285D01*
X136736678Y-118364285D02*
X136808107Y-118221428D01*
X136808107Y-118221428D02*
X136950964Y-118078571D01*
X136950964Y-118078571D02*
X137236678Y-118007142D01*
X137236678Y-118007142D02*
X137736678Y-118007142D01*
X137736678Y-118007142D02*
X138022392Y-118078571D01*
X138022392Y-118078571D02*
X138165250Y-118221428D01*
X138165250Y-118221428D02*
X138236678Y-118364285D01*
X138236678Y-118364285D02*
X138236678Y-118649999D01*
X138236678Y-118649999D02*
X138165250Y-118792857D01*
X138165250Y-118792857D02*
X138022392Y-118935714D01*
X138022392Y-118935714D02*
X137736678Y-119007142D01*
X137736678Y-119007142D02*
X137236678Y-119007142D01*
X137236678Y-119007142D02*
X136950964Y-118935714D01*
X136950964Y-118935714D02*
X136808107Y-118792857D01*
X136808107Y-118792857D02*
X136736678Y-118649999D01*
X138236678Y-116507142D02*
X137522392Y-117007142D01*
X138236678Y-117364285D02*
X136736678Y-117364285D01*
X136736678Y-117364285D02*
X136736678Y-116792856D01*
X136736678Y-116792856D02*
X136808107Y-116649999D01*
X136808107Y-116649999D02*
X136879535Y-116578570D01*
X136879535Y-116578570D02*
X137022392Y-116507142D01*
X137022392Y-116507142D02*
X137236678Y-116507142D01*
X137236678Y-116507142D02*
X137379535Y-116578570D01*
X137379535Y-116578570D02*
X137450964Y-116649999D01*
X137450964Y-116649999D02*
X137522392Y-116792856D01*
X137522392Y-116792856D02*
X137522392Y-117364285D01*
D13*
X146085714Y-125403654D02*
X146157142Y-125427464D01*
X146157142Y-125427464D02*
X146180952Y-125451273D01*
X146180952Y-125451273D02*
X146204761Y-125498892D01*
X146204761Y-125498892D02*
X146204761Y-125570321D01*
X146204761Y-125570321D02*
X146180952Y-125617940D01*
X146180952Y-125617940D02*
X146157142Y-125641750D01*
X146157142Y-125641750D02*
X146109523Y-125665559D01*
X146109523Y-125665559D02*
X145919047Y-125665559D01*
X145919047Y-125665559D02*
X145919047Y-125165559D01*
X145919047Y-125165559D02*
X146085714Y-125165559D01*
X146085714Y-125165559D02*
X146133333Y-125189369D01*
X146133333Y-125189369D02*
X146157142Y-125213178D01*
X146157142Y-125213178D02*
X146180952Y-125260797D01*
X146180952Y-125260797D02*
X146180952Y-125308416D01*
X146180952Y-125308416D02*
X146157142Y-125356035D01*
X146157142Y-125356035D02*
X146133333Y-125379845D01*
X146133333Y-125379845D02*
X146085714Y-125403654D01*
X146085714Y-125403654D02*
X145919047Y-125403654D01*
X141124761Y-116090559D02*
X140958095Y-115852464D01*
X140839047Y-116090559D02*
X140839047Y-115590559D01*
X140839047Y-115590559D02*
X141029523Y-115590559D01*
X141029523Y-115590559D02*
X141077142Y-115614369D01*
X141077142Y-115614369D02*
X141100952Y-115638178D01*
X141100952Y-115638178D02*
X141124761Y-115685797D01*
X141124761Y-115685797D02*
X141124761Y-115757226D01*
X141124761Y-115757226D02*
X141100952Y-115804845D01*
X141100952Y-115804845D02*
X141077142Y-115828654D01*
X141077142Y-115828654D02*
X141029523Y-115852464D01*
X141029523Y-115852464D02*
X140839047Y-115852464D01*
X146180952Y-115614369D02*
X146133333Y-115590559D01*
X146133333Y-115590559D02*
X146061904Y-115590559D01*
X146061904Y-115590559D02*
X145990476Y-115614369D01*
X145990476Y-115614369D02*
X145942857Y-115661988D01*
X145942857Y-115661988D02*
X145919047Y-115709607D01*
X145919047Y-115709607D02*
X145895238Y-115804845D01*
X145895238Y-115804845D02*
X145895238Y-115876273D01*
X145895238Y-115876273D02*
X145919047Y-115971511D01*
X145919047Y-115971511D02*
X145942857Y-116019130D01*
X145942857Y-116019130D02*
X145990476Y-116066750D01*
X145990476Y-116066750D02*
X146061904Y-116090559D01*
X146061904Y-116090559D02*
X146109523Y-116090559D01*
X146109523Y-116090559D02*
X146180952Y-116066750D01*
X146180952Y-116066750D02*
X146204761Y-116042940D01*
X146204761Y-116042940D02*
X146204761Y-115876273D01*
X146204761Y-115876273D02*
X146109523Y-115876273D01*
X140303334Y-125165559D02*
X140470000Y-125665559D01*
X140470000Y-125665559D02*
X140636667Y-125165559D01*
X141089047Y-125617940D02*
X141065238Y-125641750D01*
X141065238Y-125641750D02*
X140993809Y-125665559D01*
X140993809Y-125665559D02*
X140946190Y-125665559D01*
X140946190Y-125665559D02*
X140874762Y-125641750D01*
X140874762Y-125641750D02*
X140827143Y-125594130D01*
X140827143Y-125594130D02*
X140803333Y-125546511D01*
X140803333Y-125546511D02*
X140779524Y-125451273D01*
X140779524Y-125451273D02*
X140779524Y-125379845D01*
X140779524Y-125379845D02*
X140803333Y-125284607D01*
X140803333Y-125284607D02*
X140827143Y-125236988D01*
X140827143Y-125236988D02*
X140874762Y-125189369D01*
X140874762Y-125189369D02*
X140946190Y-125165559D01*
X140946190Y-125165559D02*
X140993809Y-125165559D01*
X140993809Y-125165559D02*
X141065238Y-125189369D01*
X141065238Y-125189369D02*
X141089047Y-125213178D01*
X141589047Y-125617940D02*
X141565238Y-125641750D01*
X141565238Y-125641750D02*
X141493809Y-125665559D01*
X141493809Y-125665559D02*
X141446190Y-125665559D01*
X141446190Y-125665559D02*
X141374762Y-125641750D01*
X141374762Y-125641750D02*
X141327143Y-125594130D01*
X141327143Y-125594130D02*
X141303333Y-125546511D01*
X141303333Y-125546511D02*
X141279524Y-125451273D01*
X141279524Y-125451273D02*
X141279524Y-125379845D01*
X141279524Y-125379845D02*
X141303333Y-125284607D01*
X141303333Y-125284607D02*
X141327143Y-125236988D01*
X141327143Y-125236988D02*
X141374762Y-125189369D01*
X141374762Y-125189369D02*
X141446190Y-125165559D01*
X141446190Y-125165559D02*
X141493809Y-125165559D01*
X141493809Y-125165559D02*
X141565238Y-125189369D01*
X141565238Y-125189369D02*
X141589047Y-125213178D01*
%TO.C,ESP32_UWB1*%
D10*
X110490000Y-81280000D02*
X182490000Y-81280000D01*
X182490000Y-114300000D01*
X110490000Y-114300000D01*
X110490000Y-81280000D01*
X110490000Y-88900000D02*
X115570000Y-88900000D01*
X115570000Y-106680000D01*
X110490000Y-106680000D01*
X110490000Y-88900000D01*
X148590000Y-81280000D02*
X161290000Y-81280000D01*
X161290000Y-91440000D01*
X148590000Y-91440000D01*
X148590000Y-81280000D01*
X177850000Y-93980000D02*
X183490000Y-93980000D01*
X183490000Y-101600000D01*
X177850000Y-101600000D01*
X177850000Y-93980000D01*
%TO.C,R1*%
X124460000Y-124460000D02*
X127000000Y-124460000D01*
X127000000Y-114300000D01*
X124460000Y-114300000D01*
X124460000Y-124460000D01*
%TO.C,R2*%
X127000000Y-124460000D02*
X129540000Y-124460000D01*
X129540000Y-114300000D01*
X127000000Y-114300000D01*
X127000000Y-124460000D01*
%TO.C,R4*%
X132080000Y-124460000D02*
X134620000Y-124460000D01*
X134620000Y-114300000D01*
X132080000Y-114300000D01*
X132080000Y-124460000D01*
%TO.C,R3*%
X129540000Y-124460000D02*
X132080000Y-124460000D01*
X132080000Y-114300000D01*
X129540000Y-114300000D01*
X129540000Y-124460000D01*
%TO.C,R6*%
X149860000Y-124460000D02*
X152400000Y-124460000D01*
X152400000Y-114300000D01*
X149860000Y-114300000D01*
X149860000Y-124460000D01*
%TO.C,ON_OFF_SWITCH1*%
X171450000Y-121285000D02*
X181610000Y-121285000D01*
X181610000Y-125095000D01*
X171450000Y-125095000D01*
X171450000Y-121285000D01*
%TO.C,RGB_LED_SQUARE1*%
X120650000Y-124450000D02*
X121910000Y-123190000D01*
X114310000Y-116850000D02*
X121910000Y-116850000D01*
X121910000Y-124450000D01*
X114310000Y-124450000D01*
X114310000Y-116850000D01*
%TO.C,R5*%
X152400000Y-124460000D02*
X154940000Y-124460000D01*
X154940000Y-114300000D01*
X152400000Y-114300000D01*
X152400000Y-124460000D01*
%TO.C,RGB_LED_SQUARE2*%
X146050000Y-124450000D02*
X147310000Y-123190000D01*
X139710000Y-116850000D02*
X147310000Y-116850000D01*
X147310000Y-124450000D01*
X139710000Y-124450000D01*
X139710000Y-116850000D01*
%TD*%
M02*
