M48
; DRILL file {KiCad 9.0.0} date 2025-03-08T21:01:47-0800
; FORMAT={-:-/ absolute / metric / decimal}
; #@! TF.CreationDate,2025-03-08T21:01:47-08:00
; #@! TF.GenerationSoftware,Kicad,Pcbnew,9.0.0
; #@! TF.FileFunction,Plated,1,2,PTH
FMAT,2
METRIC
; #@! TA.AperFunction,Plated,PTH,ComponentDrill
T1C0.700
; #@! TA.AperFunction,Plated,PTH,ComponentDrill
T2C0.800
; #@! TA.AperFunction,Plated,PTH,ComponentDrill
T3C1.000
; #@! TA.AperFunction,Plated,PTH,ComponentDrill
T4C1.050
%
G90
G05
T1
X138.52Y-132.62
X138.52Y-134.62
X138.52Y-136.62
X145.32Y-125.82
X147.32Y-125.82
X149.32Y-125.82
T2
X100.33Y-68.58
X101.6Y-78.491
X102.87Y-68.58
X104.14Y-78.491
X105.41Y-68.58
X106.68Y-78.491
X106.68Y-91.191
X106.68Y-114.051
X107.95Y-68.58
X109.22Y-91.191
X109.22Y-114.051
X110.49Y-68.58
X111.76Y-78.491
X111.76Y-114.051
X113.03Y-68.58
X114.3Y-78.491
X115.57Y-68.58
X116.84Y-78.491
X118.11Y-68.58
X120.65Y-68.58
X123.16Y-121.671
X123.16Y-126.751
X123.19Y-68.58
X124.46Y-86.36
X124.46Y-114.3
X125.73Y-68.58
X127.0Y-86.36
X127.0Y-114.3
X128.27Y-68.58
X129.54Y-74.93
X129.54Y-82.55
X129.54Y-86.36
X129.54Y-114.3
X130.81Y-68.58
X132.08Y-74.93
X132.08Y-82.55
X132.08Y-86.36
X132.08Y-114.3
X133.35Y-68.58
X134.62Y-74.93
X134.62Y-82.55
X134.62Y-86.36
X134.62Y-114.3
X135.86Y-121.671
X135.86Y-126.751
X135.89Y-68.58
X137.16Y-74.93
X137.16Y-82.55
X137.16Y-86.36
X137.16Y-114.3
X138.43Y-68.58
X139.7Y-74.93
X139.7Y-82.55
X139.7Y-86.36
X139.7Y-114.3
X140.97Y-68.58
X142.24Y-74.93
X142.24Y-82.55
X142.24Y-86.36
X142.24Y-114.3
X143.51Y-68.58
X144.78Y-74.93
X144.78Y-82.55
X144.78Y-86.36
X144.78Y-114.3
X144.78Y-119.38
X146.05Y-68.58
X147.32Y-74.93
X147.32Y-82.55
X147.32Y-86.36
X147.32Y-114.3
X147.32Y-119.38
X148.59Y-68.58
X149.86Y-74.93
X149.86Y-82.55
X149.86Y-86.36
X149.86Y-114.3
X149.86Y-119.38
X152.4Y-74.93
X152.4Y-82.55
X152.4Y-86.36
X152.4Y-114.3
X154.94Y-114.3
X157.48Y-114.3
X158.72Y-121.671
X158.72Y-126.751
X160.02Y-114.3
X162.56Y-114.3
X165.1Y-114.3
X167.64Y-114.3
X170.18Y-114.3
X171.42Y-121.671
X171.42Y-126.751
X172.72Y-114.3
X176.53Y-84.841
X176.53Y-107.701
X179.07Y-107.701
X187.96Y-107.701
X190.5Y-84.841
X190.5Y-107.701
T3
X106.68Y-123.431
X109.22Y-123.431
X111.76Y-123.431
X182.85Y-123.431
X185.39Y-123.431
X187.93Y-123.431
T4
X100.52Y-129.291
X100.52Y-131.831
X100.52Y-134.371
X104.17Y-125.581
X104.17Y-138.081
X114.27Y-125.581
X114.27Y-138.081
X115.17Y-128.681
X115.17Y-134.981
X119.72Y-128.681
X119.72Y-134.981
X176.69Y-129.291
X176.69Y-131.831
X176.69Y-134.371
X180.34Y-125.581
X180.34Y-138.081
X190.44Y-125.581
X190.44Y-138.081
X191.34Y-128.681
X191.34Y-134.981
X195.89Y-128.681
X195.89Y-134.981
M30
