M48
; DRILL file {KiCad 9.0.0} date 2025-03-07T01:45:24-0800
; FORMAT={-:-/ absolute / metric / decimal}
; #@! TF.CreationDate,2025-03-07T01:45:24-08:00
; #@! TF.GenerationSoftware,Kicad,Pcbnew,9.0.0
; #@! TF.FileFunction,Plated,1,2,PTH
FMAT,2
METRIC
; #@! TA.AperFunction,Plated,PTH,ComponentDrill
T1C0.700
; #@! TA.AperFunction,Plated,PTH,ComponentDrill
T2C0.800
; #@! TA.AperFunction,Plated,PTH,ComponentDrill
T3C1.000
; #@! TA.AperFunction,Plated,PTH,ComponentDrill
T4C1.050
%
G90
G05
T1
X138.52Y-132.62
X138.52Y-134.62
X138.52Y-136.62
X145.32Y-125.82
X147.32Y-125.82
X149.32Y-125.82
T2
X100.33Y-68.331
X101.6Y-78.491
X102.87Y-68.331
X104.14Y-78.491
X105.41Y-68.331
X106.68Y-78.491
X106.68Y-91.191
X106.68Y-114.051
X107.95Y-68.331
X109.22Y-91.191
X109.22Y-114.051
X110.49Y-68.331
X111.76Y-78.491
X111.76Y-114.051
X113.03Y-68.331
X114.3Y-78.491
X115.57Y-68.331
X116.84Y-78.491
X118.11Y-68.331
X120.65Y-68.331
X123.16Y-121.671
X123.16Y-126.751
X123.19Y-68.331
X124.46Y-86.111
X124.46Y-114.051
X125.73Y-68.331
X127.0Y-86.111
X127.0Y-114.051
X128.27Y-68.331
X129.54Y-74.681
X129.54Y-82.301
X129.54Y-86.111
X129.54Y-114.051
X130.81Y-68.331
X132.08Y-74.681
X132.08Y-82.301
X132.08Y-86.111
X132.08Y-114.051
X133.35Y-68.331
X134.62Y-74.681
X134.62Y-82.301
X134.62Y-86.111
X134.62Y-114.051
X135.86Y-121.671
X135.86Y-126.751
X135.89Y-68.331
X137.16Y-74.681
X137.16Y-82.301
X137.16Y-86.111
X137.16Y-114.051
X138.43Y-68.331
X139.7Y-74.681
X139.7Y-82.301
X139.7Y-86.111
X139.7Y-114.051
X140.97Y-68.331
X142.24Y-74.681
X142.24Y-82.301
X142.24Y-86.111
X142.24Y-114.051
X143.51Y-68.331
X144.78Y-74.681
X144.78Y-82.301
X144.78Y-86.111
X144.78Y-114.051
X144.78Y-119.131
X146.05Y-68.331
X147.32Y-74.681
X147.32Y-82.301
X147.32Y-86.111
X147.32Y-114.051
X147.32Y-119.131
X148.59Y-68.331
X149.86Y-86.111
X149.86Y-114.051
X149.86Y-119.131
X152.4Y-86.111
X152.4Y-114.051
X154.94Y-114.051
X157.48Y-114.051
X158.72Y-121.671
X158.72Y-126.751
X160.02Y-114.051
X162.56Y-114.051
X165.1Y-114.051
X167.64Y-114.051
X170.18Y-114.051
X171.42Y-121.671
X171.42Y-126.751
X172.72Y-114.051
X176.53Y-84.841
X176.53Y-107.701
X179.07Y-107.701
X187.96Y-107.701
X190.5Y-84.841
X190.5Y-107.701
X193.04Y-111.76
X193.04Y-119.38
X195.58Y-111.76
X195.58Y-119.38
X198.12Y-111.76
X198.12Y-119.38
T3
X106.68Y-123.431
X109.22Y-123.431
X111.76Y-123.431
X182.85Y-123.431
X185.39Y-123.431
X187.93Y-123.431
T4
X100.52Y-129.291
X100.52Y-131.831
X100.52Y-134.371
X104.17Y-125.581
X104.17Y-138.081
X114.27Y-125.581
X114.27Y-138.081
X115.17Y-128.681
X115.17Y-134.981
X119.72Y-128.681
X119.72Y-134.981
X176.69Y-129.291
X176.69Y-131.831
X176.69Y-134.371
X180.34Y-125.581
X180.34Y-138.081
X190.44Y-125.581
X190.44Y-138.081
X191.34Y-128.681
X191.34Y-134.981
X195.89Y-128.681
X195.89Y-134.981
M30
