%TF.GenerationSoftware,KiCad,Pcbnew,9.0.0*%
%TF.CreationDate,2025-03-06T19:24:07-08:00*%
%TF.ProjectId,remote,72656d6f-7465-42e6-9b69-6361645f7063,v0.1*%
%TF.SameCoordinates,Original*%
%TF.FileFunction,Copper,L1,Top*%
%TF.FilePolarity,Positive*%
%FSLAX46Y46*%
G04 Gerber Fmt 4.6, Leading zero omitted, Abs format (unit mm)*
G04 Created by KiCad (PCBNEW 9.0.0) date 2025-03-06 19:24:07*
%MOMM*%
%LPD*%
G01*
G04 APERTURE LIST*
%TA.AperFunction,ComponentPad*%
%ADD10C,1.800000*%
%TD*%
%TA.AperFunction,ComponentPad*%
%ADD11R,1.800000X1.800000*%
%TD*%
%TA.AperFunction,ComponentPad*%
%ADD12C,1.400000*%
%TD*%
%TA.AperFunction,ComponentPad*%
%ADD13C,1.500000*%
%TD*%
%TA.AperFunction,Conductor*%
%ADD14C,0.300000*%
%TD*%
%TA.AperFunction,Conductor*%
%ADD15C,0.200000*%
%TD*%
%TA.AperFunction,Conductor*%
%ADD16C,0.500000*%
%TD*%
G04 APERTURE END LIST*
D10*
%TO.P,THUMBSTICK2,10,S2_2*%
%TO.N,unconnected-(THUMBSTICK2-S2_2-Pad10)*%
X119720000Y-128681058D03*
%TO.P,THUMBSTICK2,9,S2_1*%
%TO.N,unconnected-(THUMBSTICK2-S2_1-Pad9)*%
X115170000Y-128681058D03*
%TO.P,THUMBSTICK2,8,S1_2*%
%TO.N,unconnected-(THUMBSTICK2-S1_2-Pad8)*%
X119720000Y-134981058D03*
%TO.P,THUMBSTICK2,7,S1_1*%
%TO.N,unconnected-(THUMBSTICK2-S1_1-Pad7)*%
X115170000Y-134981058D03*
%TO.P,THUMBSTICK2,6,+*%
%TO.N,unconnected-(THUMBSTICK2-+-Pad6)*%
X100520000Y-134371058D03*
%TO.P,THUMBSTICK2,5,Y*%
%TO.N,unconnected-(THUMBSTICK2-Y-Pad5)*%
X100520000Y-131831058D03*
%TO.P,THUMBSTICK2,4,-*%
%TO.N,unconnected-(THUMBSTICK2---Pad4)*%
X100520000Y-129291058D03*
%TO.P,THUMBSTICK2,3,+*%
%TO.N,Net-(ESP32_UWB1-3V3)*%
X106680000Y-123431058D03*
%TO.P,THUMBSTICK2,2,X*%
%TO.N,Net-(ESP32_UWB1-IO2)*%
X109220000Y-123431058D03*
%TO.P,THUMBSTICK2,1,-*%
%TO.N,Net-(BUTTON1-S1_2)*%
X111760000Y-123431058D03*
D11*
%TO.P,THUMBSTICK2,*%
%TO.N,*%
X104170000Y-125581058D03*
X104170000Y-138081058D03*
X114270000Y-125581058D03*
X114270000Y-138081058D03*
%TD*%
D10*
%TO.P,THUMBSTICK1,10,S2_2*%
%TO.N,unconnected-(THUMBSTICK1-S2_2-Pad10)*%
X195890000Y-128681058D03*
%TO.P,THUMBSTICK1,9,S2_1*%
%TO.N,unconnected-(THUMBSTICK1-S2_1-Pad9)*%
X191340000Y-128681058D03*
%TO.P,THUMBSTICK1,8,S1_2*%
%TO.N,unconnected-(THUMBSTICK1-S1_2-Pad8)*%
X195890000Y-134981058D03*
%TO.P,THUMBSTICK1,7,S1_1*%
%TO.N,unconnected-(THUMBSTICK1-S1_1-Pad7)*%
X191340000Y-134981058D03*
%TO.P,THUMBSTICK1,6,+*%
%TO.N,Net-(ESP32_UWB1-3V3)*%
X176690000Y-134371058D03*
%TO.P,THUMBSTICK1,5,Y*%
%TO.N,Net-(ESP32_UWB1-IO32)*%
X176690000Y-131831058D03*
%TO.P,THUMBSTICK1,4,-*%
%TO.N,Net-(BUTTON1-S1_2)*%
X176690000Y-129291058D03*
%TO.P,THUMBSTICK1,3,+*%
%TO.N,unconnected-(THUMBSTICK1-+-Pad3)*%
X182850000Y-123431058D03*
%TO.P,THUMBSTICK1,2,X*%
%TO.N,unconnected-(THUMBSTICK1-X-Pad2)*%
X185390000Y-123431058D03*
%TO.P,THUMBSTICK1,1,-*%
%TO.N,unconnected-(THUMBSTICK1---Pad1)*%
X187930000Y-123431058D03*
D11*
%TO.P,THUMBSTICK1,*%
%TO.N,*%
X180340000Y-125581058D03*
X180340000Y-138081058D03*
X190440000Y-125581058D03*
X190440000Y-138081058D03*
%TD*%
D10*
%TO.P,LOCK_SWITCH1,3*%
%TO.N,Net-(BUTTON1-S1_2)*%
X149860000Y-119131058D03*
%TO.P,LOCK_SWITCH1,2*%
%TO.N,Net-(ESP32_UWB1-IO25)*%
X147320000Y-119131058D03*
%TO.P,LOCK_SWITCH1,1*%
%TO.N,unconnected-(LOCK_SWITCH1-Pad1)*%
X144780000Y-119131058D03*
%TD*%
D12*
%TO.P,MINI_THUNSTICK1,1,-*%
%TO.N,Net-(BUTTON1-S1_2)*%
X138520000Y-136620000D03*
D13*
%TO.P,MINI_THUNSTICK1,2,X*%
%TO.N,Net-(ESP32_UWB1-IO14)*%
X138520000Y-134620000D03*
%TO.P,MINI_THUNSTICK1,3,+*%
%TO.N,Net-(ESP32_UWB1-3V3)*%
X138520000Y-132620000D03*
D12*
%TO.P,MINI_THUNSTICK1,4,-*%
%TO.N,Net-(BUTTON1-S1_2)*%
X149320000Y-125820000D03*
D13*
%TO.P,MINI_THUNSTICK1,5,Y*%
%TO.N,Net-(ESP32_UWB1-IO15)*%
X147320000Y-125820000D03*
%TO.P,MINI_THUNSTICK1,6,+*%
%TO.N,Net-(ESP32_UWB1-3V3)*%
X145320000Y-125820000D03*
%TD*%
D10*
%TO.P,RGB_LED4,1,R*%
%TO.N,Net-(RGB_LED4-R)*%
X130810000Y-68331058D03*
D11*
%TO.P,RGB_LED4,2,VCC*%
%TO.N,Net-(ESP32_UWB1-3V3)*%
X133350000Y-68331058D03*
D10*
%TO.P,RGB_LED4,3,G*%
%TO.N,Net-(RGB_LED4-G)*%
X135890000Y-68331058D03*
%TO.P,RGB_LED4,4,B*%
%TO.N,unconnected-(RGB_LED4-B-Pad4)*%
X138430000Y-68331058D03*
%TD*%
%TO.P,R2,1*%
%TO.N,Net-(ESP32_UWB1-IO1)*%
X132080000Y-82301058D03*
%TO.P,R2,2*%
%TO.N,Net-(RGB_LED1-G)*%
X132080000Y-74681058D03*
%TD*%
%TO.P,R4,1*%
%TO.N,Net-(ESP32_UWB1-IO5)*%
X137160000Y-82301058D03*
%TO.P,R4,2*%
%TO.N,Net-(RGB_LED3-R)*%
X137160000Y-74681058D03*
%TD*%
%TO.P,ESP32_UWB1,1,3V3*%
%TO.N,Net-(ESP32_UWB1-3V3)*%
X124460000Y-114051058D03*
%TO.P,ESP32_UWB1,2,GND*%
%TO.N,Net-(ESP32_UWB1-GND-Pad2)*%
X127000000Y-114051058D03*
%TO.P,ESP32_UWB1,3,RST*%
%TO.N,unconnected-(ESP32_UWB1-RST-Pad3)*%
X129540000Y-114051058D03*
%TO.P,ESP32_UWB1,4,GND*%
%TO.N,Net-(BUTTON1-S1_2)*%
X132080000Y-114051058D03*
%TO.P,ESP32_UWB1,5,IO2*%
%TO.N,Net-(ESP32_UWB1-IO2)*%
X134620000Y-114051058D03*
%TO.P,ESP32_UWB1,6,IO12*%
%TO.N,Net-(ESP32_UWB1-IO12)*%
X137160000Y-114051058D03*
%TO.P,ESP32_UWB1,7,IO13*%
%TO.N,Net-(BUTTON2-S2_1)*%
X139700000Y-114051058D03*
%TO.P,ESP32_UWB1,8,IO14*%
%TO.N,Net-(ESP32_UWB1-IO14)*%
X142240000Y-114051058D03*
%TO.P,ESP32_UWB1,9,IO15*%
%TO.N,Net-(ESP32_UWB1-IO15)*%
X144780000Y-114051058D03*
%TO.P,ESP32_UWB1,10,IO18*%
%TO.N,unconnected-(ESP32_UWB1-IO18-Pad10)*%
X147320000Y-114051058D03*
%TO.P,ESP32_UWB1,11,IO19*%
%TO.N,unconnected-(ESP32_UWB1-IO19-Pad11)*%
X149860000Y-114051058D03*
%TO.P,ESP32_UWB1,12,IO25*%
%TO.N,Net-(ESP32_UWB1-IO25)*%
X152400000Y-114051058D03*
%TO.P,ESP32_UWB1,13,IO26*%
%TO.N,Net-(BUTTON1-S1_1)*%
X154940000Y-114051058D03*
%TO.P,ESP32_UWB1,14,IO27*%
%TO.N,unconnected-(ESP32_UWB1-IO27-Pad14)*%
X157480000Y-114051058D03*
%TO.P,ESP32_UWB1,15,IO32*%
%TO.N,Net-(ESP32_UWB1-IO32)*%
X160020000Y-114051058D03*
%TO.P,ESP32_UWB1,16,IO33*%
%TO.N,Net-(ESP32_UWB1-IO33)*%
X162560000Y-114051058D03*
%TO.P,ESP32_UWB1,17,IO34*%
%TO.N,unconnected-(ESP32_UWB1-IO34-Pad17)*%
X165100000Y-114051058D03*
%TO.P,ESP32_UWB1,18,IO35*%
%TO.N,unconnected-(ESP32_UWB1-IO35-Pad18)*%
X167640000Y-114051058D03*
%TO.P,ESP32_UWB1,19,IO36*%
%TO.N,unconnected-(ESP32_UWB1-IO36-Pad19)*%
X170180000Y-114051058D03*
%TO.P,ESP32_UWB1,20,IO39*%
%TO.N,unconnected-(ESP32_UWB1-IO39-Pad20)*%
X172720000Y-114051058D03*
%TO.P,ESP32_UWB1,21,5V0*%
%TO.N,Net-(5V_DC_DC_CONVERTER1-OUT_+)*%
X124460000Y-86111058D03*
%TO.P,ESP32_UWB1,22,GND*%
%TO.N,Net-(5V_DC_DC_CONVERTER1-OUT_-)*%
X127000000Y-86111058D03*
%TO.P,ESP32_UWB1,23,IO3*%
%TO.N,Net-(ESP32_UWB1-IO3)*%
X129540000Y-86111058D03*
%TO.P,ESP32_UWB1,24,IO1*%
%TO.N,Net-(ESP32_UWB1-IO1)*%
X132080000Y-86111058D03*
%TO.P,ESP32_UWB1,25,IO0*%
%TO.N,Net-(ESP32_UWB1-IO0)*%
X134620000Y-86111058D03*
%TO.P,ESP32_UWB1,26,IO4*%
%TO.N,unconnected-(ESP32_UWB1-IO4-Pad26)*%
X137160000Y-86111058D03*
%TO.P,ESP32_UWB1,27,IO5*%
%TO.N,Net-(ESP32_UWB1-IO5)*%
X139700000Y-86111058D03*
%TO.P,ESP32_UWB1,28,IO16*%
%TO.N,Net-(ESP32_UWB1-IO16)*%
X142240000Y-86111058D03*
%TO.P,ESP32_UWB1,29,IO17*%
%TO.N,Net-(ESP32_UWB1-IO17)*%
X144780000Y-86111058D03*
%TO.P,ESP32_UWB1,30,IO21*%
%TO.N,Net-(ESP32_UWB1-IO21)*%
X147320000Y-86111058D03*
%TO.P,ESP32_UWB1,31,IO22*%
%TO.N,Net-(ESP32_UWB1-IO22)*%
X149860000Y-86111058D03*
%TO.P,ESP32_UWB1,32,IO23*%
%TO.N,unconnected-(ESP32_UWB1-IO23-Pad32)*%
X152400000Y-86111058D03*
%TD*%
%TO.P,ON_OFF_SWITCH1,1*%
%TO.N,unconnected-(ON_OFF_SWITCH1-Pad1)*%
X101600000Y-78491058D03*
%TO.P,ON_OFF_SWITCH1,2*%
%TO.N,Net-(5V_DC_DC_CONVERTER1-IN_-)*%
X104140000Y-78491058D03*
%TO.P,ON_OFF_SWITCH1,3*%
%TO.N,Net-(3.7V_BATTERY_CHARGER1-OUT-)*%
X106680000Y-78491058D03*
%TD*%
%TO.P,R6,1*%
%TO.N,Net-(ESP32_UWB1-IO17)*%
X142240000Y-82301058D03*
%TO.P,R6,2*%
%TO.N,Net-(RGB_LED4-R)*%
X142240000Y-74681058D03*
%TD*%
%TO.P,BUTTON2,1,S1_1*%
%TO.N,unconnected-(BUTTON2-S1_1-Pad1)*%
X123160000Y-121671058D03*
%TO.P,BUTTON2,2,S1_2*%
%TO.N,unconnected-(BUTTON2-S1_2-Pad2)*%
X123160000Y-126751058D03*
%TO.P,BUTTON2,3,S2_1*%
%TO.N,Net-(BUTTON2-S2_1)*%
X135860000Y-121671058D03*
%TO.P,BUTTON2,4,S2_2*%
%TO.N,Net-(BUTTON1-S1_2)*%
X135860000Y-126751058D03*
%TD*%
%TO.P,RGB_LED1,1,R*%
%TO.N,Net-(RGB_LED1-R)*%
X100330000Y-68331058D03*
D11*
%TO.P,RGB_LED1,2,VCC*%
%TO.N,Net-(ESP32_UWB1-3V3)*%
X102870000Y-68331058D03*
D10*
%TO.P,RGB_LED1,3,G*%
%TO.N,Net-(RGB_LED1-G)*%
X105410000Y-68331058D03*
%TO.P,RGB_LED1,4,B*%
%TO.N,unconnected-(RGB_LED1-B-Pad4)*%
X107950000Y-68331058D03*
%TD*%
%TO.P,R1,1*%
%TO.N,Net-(ESP32_UWB1-IO3)*%
X129540000Y-82301058D03*
%TO.P,R1,2*%
%TO.N,Net-(RGB_LED1-R)*%
X129540000Y-74681058D03*
%TD*%
D11*
%TO.P,5V_DC_DC_CONVERTER1,1,IN_+*%
%TO.N,Net-(3.7V_BATTERY_CHARGER1-OUT+)*%
X109220000Y-114051058D03*
D10*
%TO.P,5V_DC_DC_CONVERTER1,2,CTL*%
%TO.N,unconnected-(5V_DC_DC_CONVERTER1-CTL-Pad2)*%
X111760000Y-114051058D03*
%TO.P,5V_DC_DC_CONVERTER1,3,IN_-*%
%TO.N,Net-(5V_DC_DC_CONVERTER1-IN_-)*%
X114300000Y-114051058D03*
D11*
%TO.P,5V_DC_DC_CONVERTER1,4,OUT_+*%
%TO.N,Net-(5V_DC_DC_CONVERTER1-OUT_+)*%
X109220000Y-91191058D03*
D10*
%TO.P,5V_DC_DC_CONVERTER1,5,OUT_-*%
%TO.N,Net-(5V_DC_DC_CONVERTER1-OUT_-)*%
X111760000Y-91191058D03*
%TD*%
%TO.P,BUTTON1,1,S1_1*%
%TO.N,Net-(BUTTON1-S1_1)*%
X158720000Y-121671058D03*
%TO.P,BUTTON1,2,S1_2*%
%TO.N,Net-(BUTTON1-S1_2)*%
X158720000Y-126751058D03*
%TO.P,BUTTON1,3,S2_1*%
%TO.N,unconnected-(BUTTON1-S2_1-Pad3)*%
X171420000Y-121671058D03*
%TO.P,BUTTON1,4,S2_2*%
%TO.N,unconnected-(BUTTON1-S2_2-Pad4)*%
X171420000Y-126751058D03*
%TD*%
%TO.P,RGB_LED2,1,R*%
%TO.N,unconnected-(RGB_LED2-R-Pad1)*%
X110490000Y-68331058D03*
D11*
%TO.P,RGB_LED2,2,VCC*%
%TO.N,Net-(ESP32_UWB1-3V3)*%
X113030000Y-68331058D03*
D10*
%TO.P,RGB_LED2,3,G*%
%TO.N,unconnected-(RGB_LED2-G-Pad3)*%
X115570000Y-68331058D03*
%TO.P,RGB_LED2,4,B*%
%TO.N,Net-(RGB_LED2-B)*%
X118110000Y-68331058D03*
%TD*%
%TO.P,R8,1*%
%TO.N,Net-(ESP32_UWB1-IO22)*%
X147320000Y-82301058D03*
%TO.P,R8,2*%
%TO.N,Net-(RGB_LED5-R)*%
X147320000Y-74681058D03*
%TD*%
%TO.P,R7,1*%
%TO.N,Net-(ESP32_UWB1-IO21)*%
X144780000Y-82301058D03*
%TO.P,R7,2*%
%TO.N,Net-(RGB_LED4-G)*%
X144780000Y-74681058D03*
%TD*%
%TO.P,R9,1*%
%TO.N,Net-(ESP32_UWB1-IO33)*%
X149860000Y-82301058D03*
%TO.P,R9,2*%
%TO.N,Net-(RGB_LED5-G)*%
X149860000Y-74681058D03*
%TD*%
%TO.P,RGB_LED3,1,R*%
%TO.N,Net-(RGB_LED3-R)*%
X120650000Y-68331058D03*
D11*
%TO.P,RGB_LED3,2,VCC*%
%TO.N,Net-(ESP32_UWB1-3V3)*%
X123190000Y-68331058D03*
D10*
%TO.P,RGB_LED3,3,G*%
%TO.N,Net-(RGB_LED3-G)*%
X125730000Y-68331058D03*
%TO.P,RGB_LED3,4,B*%
%TO.N,unconnected-(RGB_LED3-B-Pad4)*%
X128270000Y-68331058D03*
%TD*%
%TO.P,R3,1*%
%TO.N,Net-(ESP32_UWB1-IO0)*%
X134620000Y-82301058D03*
%TO.P,R3,2*%
%TO.N,Net-(RGB_LED2-B)*%
X134620000Y-74681058D03*
%TD*%
%TO.P,TAG_SELECTOR1,1*%
%TO.N,unconnected-(TAG_SELECTOR1-Pad1)*%
X111760000Y-78491058D03*
%TO.P,TAG_SELECTOR1,2*%
%TO.N,Net-(ESP32_UWB1-IO12)*%
X114300000Y-78491058D03*
%TO.P,TAG_SELECTOR1,3*%
%TO.N,Net-(ESP32_UWB1-GND-Pad2)*%
X116840000Y-78491058D03*
%TD*%
%TO.P,R5,1*%
%TO.N,Net-(ESP32_UWB1-IO16)*%
X139700000Y-82301058D03*
%TO.P,R5,2*%
%TO.N,Net-(RGB_LED3-G)*%
X139700000Y-74681058D03*
%TD*%
%TO.P,RGB_LED5,1,R*%
%TO.N,Net-(RGB_LED5-R)*%
X140970000Y-68331058D03*
D11*
%TO.P,RGB_LED5,2,VCC*%
%TO.N,Net-(ESP32_UWB1-3V3)*%
X143510000Y-68331058D03*
D10*
%TO.P,RGB_LED5,3,G*%
%TO.N,Net-(RGB_LED5-G)*%
X146050000Y-68331058D03*
%TO.P,RGB_LED5,4,B*%
%TO.N,unconnected-(RGB_LED5-B-Pad4)*%
X148590000Y-68331058D03*
%TD*%
D11*
%TO.P,3.7V_BATTERY_CHARGER1,1,+*%
%TO.N,unconnected-(3.7V_BATTERY_CHARGER1-+-Pad1)*%
X176530000Y-84841058D03*
%TO.P,3.7V_BATTERY_CHARGER1,2,-*%
%TO.N,unconnected-(3.7V_BATTERY_CHARGER1---Pad2)*%
X190500000Y-84841058D03*
%TO.P,3.7V_BATTERY_CHARGER1,3,OUT+*%
%TO.N,Net-(3.7V_BATTERY_CHARGER1-OUT+)*%
X176530000Y-107701058D03*
%TO.P,3.7V_BATTERY_CHARGER1,4,B+*%
%TO.N,unconnected-(3.7V_BATTERY_CHARGER1-B+-Pad4)*%
X179070000Y-107701058D03*
%TO.P,3.7V_BATTERY_CHARGER1,5,B-*%
%TO.N,unconnected-(3.7V_BATTERY_CHARGER1-B--Pad5)*%
X187960000Y-107701058D03*
%TO.P,3.7V_BATTERY_CHARGER1,6,OUT-*%
%TO.N,Net-(3.7V_BATTERY_CHARGER1-OUT-)*%
X190500000Y-107701058D03*
%TD*%
D14*
%TO.N,Net-(RGB_LED2-B)*%
X134620000Y-74681058D02*
X131812000Y-71873058D01*
X131812000Y-71873058D02*
X121652000Y-71873058D01*
X121652000Y-71873058D02*
X118110000Y-68331058D01*
D15*
%TO.N,Net-(ESP32_UWB1-3V3)*%
X138520000Y-132620000D02*
X137160000Y-133980000D01*
X137160000Y-133980000D02*
X137160000Y-134620000D01*
X138934628Y-137621000D02*
X138105372Y-137621000D01*
X137160000Y-136675628D02*
X137160000Y-134620000D01*
X145320000Y-131235628D02*
X138934628Y-137621000D01*
X138105372Y-137621000D02*
X137160000Y-136675628D01*
X176690000Y-134371058D02*
X142184570Y-134371058D01*
%TO.N,Net-(BUTTON1-S1_2)*%
X149320000Y-125820000D02*
X157788942Y-125820000D01*
X157788942Y-125820000D02*
X158720000Y-126751058D01*
D14*
X142240000Y-112712058D02*
X139700000Y-112712058D01*
D15*
X135860000Y-126751058D02*
X140901000Y-121710058D01*
X140514058Y-112712058D02*
X139700000Y-112712058D01*
X140901000Y-121710058D02*
X140901000Y-113099000D01*
X140901000Y-113099000D02*
X140514058Y-112712058D01*
D14*
X139700000Y-112712058D02*
X139269818Y-112712058D01*
D15*
X143579000Y-113553587D02*
X142737471Y-112712058D01*
X138520000Y-136620000D02*
X143579000Y-131561000D01*
X143579000Y-131561000D02*
X143579000Y-113553587D01*
X142737471Y-112712058D02*
X142240000Y-112712058D01*
%TO.N,Net-(ESP32_UWB1-3V3)*%
X142184570Y-134371058D02*
X142087814Y-134467814D01*
%TO.N,Net-(BUTTON1-S1_2)*%
X149320000Y-125820000D02*
X149320000Y-119671058D01*
X149320000Y-119671058D02*
X149860000Y-119131058D01*
%TO.N,Net-(ESP32_UWB1-IO15)*%
X147320000Y-125820000D02*
X146119000Y-124619000D01*
X146119000Y-124619000D02*
X146119000Y-115390058D01*
X146119000Y-115390058D02*
X144780000Y-114051058D01*
%TO.N,Net-(ESP32_UWB1-3V3)*%
X145320000Y-131235628D02*
X145320000Y-125820000D01*
%TO.N,Net-(ESP32_UWB1-IO14)*%
X138520000Y-134620000D02*
X142240000Y-130900000D01*
X142240000Y-130900000D02*
X142240000Y-114051058D01*
D14*
%TO.N,Net-(BUTTON1-S1_2)*%
X153601000Y-112712058D02*
X142240000Y-112712058D01*
D16*
%TO.N,Net-(3.7V_BATTERY_CHARGER1-OUT+)*%
X176530000Y-107701058D02*
X173750085Y-110480973D01*
X112790085Y-110480973D02*
X109220000Y-114051058D01*
X173750085Y-110480973D02*
X112790085Y-110480973D01*
%TO.N,Net-(3.7V_BATTERY_CHARGER1-OUT-)*%
X158480000Y-103891058D02*
X155940000Y-101351058D01*
X165100000Y-103891058D02*
X158480000Y-103891058D01*
X109220000Y-81031058D02*
X128899397Y-81031058D01*
X131439397Y-78491058D02*
X149860000Y-78491058D01*
X155940000Y-101351058D02*
X155940000Y-86111058D01*
X186690000Y-103891058D02*
X165100000Y-103891058D01*
X149860000Y-78491058D02*
X155940000Y-84571058D01*
X190500000Y-107701058D02*
X186690000Y-103891058D01*
X155940000Y-84571058D02*
X155940000Y-86111058D01*
X128899397Y-81031058D02*
X131439397Y-78491058D01*
X106680000Y-78491058D02*
X109220000Y-81031058D01*
%TO.N,Net-(5V_DC_DC_CONVERTER1-OUT_-)*%
X112660000Y-90291058D02*
X122820000Y-90291058D01*
X122820000Y-90291058D02*
X127000000Y-86111058D01*
X111760000Y-91191058D02*
X112660000Y-90291058D01*
%TO.N,Net-(5V_DC_DC_CONVERTER1-OUT_+)*%
X111760000Y-88651058D02*
X121920000Y-88651058D01*
X121920000Y-88651058D02*
X124460000Y-86111058D01*
X109220000Y-91191058D02*
X111760000Y-88651058D01*
%TO.N,Net-(5V_DC_DC_CONVERTER1-IN_-)*%
X106680000Y-116591058D02*
X111760000Y-116591058D01*
X104140000Y-114051058D02*
X106680000Y-116591058D01*
X111760000Y-116591058D02*
X114300000Y-114051058D01*
X104140000Y-78491058D02*
X104140000Y-114051058D01*
D15*
%TO.N,Net-(BUTTON1-S1_2)*%
X117620000Y-123431058D02*
X121920000Y-119131058D01*
D14*
X137160000Y-116591058D02*
X132080000Y-116591058D01*
D15*
X129540000Y-119131058D02*
X132080000Y-116591058D01*
D14*
X138411000Y-113570876D02*
X138411000Y-115340058D01*
D15*
X121920000Y-119131058D02*
X129540000Y-119131058D01*
D14*
X149860000Y-119131058D02*
X153601000Y-115390058D01*
X139269818Y-112712058D02*
X138411000Y-113570876D01*
D15*
X161260000Y-129291058D02*
X158720000Y-126751058D01*
D14*
X132080000Y-116591058D02*
X132080000Y-114051058D01*
X138411000Y-115340058D02*
X137160000Y-116591058D01*
X153601000Y-115390058D02*
X153601000Y-112712058D01*
D15*
X111760000Y-123431058D02*
X117620000Y-123431058D01*
X176690000Y-129291058D02*
X161260000Y-129291058D01*
D14*
%TO.N,Net-(ESP32_UWB1-IO3)*%
X129540000Y-82301058D02*
X129540000Y-86111058D01*
%TO.N,Net-(ESP32_UWB1-3V3)*%
X113030000Y-68331058D02*
X110490000Y-65791058D01*
X106680000Y-123431058D02*
X103360000Y-123431058D01*
X114085810Y-119983058D02*
X99912000Y-119983058D01*
X125730000Y-65791058D02*
X123190000Y-68331058D01*
X130810000Y-65791058D02*
X125730000Y-65791058D01*
X100330000Y-65791058D02*
X99060000Y-65791058D01*
X99912000Y-119983058D02*
X97790000Y-117861058D01*
X115570000Y-65791058D02*
X113030000Y-68331058D01*
X133350000Y-68331058D02*
X130810000Y-65791058D01*
X99060000Y-65791058D02*
X96520000Y-68331058D01*
X110490000Y-65791058D02*
X105410000Y-65791058D01*
X143510000Y-68331058D02*
X140970000Y-65791058D01*
X135890000Y-65791058D02*
X133350000Y-68331058D01*
X96520000Y-116591058D02*
X97790000Y-117861058D01*
X124460000Y-114051058D02*
X120017810Y-114051058D01*
X123190000Y-68331058D02*
X120650000Y-65791058D01*
X120017810Y-114051058D02*
X114085810Y-119983058D01*
X120650000Y-65791058D02*
X115570000Y-65791058D01*
X96520000Y-68331058D02*
X96520000Y-116591058D01*
X105410000Y-65791058D02*
X102870000Y-68331058D01*
X103360000Y-123431058D02*
X99912000Y-119983058D01*
X102870000Y-68331058D02*
X100330000Y-65791058D01*
X140970000Y-65791058D02*
X135890000Y-65791058D01*
%TO.N,Net-(ESP32_UWB1-IO1)*%
X132080000Y-82301058D02*
X132080000Y-86111058D01*
%TO.N,Net-(RGB_LED1-R)*%
X100330000Y-68331058D02*
X106680000Y-74681058D01*
X106680000Y-74681058D02*
X129540000Y-74681058D01*
%TO.N,Net-(RGB_LED1-G)*%
X112640254Y-73066610D02*
X130465552Y-73066610D01*
X106699000Y-68331058D02*
X106699000Y-68849240D01*
X108811942Y-69238298D02*
X112640254Y-73066610D01*
X108468182Y-69582058D02*
X108811942Y-69238298D01*
X105410000Y-68331058D02*
X106699000Y-68331058D01*
X107431818Y-69582058D02*
X108468182Y-69582058D01*
X130465552Y-73066610D02*
X132080000Y-74681058D01*
X106699000Y-68849240D02*
X107431818Y-69582058D01*
%TO.N,Net-(ESP32_UWB1-IO0)*%
X134620000Y-82301058D02*
X134620000Y-86111058D01*
%TO.N,Net-(ESP32_UWB1-IO5)*%
X139700000Y-84841058D02*
X139700000Y-86111058D01*
X137160000Y-82301058D02*
X139700000Y-84841058D01*
%TO.N,Net-(ESP32_UWB1-IO17)*%
X144780000Y-84841058D02*
X144780000Y-86111058D01*
X142240000Y-82301058D02*
X144780000Y-84841058D01*
%TO.N,Net-(ESP32_UWB1-IO21)*%
X144780000Y-82301058D02*
X147320000Y-84841058D01*
X147320000Y-84841058D02*
X147320000Y-86111058D01*
%TO.N,Net-(ESP32_UWB1-IO16)*%
X139700000Y-82301058D02*
X142240000Y-84841058D01*
X142240000Y-84841058D02*
X142240000Y-86111058D01*
%TO.N,Net-(ESP32_UWB1-IO22)*%
X149860000Y-84841058D02*
X149860000Y-86111058D01*
X147320000Y-82301058D02*
X149860000Y-84841058D01*
%TO.N,Net-(RGB_LED3-R)*%
X132983000Y-71921099D02*
X133129740Y-72067839D01*
X127561480Y-70871058D02*
X127769000Y-71078579D01*
X127769000Y-71078579D02*
X128062479Y-71372058D01*
X133984999Y-72508058D02*
X133985001Y-72508059D01*
X132983000Y-71921099D02*
X132983000Y-71921100D01*
X128062479Y-71372058D02*
X128062480Y-71372058D01*
X133985001Y-72508059D02*
X133985002Y-72508058D01*
X123190000Y-70871058D02*
X127561480Y-70871058D01*
X132983000Y-71921098D02*
X132983000Y-71921099D01*
X133985002Y-72508058D02*
X134400041Y-72508058D01*
X132433960Y-71372058D02*
X132983000Y-71921098D01*
X128062480Y-71372058D02*
X128477520Y-71372058D01*
X134987000Y-72508058D02*
X137160000Y-74681058D01*
X133569957Y-72508059D02*
X133569959Y-72508058D01*
X134400041Y-72508058D02*
X134987000Y-72508058D01*
X133129740Y-72067839D02*
X133276479Y-72214579D01*
X133276479Y-72214579D02*
X133569957Y-72508059D01*
X128477520Y-71372058D02*
X132433960Y-71372058D01*
X120650000Y-68331058D02*
X123190000Y-70871058D01*
X133569959Y-72508058D02*
X133984999Y-72508058D01*
X127769000Y-71078579D02*
X127769000Y-71078578D01*
%TO.N,Net-(RGB_LED3-G)*%
X128270000Y-70871058D02*
X132641480Y-70871058D01*
X133777480Y-72007058D02*
X134192520Y-72007058D01*
X133484000Y-71713579D02*
X133777479Y-72007058D01*
X125730000Y-68331058D02*
X128270000Y-70871058D01*
X134192520Y-72007058D02*
X137026000Y-72007058D01*
X133484000Y-71713578D02*
X133484000Y-71713579D01*
X133777479Y-72007058D02*
X133777480Y-72007058D01*
X132641480Y-70871058D02*
X133484000Y-71713578D01*
X137026000Y-72007058D02*
X139700000Y-74681058D01*
D15*
%TO.N,Net-(ESP32_UWB1-IO12)*%
X103201000Y-117692058D02*
X100060000Y-114551058D01*
X119380000Y-111511058D02*
X134620000Y-111511058D01*
X114300000Y-78491058D02*
X112060702Y-76251760D01*
X112060702Y-76251760D02*
X101600000Y-76251760D01*
X134620000Y-111511058D02*
X137160000Y-114051058D01*
X101600000Y-76251760D02*
X100060000Y-77791760D01*
X100060000Y-77791760D02*
X100060000Y-114551058D01*
X119380000Y-111511058D02*
X113199000Y-117692058D01*
X113199000Y-117692058D02*
X103201000Y-117692058D01*
%TO.N,Net-(ESP32_UWB1-GND-Pad2)*%
X119631000Y-112800058D02*
X125749000Y-112800058D01*
X125749000Y-112800058D02*
X127000000Y-114051058D01*
X98659000Y-116190058D02*
X101001000Y-118532058D01*
X116840000Y-78491058D02*
X113899000Y-75550058D01*
X98659000Y-78324958D02*
X98659000Y-116190058D01*
X113899000Y-118532058D02*
X119631000Y-112800058D01*
X101433900Y-75550058D02*
X98659000Y-78324958D01*
X113899000Y-75550058D02*
X101433900Y-75550058D01*
X101001000Y-118532058D02*
X113899000Y-118532058D01*
%TO.N,Net-(BUTTON2-S2_1)*%
X135860000Y-121671058D02*
X139700000Y-117831058D01*
X139700000Y-117831058D02*
X139700000Y-114051058D01*
%TO.N,Net-(ESP32_UWB1-IO25)*%
X147320000Y-119131058D02*
X152400000Y-114051058D01*
%TO.N,Net-(BUTTON1-S1_1)*%
X158720000Y-117831058D02*
X154940000Y-114051058D01*
X158720000Y-121671058D02*
X158720000Y-117831058D01*
%TO.N,Net-(ESP32_UWB1-IO14)*%
X141894316Y-114396742D02*
X142240000Y-114051058D01*
%TO.N,Net-(ESP32_UWB1-IO32)*%
X172720000Y-119131058D02*
X162560000Y-119131058D01*
X160020000Y-116591058D02*
X160020000Y-114051058D01*
X162560000Y-119131058D02*
X160020000Y-116591058D01*
X177891000Y-130630058D02*
X177891000Y-124302058D01*
X177891000Y-124302058D02*
X172720000Y-119131058D01*
X176690000Y-131831058D02*
X177891000Y-130630058D01*
D14*
%TO.N,Net-(ESP32_UWB1-IO33)*%
X163811000Y-112800058D02*
X162560000Y-114051058D01*
X180760565Y-105431058D02*
X180760565Y-111090493D01*
X154339000Y-101600000D02*
X154339000Y-85507266D01*
X180760565Y-111090493D02*
X179051000Y-112800058D01*
X179051000Y-112800058D02*
X163811000Y-112800058D01*
X151132792Y-82301058D02*
X149860000Y-82301058D01*
X154339000Y-101600000D02*
X158170058Y-105431058D01*
X158170058Y-105431058D02*
X180760565Y-105431058D01*
X154339000Y-85507266D02*
X151132792Y-82301058D01*
D15*
%TO.N,Net-(ESP32_UWB1-IO2)*%
X134620000Y-114001058D02*
X133419000Y-112800058D01*
X134620000Y-114051058D02*
X134620000Y-114001058D01*
X128836471Y-116591058D02*
X130879000Y-114548529D01*
X119380000Y-116591058D02*
X128836471Y-116591058D01*
X130879000Y-114548529D02*
X130879000Y-113503587D01*
X130879000Y-113503587D02*
X131582529Y-112800058D01*
X131582529Y-112800058D02*
X133419000Y-112800058D01*
X109220000Y-123431058D02*
X110421000Y-122230058D01*
X113741000Y-122230058D02*
X119380000Y-116591058D01*
X110421000Y-122230058D02*
X113741000Y-122230058D01*
D14*
%TO.N,Net-(RGB_LED5-R)*%
X147320000Y-70871058D02*
X147320000Y-74681058D01*
X143510000Y-70871058D02*
X147320000Y-70871058D01*
X140970000Y-68331058D02*
X143510000Y-70871058D01*
%TO.N,Net-(RGB_LED5-G)*%
X149860000Y-72141058D02*
X149860000Y-74681058D01*
X146050000Y-68331058D02*
X149860000Y-72141058D01*
%TO.N,Net-(RGB_LED4-R)*%
X130810000Y-68331058D02*
X133985000Y-71506058D01*
X139065000Y-71506058D02*
X142240000Y-74681058D01*
X133985000Y-71506058D02*
X139065000Y-71506058D01*
%TO.N,Net-(RGB_LED4-G)*%
X144780000Y-73411058D02*
X144780000Y-74681058D01*
X138430000Y-70871058D02*
X142240000Y-70871058D01*
X142240000Y-70871058D02*
X144780000Y-73411058D01*
X135890000Y-68331058D02*
X138430000Y-70871058D01*
D15*
%TO.N,Net-(ESP32_UWB1-3V3)*%
X137160000Y-134620000D02*
X124460000Y-134620000D01*
X124460000Y-134620000D02*
X121920000Y-132080000D01*
X121920000Y-132080000D02*
X115328942Y-132080000D01*
X115328942Y-132080000D02*
X106680000Y-123431058D01*
%TD*%
M02*
