M48
; DRILL file {KiCad 9.0.0} date 2025-03-09T03:26:14-0700
; FORMAT={-:-/ absolute / metric / decimal}
; #@! TF.CreationDate,2025-03-09T03:26:14-07:00
; #@! TF.GenerationSoftware,Kicad,Pcbnew,9.0.0
; #@! TF.FileFunction,Plated,1,2,PTH
FMAT,2
METRIC
; #@! TA.AperFunction,Plated,PTH,ComponentDrill
T1C0.700
; #@! TA.AperFunction,Plated,PTH,ComponentDrill
T2C0.800
; #@! TA.AperFunction,Plated,PTH,ComponentDrill
T3C1.000
; #@! TA.AperFunction,Plated,PTH,ComponentDrill
T4C1.050
%
G90
G05
T1
X61.069Y-88.189
X61.069Y-90.189
X61.069Y-92.189
X67.869Y-81.389
X69.869Y-81.389
X71.869Y-81.389
T2
X22.879Y-24.149
X24.149Y-34.06
X25.419Y-24.149
X26.689Y-34.06
X27.959Y-24.149
X29.229Y-34.06
X29.229Y-46.76
X29.229Y-69.62
X30.499Y-24.149
X31.769Y-46.76
X31.769Y-69.62
X33.039Y-24.149
X34.309Y-34.06
X34.309Y-69.62
X35.579Y-24.149
X36.849Y-34.06
X38.119Y-24.149
X39.389Y-34.06
X40.659Y-24.149
X43.199Y-24.149
X45.709Y-77.24
X45.709Y-82.32
X45.739Y-24.149
X47.009Y-41.929
X47.009Y-69.869
X48.279Y-24.149
X49.549Y-41.929
X49.549Y-69.869
X50.819Y-24.149
X52.089Y-30.499
X52.089Y-38.119
X52.089Y-41.929
X52.089Y-69.869
X53.359Y-24.149
X54.629Y-30.499
X54.629Y-38.119
X54.629Y-41.929
X54.629Y-69.869
X55.899Y-24.149
X57.169Y-30.499
X57.169Y-38.119
X57.169Y-41.929
X57.169Y-69.869
X58.409Y-77.24
X58.409Y-82.32
X58.439Y-24.149
X59.709Y-30.499
X59.709Y-38.119
X59.709Y-41.929
X59.709Y-69.869
X60.979Y-24.149
X62.249Y-30.499
X62.249Y-38.119
X62.249Y-41.929
X62.249Y-69.869
X63.519Y-24.149
X64.789Y-30.499
X64.789Y-38.119
X64.789Y-41.929
X64.789Y-69.869
X66.059Y-24.149
X67.329Y-30.499
X67.329Y-38.119
X67.329Y-41.929
X67.329Y-69.869
X67.329Y-74.949
X68.599Y-24.149
X69.869Y-30.499
X69.869Y-38.119
X69.869Y-41.929
X69.869Y-69.869
X69.869Y-74.949
X71.139Y-24.149
X72.409Y-30.499
X72.409Y-38.119
X72.409Y-41.929
X72.409Y-69.869
X72.409Y-74.949
X74.949Y-30.499
X74.949Y-38.119
X74.949Y-41.929
X74.949Y-69.869
X77.489Y-69.869
X80.029Y-69.869
X81.269Y-77.24
X81.269Y-82.32
X82.569Y-69.869
X85.109Y-69.869
X87.649Y-69.869
X90.189Y-69.869
X92.729Y-69.869
X93.969Y-77.24
X93.969Y-82.32
X95.269Y-69.869
X99.079Y-40.41
X99.079Y-63.27
X101.619Y-63.27
X110.509Y-63.27
X113.049Y-40.41
X113.049Y-63.27
T3
X29.229Y-79.0
X31.769Y-79.0
X34.309Y-79.0
X105.399Y-79.0
X107.939Y-79.0
X110.479Y-79.0
T4
X23.069Y-84.86
X23.069Y-87.4
X23.069Y-89.94
X26.719Y-81.15
X26.719Y-93.65
X36.819Y-81.15
X36.819Y-93.65
X37.719Y-84.25
X37.719Y-90.55
X42.269Y-84.25
X42.269Y-90.55
X99.239Y-84.86
X99.239Y-87.4
X99.239Y-89.94
X102.889Y-81.15
X102.889Y-93.65
X112.989Y-81.15
X112.989Y-93.65
X113.889Y-84.25
X113.889Y-90.55
X118.439Y-84.25
X118.439Y-90.55
M30
