M48
; DRILL file {KiCad 9.0.0} date 2025-03-03T20:00:25-0800
; FORMAT={-:-/ absolute / metric / decimal}
; #@! TF.CreationDate,2025-03-03T20:00:25-08:00
; #@! TF.GenerationSoftware,Kicad,Pcbnew,9.0.0
; #@! TF.FileFunction,Plated,1,2,PTH
FMAT,2
METRIC
; #@! TA.AperFunction,Plated,PTH,ComponentDrill
T1C0.800
%
G90
G05
T1
X134.63Y-73.66
X134.63Y-76.2
X134.63Y-78.74
X134.63Y-81.28
X134.63Y-83.82
X134.63Y-86.36
X134.63Y-88.9
X134.63Y-91.44
X134.63Y-93.98
X134.63Y-96.52
X134.63Y-99.06
X134.63Y-101.6
X134.63Y-104.14
X134.63Y-106.68
X134.63Y-109.22
X149.87Y-73.66
X149.87Y-76.2
X149.87Y-78.74
X149.87Y-81.28
X149.87Y-83.82
X149.87Y-86.36
X149.87Y-88.9
X149.87Y-91.44
X149.87Y-93.98
X149.87Y-96.52
X149.87Y-99.06
X149.87Y-101.6
X149.87Y-104.14
X149.87Y-109.22
X149.873Y-106.528
X154.94Y-88.9
X154.94Y-91.44
X154.94Y-93.98
X154.94Y-96.52
X154.94Y-99.06
X154.94Y-101.6
X155.04Y-73.56
X160.12Y-73.56
X162.56Y-88.9
X162.56Y-91.44
X162.56Y-93.98
X162.56Y-96.52
X162.56Y-99.06
X162.56Y-101.6
X165.21Y-73.56
X167.65Y-81.28
X167.65Y-83.82
X167.65Y-86.36
X167.65Y-88.9
X167.65Y-91.44
X167.65Y-93.98
X167.65Y-96.52
X167.65Y-99.06
X167.65Y-104.14
X167.65Y-106.68
X167.65Y-109.22
X167.65Y-111.76
X170.29Y-73.56
M30
