%TF.GenerationSoftware,KiCad,Pcbnew,9.0.0*%
%TF.CreationDate,2025-03-09T03:25:20-07:00*%
%TF.ProjectId,server,73657276-6572-42e6-9b69-6361645f7063,v0.1*%
%TF.SameCoordinates,Original*%
%TF.FileFunction,Copper,L2,Bot*%
%TF.FilePolarity,Positive*%
%FSLAX46Y46*%
G04 Gerber Fmt 4.6, Leading zero omitted, Abs format (unit mm)*
G04 Created by KiCad (PCBNEW 9.0.0) date 2025-03-09 03:25:20*
%MOMM*%
%LPD*%
G01*
G04 APERTURE LIST*
%TA.AperFunction,ComponentPad*%
%ADD10C,1.800000*%
%TD*%
%TA.AperFunction,ComponentPad*%
%ADD11R,1.800000X1.800000*%
%TD*%
G04 APERTURE END LIST*
D10*
%TO.P,RGB_LED_ROUND2,1,R*%
%TO.N,Net-(RGB_LED_ROUND2-R)*%
X53340000Y-40640000D03*
D11*
%TO.P,RGB_LED_ROUND2,2,VCC*%
%TO.N,Net-(ESP32_Nano1-3.3V)*%
X53340000Y-43180000D03*
D10*
%TO.P,RGB_LED_ROUND2,3,G*%
%TO.N,Net-(RGB_LED_ROUND2-G)*%
X53340000Y-45720000D03*
%TO.P,RGB_LED_ROUND2,4,B*%
%TO.N,unconnected-(RGB_LED_ROUND2-B-Pad4)*%
X53340000Y-48260000D03*
%TD*%
%TO.P,R1,1*%
%TO.N,Net-(ESP32_Nano1-A4)*%
X39770000Y-40640000D03*
%TO.P,R1,2*%
%TO.N,Net-(RGB_LED_ROUND1-R)*%
X47390000Y-40640000D03*
%TD*%
%TO.P,ESP32_Nano1,1,TX1*%
%TO.N,unconnected-(ESP32_Nano1-TX1-Pad1)*%
X21590000Y-22860000D03*
%TO.P,ESP32_Nano1,2,RX0*%
%TO.N,unconnected-(ESP32_Nano1-RX0-Pad2)*%
X21590000Y-25400000D03*
%TO.P,ESP32_Nano1,3,RST*%
%TO.N,unconnected-(ESP32_Nano1-RST-Pad3)*%
X21590000Y-27940000D03*
%TO.P,ESP32_Nano1,4,GND*%
%TO.N,unconnected-(ESP32_Nano1-GND-Pad4)*%
X21590000Y-30480000D03*
%TO.P,ESP32_Nano1,5,D2*%
%TO.N,unconnected-(ESP32_Nano1-D2-Pad5)*%
X21590000Y-33020000D03*
%TO.P,ESP32_Nano1,6,D3*%
%TO.N,unconnected-(ESP32_Nano1-D3-Pad6)*%
X21590000Y-35560000D03*
%TO.P,ESP32_Nano1,7,D4*%
%TO.N,unconnected-(ESP32_Nano1-D4-Pad7)*%
X21590000Y-38100000D03*
%TO.P,ESP32_Nano1,8,D5*%
%TO.N,unconnected-(ESP32_Nano1-D5-Pad8)*%
X21590000Y-40640000D03*
%TO.P,ESP32_Nano1,9,D6*%
%TO.N,unconnected-(ESP32_Nano1-D6-Pad9)*%
X21590000Y-43180000D03*
%TO.P,ESP32_Nano1,10,D7*%
%TO.N,unconnected-(ESP32_Nano1-D7-Pad10)*%
X21590000Y-45720000D03*
%TO.P,ESP32_Nano1,11,D8*%
%TO.N,unconnected-(ESP32_Nano1-D8-Pad11)*%
X21590000Y-48260000D03*
%TO.P,ESP32_Nano1,12,D9*%
%TO.N,unconnected-(ESP32_Nano1-D9-Pad12)*%
X21590000Y-50800000D03*
%TO.P,ESP32_Nano1,13,D10*%
%TO.N,unconnected-(ESP32_Nano1-D10-Pad13)*%
X21590000Y-53340000D03*
%TO.P,ESP32_Nano1,14,D11*%
%TO.N,unconnected-(ESP32_Nano1-D11-Pad14)*%
X21590000Y-55880000D03*
%TO.P,ESP32_Nano1,15,D12*%
%TO.N,unconnected-(ESP32_Nano1-D12-Pad15)*%
X21590000Y-58420000D03*
%TO.P,ESP32_Nano1,16,D13*%
%TO.N,unconnected-(ESP32_Nano1-D13-Pad16)*%
X36830000Y-58420000D03*
%TO.P,ESP32_Nano1,17,3.3V*%
%TO.N,Net-(ESP32_Nano1-3.3V)*%
X36833472Y-55728102D03*
%TO.P,ESP32_Nano1,18,B0*%
%TO.N,unconnected-(ESP32_Nano1-B0-Pad18)*%
X36830000Y-53340000D03*
%TO.P,ESP32_Nano1,19,A0*%
%TO.N,Net-(ESP32_Nano1-A0)*%
X36830000Y-50800000D03*
%TO.P,ESP32_Nano1,20,A1*%
%TO.N,Net-(ESP32_Nano1-A1)*%
X36830000Y-48260000D03*
%TO.P,ESP32_Nano1,21,A2*%
%TO.N,Net-(ESP32_Nano1-A2)*%
X36830000Y-45720000D03*
%TO.P,ESP32_Nano1,22,A3*%
%TO.N,Net-(ESP32_Nano1-A3)*%
X36830000Y-43180000D03*
%TO.P,ESP32_Nano1,23,A4*%
%TO.N,Net-(ESP32_Nano1-A4)*%
X36830000Y-40640000D03*
%TO.P,ESP32_Nano1,24,A5*%
%TO.N,Net-(2_PIN_CONNECTOR2-Pin_2)*%
X36830000Y-38100000D03*
%TO.P,ESP32_Nano1,25,A6*%
%TO.N,Net-(2_PIN_CONNECTOR2-Pin_1)*%
X36830000Y-35560000D03*
%TO.P,ESP32_Nano1,26,A7*%
%TO.N,unconnected-(ESP32_Nano1-A7-Pad26)*%
X36830000Y-33020000D03*
%TO.P,ESP32_Nano1,27,VBUS*%
%TO.N,unconnected-(ESP32_Nano1-VBUS-Pad27)*%
X36830000Y-30480000D03*
%TO.P,ESP32_Nano1,28,B1*%
%TO.N,unconnected-(ESP32_Nano1-B1-Pad28)*%
X36830000Y-27940000D03*
%TO.P,ESP32_Nano1,29,GND*%
%TO.N,Net-(2_PIN_CONNECTOR1-Pin_2)*%
X36830000Y-25400000D03*
%TO.P,ESP32_Nano1,30,VIN*%
%TO.N,Net-(2_PIN_CONNECTOR1-Pin_1)*%
X36830000Y-22860000D03*
%TD*%
%TO.P,R3,1*%
%TO.N,Net-(ESP32_Nano1-A2)*%
X39770000Y-45720000D03*
%TO.P,R3,2*%
%TO.N,Net-(RGB_LED_ROUND2-R)*%
X47390000Y-45720000D03*
%TD*%
%TO.P,R2,1*%
%TO.N,Net-(ESP32_Nano1-A3)*%
X39770000Y-43180000D03*
%TO.P,R2,2*%
%TO.N,Net-(RGB_LED_ROUND1-G)*%
X47390000Y-43180000D03*
%TD*%
%TO.P,2_PIN_CONNECTOR2,1,Pin_1*%
%TO.N,Net-(2_PIN_CONNECTOR2-Pin_1)*%
X52070000Y-22760000D03*
%TO.P,2_PIN_CONNECTOR2,2,Pin_2*%
%TO.N,Net-(2_PIN_CONNECTOR2-Pin_2)*%
X57150000Y-22760000D03*
%TD*%
%TO.P,RGB_LED_ROUND1,1,R*%
%TO.N,Net-(RGB_LED_ROUND1-R)*%
X53340000Y-30480000D03*
D11*
%TO.P,RGB_LED_ROUND1,2,VCC*%
%TO.N,Net-(ESP32_Nano1-3.3V)*%
X53340000Y-33020000D03*
D10*
%TO.P,RGB_LED_ROUND1,3,G*%
%TO.N,Net-(RGB_LED_ROUND1-G)*%
X53340000Y-35560000D03*
%TO.P,RGB_LED_ROUND1,4,B*%
%TO.N,unconnected-(RGB_LED_ROUND1-B-Pad4)*%
X53340000Y-38100000D03*
%TD*%
%TO.P,2_PIN_CONNECTOR1,1,Pin_1*%
%TO.N,Net-(2_PIN_CONNECTOR1-Pin_1)*%
X41910000Y-22760000D03*
%TO.P,2_PIN_CONNECTOR1,2,Pin_2*%
%TO.N,Net-(2_PIN_CONNECTOR1-Pin_2)*%
X46990000Y-22760000D03*
%TD*%
%TO.P,RGB_LED_ROUND3,1,R*%
%TO.N,unconnected-(RGB_LED_ROUND3-R-Pad1)*%
X53330000Y-50800000D03*
D11*
%TO.P,RGB_LED_ROUND3,2,VCC*%
%TO.N,Net-(ESP32_Nano1-3.3V)*%
X53330000Y-53340000D03*
D10*
%TO.P,RGB_LED_ROUND3,3,G*%
%TO.N,unconnected-(RGB_LED_ROUND3-G-Pad3)*%
X53330000Y-55880000D03*
%TO.P,RGB_LED_ROUND3,4,B*%
%TO.N,Net-(RGB_LED_ROUND3-B)*%
X53330000Y-58420000D03*
%TD*%
%TO.P,R5,1*%
%TO.N,Net-(ESP32_Nano1-A0)*%
X39770000Y-50800000D03*
%TO.P,R5,2*%
%TO.N,Net-(RGB_LED_ROUND3-B)*%
X47390000Y-50800000D03*
%TD*%
%TO.P,R4,1*%
%TO.N,Net-(ESP32_Nano1-A1)*%
X39770000Y-48260000D03*
%TO.P,R4,2*%
%TO.N,Net-(RGB_LED_ROUND2-G)*%
X47390000Y-48260000D03*
%TD*%
M02*
