%TF.GenerationSoftware,KiCad,Pcbnew,9.0.0*%
%TF.CreationDate,2025-03-08T00:26:57-08:00*%
%TF.ProjectId,server,73657276-6572-42e6-9b69-6361645f7063,v0.1*%
%TF.SameCoordinates,Original*%
%TF.FileFunction,Copper,L1,Top*%
%TF.FilePolarity,Positive*%
%FSLAX46Y46*%
G04 Gerber Fmt 4.6, Leading zero omitted, Abs format (unit mm)*
G04 Created by KiCad (PCBNEW 9.0.0) date 2025-03-08 00:26:57*
%MOMM*%
%LPD*%
G01*
G04 APERTURE LIST*
%TA.AperFunction,ComponentPad*%
%ADD10C,1.800000*%
%TD*%
%TA.AperFunction,ComponentPad*%
%ADD11R,1.800000X1.800000*%
%TD*%
%TA.AperFunction,Conductor*%
%ADD12C,0.500000*%
%TD*%
%TA.AperFunction,Conductor*%
%ADD13C,0.300000*%
%TD*%
G04 APERTURE END LIST*
D10*
%TO.P,RGB_LED_ROUND2,1,R*%
%TO.N,Net-(RGB_LED_ROUND2-R)*%
X166380000Y-91440000D03*
D11*
%TO.P,RGB_LED_ROUND2,2,VCC*%
%TO.N,Net-(ESP32_Nano1-3.3V)*%
X166380000Y-93980000D03*
D10*
%TO.P,RGB_LED_ROUND2,3,G*%
%TO.N,Net-(RGB_LED_ROUND2-G)*%
X166380000Y-96520000D03*
%TO.P,RGB_LED_ROUND2,4,B*%
%TO.N,unconnected-(RGB_LED_ROUND2-B-Pad4)*%
X166380000Y-99060000D03*
%TD*%
%TO.P,R1,1*%
%TO.N,Net-(ESP32_Nano1-A5)*%
X153670000Y-88900000D03*
%TO.P,R1,2*%
%TO.N,Net-(RGB_LED_ROUND1-R)*%
X161290000Y-88900000D03*
%TD*%
%TO.P,ESP32_Nano1,1,TX1*%
%TO.N,unconnected-(ESP32_Nano1-TX1-Pad1)*%
X134630000Y-73660000D03*
%TO.P,ESP32_Nano1,2,RX0*%
%TO.N,unconnected-(ESP32_Nano1-RX0-Pad2)*%
X134630000Y-76200000D03*
%TO.P,ESP32_Nano1,3,RST*%
%TO.N,unconnected-(ESP32_Nano1-RST-Pad3)*%
X134630000Y-78740000D03*
%TO.P,ESP32_Nano1,4,GND*%
%TO.N,unconnected-(ESP32_Nano1-GND-Pad4)*%
X134630000Y-81280000D03*
%TO.P,ESP32_Nano1,5,D2*%
%TO.N,unconnected-(ESP32_Nano1-D2-Pad5)*%
X134630000Y-83820000D03*
%TO.P,ESP32_Nano1,6,D3*%
%TO.N,unconnected-(ESP32_Nano1-D3-Pad6)*%
X134630000Y-86360000D03*
%TO.P,ESP32_Nano1,7,D4*%
%TO.N,unconnected-(ESP32_Nano1-D4-Pad7)*%
X134630000Y-88900000D03*
%TO.P,ESP32_Nano1,8,D5*%
%TO.N,unconnected-(ESP32_Nano1-D5-Pad8)*%
X134630000Y-91440000D03*
%TO.P,ESP32_Nano1,9,D6*%
%TO.N,unconnected-(ESP32_Nano1-D6-Pad9)*%
X134630000Y-93980000D03*
%TO.P,ESP32_Nano1,10,D7*%
%TO.N,unconnected-(ESP32_Nano1-D7-Pad10)*%
X134630000Y-96520000D03*
%TO.P,ESP32_Nano1,11,D8*%
%TO.N,unconnected-(ESP32_Nano1-D8-Pad11)*%
X134630000Y-99060000D03*
%TO.P,ESP32_Nano1,12,D9*%
%TO.N,unconnected-(ESP32_Nano1-D9-Pad12)*%
X134630000Y-101600000D03*
%TO.P,ESP32_Nano1,13,D10*%
%TO.N,unconnected-(ESP32_Nano1-D10-Pad13)*%
X134630000Y-104140000D03*
%TO.P,ESP32_Nano1,14,D11*%
%TO.N,unconnected-(ESP32_Nano1-D11-Pad14)*%
X134630000Y-106680000D03*
%TO.P,ESP32_Nano1,15,D12*%
%TO.N,unconnected-(ESP32_Nano1-D12-Pad15)*%
X134630000Y-109220000D03*
%TO.P,ESP32_Nano1,16,D13*%
%TO.N,unconnected-(ESP32_Nano1-D13-Pad16)*%
X149870000Y-109220000D03*
%TO.P,ESP32_Nano1,17,3.3V*%
%TO.N,Net-(ESP32_Nano1-3.3V)*%
X149873472Y-106528102D03*
%TO.P,ESP32_Nano1,18,B0*%
%TO.N,unconnected-(ESP32_Nano1-B0-Pad18)*%
X149870000Y-104140000D03*
%TO.P,ESP32_Nano1,19,A0*%
%TO.N,Net-(ESP32_Nano1-A0)*%
X149870000Y-101600000D03*
%TO.P,ESP32_Nano1,20,A1*%
%TO.N,Net-(ESP32_Nano1-A1)*%
X149870000Y-99060000D03*
%TO.P,ESP32_Nano1,21,A2*%
%TO.N,Net-(ESP32_Nano1-A2)*%
X149870000Y-96520000D03*
%TO.P,ESP32_Nano1,22,A3*%
%TO.N,Net-(ESP32_Nano1-A3)*%
X149870000Y-93980000D03*
%TO.P,ESP32_Nano1,23,A4*%
%TO.N,Net-(ESP32_Nano1-A4)*%
X149870000Y-91440000D03*
%TO.P,ESP32_Nano1,24,A5*%
%TO.N,Net-(ESP32_Nano1-A5)*%
X149870000Y-88900000D03*
%TO.P,ESP32_Nano1,25,A6*%
%TO.N,Net-(2_PIN_CONNECTOR2-Pin_2)*%
X149870000Y-86360000D03*
%TO.P,ESP32_Nano1,26,A7*%
%TO.N,Net-(2_PIN_CONNECTOR2-Pin_1)*%
X149870000Y-83820000D03*
%TO.P,ESP32_Nano1,27,VBUS*%
%TO.N,unconnected-(ESP32_Nano1-VBUS-Pad27)*%
X149870000Y-81280000D03*
%TO.P,ESP32_Nano1,28,B1*%
%TO.N,unconnected-(ESP32_Nano1-B1-Pad28)*%
X149870000Y-78740000D03*
%TO.P,ESP32_Nano1,29,GND*%
%TO.N,Net-(2_PIN_CONNECTOR1-Pin_2)*%
X149870000Y-76200000D03*
%TO.P,ESP32_Nano1,30,VIN*%
%TO.N,Net-(2_PIN_CONNECTOR1-Pin_1)*%
X149870000Y-73660000D03*
%TD*%
%TO.P,R3,1*%
%TO.N,Net-(ESP32_Nano1-A3)*%
X153670000Y-93980000D03*
%TO.P,R3,2*%
%TO.N,Net-(RGB_LED_ROUND2-R)*%
X161290000Y-93980000D03*
%TD*%
%TO.P,R2,1*%
%TO.N,Net-(ESP32_Nano1-A4)*%
X153670000Y-91440000D03*
%TO.P,R2,2*%
%TO.N,Net-(RGB_LED_ROUND1-G)*%
X161290000Y-91440000D03*
%TD*%
%TO.P,2_PIN_CONNECTOR2,1,Pin_1*%
%TO.N,Net-(2_PIN_CONNECTOR2-Pin_1)*%
X165210000Y-73560000D03*
%TO.P,2_PIN_CONNECTOR2,2,Pin_2*%
%TO.N,Net-(2_PIN_CONNECTOR2-Pin_2)*%
X170290000Y-73560000D03*
%TD*%
%TO.P,RGB_LED_ROUND1,1,R*%
%TO.N,Net-(RGB_LED_ROUND1-R)*%
X166380000Y-81280000D03*
D11*
%TO.P,RGB_LED_ROUND1,2,VCC*%
%TO.N,Net-(ESP32_Nano1-3.3V)*%
X166380000Y-83820000D03*
D10*
%TO.P,RGB_LED_ROUND1,3,G*%
%TO.N,Net-(RGB_LED_ROUND1-G)*%
X166380000Y-86360000D03*
%TO.P,RGB_LED_ROUND1,4,B*%
%TO.N,unconnected-(RGB_LED_ROUND1-B-Pad4)*%
X166380000Y-88900000D03*
%TD*%
%TO.P,2_PIN_CONNECTOR1,1,Pin_1*%
%TO.N,Net-(2_PIN_CONNECTOR1-Pin_1)*%
X155040000Y-73560000D03*
%TO.P,2_PIN_CONNECTOR1,2,Pin_2*%
%TO.N,Net-(2_PIN_CONNECTOR1-Pin_2)*%
X160120000Y-73560000D03*
%TD*%
%TO.P,RGB_LED_ROUND3,1,R*%
%TO.N,Net-(RGB_LED_ROUND3-R)*%
X166370000Y-101600000D03*
D11*
%TO.P,RGB_LED_ROUND3,2,VCC*%
%TO.N,Net-(ESP32_Nano1-3.3V)*%
X166370000Y-104140000D03*
D10*
%TO.P,RGB_LED_ROUND3,3,G*%
%TO.N,Net-(RGB_LED_ROUND3-G)*%
X166370000Y-106680000D03*
%TO.P,RGB_LED_ROUND3,4,B*%
%TO.N,unconnected-(RGB_LED_ROUND3-B-Pad4)*%
X166370000Y-109220000D03*
%TD*%
%TO.P,R5,1*%
%TO.N,Net-(ESP32_Nano1-A1)*%
X153670000Y-99060000D03*
%TO.P,R5,2*%
%TO.N,Net-(RGB_LED_ROUND3-R)*%
X161290000Y-99060000D03*
%TD*%
%TO.P,R6,1*%
%TO.N,Net-(ESP32_Nano1-A0)*%
X153670000Y-101600000D03*
%TO.P,R6,2*%
%TO.N,Net-(RGB_LED_ROUND3-G)*%
X161290000Y-101600000D03*
%TD*%
%TO.P,R4,1*%
%TO.N,Net-(ESP32_Nano1-A2)*%
X153670000Y-96520000D03*
%TO.P,R4,2*%
%TO.N,Net-(RGB_LED_ROUND2-G)*%
X161290000Y-96520000D03*
%TD*%
D12*
%TO.N,Net-(2_PIN_CONNECTOR1-Pin_1)*%
X149970000Y-73560000D02*
X149870000Y-73660000D01*
X155040000Y-73560000D02*
X149970000Y-73560000D01*
%TO.N,Net-(2_PIN_CONNECTOR1-Pin_2)*%
X160120000Y-73560000D02*
X157480000Y-76200000D01*
X157480000Y-76200000D02*
X149870000Y-76200000D01*
D13*
%TO.N,Net-(2_PIN_CONNECTOR2-Pin_2)*%
X157490000Y-86360000D02*
X170290000Y-73560000D01*
X149870000Y-86360000D02*
X157490000Y-86360000D01*
%TO.N,Net-(2_PIN_CONNECTOR2-Pin_1)*%
X154950000Y-83820000D02*
X149870000Y-83820000D01*
X165210000Y-73560000D02*
X154950000Y-83820000D01*
%TO.N,Net-(ESP32_Nano1-A5)*%
X149870000Y-88900000D02*
X153670000Y-88900000D01*
%TO.N,Net-(ESP32_Nano1-A2)*%
X149870000Y-96520000D02*
X153670000Y-96520000D01*
%TO.N,Net-(ESP32_Nano1-A1)*%
X149870000Y-99060000D02*
X153670000Y-99060000D01*
%TO.N,Net-(ESP32_Nano1-A4)*%
X149870000Y-91440000D02*
X153670000Y-91440000D01*
%TO.N,Net-(RGB_LED_ROUND1-R)*%
X166380000Y-81280000D02*
X161290000Y-86370000D01*
X161290000Y-86370000D02*
X161290000Y-88900000D01*
%TO.N,Net-(RGB_LED_ROUND1-G)*%
X166370000Y-86360000D02*
X161290000Y-91440000D01*
X166380000Y-86360000D02*
X166370000Y-86360000D01*
%TO.N,Net-(RGB_LED_ROUND2-R)*%
X166380000Y-91440000D02*
X163840000Y-93980000D01*
X163840000Y-93980000D02*
X161290000Y-93980000D01*
%TO.N,Net-(RGB_LED_ROUND2-G)*%
X166380000Y-96520000D02*
X161290000Y-96520000D01*
%TO.N,Net-(ESP32_Nano1-A3)*%
X149870000Y-93980000D02*
X153670000Y-93980000D01*
%TO.N,Net-(ESP32_Nano1-A0)*%
X149870000Y-101600000D02*
X153670000Y-101600000D01*
%TO.N,Net-(ESP32_Nano1-3.3V)*%
X166380000Y-93980000D02*
X168910000Y-96510000D01*
X168910000Y-104150000D02*
X166380000Y-106680000D01*
X166535370Y-114134630D02*
X157480000Y-114134630D01*
X168910000Y-109210000D02*
X168910000Y-111760000D01*
X168910000Y-91450000D02*
X166380000Y-93980000D01*
X168910000Y-111760000D02*
X166535370Y-114134630D01*
X168910000Y-96510000D02*
X168910000Y-104150000D01*
X157480000Y-114134630D02*
X149873472Y-106528102D01*
X166380000Y-106680000D02*
X168910000Y-109210000D01*
X168910000Y-86350000D02*
X168910000Y-91450000D01*
X166380000Y-83820000D02*
X168910000Y-86350000D01*
%TO.N,Net-(RGB_LED_ROUND3-R)*%
X161300000Y-99060000D02*
X161290000Y-99060000D01*
X166380000Y-104140000D02*
X161300000Y-99060000D01*
%TO.N,Net-(RGB_LED_ROUND3-G)*%
X161290000Y-104130000D02*
X161290000Y-101600000D01*
X166380000Y-109220000D02*
X161290000Y-104130000D01*
%TD*%
M02*
