M48
; DRILL file {KiCad 9.0.0} date 2025-03-08T16:53:08-0800
; FORMAT={-:-/ absolute / metric / decimal}
; #@! TF.CreationDate,2025-03-08T16:53:08-08:00
; #@! TF.GenerationSoftware,Kicad,Pcbnew,9.0.0
; #@! TF.FileFunction,Plated,1,2,PTH
FMAT,2
METRIC
; #@! TA.AperFunction,Plated,PTH,ComponentDrill
T1C0.800
%
G90
G05
T1
X135.89Y-76.2
X135.89Y-78.74
X135.89Y-81.28
X135.89Y-83.82
X135.89Y-86.36
X135.89Y-88.9
X135.89Y-91.44
X135.89Y-93.98
X135.89Y-96.52
X135.89Y-99.06
X135.89Y-101.6
X135.89Y-104.14
X135.89Y-106.68
X135.89Y-109.22
X135.89Y-111.76
X151.13Y-76.2
X151.13Y-78.74
X151.13Y-81.28
X151.13Y-83.82
X151.13Y-86.36
X151.13Y-88.9
X151.13Y-91.44
X151.13Y-93.98
X151.13Y-96.52
X151.13Y-99.06
X151.13Y-101.6
X151.13Y-104.14
X151.13Y-106.68
X151.13Y-111.76
X151.133Y-109.068
X154.07Y-93.98
X154.07Y-96.52
X154.07Y-99.06
X154.07Y-101.6
X154.07Y-104.14
X156.21Y-76.1
X161.29Y-76.1
X161.69Y-93.98
X161.69Y-96.52
X161.69Y-99.06
X161.69Y-101.6
X161.69Y-104.14
X166.37Y-76.1
X167.63Y-104.14
X167.63Y-106.68
X167.63Y-109.22
X167.63Y-111.76
X167.64Y-83.82
X167.64Y-86.36
X167.64Y-88.9
X167.64Y-91.44
X167.64Y-93.98
X167.64Y-96.52
X167.64Y-99.06
X167.64Y-101.6
X171.45Y-76.1
M30
