M48
; DRILL file {KiCad 9.0.0} date 2025-03-09T03:25:19-0700
; FORMAT={-:-/ absolute / metric / decimal}
; #@! TF.CreationDate,2025-03-09T03:25:19-07:00
; #@! TF.GenerationSoftware,Kicad,Pcbnew,9.0.0
; #@! TF.FileFunction,Plated,1,2,PTH
FMAT,2
METRIC
; #@! TA.AperFunction,Plated,PTH,ComponentDrill
T1C0.800
%
G90
G05
T1
X21.59Y-22.86
X21.59Y-25.4
X21.59Y-27.94
X21.59Y-30.48
X21.59Y-33.02
X21.59Y-35.56
X21.59Y-38.1
X21.59Y-40.64
X21.59Y-43.18
X21.59Y-45.72
X21.59Y-48.26
X21.59Y-50.8
X21.59Y-53.34
X21.59Y-55.88
X21.59Y-58.42
X36.83Y-22.86
X36.83Y-25.4
X36.83Y-27.94
X36.83Y-30.48
X36.83Y-33.02
X36.83Y-35.56
X36.83Y-38.1
X36.83Y-40.64
X36.83Y-43.18
X36.83Y-45.72
X36.83Y-48.26
X36.83Y-50.8
X36.83Y-53.34
X36.83Y-58.42
X36.833Y-55.728
X39.77Y-40.64
X39.77Y-43.18
X39.77Y-45.72
X39.77Y-48.26
X39.77Y-50.8
X41.91Y-22.76
X46.99Y-22.76
X47.39Y-40.64
X47.39Y-43.18
X47.39Y-45.72
X47.39Y-48.26
X47.39Y-50.8
X52.07Y-22.76
X53.33Y-50.8
X53.33Y-53.34
X53.33Y-55.88
X53.33Y-58.42
X53.34Y-30.48
X53.34Y-33.02
X53.34Y-35.56
X53.34Y-38.1
X53.34Y-40.64
X53.34Y-43.18
X53.34Y-45.72
X53.34Y-48.26
X57.15Y-22.76
M30
