%TF.GenerationSoftware,KiCad,Pcbnew,9.0.0*%
%TF.CreationDate,2025-03-08T00:26:58-08:00*%
%TF.ProjectId,server,73657276-6572-42e6-9b69-6361645f7063,v0.1*%
%TF.SameCoordinates,Original*%
%TF.FileFunction,Soldermask,Top*%
%TF.FilePolarity,Negative*%
%FSLAX46Y46*%
G04 Gerber Fmt 4.6, Leading zero omitted, Abs format (unit mm)*
G04 Created by KiCad (PCBNEW 9.0.0) date 2025-03-08 00:26:58*
%MOMM*%
%LPD*%
G01*
G04 APERTURE LIST*
%ADD10C,1.800000*%
%ADD11R,1.800000X1.800000*%
G04 APERTURE END LIST*
D10*
%TO.C,RGB_LED_ROUND2*%
X166380000Y-91440000D03*
D11*
X166380000Y-93980000D03*
D10*
X166380000Y-96520000D03*
X166380000Y-99060000D03*
%TD*%
%TO.C,R1*%
X153670000Y-88900000D03*
X161290000Y-88900000D03*
%TD*%
%TO.C,ESP32_Nano1*%
X134630000Y-73660000D03*
X134630000Y-76200000D03*
X134630000Y-78740000D03*
X134630000Y-81280000D03*
X134630000Y-83820000D03*
X134630000Y-86360000D03*
X134630000Y-88900000D03*
X134630000Y-91440000D03*
X134630000Y-93980000D03*
X134630000Y-96520000D03*
X134630000Y-99060000D03*
X134630000Y-101600000D03*
X134630000Y-104140000D03*
X134630000Y-106680000D03*
X134630000Y-109220000D03*
X149870000Y-109220000D03*
X149873472Y-106528102D03*
X149870000Y-104140000D03*
X149870000Y-101600000D03*
X149870000Y-99060000D03*
X149870000Y-96520000D03*
X149870000Y-93980000D03*
X149870000Y-91440000D03*
X149870000Y-88900000D03*
X149870000Y-86360000D03*
X149870000Y-83820000D03*
X149870000Y-81280000D03*
X149870000Y-78740000D03*
X149870000Y-76200000D03*
X149870000Y-73660000D03*
%TD*%
%TO.C,R3*%
X153670000Y-93980000D03*
X161290000Y-93980000D03*
%TD*%
%TO.C,R2*%
X153670000Y-91440000D03*
X161290000Y-91440000D03*
%TD*%
%TO.C,2_PIN_CONNECTOR2*%
X165210000Y-73560000D03*
X170290000Y-73560000D03*
%TD*%
%TO.C,RGB_LED_ROUND1*%
X166380000Y-81280000D03*
D11*
X166380000Y-83820000D03*
D10*
X166380000Y-86360000D03*
X166380000Y-88900000D03*
%TD*%
%TO.C,2_PIN_CONNECTOR1*%
X155040000Y-73560000D03*
X160120000Y-73560000D03*
%TD*%
%TO.C,RGB_LED_ROUND3*%
X166370000Y-101600000D03*
D11*
X166370000Y-104140000D03*
D10*
X166370000Y-106680000D03*
X166370000Y-109220000D03*
%TD*%
%TO.C,R5*%
X153670000Y-99060000D03*
X161290000Y-99060000D03*
%TD*%
%TO.C,R6*%
X153670000Y-101600000D03*
X161290000Y-101600000D03*
%TD*%
%TO.C,R4*%
X153670000Y-96520000D03*
X161290000Y-96520000D03*
%TD*%
M02*
