M48
; DRILL file {KiCad 9.0.0} date 2025-03-02T11:59:47-0800
; FORMAT={-:-/ absolute / metric / decimal}
; #@! TF.CreationDate,2025-03-02T11:59:47-08:00
; #@! TF.GenerationSoftware,Kicad,Pcbnew,9.0.0
; #@! TF.FileFunction,Plated,1,2,PTH
FMAT,2
METRIC
; #@! TA.AperFunction,Plated,PTH,ComponentDrill
T1C0.800
%
G90
G05
T1
X132.09Y-77.47
X132.09Y-80.01
X132.09Y-82.55
X132.09Y-85.09
X132.09Y-87.63
X132.09Y-90.17
X132.09Y-92.71
X132.09Y-95.25
X132.09Y-97.79
X132.09Y-100.33
X132.09Y-102.87
X132.09Y-105.41
X132.09Y-107.95
X132.09Y-110.49
X132.09Y-113.03
X147.33Y-77.47
X147.33Y-80.01
X147.33Y-82.55
X147.33Y-85.09
X147.33Y-87.63
X147.33Y-90.17
X147.33Y-92.71
X147.33Y-95.25
X147.33Y-97.79
X147.33Y-100.33
X147.33Y-102.87
X147.33Y-105.41
X147.33Y-107.95
X147.33Y-113.03
X147.333Y-110.338
X151.14Y-92.71
X151.14Y-95.25
X151.14Y-97.79
X151.14Y-100.33
X151.14Y-102.87
X151.14Y-105.41
X152.5Y-77.37
X157.58Y-77.37
X158.76Y-92.71
X158.76Y-95.25
X158.76Y-97.79
X158.76Y-100.33
X158.76Y-102.87
X158.76Y-105.41
X162.67Y-77.37
X165.11Y-85.09
X165.11Y-87.63
X165.11Y-90.17
X165.11Y-92.71
X165.11Y-95.25
X165.11Y-97.79
X165.11Y-100.33
X165.11Y-102.87
X165.11Y-107.95
X165.11Y-110.49
X165.11Y-113.03
X165.11Y-115.57
X167.75Y-77.37
M30
